<svg width="459" height="130" viewBox="0 0 459 130" fill="none" xmlns="http://www.w3.org/2000/svg">
<rect width="416.225" height="76.9213" transform="matrix(-1 0 0 1 432.854 27.0112)" fill="#4285F4" stroke="black" stroke-width="3"/>
<path d="M147.523 38.4551L145.566 39.8801L144.312 37.9611L148.131 35.2061H150.012V48.2021H147.523V38.4551ZM156.394 34.5981H159.168L161.98 42.8061L162.474 44.5351H162.626L163.158 42.8061L166.084 34.5981H168.858L163.899 48.2021H161.201L156.394 34.5981ZM172.73 48.5061C171.704 48.5061 170.862 48.2085 170.203 47.6131C169.545 47.0051 169.215 46.2135 169.215 45.2381C169.215 44.5921 169.386 44.0221 169.728 43.5281C170.07 43.0341 170.539 42.6541 171.134 42.3881C171.73 42.1221 172.388 41.9891 173.11 41.9891C174.111 41.9891 174.966 42.1348 175.675 42.4261V42.0081C175.675 41.4761 175.473 41.0455 175.067 40.7161C174.675 40.3868 174.143 40.2221 173.471 40.2221C173.015 40.2221 172.572 40.3298 172.141 40.5451C171.723 40.7478 171.375 41.0201 171.096 41.3621L169.5 40.1081C169.969 39.5001 170.558 39.0315 171.267 38.7021C171.977 38.3728 172.749 38.2081 173.585 38.2081C175.067 38.2081 176.195 38.5501 176.967 39.2341C177.74 39.9181 178.126 40.9188 178.126 42.2361V48.2021H175.675V47.2141H175.523C175.232 47.5941 174.846 47.9045 174.364 48.1451C173.896 48.3858 173.351 48.5061 172.73 48.5061ZM173.319 46.5681C174.041 46.5681 174.611 46.3401 175.029 45.8841C175.46 45.4155 175.675 44.8708 175.675 44.2501C175.029 43.9461 174.352 43.7941 173.642 43.7941C172.35 43.7941 171.704 44.2755 171.704 45.2381C171.704 45.6308 171.844 45.9538 172.122 46.2071C172.401 46.4478 172.8 46.5681 173.319 46.5681ZM184.39 48.5061C183.212 48.5061 182.255 48.2655 181.521 47.7841C180.799 47.3028 180.292 46.6758 180.001 45.9031L182.224 44.9341C182.426 45.3901 182.711 45.7385 183.079 45.9791C183.459 46.2071 183.896 46.3211 184.39 46.3211C184.846 46.3211 185.226 46.2515 185.53 46.1121C185.834 45.9601 185.986 45.7195 185.986 45.3901C185.986 45.0735 185.846 44.8391 185.568 44.6871C185.289 44.5225 184.871 44.3768 184.314 44.2501L183.174 44.0031C182.388 43.8131 181.736 43.4711 181.217 42.9771C180.697 42.4705 180.438 41.8435 180.438 41.0961C180.438 40.5388 180.602 40.0385 180.932 39.5951C181.274 39.1518 181.73 38.8098 182.3 38.5691C182.882 38.3285 183.522 38.2081 184.219 38.2081C186.22 38.2081 187.556 38.9111 188.228 40.3171L186.1 41.2481C185.72 40.5641 185.112 40.2221 184.276 40.2221C183.845 40.2221 183.503 40.3045 183.25 40.4691C182.996 40.6211 182.87 40.8175 182.87 41.0581C182.87 41.5141 183.3 41.8561 184.162 42.0841L185.587 42.4261C186.549 42.6668 187.271 43.0341 187.753 43.5281C188.247 44.0221 188.494 44.6301 188.494 45.3521C188.494 45.9728 188.31 46.5238 187.943 47.0051C187.588 47.4738 187.094 47.8411 186.461 48.1071C185.84 48.3731 185.15 48.5061 184.39 48.5061ZM195.405 48.5061C194.405 48.5061 193.512 48.2845 192.726 47.8411C191.941 47.3851 191.327 46.7708 190.883 45.9981C190.453 45.2128 190.237 44.3325 190.237 43.3571C190.237 42.3945 190.453 41.5205 190.883 40.7351C191.327 39.9498 191.941 39.3355 192.726 38.8921C193.512 38.4361 194.405 38.2081 195.405 38.2081C196.393 38.2081 197.28 38.4361 198.065 38.8921C198.851 39.3355 199.459 39.9498 199.889 40.7351C200.333 41.5205 200.554 42.3945 200.554 43.3571C200.554 44.3325 200.333 45.2128 199.889 45.9981C199.459 46.7708 198.851 47.3851 198.065 47.8411C197.28 48.2845 196.393 48.5061 195.405 48.5061ZM195.405 46.2071C195.887 46.2071 196.33 46.0931 196.735 45.8651C197.141 45.6371 197.464 45.3078 197.704 44.8771C197.945 44.4465 198.065 43.9398 198.065 43.3571C198.065 42.7871 197.945 42.2868 197.704 41.8561C197.464 41.4255 197.141 41.0961 196.735 40.8681C196.33 40.6401 195.887 40.5261 195.405 40.5261C194.924 40.5261 194.481 40.6401 194.075 40.8681C193.67 41.0961 193.341 41.4255 193.087 41.8561C192.847 42.2868 192.726 42.7871 192.726 43.3571C192.726 43.9271 192.847 44.4338 193.087 44.8771C193.341 45.3078 193.67 45.6371 194.075 45.8651C194.481 46.0931 194.924 46.2071 195.405 46.2071ZM212.232 48.5061C211.257 48.5061 210.383 48.2908 209.61 47.8601C208.837 47.4168 208.229 46.8025 207.786 46.0171C207.355 45.2318 207.14 44.3451 207.14 43.3571C207.14 42.3691 207.355 41.4888 207.786 40.7161C208.229 39.9308 208.837 39.3165 209.61 38.8731C210.383 38.4298 211.257 38.2081 212.232 38.2081C213.309 38.2081 214.233 38.4425 215.006 38.9111C215.779 39.3671 216.336 40.0195 216.678 40.8681L214.398 41.8181C213.993 40.9568 213.271 40.5261 212.232 40.5261C211.472 40.5261 210.845 40.7858 210.351 41.3051C209.87 41.8245 209.629 42.5085 209.629 43.3571C209.629 44.2185 209.87 44.9088 210.351 45.4281C210.845 45.9475 211.472 46.2071 212.232 46.2071C213.283 46.2071 214.043 45.7511 214.512 44.8391L216.773 45.8271C216.355 46.6758 215.76 47.3345 214.987 47.8031C214.214 48.2718 213.296 48.5061 212.232 48.5061ZM223.487 48.5061C222.486 48.5061 221.593 48.2845 220.808 47.8411C220.022 47.3851 219.408 46.7708 218.965 45.9981C218.534 45.2128 218.319 44.3325 218.319 43.3571C218.319 42.3945 218.534 41.5205 218.965 40.7351C219.408 39.9498 220.022 39.3355 220.808 38.8921C221.593 38.4361 222.486 38.2081 223.487 38.2081C224.475 38.2081 225.361 38.4361 226.147 38.8921C226.932 39.3355 227.54 39.9498 227.971 40.7351C228.414 41.5205 228.636 42.3945 228.636 43.3571C228.636 44.3325 228.414 45.2128 227.971 45.9981C227.54 46.7708 226.932 47.3851 226.147 47.8411C225.361 48.2845 224.475 48.5061 223.487 48.5061ZM223.487 46.2071C223.968 46.2071 224.411 46.0931 224.817 45.8651C225.222 45.6371 225.545 45.3078 225.786 44.8771C226.026 44.4465 226.147 43.9398 226.147 43.3571C226.147 42.7871 226.026 42.2868 225.786 41.8561C225.545 41.4255 225.222 41.0961 224.817 40.8681C224.411 40.6401 223.968 40.5261 223.487 40.5261C223.005 40.5261 222.562 40.6401 222.157 40.8681C221.751 41.0961 221.422 41.4255 221.169 41.8561C220.928 42.2868 220.808 42.7871 220.808 43.3571C220.808 43.9271 220.928 44.4338 221.169 44.8771C221.422 45.3078 221.751 45.6371 222.157 45.8651C222.562 46.0931 223.005 46.2071 223.487 46.2071ZM230.735 38.5121H233.072V39.7281H233.224C233.515 39.2595 233.927 38.8921 234.459 38.6261C234.991 38.3475 235.567 38.2081 236.188 38.2081C237.353 38.2081 238.24 38.5628 238.848 39.2721C239.456 39.9815 239.76 40.9505 239.76 42.1791V48.2021H237.271V42.4831C237.271 41.8625 237.112 41.3811 236.796 41.0391C236.479 40.6971 236.036 40.5261 235.466 40.5261C234.794 40.5261 234.25 40.7858 233.832 41.3051C233.426 41.8245 233.224 42.4768 233.224 43.2621V48.2021H230.735V38.5121ZM247.246 38.5121H249.583V39.6901H249.735C250.001 39.2721 250.387 38.9238 250.894 38.6451C251.4 38.3538 251.983 38.2081 252.642 38.2081C253.516 38.2081 254.307 38.4298 255.017 38.8731C255.739 39.3038 256.302 39.9118 256.708 40.6971C257.113 41.4825 257.316 42.3691 257.316 43.3571C257.316 44.3578 257.113 45.2508 256.708 46.0361C256.302 46.8088 255.739 47.4168 255.017 47.8601C254.307 48.2908 253.516 48.5061 252.642 48.5061C251.983 48.5061 251.394 48.3668 250.875 48.0881C250.368 47.8095 249.988 47.4611 249.735 47.0431H249.583L249.735 48.4111V52.3061H247.246V38.5121ZM252.205 46.2071C252.673 46.2071 253.11 46.0868 253.516 45.8461C253.921 45.6055 254.244 45.2698 254.485 44.8391C254.725 44.4085 254.846 43.9145 254.846 43.3571C254.846 42.7998 254.725 42.3058 254.485 41.8751C254.244 41.4445 253.921 41.1151 253.516 40.8871C253.11 40.6465 252.673 40.5261 252.205 40.5261C251.749 40.5261 251.318 40.6465 250.913 40.8871C250.507 41.1151 250.184 41.4445 249.944 41.8751C249.703 42.3058 249.583 42.7998 249.583 43.3571C249.583 43.9145 249.703 44.4085 249.944 44.8391C250.184 45.2698 250.507 45.6055 250.913 45.8461C251.318 46.0868 251.749 46.2071 252.205 46.2071ZM264.25 48.5061C263.249 48.5061 262.356 48.2845 261.571 47.8411C260.786 47.3851 260.171 46.7708 259.728 45.9981C259.297 45.2128 259.082 44.3325 259.082 43.3571C259.082 42.3945 259.297 41.5205 259.728 40.7351C260.171 39.9498 260.786 39.3355 261.571 38.8921C262.356 38.4361 263.249 38.2081 264.25 38.2081C265.238 38.2081 266.125 38.4361 266.91 38.8921C267.695 39.3355 268.303 39.9498 268.734 40.7351C269.177 41.5205 269.399 42.3945 269.399 43.3571C269.399 44.3325 269.177 45.2128 268.734 45.9981C268.303 46.7708 267.695 47.3851 266.91 47.8411C266.125 48.2845 265.238 48.5061 264.25 48.5061ZM264.25 46.2071C264.731 46.2071 265.175 46.0931 265.58 45.8651C265.985 45.6371 266.308 45.3078 266.549 44.8771C266.79 44.4465 266.91 43.9398 266.91 43.3571C266.91 42.7871 266.79 42.2868 266.549 41.8561C266.308 41.4255 265.985 41.0961 265.58 40.8681C265.175 40.6401 264.731 40.5261 264.25 40.5261C263.769 40.5261 263.325 40.6401 262.92 40.8681C262.515 41.0961 262.185 41.4255 261.932 41.8561C261.691 42.2868 261.571 42.7871 261.571 43.3571C261.571 43.9271 261.691 44.4338 261.932 44.8771C262.185 45.3078 262.515 45.6371 262.92 45.8651C263.325 46.0931 263.769 46.2071 264.25 46.2071ZM271.515 38.5121H273.852V39.6901H274.004C274.27 39.2721 274.656 38.9238 275.163 38.6451C275.669 38.3538 276.252 38.2081 276.911 38.2081C277.785 38.2081 278.576 38.4298 279.286 38.8731C280.008 39.3038 280.571 39.9118 280.977 40.6971C281.382 41.4825 281.585 42.3691 281.585 43.3571C281.585 44.3578 281.382 45.2508 280.977 46.0361C280.571 46.8088 280.008 47.4168 279.286 47.8601C278.576 48.2908 277.785 48.5061 276.911 48.5061C276.252 48.5061 275.663 48.3668 275.144 48.0881C274.637 47.8095 274.257 47.4611 274.004 47.0431H273.852L274.004 48.4111V52.3061H271.515V38.5121ZM276.474 46.2071C276.942 46.2071 277.379 46.0868 277.785 45.8461C278.19 45.6055 278.513 45.2698 278.754 44.8391C278.994 44.4085 279.115 43.9145 279.115 43.3571C279.115 42.7998 278.994 42.3058 278.754 41.8751C278.513 41.4445 278.19 41.1151 277.785 40.8871C277.379 40.6465 276.942 40.5261 276.474 40.5261C276.018 40.5261 275.587 40.6465 275.182 40.8871C274.776 41.1151 274.453 41.4445 274.213 41.8751C273.972 42.3058 273.852 42.7998 273.852 43.3571C273.852 43.9145 273.972 44.4085 274.213 44.8391C274.453 45.2698 274.776 45.6055 275.182 45.8461C275.587 46.0868 276.018 46.2071 276.474 46.2071ZM288.519 48.5061C287.518 48.5061 286.625 48.2845 285.84 47.8411C285.054 47.3851 284.44 46.7708 283.997 45.9981C283.566 45.2128 283.351 44.3325 283.351 43.3571C283.351 42.3945 283.566 41.5205 283.997 40.7351C284.44 39.9498 285.054 39.3355 285.84 38.8921C286.625 38.4361 287.518 38.2081 288.519 38.2081C289.507 38.2081 290.393 38.4361 291.179 38.8921C291.964 39.3355 292.572 39.9498 293.003 40.7351C293.446 41.5205 293.668 42.3945 293.668 43.3571C293.668 44.3325 293.446 45.2128 293.003 45.9981C292.572 46.7708 291.964 47.3851 291.179 47.8411C290.393 48.2845 289.507 48.5061 288.519 48.5061ZM288.519 46.2071C289 46.2071 289.443 46.0931 289.849 45.8651C290.254 45.6371 290.577 45.3078 290.818 44.8771C291.058 44.4465 291.179 43.9398 291.179 43.3571C291.179 42.7871 291.058 42.2868 290.818 41.8561C290.577 41.4255 290.254 41.0961 289.849 40.8681C289.443 40.6401 289 40.5261 288.519 40.5261C288.037 40.5261 287.594 40.6401 287.189 40.8681C286.783 41.0961 286.454 41.4255 286.201 41.8561C285.96 42.2868 285.84 42.7871 285.84 43.3571C285.84 43.9271 285.96 44.4338 286.201 44.8771C286.454 45.3078 286.783 45.6371 287.189 45.8651C287.594 46.0931 288.037 46.2071 288.519 46.2071ZM299.892 48.3541C299.41 48.3541 298.967 48.2845 298.562 48.1451C298.156 47.9931 297.827 47.7905 297.574 47.5371C296.978 46.9671 296.681 46.1565 296.681 45.1051V40.6401H294.99V38.5121H296.681V35.7761H299.17V38.5121H301.545V40.6401H299.17V44.6491C299.17 45.1431 299.277 45.4978 299.493 45.7131C299.67 45.9158 299.974 46.0171 300.405 46.0171C300.645 46.0171 300.842 45.9855 300.994 45.9221C301.158 45.8588 301.367 45.7511 301.621 45.5991V48.0311C301.076 48.2465 300.5 48.3541 299.892 48.3541ZM308.202 48.5061C307.24 48.5061 306.372 48.2845 305.599 47.8411C304.827 47.3978 304.219 46.7898 303.775 46.0171C303.345 45.2318 303.129 44.3515 303.129 43.3761C303.129 42.4515 303.345 41.5965 303.775 40.8111C304.206 40.0131 304.801 39.3798 305.561 38.9111C306.321 38.4425 307.17 38.2081 308.107 38.2081C309.108 38.2081 309.969 38.4235 310.691 38.8541C311.413 39.2848 311.958 39.8738 312.325 40.6211C312.705 41.3685 312.895 42.1981 312.895 43.1101C312.895 43.4015 312.876 43.6801 312.838 43.9461H305.561C305.688 44.7188 305.992 45.3078 306.473 45.7131C306.967 46.1058 307.556 46.3021 308.24 46.3021C308.81 46.3021 309.298 46.1818 309.703 45.9411C310.121 45.6878 310.451 45.3521 310.691 44.9341L312.705 45.9221C311.717 47.6448 310.216 48.5061 308.202 48.5061ZM310.501 42.1791C310.476 41.8751 310.362 41.5775 310.159 41.2861C309.969 40.9821 309.697 40.7351 309.342 40.5451C309 40.3425 308.595 40.2411 308.126 40.2411C307.531 40.2411 307.018 40.4185 306.587 40.7731C306.169 41.1151 305.865 41.5838 305.675 42.1791H310.501ZM50.434 72.5061C49.332 72.5061 48.3567 72.2148 47.508 71.6321C46.672 71.0495 46.0957 70.2008 45.779 69.0861L48.135 68.1551C48.287 68.7758 48.5593 69.2571 48.952 69.5991C49.3447 69.9285 49.8387 70.0931 50.434 70.0931C50.9787 70.0931 51.4473 69.9285 51.84 69.5991C52.2453 69.2698 52.448 68.8518 52.448 68.3451C52.448 67.8005 52.2327 67.3698 51.802 67.0531C51.384 66.7238 50.814 66.5591 50.092 66.5591H48.971V64.2981H49.997C50.5543 64.2981 51.023 64.1588 51.403 63.8801C51.7957 63.6015 51.992 63.1961 51.992 62.6641C51.992 62.2335 51.8337 61.8788 51.517 61.6001C51.2003 61.3215 50.795 61.1821 50.301 61.1821C49.7817 61.1821 49.3637 61.3215 49.047 61.6001C48.7303 61.8788 48.5087 62.2271 48.382 62.6451L46.121 61.7141C46.387 60.9541 46.8747 60.2955 47.584 59.7381C48.306 59.1808 49.218 58.9021 50.32 58.9021C51.1307 58.9021 51.8527 59.0541 52.486 59.3581C53.132 59.6621 53.6323 60.0801 53.987 60.6121C54.3417 61.1315 54.519 61.7205 54.519 62.3791C54.519 63.0758 54.3543 63.6711 54.025 64.1651C53.7083 64.6591 53.322 65.0201 52.866 65.2481V65.4001C53.4993 65.6535 54.0123 66.0525 54.405 66.5971C54.7977 67.1418 54.994 67.8005 54.994 68.5731C54.994 69.3205 54.804 69.9918 54.424 70.5871C54.044 71.1825 53.5057 71.6511 52.809 71.9931C52.125 72.3351 51.3333 72.5061 50.434 72.5061ZM66.1549 72.5061C64.9642 72.5061 63.9129 72.1705 63.0009 71.4991C62.0889 70.8278 61.4492 69.8778 61.0819 68.6491L63.4949 67.6991C63.6849 68.4211 64.0079 68.9975 64.4639 69.4281C64.9199 69.8588 65.4899 70.0741 66.1739 70.0741C66.7439 70.0741 67.2315 69.9348 67.6369 69.6561C68.0422 69.3648 68.2449 68.9658 68.2449 68.4591C68.2449 67.9525 68.0485 67.5408 67.6559 67.2241C67.2759 66.8948 66.5919 66.5465 65.6039 66.1791L64.7679 65.8751C63.8939 65.5711 63.1465 65.1088 62.5259 64.4881C61.9052 63.8548 61.5949 63.0631 61.5949 62.1131C61.5949 61.4038 61.7785 60.7578 62.1459 60.1751C62.5132 59.5925 63.0325 59.1365 63.7039 58.8071C64.3752 58.4651 65.1352 58.2941 65.9839 58.2941C67.2125 58.2941 68.1815 58.5855 68.8909 59.1681C69.6002 59.7381 70.0879 60.4095 70.3539 61.1821L68.0929 62.1321C67.9535 61.7141 67.7065 61.3658 67.3519 61.0871C67.0099 60.7958 66.5665 60.6501 66.0219 60.6501C65.4645 60.6501 65.0022 60.7831 64.6349 61.0491C64.2802 61.3025 64.1029 61.6381 64.1029 62.0561C64.1029 62.4615 64.2739 62.8098 64.6159 63.1011C64.9579 63.3798 65.5215 63.6521 66.3069 63.9181L67.1619 64.2031C68.3399 64.6085 69.2392 65.1468 69.8599 65.8181C70.4932 66.4768 70.8099 67.3445 70.8099 68.4211C70.8099 69.3078 70.5819 70.0615 70.1259 70.6821C69.6699 71.2901 69.0809 71.7461 68.3589 72.0501C67.6495 72.3541 66.9149 72.5061 66.1549 72.5061ZM77.0129 72.3541C76.5316 72.3541 76.0883 72.2845 75.6829 72.1451C75.2776 71.9931 74.9483 71.7905 74.6949 71.5371C74.0996 70.9671 73.8019 70.1565 73.8019 69.1051V64.6401H72.1109V62.5121H73.8019V59.7761H76.2909V62.5121H78.6659V64.6401H76.2909V68.6491C76.2909 69.1431 76.3986 69.4978 76.6139 69.7131C76.7913 69.9158 77.0953 70.0171 77.5259 70.0171C77.7666 70.0171 77.9629 69.9855 78.1149 69.9221C78.2796 69.8588 78.4886 69.7511 78.7419 69.5991V72.0311C78.1973 72.2465 77.6209 72.3541 77.0129 72.3541ZM82.6151 61.4481C82.1718 61.4481 81.7918 61.2898 81.4751 60.9731C81.1584 60.6565 81.0001 60.2765 81.0001 59.8331C81.0001 59.3898 81.1584 59.0161 81.4751 58.7121C81.7918 58.3955 82.1718 58.2371 82.6151 58.2371C83.0584 58.2371 83.4321 58.3955 83.7361 58.7121C84.0528 59.0161 84.2111 59.3898 84.2111 59.8331C84.2111 60.2765 84.0528 60.6565 83.7361 60.9731C83.4321 61.2898 83.0584 61.4481 82.6151 61.4481ZM81.3611 62.5121H83.8501V72.2021H81.3611V62.5121ZM91.3073 72.5061C90.332 72.5061 89.458 72.2908 88.6853 71.8601C87.9126 71.4168 87.3046 70.8025 86.8613 70.0171C86.4306 69.2318 86.2153 68.3451 86.2153 67.3571C86.2153 66.3691 86.4306 65.4888 86.8613 64.7161C87.3046 63.9308 87.9126 63.3165 88.6853 62.8731C89.458 62.4298 90.332 62.2081 91.3073 62.2081C92.384 62.2081 93.3086 62.4425 94.0813 62.9111C94.854 63.3671 95.4113 64.0195 95.7533 64.8681L93.4733 65.8181C93.068 64.9568 92.346 64.5261 91.3073 64.5261C90.5473 64.5261 89.9203 64.7858 89.4263 65.3051C88.945 65.8245 88.7043 66.5085 88.7043 67.3571C88.7043 68.2185 88.945 68.9088 89.4263 69.4281C89.9203 69.9475 90.5473 70.2071 91.3073 70.2071C92.3586 70.2071 93.1186 69.7511 93.5873 68.8391L95.8483 69.8271C95.4303 70.6758 94.835 71.3345 94.0623 71.8031C93.2896 72.2718 92.3713 72.5061 91.3073 72.5061ZM98.0189 58.5981H100.508V66.0081H100.641L104.118 62.5121H107.177V62.6641L103.51 66.2551L107.348 72.0501V72.2021H104.403L101.762 67.9651L100.508 69.2001V72.2021H98.0189V58.5981ZM113.275 72.5061C112.312 72.5061 111.445 72.2845 110.672 71.8411C109.899 71.3978 109.291 70.7898 108.848 70.0171C108.417 69.2318 108.202 68.3515 108.202 67.3761C108.202 66.4515 108.417 65.5965 108.848 64.8111C109.279 64.0131 109.874 63.3798 110.634 62.9111C111.394 62.4425 112.243 62.2081 113.18 62.2081C114.181 62.2081 115.042 62.4235 115.764 62.8541C116.486 63.2848 117.031 63.8738 117.398 64.6211C117.778 65.3685 117.968 66.1981 117.968 67.1101C117.968 67.4015 117.949 67.6801 117.911 67.9461H110.634C110.761 68.7188 111.065 69.3078 111.546 69.7131C112.04 70.1058 112.629 70.3021 113.313 70.3021C113.883 70.3021 114.371 70.1818 114.776 69.9411C115.194 69.6878 115.523 69.3521 115.764 68.9341L117.778 69.9221C116.79 71.6448 115.289 72.5061 113.275 72.5061ZM115.574 66.1791C115.549 65.8751 115.435 65.5775 115.232 65.2861C115.042 64.9821 114.77 64.7351 114.415 64.5451C114.073 64.3425 113.668 64.2411 113.199 64.2411C112.604 64.2411 112.091 64.4185 111.66 64.7731C111.242 65.1151 110.938 65.5838 110.748 66.1791H115.574ZM120.265 62.5121H122.602V63.8041H122.754C122.995 63.3481 123.369 62.9745 123.875 62.6831C124.382 62.3791 124.939 62.2271 125.547 62.2271C125.991 62.2271 126.396 62.2968 126.763 62.4361V64.9251C126.421 64.7985 126.13 64.7098 125.889 64.6591C125.661 64.5958 125.414 64.5641 125.148 64.5641C124.414 64.5641 123.831 64.8301 123.4 65.3621C122.97 65.8941 122.754 66.5655 122.754 67.3761V72.2021H120.265V62.5121ZM132.069 72.5061C130.891 72.5061 129.934 72.2655 129.2 71.7841C128.478 71.3028 127.971 70.6758 127.68 69.9031L129.903 68.9341C130.105 69.3901 130.39 69.7385 130.758 69.9791C131.138 70.2071 131.575 70.3211 132.069 70.3211C132.525 70.3211 132.905 70.2515 133.209 70.1121C133.513 69.9601 133.665 69.7195 133.665 69.3901C133.665 69.0735 133.525 68.8391 133.247 68.6871C132.968 68.5225 132.55 68.3768 131.993 68.2501L130.853 68.0031C130.067 67.8131 129.415 67.4711 128.896 66.9771C128.376 66.4705 128.117 65.8435 128.117 65.0961C128.117 64.5388 128.281 64.0385 128.611 63.5951C128.953 63.1518 129.409 62.8098 129.979 62.5691C130.561 62.3285 131.201 62.2081 131.898 62.2081C133.899 62.2081 135.235 62.9111 135.907 64.3171L133.779 65.2481C133.399 64.5641 132.791 64.2221 131.955 64.2221C131.524 64.2221 131.182 64.3045 130.929 64.4691C130.675 64.6211 130.549 64.8175 130.549 65.0581C130.549 65.5141 130.979 65.8561 131.841 66.0841L133.266 66.4261C134.228 66.6668 134.95 67.0341 135.432 67.5281C135.926 68.0221 136.173 68.6301 136.173 69.3521C136.173 69.9728 135.989 70.5238 135.622 71.0051C135.267 71.4738 134.773 71.8411 134.14 72.1071C133.519 72.3731 132.829 72.5061 132.069 72.5061ZM148.003 65.2101H154.444V67.4141H148.003V65.2101ZM166.672 69.9411C167.09 69.5231 167.894 68.7188 169.085 67.5281C170.288 66.3248 171.061 65.5395 171.403 65.1721C171.859 64.6781 172.169 64.2665 172.334 63.9371C172.511 63.6078 172.6 63.2341 172.6 62.8161C172.6 62.3728 172.435 61.9991 172.106 61.6951C171.777 61.3911 171.34 61.2391 170.795 61.2391C170.263 61.2391 169.832 61.3911 169.503 61.6951C169.174 61.9991 168.939 62.3791 168.8 62.8351L166.558 61.9041C166.697 61.4101 166.951 60.9351 167.318 60.4791C167.698 60.0105 168.186 59.6305 168.781 59.3391C169.376 59.0478 170.06 58.9021 170.833 58.9021C171.694 58.9021 172.448 59.0731 173.094 59.4151C173.74 59.7445 174.24 60.2005 174.595 60.7831C174.95 61.3531 175.127 61.9928 175.127 62.7021C175.127 64.1081 174.443 65.4825 173.075 66.8251C172.518 67.3698 171.485 68.3958 169.978 69.9031L170.035 70.0171H175.298V72.2021H166.672V69.9411ZM183.013 58.5981H187.801C188.662 58.5981 189.447 58.7818 190.157 59.1491C190.866 59.5038 191.423 60.0105 191.829 60.6691C192.234 61.3151 192.437 62.0561 192.437 62.8921C192.437 63.7281 192.234 64.4755 191.829 65.1341C191.423 65.7928 190.866 66.3058 190.157 66.6731C189.447 67.0278 188.662 67.2051 187.801 67.2051H185.578V72.2021H183.013V58.5981ZM187.877 64.7731C188.51 64.7731 189.004 64.5895 189.359 64.2221C189.726 63.8548 189.91 63.4115 189.91 62.8921C189.91 62.3728 189.726 61.9358 189.359 61.5811C189.004 61.2138 188.51 61.0301 187.877 61.0301H185.578V64.7731H187.877ZM196.053 61.4481C195.61 61.4481 195.23 61.2898 194.913 60.9731C194.597 60.6565 194.438 60.2765 194.438 59.8331C194.438 59.3898 194.597 59.0161 194.913 58.7121C195.23 58.3955 195.61 58.2371 196.053 58.2371C196.497 58.2371 196.87 58.3955 197.174 58.7121C197.491 59.0161 197.649 59.3898 197.649 59.8331C197.649 60.2765 197.491 60.6565 197.174 60.9731C196.87 61.2898 196.497 61.4481 196.053 61.4481ZM194.799 62.5121H197.288V72.2021H194.799V62.5121ZM200.278 62.5121H202.615V63.7281H202.767C203.059 63.2595 203.47 62.8921 204.002 62.6261C204.534 62.3475 205.111 62.2081 205.731 62.2081C206.897 62.2081 207.783 62.5628 208.391 63.2721C208.999 63.9815 209.303 64.9505 209.303 66.1791V72.2021H206.814V66.4831C206.814 65.8625 206.656 65.3811 206.339 65.0391C206.023 64.6971 205.579 64.5261 205.009 64.5261C204.338 64.5261 203.793 64.7858 203.375 65.3051C202.97 65.8245 202.767 66.4768 202.767 67.2621V72.2021H200.278V62.5121ZM216.573 72.5061C215.611 72.5061 214.743 72.2845 213.97 71.8411C213.198 71.3978 212.59 70.7898 212.146 70.0171C211.716 69.2318 211.5 68.3515 211.5 67.3761C211.5 66.4515 211.716 65.5965 212.146 64.8111C212.577 64.0131 213.172 63.3798 213.932 62.9111C214.692 62.4425 215.541 62.2081 216.478 62.2081C217.479 62.2081 218.34 62.4235 219.062 62.8541C219.784 63.2848 220.329 63.8738 220.696 64.6211C221.076 65.3685 221.266 66.1981 221.266 67.1101C221.266 67.4015 221.247 67.6801 221.209 67.9461H213.932C214.059 68.7188 214.363 69.3078 214.844 69.7131C215.338 70.1058 215.927 70.3021 216.611 70.3021C217.181 70.3021 217.669 70.1818 218.074 69.9411C218.492 69.6878 218.822 69.3521 219.062 68.9341L221.076 69.9221C220.088 71.6448 218.587 72.5061 216.573 72.5061ZM218.872 66.1791C218.847 65.8751 218.733 65.5775 218.53 65.2861C218.34 64.9821 218.068 64.7351 217.713 64.5451C217.371 64.3425 216.966 64.2411 216.497 64.2411C215.902 64.2411 215.389 64.4185 214.958 64.7731C214.54 65.1151 214.236 65.5838 214.046 66.1791H218.872ZM227.342 72.5061C226.164 72.5061 225.208 72.2655 224.473 71.7841C223.751 71.3028 223.245 70.6758 222.953 69.9031L225.176 68.9341C225.379 69.3901 225.664 69.7385 226.031 69.9791C226.411 70.2071 226.848 70.3211 227.342 70.3211C227.798 70.3211 228.178 70.2515 228.482 70.1121C228.786 69.9601 228.938 69.7195 228.938 69.3901C228.938 69.0735 228.799 68.8391 228.52 68.6871C228.242 68.5225 227.824 68.3768 227.266 68.2501L226.126 68.0031C225.341 67.8131 224.689 67.4711 224.169 66.9771C223.65 66.4705 223.39 65.8435 223.39 65.0961C223.39 64.5388 223.555 64.0385 223.884 63.5951C224.226 63.1518 224.682 62.8098 225.252 62.5691C225.835 62.3285 226.475 62.2081 227.171 62.2081C229.173 62.2081 230.509 62.9111 231.18 64.3171L229.052 65.2481C228.672 64.5641 228.064 64.2221 227.228 64.2221C226.798 64.2221 226.456 64.3045 226.202 64.4691C225.949 64.6211 225.822 64.8175 225.822 65.0581C225.822 65.5141 226.253 65.8561 227.114 66.0841L228.539 66.4261C229.502 66.6668 230.224 67.0341 230.705 67.5281C231.199 68.0221 231.446 68.6301 231.446 69.3521C231.446 69.9728 231.263 70.5238 230.895 71.0051C230.541 71.4738 230.047 71.8411 229.413 72.1071C228.793 72.3731 228.102 72.5061 227.342 72.5061ZM243.276 65.2101H249.717V67.4141H243.276V65.2101ZM265.043 62.4551L263.086 63.8801L261.832 61.9611L265.651 59.2061H267.532V72.2021H265.043V62.4551ZM275.967 58.5981H278.532V69.7701H284.289V72.2021H275.967V58.5981ZM286.47 58.5981H288.959V72.2021H286.47V58.5981ZM294.657 72.5061C293.631 72.5061 292.788 72.2085 292.13 71.6131C291.471 71.0051 291.142 70.2135 291.142 69.2381C291.142 68.5921 291.313 68.0221 291.655 67.5281C291.997 67.0341 292.465 66.6541 293.061 66.3881C293.656 66.1221 294.315 65.9891 295.037 65.9891C296.037 65.9891 296.892 66.1348 297.602 66.4261V66.0081C297.602 65.4761 297.399 65.0455 296.994 64.7161C296.601 64.3868 296.069 64.2221 295.398 64.2221C294.942 64.2221 294.498 64.3298 294.068 64.5451C293.65 64.7478 293.301 65.0201 293.023 65.3621L291.427 64.1081C291.895 63.5001 292.484 63.0315 293.194 62.7021C293.903 62.3728 294.676 62.2081 295.512 62.2081C296.994 62.2081 298.121 62.5501 298.894 63.2341C299.666 63.9181 300.053 64.9188 300.053 66.2361V72.2021H297.602V71.2141H297.45C297.158 71.5941 296.772 71.9045 296.291 72.1451C295.822 72.3858 295.277 72.5061 294.657 72.5061ZM295.246 70.5681C295.968 70.5681 296.538 70.3401 296.956 69.8841C297.386 69.4155 297.602 68.8708 297.602 68.2501C296.956 67.9461 296.278 67.7941 295.569 67.7941C294.277 67.7941 293.631 68.2755 293.631 69.2381C293.631 69.6308 293.77 69.9538 294.049 70.2071C294.327 70.4478 294.726 70.5681 295.246 70.5681ZM301.455 62.5121H304.286L306.737 68.8201H306.889L309.378 62.5121H312.171L308.029 72.2021H305.559L301.455 62.5121ZM318.165 72.5061C317.202 72.5061 316.334 72.2845 315.562 71.8411C314.789 71.3978 314.181 70.7898 313.738 70.0171C313.307 69.2318 313.092 68.3515 313.092 67.3761C313.092 66.4515 313.307 65.5965 313.738 64.8111C314.168 64.0131 314.764 63.3798 315.524 62.9111C316.284 62.4425 317.132 62.2081 318.07 62.2081C319.07 62.2081 319.932 62.4235 320.654 62.8541C321.376 63.2848 321.92 63.8738 322.288 64.6211C322.668 65.3685 322.858 66.1981 322.858 67.1101C322.858 67.4015 322.839 67.6801 322.801 67.9461H315.524C315.65 68.7188 315.954 69.3078 316.436 69.7131C316.93 70.1058 317.519 70.3021 318.203 70.3021C318.773 70.3021 319.26 70.1818 319.666 69.9411C320.084 69.6878 320.413 69.3521 320.654 68.9341L322.668 69.9221C321.68 71.6448 320.179 72.5061 318.165 72.5061ZM320.464 66.1791C320.438 65.8751 320.324 65.5775 320.122 65.2861C319.932 64.9821 319.659 64.7351 319.305 64.5451C318.963 64.3425 318.557 64.2411 318.089 64.2411C317.493 64.2411 316.98 64.4185 316.55 64.7731C316.132 65.1151 315.828 65.5838 315.638 66.1791H320.464ZM325.155 62.5121H327.492V63.8041H327.644C327.885 63.3481 328.258 62.9745 328.765 62.6831C329.272 62.3791 329.829 62.2271 330.437 62.2271C330.88 62.2271 331.286 62.2968 331.653 62.4361V64.9251C331.311 64.7985 331.02 64.7098 330.779 64.6591C330.551 64.5958 330.304 64.5641 330.038 64.5641C329.303 64.5641 328.721 64.8301 328.29 65.3621C327.859 65.8941 327.644 66.5655 327.644 67.3761V72.2021H325.155V62.5121ZM337.704 72.5061C336.704 72.5061 335.811 72.2845 335.025 71.8411C334.24 71.3851 333.626 70.7708 333.182 69.9981C332.752 69.2128 332.536 68.3325 332.536 67.3571C332.536 66.3945 332.752 65.5205 333.182 64.7351C333.626 63.9498 334.24 63.3355 335.025 62.8921C335.811 62.4361 336.704 62.2081 337.704 62.2081C338.692 62.2081 339.579 62.4361 340.364 62.8921C341.15 63.3355 341.758 63.9498 342.188 64.7351C342.632 65.5205 342.853 66.3945 342.853 67.3571C342.853 68.3325 342.632 69.2128 342.188 69.9981C341.758 70.7708 341.15 71.3851 340.364 71.8411C339.579 72.2845 338.692 72.5061 337.704 72.5061ZM337.704 70.2071C338.186 70.2071 338.629 70.0931 339.034 69.8651C339.44 69.6371 339.763 69.3078 340.003 68.8771C340.244 68.4465 340.364 67.9398 340.364 67.3571C340.364 66.7871 340.244 66.2868 340.003 65.8561C339.763 65.4255 339.44 65.0961 339.034 64.8681C338.629 64.6401 338.186 64.5261 337.704 64.5261C337.223 64.5261 336.78 64.6401 336.374 64.8681C335.969 65.0961 335.64 65.4255 335.386 65.8561C335.146 66.2868 335.025 66.7871 335.025 67.3571C335.025 67.9271 335.146 68.4338 335.386 68.8771C335.64 69.3078 335.969 69.6371 336.374 69.8651C336.78 70.0931 337.223 70.2071 337.704 70.2071ZM354.189 72.3541C353.707 72.3541 353.264 72.2845 352.859 72.1451C352.453 71.9931 352.124 71.7905 351.871 71.5371C351.275 70.9671 350.978 70.1565 350.978 69.1051V64.6401H349.287V62.5121H350.978V59.7761H353.467V62.5121H355.842V64.6401H353.467V68.6491C353.467 69.1431 353.574 69.4978 353.79 69.7131C353.967 69.9158 354.271 70.0171 354.702 70.0171C354.942 70.0171 355.139 69.9855 355.291 69.9221C355.455 69.8588 355.664 69.7511 355.918 69.5991V72.0311C355.373 72.2465 354.797 72.3541 354.189 72.3541ZM358.292 62.5121H360.629V63.8041H360.781C361.022 63.3481 361.396 62.9745 361.902 62.6831C362.409 62.3791 362.966 62.2271 363.574 62.2271C364.018 62.2271 364.423 62.2968 364.79 62.4361V64.9251C364.448 64.7985 364.157 64.7098 363.916 64.6591C363.688 64.5958 363.441 64.5641 363.175 64.5641C362.441 64.5641 361.858 64.8301 361.427 65.3621C360.997 65.8941 360.781 66.5655 360.781 67.3761V72.2021H358.292V62.5121ZM370.277 72.5061C369.111 72.5061 368.225 72.1451 367.617 71.4231C367.009 70.7011 366.705 69.6941 366.705 68.4021V62.5121H369.194V68.0981C369.194 68.7568 369.352 69.2761 369.669 69.6561C369.985 70.0235 370.403 70.2071 370.923 70.2071C371.632 70.2071 372.196 69.9475 372.614 69.4281C373.032 68.9088 373.241 68.2501 373.241 67.4521V62.5121H375.73V72.2021H373.393V70.9861H373.241C372.949 71.4548 372.538 71.8285 372.006 72.1071C371.486 72.3731 370.91 72.5061 370.277 72.5061ZM378.459 62.5121H380.796V63.6901H380.948C381.214 63.2721 381.6 62.9238 382.107 62.6451C382.613 62.3538 383.196 62.2081 383.855 62.2081C384.729 62.2081 385.52 62.4298 386.23 62.8731C386.952 63.3038 387.515 63.9118 387.921 64.6971C388.326 65.4825 388.529 66.3691 388.529 67.3571C388.529 68.3578 388.326 69.2508 387.921 70.0361C387.515 70.8088 386.952 71.4168 386.23 71.8601C385.52 72.2908 384.729 72.5061 383.855 72.5061C383.196 72.5061 382.607 72.3668 382.088 72.0881C381.581 71.8095 381.201 71.4611 380.948 71.0431H380.796L380.948 72.4111V76.3061H378.459V62.5121ZM383.418 70.2071C383.886 70.2071 384.323 70.0868 384.729 69.8461C385.134 69.6055 385.457 69.2698 385.698 68.8391C385.938 68.4085 386.059 67.9145 386.059 67.3571C386.059 66.7998 385.938 66.3058 385.698 65.8751C385.457 65.4445 385.134 65.1151 384.729 64.8871C384.323 64.6465 383.886 64.5261 383.418 64.5261C382.962 64.5261 382.531 64.6465 382.126 64.8871C381.72 65.1151 381.397 65.4445 381.157 65.8751C380.916 66.3058 380.796 66.7998 380.796 67.3571C380.796 67.9145 380.916 68.4085 381.157 68.8391C381.397 69.2698 381.72 69.6055 382.126 69.8461C382.531 70.0868 382.962 70.2071 383.418 70.2071ZM393.791 72.5061C392.765 72.5061 391.922 72.2085 391.264 71.6131C390.605 71.0051 390.276 70.2135 390.276 69.2381C390.276 68.5921 390.447 68.0221 390.789 67.5281C391.131 67.0341 391.599 66.6541 392.195 66.3881C392.79 66.1221 393.449 65.9891 394.171 65.9891C395.171 65.9891 396.026 66.1348 396.736 66.4261V66.0081C396.736 65.4761 396.533 65.0455 396.128 64.7161C395.735 64.3868 395.203 64.2221 394.532 64.2221C394.076 64.2221 393.632 64.3298 393.202 64.5451C392.784 64.7478 392.435 65.0201 392.157 65.3621L390.561 64.1081C391.029 63.5001 391.618 63.0315 392.328 62.7021C393.037 62.3728 393.81 62.2081 394.646 62.2081C396.128 62.2081 397.255 62.5501 398.028 63.2341C398.8 63.9181 399.187 64.9188 399.187 66.2361V72.2021H396.736V71.2141H396.584C396.292 71.5941 395.906 71.9045 395.425 72.1451C394.956 72.3858 394.411 72.5061 393.791 72.5061ZM394.38 70.5681C395.102 70.5681 395.672 70.3401 396.09 69.8841C396.52 69.4155 396.736 68.8708 396.736 68.2501C396.09 67.9461 395.412 67.7941 394.703 67.7941C393.411 67.7941 392.765 68.2755 392.765 69.2381C392.765 69.6308 392.904 69.9538 393.183 70.2071C393.461 70.4478 393.86 70.5681 394.38 70.5681ZM401.857 62.5121H404.194V63.7281H404.346C404.637 63.2595 405.049 62.8921 405.581 62.6261C406.113 62.3475 406.689 62.2081 407.31 62.2081C408.475 62.2081 409.362 62.5628 409.97 63.2721C410.578 63.9815 410.882 64.9505 410.882 66.1791V72.2021H408.393V66.4831C408.393 65.8625 408.235 65.3811 407.918 65.0391C407.601 64.6971 407.158 64.5261 406.588 64.5261C405.917 64.5261 405.372 64.7858 404.954 65.3051C404.549 65.8245 404.346 66.4768 404.346 67.2621V72.2021H401.857V62.5121ZM128.399 86.4551L126.442 87.8801L125.188 85.9611L129.007 83.2061H130.888V96.2021H128.399V86.4551ZM139.323 82.5981H144.643C145.403 82.5981 146.1 82.7565 146.733 83.0731C147.379 83.3898 147.886 83.8205 148.253 84.3651C148.62 84.9098 148.804 85.5051 148.804 86.1511C148.804 86.8351 148.633 87.4305 148.291 87.9371C147.962 88.4311 147.525 88.8111 146.98 89.0771V89.2291C147.689 89.4825 148.253 89.8878 148.671 90.4451C149.089 90.9898 149.298 91.6485 149.298 92.4211C149.298 93.1685 149.095 93.8335 148.69 94.4161C148.297 94.9861 147.759 95.4295 147.075 95.7461C146.404 96.0501 145.656 96.2021 144.833 96.2021H139.323V82.5981ZM144.453 88.1461C145.01 88.1461 145.454 87.9941 145.783 87.6901C146.125 87.3735 146.296 86.9808 146.296 86.5121C146.296 86.0561 146.131 85.6761 145.802 85.3721C145.485 85.0555 145.061 84.8971 144.529 84.8971H141.888V88.1461H144.453ZM144.738 93.8651C145.359 93.8651 145.84 93.7068 146.182 93.3901C146.537 93.0608 146.714 92.6365 146.714 92.1171C146.714 91.5978 146.537 91.1735 146.182 90.8441C145.827 90.5148 145.321 90.3501 144.662 90.3501H141.888V93.8651H144.738ZM156.299 96.5061C155.298 96.5061 154.405 96.2845 153.62 95.8411C152.834 95.3851 152.22 94.7708 151.777 93.9981C151.346 93.2128 151.131 92.3325 151.131 91.3571C151.131 90.3945 151.346 89.5205 151.777 88.7351C152.22 87.9498 152.834 87.3355 153.62 86.8921C154.405 86.4361 155.298 86.2081 156.299 86.2081C157.287 86.2081 158.173 86.4361 158.959 86.8921C159.744 87.3355 160.352 87.9498 160.783 88.7351C161.226 89.5205 161.448 90.3945 161.448 91.3571C161.448 92.3325 161.226 93.2128 160.783 93.9981C160.352 94.7708 159.744 95.3851 158.959 95.8411C158.173 96.2845 157.287 96.5061 156.299 96.5061ZM156.299 94.2071C156.78 94.2071 157.223 94.0931 157.629 93.8651C158.034 93.6371 158.357 93.3078 158.598 92.8771C158.838 92.4465 158.959 91.9398 158.959 91.3571C158.959 90.7871 158.838 90.2868 158.598 89.8561C158.357 89.4255 158.034 89.0961 157.629 88.8681C157.223 88.6401 156.78 88.5261 156.299 88.5261C155.817 88.5261 155.374 88.6401 154.969 88.8681C154.563 89.0961 154.234 89.4255 153.981 89.8561C153.74 90.2868 153.62 90.7871 153.62 91.3571C153.62 91.9271 153.74 92.4338 153.981 92.8771C154.234 93.3078 154.563 93.6371 154.969 93.8651C155.374 94.0931 155.817 94.2071 156.299 94.2071ZM163.639 82.5981H166.128V96.2021H163.639V82.5981ZM172.548 96.5061C171.37 96.5061 170.414 96.2655 169.679 95.7841C168.957 95.3028 168.451 94.6758 168.159 93.9031L170.382 92.9341C170.585 93.3901 170.87 93.7385 171.237 93.9791C171.617 94.2071 172.054 94.3211 172.548 94.3211C173.004 94.3211 173.384 94.2515 173.688 94.1121C173.992 93.9601 174.144 93.7195 174.144 93.3901C174.144 93.0735 174.005 92.8391 173.726 92.6871C173.448 92.5225 173.03 92.3768 172.472 92.2501L171.332 92.0031C170.547 91.8131 169.895 91.4711 169.375 90.9771C168.856 90.4705 168.596 89.8435 168.596 89.0961C168.596 88.5388 168.761 88.0385 169.09 87.5951C169.432 87.1518 169.888 86.8098 170.458 86.5691C171.041 86.3285 171.681 86.2081 172.377 86.2081C174.379 86.2081 175.715 86.9111 176.386 88.3171L174.258 89.2481C173.878 88.5641 173.27 88.2221 172.434 88.2221C172.004 88.2221 171.662 88.3045 171.408 88.4691C171.155 88.6211 171.028 88.8175 171.028 89.0581C171.028 89.5141 171.459 89.8561 172.32 90.0841L173.745 90.4261C174.708 90.6668 175.43 91.0341 175.911 91.5281C176.405 92.0221 176.652 92.6301 176.652 93.3521C176.652 93.9728 176.469 94.5238 176.101 95.0051C175.747 95.4738 175.253 95.8411 174.619 96.1071C173.999 96.3731 173.308 96.5061 172.548 96.5061ZM181.892 96.5061C180.866 96.5061 180.023 96.2085 179.365 95.6131C178.706 95.0051 178.377 94.2135 178.377 93.2381C178.377 92.5921 178.548 92.0221 178.89 91.5281C179.232 91.0341 179.7 90.6541 180.296 90.3881C180.891 90.1221 181.55 89.9891 182.272 89.9891C183.272 89.9891 184.127 90.1348 184.837 90.4261V90.0081C184.837 89.4761 184.634 89.0455 184.229 88.7161C183.836 88.3868 183.304 88.2221 182.633 88.2221C182.177 88.2221 181.733 88.3298 181.303 88.5451C180.885 88.7478 180.536 89.0201 180.258 89.3621L178.662 88.1081C179.13 87.5001 179.719 87.0315 180.429 86.7021C181.138 86.3728 181.911 86.2081 182.747 86.2081C184.229 86.2081 185.356 86.5501 186.129 87.2341C186.901 87.9181 187.288 88.9188 187.288 90.2361V96.2021H184.837V95.2141H184.685C184.393 95.5941 184.007 95.9045 183.526 96.1451C183.057 96.3858 182.512 96.5061 181.892 96.5061ZM182.481 94.5681C183.203 94.5681 183.773 94.3401 184.191 93.8841C184.621 93.4155 184.837 92.8708 184.837 92.2501C184.191 91.9461 183.513 91.7941 182.804 91.7941C181.512 91.7941 180.866 92.2755 180.866 93.2381C180.866 93.6308 181.005 93.9538 181.284 94.2071C181.562 94.4478 181.961 94.5681 182.481 94.5681ZM204.439 89.2101H210.88V91.4141H204.439V89.2101ZM231.038 86.4551L229.081 87.8801L227.827 85.9611L231.646 83.2061H233.527V96.2021H231.038V86.4551ZM248.032 96.5061C246.715 96.5061 245.512 96.1958 244.422 95.5751C243.333 94.9418 242.472 94.0868 241.838 93.0101C241.218 91.9208 240.907 90.7175 240.907 89.4001C240.907 88.0828 241.218 86.8858 241.838 85.8091C242.472 84.7198 243.333 83.8648 244.422 83.2441C245.512 82.6108 246.715 82.2941 248.032 82.2941C250.084 82.2941 251.782 83.0351 253.124 84.5171L251.319 86.2651C250.445 85.2391 249.356 84.7261 248.051 84.7261C247.203 84.7261 246.43 84.9225 245.733 85.3151C245.037 85.6951 244.486 86.2398 244.08 86.9491C243.688 87.6585 243.491 88.4755 243.491 89.4001C243.491 90.3248 243.688 91.1418 244.08 91.8511C244.486 92.5605 245.037 93.1115 245.733 93.5041C246.43 93.8841 247.203 94.0741 248.051 94.0741C249.483 94.0741 250.68 93.4788 251.642 92.2881L253.466 94.0171C252.795 94.8278 251.997 95.4485 251.072 95.8791C250.16 96.2971 249.147 96.5061 248.032 96.5061ZM259.097 96.5061C257.932 96.5061 257.045 96.1451 256.437 95.4231C255.829 94.7011 255.525 93.6941 255.525 92.4021V86.5121H258.014V92.0981C258.014 92.7568 258.172 93.2761 258.489 93.6561C258.806 94.0235 259.224 94.2071 259.743 94.2071C260.452 94.2071 261.016 93.9475 261.434 93.4281C261.852 92.9088 262.061 92.2501 262.061 91.4521V86.5121H264.55V96.2021H262.213V94.9861H262.061C261.77 95.4548 261.358 95.8285 260.826 96.1071C260.307 96.3731 259.73 96.5061 259.097 96.5061ZM270.226 96.5061C269.2 96.5061 268.358 96.2085 267.699 95.6131C267.04 95.0051 266.711 94.2135 266.711 93.2381C266.711 92.5921 266.882 92.0221 267.224 91.5281C267.566 91.0341 268.035 90.6541 268.63 90.3881C269.225 90.1221 269.884 89.9891 270.606 89.9891C271.607 89.9891 272.462 90.1348 273.171 90.4261V90.0081C273.171 89.4761 272.968 89.0455 272.563 88.7161C272.17 88.3868 271.638 88.2221 270.967 88.2221C270.511 88.2221 270.068 88.3298 269.637 88.5451C269.219 88.7478 268.871 89.0201 268.592 89.3621L266.996 88.1081C267.465 87.5001 268.054 87.0315 268.763 86.7021C269.472 86.3728 270.245 86.2081 271.081 86.2081C272.563 86.2081 273.69 86.5501 274.463 87.2341C275.236 87.9181 275.622 88.9188 275.622 90.2361V96.2021H273.171V95.2141H273.019C272.728 95.5941 272.341 95.9045 271.86 96.1451C271.391 96.3858 270.847 96.5061 270.226 96.5061ZM270.815 94.5681C271.537 94.5681 272.107 94.3401 272.525 93.8841C272.956 93.4155 273.171 92.8708 273.171 92.2501C272.525 91.9461 271.847 91.7941 271.138 91.7941C269.846 91.7941 269.2 92.2755 269.2 93.2381C269.2 93.6308 269.339 93.9538 269.618 94.2071C269.897 94.4478 270.296 94.5681 270.815 94.5681ZM282.361 96.5061C281.487 96.5061 280.689 96.2908 279.967 95.8601C279.257 95.4168 278.694 94.8088 278.276 94.0361C277.87 93.2508 277.668 92.3578 277.668 91.3571C277.668 90.3691 277.87 89.4825 278.276 88.6971C278.694 87.9118 279.257 87.3038 279.967 86.8731C280.689 86.4298 281.487 86.2081 282.361 86.2081C283.019 86.2081 283.602 86.3538 284.109 86.6451C284.615 86.9238 285.002 87.2721 285.268 87.6901H285.42L285.268 86.3221V82.5981H287.738V96.2021H285.42V95.0431H285.268C285.014 95.4611 284.628 95.8095 284.109 96.0881C283.602 96.3668 283.019 96.5061 282.361 96.5061ZM282.779 94.2071C283.247 94.2071 283.684 94.0868 284.09 93.8461C284.495 93.6055 284.818 93.2698 285.059 92.8391C285.299 92.4085 285.42 91.9145 285.42 91.3571C285.42 90.7998 285.299 90.3058 285.059 89.8751C284.818 89.4445 284.495 89.1151 284.09 88.8871C283.684 88.6465 283.247 88.5261 282.779 88.5261C282.323 88.5261 281.892 88.6465 281.487 88.8871C281.081 89.1151 280.758 89.4445 280.518 89.8751C280.277 90.3058 280.157 90.7998 280.157 91.3571C280.157 91.9145 280.277 92.4085 280.518 92.8391C280.758 93.2698 281.081 93.6055 281.487 93.8461C281.892 94.0868 282.323 94.2071 282.779 94.2071ZM295.014 96.5061C294.052 96.5061 293.184 96.2845 292.411 95.8411C291.639 95.3978 291.031 94.7898 290.587 94.0171C290.157 93.2318 289.941 92.3515 289.941 91.3761C289.941 90.4515 290.157 89.5965 290.587 88.8111C291.018 88.0131 291.613 87.3798 292.373 86.9111C293.133 86.4425 293.982 86.2081 294.919 86.2081C295.92 86.2081 296.781 86.4235 297.503 86.8541C298.225 87.2848 298.77 87.8738 299.137 88.6211C299.517 89.3685 299.707 90.1981 299.707 91.1101C299.707 91.4015 299.688 91.6801 299.65 91.9461H292.373C292.5 92.7188 292.804 93.3078 293.285 93.7131C293.779 94.1058 294.368 94.3021 295.052 94.3021C295.622 94.3021 296.11 94.1818 296.515 93.9411C296.933 93.6878 297.263 93.3521 297.503 92.9341L299.517 93.9221C298.529 95.6448 297.028 96.5061 295.014 96.5061ZM297.313 90.1791C297.288 89.8751 297.174 89.5775 296.971 89.2861C296.781 88.9821 296.509 88.7351 296.154 88.5451C295.812 88.3425 295.407 88.2411 294.938 88.2411C294.343 88.2411 293.83 88.4185 293.399 88.7731C292.981 89.1151 292.677 89.5838 292.487 90.1791H297.313ZM302.005 86.5121H304.342V87.8041H304.494C304.734 87.3481 305.108 86.9745 305.615 86.6831C306.121 86.3791 306.679 86.2271 307.287 86.2271C307.73 86.2271 308.135 86.2968 308.503 86.4361V88.9251C308.161 88.7985 307.869 88.7098 307.629 88.6591C307.401 88.5958 307.154 88.5641 306.888 88.5641C306.153 88.5641 305.57 88.8301 305.14 89.3621C304.709 89.8941 304.494 90.5655 304.494 91.3761V96.2021H302.005V86.5121ZM310.493 86.5121H312.83V87.7281H312.982C313.273 87.2595 313.685 86.8921 314.217 86.6261C314.749 86.3475 315.325 86.2081 315.946 86.2081C317.111 86.2081 317.998 86.5628 318.606 87.2721C319.214 87.9815 319.518 88.9505 319.518 90.1791V96.2021H317.029V90.4831C317.029 89.8625 316.871 89.3811 316.554 89.0391C316.237 88.6971 315.794 88.5261 315.224 88.5261C314.553 88.5261 314.008 88.7858 313.59 89.3051C313.185 89.8245 312.982 90.4768 312.982 91.2621V96.2021H310.493V86.5121ZM326.883 96.5061C325.882 96.5061 324.989 96.2845 324.204 95.8411C323.419 95.3851 322.804 94.7708 322.361 93.9981C321.93 93.2128 321.715 92.3325 321.715 91.3571C321.715 90.3945 321.93 89.5205 322.361 88.7351C322.804 87.9498 323.419 87.3355 324.204 86.8921C324.989 86.4361 325.882 86.2081 326.883 86.2081C327.871 86.2081 328.758 86.4361 329.543 86.8921C330.328 87.3355 330.936 87.9498 331.367 88.7351C331.81 89.5205 332.032 90.3945 332.032 91.3571C332.032 92.3325 331.81 93.2128 331.367 93.9981C330.936 94.7708 330.328 95.3851 329.543 95.8411C328.758 96.2845 327.871 96.5061 326.883 96.5061ZM326.883 94.2071C327.364 94.2071 327.808 94.0931 328.213 93.8651C328.618 93.6371 328.941 93.3078 329.182 92.8771C329.423 92.4465 329.543 91.9398 329.543 91.3571C329.543 90.7871 329.423 90.2868 329.182 89.8561C328.941 89.4255 328.618 89.0961 328.213 88.8681C327.808 88.6401 327.364 88.5261 326.883 88.5261C326.402 88.5261 325.958 88.6401 325.553 88.8681C325.148 89.0961 324.818 89.4255 324.565 89.8561C324.324 90.2868 324.204 90.7871 324.204 91.3571C324.204 91.9271 324.324 92.4338 324.565 92.8771C324.818 93.3078 325.148 93.6371 325.553 93.8651C325.958 94.0931 326.402 94.2071 326.883 94.2071Z" fill="white"/>
<path d="M3.70529 79.5164H10.3119C12.6656 79.5164 14.5773 81.3956 14.5773 83.7185V106.994C14.5773 118.596 24.1229 128 35.9001 128H50.7891C51.7323 128 52.4944 127.249 52.4944 126.32V102.75C52.4944 101.821 51.7323 101.07 50.7891 101.07H39.8624C37.5086 101.07 35.5969 99.1911 35.5969 96.8681V33.1318C35.5969 30.813 37.5044 28.9298 39.8624 28.9298H50.7891C51.7323 28.9298 52.4944 28.179 52.4944 27.2498V3.68C52.4944 2.75081 51.7323 2 50.7891 2H35.9001C24.1229 2 14.5773 11.4039 14.5773 23.0062V47.331C14.5773 49.6498 12.6698 51.533 10.3119 51.533H3.70529C2.7621 51.533 2 52.2838 2 53.213V77.8323C2 78.7656 2.7621 79.5164 3.70529 79.5164Z" fill="#F9AB00" stroke="black" stroke-width="3" stroke-miterlimit="10" stroke-linejoin="round"/>
<path d="M455.28 50.4836H448.92C446.654 50.4836 444.814 48.6044 444.814 46.2815V23.0062C444.814 11.4039 435.625 2 424.288 2H409.956C409.048 2 408.314 2.75081 408.314 3.68V27.2498C408.314 28.179 409.048 28.9298 409.956 28.9298H420.474C422.74 28.9298 424.58 30.8089 424.58 33.1318V96.8681C424.58 99.187 422.744 101.07 420.474 101.07H409.956C409.048 101.07 408.314 101.821 408.314 102.75V126.32C408.314 127.249 409.048 128 409.956 128H424.288C435.625 128 444.814 118.596 444.814 106.994V82.669C444.814 80.3502 446.65 78.467 448.92 78.467H455.28C456.188 78.467 456.921 77.7161 456.921 76.787V52.1677C456.921 51.2385 456.183 50.4836 455.28 50.4836Z" fill="#34A853" stroke="black" stroke-width="3" stroke-miterlimit="10" stroke-linejoin="round"/>
</svg>
