<svg width="445" height="144" viewBox="0 0 445 144" fill="none" xmlns="http://www.w3.org/2000/svg">
<path d="M413.267 135.397H414.767V133.897V26.4339V25.7457L414.245 25.2969L406.041 18.2373L405.619 17.8743H405.063H44.0884H42.6527L42.5899 19.3086L37.8042 128.602L37.7526 129.781L38.8868 130.108L57.0039 135.338L57.2077 135.397H57.4199H413.267Z" fill="#EA4335" stroke="black" stroke-width="3"/>
<rect x="1.5" y="-1.5" width="367.414" height="111.994" transform="matrix(-1 0 0 1 408.608 14.6126)" fill="white" stroke="black" stroke-width="3"/>
<path d="M132.82 26.236H145.406L144.855 29.339H135.488L134.473 35.081H142.912L142.39 38.155H133.951L132.936 43.897H142.303L141.723 47H129.137L132.82 26.236ZM149.531 26.236H152.721L149.067 47H145.877L149.531 26.236ZM163.103 32.21H166.119L165.771 34.153H165.945C166.448 33.4183 167.115 32.8383 167.946 32.413C168.777 31.9683 169.773 31.746 170.933 31.746C172.074 31.746 173.098 32.036 174.007 32.616C174.935 33.196 175.66 33.9983 176.182 35.023C176.704 36.0477 176.965 37.2173 176.965 38.532C176.965 40.1753 176.598 41.6833 175.863 43.056C175.148 44.4093 174.142 45.4823 172.847 46.275C171.571 47.0677 170.121 47.464 168.497 47.464C167.472 47.464 166.544 47.232 165.713 46.768C164.901 46.304 164.331 45.7433 164.002 45.086H163.828L163.654 47.145L162.581 53.264H159.391L163.103 32.21ZM168.555 44.535C169.541 44.535 170.43 44.2933 171.223 43.81C172.016 43.3073 172.634 42.621 173.079 41.751C173.524 40.881 173.746 39.9047 173.746 38.822C173.746 37.5653 173.379 36.5697 172.644 35.835C171.929 35.081 171.01 34.704 169.889 34.704C168.961 34.704 168.101 34.9553 167.308 35.458C166.515 35.9413 165.877 36.6277 165.394 37.517C164.93 38.387 164.698 39.3827 164.698 40.504C164.698 41.7027 165.065 42.679 165.8 43.433C166.535 44.1677 167.453 44.535 168.555 44.535ZM186.362 47.464C185.008 47.464 183.8 47.1547 182.737 46.536C181.693 45.9173 180.881 45.0763 180.301 44.013C179.721 42.9497 179.431 41.7703 179.431 40.475C179.431 38.851 179.798 37.372 180.533 36.038C181.267 34.704 182.292 33.66 183.607 32.906C184.941 32.1327 186.468 31.746 188.189 31.746C189.542 31.746 190.741 32.0553 191.785 32.674C192.848 33.2927 193.67 34.1337 194.25 35.197C194.83 36.2603 195.12 37.4397 195.12 38.735C195.12 40.359 194.752 41.838 194.018 43.172C193.283 44.506 192.249 45.5597 190.915 46.333C189.6 47.087 188.082 47.464 186.362 47.464ZM186.71 44.535C187.676 44.535 188.546 44.2933 189.32 43.81C190.112 43.3073 190.731 42.6403 191.176 41.809C191.64 40.9583 191.872 40.0303 191.872 39.025C191.872 37.7683 191.504 36.734 190.77 35.922C190.035 35.11 189.059 34.704 187.841 34.704C186.855 34.704 185.965 34.9457 185.173 35.429C184.399 35.9123 183.781 36.5793 183.317 37.43C182.872 38.2613 182.65 39.1797 182.65 40.185C182.65 41.4417 183.017 42.4857 183.752 43.317C184.506 44.129 185.492 44.535 186.71 44.535ZM203.373 47.464C202.233 47.464 201.208 47.1837 200.299 46.623C199.391 46.043 198.675 45.2407 198.153 44.216C197.631 43.1913 197.37 42.0217 197.37 40.707C197.37 39.0637 197.728 37.5557 198.443 36.183C199.159 34.8103 200.154 33.7277 201.43 32.935C202.726 32.1423 204.185 31.746 205.809 31.746C206.853 31.746 207.781 31.9877 208.593 32.471C209.405 32.935 209.985 33.4957 210.333 34.153H210.507L210.681 32.065L211.725 26.236H214.915L211.232 47H208.216L208.564 45.086H208.39C207.269 46.6713 205.597 47.464 203.373 47.464ZM204.446 44.535C205.374 44.535 206.235 44.2933 207.027 43.81C207.82 43.3073 208.448 42.6113 208.912 41.722C209.376 40.8327 209.608 39.8273 209.608 38.706C209.608 37.5073 209.241 36.5407 208.506 35.806C207.791 35.0713 206.882 34.704 205.78 34.704C204.794 34.704 203.905 34.9553 203.112 35.458C202.32 35.9413 201.701 36.618 201.256 37.488C200.812 38.358 200.589 39.3343 200.589 40.417C200.589 41.6543 200.947 42.65 201.662 43.404C202.397 44.158 203.325 44.535 204.446 44.535ZM222.55 47.464C221.196 47.464 219.998 47.1547 218.954 46.536C217.929 45.9173 217.136 45.086 216.576 44.042C216.034 42.9787 215.764 41.8187 215.764 40.562C215.764 39.0153 216.121 37.5653 216.837 36.212C217.552 34.8587 218.557 33.776 219.853 32.964C221.148 32.152 222.627 31.746 224.29 31.746C225.604 31.746 226.745 32.036 227.712 32.616C228.678 33.1767 229.413 33.9307 229.916 34.878C230.418 35.8253 230.67 36.8597 230.67 37.981C230.67 38.8317 230.563 39.605 230.351 40.301H218.983C218.963 40.417 218.954 40.6297 218.954 40.939C218.973 42.0603 219.35 42.9497 220.085 43.607C220.839 44.2643 221.738 44.593 222.782 44.593C223.864 44.593 224.763 44.39 225.479 43.984C226.194 43.578 226.793 42.969 227.277 42.157L229.713 43.491C228.127 46.1397 225.74 47.464 222.55 47.464ZM227.567 37.865V37.633C227.567 36.7823 227.238 36.0477 226.581 35.429C225.943 34.8103 225.073 34.501 223.971 34.501C222.869 34.501 221.912 34.8297 221.1 35.487C220.307 36.125 219.746 36.9177 219.418 37.865H227.567ZM235.314 32.21H238.33L237.982 34.211H238.127C238.552 33.457 239.19 32.8673 240.041 32.442C240.911 31.9973 241.849 31.775 242.854 31.775C243.589 31.775 244.169 31.8717 244.594 32.065L243.985 35.458C243.714 35.284 243.386 35.1487 242.999 35.052C242.612 34.9553 242.226 34.907 241.839 34.907C240.737 34.907 239.751 35.3227 238.881 36.154C238.011 36.9853 237.47 37.9907 237.257 39.17L235.894 47H232.704L235.314 32.21ZM258.341 47.464C257.2 47.464 256.175 47.1837 255.267 46.623C254.358 46.043 253.643 45.2407 253.121 44.216C252.599 43.1913 252.338 42.0217 252.338 40.707C252.338 39.0637 252.695 37.5557 253.411 36.183C254.126 34.8103 255.122 33.7277 256.398 32.935C257.693 32.1423 259.153 31.746 260.777 31.746C261.821 31.746 262.749 31.9877 263.561 32.471C264.373 32.935 264.953 33.4957 265.301 34.153H265.475L265.649 32.065L266.693 26.236H269.883L266.2 47H263.184L263.532 45.086H263.358C262.236 46.6713 260.564 47.464 258.341 47.464ZM259.414 44.535C260.342 44.535 261.202 44.2933 261.995 43.81C262.787 43.3073 263.416 42.6113 263.88 41.722C264.344 40.8327 264.576 39.8273 264.576 38.706C264.576 37.5073 264.208 36.5407 263.474 35.806C262.758 35.0713 261.85 34.704 260.748 34.704C259.762 34.704 258.872 34.9553 258.08 35.458C257.287 35.9413 256.668 36.618 256.224 37.488C255.779 38.358 255.557 39.3343 255.557 40.417C255.557 41.6543 255.914 42.65 256.63 43.404C257.364 44.158 258.292 44.535 259.414 44.535ZM277.517 47.464C276.164 47.464 274.965 47.1547 273.921 46.536C272.897 45.9173 272.104 45.086 271.543 44.042C271.002 42.9787 270.731 41.8187 270.731 40.562C270.731 39.0153 271.089 37.5653 271.804 36.212C272.52 34.8587 273.525 33.776 274.82 32.964C276.116 32.152 277.595 31.746 279.257 31.746C280.572 31.746 281.713 32.036 282.679 32.616C283.646 33.1767 284.381 33.9307 284.883 34.878C285.386 35.8253 285.637 36.8597 285.637 37.981C285.637 38.8317 285.531 39.605 285.318 40.301H273.95C273.931 40.417 273.921 40.6297 273.921 40.939C273.941 42.0603 274.318 42.9497 275.052 43.607C275.806 44.2643 276.705 44.593 277.749 44.593C278.832 44.593 279.731 44.39 280.446 43.984C281.162 43.578 281.761 42.969 282.244 42.157L284.68 43.491C283.095 46.1397 280.707 47.464 277.517 47.464ZM282.534 37.865V37.633C282.534 36.7823 282.206 36.0477 281.548 35.429C280.91 34.8103 280.04 34.501 278.938 34.501C277.836 34.501 276.879 34.8297 276.067 35.487C275.275 36.125 274.714 36.9177 274.385 37.865H282.534ZM298.278 26.236H301.468L297.814 47H294.624L298.278 26.236ZM307.366 47.464C306.476 47.464 305.664 47.2707 304.93 46.884C304.195 46.478 303.605 45.927 303.161 45.231C302.735 44.535 302.523 43.752 302.523 42.882C302.523 41.2387 303.112 39.9337 304.292 38.967C305.471 38.0003 307.124 37.517 309.251 37.517C309.966 37.517 310.672 37.5943 311.368 37.749C312.064 37.9037 312.692 38.1067 313.253 38.358L313.398 37.633C313.456 37.343 313.485 37.111 313.485 36.937C313.485 36.2023 313.166 35.6127 312.528 35.168C311.909 34.704 311.145 34.472 310.237 34.472C308.729 34.472 307.491 35.052 306.525 36.212L304.234 34.559C304.968 33.6503 305.887 32.9543 306.989 32.471C308.091 31.9877 309.289 31.746 310.585 31.746C312.441 31.746 313.9 32.1907 314.964 33.08C316.027 33.9693 316.559 35.1487 316.559 36.618C316.559 37.024 316.51 37.5363 316.414 38.155L314.848 47H311.716L312.035 45.231H311.861C311.377 45.927 310.759 46.478 310.005 46.884C309.251 47.2707 308.371 47.464 307.366 47.464ZM308.294 44.825C309.454 44.825 310.449 44.448 311.281 43.694C312.112 42.94 312.624 41.9733 312.818 40.794C312.276 40.504 311.735 40.2913 311.194 40.156C310.672 40.0207 310.014 39.953 309.222 39.953C308.178 39.953 307.346 40.1947 306.728 40.678C306.109 41.142 305.8 41.7993 305.8 42.65C305.8 43.3073 306.032 43.839 306.496 44.245C306.979 44.6317 307.578 44.825 308.294 44.825ZM74.5699 62.093C73.9706 62.093 73.4583 61.89 73.0329 61.484C72.6269 61.0587 72.4239 60.5463 72.4239 59.947C72.4239 59.3477 72.6269 58.845 73.0329 58.439C73.4583 58.0137 73.9706 57.801 74.5699 57.801C75.1693 57.801 75.6719 58.0137 76.0779 58.439C76.5033 58.845 76.7159 59.3477 76.7159 59.947C76.7159 60.5463 76.5033 61.0587 76.0779 61.484C75.6719 61.89 75.1693 62.093 74.5699 62.093ZM72.1919 64.21H75.3819L72.8009 79H69.6109L72.1919 64.21ZM82.8605 66.153C83.3632 65.399 84.0205 64.8093 84.8325 64.384C85.6445 63.9587 86.5822 63.746 87.6455 63.746C89.1535 63.746 90.3232 64.1617 91.1545 64.993C91.9859 65.805 92.4015 66.878 92.4015 68.212C92.4015 68.8113 92.3435 69.459 92.2275 70.155L90.6615 79H87.4715L89.0085 70.329C89.1052 69.807 89.1535 69.3817 89.1535 69.053C89.1535 68.3183 88.9022 67.748 88.3995 67.342C87.9162 66.9167 87.2589 66.704 86.4275 66.704C85.3062 66.704 84.3395 67.1003 83.5275 67.893C82.7349 68.6857 82.2322 69.72 82.0195 70.996L80.5985 79H77.4085L80.0185 64.21H83.0345L82.6865 66.153H82.8605ZM100.22 79.232C99.0604 79.232 98.1324 78.913 97.4364 78.275C96.7404 77.637 96.3924 76.7477 96.3924 75.607C96.3924 75.1043 96.4408 74.6113 96.5374 74.128L97.7844 67.023H95.2034L95.7254 64.21H98.2774L99.0314 60.034H102.221L101.467 64.21H105.092L104.57 67.023H100.974L99.7564 73.838C99.6984 74.2633 99.6694 74.5823 99.6694 74.795C99.6694 75.2397 99.8048 75.5973 100.075 75.868C100.346 76.1193 100.723 76.245 101.206 76.245C101.883 76.245 102.511 76.0613 103.091 75.694L102.569 78.797C101.873 79.087 101.09 79.232 100.22 79.232ZM112.692 79.464C111.339 79.464 110.14 79.1547 109.096 78.536C108.072 77.9173 107.279 77.086 106.718 76.042C106.177 74.9787 105.906 73.8187 105.906 72.562C105.906 71.0153 106.264 69.5653 106.979 68.212C107.695 66.8587 108.7 65.776 109.995 64.964C111.291 64.152 112.77 63.746 114.432 63.746C115.747 63.746 116.888 64.036 117.854 64.616C118.821 65.1767 119.556 65.9307 120.058 66.878C120.561 67.8253 120.812 68.8597 120.812 69.981C120.812 70.8317 120.706 71.605 120.493 72.301H109.125C109.106 72.417 109.096 72.6297 109.096 72.939C109.116 74.0603 109.493 74.9497 110.227 75.607C110.981 76.2643 111.88 76.593 112.924 76.593C114.007 76.593 114.906 76.39 115.621 75.984C116.337 75.578 116.936 74.969 117.419 74.157L119.855 75.491C118.27 78.1397 115.882 79.464 112.692 79.464ZM117.709 69.865V69.633C117.709 68.7823 117.381 68.0477 116.723 67.429C116.085 66.8103 115.215 66.501 114.113 66.501C113.011 66.501 112.054 66.8297 111.242 67.487C110.45 68.125 109.889 68.9177 109.56 69.865H117.709ZM126.501 58.236H129.691L126.037 79H122.847L126.501 58.236ZM135.498 62.093C134.899 62.093 134.387 61.89 133.961 61.484C133.555 61.0587 133.352 60.5463 133.352 59.947C133.352 59.3477 133.555 58.845 133.961 58.439C134.387 58.0137 134.899 57.801 135.498 57.801C136.098 57.801 136.6 58.0137 137.006 58.439C137.432 58.845 137.644 59.3477 137.644 59.947C137.644 60.5463 137.432 61.0587 137.006 61.484C136.6 61.89 136.098 62.093 135.498 62.093ZM133.12 64.21H136.31L133.729 79H130.539L133.12 64.21ZM144.372 85.728C143.212 85.728 142.188 85.525 141.298 85.119C140.428 84.7323 139.723 84.2103 139.181 83.553C138.659 82.915 138.321 82.2383 138.166 81.523L141.298 80.305C141.472 81.0783 141.859 81.697 142.458 82.161C143.058 82.625 143.821 82.857 144.749 82.857C146.141 82.857 147.272 82.4703 148.142 81.697C149.012 80.9237 149.583 79.812 149.853 78.362L150.114 76.912H149.969C149.447 77.666 148.79 78.2267 147.997 78.594C147.224 78.9613 146.267 79.145 145.126 79.145C144.005 79.145 142.99 78.8743 142.081 78.333C141.173 77.7723 140.457 76.9893 139.935 75.984C139.413 74.9787 139.152 73.838 139.152 72.562C139.152 71.0153 139.491 69.5653 140.167 68.212C140.844 66.8587 141.801 65.776 143.038 64.964C144.295 64.152 145.745 63.746 147.388 63.746C148.432 63.746 149.351 63.949 150.143 64.355C150.936 64.761 151.516 65.312 151.883 66.008H152.057L152.376 64.21H155.421L152.898 78.449C152.473 80.9043 151.535 82.7313 150.085 83.93C148.635 85.1287 146.731 85.728 144.372 85.728ZM145.996 76.245C146.963 76.245 147.843 75.9937 148.635 75.491C149.428 74.9883 150.047 74.3117 150.491 73.461C150.955 72.591 151.187 71.6533 151.187 70.648C151.187 69.4493 150.83 68.4923 150.114 67.777C149.418 67.0423 148.548 66.675 147.504 66.675C146.499 66.675 145.6 66.9263 144.807 67.429C144.034 67.9123 143.425 68.589 142.98 69.459C142.555 70.3097 142.342 71.2667 142.342 72.33C142.342 73.5673 142.681 74.534 143.357 75.23C144.053 75.9067 144.933 76.245 145.996 76.245ZM163.582 79.464C162.228 79.464 161.03 79.1547 159.986 78.536C158.961 77.9173 158.168 77.086 157.608 76.042C157.066 74.9787 156.796 73.8187 156.796 72.562C156.796 71.0153 157.153 69.5653 157.869 68.212C158.584 66.8587 159.589 65.776 160.885 64.964C162.18 64.152 163.659 63.746 165.322 63.746C166.636 63.746 167.777 64.036 168.744 64.616C169.71 65.1767 170.445 65.9307 170.948 66.878C171.45 67.8253 171.702 68.8597 171.702 69.981C171.702 70.8317 171.595 71.605 171.383 72.301H160.015C159.995 72.417 159.986 72.6297 159.986 72.939C160.005 74.0603 160.382 74.9497 161.117 75.607C161.871 76.2643 162.77 76.593 163.814 76.593C164.896 76.593 165.795 76.39 166.511 75.984C167.226 75.578 167.825 74.969 168.309 74.157L170.745 75.491C169.159 78.1397 166.772 79.464 163.582 79.464ZM168.599 69.865V69.633C168.599 68.7823 168.27 68.0477 167.613 67.429C166.975 66.8103 166.105 66.501 165.003 66.501C163.901 66.501 162.944 66.8297 162.132 67.487C161.339 68.125 160.778 68.9177 160.45 69.865H168.599ZM179.188 66.153C179.691 65.399 180.348 64.8093 181.16 64.384C181.972 63.9587 182.91 63.746 183.973 63.746C185.481 63.746 186.651 64.1617 187.482 64.993C188.313 65.805 188.729 66.878 188.729 68.212C188.729 68.8113 188.671 69.459 188.555 70.155L186.989 79H183.799L185.336 70.329C185.433 69.807 185.481 69.3817 185.481 69.053C185.481 68.3183 185.23 67.748 184.727 67.342C184.244 66.9167 183.586 66.704 182.755 66.704C181.634 66.704 180.667 67.1003 179.855 67.893C179.062 68.6857 178.56 69.72 178.347 70.996L176.926 79H173.736L176.346 64.21H179.362L179.014 66.153H179.188ZM198.328 79.464C197.014 79.464 195.844 79.1547 194.819 78.536C193.795 77.9173 193.002 77.086 192.441 76.042C191.881 74.9787 191.6 73.8187 191.6 72.562C191.6 70.9767 191.968 69.5073 192.702 68.154C193.437 66.8007 194.471 65.7277 195.805 64.935C197.139 64.1423 198.667 63.746 200.387 63.746C201.992 63.746 203.326 64.1423 204.389 64.935C205.453 65.7277 206.158 66.7137 206.506 67.893L203.519 69.024C203.268 68.3087 202.833 67.748 202.214 67.342C201.596 66.9167 200.851 66.704 199.981 66.704C199.034 66.704 198.164 66.9457 197.371 67.429C196.598 67.893 195.979 68.5503 195.515 69.401C195.071 70.2517 194.848 71.2087 194.848 72.272C194.848 73.49 195.206 74.505 195.921 75.317C196.637 76.129 197.565 76.535 198.705 76.535C199.633 76.535 200.445 76.3223 201.141 75.897C201.857 75.4523 202.427 74.853 202.852 74.099L205.491 75.346C203.964 78.0913 201.576 79.464 198.328 79.464ZM213.136 62.093C212.536 62.093 212.024 61.89 211.599 61.484C211.193 61.0587 210.99 60.5463 210.99 59.947C210.99 59.3477 211.193 58.845 211.599 58.439C212.024 58.0137 212.536 57.801 213.136 57.801C213.735 57.801 214.238 58.0137 214.644 58.439C215.069 58.845 215.282 59.3477 215.282 59.947C215.282 60.5463 215.069 61.0587 214.644 61.484C214.238 61.89 213.735 62.093 213.136 62.093ZM210.758 64.21H213.948L211.367 79H208.177L210.758 64.21ZM221.198 79.464C220.308 79.464 219.496 79.2707 218.762 78.884C218.027 78.478 217.437 77.927 216.993 77.231C216.567 76.535 216.355 75.752 216.355 74.882C216.355 73.2387 216.944 71.9337 218.124 70.967C219.303 70.0003 220.956 69.517 223.083 69.517C223.798 69.517 224.504 69.5943 225.2 69.749C225.896 69.9037 226.524 70.1067 227.085 70.358L227.23 69.633C227.288 69.343 227.317 69.111 227.317 68.937C227.317 68.2023 226.998 67.6127 226.36 67.168C225.741 66.704 224.977 66.472 224.069 66.472C222.561 66.472 221.323 67.052 220.357 68.212L218.066 66.559C218.8 65.6503 219.719 64.9543 220.821 64.471C221.923 63.9877 223.121 63.746 224.417 63.746C226.273 63.746 227.732 64.1907 228.796 65.08C229.859 65.9693 230.391 67.1487 230.391 68.618C230.391 69.024 230.342 69.5363 230.246 70.155L228.68 79H225.548L225.867 77.231H225.693C225.209 77.927 224.591 78.478 223.837 78.884C223.083 79.2707 222.203 79.464 221.198 79.464ZM222.126 76.825C223.286 76.825 224.281 76.448 225.113 75.694C225.944 74.94 226.456 73.9733 226.65 72.794C226.108 72.504 225.567 72.2913 225.026 72.156C224.504 72.0207 223.846 71.953 223.054 71.953C222.01 71.953 221.178 72.1947 220.56 72.678C219.941 73.142 219.632 73.7993 219.632 74.65C219.632 75.3073 219.864 75.839 220.328 76.245C220.811 76.6317 221.41 76.825 222.126 76.825ZM244.476 79.464C243.586 79.464 242.774 79.2707 242.04 78.884C241.305 78.478 240.715 77.927 240.271 77.231C239.845 76.535 239.633 75.752 239.633 74.882C239.633 73.2387 240.222 71.9337 241.402 70.967C242.581 70.0003 244.234 69.517 246.361 69.517C247.076 69.517 247.782 69.5943 248.478 69.749C249.174 69.9037 249.802 70.1067 250.363 70.358L250.508 69.633C250.566 69.343 250.595 69.111 250.595 68.937C250.595 68.2023 250.276 67.6127 249.638 67.168C249.019 66.704 248.255 66.472 247.347 66.472C245.839 66.472 244.601 67.052 243.635 68.212L241.344 66.559C242.078 65.6503 242.997 64.9543 244.099 64.471C245.201 63.9877 246.399 63.746 247.695 63.746C249.551 63.746 251.01 64.1907 252.074 65.08C253.137 65.9693 253.669 67.1487 253.669 68.618C253.669 69.024 253.62 69.5363 253.524 70.155L251.958 79H248.826L249.145 77.231H248.971C248.487 77.927 247.869 78.478 247.115 78.884C246.361 79.2707 245.481 79.464 244.476 79.464ZM245.404 76.825C246.564 76.825 247.559 76.448 248.391 75.694C249.222 74.94 249.734 73.9733 249.928 72.794C249.386 72.504 248.845 72.2913 248.304 72.156C247.782 72.0207 247.124 71.953 246.332 71.953C245.288 71.953 244.456 72.1947 243.838 72.678C243.219 73.142 242.91 73.7993 242.91 74.65C242.91 75.3073 243.142 75.839 243.606 76.245C244.089 76.6317 244.688 76.825 245.404 76.825ZM258.047 64.21H261.063L260.686 66.385H260.831C261.333 65.573 262.01 64.9447 262.861 64.5C263.731 64.036 264.707 63.804 265.79 63.804C266.196 63.804 266.592 63.8427 266.979 63.92L266.399 67.139C266.031 67.0037 265.548 66.936 264.949 66.936C263.731 66.936 262.658 67.3323 261.73 68.125C260.802 68.9177 260.222 69.952 259.99 71.228L258.627 79H255.437L258.047 64.21ZM273.388 79.232C272.228 79.232 271.3 78.913 270.604 78.275C269.908 77.637 269.56 76.7477 269.56 75.607C269.56 75.1043 269.608 74.6113 269.705 74.128L270.952 67.023H268.371L268.893 64.21H271.445L272.199 60.034H275.389L274.635 64.21H278.26L277.738 67.023H274.142L272.924 73.838C272.866 74.2633 272.837 74.5823 272.837 74.795C272.837 75.2397 272.972 75.5973 273.243 75.868C273.513 76.1193 273.89 76.245 274.374 76.245C275.05 76.245 275.679 76.0613 276.259 75.694L275.737 78.797C275.041 79.087 274.258 79.232 273.388 79.232ZM284.542 62.093C283.943 62.093 283.431 61.89 283.005 61.484C282.599 61.0587 282.396 60.5463 282.396 59.947C282.396 59.3477 282.599 58.845 283.005 58.439C283.431 58.0137 283.943 57.801 284.542 57.801C285.142 57.801 285.644 58.0137 286.05 58.439C286.476 58.845 286.688 59.3477 286.688 59.947C286.688 60.5463 286.476 61.0587 286.05 61.484C285.644 61.89 285.142 62.093 284.542 62.093ZM282.164 64.21H285.354L282.773 79H279.583L282.164 64.21ZM303.128 62.093C302.529 62.093 302.016 61.89 301.591 61.484C301.185 61.0587 300.982 60.5463 300.982 59.947C300.982 59.3477 301.185 58.845 301.591 58.439C302.016 58.0137 302.529 57.801 303.128 57.801C303.727 57.801 304.23 58.0137 304.636 58.439C305.061 58.845 305.274 59.3477 305.274 59.947C305.274 60.5463 305.061 61.0587 304.636 61.484C304.23 61.89 303.727 62.093 303.128 62.093ZM291.093 67.023H288.396L288.889 64.21H291.586L291.789 63.05C292.04 61.4647 292.698 60.2273 293.761 59.338C294.844 58.4487 296.187 58.004 297.792 58.004C298.507 58.004 299.145 58.091 299.706 58.265L299.155 61.368C298.614 61.1167 298.053 60.991 297.473 60.991C296.854 60.991 296.303 61.194 295.82 61.6C295.356 62.006 295.066 62.5667 294.95 63.282L294.776 64.21H304.027L301.446 79H298.256L300.344 67.023H294.283L292.166 79H288.976L291.093 67.023ZM312.936 79.464C311.621 79.464 310.452 79.1547 309.427 78.536C308.402 77.9173 307.61 77.086 307.049 76.042C306.488 74.9787 306.208 73.8187 306.208 72.562C306.208 70.9767 306.575 69.5073 307.31 68.154C308.045 66.8007 309.079 65.7277 310.413 64.935C311.747 64.1423 313.274 63.746 314.995 63.746C316.6 63.746 317.934 64.1423 318.997 64.935C320.06 65.7277 320.766 66.7137 321.114 67.893L318.127 69.024C317.876 68.3087 317.441 67.748 316.822 67.342C316.203 66.9167 315.459 66.704 314.589 66.704C313.642 66.704 312.772 66.9457 311.979 67.429C311.206 67.893 310.587 68.5503 310.123 69.401C309.678 70.2517 309.456 71.2087 309.456 72.272C309.456 73.49 309.814 74.505 310.529 75.317C311.244 76.129 312.172 76.535 313.313 76.535C314.241 76.535 315.053 76.3223 315.749 75.897C316.464 75.4523 317.035 74.853 317.46 74.099L320.099 75.346C318.572 78.0913 316.184 79.464 312.936 79.464ZM327.743 62.093C327.144 62.093 326.632 61.89 326.206 61.484C325.8 61.0587 325.597 60.5463 325.597 59.947C325.597 59.3477 325.8 58.845 326.206 58.439C326.632 58.0137 327.144 57.801 327.743 57.801C328.343 57.801 328.845 58.0137 329.251 58.439C329.677 58.845 329.889 59.3477 329.889 59.947C329.889 60.5463 329.677 61.0587 329.251 61.484C328.845 61.89 328.343 62.093 327.743 62.093ZM325.365 64.21H328.555L325.974 79H322.784L325.365 64.21ZM335.805 79.464C334.916 79.464 334.104 79.2707 333.369 78.884C332.635 78.478 332.045 77.927 331.6 77.231C331.175 76.535 330.962 75.752 330.962 74.882C330.962 73.2387 331.552 71.9337 332.731 70.967C333.911 70.0003 335.564 69.517 337.69 69.517C338.406 69.517 339.111 69.5943 339.807 69.749C340.503 69.9037 341.132 70.1067 341.692 70.358L341.837 69.633C341.895 69.343 341.924 69.111 341.924 68.937C341.924 68.2023 341.605 67.6127 340.967 67.168C340.349 66.704 339.585 66.472 338.676 66.472C337.168 66.472 335.931 67.052 334.964 68.212L332.673 66.559C333.408 65.6503 334.326 64.9543 335.428 64.471C336.53 63.9877 337.729 63.746 339.024 63.746C340.88 63.746 342.34 64.1907 343.403 65.08C344.467 65.9693 344.998 67.1487 344.998 68.618C344.998 69.024 344.95 69.5363 344.853 70.155L343.287 79H340.155L340.474 77.231H340.3C339.817 77.927 339.198 78.478 338.444 78.884C337.69 79.2707 336.811 79.464 335.805 79.464ZM336.733 76.825C337.893 76.825 338.889 76.448 339.72 75.694C340.552 74.94 341.064 73.9733 341.257 72.794C340.716 72.504 340.175 72.2913 339.633 72.156C339.111 72.0207 338.454 71.953 337.661 71.953C336.617 71.953 335.786 72.1947 335.167 72.678C334.549 73.142 334.239 73.7993 334.239 74.65C334.239 75.3073 334.471 75.839 334.935 76.245C335.419 76.6317 336.018 76.825 336.733 76.825ZM350.42 58.236H353.61L349.956 79H346.766L350.42 58.236ZM366.602 79.464C365.713 79.464 364.901 79.2707 364.166 78.884C363.431 78.478 362.842 77.927 362.397 77.231C361.972 76.535 361.759 75.752 361.759 74.882C361.759 73.2387 362.349 71.9337 363.528 70.967C364.707 70.0003 366.36 69.517 368.487 69.517C369.202 69.517 369.908 69.5943 370.604 69.749C371.3 69.9037 371.928 70.1067 372.489 70.358L372.634 69.633C372.692 69.343 372.721 69.111 372.721 68.937C372.721 68.2023 372.402 67.6127 371.764 67.168C371.145 66.704 370.382 66.472 369.473 66.472C367.965 66.472 366.728 67.052 365.761 68.212L363.47 66.559C364.205 65.6503 365.123 64.9543 366.225 64.471C367.327 63.9877 368.526 63.746 369.821 63.746C371.677 63.746 373.137 64.1907 374.2 65.08C375.263 65.9693 375.795 67.1487 375.795 68.618C375.795 69.024 375.747 69.5363 375.65 70.155L374.084 79H370.952L371.271 77.231H371.097C370.614 77.927 369.995 78.478 369.241 78.884C368.487 79.2707 367.607 79.464 366.602 79.464ZM367.53 76.825C368.69 76.825 369.686 76.448 370.517 75.694C371.348 74.94 371.861 73.9733 372.054 72.794C371.513 72.504 370.971 72.2913 370.43 72.156C369.908 72.0207 369.251 71.953 368.458 71.953C367.414 71.953 366.583 72.1947 365.964 72.678C365.345 73.142 365.036 73.7993 365.036 74.65C365.036 75.3073 365.268 75.839 365.732 76.245C366.215 76.6317 366.815 76.825 367.53 76.825ZM157.609 111.232C156.449 111.232 155.521 110.913 154.825 110.275C154.129 109.637 153.781 108.748 153.781 107.607C153.781 107.104 153.829 106.611 153.926 106.128L155.173 99.023H152.592L153.114 96.21H155.666L156.42 92.034H159.61L158.856 96.21H162.481L161.959 99.023H158.363L157.145 105.838C157.087 106.263 157.058 106.582 157.058 106.795C157.058 107.24 157.193 107.597 157.464 107.868C157.734 108.119 158.111 108.245 158.595 108.245C159.271 108.245 159.9 108.061 160.48 107.694L159.958 110.797C159.262 111.087 158.479 111.232 157.609 111.232ZM173.808 109.086C173.305 109.821 172.638 110.401 171.807 110.826C170.995 111.251 170.057 111.464 168.994 111.464C167.505 111.464 166.336 111.058 165.485 110.246C164.654 109.415 164.238 108.342 164.238 107.027C164.238 106.389 164.306 105.732 164.441 105.055L166.007 96.21H169.197L167.66 104.91C167.563 105.393 167.515 105.809 167.515 106.157C167.515 106.892 167.766 107.472 168.269 107.897C168.772 108.322 169.429 108.535 170.241 108.535C171.362 108.535 172.319 108.139 173.112 107.346C173.905 106.553 174.417 105.519 174.649 104.243L176.07 96.21H179.26L176.65 111H173.634L173.982 109.086H173.808ZM193.288 111.464C192.399 111.464 191.587 111.271 190.852 110.884C190.118 110.478 189.528 109.927 189.083 109.231C188.658 108.535 188.445 107.752 188.445 106.882C188.445 105.239 189.035 103.934 190.214 102.967C191.394 102 193.047 101.517 195.173 101.517C195.889 101.517 196.594 101.594 197.29 101.749C197.986 101.904 198.615 102.107 199.175 102.358L199.32 101.633C199.378 101.343 199.407 101.111 199.407 100.937C199.407 100.202 199.088 99.6127 198.45 99.168C197.832 98.704 197.068 98.472 196.159 98.472C194.651 98.472 193.414 99.052 192.447 100.212L190.156 98.559C190.891 97.6503 191.809 96.9543 192.911 96.471C194.013 95.9877 195.212 95.746 196.507 95.746C198.363 95.746 199.823 96.1907 200.886 97.08C201.95 97.9693 202.481 99.1487 202.481 100.618C202.481 101.024 202.433 101.536 202.336 102.155L200.77 111H197.638L197.957 109.231H197.783C197.3 109.927 196.681 110.478 195.927 110.884C195.173 111.271 194.294 111.464 193.288 111.464ZM194.216 108.825C195.376 108.825 196.372 108.448 197.203 107.694C198.035 106.94 198.547 105.973 198.74 104.794C198.199 104.504 197.658 104.291 197.116 104.156C196.594 104.021 195.937 103.953 195.144 103.953C194.1 103.953 193.269 104.195 192.65 104.678C192.032 105.142 191.722 105.799 191.722 106.65C191.722 107.307 191.954 107.839 192.418 108.245C192.902 108.632 193.501 108.825 194.216 108.825ZM207.904 90.236H211.094L207.44 111H204.25L207.904 90.236ZM218.731 111.464C217.417 111.464 216.247 111.155 215.222 110.536C214.198 109.917 213.405 109.086 212.844 108.042C212.284 106.979 212.003 105.819 212.003 104.562C212.003 102.977 212.371 101.507 213.105 100.154C213.84 98.8007 214.874 97.7277 216.208 96.935C217.542 96.1423 219.07 95.746 220.79 95.746C222.395 95.746 223.729 96.1423 224.792 96.935C225.856 97.7277 226.561 98.7137 226.909 99.893L223.922 101.024C223.671 100.309 223.236 99.748 222.617 99.342C221.999 98.9167 221.254 98.704 220.384 98.704C219.437 98.704 218.567 98.9457 217.774 99.429C217.001 99.893 216.382 100.55 215.918 101.401C215.474 102.252 215.251 103.209 215.251 104.272C215.251 105.49 215.609 106.505 216.324 107.317C217.04 108.129 217.968 108.535 219.108 108.535C220.036 108.535 220.848 108.322 221.544 107.897C222.26 107.452 222.83 106.853 223.255 106.099L225.894 107.346C224.367 110.091 221.979 111.464 218.731 111.464ZM233.629 111.464C232.74 111.464 231.928 111.271 231.193 110.884C230.458 110.478 229.869 109.927 229.424 109.231C228.999 108.535 228.786 107.752 228.786 106.882C228.786 105.239 229.376 103.934 230.555 102.967C231.734 102 233.387 101.517 235.514 101.517C236.229 101.517 236.935 101.594 237.631 101.749C238.327 101.904 238.955 102.107 239.516 102.358L239.661 101.633C239.719 101.343 239.748 101.111 239.748 100.937C239.748 100.202 239.429 99.6127 238.791 99.168C238.172 98.704 237.409 98.472 236.5 98.472C234.992 98.472 233.755 99.052 232.788 100.212L230.497 98.559C231.232 97.6503 232.15 96.9543 233.252 96.471C234.354 95.9877 235.553 95.746 236.848 95.746C238.704 95.746 240.164 96.1907 241.227 97.08C242.29 97.9693 242.822 99.1487 242.822 100.618C242.822 101.024 242.774 101.536 242.677 102.155L241.111 111H237.979L238.298 109.231H238.124C237.641 109.927 237.022 110.478 236.268 110.884C235.514 111.271 234.634 111.464 233.629 111.464ZM234.557 108.825C235.717 108.825 236.713 108.448 237.544 107.694C238.375 106.94 238.888 105.973 239.081 104.794C238.54 104.504 237.998 104.291 237.457 104.156C236.935 104.021 236.278 103.953 235.485 103.953C234.441 103.953 233.61 104.195 232.991 104.678C232.372 105.142 232.063 105.799 232.063 106.65C232.063 107.307 232.295 107.839 232.759 108.245C233.242 108.632 233.842 108.825 234.557 108.825ZM250.042 98.153C250.545 97.399 251.202 96.8093 252.014 96.384C252.826 95.9587 253.764 95.746 254.827 95.746C256.335 95.746 257.505 96.1617 258.336 96.993C259.167 97.805 259.583 98.878 259.583 100.212C259.583 100.811 259.525 101.459 259.409 102.155L257.843 111H254.653L256.19 102.329C256.287 101.807 256.335 101.382 256.335 101.053C256.335 100.318 256.084 99.748 255.581 99.342C255.098 98.9167 254.44 98.704 253.609 98.704C252.488 98.704 251.521 99.1003 250.709 99.893C249.916 100.686 249.414 101.72 249.201 102.996L247.78 111H244.59L247.2 96.21H250.216L249.868 98.153H250.042ZM269.182 111.464C267.868 111.464 266.698 111.155 265.673 110.536C264.649 109.917 263.856 109.086 263.295 108.042C262.735 106.979 262.454 105.819 262.454 104.562C262.454 102.977 262.822 101.507 263.556 100.154C264.291 98.8007 265.325 97.7277 266.659 96.935C267.993 96.1423 269.521 95.746 271.241 95.746C272.846 95.746 274.18 96.1423 275.243 96.935C276.307 97.7277 277.012 98.7137 277.36 99.893L274.373 101.024C274.122 100.309 273.687 99.748 273.068 99.342C272.45 98.9167 271.705 98.704 270.835 98.704C269.888 98.704 269.018 98.9457 268.225 99.429C267.452 99.893 266.833 100.55 266.369 101.401C265.925 102.252 265.702 103.209 265.702 104.272C265.702 105.49 266.06 106.505 266.775 107.317C267.491 108.129 268.419 108.535 269.559 108.535C270.487 108.535 271.299 108.322 271.995 107.897C272.711 107.452 273.281 106.853 273.706 106.099L276.345 107.346C274.818 110.091 272.43 111.464 269.182 111.464ZM285.878 111.464C284.525 111.464 283.326 111.155 282.282 110.536C281.257 109.917 280.465 109.086 279.904 108.042C279.363 106.979 279.092 105.819 279.092 104.562C279.092 103.015 279.45 101.565 280.165 100.212C280.88 98.8587 281.886 97.776 283.181 96.964C284.476 96.152 285.955 95.746 287.618 95.746C288.933 95.746 290.073 96.036 291.04 96.616C292.007 97.1767 292.741 97.9307 293.244 98.878C293.747 99.8253 293.998 100.86 293.998 101.981C293.998 102.832 293.892 103.605 293.679 104.301H282.311C282.292 104.417 282.282 104.63 282.282 104.939C282.301 106.06 282.678 106.95 283.413 107.607C284.167 108.264 285.066 108.593 286.11 108.593C287.193 108.593 288.092 108.39 288.807 107.984C289.522 107.578 290.122 106.969 290.605 106.157L293.041 107.491C291.456 110.14 289.068 111.464 285.878 111.464ZM290.895 101.865V101.633C290.895 100.782 290.566 100.048 289.909 99.429C289.271 98.8103 288.401 98.501 287.299 98.501C286.197 98.501 285.24 98.8297 284.428 99.487C283.635 100.125 283.075 100.918 282.746 101.865H290.895Z" fill="black"/>
<path d="M3.925 88.1294H11.3828C14.0398 88.1294 16.1977 90.2173 16.1977 92.7984V118.66C16.1977 131.551 26.9732 142 40.2678 142H57.075C58.1397 142 59 141.166 59 140.133V113.945C59 112.912 58.1397 112.078 57.075 112.078H44.7405C42.0835 112.078 39.9255 109.99 39.9255 107.409V36.5909C39.9255 34.0145 42.0787 31.922 44.7405 31.922H57.075C58.1397 31.922 59 31.0877 59 30.0553V3.86667C59 2.83424 58.1397 2 57.075 2H40.2678C26.9732 2 16.1977 12.4487 16.1977 25.3402V52.3677C16.1977 54.9442 14.0445 57.0367 11.3828 57.0367H3.925C2.86029 57.0367 2 57.8709 2 58.9034V86.2581C2 87.2951 2.86029 88.1294 3.925 88.1294Z" fill="white" stroke="black" stroke-width="3" stroke-miterlimit="10" stroke-linejoin="round"/>
<path d="M441.176 55.8706H434.111C431.594 55.8706 429.55 53.7827 429.55 51.2016V25.3402C429.55 12.4487 419.341 2 406.746 2H390.824C389.815 2 389 2.83424 389 3.86667V30.0553C389 31.0877 389.815 31.922 390.824 31.922H402.509C405.026 31.922 407.071 34.0099 407.071 36.5909V107.409C407.071 109.986 405.031 112.078 402.509 112.078H390.824C389.815 112.078 389 112.912 389 113.945V140.133C389 141.166 389.815 142 390.824 142H406.746C419.341 142 429.55 131.551 429.55 118.66V91.6323C429.55 89.0558 431.589 86.9633 434.111 86.9633H441.176C442.185 86.9633 443 86.1291 443 85.0966V57.7419C443 56.7095 442.18 55.8706 441.176 55.8706Z" fill="white" stroke="black" stroke-width="3" stroke-miterlimit="10" stroke-linejoin="round"/>
</svg>
