<svg width="429" height="90" viewBox="0 0 429 90" fill="none" xmlns="http://www.w3.org/2000/svg">
<path d="M4 88H2V86V11.8663V10.5471L3.21269 10.0278L21.5818 2.16148L21.9589 2H22.3691H425H427V4V80.0723V81.5926L425.535 81.9994L404.187 87.9271L403.925 88H403.652H4Z" fill="white" stroke="black" stroke-width="4"/>
<rect x="-2" y="2" width="407" height="74" transform="matrix(1 0 0 -1 22 78)" fill="url(#paint0_linear_952_6165)" stroke="black" stroke-width="4"/>
<path d="M35.577 38.272C34.641 38.272 33.835 37.947 33.159 37.297C32.509 36.621 32.184 35.815 32.184 34.879C32.184 33.943 32.509 33.15 33.159 32.5C33.835 31.824 34.641 31.486 35.577 31.486C36.513 31.486 37.306 31.824 37.956 32.5C38.632 33.15 38.97 33.943 38.97 34.879C38.97 35.815 38.632 36.621 37.956 37.297C37.306 37.947 36.513 38.272 35.577 38.272ZM32.964 52.39L33.432 41.509H37.722L38.19 52.39V60.424H32.964V52.39ZM44.3572 24.076H54.5362C56.3562 24.076 57.9682 24.453 59.3722 25.207C60.8022 25.961 61.9072 27.014 62.6872 28.366C63.4672 29.692 63.8572 31.2 63.8572 32.89C63.8572 34.684 63.2852 36.283 62.1412 37.687C61.0232 39.065 59.6062 40.066 57.8902 40.69L57.8512 40.963L65.3392 51.688V52H59.2942L52.0792 41.509H49.6222V52H44.3572V24.076ZM54.4972 36.673C55.6932 36.673 56.6682 36.309 57.4222 35.581C58.1762 34.853 58.5532 33.93 58.5532 32.812C58.5532 31.746 58.1892 30.836 57.4612 30.082C56.7592 29.328 55.7972 28.951 54.5752 28.951H49.6222V36.673H54.4972ZM77.3131 52.624C75.3371 52.624 73.5561 52.169 71.9701 51.259C70.3841 50.349 69.1361 49.101 68.2261 47.515C67.3421 45.903 66.9001 44.096 66.9001 42.094C66.9001 40.196 67.3421 38.441 68.2261 36.829C69.1101 35.191 70.3321 33.891 71.8921 32.929C73.4521 31.967 75.1941 31.486 77.1181 31.486C79.1721 31.486 80.9401 31.928 82.4221 32.812C83.9041 33.696 85.0221 34.905 85.7761 36.439C86.5561 37.973 86.9461 39.676 86.9461 41.548C86.9461 42.146 86.9071 42.718 86.8291 43.264H71.8921C72.1521 44.85 72.7761 46.059 73.7641 46.891C74.7781 47.697 75.9871 48.1 77.3911 48.1C78.5611 48.1 79.5621 47.853 80.3941 47.359C81.2521 46.839 81.9281 46.15 82.4221 45.292L86.5561 47.32C84.5281 50.856 81.4471 52.624 77.3131 52.624ZM82.0321 39.637C81.9801 39.013 81.7461 38.402 81.3301 37.804C80.9401 37.18 80.3811 36.673 79.6531 36.283C78.9511 35.867 78.1191 35.659 77.1571 35.659C75.9351 35.659 74.8821 36.023 73.9981 36.751C73.1401 37.453 72.5161 38.415 72.1261 39.637H82.0321ZM100.237 61.048C97.7152 61.048 95.6222 60.476 93.9582 59.332C92.2942 58.214 91.1762 56.862 90.6042 55.276L95.4012 53.326C95.8172 54.314 96.4542 55.094 97.3122 55.666C98.1702 56.238 99.1452 56.524 100.237 56.524C101.849 56.524 103.123 56.03 104.059 55.042C105.021 54.054 105.502 52.65 105.502 50.83V49.27H105.19C104.566 50.154 103.747 50.83 102.733 51.298C101.719 51.766 100.562 52 99.2622 52C97.6242 52 96.0902 51.584 94.6602 50.752C93.2562 49.894 92.1252 48.698 91.2672 47.164C90.4092 45.604 89.9802 43.797 89.9802 41.743C89.9802 39.689 90.4092 37.895 91.2672 36.361C92.1252 34.801 93.2562 33.605 94.6602 32.773C96.0902 31.915 97.6242 31.486 99.2622 31.486C100.562 31.486 101.719 31.72 102.733 32.188C103.747 32.656 104.566 33.332 105.19 34.216H105.502V32.11H110.416V50.635C110.416 52.767 110 54.613 109.168 56.173C108.336 57.733 107.153 58.929 105.619 59.761C104.085 60.619 102.291 61.048 100.237 61.048ZM100.315 47.359C101.745 47.359 102.967 46.865 103.981 45.877C104.995 44.863 105.502 43.485 105.502 41.743C105.502 39.949 104.995 38.571 103.981 37.609C102.993 36.621 101.771 36.127 100.315 36.127C98.8592 36.127 97.6242 36.621 96.6102 37.609C95.5962 38.597 95.0892 39.975 95.0892 41.743C95.0892 43.511 95.5962 44.889 96.6102 45.877C97.6242 46.865 98.8592 47.359 100.315 47.359ZM115.721 32.11H120.83V52H115.721V32.11ZM117.866 22.984H123.833L120.323 28.288H116.228L117.866 22.984ZM133.753 52.624C131.335 52.624 129.372 52.13 127.864 51.142C126.382 50.154 125.342 48.867 124.744 47.281L129.307 45.292C129.723 46.228 130.308 46.943 131.062 47.437C131.842 47.905 132.739 48.139 133.753 48.139C134.689 48.139 135.469 47.996 136.093 47.71C136.717 47.398 137.029 46.904 137.029 46.228C137.029 45.578 136.743 45.097 136.171 44.785C135.599 44.447 134.741 44.148 133.597 43.888L131.257 43.381C129.645 42.991 128.306 42.289 127.24 41.275C126.174 40.235 125.641 38.948 125.641 37.414C125.641 36.27 125.979 35.243 126.655 34.333C127.357 33.423 128.293 32.721 129.463 32.227C130.659 31.733 131.972 31.486 133.402 31.486C137.51 31.486 140.253 32.929 141.631 35.815L137.263 37.726C136.483 36.322 135.235 35.62 133.519 35.62C132.635 35.62 131.933 35.789 131.413 36.127C130.893 36.439 130.633 36.842 130.633 37.336C130.633 38.272 131.517 38.974 133.285 39.442L136.21 40.144C138.186 40.638 139.668 41.392 140.656 42.406C141.67 43.42 142.177 44.668 142.177 46.15C142.177 47.424 141.8 48.555 141.046 49.543C140.318 50.505 139.304 51.259 138.004 51.805C136.73 52.351 135.313 52.624 133.753 52.624ZM154.345 52.312C153.357 52.312 152.447 52.169 151.615 51.883C150.783 51.571 150.107 51.155 149.587 50.635C148.365 49.465 147.754 47.801 147.754 45.643V36.478H144.283V32.11H147.754V26.494H152.863V32.11H157.738V36.478H152.863V44.707C152.863 45.721 153.084 46.449 153.526 46.891C153.89 47.307 154.514 47.515 155.398 47.515C155.892 47.515 156.295 47.45 156.607 47.32C156.945 47.19 157.374 46.969 157.894 46.657V51.649C156.776 52.091 155.593 52.312 154.345 52.312ZM161.988 32.11H166.785V34.762H167.097C167.591 33.826 168.358 33.059 169.398 32.461C170.438 31.837 171.582 31.525 172.83 31.525C173.74 31.525 174.572 31.668 175.326 31.954V37.063C174.624 36.803 174.026 36.621 173.532 36.517C173.064 36.387 172.557 36.322 172.011 36.322C170.503 36.322 169.307 36.868 168.423 37.96C167.539 39.052 167.097 40.43 167.097 42.094V52H161.988V32.11ZM184.106 52.624C182 52.624 180.271 52.013 178.919 50.791C177.567 49.543 176.891 47.918 176.891 45.916C176.891 44.59 177.242 43.42 177.944 42.406C178.646 41.392 179.608 40.612 180.83 40.066C182.052 39.52 183.404 39.247 184.886 39.247C186.94 39.247 188.695 39.546 190.151 40.144V39.286C190.151 38.194 189.735 37.31 188.903 36.634C188.097 35.958 187.005 35.62 185.627 35.62C184.691 35.62 183.781 35.841 182.897 36.283C182.039 36.699 181.324 37.258 180.752 37.96L177.476 35.386C178.438 34.138 179.647 33.176 181.103 32.5C182.559 31.824 184.145 31.486 185.861 31.486C188.903 31.486 191.217 32.188 192.803 33.592C194.389 34.996 195.182 37.05 195.182 39.754V52H190.151V49.972H189.839C189.241 50.752 188.448 51.389 187.46 51.883C186.498 52.377 185.38 52.624 184.106 52.624ZM185.315 48.646C186.797 48.646 187.967 48.178 188.825 47.242C189.709 46.28 190.151 45.162 190.151 43.888C188.825 43.264 187.434 42.952 185.978 42.952C183.326 42.952 182 43.94 182 45.916C182 46.722 182.286 47.385 182.858 47.905C183.43 48.399 184.249 48.646 185.315 48.646ZM208.161 52.312C207.173 52.312 206.263 52.169 205.431 51.883C204.599 51.571 203.923 51.155 203.403 50.635C202.181 49.465 201.57 47.801 201.57 45.643V36.478H198.099V32.11H201.57V26.494H206.679V32.11H211.554V36.478H206.679V44.707C206.679 45.721 206.9 46.449 207.342 46.891C207.706 47.307 208.33 47.515 209.214 47.515C209.708 47.515 210.111 47.45 210.423 47.32C210.761 47.19 211.19 46.969 211.71 46.657V51.649C210.592 52.091 209.409 52.312 208.161 52.312ZM224.439 52.624C222.463 52.624 220.682 52.169 219.096 51.259C217.51 50.349 216.262 49.101 215.352 47.515C214.468 45.903 214.026 44.096 214.026 42.094C214.026 40.196 214.468 38.441 215.352 36.829C216.236 35.191 217.458 33.891 219.018 32.929C220.578 31.967 222.32 31.486 224.244 31.486C226.298 31.486 228.066 31.928 229.548 32.812C231.03 33.696 232.148 34.905 232.902 36.439C233.682 37.973 234.072 39.676 234.072 41.548C234.072 42.146 234.033 42.718 233.955 43.264H219.018C219.278 44.85 219.902 46.059 220.89 46.891C221.904 47.697 223.113 48.1 224.517 48.1C225.687 48.1 226.688 47.853 227.52 47.359C228.378 46.839 229.054 46.15 229.548 45.292L233.682 47.32C231.654 50.856 228.573 52.624 224.439 52.624ZM229.158 39.637C229.106 39.013 228.872 38.402 228.456 37.804C228.066 37.18 227.507 36.673 226.779 36.283C226.077 35.867 225.245 35.659 224.283 35.659C223.061 35.659 222.008 36.023 221.124 36.751C220.266 37.453 219.642 38.415 219.252 39.637H229.158ZM253.232 52.624C251.126 52.624 249.397 52.013 248.045 50.791C246.693 49.543 246.017 47.918 246.017 45.916C246.017 44.59 246.368 43.42 247.07 42.406C247.772 41.392 248.734 40.612 249.956 40.066C251.178 39.52 252.53 39.247 254.012 39.247C256.066 39.247 257.821 39.546 259.277 40.144V39.286C259.277 38.194 258.861 37.31 258.029 36.634C257.223 35.958 256.131 35.62 254.753 35.62C253.817 35.62 252.907 35.841 252.023 36.283C251.165 36.699 250.45 37.258 249.878 37.96L246.602 35.386C247.564 34.138 248.773 33.176 250.229 32.5C251.685 31.824 253.271 31.486 254.987 31.486C258.029 31.486 260.343 32.188 261.929 33.592C263.515 34.996 264.308 37.05 264.308 39.754V52H259.277V49.972H258.965C258.367 50.752 257.574 51.389 256.586 51.883C255.624 52.377 254.506 52.624 253.232 52.624ZM254.441 48.646C255.923 48.646 257.093 48.178 257.951 47.242C258.835 46.28 259.277 45.162 259.277 43.888C257.951 43.264 256.56 42.952 255.104 42.952C252.452 42.952 251.126 43.94 251.126 45.916C251.126 46.722 251.412 47.385 251.984 47.905C252.556 48.399 253.375 48.646 254.441 48.646ZM283.327 52.429L283.639 49.621H283.327C282.807 50.479 282.014 51.194 280.948 51.766C279.908 52.338 278.712 52.624 277.36 52.624C275.566 52.624 273.928 52.182 272.446 51.298C270.99 50.388 269.833 49.14 268.975 47.554C268.143 45.942 267.727 44.109 267.727 42.055C267.727 40.027 268.143 38.207 268.975 36.595C269.833 34.983 270.99 33.735 272.446 32.851C273.928 31.941 275.566 31.486 277.36 31.486C278.712 31.486 279.908 31.785 280.948 32.383C281.988 32.955 282.781 33.67 283.327 34.528H283.639V32.11H288.397V60.424H283.327V52.429ZM278.218 47.905C279.18 47.905 280.077 47.658 280.909 47.164C281.741 46.67 282.404 45.981 282.898 45.097C283.392 44.213 283.639 43.199 283.639 42.055C283.639 40.911 283.392 39.897 282.898 39.013C282.404 38.129 281.741 37.453 280.909 36.985C280.077 36.491 279.18 36.244 278.218 36.244C277.282 36.244 276.398 36.491 275.566 36.985C274.734 37.453 274.071 38.129 273.577 39.013C273.083 39.897 272.836 40.911 272.836 42.055C272.836 43.199 273.083 44.213 273.577 45.097C274.071 45.981 274.734 46.67 275.566 47.164C276.398 47.658 277.282 47.905 278.218 47.905ZM300.446 52.624C298.054 52.624 296.234 51.883 294.986 50.401C293.738 48.919 293.114 46.852 293.114 44.2V32.11H298.223V43.576C298.223 44.928 298.548 45.994 299.198 46.774C299.848 47.528 300.706 47.905 301.772 47.905C303.228 47.905 304.385 47.372 305.243 46.306C306.101 45.24 306.53 43.888 306.53 42.25V32.11H311.639V52H306.842V49.504H306.53C305.932 50.466 305.087 51.233 303.995 51.805C302.929 52.351 301.746 52.624 300.446 52.624ZM316.929 32.11H322.038V52H316.929V32.11ZM319.074 22.984H325.041L321.531 28.288H317.436L319.074 22.984ZM327.863 32.11V24.076H333.089V32.11L332.621 42.406H328.331L327.863 32.11ZM330.476 52.234C329.54 52.234 328.734 51.909 328.058 51.259C327.408 50.583 327.083 49.777 327.083 48.841C327.083 47.905 327.408 47.112 328.058 46.462C328.734 45.812 329.54 45.487 330.476 45.487C331.412 45.487 332.205 45.812 332.855 46.462C333.531 47.112 333.869 47.905 333.869 48.841C333.869 49.777 333.531 50.583 332.855 51.259C332.205 51.909 331.412 52.234 330.476 52.234Z" fill="white"/>
<path d="M409.515 37.7655L393.144 21.1963C392.885 20.9346 392.465 20.9346 392.207 21.1963L385.64 27.8467C385.381 28.1084 385.381 28.5339 385.64 28.7955L390.365 33.5805H352V44.327H390.37L385.554 49.2045C385.295 49.4661 385.295 49.8916 385.554 50.1533L392.433 56.8037C392.692 57.0654 393.112 57.0654 393.37 56.8037L409.512 40.1437C409.594 40.0601 409.665 39.9711 409.726 39.8767C410.152 39.2252 410.081 38.3405 409.515 37.7655Z" fill="white" stroke="black" stroke-width="2" stroke-miterlimit="10" stroke-linejoin="round"/>
<defs>
<linearGradient id="paint0_linear_952_6165" x1="403" y1="0" x2="1.10723e-05" y2="70" gradientUnits="userSpaceOnUse">
<stop stop-color="#4285F4"/>
<stop offset="0.975" stop-color="#EA4235"/>
</linearGradient>
</defs>
</svg>
