<svg width="422" height="105" viewBox="0 0 422 105" fill="none" xmlns="http://www.w3.org/2000/svg">
<rect width="376.313" height="72.4751" transform="matrix(-1 0 0 1 399.662 18.5501)" fill="#4285F4" stroke="black" stroke-width="2"/>
<path d="M74.6728 41.2512C73.7738 41.2512 72.9782 41.0136 72.2858 40.5382C71.6038 40.0629 71.1337 39.3706 70.8753 38.4612L72.7973 37.7017C72.9213 38.2081 73.1435 38.6007 73.4638 38.8797C73.7842 39.1484 74.1872 39.2827 74.6728 39.2827C75.1172 39.2827 75.4995 39.1484 75.8198 38.8797C76.1505 38.6111 76.3158 38.2701 76.3158 37.8567C76.3158 37.4124 76.1402 37.0611 75.7888 36.8027C75.4478 36.5341 74.9828 36.3997 74.3938 36.3997H73.4793V34.5552H74.3163C74.771 34.5552 75.1533 34.4416 75.4633 34.2142C75.7837 33.9869 75.9438 33.6562 75.9438 33.2222C75.9438 32.8709 75.8147 32.5816 75.5563 32.3542C75.298 32.1269 74.9673 32.0132 74.5643 32.0132C74.1407 32.0132 73.7997 32.1269 73.5413 32.3542C73.283 32.5816 73.1022 32.8657 72.9988 33.2067L71.1543 32.4472C71.3713 31.8272 71.7692 31.2899 72.3478 30.8352C72.9368 30.3806 73.6808 30.1532 74.5798 30.1532C75.2412 30.1532 75.8302 30.2772 76.3468 30.5252C76.8738 30.7732 77.282 31.1142 77.5713 31.5482C77.8607 31.9719 78.0053 32.4524 78.0053 32.9897C78.0053 33.5581 77.871 34.0437 77.6023 34.4467C77.344 34.8497 77.0288 35.1442 76.6568 35.3302V35.4542C77.1735 35.6609 77.592 35.9864 77.9123 36.4307C78.2327 36.8751 78.3928 37.4124 78.3928 38.0427C78.3928 38.6524 78.2378 39.2001 77.9278 39.6857C77.6178 40.1714 77.1787 40.5537 76.6103 40.8327C76.0523 41.1117 75.4065 41.2512 74.6728 41.2512ZM87.4978 41.2512C86.5264 41.2512 85.6688 40.9774 84.9248 40.4297C84.1808 39.8821 83.6589 39.1071 83.3593 38.1047L85.3278 37.3297C85.4828 37.9187 85.7463 38.3889 86.1183 38.7402C86.4903 39.0916 86.9553 39.2672 87.5133 39.2672C87.9783 39.2672 88.3761 39.1536 88.7068 38.9262C89.0374 38.6886 89.2028 38.3631 89.2028 37.9497C89.2028 37.5364 89.0426 37.2006 88.7223 36.9422C88.4123 36.6736 87.8543 36.3894 87.0483 36.0897L86.3663 35.8417C85.6533 35.5937 85.0436 35.2166 84.5373 34.7102C84.0309 34.1936 83.7778 33.5477 83.7778 32.7727C83.7778 32.1941 83.9276 31.6671 84.2273 31.1917C84.5269 30.7164 84.9506 30.3444 85.4983 30.0757C86.0459 29.7967 86.6659 29.6572 87.3583 29.6572C88.3606 29.6572 89.1511 29.8949 89.7298 30.3702C90.3084 30.8352 90.7063 31.3829 90.9233 32.0132L89.0788 32.7882C88.9651 32.4472 88.7636 32.1631 88.4743 31.9357C88.1953 31.6981 87.8336 31.5792 87.3893 31.5792C86.9346 31.5792 86.5574 31.6877 86.2578 31.9047C85.9684 32.1114 85.8238 32.3852 85.8238 32.7262C85.8238 33.0569 85.9633 33.3411 86.2423 33.5787C86.5213 33.8061 86.9811 34.0282 87.6218 34.2452L88.3193 34.4777C89.2803 34.8084 90.0139 35.2476 90.5203 35.7952C91.0369 36.3326 91.2953 37.0404 91.2953 37.9187C91.2953 38.6421 91.1093 39.2569 90.7373 39.7632C90.3653 40.2592 89.8848 40.6312 89.2958 40.8792C88.7171 41.1272 88.1178 41.2512 87.4978 41.2512ZM96.3556 41.1272C95.963 41.1272 95.6013 41.0704 95.2706 40.9567C94.94 40.8327 94.6713 40.6674 94.4646 40.4607C93.979 39.9957 93.7361 39.3344 93.7361 38.4767V34.8342H92.3566V33.0982H93.7361V30.8662H95.7666V33.0982H97.7041V34.8342H95.7666V38.1047C95.7666 38.5077 95.8545 38.7971 96.0301 38.9727C96.1748 39.1381 96.4228 39.2207 96.7741 39.2207C96.9705 39.2207 97.1306 39.1949 97.2546 39.1432C97.389 39.0916 97.5595 39.0037 97.7661 38.8797V40.8637C97.3218 41.0394 96.8516 41.1272 96.3556 41.1272ZM100.926 32.2302C100.564 32.2302 100.254 32.1011 99.9958 31.8427C99.7375 31.5844 99.6083 31.2744 99.6083 30.9127C99.6083 30.5511 99.7375 30.2462 99.9958 29.9982C100.254 29.7399 100.564 29.6107 100.926 29.6107C101.288 29.6107 101.592 29.7399 101.84 29.9982C102.099 30.2462 102.228 30.5511 102.228 30.9127C102.228 31.2744 102.099 31.5844 101.84 31.8427C101.592 32.1011 101.288 32.2302 100.926 32.2302ZM99.9028 33.0982H101.933V41.0032H99.9028V33.0982ZM108.017 41.2512C107.221 41.2512 106.508 41.0756 105.878 40.7242C105.248 40.3626 104.752 39.8614 104.39 39.2207C104.039 38.5801 103.863 37.8567 103.863 37.0507C103.863 36.2447 104.039 35.5266 104.39 34.8962C104.752 34.2556 105.248 33.7544 105.878 33.3927C106.508 33.0311 107.221 32.8502 108.017 32.8502C108.895 32.8502 109.65 33.0414 110.28 33.4237C110.91 33.7957 111.365 34.3279 111.644 35.0202L109.784 35.7952C109.453 35.0926 108.864 34.7412 108.017 34.7412C107.397 34.7412 106.885 34.9531 106.482 35.3767C106.09 35.8004 105.893 36.3584 105.893 37.0507C105.893 37.7534 106.09 38.3166 106.482 38.7402C106.885 39.1639 107.397 39.3757 108.017 39.3757C108.875 39.3757 109.495 39.0037 109.877 38.2597L111.721 39.0657C111.38 39.7581 110.895 40.2954 110.264 40.6777C109.634 41.0601 108.885 41.2512 108.017 41.2512ZM113.492 29.9052H115.523V35.9502H115.631L118.468 33.0982H120.963V33.2222L117.972 36.1517L121.103 40.8792V41.0032H118.7L116.546 37.5467L115.523 38.5542V41.0032H113.492V29.9052ZM125.938 41.2512C125.152 41.2512 124.445 41.0704 123.814 40.7087C123.184 40.3471 122.688 39.8511 122.326 39.2207C121.975 38.5801 121.799 37.8619 121.799 37.0662C121.799 36.3119 121.975 35.6144 122.326 34.9737C122.678 34.3227 123.163 33.8061 123.783 33.4237C124.403 33.0414 125.096 32.8502 125.86 32.8502C126.677 32.8502 127.379 33.0259 127.968 33.3772C128.557 33.7286 129.002 34.2091 129.301 34.8187C129.611 35.4284 129.766 36.1052 129.766 36.8492C129.766 37.0869 129.751 37.3142 129.72 37.5312H123.783C123.887 38.1616 124.135 38.6421 124.527 38.9727C124.93 39.2931 125.411 39.4532 125.969 39.4532C126.434 39.4532 126.832 39.3551 127.162 39.1587C127.503 38.9521 127.772 38.6782 127.968 38.3372L129.611 39.1432C128.805 40.5486 127.581 41.2512 125.938 41.2512ZM127.813 36.0897C127.793 35.8417 127.7 35.5989 127.534 35.3612C127.379 35.1132 127.157 34.9117 126.868 34.7567C126.589 34.5914 126.258 34.5087 125.876 34.5087C125.39 34.5087 124.972 34.6534 124.62 34.9427C124.279 35.2217 124.031 35.6041 123.876 36.0897H127.813ZM131.64 33.0982H133.547V34.1522H133.671C133.867 33.7802 134.172 33.4754 134.585 33.2377C134.999 32.9897 135.453 32.8657 135.949 32.8657C136.311 32.8657 136.642 32.9226 136.941 33.0362V35.0667C136.662 34.9634 136.425 34.8911 136.228 34.8497C136.042 34.7981 135.841 34.7722 135.624 34.7722C135.025 34.7722 134.549 34.9892 134.198 35.4232C133.847 35.8572 133.671 36.4049 133.671 37.0662V41.0032H131.64V33.0982ZM141.269 41.2512C140.308 41.2512 139.528 41.0549 138.929 40.6622C138.34 40.2696 137.927 39.7581 137.689 39.1277L139.502 38.3372C139.668 38.7092 139.9 38.9934 140.2 39.1897C140.51 39.3757 140.866 39.4687 141.269 39.4687C141.641 39.4687 141.951 39.4119 142.199 39.2982C142.447 39.1742 142.571 38.9779 142.571 38.7092C142.571 38.4509 142.458 38.2597 142.23 38.1357C142.003 38.0014 141.662 37.8826 141.207 37.7792L140.277 37.5777C139.637 37.4227 139.105 37.1437 138.681 36.7407C138.257 36.3274 138.045 35.8159 138.045 35.2062C138.045 34.7516 138.18 34.3434 138.448 33.9817C138.727 33.6201 139.099 33.3411 139.564 33.1447C140.04 32.9484 140.562 32.8502 141.13 32.8502C142.763 32.8502 143.853 33.4237 144.4 34.5707L142.664 35.3302C142.354 34.7722 141.858 34.4932 141.176 34.4932C140.825 34.4932 140.546 34.5604 140.339 34.6947C140.133 34.8187 140.029 34.9789 140.029 35.1752C140.029 35.5472 140.381 35.8262 141.083 36.0122L142.246 36.2912C143.031 36.4876 143.62 36.7872 144.013 37.1902C144.416 37.5932 144.617 38.0892 144.617 38.6782C144.617 39.1846 144.468 39.6341 144.168 40.0267C143.879 40.4091 143.476 40.7087 142.959 40.9257C142.453 41.1427 141.889 41.2512 141.269 41.2512ZM154.268 35.2992H159.523V37.0972H154.268V35.2992ZM172.025 33.0517L170.428 34.2142L169.405 32.6487L172.521 30.4012H174.055V41.0032H172.025V33.0517ZM180.937 29.9052H184.843C185.546 29.9052 186.186 30.0551 186.765 30.3547C187.344 30.6441 187.798 31.0574 188.129 31.5947C188.46 32.1217 188.625 32.7262 188.625 33.4082C188.625 34.0902 188.46 34.6999 188.129 35.2372C187.798 35.7746 187.344 36.1931 186.765 36.4927C186.186 36.7821 185.546 36.9267 184.843 36.9267H183.029V41.0032H180.937V29.9052ZM184.905 34.9427C185.422 34.9427 185.825 34.7929 186.114 34.4932C186.414 34.1936 186.563 33.8319 186.563 33.4082C186.563 32.9846 186.414 32.6281 186.114 32.3387C185.825 32.0391 185.422 31.8892 184.905 31.8892H183.029V34.9427H184.905ZM191.575 32.2302C191.214 32.2302 190.904 32.1011 190.645 31.8427C190.387 31.5844 190.258 31.2744 190.258 30.9127C190.258 30.5511 190.387 30.2462 190.645 29.9982C190.904 29.7399 191.214 29.6107 191.575 29.6107C191.937 29.6107 192.242 29.7399 192.49 29.9982C192.748 30.2462 192.877 30.5511 192.877 30.9127C192.877 31.2744 192.748 31.5844 192.49 31.8427C192.242 32.1011 191.937 32.2302 191.575 32.2302ZM190.552 33.0982H192.583V41.0032H190.552V33.0982ZM195.022 33.0982H196.929V34.0902H197.053C197.29 33.7079 197.626 33.4082 198.06 33.1912C198.494 32.9639 198.964 32.8502 199.471 32.8502C200.421 32.8502 201.145 33.1396 201.641 33.7182C202.137 34.2969 202.385 35.0874 202.385 36.0897V41.0032H200.354V36.3377C200.354 35.8314 200.225 35.4387 199.967 35.1597C199.708 34.8807 199.347 34.7412 198.882 34.7412C198.334 34.7412 197.89 34.9531 197.549 35.3767C197.218 35.8004 197.053 36.3326 197.053 36.9732V41.0032H195.022V33.0982ZM212.481 35.2992H217.736V37.0972H212.481V35.2992ZM230.548 33.0517L228.951 34.2142L227.928 32.6487L231.044 30.4012H232.578V41.0032H230.548V33.0517ZM239.46 29.9052H241.552V39.0192H246.249V41.0032H239.46V29.9052ZM248.028 29.9052H250.058V41.0032H248.028V29.9052ZM254.707 41.2512C253.87 41.2512 253.182 41.0084 252.645 40.5227C252.108 40.0267 251.839 39.3809 251.839 38.5852C251.839 38.0582 251.979 37.5932 252.258 37.1902C252.537 36.7872 252.919 36.4772 253.405 36.2602C253.89 36.0432 254.428 35.9347 255.017 35.9347C255.833 35.9347 256.53 36.0536 257.109 36.2912V35.9502C257.109 35.5162 256.944 35.1649 256.613 34.8962C256.293 34.6276 255.859 34.4932 255.311 34.4932C254.939 34.4932 254.577 34.5811 254.226 34.7567C253.885 34.9221 253.601 35.1442 253.374 35.4232L252.072 34.4002C252.454 33.9042 252.934 33.5219 253.513 33.2532C254.092 32.9846 254.722 32.8502 255.404 32.8502C256.613 32.8502 257.533 33.1292 258.163 33.6872C258.793 34.2452 259.109 35.0616 259.109 36.1362V41.0032H257.109V40.1972H256.985C256.747 40.5072 256.432 40.7604 256.04 40.9567C255.657 41.1531 255.213 41.2512 254.707 41.2512ZM255.187 39.6702C255.776 39.6702 256.241 39.4842 256.582 39.1122C256.933 38.7299 257.109 38.2856 257.109 37.7792C256.582 37.5312 256.029 37.4072 255.451 37.4072C254.397 37.4072 253.87 37.7999 253.87 38.5852C253.87 38.9056 253.983 39.1691 254.211 39.3757C254.438 39.5721 254.763 39.6702 255.187 39.6702ZM260.252 33.0982H262.562L264.561 38.2442H264.685L266.716 33.0982H268.994L265.615 41.0032H263.6L260.252 33.0982ZM273.884 41.2512C273.099 41.2512 272.391 41.0704 271.761 40.7087C271.13 40.3471 270.634 39.8511 270.273 39.2207C269.921 38.5801 269.746 37.8619 269.746 37.0662C269.746 36.3119 269.921 35.6144 270.273 34.9737C270.624 34.3227 271.11 33.8061 271.73 33.4237C272.35 33.0414 273.042 32.8502 273.807 32.8502C274.623 32.8502 275.326 33.0259 275.915 33.3772C276.504 33.7286 276.948 34.2091 277.248 34.8187C277.558 35.4284 277.713 36.1052 277.713 36.8492C277.713 37.0869 277.697 37.3142 277.666 37.5312H271.73C271.833 38.1616 272.081 38.6421 272.474 38.9727C272.877 39.2931 273.357 39.4532 273.915 39.4532C274.38 39.4532 274.778 39.3551 275.109 39.1587C275.45 38.9521 275.718 38.6782 275.915 38.3372L277.558 39.1432C276.752 40.5486 275.527 41.2512 273.884 41.2512ZM275.76 36.0897C275.739 35.8417 275.646 35.5989 275.481 35.3612C275.326 35.1132 275.103 34.9117 274.814 34.7567C274.535 34.5914 274.204 34.5087 273.822 34.5087C273.336 34.5087 272.918 34.6534 272.567 34.9427C272.226 35.2217 271.978 35.6041 271.823 36.0897H275.76ZM279.587 33.0982H281.493V34.1522H281.617C281.814 33.7802 282.118 33.4754 282.532 33.2377C282.945 32.9897 283.4 32.8657 283.896 32.8657C284.257 32.8657 284.588 32.9226 284.888 33.0362V35.0667C284.609 34.9634 284.371 34.8911 284.175 34.8497C283.989 34.7981 283.787 34.7722 283.57 34.7722C282.971 34.7722 282.496 34.9892 282.144 35.4232C281.793 35.8572 281.617 36.4049 281.617 37.0662V41.0032H279.587V33.0982ZM289.824 41.2512C289.008 41.2512 288.279 41.0704 287.639 40.7087C286.998 40.3367 286.497 39.8356 286.135 39.2052C285.784 38.5646 285.608 37.8464 285.608 37.0507C285.608 36.2654 285.784 35.5524 286.135 34.9117C286.497 34.2711 286.998 33.7699 287.639 33.4082C288.279 33.0362 289.008 32.8502 289.824 32.8502C290.63 32.8502 291.354 33.0362 291.994 33.4082C292.635 33.7699 293.131 34.2711 293.482 34.9117C293.844 35.5524 294.025 36.2654 294.025 37.0507C294.025 37.8464 293.844 38.5646 293.482 39.2052C293.131 39.8356 292.635 40.3367 291.994 40.7087C291.354 41.0704 290.63 41.2512 289.824 41.2512ZM289.824 39.3757C290.217 39.3757 290.579 39.2827 290.909 39.0967C291.24 38.9107 291.503 38.6421 291.7 38.2907C291.896 37.9394 291.994 37.5261 291.994 37.0507C291.994 36.5857 291.896 36.1776 291.7 35.8262C291.503 35.4749 291.24 35.2062 290.909 35.0202C290.579 34.8342 290.217 34.7412 289.824 34.7412C289.432 34.7412 289.07 34.8342 288.739 35.0202C288.409 35.2062 288.14 35.4749 287.933 35.8262C287.737 36.1776 287.639 36.5857 287.639 37.0507C287.639 37.5157 287.737 37.9291 287.933 38.2907C288.14 38.6421 288.409 38.9107 288.739 39.0967C289.07 39.2827 289.432 39.3757 289.824 39.3757ZM303.272 41.1272C302.88 41.1272 302.518 41.0704 302.187 40.9567C301.857 40.8327 301.588 40.6674 301.381 40.4607C300.896 39.9957 300.653 39.3344 300.653 38.4767V34.8342H299.273V33.0982H300.653V30.8662H302.683V33.0982H304.621V34.8342H302.683V38.1047C302.683 38.5077 302.771 38.7971 302.947 38.9727C303.091 39.1381 303.339 39.2207 303.691 39.2207C303.887 39.2207 304.047 39.1949 304.171 39.1432C304.306 39.0916 304.476 39.0037 304.683 38.8797V40.8637C304.238 41.0394 303.768 41.1272 303.272 41.1272ZM306.62 33.0982H308.526V34.1522H308.65C308.847 33.7802 309.151 33.4754 309.565 33.2377C309.978 32.9897 310.433 32.8657 310.929 32.8657C311.29 32.8657 311.621 32.9226 311.921 33.0362V35.0667C311.642 34.9634 311.404 34.8911 311.208 34.8497C311.022 34.7981 310.82 34.7722 310.603 34.7722C310.004 34.7722 309.529 34.9892 309.177 35.4232C308.826 35.8572 308.65 36.4049 308.65 37.0662V41.0032H306.62V33.0982ZM316.396 41.2512C315.446 41.2512 314.722 40.9567 314.226 40.3677C313.73 39.7787 313.482 38.9572 313.482 37.9032V33.0982H315.513V37.6552C315.513 38.1926 315.642 38.6162 315.9 38.9262C316.159 39.2259 316.5 39.3757 316.923 39.3757C317.502 39.3757 317.962 39.1639 318.303 38.7402C318.644 38.3166 318.814 37.7792 318.814 37.1282V33.0982H320.845V41.0032H318.938V40.0112H318.814C318.577 40.3936 318.241 40.6984 317.807 40.9257C317.383 41.1427 316.913 41.2512 316.396 41.2512ZM323.071 33.0982H324.978V34.0592H325.102C325.319 33.7182 325.634 33.4341 326.047 33.2067C326.461 32.9691 326.936 32.8502 327.473 32.8502C328.186 32.8502 328.832 33.0311 329.411 33.3927C330 33.7441 330.46 34.2401 330.79 34.8807C331.121 35.5214 331.286 36.2447 331.286 37.0507C331.286 37.8671 331.121 38.5956 330.79 39.2362C330.46 39.8666 330 40.3626 329.411 40.7242C328.832 41.0756 328.186 41.2512 327.473 41.2512C326.936 41.2512 326.455 41.1376 326.032 40.9102C325.618 40.6829 325.308 40.3987 325.102 40.0577H324.978L325.102 41.1737V44.3512H323.071V33.0982ZM327.117 39.3757C327.499 39.3757 327.856 39.2776 328.186 39.0812C328.517 38.8849 328.78 38.6111 328.977 38.2597C329.173 37.9084 329.271 37.5054 329.271 37.0507C329.271 36.5961 329.173 36.1931 328.977 35.8417C328.78 35.4904 328.517 35.2217 328.186 35.0357C327.856 34.8394 327.499 34.7412 327.117 34.7412C326.745 34.7412 326.393 34.8394 326.063 35.0357C325.732 35.2217 325.469 35.4904 325.272 35.8417C325.076 36.1931 324.978 36.5961 324.978 37.0507C324.978 37.5054 325.076 37.9084 325.272 38.2597C325.469 38.6111 325.732 38.8849 326.063 39.0812C326.393 39.2776 326.745 39.3757 327.117 39.3757ZM335.579 41.2512C334.742 41.2512 334.055 41.0084 333.518 40.5227C332.98 40.0267 332.712 39.3809 332.712 38.5852C332.712 38.0582 332.851 37.5932 333.13 37.1902C333.409 36.7872 333.791 36.4772 334.277 36.2602C334.763 36.0432 335.3 35.9347 335.889 35.9347C336.705 35.9347 337.403 36.0536 337.982 36.2912V35.9502C337.982 35.5162 337.816 35.1649 337.486 34.8962C337.165 34.6276 336.731 34.4932 336.184 34.4932C335.812 34.4932 335.45 34.5811 335.099 34.7567C334.758 34.9221 334.473 35.1442 334.246 35.4232L332.944 34.4002C333.326 33.9042 333.807 33.5219 334.386 33.2532C334.964 32.9846 335.595 32.8502 336.277 32.8502C337.486 32.8502 338.405 33.1292 339.036 33.6872C339.666 34.2452 339.981 35.0616 339.981 36.1362V41.0032H337.982V40.1972H337.858C337.62 40.5072 337.305 40.7604 336.912 40.9567C336.53 41.1531 336.085 41.2512 335.579 41.2512ZM336.06 39.6702C336.649 39.6702 337.114 39.4842 337.455 39.1122C337.806 38.7299 337.982 38.2856 337.982 37.7792C337.455 37.5312 336.902 37.4072 336.323 37.4072C335.269 37.4072 334.742 37.7999 334.742 38.5852C334.742 38.9056 334.856 39.1691 335.083 39.3757C335.31 39.5721 335.636 39.6702 336.06 39.6702ZM342.159 33.0982H344.066V34.0902H344.19C344.428 33.7079 344.763 33.4082 345.197 33.1912C345.631 32.9639 346.102 32.8502 346.608 32.8502C347.559 32.8502 348.282 33.1396 348.778 33.7182C349.274 34.2969 349.522 35.0874 349.522 36.0897V41.0032H347.491V36.3377C347.491 35.8314 347.362 35.4387 347.104 35.1597C346.846 34.8807 346.484 34.7412 346.019 34.7412C345.471 34.7412 345.027 34.9531 344.686 35.3767C344.355 35.8004 344.19 36.3326 344.19 36.9732V41.0032H342.159V33.0982ZM77.7736 55.2992H83.0281V57.0972H77.7736V55.2992ZM95.5303 53.0517L93.9338 54.2142L92.9108 52.6487L96.0263 50.4012H97.5608V61.0032H95.5303V53.0517ZM104.442 49.9052H108.782C109.402 49.9052 109.971 50.0344 110.487 50.2927C111.014 50.5511 111.428 50.9024 111.727 51.3467C112.027 51.7911 112.177 52.2767 112.177 52.8037C112.177 53.3617 112.037 53.8474 111.758 54.2607C111.49 54.6637 111.133 54.9737 110.689 55.1907V55.3147C111.268 55.5214 111.727 55.8521 112.068 56.3067C112.409 56.7511 112.58 57.2884 112.58 57.9187C112.58 58.5284 112.415 59.0709 112.084 59.5462C111.764 60.0112 111.324 60.3729 110.766 60.6312C110.219 60.8792 109.609 61.0032 108.937 61.0032H104.442V49.9052ZM108.627 54.4312C109.082 54.4312 109.444 54.3072 109.712 54.0592C109.991 53.8009 110.131 53.4806 110.131 53.0982C110.131 52.7262 109.997 52.4162 109.728 52.1682C109.47 51.9099 109.123 51.7807 108.689 51.7807H106.535V54.4312H108.627ZM108.86 59.0967C109.366 59.0967 109.759 58.9676 110.038 58.7092C110.327 58.4406 110.472 58.0944 110.472 57.6707C110.472 57.2471 110.327 56.9009 110.038 56.6322C109.749 56.3636 109.335 56.2292 108.798 56.2292H106.535V59.0967H108.86ZM118.291 61.2512C117.475 61.2512 116.746 61.0704 116.105 60.7087C115.465 60.3367 114.964 59.8356 114.602 59.2052C114.251 58.5646 114.075 57.8464 114.075 57.0507C114.075 56.2654 114.251 55.5524 114.602 54.9117C114.964 54.2711 115.465 53.7699 116.105 53.4082C116.746 53.0362 117.475 52.8502 118.291 52.8502C119.097 52.8502 119.82 53.0362 120.461 53.4082C121.102 53.7699 121.598 54.2711 121.949 54.9117C122.311 55.5524 122.491 56.2654 122.491 57.0507C122.491 57.8464 122.311 58.5646 121.949 59.2052C121.598 59.8356 121.102 60.3367 120.461 60.7087C119.82 61.0704 119.097 61.2512 118.291 61.2512ZM118.291 59.3757C118.684 59.3757 119.045 59.2827 119.376 59.0967C119.707 58.9107 119.97 58.6421 120.166 58.2907C120.363 57.9394 120.461 57.5261 120.461 57.0507C120.461 56.5857 120.363 56.1776 120.166 55.8262C119.97 55.4749 119.707 55.2062 119.376 55.0202C119.045 54.8342 118.684 54.7412 118.291 54.7412C117.898 54.7412 117.537 54.8342 117.206 55.0202C116.875 55.2062 116.607 55.4749 116.4 55.8262C116.204 56.1776 116.105 56.5857 116.105 57.0507C116.105 57.5157 116.204 57.9291 116.4 58.2907C116.607 58.6421 116.875 58.9107 117.206 59.0967C117.537 59.2827 117.898 59.3757 118.291 59.3757ZM124.279 49.9052H126.31V61.0032H124.279V49.9052ZM131.547 61.2512C130.586 61.2512 129.806 61.0549 129.207 60.6622C128.618 60.2696 128.204 59.7581 127.967 59.1277L129.78 58.3372C129.945 58.7092 130.178 58.9934 130.478 59.1897C130.788 59.3757 131.144 59.4687 131.547 59.4687C131.919 59.4687 132.229 59.4119 132.477 59.2982C132.725 59.1742 132.849 58.9779 132.849 58.7092C132.849 58.4509 132.735 58.2597 132.508 58.1357C132.281 58.0014 131.94 57.8826 131.485 57.7792L130.555 57.5777C129.914 57.4227 129.382 57.1437 128.959 56.7407C128.535 56.3274 128.323 55.8159 128.323 55.2062C128.323 54.7516 128.457 54.3434 128.726 53.9817C129.005 53.6201 129.377 53.3411 129.842 53.1447C130.317 52.9484 130.839 52.8502 131.408 52.8502C133.04 52.8502 134.13 53.4237 134.678 54.5707L132.942 55.3302C132.632 54.7722 132.136 54.4932 131.454 54.4932C131.103 54.4932 130.824 54.5604 130.617 54.6947C130.41 54.8187 130.307 54.9789 130.307 55.1752C130.307 55.5472 130.658 55.8262 131.361 56.0122L132.524 56.2912C133.309 56.4876 133.898 56.7872 134.291 57.1902C134.694 57.5932 134.895 58.0892 134.895 58.6782C134.895 59.1846 134.745 59.6341 134.446 60.0267C134.156 60.4091 133.753 60.7087 133.237 60.9257C132.73 61.1427 132.167 61.2512 131.547 61.2512ZM139.169 61.2512C138.332 61.2512 137.645 61.0084 137.108 60.5227C136.571 60.0267 136.302 59.3809 136.302 58.5852C136.302 58.0582 136.441 57.5932 136.72 57.1902C136.999 56.7872 137.382 56.4772 137.867 56.2602C138.353 56.0432 138.89 55.9347 139.479 55.9347C140.296 55.9347 140.993 56.0536 141.572 56.2912V55.9502C141.572 55.5162 141.407 55.1649 141.076 54.8962C140.756 54.6276 140.322 54.4932 139.774 54.4932C139.402 54.4932 139.04 54.5811 138.689 54.7567C138.348 54.9221 138.064 55.1442 137.836 55.4232L136.534 54.4002C136.917 53.9042 137.397 53.5219 137.976 53.2532C138.555 52.9846 139.185 52.8502 139.867 52.8502C141.076 52.8502 141.996 53.1292 142.626 53.6872C143.256 54.2452 143.571 55.0616 143.571 56.1362V61.0032H141.572V60.1972H141.448C141.21 60.5072 140.895 60.7604 140.502 60.9567C140.12 61.1531 139.676 61.2512 139.169 61.2512ZM139.65 59.6702C140.239 59.6702 140.704 59.4842 141.045 59.1122C141.396 58.7299 141.572 58.2856 141.572 57.7792C141.045 57.5312 140.492 57.4072 139.913 57.4072C138.859 57.4072 138.332 57.7999 138.332 58.5852C138.332 58.9056 138.446 59.1691 138.673 59.3757C138.901 59.5721 139.226 59.6702 139.65 59.6702ZM153.62 55.2992H158.875V57.0972H153.62V55.2992ZM173.258 49.9052H175.955L178.9 57.7017H179.024L181.969 49.9052H184.682V61.0032H182.605V55.5317L182.729 53.6872H182.605L179.784 61.0032H178.156L175.32 53.6872H175.196L175.32 55.5317V61.0032H173.258V49.9052ZM190.95 61.2512C190.164 61.2512 189.456 61.0704 188.826 60.7087C188.196 60.3471 187.7 59.8511 187.338 59.2207C186.987 58.5801 186.811 57.8619 186.811 57.0662C186.811 56.3119 186.987 55.6144 187.338 54.9737C187.689 54.3227 188.175 53.8061 188.795 53.4237C189.415 53.0414 190.107 52.8502 190.872 52.8502C191.688 52.8502 192.391 53.0259 192.98 53.3772C193.569 53.7286 194.013 54.2091 194.313 54.8187C194.623 55.4284 194.778 56.1052 194.778 56.8492C194.778 57.0869 194.763 57.3142 194.732 57.5312H188.795C188.898 58.1616 189.146 58.6421 189.539 58.9727C189.942 59.2931 190.423 59.4532 190.981 59.4532C191.446 59.4532 191.843 59.3551 192.174 59.1587C192.515 58.9521 192.784 58.6782 192.98 58.3372L194.623 59.1432C193.817 60.5486 192.593 61.2512 190.95 61.2512ZM192.825 56.0897C192.804 55.8417 192.711 55.5989 192.546 55.3612C192.391 55.1132 192.169 54.9117 191.88 54.7567C191.601 54.5914 191.27 54.5087 190.888 54.5087C190.402 54.5087 189.983 54.6534 189.632 54.9427C189.291 55.2217 189.043 55.6041 188.888 56.0897H192.825ZM199.735 61.2512C198.774 61.2512 197.994 61.0549 197.395 60.6622C196.806 60.2696 196.392 59.7581 196.155 59.1277L197.968 58.3372C198.133 58.7092 198.366 58.9934 198.666 59.1897C198.976 59.3757 199.332 59.4687 199.735 59.4687C200.107 59.4687 200.417 59.4119 200.665 59.2982C200.913 59.1742 201.037 58.9779 201.037 58.7092C201.037 58.4509 200.923 58.2597 200.696 58.1357C200.469 58.0014 200.128 57.8826 199.673 57.7792L198.743 57.5777C198.102 57.4227 197.57 57.1437 197.147 56.7407C196.723 56.3274 196.511 55.8159 196.511 55.2062C196.511 54.7516 196.645 54.3434 196.914 53.9817C197.193 53.6201 197.565 53.3411 198.03 53.1447C198.505 52.9484 199.027 52.8502 199.596 52.8502C201.228 52.8502 202.318 53.4237 202.866 54.5707L201.13 55.3302C200.82 54.7722 200.324 54.4932 199.642 54.4932C199.291 54.4932 199.012 54.5604 198.805 54.6947C198.598 54.8187 198.495 54.9789 198.495 55.1752C198.495 55.5472 198.846 55.8262 199.549 56.0122L200.712 56.2912C201.497 56.4876 202.086 56.7872 202.479 57.1902C202.882 57.5932 203.083 58.0892 203.083 58.6782C203.083 59.1846 202.933 59.6341 202.634 60.0267C202.344 60.4091 201.941 60.7087 201.425 60.9257C200.918 61.1427 200.355 61.2512 199.735 61.2512ZM207.357 61.2512C206.52 61.2512 205.833 61.0084 205.296 60.5227C204.759 60.0267 204.49 59.3809 204.49 58.5852C204.49 58.0582 204.629 57.5932 204.908 57.1902C205.187 56.7872 205.57 56.4772 206.055 56.2602C206.541 56.0432 207.078 55.9347 207.667 55.9347C208.484 55.9347 209.181 56.0536 209.76 56.2912V55.9502C209.76 55.5162 209.595 55.1649 209.264 54.8962C208.944 54.6276 208.51 54.4932 207.962 54.4932C207.59 54.4932 207.228 54.5811 206.877 54.7567C206.536 54.9221 206.252 55.1442 206.024 55.4232L204.722 54.4002C205.105 53.9042 205.585 53.5219 206.164 53.2532C206.743 52.9846 207.373 52.8502 208.055 52.8502C209.264 52.8502 210.184 53.1292 210.814 53.6872C211.444 54.2452 211.759 55.0616 211.759 56.1362V61.0032H209.76V60.1972H209.636C209.398 60.5072 209.083 60.7604 208.69 60.9567C208.308 61.1531 207.864 61.2512 207.357 61.2512ZM207.838 59.6702C208.427 59.6702 208.892 59.4842 209.233 59.1122C209.584 58.7299 209.76 58.2856 209.76 57.7792C209.233 57.5312 208.68 57.4072 208.101 57.4072C207.047 57.4072 206.52 57.7999 206.52 58.5852C206.52 58.9056 206.634 59.1691 206.861 59.3757C207.089 59.5721 207.414 59.6702 207.838 59.6702ZM220.299 61.2512C219.462 61.2512 218.774 61.0084 218.237 60.5227C217.7 60.0267 217.431 59.3809 217.431 58.5852C217.431 58.0582 217.571 57.5932 217.85 57.1902C218.129 56.7872 218.511 56.4772 218.997 56.2602C219.482 56.0432 220.02 55.9347 220.609 55.9347C221.425 55.9347 222.122 56.0536 222.701 56.2912V55.9502C222.701 55.5162 222.536 55.1649 222.205 54.8962C221.885 54.6276 221.451 54.4932 220.903 54.4932C220.531 54.4932 220.169 54.5811 219.818 54.7567C219.477 54.9221 219.193 55.1442 218.966 55.4232L217.664 54.4002C218.046 53.9042 218.526 53.5219 219.105 53.2532C219.684 52.9846 220.314 52.8502 220.996 52.8502C222.205 52.8502 223.125 53.1292 223.755 53.6872C224.385 54.2452 224.701 55.0616 224.701 56.1362V61.0032H222.701V60.1972H222.577C222.339 60.5072 222.024 60.7604 221.632 60.9567C221.249 61.1531 220.805 61.2512 220.299 61.2512ZM220.779 59.6702C221.368 59.6702 221.833 59.4842 222.174 59.1122C222.525 58.7299 222.701 58.2856 222.701 57.7792C222.174 57.5312 221.621 57.4072 221.043 57.4072C219.989 57.4072 219.462 57.7999 219.462 58.5852C219.462 58.9056 219.575 59.1691 219.803 59.3757C220.03 59.5721 220.355 59.6702 220.779 59.6702ZM231.281 61.2512C230.744 61.2512 230.263 61.1376 229.84 60.9102C229.426 60.6829 229.116 60.3987 228.91 60.0577H228.786V61.0032H226.879V49.9052H228.91V52.9432L228.786 54.0592H228.91C229.127 53.7182 229.442 53.4341 229.855 53.2067C230.268 52.9691 230.744 52.8502 231.281 52.8502C231.994 52.8502 232.64 53.0311 233.219 53.3927C233.808 53.7441 234.267 54.2401 234.598 54.8807C234.929 55.5214 235.094 56.2447 235.094 57.0507C235.094 57.8671 234.929 58.5956 234.598 59.2362C234.267 59.8666 233.808 60.3626 233.219 60.7242C232.64 61.0756 231.994 61.2512 231.281 61.2512ZM230.925 59.3757C231.307 59.3757 231.663 59.2776 231.994 59.0812C232.325 58.8849 232.588 58.6111 232.785 58.2597C232.981 57.9084 233.079 57.5054 233.079 57.0507C233.079 56.5961 232.981 56.1931 232.785 55.8417C232.588 55.4904 232.325 55.2217 231.994 55.0357C231.663 54.8394 231.307 54.7412 230.925 54.7412C230.553 54.7412 230.201 54.8394 229.871 55.0357C229.54 55.2217 229.276 55.4904 229.08 55.8417C228.884 56.1931 228.786 56.5961 228.786 57.0507C228.786 57.5054 228.884 57.9084 229.08 58.2597C229.276 58.6111 229.54 58.8849 229.871 59.0812C230.201 59.2776 230.553 59.3757 230.925 59.3757ZM238.039 52.2302C237.677 52.2302 237.367 52.1011 237.109 51.8427C236.85 51.5844 236.721 51.2744 236.721 50.9127C236.721 50.5511 236.85 50.2462 237.109 49.9982C237.367 49.7399 237.677 49.6107 238.039 49.6107C238.4 49.6107 238.705 49.7399 238.953 49.9982C239.212 50.2462 239.341 50.5511 239.341 50.9127C239.341 51.2744 239.212 51.5844 238.953 51.8427C238.705 52.1011 238.4 52.2302 238.039 52.2302ZM237.016 53.0982H239.046V61.0032H237.016V53.0982ZM245.114 61.2512C244.329 61.2512 243.621 61.0704 242.991 60.7087C242.36 60.3471 241.864 59.8511 241.503 59.2207C241.151 58.5801 240.976 57.8619 240.976 57.0662C240.976 56.3119 241.151 55.6144 241.503 54.9737C241.854 54.3227 242.34 53.8061 242.96 53.4237C243.58 53.0414 244.272 52.8502 245.037 52.8502C245.853 52.8502 246.556 53.0259 247.145 53.3772C247.734 53.7286 248.178 54.2091 248.478 54.8187C248.788 55.4284 248.943 56.1052 248.943 56.8492C248.943 57.0869 248.927 57.3142 248.896 57.5312H242.96C243.063 58.1616 243.311 58.6421 243.704 58.9727C244.107 59.2931 244.587 59.4532 245.145 59.4532C245.61 59.4532 246.008 59.3551 246.339 59.1587C246.68 58.9521 246.948 58.6782 247.145 58.3372L248.788 59.1432C247.982 60.5486 246.757 61.2512 245.114 61.2512ZM246.99 56.0897C246.969 55.8417 246.876 55.5989 246.711 55.3612C246.556 55.1132 246.334 54.9117 246.044 54.7567C245.765 54.5914 245.435 54.5087 245.052 54.5087C244.567 54.5087 244.148 54.6534 243.797 54.9427C243.456 55.2217 243.208 55.6041 243.053 56.0897H246.99ZM250.817 53.0982H252.723V54.1522H252.847C253.054 53.7699 253.369 53.4651 253.793 53.2377C254.217 53.0001 254.671 52.8812 255.157 52.8812C255.508 52.8812 255.756 52.9122 255.901 52.9742V54.9582C255.643 54.8549 255.322 54.8032 254.94 54.8032C254.299 54.8032 253.788 55.0099 253.405 55.4232C253.033 55.8366 252.847 56.3997 252.847 57.1127V61.0032H250.817V53.0982ZM260.954 61.1272C260.561 61.1272 260.2 61.0704 259.869 60.9567C259.538 60.8327 259.27 60.6674 259.063 60.4607C258.577 59.9957 258.334 59.3344 258.334 58.4767V54.8342H256.955V53.0982H258.334V50.8662H260.365V53.0982H262.302V54.8342H260.365V58.1047C260.365 58.5077 260.453 58.7971 260.628 58.9727C260.773 59.1381 261.021 59.2207 261.372 59.2207C261.569 59.2207 261.729 59.1949 261.853 59.1432C261.987 59.0916 262.158 59.0037 262.364 58.8797V60.8637C261.92 61.0394 261.45 61.1272 260.954 61.1272ZM266.563 61.2512C265.726 61.2512 265.038 61.0084 264.501 60.5227C263.964 60.0267 263.695 59.3809 263.695 58.5852C263.695 58.0582 263.835 57.5932 264.114 57.1902C264.393 56.7872 264.775 56.4772 265.261 56.2602C265.746 56.0432 266.284 55.9347 266.873 55.9347C267.689 55.9347 268.386 56.0536 268.965 56.2912V55.9502C268.965 55.5162 268.8 55.1649 268.469 54.8962C268.149 54.6276 267.715 54.4932 267.167 54.4932C266.795 54.4932 266.433 54.5811 266.082 54.7567C265.741 54.9221 265.457 55.1442 265.23 55.4232L263.928 54.4002C264.31 53.9042 264.79 53.5219 265.369 53.2532C265.948 52.9846 266.578 52.8502 267.26 52.8502C268.469 52.8502 269.389 53.1292 270.019 53.6872C270.649 54.2452 270.965 55.0616 270.965 56.1362V61.0032H268.965V60.1972H268.841C268.603 60.5072 268.288 60.7604 267.896 60.9567C267.513 61.1531 267.069 61.2512 266.563 61.2512ZM267.043 59.6702C267.632 59.6702 268.097 59.4842 268.438 59.1122C268.789 58.7299 268.965 58.2856 268.965 57.7792C268.438 57.5312 267.885 57.4072 267.307 57.4072C266.253 57.4072 265.726 57.7999 265.726 58.5852C265.726 58.9056 265.839 59.1691 266.067 59.3757C266.294 59.5721 266.619 59.6702 267.043 59.6702ZM280.48 61.2512C279.767 61.2512 279.116 61.0756 278.527 60.7242C277.949 60.3626 277.489 59.8666 277.148 59.2362C276.817 58.5956 276.652 57.8671 276.652 57.0507C276.652 56.2447 276.817 55.5214 277.148 54.8807C277.489 54.2401 277.949 53.7441 278.527 53.3927C279.116 53.0311 279.767 52.8502 280.48 52.8502C281.018 52.8502 281.493 52.9691 281.906 53.2067C282.32 53.4341 282.635 53.7182 282.852 54.0592H282.976L282.852 52.9432V49.9052H284.867V61.0032H282.976V60.0577H282.852C282.645 60.3987 282.33 60.6829 281.906 60.9102C281.493 61.1376 281.018 61.2512 280.48 61.2512ZM280.821 59.3757C281.204 59.3757 281.56 59.2776 281.891 59.0812C282.221 58.8849 282.485 58.6111 282.681 58.2597C282.878 57.9084 282.976 57.5054 282.976 57.0507C282.976 56.5961 282.878 56.1931 282.681 55.8417C282.485 55.4904 282.221 55.2217 281.891 55.0357C281.56 54.8394 281.204 54.7412 280.821 54.7412C280.449 54.7412 280.098 54.8394 279.767 55.0357C279.437 55.2217 279.173 55.4904 278.977 55.8417C278.78 56.1931 278.682 56.5961 278.682 57.0507C278.682 57.5054 278.78 57.9084 278.977 58.2597C279.173 58.6111 279.437 58.8849 279.767 59.0812C280.098 59.2776 280.449 59.3757 280.821 59.3757ZM290.803 61.2512C290.018 61.2512 289.31 61.0704 288.679 60.7087C288.049 60.3471 287.553 59.8511 287.191 59.2207C286.84 58.5801 286.664 57.8619 286.664 57.0662C286.664 56.3119 286.84 55.6144 287.191 54.9737C287.543 54.3227 288.028 53.8061 288.648 53.4237C289.268 53.0414 289.961 52.8502 290.725 52.8502C291.542 52.8502 292.244 53.0259 292.833 53.3772C293.422 53.7286 293.867 54.2091 294.166 54.8187C294.476 55.4284 294.631 56.1052 294.631 56.8492C294.631 57.0869 294.616 57.3142 294.585 57.5312H288.648C288.752 58.1616 289 58.6421 289.392 58.9727C289.795 59.2931 290.276 59.4532 290.834 59.4532C291.299 59.4532 291.697 59.3551 292.027 59.1587C292.368 58.9521 292.637 58.6782 292.833 58.3372L294.476 59.1432C293.67 60.5486 292.446 61.2512 290.803 61.2512ZM292.678 56.0897C292.658 55.8417 292.565 55.5989 292.399 55.3612C292.244 55.1132 292.022 54.9117 291.733 54.7567C291.454 54.5914 291.123 54.5087 290.741 54.5087C290.255 54.5087 289.837 54.6534 289.485 54.9427C289.144 55.2217 288.896 55.6041 288.741 56.0897H292.678ZM303.455 61.2512C302.494 61.2512 301.714 61.0549 301.115 60.6622C300.526 60.2696 300.113 59.7581 299.875 59.1277L301.688 58.3372C301.854 58.7092 302.086 58.9934 302.386 59.1897C302.696 59.3757 303.052 59.4687 303.455 59.4687C303.827 59.4687 304.137 59.4119 304.385 59.2982C304.633 59.1742 304.757 58.9779 304.757 58.7092C304.757 58.4509 304.644 58.2597 304.416 58.1357C304.189 58.0014 303.848 57.8826 303.393 57.7792L302.463 57.5777C301.823 57.4227 301.291 57.1437 300.867 56.7407C300.443 56.3274 300.231 55.8159 300.231 55.2062C300.231 54.7516 300.366 54.3434 300.634 53.9817C300.913 53.6201 301.285 53.3411 301.75 53.1447C302.226 52.9484 302.748 52.8502 303.316 52.8502C304.949 52.8502 306.039 53.4237 306.586 54.5707L304.85 55.3302C304.54 54.7722 304.044 54.4932 303.362 54.4932C303.011 54.4932 302.732 54.5604 302.525 54.6947C302.319 54.8187 302.215 54.9789 302.215 55.1752C302.215 55.5472 302.567 55.8262 303.269 56.0122L304.432 56.2912C305.217 56.4876 305.806 56.7872 306.199 57.1902C306.602 57.5932 306.803 58.0892 306.803 58.6782C306.803 59.1846 306.654 59.6341 306.354 60.0267C306.065 60.4091 305.662 60.7087 305.145 60.9257C304.639 61.1427 304.075 61.2512 303.455 61.2512ZM308.508 53.0982H310.415V54.0902H310.539C310.777 53.7079 311.112 53.4082 311.546 53.1912C311.98 52.9639 312.451 52.8502 312.957 52.8502C313.908 52.8502 314.631 53.1396 315.127 53.7182C315.623 54.2969 315.871 55.0874 315.871 56.0897V61.0032H313.84V56.3377C313.84 55.8314 313.711 55.4387 313.453 55.1597C313.195 54.8807 312.833 54.7412 312.368 54.7412C311.82 54.7412 311.376 54.9531 311.035 55.3767C310.704 55.8004 310.539 56.3326 310.539 56.9732V61.0032H308.508V53.0982ZM320.44 61.2512C319.603 61.2512 318.915 61.0084 318.378 60.5227C317.841 60.0267 317.572 59.3809 317.572 58.5852C317.572 58.0582 317.712 57.5932 317.991 57.1902C318.27 56.7872 318.652 56.4772 319.138 56.2602C319.623 56.0432 320.161 55.9347 320.75 55.9347C321.566 55.9347 322.263 56.0536 322.842 56.2912V55.9502C322.842 55.5162 322.677 55.1649 322.346 54.8962C322.026 54.6276 321.592 54.4932 321.044 54.4932C320.672 54.4932 320.31 54.5811 319.959 54.7567C319.618 54.9221 319.334 55.1442 319.107 55.4232L317.805 54.4002C318.187 53.9042 318.667 53.5219 319.246 53.2532C319.825 52.9846 320.455 52.8502 321.137 52.8502C322.346 52.8502 323.266 53.1292 323.896 53.6872C324.526 54.2452 324.842 55.0616 324.842 56.1362V61.0032H322.842V60.1972H322.718C322.48 60.5072 322.165 60.7604 321.773 60.9567C321.39 61.1531 320.946 61.2512 320.44 61.2512ZM320.92 59.6702C321.509 59.6702 321.974 59.4842 322.315 59.1122C322.666 58.7299 322.842 58.2856 322.842 57.7792C322.315 57.5312 321.762 57.4072 321.184 57.4072C320.13 57.4072 319.603 57.7999 319.603 58.5852C319.603 58.9056 319.716 59.1691 319.944 59.3757C320.171 59.5721 320.496 59.6702 320.92 59.6702ZM330.664 61.2512C329.869 61.2512 329.156 61.0756 328.525 60.7242C327.895 60.3626 327.399 59.8614 327.037 59.2207C326.686 58.5801 326.51 57.8567 326.51 57.0507C326.51 56.2447 326.686 55.5266 327.037 54.8962C327.399 54.2556 327.895 53.7544 328.525 53.3927C329.156 53.0311 329.869 52.8502 330.664 52.8502C331.543 52.8502 332.297 53.0414 332.927 53.4237C333.558 53.7957 334.012 54.3279 334.291 55.0202L332.431 55.7952C332.101 55.0926 331.512 54.7412 330.664 54.7412C330.044 54.7412 329.533 54.9531 329.13 55.3767C328.737 55.8004 328.541 56.3584 328.541 57.0507C328.541 57.7534 328.737 58.3166 329.13 58.7402C329.533 59.1639 330.044 59.3757 330.664 59.3757C331.522 59.3757 332.142 59.0037 332.524 58.2597L334.369 59.0657C334.028 59.7581 333.542 60.2954 332.912 60.6777C332.281 61.0601 331.532 61.2512 330.664 61.2512ZM336.14 49.9052H338.17V55.9502H338.279L341.115 53.0982H343.611V53.2222L340.619 56.1517L343.75 60.8792V61.0032H341.348L339.193 57.5467L338.17 58.5542V61.0032H336.14V49.9052ZM347.963 61.2512C347.002 61.2512 346.222 61.0549 345.623 60.6622C345.034 60.2696 344.621 59.7581 344.383 59.1277L346.196 58.3372C346.362 58.7092 346.594 58.9934 346.894 59.1897C347.204 59.3757 347.56 59.4687 347.963 59.4687C348.335 59.4687 348.645 59.4119 348.893 59.2982C349.141 59.1742 349.265 58.9779 349.265 58.7092C349.265 58.4509 349.152 58.2597 348.924 58.1357C348.697 58.0014 348.356 57.8826 347.901 57.7792L346.971 57.5777C346.331 57.4227 345.799 57.1437 345.375 56.7407C344.951 56.3274 344.739 55.8159 344.739 55.2062C344.739 54.7516 344.874 54.3434 345.142 53.9817C345.421 53.6201 345.793 53.3411 346.258 53.1447C346.734 52.9484 347.256 52.8502 347.824 52.8502C349.457 52.8502 350.547 53.4237 351.094 54.5707L349.358 55.3302C349.048 54.7722 348.552 54.4932 347.87 54.4932C347.519 54.4932 347.24 54.5604 347.033 54.6947C346.827 54.8187 346.723 54.9789 346.723 55.1752C346.723 55.5472 347.075 55.8262 347.777 56.0122L348.94 56.2912C349.725 56.4876 350.314 56.7872 350.707 57.1902C351.11 57.5932 351.311 58.0892 351.311 58.6782C351.311 59.1846 351.162 59.6341 350.862 60.0267C350.573 60.4091 350.17 60.7087 349.653 60.9257C349.147 61.1427 348.583 61.2512 347.963 61.2512ZM95.7703 75.2992H101.025V77.0972H95.7703V75.2992ZM110.169 69.9052H112.571L116.741 81.0032H114.431L113.501 78.3527H109.254L108.324 81.0032H106.015L110.169 69.9052ZM112.819 76.4307L111.843 73.6407L111.44 72.3077H111.316L110.913 73.6407L109.921 76.4307H112.819ZM121.763 81.2512C120.968 81.2512 120.255 81.0756 119.624 80.7242C118.994 80.3626 118.498 79.8614 118.136 79.2207C117.785 78.5801 117.609 77.8567 117.609 77.0507C117.609 76.2447 117.785 75.5266 118.136 74.8962C118.498 74.2556 118.994 73.7544 119.624 73.3927C120.255 73.0311 120.968 72.8502 121.763 72.8502C122.642 72.8502 123.396 73.0414 124.026 73.4237C124.657 73.7957 125.111 74.3279 125.39 75.0202L123.53 75.7952C123.2 75.0926 122.611 74.7412 121.763 74.7412C121.143 74.7412 120.632 74.9531 120.229 75.3767C119.836 75.8004 119.64 76.3584 119.64 77.0507C119.64 77.7534 119.836 78.3166 120.229 78.7402C120.632 79.1639 121.143 79.3757 121.763 79.3757C122.621 79.3757 123.241 79.0037 123.623 78.2597L125.468 79.0657C125.127 79.7581 124.641 80.2954 124.011 80.6777C123.381 81.0601 122.631 81.2512 121.763 81.2512ZM130.883 81.2512C130.087 81.2512 129.374 81.0756 128.744 80.7242C128.114 80.3626 127.618 79.8614 127.256 79.2207C126.905 78.5801 126.729 77.8567 126.729 77.0507C126.729 76.2447 126.905 75.5266 127.256 74.8962C127.618 74.2556 128.114 73.7544 128.744 73.3927C129.374 73.0311 130.087 72.8502 130.883 72.8502C131.761 72.8502 132.516 73.0414 133.146 73.4237C133.776 73.7957 134.231 74.3279 134.51 75.0202L132.65 75.7952C132.319 75.0926 131.73 74.7412 130.883 74.7412C130.263 74.7412 129.751 74.9531 129.348 75.3767C128.956 75.8004 128.759 76.3584 128.759 77.0507C128.759 77.7534 128.956 78.3166 129.348 78.7402C129.751 79.1639 130.263 79.3757 130.883 79.3757C131.741 79.3757 132.361 79.0037 132.743 78.2597L134.587 79.0657C134.246 79.7581 133.761 80.2954 133.13 80.6777C132.5 81.0601 131.751 81.2512 130.883 81.2512ZM139.987 81.2512C139.202 81.2512 138.494 81.0704 137.864 80.7087C137.233 80.3471 136.737 79.8511 136.376 79.2207C136.024 78.5801 135.849 77.8619 135.849 77.0662C135.849 76.3119 136.024 75.6144 136.376 74.9737C136.727 74.3227 137.213 73.8061 137.833 73.4237C138.453 73.0414 139.145 72.8502 139.91 72.8502C140.726 72.8502 141.429 73.0259 142.018 73.3772C142.607 73.7286 143.051 74.2091 143.351 74.8187C143.661 75.4284 143.816 76.1052 143.816 76.8492C143.816 77.0869 143.8 77.3142 143.769 77.5312H137.833C137.936 78.1616 138.184 78.6421 138.577 78.9727C138.98 79.2931 139.46 79.4532 140.018 79.4532C140.483 79.4532 140.881 79.3551 141.212 79.1587C141.553 78.9521 141.821 78.6782 142.018 78.3372L143.661 79.1432C142.855 80.5486 141.63 81.2512 139.987 81.2512ZM141.863 76.0897C141.842 75.8417 141.749 75.5989 141.584 75.3612C141.429 75.1132 141.206 74.9117 140.917 74.7567C140.638 74.5914 140.307 74.5087 139.925 74.5087C139.439 74.5087 139.021 74.6534 138.67 74.9427C138.329 75.2217 138.081 75.6041 137.926 76.0897H141.863ZM148.772 81.2512C147.811 81.2512 147.031 81.0549 146.432 80.6622C145.843 80.2696 145.43 79.7581 145.192 79.1277L147.005 78.3372C147.171 78.7092 147.403 78.9934 147.703 79.1897C148.013 79.3757 148.369 79.4687 148.772 79.4687C149.144 79.4687 149.454 79.4119 149.702 79.2982C149.95 79.1742 150.074 78.9779 150.074 78.7092C150.074 78.4509 149.961 78.2597 149.733 78.1357C149.506 78.0014 149.165 77.8826 148.71 77.7792L147.78 77.5777C147.14 77.4227 146.608 77.1437 146.184 76.7407C145.76 76.3274 145.548 75.8159 145.548 75.2062C145.548 74.7516 145.683 74.3434 145.951 73.9817C146.23 73.6201 146.602 73.3411 147.067 73.1447C147.543 72.9484 148.065 72.8502 148.633 72.8502C150.266 72.8502 151.356 73.4237 151.903 74.5707L150.167 75.3302C149.857 74.7722 149.361 74.4932 148.679 74.4932C148.328 74.4932 148.049 74.5604 147.842 74.6947C147.636 74.8187 147.532 74.9789 147.532 75.1752C147.532 75.5472 147.884 75.8262 148.586 76.0122L149.749 76.2912C150.534 76.4876 151.123 76.7872 151.516 77.1902C151.919 77.5932 152.12 78.0892 152.12 78.6782C152.12 79.1846 151.971 79.6341 151.671 80.0267C151.382 80.4091 150.979 80.7087 150.462 80.9257C149.956 81.1427 149.392 81.2512 148.772 81.2512ZM157.759 81.2512C156.942 81.2512 156.214 81.0704 155.573 80.7087C154.933 80.3367 154.431 79.8356 154.07 79.2052C153.718 78.5646 153.543 77.8464 153.543 77.0507C153.543 76.2654 153.718 75.5524 154.07 74.9117C154.431 74.2711 154.933 73.7699 155.573 73.4082C156.214 73.0362 156.942 72.8502 157.759 72.8502C158.565 72.8502 159.288 73.0362 159.929 73.4082C160.569 73.7699 161.065 74.2711 161.417 74.9117C161.778 75.5524 161.959 76.2654 161.959 77.0507C161.959 77.8464 161.778 78.5646 161.417 79.2052C161.065 79.8356 160.569 80.3367 159.929 80.7087C159.288 81.0704 158.565 81.2512 157.759 81.2512ZM157.759 79.3757C158.151 79.3757 158.513 79.2827 158.844 79.0967C159.174 78.9107 159.438 78.6421 159.634 78.2907C159.831 77.9394 159.929 77.5261 159.929 77.0507C159.929 76.5857 159.831 76.1776 159.634 75.8262C159.438 75.4749 159.174 75.2062 158.844 75.0202C158.513 74.8342 158.151 74.7412 157.759 74.7412C157.366 74.7412 157.004 74.8342 156.674 75.0202C156.343 75.2062 156.074 75.4749 155.868 75.8262C155.671 76.1776 155.573 76.5857 155.573 77.0507C155.573 77.5157 155.671 77.9291 155.868 78.2907C156.074 78.6421 156.343 78.9107 156.674 79.0967C157.004 79.2827 157.366 79.3757 157.759 79.3757ZM170.184 81.2512C169.347 81.2512 168.66 81.0084 168.122 80.5227C167.585 80.0267 167.316 79.3809 167.316 78.5852C167.316 78.0582 167.456 77.5932 167.735 77.1902C168.014 76.7872 168.396 76.4772 168.882 76.2602C169.367 76.0432 169.905 75.9347 170.494 75.9347C171.31 75.9347 172.008 76.0536 172.586 76.2912V75.9502C172.586 75.5162 172.421 75.1649 172.09 74.8962C171.77 74.6276 171.336 74.4932 170.788 74.4932C170.416 74.4932 170.055 74.5811 169.703 74.7567C169.362 74.9221 169.078 75.1442 168.851 75.4232L167.549 74.4002C167.931 73.9042 168.412 73.5219 168.99 73.2532C169.569 72.9846 170.199 72.8502 170.881 72.8502C172.09 72.8502 173.01 73.1292 173.64 73.6872C174.271 74.2452 174.586 75.0616 174.586 76.1362V81.0032H172.586V80.1972H172.462C172.225 80.5072 171.909 80.7604 171.517 80.9567C171.134 81.1531 170.69 81.2512 170.184 81.2512ZM170.664 79.6702C171.253 79.6702 171.718 79.4842 172.059 79.1122C172.411 78.7299 172.586 78.2856 172.586 77.7792C172.059 77.5312 171.506 77.4072 170.928 77.4072C169.874 77.4072 169.347 77.7999 169.347 78.5852C169.347 78.9056 169.46 79.1691 169.688 79.3757C169.915 79.5721 170.241 79.6702 170.664 79.6702ZM184.427 81.2512C183.631 81.2512 182.918 81.0756 182.288 80.7242C181.658 80.3626 181.162 79.8614 180.8 79.2207C180.449 78.5801 180.273 77.8567 180.273 77.0507C180.273 76.2447 180.449 75.5266 180.8 74.8962C181.162 74.2556 181.658 73.7544 182.288 73.3927C182.918 73.0311 183.631 72.8502 184.427 72.8502C185.305 72.8502 186.06 73.0414 186.69 73.4237C187.32 73.7957 187.775 74.3279 188.054 75.0202L186.194 75.7952C185.863 75.0926 185.274 74.7412 184.427 74.7412C183.807 74.7412 183.295 74.9531 182.892 75.3767C182.5 75.8004 182.303 76.3584 182.303 77.0507C182.303 77.7534 182.5 78.3166 182.892 78.7402C183.295 79.1639 183.807 79.3757 184.427 79.3757C185.285 79.3757 185.905 79.0037 186.287 78.2597L188.131 79.0657C187.79 79.7581 187.305 80.2954 186.674 80.6777C186.044 81.0601 185.295 81.2512 184.427 81.2512ZM193.609 81.2512C192.792 81.2512 192.064 81.0704 191.423 80.7087C190.782 80.3367 190.281 79.8356 189.92 79.2052C189.568 78.5646 189.393 77.8464 189.393 77.0507C189.393 76.2654 189.568 75.5524 189.92 74.9117C190.281 74.2711 190.782 73.7699 191.423 73.4082C192.064 73.0362 192.792 72.8502 193.609 72.8502C194.415 72.8502 195.138 73.0362 195.779 73.4082C196.419 73.7699 196.915 74.2711 197.267 74.9117C197.628 75.5524 197.809 76.2654 197.809 77.0507C197.809 77.8464 197.628 78.5646 197.267 79.2052C196.915 79.8356 196.419 80.3367 195.779 80.7087C195.138 81.0704 194.415 81.2512 193.609 81.2512ZM193.609 79.3757C194.001 79.3757 194.363 79.2827 194.694 79.0967C195.024 78.9107 195.288 78.6421 195.484 78.2907C195.68 77.9394 195.779 77.5261 195.779 77.0507C195.779 76.5857 195.68 76.1776 195.484 75.8262C195.288 75.4749 195.024 75.2062 194.694 75.0202C194.363 74.8342 194.001 74.7412 193.609 74.7412C193.216 74.7412 192.854 74.8342 192.524 75.0202C192.193 75.2062 191.924 75.4749 191.718 75.8262C191.521 76.1776 191.423 76.5857 191.423 77.0507C191.423 77.5157 191.521 77.9291 191.718 78.2907C191.924 78.6421 192.193 78.9107 192.524 79.0967C192.854 79.2827 193.216 79.3757 193.609 79.3757ZM199.521 73.0982H201.428V74.0902H201.552C201.789 73.7079 202.125 73.4082 202.559 73.1912C202.993 72.9639 203.463 72.8502 203.97 72.8502C204.92 72.8502 205.644 73.1396 206.14 73.7182C206.636 74.2969 206.884 75.0874 206.884 76.0897V81.0032H204.853V76.3377C204.853 75.8314 204.724 75.4387 204.466 75.1597C204.207 74.8807 203.846 74.7412 203.381 74.7412C202.833 74.7412 202.389 74.9531 202.048 75.3767C201.717 75.8004 201.552 76.3326 201.552 76.9732V81.0032H199.521V73.0982ZM212.158 81.1272C211.765 81.1272 211.403 81.0704 211.073 80.9567C210.742 80.8327 210.473 80.6674 210.267 80.4607C209.781 79.9957 209.538 79.3344 209.538 78.4767V74.8342H208.159V73.0982H209.538V70.8662H211.569V73.0982H213.506V74.8342H211.569V78.1047C211.569 78.5077 211.656 78.7971 211.832 78.9727C211.977 79.1381 212.225 79.2207 212.576 79.2207C212.772 79.2207 212.933 79.1949 213.057 79.1432C213.191 79.0916 213.361 79.0037 213.568 78.8797V80.8637C213.124 81.0394 212.654 81.1272 212.158 81.1272ZM218.937 81.2512C218.152 81.2512 217.444 81.0704 216.814 80.7087C216.183 80.3471 215.687 79.8511 215.326 79.2207C214.974 78.5801 214.799 77.8619 214.799 77.0662C214.799 76.3119 214.974 75.6144 215.326 74.9737C215.677 74.3227 216.163 73.8061 216.783 73.4237C217.403 73.0414 218.095 72.8502 218.86 72.8502C219.676 72.8502 220.379 73.0259 220.968 73.3772C221.557 73.7286 222.001 74.2091 222.301 74.8187C222.611 75.4284 222.766 76.1052 222.766 76.8492C222.766 77.0869 222.75 77.3142 222.719 77.5312H216.783C216.886 78.1616 217.134 78.6421 217.527 78.9727C217.93 79.2931 218.41 79.4532 218.968 79.4532C219.433 79.4532 219.831 79.3551 220.162 79.1587C220.503 78.9521 220.771 78.6782 220.968 78.3372L222.611 79.1432C221.805 80.5486 220.58 81.2512 218.937 81.2512ZM220.813 76.0897C220.792 75.8417 220.699 75.5989 220.534 75.3612C220.379 75.1132 220.156 74.9117 219.867 74.7567C219.588 74.5914 219.257 74.5087 218.875 74.5087C218.389 74.5087 217.971 74.6534 217.62 74.9427C217.279 75.2217 217.031 75.6041 216.876 76.0897H220.813ZM224.64 73.0982H226.546V74.0902H226.67C226.908 73.7079 227.244 73.4082 227.678 73.1912C228.112 72.9639 228.582 72.8502 229.088 72.8502C230.039 72.8502 230.762 73.1396 231.258 73.7182C231.754 74.2969 232.002 75.0874 232.002 76.0897V81.0032H229.972V76.3377C229.972 75.8314 229.843 75.4387 229.584 75.1597C229.326 74.8807 228.964 74.7412 228.499 74.7412C227.952 74.7412 227.507 74.9531 227.166 75.3767C226.836 75.8004 226.67 76.3326 226.67 76.9732V81.0032H224.64V73.0982ZM235.376 72.2302C235.014 72.2302 234.704 72.1011 234.446 71.8427C234.187 71.5844 234.058 71.2744 234.058 70.9127C234.058 70.5511 234.187 70.2462 234.446 69.9982C234.704 69.7399 235.014 69.6107 235.376 69.6107C235.737 69.6107 236.042 69.7399 236.29 69.9982C236.548 70.2462 236.678 70.5511 236.678 70.9127C236.678 71.2744 236.548 71.5844 236.29 71.8427C236.042 72.1011 235.737 72.2302 235.376 72.2302ZM234.353 73.0982H236.383V81.0032H234.353V73.0982ZM242.141 81.2512C241.428 81.2512 240.777 81.0756 240.188 80.7242C239.609 80.3626 239.15 79.8666 238.809 79.2362C238.478 78.5956 238.313 77.8671 238.313 77.0507C238.313 76.2447 238.478 75.5214 238.809 74.8807C239.15 74.2401 239.609 73.7441 240.188 73.3927C240.777 73.0311 241.428 72.8502 242.141 72.8502C242.678 72.8502 243.154 72.9691 243.567 73.2067C243.98 73.4341 244.296 73.7182 244.513 74.0592H244.637L244.513 72.9432V69.9052H246.528V81.0032H244.637V80.0577H244.513C244.306 80.3987 243.991 80.6829 243.567 80.9102C243.154 81.1376 242.678 81.2512 242.141 81.2512ZM242.482 79.3757C242.864 79.3757 243.221 79.2776 243.552 79.0812C243.882 78.8849 244.146 78.6111 244.342 78.2597C244.538 77.9084 244.637 77.5054 244.637 77.0507C244.637 76.5961 244.538 76.1931 244.342 75.8417C244.146 75.4904 243.882 75.2217 243.552 75.0357C243.221 74.8394 242.864 74.7412 242.482 74.7412C242.11 74.7412 241.759 74.8394 241.428 75.0357C241.097 75.2217 240.834 75.4904 240.638 75.8417C240.441 76.1931 240.343 76.5961 240.343 77.0507C240.343 77.5054 240.441 77.9084 240.638 78.2597C240.834 78.6111 241.097 78.8849 241.428 79.0812C241.759 79.2776 242.11 79.3757 242.482 79.3757ZM252.541 81.2512C251.725 81.2512 250.996 81.0704 250.356 80.7087C249.715 80.3367 249.214 79.8356 248.852 79.2052C248.501 78.5646 248.325 77.8464 248.325 77.0507C248.325 76.2654 248.501 75.5524 248.852 74.9117C249.214 74.2711 249.715 73.7699 250.356 73.4082C250.996 73.0362 251.725 72.8502 252.541 72.8502C253.347 72.8502 254.071 73.0362 254.711 73.4082C255.352 73.7699 255.848 74.2711 256.199 74.9117C256.561 75.5524 256.742 76.2654 256.742 77.0507C256.742 77.8464 256.561 78.5646 256.199 79.2052C255.848 79.8356 255.352 80.3367 254.711 80.7087C254.071 81.0704 253.347 81.2512 252.541 81.2512ZM252.541 79.3757C252.934 79.3757 253.296 79.2827 253.626 79.0967C253.957 78.9107 254.22 78.6421 254.417 78.2907C254.613 77.9394 254.711 77.5261 254.711 77.0507C254.711 76.5857 254.613 76.1776 254.417 75.8262C254.22 75.4749 253.957 75.2062 253.626 75.0202C253.296 74.8342 252.934 74.7412 252.541 74.7412C252.149 74.7412 251.787 74.8342 251.456 75.0202C251.126 75.2062 250.857 75.4749 250.65 75.8262C250.454 76.1776 250.356 76.5857 250.356 77.0507C250.356 77.5157 250.454 77.9291 250.65 78.2907C250.857 78.6421 251.126 78.9107 251.456 79.0967C251.787 79.2827 252.149 79.3757 252.541 79.3757ZM266.253 81.2512C265.467 81.2512 264.76 81.0704 264.129 80.7087C263.499 80.3471 263.003 79.8511 262.641 79.2207C262.29 78.5801 262.114 77.8619 262.114 77.0662C262.114 76.3119 262.29 75.6144 262.641 74.9737C262.993 74.3227 263.478 73.8061 264.098 73.4237C264.718 73.0414 265.411 72.8502 266.175 72.8502C266.992 72.8502 267.694 73.0259 268.283 73.3772C268.872 73.7286 269.317 74.2091 269.616 74.8187C269.926 75.4284 270.081 76.1052 270.081 76.8492C270.081 77.0869 270.066 77.3142 270.035 77.5312H264.098C264.202 78.1616 264.45 78.6421 264.842 78.9727C265.245 79.2931 265.726 79.4532 266.284 79.4532C266.749 79.4532 267.147 79.3551 267.477 79.1587C267.818 78.9521 268.087 78.6782 268.283 78.3372L269.926 79.1432C269.12 80.5486 267.896 81.2512 266.253 81.2512ZM268.128 76.0897C268.108 75.8417 268.015 75.5989 267.849 75.3612C267.694 75.1132 267.472 74.9117 267.183 74.7567C266.904 74.5914 266.573 74.5087 266.191 74.5087C265.705 74.5087 265.287 74.6534 264.935 74.9427C264.594 75.2217 264.346 75.6041 264.191 76.0897H268.128ZM273.757 76.9887L271.029 73.0982H273.432L274.935 75.3612H275.028L276.439 73.0982H278.919L276.144 76.9887L278.919 81.0032H276.516L274.997 78.6937H274.904L273.416 81.0032H271.014L273.757 76.9887ZM283.917 81.2512C283.121 81.2512 282.408 81.0756 281.778 80.7242C281.148 80.3626 280.652 79.8614 280.29 79.2207C279.939 78.5801 279.763 77.8567 279.763 77.0507C279.763 76.2447 279.939 75.5266 280.29 74.8962C280.652 74.2556 281.148 73.7544 281.778 73.3927C282.408 73.0311 283.121 72.8502 283.917 72.8502C284.795 72.8502 285.55 73.0414 286.18 73.4237C286.81 73.7957 287.265 74.3279 287.544 75.0202L285.684 75.7952C285.353 75.0926 284.764 74.7412 283.917 74.7412C283.297 74.7412 282.786 74.9531 282.383 75.3767C281.99 75.8004 281.794 76.3584 281.794 77.0507C281.794 77.7534 281.99 78.3166 282.383 78.7402C282.786 79.1639 283.297 79.3757 283.917 79.3757C284.775 79.3757 285.395 79.0037 285.777 78.2597L287.622 79.0657C287.281 79.7581 286.795 80.2954 286.165 80.6777C285.534 81.0601 284.785 81.2512 283.917 81.2512ZM289.392 69.9052H291.423V81.0032H289.392V69.9052ZM296.581 81.2512C295.63 81.2512 294.907 80.9567 294.411 80.3677C293.915 79.7787 293.667 78.9572 293.667 77.9032V73.0982H295.697V77.6552C295.697 78.1926 295.826 78.6162 296.085 78.9262C296.343 79.2259 296.684 79.3757 297.108 79.3757C297.686 79.3757 298.146 79.1639 298.487 78.7402C298.828 78.3166 298.999 77.7792 298.999 77.1282V73.0982H301.029V81.0032H299.123V80.0112H298.999C298.761 80.3936 298.425 80.6984 297.991 80.9257C297.567 81.1427 297.097 81.2512 296.581 81.2512ZM306.249 81.2512C305.288 81.2512 304.508 81.0549 303.908 80.6622C303.319 80.2696 302.906 79.7581 302.668 79.1277L304.482 78.3372C304.647 78.7092 304.88 78.9934 305.179 79.1897C305.489 79.3757 305.846 79.4687 306.249 79.4687C306.621 79.4687 306.931 79.4119 307.179 79.2982C307.427 79.1742 307.551 78.9779 307.551 78.7092C307.551 78.4509 307.437 78.2597 307.21 78.1357C306.982 78.0014 306.641 77.8826 306.187 77.7792L305.257 77.5777C304.616 77.4227 304.084 77.1437 303.66 76.7407C303.237 76.3274 303.025 75.8159 303.025 75.2062C303.025 74.7516 303.159 74.3434 303.428 73.9817C303.707 73.6201 304.079 73.3411 304.544 73.1447C305.019 72.9484 305.541 72.8502 306.109 72.8502C307.742 72.8502 308.832 73.4237 309.38 74.5707L307.644 75.3302C307.334 74.7722 306.838 74.4932 306.156 74.4932C305.804 74.4932 305.525 74.5604 305.319 74.6947C305.112 74.8187 305.009 74.9789 305.009 75.1752C305.009 75.5472 305.36 75.8262 306.063 76.0122L307.225 76.2912C308.011 76.4876 308.6 76.7872 308.992 77.1902C309.395 77.5932 309.597 78.0892 309.597 78.6782C309.597 79.1846 309.447 79.6341 309.147 80.0267C308.858 80.4091 308.455 80.7087 307.938 80.9257C307.432 81.1427 306.869 81.2512 306.249 81.2512ZM312.449 72.2302C312.087 72.2302 311.777 72.1011 311.519 71.8427C311.26 71.5844 311.131 71.2744 311.131 70.9127C311.131 70.5511 311.26 70.2462 311.519 69.9982C311.777 69.7399 312.087 69.6107 312.449 69.6107C312.81 69.6107 313.115 69.7399 313.363 69.9982C313.622 70.2462 313.751 70.5511 313.751 70.9127C313.751 71.2744 313.622 71.5844 313.363 71.8427C313.115 72.1011 312.81 72.2302 312.449 72.2302ZM311.426 73.0982H313.456V81.0032H311.426V73.0982ZM315.012 73.0982H317.321L319.321 78.2442H319.445L321.475 73.0982H323.754L320.375 81.0032H318.36L315.012 73.0982ZM328.721 81.2512C327.905 81.2512 327.177 81.0704 326.536 80.7087C325.895 80.3367 325.394 79.8356 325.032 79.2052C324.681 78.5646 324.505 77.8464 324.505 77.0507C324.505 76.2654 324.681 75.5524 325.032 74.9117C325.394 74.2711 325.895 73.7699 326.536 73.4082C327.177 73.0362 327.905 72.8502 328.721 72.8502C329.527 72.8502 330.251 73.0362 330.891 73.4082C331.532 73.7699 332.028 74.2711 332.379 74.9117C332.741 75.5524 332.922 76.2654 332.922 77.0507C332.922 77.8464 332.741 78.5646 332.379 79.2052C332.028 79.8356 331.532 80.3367 330.891 80.7087C330.251 81.0704 329.527 81.2512 328.721 81.2512ZM328.721 79.3757C329.114 79.3757 329.476 79.2827 329.806 79.0967C330.137 78.9107 330.401 78.6421 330.597 78.2907C330.793 77.9394 330.891 77.5261 330.891 77.0507C330.891 76.5857 330.793 76.1776 330.597 75.8262C330.401 75.4749 330.137 75.2062 329.806 75.0202C329.476 74.8342 329.114 74.7412 328.721 74.7412C328.329 74.7412 327.967 74.8342 327.636 75.0202C327.306 75.2062 327.037 75.4749 326.83 75.8262C326.634 76.1776 326.536 76.5857 326.536 77.0507C326.536 77.5157 326.634 77.9291 326.83 78.2907C327.037 78.6421 327.306 78.9107 327.636 79.0967C327.967 79.2827 328.329 79.3757 328.721 79.3757Z" fill="white"/>
<path d="M2.43359 64.0522H7.79648C9.70715 64.0522 11.2589 65.5776 11.2589 67.4632V86.3569C11.2589 95.7752 19.0076 103.409 28.5678 103.409H40.6539C41.4195 103.409 42.0381 102.799 42.0381 102.045V82.9122C42.0381 82.158 41.4195 81.5485 40.6539 81.5485H31.7841C29.8734 81.5485 28.3216 80.0231 28.3216 78.1375V26.3995C28.3216 24.5172 29.87 22.9885 31.7841 22.9885H40.6539C41.4195 22.9885 42.0381 22.379 42.0381 21.6247V2.49195C42.0381 1.73768 41.4195 1.1282 40.6539 1.1282H28.5678C19.0076 1.1282 11.2589 8.76178 11.2589 18.18V37.9256C11.2589 39.8079 9.71057 41.3367 7.79648 41.3367H2.43359C1.66795 41.3367 1.04932 41.9461 1.04932 42.7004V62.6851C1.04932 63.4427 1.66795 64.0522 2.43359 64.0522Z" fill="#F9AB00" stroke="black" stroke-width="2" stroke-miterlimit="10" stroke-linejoin="round"/>
<path d="M419.667 40.4847H414.505C412.665 40.4847 411.172 38.9594 411.172 37.0737V18.18C411.172 8.76178 403.713 1.1282 394.51 1.1282H382.876C382.139 1.1282 381.543 1.73768 381.543 2.49195V21.6247C381.543 22.379 382.139 22.9885 382.876 22.9885H391.414C393.253 22.9885 394.747 24.5138 394.747 26.3995V78.1375C394.747 80.0198 393.256 81.5485 391.414 81.5485H382.876C382.139 81.5485 381.543 82.158 381.543 82.9122V102.045C381.543 102.799 382.139 103.409 382.876 103.409H394.51C403.713 103.409 411.172 95.7752 411.172 86.3569V66.6113C411.172 64.729 412.662 63.2003 414.505 63.2003H419.667C420.404 63.2003 421 62.5908 421 61.8365V41.8519C421 41.0976 420.401 40.4847 419.667 40.4847Z" fill="#34A853" stroke="black" stroke-width="2" stroke-miterlimit="10" stroke-linejoin="round"/>
</svg>
