<svg width="436" height="105" viewBox="0 0 436 105" fill="none" xmlns="http://www.w3.org/2000/svg">
<rect width="392" height="72" transform="matrix(-1 0 0 1 413 19)" fill="#4285F4" stroke="black" stroke-width="2"/>
<path d="M59.3906 32.5387L57.6911 33.7762L56.6021 32.1097L59.9186 29.7172H61.5521V41.0032H59.3906V32.5387ZM67.0949 29.1892H69.5039L71.9459 36.3172L72.3749 37.8187H72.5069L72.9689 36.3172L75.5099 29.1892H77.9189L73.6124 41.0032H71.2694L67.0949 29.1892ZM81.2814 41.2672C80.3904 41.2672 79.6589 41.0087 79.0869 40.4917C78.5149 39.9637 78.2289 39.2762 78.2289 38.4292C78.2289 37.8682 78.3774 37.3732 78.6744 36.9442C78.9714 36.5152 79.3784 36.1852 79.8954 35.9542C80.4124 35.7232 80.9844 35.6077 81.6114 35.6077C82.4804 35.6077 83.2229 35.7342 83.8389 35.9872V35.6242C83.8389 35.1622 83.6629 34.7882 83.3109 34.5022C82.9699 34.2162 82.5079 34.0732 81.9249 34.0732C81.5289 34.0732 81.1439 34.1667 80.7699 34.3537C80.4069 34.5297 80.1044 34.7662 79.8624 35.0632L78.4764 33.9742C78.8834 33.4462 79.3949 33.0392 80.0109 32.7532C80.6269 32.4672 81.2979 32.3242 82.0239 32.3242C83.3109 32.3242 84.2899 32.6212 84.9609 33.2152C85.6319 33.8092 85.9674 34.6782 85.9674 35.8222V41.0032H83.8389V40.1452H83.7069C83.4539 40.4752 83.1184 40.7447 82.7004 40.9537C82.2934 41.1627 81.8204 41.2672 81.2814 41.2672ZM81.7929 39.5842C82.4199 39.5842 82.9149 39.3862 83.2779 38.9902C83.6519 38.5832 83.8389 38.1102 83.8389 37.5712C83.2779 37.3072 82.6894 37.1752 82.0734 37.1752C80.9514 37.1752 80.3904 37.5932 80.3904 38.4292C80.3904 38.7702 80.5114 39.0507 80.7534 39.2707C80.9954 39.4797 81.3419 39.5842 81.7929 39.5842ZM91.4069 41.2672C90.3839 41.2672 89.5534 41.0582 88.9154 40.6402C88.2884 40.2222 87.8484 39.6777 87.5954 39.0067L89.5259 38.1652C89.7019 38.5612 89.9494 38.8637 90.2684 39.0727C90.5984 39.2707 90.9779 39.3697 91.4069 39.3697C91.8029 39.3697 92.1329 39.3092 92.3969 39.1882C92.6609 39.0562 92.7929 38.8472 92.7929 38.5612C92.7929 38.2862 92.6719 38.0827 92.4299 37.9507C92.1879 37.8077 91.8249 37.6812 91.3409 37.5712L90.3509 37.3567C89.6689 37.1917 89.1024 36.8947 88.6514 36.4657C88.2004 36.0257 87.9749 35.4812 87.9749 34.8322C87.9749 34.3482 88.1179 33.9137 88.4039 33.5287C88.7009 33.1437 89.0969 32.8467 89.5919 32.6377C90.0979 32.4287 90.6534 32.3242 91.2584 32.3242C92.9964 32.3242 94.1569 32.9347 94.7399 34.1557L92.8919 34.9642C92.5619 34.3702 92.0339 34.0732 91.3079 34.0732C90.9339 34.0732 90.6369 34.1447 90.4169 34.2877C90.1969 34.4197 90.0869 34.5902 90.0869 34.7992C90.0869 35.1952 90.4609 35.4922 91.2089 35.6902L92.4464 35.9872C93.2824 36.1962 93.9094 36.5152 94.3274 36.9442C94.7564 37.3732 94.9709 37.9012 94.9709 38.5282C94.9709 39.0672 94.8114 39.5457 94.4924 39.9637C94.1844 40.3707 93.7554 40.6897 93.2054 40.9207C92.6664 41.1517 92.0669 41.2672 91.4069 41.2672ZM100.973 41.2672C100.104 41.2672 99.3285 41.0747 98.6465 40.6897C97.9645 40.2937 97.431 39.7602 97.046 39.0892C96.672 38.4072 96.485 37.6427 96.485 36.7957C96.485 35.9597 96.672 35.2007 97.046 34.5187C97.431 33.8367 97.9645 33.3032 98.6465 32.9182C99.3285 32.5222 100.104 32.3242 100.973 32.3242C101.831 32.3242 102.601 32.5222 103.283 32.9182C103.965 33.3032 104.493 33.8367 104.867 34.5187C105.252 35.2007 105.445 35.9597 105.445 36.7957C105.445 37.6427 105.252 38.4072 104.867 39.0892C104.493 39.7602 103.965 40.2937 103.283 40.6897C102.601 41.0747 101.831 41.2672 100.973 41.2672ZM100.973 39.2707C101.391 39.2707 101.776 39.1717 102.128 38.9737C102.48 38.7757 102.761 38.4897 102.97 38.1157C103.179 37.7417 103.283 37.3017 103.283 36.7957C103.283 36.3007 103.179 35.8662 102.97 35.4922C102.761 35.1182 102.48 34.8322 102.128 34.6342C101.776 34.4362 101.391 34.3372 100.973 34.3372C100.555 34.3372 100.17 34.4362 99.818 34.6342C99.466 34.8322 99.18 35.1182 98.96 35.4922C98.751 35.8662 98.6465 36.3007 98.6465 36.7957C98.6465 37.2907 98.751 37.7307 98.96 38.1157C99.18 38.4897 99.466 38.7757 99.818 38.9737C100.17 39.1717 100.555 39.2707 100.973 39.2707ZM115.586 41.2672C114.739 41.2672 113.98 41.0802 113.309 40.7062C112.638 40.3212 112.11 39.7877 111.725 39.1057C111.351 38.4237 111.164 37.6537 111.164 36.7957C111.164 35.9377 111.351 35.1732 111.725 34.5022C112.11 33.8202 112.638 33.2867 113.309 32.9017C113.98 32.5167 114.739 32.3242 115.586 32.3242C116.521 32.3242 117.324 32.5277 117.995 32.9347C118.666 33.3307 119.15 33.8972 119.447 34.6342L117.467 35.4592C117.115 34.7112 116.488 34.3372 115.586 34.3372C114.926 34.3372 114.381 34.5627 113.952 35.0137C113.534 35.4647 113.325 36.0587 113.325 36.7957C113.325 37.5437 113.534 38.1432 113.952 38.5942C114.381 39.0452 114.926 39.2707 115.586 39.2707C116.499 39.2707 117.159 38.8747 117.566 38.0827L119.529 38.9407C119.166 39.6777 118.649 40.2497 117.978 40.6567C117.307 41.0637 116.51 41.2672 115.586 41.2672ZM125.36 41.2672C124.491 41.2672 123.715 41.0747 123.033 40.6897C122.351 40.2937 121.818 39.7602 121.433 39.0892C121.059 38.4072 120.872 37.6427 120.872 36.7957C120.872 35.9597 121.059 35.2007 121.433 34.5187C121.818 33.8367 122.351 33.3032 123.033 32.9182C123.715 32.5222 124.491 32.3242 125.36 32.3242C126.218 32.3242 126.988 32.5222 127.67 32.9182C128.352 33.3032 128.88 33.8367 129.254 34.5187C129.639 35.2007 129.831 35.9597 129.831 36.7957C129.831 37.6427 129.639 38.4072 129.254 39.0892C128.88 39.7602 128.352 40.2937 127.67 40.6897C126.988 41.0747 126.218 41.2672 125.36 41.2672ZM125.36 39.2707C125.778 39.2707 126.163 39.1717 126.515 38.9737C126.867 38.7757 127.147 38.4897 127.356 38.1157C127.565 37.7417 127.67 37.3017 127.67 36.7957C127.67 36.3007 127.565 35.8662 127.356 35.4922C127.147 35.1182 126.867 34.8322 126.515 34.6342C126.163 34.4362 125.778 34.3372 125.36 34.3372C124.942 34.3372 124.557 34.4362 124.205 34.6342C123.853 34.8322 123.567 35.1182 123.347 35.4922C123.138 35.8662 123.033 36.3007 123.033 36.7957C123.033 37.2907 123.138 37.7307 123.347 38.1157C123.567 38.4897 123.853 38.7757 124.205 38.9737C124.557 39.1717 124.942 39.2707 125.36 39.2707ZM131.654 32.5882H133.683V33.6442H133.815C134.068 33.2372 134.426 32.9182 134.888 32.6872C135.35 32.4452 135.85 32.3242 136.389 32.3242C137.401 32.3242 138.171 32.6322 138.699 33.2482C139.227 33.8642 139.491 34.7057 139.491 35.7727V41.0032H137.33V36.0367C137.33 35.4977 137.192 35.0797 136.917 34.7827C136.642 34.4857 136.257 34.3372 135.762 34.3372C135.179 34.3372 134.706 34.5627 134.343 35.0137C133.991 35.4647 133.815 36.0312 133.815 36.7132V41.0032H131.654V32.5882ZM145.992 32.5882H148.022V33.6112H148.154C148.385 33.2482 148.72 32.9457 149.16 32.7037C149.6 32.4507 150.106 32.3242 150.678 32.3242C151.437 32.3242 152.125 32.5167 152.741 32.9017C153.368 33.2757 153.857 33.8037 154.209 34.4857C154.561 35.1677 154.737 35.9377 154.737 36.7957C154.737 37.6647 154.561 38.4402 154.209 39.1222C153.857 39.7932 153.368 40.3212 152.741 40.7062C152.125 41.0802 151.437 41.2672 150.678 41.2672C150.106 41.2672 149.595 41.1462 149.144 40.9042C148.704 40.6622 148.374 40.3597 148.154 39.9967H148.022L148.154 41.1847V44.5672H145.992V32.5882ZM150.299 39.2707C150.706 39.2707 151.085 39.1662 151.437 38.9572C151.789 38.7482 152.07 38.4567 152.279 38.0827C152.488 37.7087 152.592 37.2797 152.592 36.7957C152.592 36.3117 152.488 35.8827 152.279 35.5087C152.07 35.1347 151.789 34.8487 151.437 34.6507C151.085 34.4417 150.706 34.3372 150.299 34.3372C149.903 34.3372 149.529 34.4417 149.177 34.6507C148.825 34.8487 148.544 35.1347 148.335 35.5087C148.126 35.8827 148.022 36.3117 148.022 36.7957C148.022 37.2797 148.126 37.7087 148.335 38.0827C148.544 38.4567 148.825 38.7482 149.177 38.9572C149.529 39.1662 149.903 39.2707 150.299 39.2707ZM160.759 41.2672C159.89 41.2672 159.115 41.0747 158.433 40.6897C157.751 40.2937 157.217 39.7602 156.832 39.0892C156.458 38.4072 156.271 37.6427 156.271 36.7957C156.271 35.9597 156.458 35.2007 156.832 34.5187C157.217 33.8367 157.751 33.3032 158.433 32.9182C159.115 32.5222 159.89 32.3242 160.759 32.3242C161.617 32.3242 162.387 32.5222 163.069 32.9182C163.751 33.3032 164.279 33.8367 164.653 34.5187C165.038 35.2007 165.231 35.9597 165.231 36.7957C165.231 37.6427 165.038 38.4072 164.653 39.0892C164.279 39.7602 163.751 40.2937 163.069 40.6897C162.387 41.0747 161.617 41.2672 160.759 41.2672ZM160.759 39.2707C161.177 39.2707 161.562 39.1717 161.914 38.9737C162.266 38.7757 162.547 38.4897 162.756 38.1157C162.965 37.7417 163.069 37.3017 163.069 36.7957C163.069 36.3007 162.965 35.8662 162.756 35.4922C162.547 35.1182 162.266 34.8322 161.914 34.6342C161.562 34.4362 161.177 34.3372 160.759 34.3372C160.341 34.3372 159.956 34.4362 159.604 34.6342C159.252 34.8322 158.966 35.1182 158.746 35.4922C158.537 35.8662 158.433 36.3007 158.433 36.7957C158.433 37.2907 158.537 37.7307 158.746 38.1157C158.966 38.4897 159.252 38.7757 159.604 38.9737C159.956 39.1717 160.341 39.2707 160.759 39.2707ZM167.068 32.5882H169.097V33.6112H169.229C169.46 33.2482 169.796 32.9457 170.236 32.7037C170.676 32.4507 171.182 32.3242 171.754 32.3242C172.513 32.3242 173.2 32.5167 173.816 32.9017C174.443 33.2757 174.933 33.8037 175.285 34.4857C175.637 35.1677 175.813 35.9377 175.813 36.7957C175.813 37.6647 175.637 38.4402 175.285 39.1222C174.933 39.7932 174.443 40.3212 173.816 40.7062C173.2 41.0802 172.513 41.2672 171.754 41.2672C171.182 41.2672 170.67 41.1462 170.219 40.9042C169.779 40.6622 169.449 40.3597 169.229 39.9967H169.097L169.229 41.1847V44.5672H167.068V32.5882ZM171.374 39.2707C171.781 39.2707 172.161 39.1662 172.513 38.9572C172.865 38.7482 173.145 38.4567 173.354 38.0827C173.563 37.7087 173.668 37.2797 173.668 36.7957C173.668 36.3117 173.563 35.8827 173.354 35.5087C173.145 35.1347 172.865 34.8487 172.513 34.6507C172.161 34.4417 171.781 34.3372 171.374 34.3372C170.978 34.3372 170.604 34.4417 170.252 34.6507C169.9 34.8487 169.62 35.1347 169.411 35.5087C169.202 35.8827 169.097 36.3117 169.097 36.7957C169.097 37.2797 169.202 37.7087 169.411 38.0827C169.62 38.4567 169.9 38.7482 170.252 38.9572C170.604 39.1662 170.978 39.2707 171.374 39.2707ZM181.835 41.2672C180.966 41.2672 180.19 41.0747 179.508 40.6897C178.826 40.2937 178.293 39.7602 177.908 39.0892C177.534 38.4072 177.347 37.6427 177.347 36.7957C177.347 35.9597 177.534 35.2007 177.908 34.5187C178.293 33.8367 178.826 33.3032 179.508 32.9182C180.19 32.5222 180.966 32.3242 181.835 32.3242C182.693 32.3242 183.463 32.5222 184.145 32.9182C184.827 33.3032 185.355 33.8367 185.729 34.5187C186.114 35.2007 186.306 35.9597 186.306 36.7957C186.306 37.6427 186.114 38.4072 185.729 39.0892C185.355 39.7602 184.827 40.2937 184.145 40.6897C183.463 41.0747 182.693 41.2672 181.835 41.2672ZM181.835 39.2707C182.253 39.2707 182.638 39.1717 182.99 38.9737C183.342 38.7757 183.622 38.4897 183.831 38.1157C184.04 37.7417 184.145 37.3017 184.145 36.7957C184.145 36.3007 184.04 35.8662 183.831 35.4922C183.622 35.1182 183.342 34.8322 182.99 34.6342C182.638 34.4362 182.253 34.3372 181.835 34.3372C181.417 34.3372 181.032 34.4362 180.68 34.6342C180.328 34.8322 180.042 35.1182 179.822 35.4922C179.613 35.8662 179.508 36.3007 179.508 36.7957C179.508 37.2907 179.613 37.7307 179.822 38.1157C180.042 38.4897 180.328 38.7757 180.68 38.9737C181.032 39.1717 181.417 39.2707 181.835 39.2707ZM191.711 41.1352C191.293 41.1352 190.908 41.0747 190.556 40.9537C190.204 40.8217 189.918 40.6457 189.698 40.4257C189.181 39.9307 188.923 39.2267 188.923 38.3137V34.4362H187.454V32.5882H188.923V30.2122H191.084V32.5882H193.147V34.4362H191.084V37.9177C191.084 38.3467 191.178 38.6547 191.365 38.8417C191.519 39.0177 191.783 39.1057 192.157 39.1057C192.366 39.1057 192.536 39.0782 192.668 39.0232C192.811 38.9682 192.993 38.8747 193.213 38.7427V40.8547C192.74 41.0417 192.239 41.1352 191.711 41.1352ZM198.928 41.2672C198.092 41.2672 197.339 41.0747 196.668 40.6897C195.997 40.3047 195.469 39.7767 195.084 39.1057C194.71 38.4237 194.523 37.6592 194.523 36.8122C194.523 36.0092 194.71 35.2667 195.084 34.5847C195.458 33.8917 195.975 33.3417 196.635 32.9347C197.295 32.5277 198.032 32.3242 198.846 32.3242C199.715 32.3242 200.463 32.5112 201.09 32.8852C201.717 33.2592 202.19 33.7707 202.509 34.4197C202.839 35.0687 203.004 35.7892 203.004 36.5812C203.004 36.8342 202.987 37.0762 202.954 37.3072H196.635C196.745 37.9782 197.009 38.4897 197.427 38.8417C197.856 39.1827 198.367 39.3532 198.961 39.3532C199.456 39.3532 199.88 39.2487 200.232 39.0397C200.595 38.8197 200.881 38.5282 201.09 38.1652L202.839 39.0232C201.981 40.5192 200.677 41.2672 198.928 41.2672ZM200.925 35.7727C200.903 35.5087 200.804 35.2502 200.628 34.9972C200.463 34.7332 200.226 34.5187 199.918 34.3537C199.621 34.1777 199.269 34.0897 198.862 34.0897C198.345 34.0897 197.9 34.2437 197.526 34.5517C197.163 34.8487 196.899 35.2557 196.734 35.7727H200.925ZM213.377 34.9312H218.97V36.8452H213.377V34.9312ZM229.237 41.2672C228.28 41.2672 227.433 41.0142 226.696 40.5082C225.97 40.0022 225.469 39.2652 225.194 38.2972L227.24 37.4887C227.372 38.0277 227.609 38.4457 227.95 38.7427C228.291 39.0287 228.72 39.1717 229.237 39.1717C229.71 39.1717 230.117 39.0287 230.458 38.7427C230.81 38.4567 230.986 38.0937 230.986 37.6537C230.986 37.1807 230.799 36.8067 230.425 36.5317C230.062 36.2457 229.567 36.1027 228.94 36.1027H227.966V34.1392H228.857C229.341 34.1392 229.748 34.0182 230.078 33.7762C230.419 33.5342 230.59 33.1822 230.59 32.7202C230.59 32.3462 230.452 32.0382 230.177 31.7962C229.902 31.5542 229.55 31.4332 229.121 31.4332C228.67 31.4332 228.307 31.5542 228.032 31.7962C227.757 32.0382 227.565 32.3407 227.455 32.7037L225.491 31.8952C225.722 31.2352 226.146 30.6632 226.762 30.1792C227.389 29.6952 228.181 29.4532 229.138 29.4532C229.842 29.4532 230.469 29.5852 231.019 29.8492C231.58 30.1132 232.014 30.4762 232.322 30.9382C232.63 31.3892 232.784 31.9007 232.784 32.4727C232.784 33.0777 232.641 33.5947 232.355 34.0237C232.08 34.4527 231.745 34.7662 231.349 34.9642V35.0962C231.899 35.3162 232.344 35.6627 232.685 36.1357C233.026 36.6087 233.197 37.1807 233.197 37.8517C233.197 38.5007 233.032 39.0837 232.702 39.6007C232.372 40.1177 231.904 40.5247 231.299 40.8217C230.705 41.1187 230.018 41.2672 229.237 41.2672ZM242.889 41.2672C241.855 41.2672 240.942 40.9757 240.15 40.3927C239.358 39.8097 238.803 38.9847 238.484 37.9177L240.579 37.0927C240.744 37.7197 241.025 38.2202 241.421 38.5942C241.817 38.9682 242.312 39.1552 242.906 39.1552C243.401 39.1552 243.824 39.0342 244.176 38.7922C244.528 38.5392 244.704 38.1927 244.704 37.7527C244.704 37.3127 244.534 36.9552 244.193 36.6802C243.863 36.3942 243.269 36.0917 242.411 35.7727L241.685 35.5087C240.926 35.2447 240.277 34.8432 239.738 34.3042C239.199 33.7542 238.929 33.0667 238.929 32.2417C238.929 31.6257 239.089 31.0647 239.408 30.5587C239.727 30.0527 240.178 29.6567 240.761 29.3707C241.344 29.0737 242.004 28.9252 242.741 28.9252C243.808 28.9252 244.649 29.1782 245.265 29.6842C245.881 30.1792 246.305 30.7622 246.536 31.4332L244.572 32.2582C244.451 31.8952 244.237 31.5927 243.929 31.3507C243.632 31.0977 243.247 30.9712 242.774 30.9712C242.29 30.9712 241.888 31.0867 241.569 31.3177C241.261 31.5377 241.107 31.8292 241.107 32.1922C241.107 32.5442 241.256 32.8467 241.553 33.0997C241.85 33.3417 242.339 33.5782 243.021 33.8092L243.764 34.0567C244.787 34.4087 245.568 34.8762 246.107 35.4592C246.657 36.0312 246.932 36.7847 246.932 37.7197C246.932 38.4897 246.734 39.1442 246.338 39.6832C245.942 40.2112 245.43 40.6072 244.803 40.8712C244.187 41.1352 243.549 41.2672 242.889 41.2672ZM252.319 41.1352C251.901 41.1352 251.516 41.0747 251.164 40.9537C250.812 40.8217 250.526 40.6457 250.306 40.4257C249.789 39.9307 249.53 39.2267 249.53 38.3137V34.4362H248.062V32.5882H249.53V30.2122H251.692V32.5882H253.754V34.4362H251.692V37.9177C251.692 38.3467 251.785 38.6547 251.972 38.8417C252.126 39.0177 252.39 39.1057 252.764 39.1057C252.973 39.1057 253.144 39.0782 253.276 39.0232C253.419 38.9682 253.6 38.8747 253.82 38.7427V40.8547C253.347 41.0417 252.847 41.1352 252.319 41.1352ZM257.184 31.6642C256.799 31.6642 256.469 31.5267 256.194 31.2517C255.919 30.9767 255.781 30.6467 255.781 30.2617C255.781 29.8767 255.919 29.5522 256.194 29.2882C256.469 29.0132 256.799 28.8757 257.184 28.8757C257.569 28.8757 257.893 29.0132 258.157 29.2882C258.432 29.5522 258.57 29.8767 258.57 30.2617C258.57 30.6467 258.432 30.9767 258.157 31.2517C257.893 31.5267 257.569 31.6642 257.184 31.6642ZM256.095 32.5882H258.256V41.0032H256.095V32.5882ZM264.732 41.2672C263.885 41.2672 263.126 41.0802 262.455 40.7062C261.784 40.3212 261.256 39.7877 260.871 39.1057C260.497 38.4237 260.31 37.6537 260.31 36.7957C260.31 35.9377 260.497 35.1732 260.871 34.5022C261.256 33.8202 261.784 33.2867 262.455 32.9017C263.126 32.5167 263.885 32.3242 264.732 32.3242C265.667 32.3242 266.47 32.5277 267.141 32.9347C267.812 33.3307 268.296 33.8972 268.593 34.6342L266.613 35.4592C266.261 34.7112 265.634 34.3372 264.732 34.3372C264.072 34.3372 263.528 34.5627 263.099 35.0137C262.681 35.4647 262.472 36.0587 262.472 36.7957C262.472 37.5437 262.681 38.1432 263.099 38.5942C263.528 39.0452 264.072 39.2707 264.732 39.2707C265.645 39.2707 266.305 38.8747 266.712 38.0827L268.676 38.9407C268.313 39.6777 267.796 40.2497 267.125 40.6567C266.454 41.0637 265.656 41.2672 264.732 41.2672ZM270.561 29.1892H272.722V35.6242H272.838L275.857 32.5882H278.514V32.7202L275.329 35.8387L278.662 40.8712V41.0032H276.105L273.811 37.3237L272.722 38.3962V41.0032H270.561V29.1892ZM283.809 41.2672C282.973 41.2672 282.22 41.0747 281.549 40.6897C280.878 40.3047 280.35 39.7767 279.965 39.1057C279.591 38.4237 279.404 37.6592 279.404 36.8122C279.404 36.0092 279.591 35.2667 279.965 34.5847C280.339 33.8917 280.856 33.3417 281.516 32.9347C282.176 32.5277 282.913 32.3242 283.727 32.3242C284.596 32.3242 285.344 32.5112 285.971 32.8852C286.598 33.2592 287.071 33.7707 287.39 34.4197C287.72 35.0687 287.885 35.7892 287.885 36.5812C287.885 36.8342 287.868 37.0762 287.835 37.3072H281.516C281.626 37.9782 281.89 38.4897 282.308 38.8417C282.737 39.1827 283.248 39.3532 283.842 39.3532C284.337 39.3532 284.761 39.2487 285.113 39.0397C285.476 38.8197 285.762 38.5282 285.971 38.1652L287.72 39.0232C286.862 40.5192 285.558 41.2672 283.809 41.2672ZM285.806 35.7727C285.784 35.5087 285.685 35.2502 285.509 34.9972C285.344 34.7332 285.107 34.5187 284.799 34.3537C284.502 34.1777 284.15 34.0897 283.743 34.0897C283.226 34.0897 282.781 34.2437 282.407 34.5517C282.044 34.8487 281.78 35.2557 281.615 35.7727H285.806ZM289.88 32.5882H291.909V33.7102H292.041C292.25 33.3142 292.575 32.9897 293.015 32.7367C293.455 32.4727 293.939 32.3407 294.467 32.3407C294.852 32.3407 295.204 32.4012 295.523 32.5222V34.6837C295.226 34.5737 294.973 34.4967 294.764 34.4527C294.566 34.3977 294.351 34.3702 294.12 34.3702C293.482 34.3702 292.976 34.6012 292.602 35.0632C292.228 35.5252 292.041 36.1082 292.041 36.8122V41.0032H289.88V32.5882ZM300.13 41.2672C299.107 41.2672 298.276 41.0582 297.638 40.6402C297.011 40.2222 296.571 39.6777 296.318 39.0067L298.249 38.1652C298.425 38.5612 298.672 38.8637 298.991 39.0727C299.321 39.2707 299.701 39.3697 300.13 39.3697C300.526 39.3697 300.856 39.3092 301.12 39.1882C301.384 39.0562 301.516 38.8472 301.516 38.5612C301.516 38.2862 301.395 38.0827 301.153 37.9507C300.911 37.8077 300.548 37.6812 300.064 37.5712L299.074 37.3567C298.392 37.1917 297.825 36.8947 297.374 36.4657C296.923 36.0257 296.698 35.4812 296.698 34.8322C296.698 34.3482 296.841 33.9137 297.127 33.5287C297.424 33.1437 297.82 32.8467 298.315 32.6377C298.821 32.4287 299.376 32.3242 299.981 32.3242C301.719 32.3242 302.88 32.9347 303.463 34.1557L301.615 34.9642C301.285 34.3702 300.757 34.0732 300.031 34.0732C299.657 34.0732 299.36 34.1447 299.14 34.2877C298.92 34.4197 298.81 34.5902 298.81 34.7992C298.81 35.1952 299.184 35.4922 299.932 35.6902L301.169 35.9872C302.005 36.1962 302.632 36.5152 303.05 36.9442C303.479 37.3732 303.694 37.9012 303.694 38.5282C303.694 39.0672 303.534 39.5457 303.215 39.9637C302.907 40.3707 302.478 40.6897 301.928 40.9207C301.389 41.1517 300.79 41.2672 300.13 41.2672ZM313.967 34.9312H319.561V36.8452H313.967V34.9312ZM325.983 39.0397C326.346 38.6767 327.045 37.9782 328.079 36.9442C329.124 35.8992 329.795 35.2172 330.092 34.8982C330.488 34.4692 330.757 34.1117 330.9 33.8257C331.054 33.5397 331.131 33.2152 331.131 32.8522C331.131 32.4672 330.988 32.1427 330.702 31.8787C330.416 31.6147 330.037 31.4827 329.564 31.4827C329.102 31.4827 328.728 31.6147 328.442 31.8787C328.156 32.1427 327.952 32.4727 327.831 32.8687L325.884 32.0602C326.005 31.6312 326.225 31.2187 326.544 30.8227C326.874 30.4157 327.298 30.0857 327.815 29.8327C328.332 29.5797 328.926 29.4532 329.597 29.4532C330.345 29.4532 330.999 29.6017 331.56 29.8987C332.121 30.1847 332.556 30.5807 332.864 31.0867C333.172 31.5817 333.326 32.1372 333.326 32.7532C333.326 33.9742 332.732 35.1677 331.544 36.3337C331.06 36.8067 330.163 37.6977 328.854 39.0067L328.904 39.1057H333.474V41.0032H325.983V39.0397ZM340.174 29.1892H344.332C345.08 29.1892 345.762 29.3487 346.378 29.6677C346.994 29.9757 347.478 30.4157 347.83 30.9877C348.182 31.5487 348.358 32.1922 348.358 32.9182C348.358 33.6442 348.182 34.2932 347.83 34.8652C347.478 35.4372 346.994 35.8827 346.378 36.2017C345.762 36.5097 345.08 36.6637 344.332 36.6637H342.401V41.0032H340.174V29.1892ZM344.398 34.5517C344.948 34.5517 345.377 34.3922 345.685 34.0732C346.004 33.7542 346.163 33.3692 346.163 32.9182C346.163 32.4672 346.004 32.0877 345.685 31.7797C345.377 31.4607 344.948 31.3012 344.398 31.3012H342.401V34.5517H344.398ZM351.498 31.6642C351.113 31.6642 350.783 31.5267 350.508 31.2517C350.233 30.9767 350.096 30.6467 350.096 30.2617C350.096 29.8767 350.233 29.5522 350.508 29.2882C350.783 29.0132 351.113 28.8757 351.498 28.8757C351.883 28.8757 352.208 29.0132 352.472 29.2882C352.747 29.5522 352.884 29.8767 352.884 30.2617C352.884 30.6467 352.747 30.9767 352.472 31.2517C352.208 31.5267 351.883 31.6642 351.498 31.6642ZM350.409 32.5882H352.571V41.0032H350.409V32.5882ZM355.168 32.5882H357.197V33.6442H357.329C357.582 33.2372 357.94 32.9182 358.402 32.6872C358.864 32.4452 359.364 32.3242 359.903 32.3242C360.915 32.3242 361.685 32.6322 362.213 33.2482C362.741 33.8642 363.005 34.7057 363.005 35.7727V41.0032H360.844V36.0367C360.844 35.4977 360.706 35.0797 360.431 34.7827C360.156 34.4857 359.771 34.3372 359.276 34.3372C358.693 34.3372 358.22 34.5627 357.857 35.0137C357.505 35.4647 357.329 36.0312 357.329 36.7132V41.0032H355.168V32.5882ZM369.318 41.2672C368.482 41.2672 367.729 41.0747 367.058 40.6897C366.387 40.3047 365.859 39.7767 365.474 39.1057C365.1 38.4237 364.913 37.6592 364.913 36.8122C364.913 36.0092 365.1 35.2667 365.474 34.5847C365.848 33.8917 366.365 33.3417 367.025 32.9347C367.685 32.5277 368.422 32.3242 369.236 32.3242C370.105 32.3242 370.853 32.5112 371.48 32.8852C372.107 33.2592 372.58 33.7707 372.899 34.4197C373.229 35.0687 373.394 35.7892 373.394 36.5812C373.394 36.8342 373.377 37.0762 373.344 37.3072H367.025C367.135 37.9782 367.399 38.4897 367.817 38.8417C368.246 39.1827 368.757 39.3532 369.351 39.3532C369.846 39.3532 370.27 39.2487 370.622 39.0397C370.985 38.8197 371.271 38.5282 371.48 38.1652L373.229 39.0232C372.371 40.5192 371.067 41.2672 369.318 41.2672ZM371.315 35.7727C371.293 35.5087 371.194 35.2502 371.018 34.9972C370.853 34.7332 370.616 34.5187 370.308 34.3537C370.011 34.1777 369.659 34.0897 369.252 34.0897C368.735 34.0897 368.29 34.2437 367.916 34.5517C367.553 34.8487 367.289 35.2557 367.124 35.7727H371.315ZM378.671 41.2672C377.648 41.2672 376.817 41.0582 376.179 40.6402C375.552 40.2222 375.112 39.6777 374.859 39.0067L376.79 38.1652C376.966 38.5612 377.213 38.8637 377.532 39.0727C377.862 39.2707 378.242 39.3697 378.671 39.3697C379.067 39.3697 379.397 39.3092 379.661 39.1882C379.925 39.0562 380.057 38.8472 380.057 38.5612C380.057 38.2862 379.936 38.0827 379.694 37.9507C379.452 37.8077 379.089 37.6812 378.605 37.5712L377.615 37.3567C376.933 37.1917 376.366 36.8947 375.915 36.4657C375.464 36.0257 375.239 35.4812 375.239 34.8322C375.239 34.3482 375.382 33.9137 375.668 33.5287C375.965 33.1437 376.361 32.8467 376.856 32.6377C377.362 32.4287 377.917 32.3242 378.522 32.3242C380.26 32.3242 381.421 32.9347 382.004 34.1557L380.156 34.9642C379.826 34.3702 379.298 34.0732 378.572 34.0732C378.198 34.0732 377.901 34.1447 377.681 34.2877C377.461 34.4197 377.351 34.5902 377.351 34.7992C377.351 35.1952 377.725 35.4922 378.473 35.6902L379.71 35.9872C380.546 36.1962 381.173 36.5152 381.591 36.9442C382.02 37.3732 382.235 37.9012 382.235 38.5282C382.235 39.0672 382.075 39.5457 381.756 39.9637C381.448 40.3707 381.019 40.6897 380.469 40.9207C379.93 41.1517 379.331 41.2672 378.671 41.2672ZM50.6309 55.9312H56.2244V57.8452H50.6309V55.9312ZM61.4689 53.5387L59.7694 54.7762L58.6804 53.1097L61.9969 50.7172H63.6304V62.0032H61.4689V53.5387ZM70.9559 50.1892H73.1834V59.8912H78.1829V62.0032H70.9559V50.1892ZM80.0767 50.1892H82.2382V62.0032H80.0767V50.1892ZM87.1863 62.2672C86.2953 62.2672 85.5638 62.0087 84.9918 61.4917C84.4198 60.9637 84.1338 60.2762 84.1338 59.4292C84.1338 58.8682 84.2823 58.3732 84.5793 57.9442C84.8763 57.5152 85.2833 57.1852 85.8003 56.9542C86.3173 56.7232 86.8893 56.6077 87.5163 56.6077C88.3853 56.6077 89.1278 56.7342 89.7438 56.9872V56.6242C89.7438 56.1622 89.5678 55.7882 89.2158 55.5022C88.8748 55.2162 88.4128 55.0732 87.8298 55.0732C87.4338 55.0732 87.0488 55.1667 86.6748 55.3537C86.3118 55.5297 86.0093 55.7662 85.7673 56.0632L84.3813 54.9742C84.7883 54.4462 85.2998 54.0392 85.9158 53.7532C86.5318 53.4672 87.2028 53.3242 87.9288 53.3242C89.2158 53.3242 90.1948 53.6212 90.8658 54.2152C91.5368 54.8092 91.8723 55.6782 91.8723 56.8222V62.0032H89.7438V61.1452H89.6118C89.3588 61.4752 89.0233 61.7447 88.6053 61.9537C88.1983 62.1627 87.7253 62.2672 87.1863 62.2672ZM87.6978 60.5842C88.3248 60.5842 88.8198 60.3862 89.1828 59.9902C89.5568 59.5832 89.7438 59.1102 89.7438 58.5712C89.1828 58.3072 88.5943 58.1752 87.9783 58.1752C86.8563 58.1752 86.2953 58.5932 86.2953 59.4292C86.2953 59.7702 86.4163 60.0507 86.6583 60.2707C86.9003 60.4797 87.2468 60.5842 87.6978 60.5842ZM93.0897 53.5882H95.5482L97.6767 59.0662H97.8087L99.9702 53.5882H102.396L98.7987 62.0032H96.6537L93.0897 53.5882ZM107.601 62.2672C106.765 62.2672 106.012 62.0747 105.341 61.6897C104.67 61.3047 104.142 60.7767 103.757 60.1057C103.383 59.4237 103.196 58.6592 103.196 57.8122C103.196 57.0092 103.383 56.2667 103.757 55.5847C104.131 54.8917 104.648 54.3417 105.308 53.9347C105.968 53.5277 106.705 53.3242 107.519 53.3242C108.388 53.3242 109.136 53.5112 109.763 53.8852C110.39 54.2592 110.863 54.7707 111.182 55.4197C111.512 56.0687 111.677 56.7892 111.677 57.5812C111.677 57.8342 111.66 58.0762 111.627 58.3072H105.308C105.418 58.9782 105.682 59.4897 106.1 59.8417C106.529 60.1827 107.04 60.3532 107.634 60.3532C108.129 60.3532 108.553 60.2487 108.905 60.0397C109.268 59.8197 109.554 59.5282 109.763 59.1652L111.512 60.0232C110.654 61.5192 109.35 62.2672 107.601 62.2672ZM109.598 56.7727C109.576 56.5087 109.477 56.2502 109.301 55.9972C109.136 55.7332 108.899 55.5187 108.591 55.3537C108.294 55.1777 107.942 55.0897 107.535 55.0897C107.018 55.0897 106.573 55.2437 106.199 55.5517C105.836 55.8487 105.572 56.2557 105.407 56.7727H109.598ZM113.672 53.5882H115.701V54.7102H115.833C116.042 54.3142 116.367 53.9897 116.807 53.7367C117.247 53.4727 117.731 53.3407 118.259 53.3407C118.644 53.3407 118.996 53.4012 119.315 53.5222V55.6837C119.018 55.5737 118.765 55.4967 118.556 55.4527C118.358 55.3977 118.143 55.3702 117.912 55.3702C117.274 55.3702 116.768 55.6012 116.394 56.0632C116.02 56.5252 115.833 57.1082 115.833 57.8122V62.0032H113.672V53.5882ZM124.57 62.2672C123.701 62.2672 122.925 62.0747 122.243 61.6897C121.561 61.2937 121.028 60.7602 120.643 60.0892C120.269 59.4072 120.082 58.6427 120.082 57.7957C120.082 56.9597 120.269 56.2007 120.643 55.5187C121.028 54.8367 121.561 54.3032 122.243 53.9182C122.925 53.5222 123.701 53.3242 124.57 53.3242C125.428 53.3242 126.198 53.5222 126.88 53.9182C127.562 54.3032 128.09 54.8367 128.464 55.5187C128.849 56.2007 129.041 56.9597 129.041 57.7957C129.041 58.6427 128.849 59.4072 128.464 60.0892C128.09 60.7602 127.562 61.2937 126.88 61.6897C126.198 62.0747 125.428 62.2672 124.57 62.2672ZM124.57 60.2707C124.988 60.2707 125.373 60.1717 125.725 59.9737C126.077 59.7757 126.357 59.4897 126.566 59.1157C126.775 58.7417 126.88 58.3017 126.88 57.7957C126.88 57.3007 126.775 56.8662 126.566 56.4922C126.357 56.1182 126.077 55.8322 125.725 55.6342C125.373 55.4362 124.988 55.3372 124.57 55.3372C124.152 55.3372 123.767 55.4362 123.415 55.6342C123.063 55.8322 122.777 56.1182 122.557 56.4922C122.348 56.8662 122.243 57.3007 122.243 57.7957C122.243 58.2907 122.348 58.7307 122.557 59.1157C122.777 59.4897 123.063 59.7757 123.415 59.9737C123.767 60.1717 124.152 60.2707 124.57 60.2707ZM138.885 62.1352C138.467 62.1352 138.082 62.0747 137.73 61.9537C137.378 61.8217 137.092 61.6457 136.872 61.4257C136.355 60.9307 136.097 60.2267 136.097 59.3137V55.4362H134.628V53.5882H136.097V51.2122H138.258V53.5882H140.321V55.4362H138.258V58.9177C138.258 59.3467 138.352 59.6547 138.539 59.8417C138.693 60.0177 138.957 60.1057 139.331 60.1057C139.54 60.1057 139.71 60.0782 139.842 60.0232C139.985 59.9682 140.167 59.8747 140.387 59.7427V61.8547C139.914 62.0417 139.413 62.1352 138.885 62.1352ZM142.449 53.5882H144.478V54.7102H144.61C144.819 54.3142 145.144 53.9897 145.584 53.7367C146.024 53.4727 146.508 53.3407 147.036 53.3407C147.421 53.3407 147.773 53.4012 148.092 53.5222V55.6837C147.795 55.5737 147.542 55.4967 147.333 55.4527C147.135 55.3977 146.92 55.3702 146.689 55.3702C146.051 55.3702 145.545 55.6012 145.171 56.0632C144.797 56.5252 144.61 57.1082 144.61 57.8122V62.0032H142.449V53.5882ZM152.856 62.2672C151.844 62.2672 151.074 61.9537 150.546 61.3267C150.018 60.6997 149.754 59.8252 149.754 58.7032V53.5882H151.916V58.4392C151.916 59.0112 152.053 59.4622 152.328 59.7922C152.603 60.1112 152.966 60.2707 153.417 60.2707C154.033 60.2707 154.523 60.0452 154.886 59.5942C155.249 59.1432 155.43 58.5712 155.43 57.8782V53.5882H157.592V62.0032H155.562V60.9472H155.43C155.177 61.3542 154.82 61.6787 154.358 61.9207C153.907 62.1517 153.406 62.2672 152.856 62.2672ZM159.962 53.5882H161.991V54.6112H162.123C162.354 54.2482 162.69 53.9457 163.13 53.7037C163.57 53.4507 164.076 53.3242 164.648 53.3242C165.407 53.3242 166.094 53.5167 166.71 53.9017C167.337 54.2757 167.827 54.8037 168.179 55.4857C168.531 56.1677 168.707 56.9377 168.707 57.7957C168.707 58.6647 168.531 59.4402 168.179 60.1222C167.827 60.7932 167.337 61.3212 166.71 61.7062C166.094 62.0802 165.407 62.2672 164.648 62.2672C164.076 62.2672 163.564 62.1462 163.113 61.9042C162.673 61.6622 162.343 61.3597 162.123 60.9967H161.991L162.123 62.1847V65.5672H159.962V53.5882ZM164.268 60.2707C164.675 60.2707 165.055 60.1662 165.407 59.9572C165.759 59.7482 166.039 59.4567 166.248 59.0827C166.457 58.7087 166.562 58.2797 166.562 57.7957C166.562 57.3117 166.457 56.8827 166.248 56.5087C166.039 56.1347 165.759 55.8487 165.407 55.6507C165.055 55.4417 164.675 55.3372 164.268 55.3372C163.872 55.3372 163.498 55.4417 163.146 55.6507C162.794 55.8487 162.514 56.1347 162.305 56.5087C162.096 56.8827 161.991 57.3117 161.991 57.7957C161.991 58.2797 162.096 58.7087 162.305 59.0827C162.514 59.4567 162.794 59.7482 163.146 59.9572C163.498 60.1662 163.872 60.2707 164.268 60.2707ZM173.276 62.2672C172.385 62.2672 171.654 62.0087 171.082 61.4917C170.51 60.9637 170.224 60.2762 170.224 59.4292C170.224 58.8682 170.372 58.3732 170.669 57.9442C170.966 57.5152 171.373 57.1852 171.89 56.9542C172.407 56.7232 172.979 56.6077 173.606 56.6077C174.475 56.6077 175.218 56.7342 175.834 56.9872V56.6242C175.834 56.1622 175.658 55.7882 175.306 55.5022C174.965 55.2162 174.503 55.0732 173.92 55.0732C173.524 55.0732 173.139 55.1667 172.765 55.3537C172.402 55.5297 172.099 55.7662 171.857 56.0632L170.471 54.9742C170.878 54.4462 171.39 54.0392 172.006 53.7532C172.622 53.4672 173.293 53.3242 174.019 53.3242C175.306 53.3242 176.285 53.6212 176.956 54.2152C177.627 54.8092 177.962 55.6782 177.962 56.8222V62.0032H175.834V61.1452H175.702C175.449 61.4752 175.113 61.7447 174.695 61.9537C174.288 62.1627 173.815 62.2672 173.276 62.2672ZM173.788 60.5842C174.415 60.5842 174.91 60.3862 175.273 59.9902C175.647 59.5832 175.834 59.1102 175.834 58.5712C175.273 58.3072 174.684 58.1752 174.068 58.1752C172.946 58.1752 172.385 58.5932 172.385 59.4292C172.385 59.7702 172.506 60.0507 172.748 60.2707C172.99 60.4797 173.337 60.5842 173.788 60.5842ZM180.281 53.5882H182.311V54.6442H182.443C182.696 54.2372 183.053 53.9182 183.515 53.6872C183.977 53.4452 184.478 53.3242 185.017 53.3242C186.029 53.3242 186.799 53.6322 187.327 54.2482C187.855 54.8642 188.119 55.7057 188.119 56.7727V62.0032H185.957V57.0367C185.957 56.4977 185.82 56.0797 185.545 55.7827C185.27 55.4857 184.885 55.3372 184.39 55.3372C183.807 55.3372 183.334 55.5627 182.971 56.0137C182.619 56.4647 182.443 57.0312 182.443 57.7132V62.0032H180.281V53.5882ZM194.67 55.9312H200.263V57.8452H194.67V55.9312ZM209.375 53.5387L207.675 54.7762L206.586 53.1097L209.903 50.7172H211.536V62.0032H209.375V53.5387ZM218.862 50.1892H223.482C224.142 50.1892 224.747 50.3267 225.297 50.6017C225.858 50.8767 226.298 51.2507 226.617 51.7237C226.936 52.1967 227.095 52.7137 227.095 53.2747C227.095 53.8687 226.947 54.3857 226.65 54.8257C226.364 55.2547 225.984 55.5847 225.511 55.8157V55.9477C226.127 56.1677 226.617 56.5197 226.98 57.0037C227.343 57.4767 227.524 58.0487 227.524 58.7197C227.524 59.3687 227.348 59.9462 226.996 60.4522C226.655 60.9472 226.188 61.3322 225.594 61.6072C225.011 61.8712 224.362 62.0032 223.647 62.0032H218.862V50.1892ZM223.317 55.0072C223.801 55.0072 224.186 54.8752 224.472 54.6112C224.769 54.3362 224.917 53.9952 224.917 53.5882C224.917 53.1922 224.774 52.8622 224.488 52.5982C224.213 52.3232 223.845 52.1857 223.383 52.1857H221.089V55.0072H223.317ZM223.564 59.9737C224.103 59.9737 224.521 59.8362 224.818 59.5612C225.126 59.2752 225.28 58.9067 225.28 58.4557C225.28 58.0047 225.126 57.6362 224.818 57.3502C224.51 57.0642 224.07 56.9212 223.498 56.9212H221.089V59.9737H223.564ZM233.604 62.2672C232.735 62.2672 231.959 62.0747 231.277 61.6897C230.595 61.2937 230.062 60.7602 229.677 60.0892C229.303 59.4072 229.116 58.6427 229.116 57.7957C229.116 56.9597 229.303 56.2007 229.677 55.5187C230.062 54.8367 230.595 54.3032 231.277 53.9182C231.959 53.5222 232.735 53.3242 233.604 53.3242C234.462 53.3242 235.232 53.5222 235.914 53.9182C236.596 54.3032 237.124 54.8367 237.498 55.5187C237.883 56.2007 238.075 56.9597 238.075 57.7957C238.075 58.6427 237.883 59.4072 237.498 60.0892C237.124 60.7602 236.596 61.2937 235.914 61.6897C235.232 62.0747 234.462 62.2672 233.604 62.2672ZM233.604 60.2707C234.022 60.2707 234.407 60.1717 234.759 59.9737C235.111 59.7757 235.391 59.4897 235.6 59.1157C235.809 58.7417 235.914 58.3017 235.914 57.7957C235.914 57.3007 235.809 56.8662 235.6 56.4922C235.391 56.1182 235.111 55.8322 234.759 55.6342C234.407 55.4362 234.022 55.3372 233.604 55.3372C233.186 55.3372 232.801 55.4362 232.449 55.6342C232.097 55.8322 231.811 56.1182 231.591 56.4922C231.382 56.8662 231.277 57.3007 231.277 57.7957C231.277 58.2907 231.382 58.7307 231.591 59.1157C231.811 59.4897 232.097 59.7757 232.449 59.9737C232.801 60.1717 233.186 60.2707 233.604 60.2707ZM239.979 50.1892H242.14V62.0032H239.979V50.1892ZM247.715 62.2672C246.692 62.2672 245.862 62.0582 245.224 61.6402C244.597 61.2222 244.157 60.6777 243.904 60.0067L245.834 59.1652C246.01 59.5612 246.258 59.8637 246.577 60.0727C246.907 60.2707 247.286 60.3697 247.715 60.3697C248.111 60.3697 248.441 60.3092 248.705 60.1882C248.969 60.0562 249.101 59.8472 249.101 59.5612C249.101 59.2862 248.98 59.0827 248.738 58.9507C248.496 58.8077 248.133 58.6812 247.649 58.5712L246.659 58.3567C245.977 58.1917 245.411 57.8947 244.96 57.4657C244.509 57.0257 244.283 56.4812 244.283 55.8322C244.283 55.3482 244.426 54.9137 244.712 54.5287C245.009 54.1437 245.405 53.8467 245.9 53.6377C246.406 53.4287 246.962 53.3242 247.567 53.3242C249.305 53.3242 250.465 53.9347 251.048 55.1557L249.2 55.9642C248.87 55.3702 248.342 55.0732 247.616 55.0732C247.242 55.0732 246.945 55.1447 246.725 55.2877C246.505 55.4197 246.395 55.5902 246.395 55.7992C246.395 56.1952 246.769 56.4922 247.517 56.6902L248.755 56.9872C249.591 57.1962 250.218 57.5152 250.636 57.9442C251.065 58.3732 251.279 58.9012 251.279 59.5282C251.279 60.0672 251.12 60.5457 250.801 60.9637C250.493 61.3707 250.064 61.6897 249.514 61.9207C248.975 62.1517 248.375 62.2672 247.715 62.2672ZM255.829 62.2672C254.938 62.2672 254.207 62.0087 253.635 61.4917C253.063 60.9637 252.777 60.2762 252.777 59.4292C252.777 58.8682 252.925 58.3732 253.222 57.9442C253.519 57.5152 253.926 57.1852 254.443 56.9542C254.96 56.7232 255.532 56.6077 256.159 56.6077C257.028 56.6077 257.771 56.7342 258.387 56.9872V56.6242C258.387 56.1622 258.211 55.7882 257.859 55.5022C257.518 55.2162 257.056 55.0732 256.473 55.0732C256.077 55.0732 255.692 55.1667 255.318 55.3537C254.955 55.5297 254.652 55.7662 254.41 56.0632L253.024 54.9742C253.431 54.4462 253.943 54.0392 254.559 53.7532C255.175 53.4672 255.846 53.3242 256.572 53.3242C257.859 53.3242 258.838 53.6212 259.509 54.2152C260.18 54.8092 260.515 55.6782 260.515 56.8222V62.0032H258.387V61.1452H258.255C258.002 61.4752 257.666 61.7447 257.248 61.9537C256.841 62.1627 256.368 62.2672 255.829 62.2672ZM256.341 60.5842C256.968 60.5842 257.463 60.3862 257.826 59.9902C258.2 59.5832 258.387 59.1102 258.387 58.5712C257.826 58.3072 257.237 58.1752 256.621 58.1752C255.499 58.1752 254.938 58.5932 254.938 59.4292C254.938 59.7702 255.059 60.0507 255.301 60.2707C255.543 60.4797 255.89 60.5842 256.341 60.5842ZM271.212 55.9312H276.806V57.8452H271.212V55.9312ZM283.723 50.1892H286.594L289.729 58.4887H289.861L292.996 50.1892H295.883V62.0032H293.672V56.1787L293.804 54.2152H293.672L290.669 62.0032H288.937L285.917 54.2152H285.785L285.917 56.1787V62.0032H283.723V50.1892ZM302.556 62.2672C301.72 62.2672 300.966 62.0747 300.295 61.6897C299.624 61.3047 299.096 60.7767 298.711 60.1057C298.337 59.4237 298.15 58.6592 298.15 57.8122C298.15 57.0092 298.337 56.2667 298.711 55.5847C299.085 54.8917 299.602 54.3417 300.262 53.9347C300.922 53.5277 301.659 53.3242 302.473 53.3242C303.342 53.3242 304.09 53.5112 304.717 53.8852C305.344 54.2592 305.817 54.7707 306.136 55.4197C306.466 56.0687 306.631 56.7892 306.631 57.5812C306.631 57.8342 306.615 58.0762 306.582 58.3072H300.262C300.372 58.9782 300.636 59.4897 301.054 59.8417C301.483 60.1827 301.995 60.3532 302.589 60.3532C303.084 60.3532 303.507 60.2487 303.859 60.0397C304.222 59.8197 304.508 59.5282 304.717 59.1652L306.466 60.0232C305.608 61.5192 304.305 62.2672 302.556 62.2672ZM304.552 56.7727C304.53 56.5087 304.431 56.2502 304.255 55.9972C304.09 55.7332 303.854 55.5187 303.546 55.3537C303.249 55.1777 302.897 55.0897 302.49 55.0897C301.973 55.0897 301.527 55.2437 301.153 55.5517C300.79 55.8487 300.526 56.2557 300.361 56.7727H304.552ZM311.908 62.2672C310.885 62.2672 310.054 62.0582 309.416 61.6402C308.789 61.2222 308.349 60.6777 308.096 60.0067L310.027 59.1652C310.203 59.5612 310.45 59.8637 310.769 60.0727C311.099 60.2707 311.479 60.3697 311.908 60.3697C312.304 60.3697 312.634 60.3092 312.898 60.1882C313.162 60.0562 313.294 59.8472 313.294 59.5612C313.294 59.2862 313.173 59.0827 312.931 58.9507C312.689 58.8077 312.326 58.6812 311.842 58.5712L310.852 58.3567C310.17 58.1917 309.603 57.8947 309.152 57.4657C308.701 57.0257 308.476 56.4812 308.476 55.8322C308.476 55.3482 308.619 54.9137 308.905 54.5287C309.202 54.1437 309.598 53.8467 310.093 53.6377C310.599 53.4287 311.154 53.3242 311.759 53.3242C313.497 53.3242 314.658 53.9347 315.241 55.1557L313.393 55.9642C313.063 55.3702 312.535 55.0732 311.809 55.0732C311.435 55.0732 311.138 55.1447 310.918 55.2877C310.698 55.4197 310.588 55.5902 310.588 55.7992C310.588 56.1952 310.962 56.4922 311.71 56.6902L312.947 56.9872C313.783 57.1962 314.41 57.5152 314.828 57.9442C315.257 58.3732 315.472 58.9012 315.472 59.5282C315.472 60.0672 315.312 60.5457 314.993 60.9637C314.685 61.3707 314.256 61.6897 313.706 61.9207C313.167 62.1517 312.568 62.2672 311.908 62.2672ZM320.022 62.2672C319.131 62.2672 318.399 62.0087 317.827 61.4917C317.255 60.9637 316.969 60.2762 316.969 59.4292C316.969 58.8682 317.118 58.3732 317.415 57.9442C317.712 57.5152 318.119 57.1852 318.636 56.9542C319.153 56.7232 319.725 56.6077 320.352 56.6077C321.221 56.6077 321.963 56.7342 322.579 56.9872V56.6242C322.579 56.1622 322.403 55.7882 322.051 55.5022C321.71 55.2162 321.248 55.0732 320.665 55.0732C320.269 55.0732 319.884 55.1667 319.51 55.3537C319.147 55.5297 318.845 55.7662 318.603 56.0632L317.217 54.9742C317.624 54.4462 318.135 54.0392 318.751 53.7532C319.367 53.4672 320.038 53.3242 320.764 53.3242C322.051 53.3242 323.03 53.6212 323.701 54.2152C324.372 54.8092 324.708 55.6782 324.708 56.8222V62.0032H322.579V61.1452H322.447C322.194 61.4752 321.859 61.7447 321.441 61.9537C321.034 62.1627 320.561 62.2672 320.022 62.2672ZM320.533 60.5842C321.16 60.5842 321.655 60.3862 322.018 59.9902C322.392 59.5832 322.579 59.1102 322.579 58.5712C322.018 58.3072 321.43 58.1752 320.814 58.1752C319.692 58.1752 319.131 58.5932 319.131 59.4292C319.131 59.7702 319.252 60.0507 319.494 60.2707C319.736 60.4797 320.082 60.5842 320.533 60.5842ZM333.798 62.2672C332.907 62.2672 332.176 62.0087 331.604 61.4917C331.032 60.9637 330.746 60.2762 330.746 59.4292C330.746 58.8682 330.894 58.3732 331.191 57.9442C331.488 57.5152 331.895 57.1852 332.412 56.9542C332.929 56.7232 333.501 56.6077 334.128 56.6077C334.997 56.6077 335.74 56.7342 336.356 56.9872V56.6242C336.356 56.1622 336.18 55.7882 335.828 55.5022C335.487 55.2162 335.025 55.0732 334.442 55.0732C334.046 55.0732 333.661 55.1667 333.287 55.3537C332.924 55.5297 332.621 55.7662 332.379 56.0632L330.993 54.9742C331.4 54.4462 331.912 54.0392 332.528 53.7532C333.144 53.4672 333.815 53.3242 334.541 53.3242C335.828 53.3242 336.807 53.6212 337.478 54.2152C338.149 54.8092 338.484 55.6782 338.484 56.8222V62.0032H336.356V61.1452H336.224C335.971 61.4752 335.635 61.7447 335.217 61.9537C334.81 62.1627 334.337 62.2672 333.798 62.2672ZM334.31 60.5842C334.937 60.5842 335.432 60.3862 335.795 59.9902C336.169 59.5832 336.356 59.1102 336.356 58.5712C335.795 58.3072 335.206 58.1752 334.59 58.1752C333.468 58.1752 332.907 58.5932 332.907 59.4292C332.907 59.7702 333.028 60.0507 333.27 60.2707C333.512 60.4797 333.859 60.5842 334.31 60.5842ZM345.489 62.2672C344.917 62.2672 344.406 62.1462 343.955 61.9042C343.515 61.6622 343.185 61.3597 342.965 60.9967H342.833V62.0032H340.803V50.1892H342.965V53.4232L342.833 54.6112H342.965C343.196 54.2482 343.531 53.9457 343.971 53.7037C344.411 53.4507 344.917 53.3242 345.489 53.3242C346.248 53.3242 346.936 53.5167 347.552 53.9017C348.179 54.2757 348.668 54.8037 349.02 55.4857C349.372 56.1677 349.548 56.9377 349.548 57.7957C349.548 58.6647 349.372 59.4402 349.02 60.1222C348.668 60.7932 348.179 61.3212 347.552 61.7062C346.936 62.0802 346.248 62.2672 345.489 62.2672ZM345.11 60.2707C345.517 60.2707 345.896 60.1662 346.248 59.9572C346.6 59.7482 346.881 59.4567 347.09 59.0827C347.299 58.7087 347.403 58.2797 347.403 57.7957C347.403 57.3117 347.299 56.8827 347.09 56.5087C346.881 56.1347 346.6 55.8487 346.248 55.6507C345.896 55.4417 345.517 55.3372 345.11 55.3372C344.714 55.3372 344.34 55.4417 343.988 55.6507C343.636 55.8487 343.355 56.1347 343.146 56.5087C342.937 56.8827 342.833 57.3117 342.833 57.7957C342.833 58.2797 342.937 58.7087 343.146 59.0827C343.355 59.4567 343.636 59.7482 343.988 59.9572C344.34 60.1662 344.714 60.2707 345.11 60.2707ZM352.683 52.6642C352.298 52.6642 351.968 52.5267 351.693 52.2517C351.418 51.9767 351.28 51.6467 351.28 51.2617C351.28 50.8767 351.418 50.5522 351.693 50.2882C351.968 50.0132 352.298 49.8757 352.683 49.8757C353.068 49.8757 353.392 50.0132 353.656 50.2882C353.931 50.5522 354.069 50.8767 354.069 51.2617C354.069 51.6467 353.931 51.9767 353.656 52.2517C353.392 52.5267 353.068 52.6642 352.683 52.6642ZM351.594 53.5882H353.755V62.0032H351.594V53.5882ZM360.215 62.2672C359.379 62.2672 358.625 62.0747 357.954 61.6897C357.283 61.3047 356.755 60.7767 356.37 60.1057C355.996 59.4237 355.809 58.6592 355.809 57.8122C355.809 57.0092 355.996 56.2667 356.37 55.5847C356.744 54.8917 357.261 54.3417 357.921 53.9347C358.581 53.5277 359.318 53.3242 360.132 53.3242C361.001 53.3242 361.749 53.5112 362.376 53.8852C363.003 54.2592 363.476 54.7707 363.795 55.4197C364.125 56.0687 364.29 56.7892 364.29 57.5812C364.29 57.8342 364.274 58.0762 364.241 58.3072H357.921C358.031 58.9782 358.295 59.4897 358.713 59.8417C359.142 60.1827 359.654 60.3532 360.248 60.3532C360.743 60.3532 361.166 60.2487 361.518 60.0397C361.881 59.8197 362.167 59.5282 362.376 59.1652L364.125 60.0232C363.267 61.5192 361.964 62.2672 360.215 62.2672ZM362.211 56.7727C362.189 56.5087 362.09 56.2502 361.914 55.9972C361.749 55.7332 361.513 55.5187 361.205 55.3537C360.908 55.1777 360.556 55.0897 360.149 55.0897C359.632 55.0897 359.186 55.2437 358.812 55.5517C358.449 55.8487 358.185 56.2557 358.02 56.7727H362.211ZM366.285 53.5882H368.315V54.7102H368.447C368.667 54.3032 369.002 53.9787 369.453 53.7367C369.904 53.4837 370.388 53.3572 370.905 53.3572C371.279 53.3572 371.543 53.3902 371.697 53.4562V55.5682C371.422 55.4582 371.081 55.4032 370.674 55.4032C369.992 55.4032 369.448 55.6232 369.041 56.0632C368.645 56.5032 368.447 57.1027 368.447 57.8617V62.0032H366.285V53.5882ZM377.076 62.1352C376.658 62.1352 376.273 62.0747 375.921 61.9537C375.569 61.8217 375.283 61.6457 375.063 61.4257C374.546 60.9307 374.288 60.2267 374.288 59.3137V55.4362H372.819V53.5882H374.288V51.2122H376.449V53.5882H378.512V55.4362H376.449V58.9177C376.449 59.3467 376.543 59.6547 376.73 59.8417C376.884 60.0177 377.148 60.1057 377.522 60.1057C377.731 60.1057 377.901 60.0782 378.033 60.0232C378.176 59.9682 378.358 59.8747 378.578 59.7427V61.8547C378.105 62.0417 377.604 62.1352 377.076 62.1352ZM383.047 62.2672C382.156 62.2672 381.424 62.0087 380.852 61.4917C380.28 60.9637 379.994 60.2762 379.994 59.4292C379.994 58.8682 380.143 58.3732 380.44 57.9442C380.737 57.5152 381.144 57.1852 381.661 56.9542C382.178 56.7232 382.75 56.6077 383.377 56.6077C384.246 56.6077 384.988 56.7342 385.604 56.9872V56.6242C385.604 56.1622 385.428 55.7882 385.076 55.5022C384.735 55.2162 384.273 55.0732 383.69 55.0732C383.294 55.0732 382.909 55.1667 382.535 55.3537C382.172 55.5297 381.87 55.7662 381.628 56.0632L380.242 54.9742C380.649 54.4462 381.16 54.0392 381.776 53.7532C382.392 53.4672 383.063 53.3242 383.789 53.3242C385.076 53.3242 386.055 53.6212 386.726 54.2152C387.397 54.8092 387.733 55.6782 387.733 56.8222V62.0032H385.604V61.1452H385.472C385.219 61.4752 384.884 61.7447 384.466 61.9537C384.059 62.1627 383.586 62.2672 383.047 62.2672ZM383.558 60.5842C384.185 60.5842 384.68 60.3862 385.043 59.9902C385.417 59.5832 385.604 59.1102 385.604 58.5712C385.043 58.3072 384.455 58.1752 383.839 58.1752C382.717 58.1752 382.156 58.5932 382.156 59.4292C382.156 59.7702 382.277 60.0507 382.519 60.2707C382.761 60.4797 383.107 60.5842 383.558 60.5842ZM52.1014 83.2672C51.3424 83.2672 50.6494 83.0802 50.0224 82.7062C49.4064 82.3212 48.9169 81.7932 48.5539 81.1222C48.2019 80.4402 48.0259 79.6647 48.0259 78.7957C48.0259 77.9377 48.2019 77.1677 48.5539 76.4857C48.9169 75.8037 49.4064 75.2757 50.0224 74.9017C50.6494 74.5167 51.3424 74.3242 52.1014 74.3242C52.6734 74.3242 53.1794 74.4507 53.6194 74.7037C54.0594 74.9457 54.3949 75.2482 54.6259 75.6112H54.7579L54.6259 74.4232V71.1892H56.7709V83.0032H54.7579V81.9967H54.6259C54.4059 82.3597 54.0704 82.6622 53.6194 82.9042C53.1794 83.1462 52.6734 83.2672 52.1014 83.2672ZM52.4644 81.2707C52.8714 81.2707 53.2509 81.1662 53.6029 80.9572C53.9549 80.7482 54.2354 80.4567 54.4444 80.0827C54.6534 79.7087 54.7579 79.2797 54.7579 78.7957C54.7579 78.3117 54.6534 77.8827 54.4444 77.5087C54.2354 77.1347 53.9549 76.8487 53.6029 76.6507C53.2509 76.4417 52.8714 76.3372 52.4644 76.3372C52.0684 76.3372 51.6944 76.4417 51.3424 76.6507C50.9904 76.8487 50.7099 77.1347 50.5009 77.5087C50.2919 77.8827 50.1874 78.3117 50.1874 78.7957C50.1874 79.2797 50.2919 79.7087 50.5009 80.0827C50.7099 80.4567 50.9904 80.7482 51.3424 80.9572C51.6944 81.1662 52.0684 81.2707 52.4644 81.2707ZM63.0901 83.2672C62.2541 83.2672 61.5006 83.0747 60.8296 82.6897C60.1586 82.3047 59.6306 81.7767 59.2456 81.1057C58.8716 80.4237 58.6846 79.6592 58.6846 78.8122C58.6846 78.0092 58.8716 77.2667 59.2456 76.5847C59.6196 75.8917 60.1366 75.3417 60.7966 74.9347C61.4566 74.5277 62.1936 74.3242 63.0076 74.3242C63.8766 74.3242 64.6246 74.5112 65.2516 74.8852C65.8786 75.2592 66.3516 75.7707 66.6706 76.4197C67.0006 77.0687 67.1656 77.7892 67.1656 78.5812C67.1656 78.8342 67.1491 79.0762 67.1161 79.3072H60.7966C60.9066 79.9782 61.1706 80.4897 61.5886 80.8417C62.0176 81.1827 62.5291 81.3532 63.1231 81.3532C63.6181 81.3532 64.0416 81.2487 64.3936 81.0397C64.7566 80.8197 65.0426 80.5282 65.2516 80.1652L67.0006 81.0232C66.1426 82.5192 64.8391 83.2672 63.0901 83.2672ZM65.0866 77.7727C65.0646 77.5087 64.9656 77.2502 64.7896 76.9972C64.6246 76.7332 64.3881 76.5187 64.0801 76.3537C63.7831 76.1777 63.4311 76.0897 63.0241 76.0897C62.5071 76.0897 62.0616 76.2437 61.6876 76.5517C61.3246 76.8487 61.0606 77.2557 60.8956 77.7727H65.0866ZM76.5588 83.2672C75.5358 83.2672 74.7053 83.0582 74.0673 82.6402C73.4403 82.2222 73.0003 81.6777 72.7473 81.0067L74.6778 80.1652C74.8538 80.5612 75.1013 80.8637 75.4203 81.0727C75.7503 81.2707 76.1298 81.3697 76.5588 81.3697C76.9548 81.3697 77.2848 81.3092 77.5488 81.1882C77.8128 81.0562 77.9448 80.8472 77.9448 80.5612C77.9448 80.2862 77.8238 80.0827 77.5818 79.9507C77.3398 79.8077 76.9768 79.6812 76.4928 79.5712L75.5028 79.3567C74.8208 79.1917 74.2543 78.8947 73.8033 78.4657C73.3523 78.0257 73.1268 77.4812 73.1268 76.8322C73.1268 76.3482 73.2698 75.9137 73.5558 75.5287C73.8528 75.1437 74.2488 74.8467 74.7438 74.6377C75.2498 74.4287 75.8053 74.3242 76.4103 74.3242C78.1483 74.3242 79.3088 74.9347 79.8918 76.1557L78.0438 76.9642C77.7138 76.3702 77.1858 76.0732 76.4598 76.0732C76.0858 76.0732 75.7888 76.1447 75.5688 76.2877C75.3488 76.4197 75.2388 76.5902 75.2388 76.7992C75.2388 77.1952 75.6128 77.4922 76.3608 77.6902L77.5983 77.9872C78.4343 78.1962 79.0613 78.5152 79.4793 78.9442C79.9083 79.3732 80.1228 79.9012 80.1228 80.5282C80.1228 81.0672 79.9633 81.5457 79.6443 81.9637C79.3363 82.3707 78.9073 82.6897 78.3573 82.9207C77.8183 83.1517 77.2188 83.2672 76.5588 83.2672ZM81.9378 74.5882H83.9673V75.6442H84.0993C84.3523 75.2372 84.7098 74.9182 85.1718 74.6872C85.6338 74.4452 86.1343 74.3242 86.6733 74.3242C87.6853 74.3242 88.4553 74.6322 88.9833 75.2482C89.5113 75.8642 89.7753 76.7057 89.7753 77.7727V83.0032H87.6138V78.0367C87.6138 77.4977 87.4763 77.0797 87.2013 76.7827C86.9263 76.4857 86.5413 76.3372 86.0463 76.3372C85.4633 76.3372 84.9903 76.5627 84.6273 77.0137C84.2753 77.4647 84.0993 78.0312 84.0993 78.7132V83.0032H81.9378V74.5882ZM94.6387 83.2672C93.7477 83.2672 93.0162 83.0087 92.4442 82.4917C91.8722 81.9637 91.5862 81.2762 91.5862 80.4292C91.5862 79.8682 91.7347 79.3732 92.0317 78.9442C92.3287 78.5152 92.7357 78.1852 93.2527 77.9542C93.7697 77.7232 94.3417 77.6077 94.9687 77.6077C95.8377 77.6077 96.5802 77.7342 97.1962 77.9872V77.6242C97.1962 77.1622 97.0202 76.7882 96.6682 76.5022C96.3272 76.2162 95.8652 76.0732 95.2822 76.0732C94.8862 76.0732 94.5012 76.1667 94.1272 76.3537C93.7642 76.5297 93.4617 76.7662 93.2197 77.0632L91.8337 75.9742C92.2407 75.4462 92.7522 75.0392 93.3682 74.7532C93.9842 74.4672 94.6552 74.3242 95.3812 74.3242C96.6682 74.3242 97.6472 74.6212 98.3182 75.2152C98.9892 75.8092 99.3247 76.6782 99.3247 77.8222V83.0032H97.1962V82.1452H97.0642C96.8112 82.4752 96.4757 82.7447 96.0577 82.9537C95.6507 83.1627 95.1777 83.2672 94.6387 83.2672ZM95.1502 81.5842C95.7772 81.5842 96.2722 81.3862 96.6352 80.9902C97.0092 80.5832 97.1962 80.1102 97.1962 79.5712C96.6352 79.3072 96.0467 79.1752 95.4307 79.1752C94.3087 79.1752 93.7477 79.5932 93.7477 80.4292C93.7477 80.7702 93.8687 81.0507 94.1107 81.2707C94.3527 81.4797 94.6992 81.5842 95.1502 81.5842ZM105.523 83.2672C104.676 83.2672 103.917 83.0802 103.246 82.7062C102.575 82.3212 102.047 81.7877 101.662 81.1057C101.288 80.4237 101.101 79.6537 101.101 78.7957C101.101 77.9377 101.288 77.1732 101.662 76.5022C102.047 75.8202 102.575 75.2867 103.246 74.9017C103.917 74.5167 104.676 74.3242 105.523 74.3242C106.458 74.3242 107.261 74.5277 107.932 74.9347C108.603 75.3307 109.087 75.8972 109.384 76.6342L107.404 77.4592C107.052 76.7112 106.425 76.3372 105.523 76.3372C104.863 76.3372 104.319 76.5627 103.89 77.0137C103.472 77.4647 103.263 78.0587 103.263 78.7957C103.263 79.5437 103.472 80.1432 103.89 80.5942C104.319 81.0452 104.863 81.2707 105.523 81.2707C106.436 81.2707 107.096 80.8747 107.503 80.0827L109.467 80.9407C109.104 81.6777 108.587 82.2497 107.916 82.6567C107.245 83.0637 106.447 83.2672 105.523 83.2672ZM111.352 71.1892H113.513V77.6242H113.629L116.648 74.5882H119.305V74.7202L116.12 77.8387L119.453 82.8712V83.0032H116.896L114.602 79.3237L113.513 80.3962V83.0032H111.352V71.1892ZM123.938 83.2672C122.915 83.2672 122.085 83.0582 121.447 82.6402C120.82 82.2222 120.38 81.6777 120.127 81.0067L122.057 80.1652C122.233 80.5612 122.481 80.8637 122.8 81.0727C123.13 81.2707 123.509 81.3697 123.938 81.3697C124.334 81.3697 124.664 81.3092 124.928 81.1882C125.192 81.0562 125.324 80.8472 125.324 80.5612C125.324 80.2862 125.203 80.0827 124.961 79.9507C124.719 79.8077 124.356 79.6812 123.872 79.5712L122.882 79.3567C122.2 79.1917 121.634 78.8947 121.183 78.4657C120.732 78.0257 120.506 77.4812 120.506 76.8322C120.506 76.3482 120.649 75.9137 120.935 75.5287C121.232 75.1437 121.628 74.8467 122.123 74.6377C122.629 74.4287 123.185 74.3242 123.79 74.3242C125.528 74.3242 126.688 74.9347 127.271 76.1557L125.423 76.9642C125.093 76.3702 124.565 76.0732 123.839 76.0732C123.465 76.0732 123.168 76.1447 122.948 76.2877C122.728 76.4197 122.618 76.5902 122.618 76.7992C122.618 77.1952 122.992 77.4922 123.74 77.6902L124.978 77.9872C125.814 78.1962 126.441 78.5152 126.859 78.9442C127.288 79.3732 127.502 79.9012 127.502 80.5282C127.502 81.0672 127.343 81.5457 127.024 81.9637C126.716 82.3707 126.287 82.6897 125.737 82.9207C125.198 83.1517 124.598 83.2672 123.938 83.2672ZM137.776 76.9312H143.369V78.8452H137.776V76.9312ZM153.103 71.1892H155.661L160.099 83.0032H157.641L156.651 80.1817H152.13L151.14 83.0032H148.681L153.103 71.1892ZM155.925 78.1357L154.885 75.1657L154.456 73.7467H154.324L153.895 75.1657L152.839 78.1357H155.925ZM165.446 83.2672C164.599 83.2672 163.84 83.0802 163.169 82.7062C162.498 82.3212 161.97 81.7877 161.585 81.1057C161.211 80.4237 161.024 79.6537 161.024 78.7957C161.024 77.9377 161.211 77.1732 161.585 76.5022C161.97 75.8202 162.498 75.2867 163.169 74.9017C163.84 74.5167 164.599 74.3242 165.446 74.3242C166.381 74.3242 167.184 74.5277 167.855 74.9347C168.526 75.3307 169.01 75.8972 169.307 76.6342L167.327 77.4592C166.975 76.7112 166.348 76.3372 165.446 76.3372C164.786 76.3372 164.241 76.5627 163.812 77.0137C163.394 77.4647 163.185 78.0587 163.185 78.7957C163.185 79.5437 163.394 80.1432 163.812 80.5942C164.241 81.0452 164.786 81.2707 165.446 81.2707C166.359 81.2707 167.019 80.8747 167.426 80.0827L169.389 80.9407C169.026 81.6777 168.509 82.2497 167.838 82.6567C167.167 83.0637 166.37 83.2672 165.446 83.2672ZM175.154 83.2672C174.307 83.2672 173.548 83.0802 172.877 82.7062C172.206 82.3212 171.678 81.7877 171.293 81.1057C170.919 80.4237 170.732 79.6537 170.732 78.7957C170.732 77.9377 170.919 77.1732 171.293 76.5022C171.678 75.8202 172.206 75.2867 172.877 74.9017C173.548 74.5167 174.307 74.3242 175.154 74.3242C176.089 74.3242 176.892 74.5277 177.563 74.9347C178.234 75.3307 178.718 75.8972 179.015 76.6342L177.035 77.4592C176.683 76.7112 176.056 76.3372 175.154 76.3372C174.494 76.3372 173.949 76.5627 173.52 77.0137C173.102 77.4647 172.893 78.0587 172.893 78.7957C172.893 79.5437 173.102 80.1432 173.52 80.5942C173.949 81.0452 174.494 81.2707 175.154 81.2707C176.067 81.2707 176.727 80.8747 177.134 80.0827L179.097 80.9407C178.734 81.6777 178.217 82.2497 177.546 82.6567C176.875 83.0637 176.078 83.2672 175.154 83.2672ZM184.845 83.2672C184.009 83.2672 183.256 83.0747 182.585 82.6897C181.914 82.3047 181.386 81.7767 181.001 81.1057C180.627 80.4237 180.44 79.6592 180.44 78.8122C180.44 78.0092 180.627 77.2667 181.001 76.5847C181.375 75.8917 181.892 75.3417 182.552 74.9347C183.212 74.5277 183.949 74.3242 184.763 74.3242C185.632 74.3242 186.38 74.5112 187.007 74.8852C187.634 75.2592 188.107 75.7707 188.426 76.4197C188.756 77.0687 188.921 77.7892 188.921 78.5812C188.921 78.8342 188.904 79.0762 188.871 79.3072H182.552C182.662 79.9782 182.926 80.4897 183.344 80.8417C183.773 81.1827 184.284 81.3532 184.878 81.3532C185.373 81.3532 185.797 81.2487 186.149 81.0397C186.512 80.8197 186.798 80.5282 187.007 80.1652L188.756 81.0232C187.898 82.5192 186.594 83.2672 184.845 83.2672ZM186.842 77.7727C186.82 77.5087 186.721 77.2502 186.545 76.9972C186.38 76.7332 186.143 76.5187 185.835 76.3537C185.538 76.1777 185.186 76.0897 184.779 76.0897C184.262 76.0897 183.817 76.2437 183.443 76.5517C183.08 76.8487 182.816 77.2557 182.651 77.7727H186.842ZM194.197 83.2672C193.174 83.2672 192.344 83.0582 191.706 82.6402C191.079 82.2222 190.639 81.6777 190.386 81.0067L192.316 80.1652C192.492 80.5612 192.74 80.8637 193.059 81.0727C193.389 81.2707 193.768 81.3697 194.197 81.3697C194.593 81.3697 194.923 81.3092 195.187 81.1882C195.451 81.0562 195.583 80.8472 195.583 80.5612C195.583 80.2862 195.462 80.0827 195.22 79.9507C194.978 79.8077 194.615 79.6812 194.131 79.5712L193.141 79.3567C192.459 79.1917 191.893 78.8947 191.442 78.4657C190.991 78.0257 190.765 77.4812 190.765 76.8322C190.765 76.3482 190.908 75.9137 191.194 75.5287C191.491 75.1437 191.887 74.8467 192.382 74.6377C192.888 74.4287 193.444 74.3242 194.049 74.3242C195.787 74.3242 196.947 74.9347 197.53 76.1557L195.682 76.9642C195.352 76.3702 194.824 76.0732 194.098 76.0732C193.724 76.0732 193.427 76.1447 193.207 76.2877C192.987 76.4197 192.877 76.5902 192.877 76.7992C192.877 77.1952 193.251 77.4922 193.999 77.6902L195.237 77.9872C196.073 78.1962 196.7 78.5152 197.118 78.9442C197.547 79.3732 197.761 79.9012 197.761 80.5282C197.761 81.0672 197.602 81.5457 197.283 81.9637C196.975 82.3707 196.546 82.6897 195.996 82.9207C195.457 83.1517 194.857 83.2672 194.197 83.2672ZM203.764 83.2672C202.895 83.2672 202.119 83.0747 201.437 82.6897C200.755 82.2937 200.222 81.7602 199.837 81.0892C199.463 80.4072 199.276 79.6427 199.276 78.7957C199.276 77.9597 199.463 77.2007 199.837 76.5187C200.222 75.8367 200.755 75.3032 201.437 74.9182C202.119 74.5222 202.895 74.3242 203.764 74.3242C204.622 74.3242 205.392 74.5222 206.074 74.9182C206.756 75.3032 207.284 75.8367 207.658 76.5187C208.043 77.2007 208.235 77.9597 208.235 78.7957C208.235 79.6427 208.043 80.4072 207.658 81.0892C207.284 81.7602 206.756 82.2937 206.074 82.6897C205.392 83.0747 204.622 83.2672 203.764 83.2672ZM203.764 81.2707C204.182 81.2707 204.567 81.1717 204.919 80.9737C205.271 80.7757 205.551 80.4897 205.76 80.1157C205.969 79.7417 206.074 79.3017 206.074 78.7957C206.074 78.3007 205.969 77.8662 205.76 77.4922C205.551 77.1182 205.271 76.8322 204.919 76.6342C204.567 76.4362 204.182 76.3372 203.764 76.3372C203.346 76.3372 202.961 76.4362 202.609 76.6342C202.257 76.8322 201.971 77.1182 201.751 77.4922C201.542 77.8662 201.437 78.3007 201.437 78.7957C201.437 79.2907 201.542 79.7307 201.751 80.1157C201.971 80.4897 202.257 80.7757 202.609 80.9737C202.961 81.1717 203.346 81.2707 203.764 81.2707ZM216.99 83.2672C216.099 83.2672 215.368 83.0087 214.796 82.4917C214.224 81.9637 213.938 81.2762 213.938 80.4292C213.938 79.8682 214.086 79.3732 214.383 78.9442C214.68 78.5152 215.087 78.1852 215.604 77.9542C216.121 77.7232 216.693 77.6077 217.32 77.6077C218.189 77.6077 218.932 77.7342 219.548 77.9872V77.6242C219.548 77.1622 219.372 76.7882 219.02 76.5022C218.679 76.2162 218.217 76.0732 217.634 76.0732C217.238 76.0732 216.853 76.1667 216.479 76.3537C216.116 76.5297 215.813 76.7662 215.571 77.0632L214.185 75.9742C214.592 75.4462 215.104 75.0392 215.72 74.7532C216.336 74.4672 217.007 74.3242 217.733 74.3242C219.02 74.3242 219.999 74.6212 220.67 75.2152C221.341 75.8092 221.676 76.6782 221.676 77.8222V83.0032H219.548V82.1452H219.416C219.163 82.4752 218.827 82.7447 218.409 82.9537C218.002 83.1627 217.529 83.2672 216.99 83.2672ZM217.502 81.5842C218.129 81.5842 218.624 81.3862 218.987 80.9902C219.361 80.5832 219.548 80.1102 219.548 79.5712C218.987 79.3072 218.398 79.1752 217.782 79.1752C216.66 79.1752 216.099 79.5932 216.099 80.4292C216.099 80.7702 216.22 81.0507 216.462 81.2707C216.704 81.4797 217.051 81.5842 217.502 81.5842ZM232.152 83.2672C231.305 83.2672 230.546 83.0802 229.875 82.7062C229.204 82.3212 228.676 81.7877 228.291 81.1057C227.917 80.4237 227.73 79.6537 227.73 78.7957C227.73 77.9377 227.917 77.1732 228.291 76.5022C228.676 75.8202 229.204 75.2867 229.875 74.9017C230.546 74.5167 231.305 74.3242 232.152 74.3242C233.087 74.3242 233.89 74.5277 234.561 74.9347C235.232 75.3307 235.716 75.8972 236.013 76.6342L234.033 77.4592C233.681 76.7112 233.054 76.3372 232.152 76.3372C231.492 76.3372 230.948 76.5627 230.519 77.0137C230.101 77.4647 229.892 78.0587 229.892 78.7957C229.892 79.5437 230.101 80.1432 230.519 80.5942C230.948 81.0452 231.492 81.2707 232.152 81.2707C233.065 81.2707 233.725 80.8747 234.132 80.0827L236.096 80.9407C235.733 81.6777 235.216 82.2497 234.545 82.6567C233.874 83.0637 233.076 83.2672 232.152 83.2672ZM241.926 83.2672C241.057 83.2672 240.282 83.0747 239.6 82.6897C238.918 82.2937 238.384 81.7602 237.999 81.0892C237.625 80.4072 237.438 79.6427 237.438 78.7957C237.438 77.9597 237.625 77.2007 237.999 76.5187C238.384 75.8367 238.918 75.3032 239.6 74.9182C240.282 74.5222 241.057 74.3242 241.926 74.3242C242.784 74.3242 243.554 74.5222 244.236 74.9182C244.918 75.3032 245.446 75.8367 245.82 76.5187C246.205 77.2007 246.398 77.9597 246.398 78.7957C246.398 79.6427 246.205 80.4072 245.82 81.0892C245.446 81.7602 244.918 82.2937 244.236 82.6897C243.554 83.0747 242.784 83.2672 241.926 83.2672ZM241.926 81.2707C242.344 81.2707 242.729 81.1717 243.081 80.9737C243.433 80.7757 243.714 80.4897 243.923 80.1157C244.132 79.7417 244.236 79.3017 244.236 78.7957C244.236 78.3007 244.132 77.8662 243.923 77.4922C243.714 77.1182 243.433 76.8322 243.081 76.6342C242.729 76.4362 242.344 76.3372 241.926 76.3372C241.508 76.3372 241.123 76.4362 240.771 76.6342C240.419 76.8322 240.133 77.1182 239.913 77.4922C239.704 77.8662 239.6 78.3007 239.6 78.7957C239.6 79.2907 239.704 79.7307 239.913 80.1157C240.133 80.4897 240.419 80.7757 240.771 80.9737C241.123 81.1717 241.508 81.2707 241.926 81.2707ZM248.22 74.5882H250.25V75.6442H250.382C250.635 75.2372 250.992 74.9182 251.454 74.6872C251.916 74.4452 252.417 74.3242 252.956 74.3242C253.968 74.3242 254.738 74.6322 255.266 75.2482C255.794 75.8642 256.058 76.7057 256.058 77.7727V83.0032H253.896V78.0367C253.896 77.4977 253.759 77.0797 253.484 76.7827C253.209 76.4857 252.824 76.3372 252.329 76.3372C251.746 76.3372 251.273 76.5627 250.91 77.0137C250.558 77.4647 250.382 78.0312 250.382 78.7132V83.0032H248.22V74.5882ZM261.672 83.1352C261.254 83.1352 260.869 83.0747 260.517 82.9537C260.165 82.8217 259.879 82.6457 259.659 82.4257C259.142 81.9307 258.883 81.2267 258.883 80.3137V76.4362H257.415V74.5882H258.883V72.2122H261.045V74.5882H263.107V76.4362H261.045V79.9177C261.045 80.3467 261.138 80.6547 261.325 80.8417C261.479 81.0177 261.743 81.1057 262.117 81.1057C262.326 81.1057 262.497 81.0782 262.629 81.0232C262.772 80.9682 262.953 80.8747 263.173 80.7427V82.8547C262.7 83.0417 262.2 83.1352 261.672 83.1352ZM268.889 83.2672C268.053 83.2672 267.299 83.0747 266.628 82.6897C265.957 82.3047 265.429 81.7767 265.044 81.1057C264.67 80.4237 264.483 79.6592 264.483 78.8122C264.483 78.0092 264.67 77.2667 265.044 76.5847C265.418 75.8917 265.935 75.3417 266.595 74.9347C267.255 74.5277 267.992 74.3242 268.806 74.3242C269.675 74.3242 270.423 74.5112 271.05 74.8852C271.677 75.2592 272.15 75.7707 272.469 76.4197C272.799 77.0687 272.964 77.7892 272.964 78.5812C272.964 78.8342 272.948 79.0762 272.915 79.3072H266.595C266.705 79.9782 266.969 80.4897 267.387 80.8417C267.816 81.1827 268.328 81.3532 268.922 81.3532C269.417 81.3532 269.84 81.2487 270.192 81.0397C270.555 80.8197 270.841 80.5282 271.05 80.1652L272.799 81.0232C271.941 82.5192 270.638 83.2672 268.889 83.2672ZM270.885 77.7727C270.863 77.5087 270.764 77.2502 270.588 76.9972C270.423 76.7332 270.187 76.5187 269.879 76.3537C269.582 76.1777 269.23 76.0897 268.823 76.0897C268.306 76.0897 267.86 76.2437 267.486 76.5517C267.123 76.8487 266.859 77.2557 266.694 77.7727H270.885ZM274.959 74.5882H276.989V75.6442H277.121C277.374 75.2372 277.731 74.9182 278.193 74.6872C278.655 74.4452 279.156 74.3242 279.695 74.3242C280.707 74.3242 281.477 74.6322 282.005 75.2482C282.533 75.8642 282.797 76.7057 282.797 77.7727V83.0032H280.635V78.0367C280.635 77.4977 280.498 77.0797 280.223 76.7827C279.948 76.4857 279.563 76.3372 279.068 76.3372C278.485 76.3372 278.012 76.5627 277.649 77.0137C277.297 77.4647 277.121 78.0312 277.121 78.7132V83.0032H274.959V74.5882ZM286.388 73.6642C286.003 73.6642 285.673 73.5267 285.398 73.2517C285.123 72.9767 284.985 72.6467 284.985 72.2617C284.985 71.8767 285.123 71.5522 285.398 71.2882C285.673 71.0132 286.003 70.8757 286.388 70.8757C286.773 70.8757 287.097 71.0132 287.361 71.2882C287.636 71.5522 287.774 71.8767 287.774 72.2617C287.774 72.6467 287.636 72.9767 287.361 73.2517C287.097 73.5267 286.773 73.6642 286.388 73.6642ZM285.299 74.5882H287.46V83.0032H285.299V74.5882ZM293.59 83.2672C292.831 83.2672 292.138 83.0802 291.511 82.7062C290.895 82.3212 290.405 81.7932 290.042 81.1222C289.69 80.4402 289.514 79.6647 289.514 78.7957C289.514 77.9377 289.69 77.1677 290.042 76.4857C290.405 75.8037 290.895 75.2757 291.511 74.9017C292.138 74.5167 292.831 74.3242 293.59 74.3242C294.162 74.3242 294.668 74.4507 295.108 74.7037C295.548 74.9457 295.883 75.2482 296.114 75.6112H296.246L296.114 74.4232V71.1892H298.259V83.0032H296.246V81.9967H296.114C295.894 82.3597 295.559 82.6622 295.108 82.9042C294.668 83.1462 294.162 83.2672 293.59 83.2672ZM293.953 81.2707C294.36 81.2707 294.739 81.1662 295.091 80.9572C295.443 80.7482 295.724 80.4567 295.933 80.0827C296.142 79.7087 296.246 79.2797 296.246 78.7957C296.246 78.3117 296.142 77.8827 295.933 77.5087C295.724 77.1347 295.443 76.8487 295.091 76.6507C294.739 76.4417 294.36 76.3372 293.953 76.3372C293.557 76.3372 293.183 76.4417 292.831 76.6507C292.479 76.8487 292.198 77.1347 291.989 77.5087C291.78 77.8827 291.676 78.3117 291.676 78.7957C291.676 79.2797 291.78 79.7087 291.989 80.0827C292.198 80.4567 292.479 80.7482 292.831 80.9572C293.183 81.1662 293.557 81.2707 293.953 81.2707ZM304.661 83.2672C303.792 83.2672 303.017 83.0747 302.335 82.6897C301.653 82.2937 301.119 81.7602 300.734 81.0892C300.36 80.4072 300.173 79.6427 300.173 78.7957C300.173 77.9597 300.36 77.2007 300.734 76.5187C301.119 75.8367 301.653 75.3032 302.335 74.9182C303.017 74.5222 303.792 74.3242 304.661 74.3242C305.519 74.3242 306.289 74.5222 306.971 74.9182C307.653 75.3032 308.181 75.8367 308.555 76.5187C308.94 77.2007 309.133 77.9597 309.133 78.7957C309.133 79.6427 308.94 80.4072 308.555 81.0892C308.181 81.7602 307.653 82.2937 306.971 82.6897C306.289 83.0747 305.519 83.2672 304.661 83.2672ZM304.661 81.2707C305.079 81.2707 305.464 81.1717 305.816 80.9737C306.168 80.7757 306.449 80.4897 306.658 80.1157C306.867 79.7417 306.971 79.3017 306.971 78.7957C306.971 78.3007 306.867 77.8662 306.658 77.4922C306.449 77.1182 306.168 76.8322 305.816 76.6342C305.464 76.4362 305.079 76.3372 304.661 76.3372C304.243 76.3372 303.858 76.4362 303.506 76.6342C303.154 76.8322 302.868 77.1182 302.648 77.4922C302.439 77.8662 302.335 78.3007 302.335 78.7957C302.335 79.2907 302.439 79.7307 302.648 80.1157C302.868 80.4897 303.154 80.7757 303.506 80.9737C303.858 81.1717 304.243 81.2707 304.661 81.2707ZM319.257 83.2672C318.421 83.2672 317.668 83.0747 316.997 82.6897C316.326 82.3047 315.798 81.7767 315.413 81.1057C315.039 80.4237 314.852 79.6592 314.852 78.8122C314.852 78.0092 315.039 77.2667 315.413 76.5847C315.787 75.8917 316.304 75.3417 316.964 74.9347C317.624 74.5277 318.361 74.3242 319.175 74.3242C320.044 74.3242 320.792 74.5112 321.419 74.8852C322.046 75.2592 322.519 75.7707 322.838 76.4197C323.168 77.0687 323.333 77.7892 323.333 78.5812C323.333 78.8342 323.316 79.0762 323.283 79.3072H316.964C317.074 79.9782 317.338 80.4897 317.756 80.8417C318.185 81.1827 318.696 81.3532 319.29 81.3532C319.785 81.3532 320.209 81.2487 320.561 81.0397C320.924 80.8197 321.21 80.5282 321.419 80.1652L323.168 81.0232C322.31 82.5192 321.006 83.2672 319.257 83.2672ZM321.254 77.7727C321.232 77.5087 321.133 77.2502 320.957 76.9972C320.792 76.7332 320.555 76.5187 320.247 76.3537C319.95 76.1777 319.598 76.0897 319.191 76.0897C318.674 76.0897 318.229 76.2437 317.855 76.5517C317.492 76.8487 317.228 77.2557 317.063 77.7727H321.254ZM327.246 78.7297L324.342 74.5882H326.899L328.5 76.9972H328.599L330.1 74.5882H332.74L329.787 78.7297L332.74 83.0032H330.183L328.566 80.5447H328.467L326.883 83.0032H324.325L327.246 78.7297ZM338.061 83.2672C337.214 83.2672 336.455 83.0802 335.784 82.7062C335.113 82.3212 334.585 81.7877 334.2 81.1057C333.826 80.4237 333.639 79.6537 333.639 78.7957C333.639 77.9377 333.826 77.1732 334.2 76.5022C334.585 75.8202 335.113 75.2867 335.784 74.9017C336.455 74.5167 337.214 74.3242 338.061 74.3242C338.996 74.3242 339.799 74.5277 340.47 74.9347C341.141 75.3307 341.625 75.8972 341.922 76.6342L339.942 77.4592C339.59 76.7112 338.963 76.3372 338.061 76.3372C337.401 76.3372 336.857 76.5627 336.428 77.0137C336.01 77.4647 335.801 78.0587 335.801 78.7957C335.801 79.5437 336.01 80.1432 336.428 80.5942C336.857 81.0452 337.401 81.2707 338.061 81.2707C338.974 81.2707 339.634 80.8747 340.041 80.0827L342.005 80.9407C341.642 81.6777 341.125 82.2497 340.454 82.6567C339.783 83.0637 338.985 83.2672 338.061 83.2672ZM343.889 71.1892H346.051V83.0032H343.889V71.1892ZM351.542 83.2672C350.53 83.2672 349.76 82.9537 349.232 82.3267C348.704 81.6997 348.44 80.8252 348.44 79.7032V74.5882H350.601V79.4392C350.601 80.0112 350.739 80.4622 351.014 80.7922C351.289 81.1112 351.652 81.2707 352.103 81.2707C352.719 81.2707 353.208 81.0452 353.571 80.5942C353.934 80.1432 354.116 79.5712 354.116 78.8782V74.5882H356.277V83.0032H354.248V81.9472H354.116C353.863 82.3542 353.505 82.6787 353.043 82.9207C352.592 83.1517 352.092 83.2672 351.542 83.2672ZM361.834 83.2672C360.811 83.2672 359.98 83.0582 359.342 82.6402C358.715 82.2222 358.275 81.6777 358.022 81.0067L359.953 80.1652C360.129 80.5612 360.376 80.8637 360.695 81.0727C361.025 81.2707 361.405 81.3697 361.834 81.3697C362.23 81.3697 362.56 81.3092 362.824 81.1882C363.088 81.0562 363.22 80.8472 363.22 80.5612C363.22 80.2862 363.099 80.0827 362.857 79.9507C362.615 79.8077 362.252 79.6812 361.768 79.5712L360.778 79.3567C360.096 79.1917 359.529 78.8947 359.078 78.4657C358.627 78.0257 358.402 77.4812 358.402 76.8322C358.402 76.3482 358.545 75.9137 358.831 75.5287C359.128 75.1437 359.524 74.8467 360.019 74.6377C360.525 74.4287 361.08 74.3242 361.685 74.3242C363.423 74.3242 364.584 74.9347 365.167 76.1557L363.319 76.9642C362.989 76.3702 362.461 76.0732 361.735 76.0732C361.361 76.0732 361.064 76.1447 360.844 76.2877C360.624 76.4197 360.514 76.5902 360.514 76.7992C360.514 77.1952 360.888 77.4922 361.636 77.6902L362.873 77.9872C363.709 78.1962 364.336 78.5152 364.754 78.9442C365.183 79.3732 365.398 79.9012 365.398 80.5282C365.398 81.0672 365.238 81.5457 364.919 81.9637C364.611 82.3707 364.182 82.6897 363.632 82.9207C363.093 83.1517 362.494 83.2672 361.834 83.2672ZM368.434 73.6642C368.049 73.6642 367.719 73.5267 367.444 73.2517C367.169 72.9767 367.031 72.6467 367.031 72.2617C367.031 71.8767 367.169 71.5522 367.444 71.2882C367.719 71.0132 368.049 70.8757 368.434 70.8757C368.819 70.8757 369.143 71.0132 369.407 71.2882C369.682 71.5522 369.82 71.8767 369.82 72.2617C369.82 72.6467 369.682 72.9767 369.407 73.2517C369.143 73.5267 368.819 73.6642 368.434 73.6642ZM367.345 74.5882H369.506V83.0032H367.345V74.5882ZM371.162 74.5882H373.621L375.749 80.0662H375.881L378.043 74.5882H380.468L376.871 83.0032H374.726L371.162 74.5882ZM385.756 83.2672C384.887 83.2672 384.111 83.0747 383.429 82.6897C382.747 82.2937 382.214 81.7602 381.829 81.0892C381.455 80.4072 381.268 79.6427 381.268 78.7957C381.268 77.9597 381.455 77.2007 381.829 76.5187C382.214 75.8367 382.747 75.3032 383.429 74.9182C384.111 74.5222 384.887 74.3242 385.756 74.3242C386.614 74.3242 387.384 74.5222 388.066 74.9182C388.748 75.3032 389.276 75.8367 389.65 76.5187C390.035 77.2007 390.227 77.9597 390.227 78.7957C390.227 79.6427 390.035 80.4072 389.65 81.0892C389.276 81.7602 388.748 82.2937 388.066 82.6897C387.384 83.0747 386.614 83.2672 385.756 83.2672ZM385.756 81.2707C386.174 81.2707 386.559 81.1717 386.911 80.9737C387.263 80.7757 387.543 80.4897 387.752 80.1157C387.961 79.7417 388.066 79.3017 388.066 78.7957C388.066 78.3007 387.961 77.8662 387.752 77.4922C387.543 77.1182 387.263 76.8322 386.911 76.6342C386.559 76.4362 386.174 76.3372 385.756 76.3372C385.338 76.3372 384.953 76.4362 384.601 76.6342C384.249 76.8322 383.963 77.1182 383.743 77.4922C383.534 77.8662 383.429 78.3007 383.429 78.7957C383.429 79.2907 383.534 79.7307 383.743 80.1157C383.963 80.4897 384.249 80.7757 384.601 80.9737C384.953 81.1717 385.338 81.2707 385.756 81.2707Z" fill="white"/>
<path d="M2.43359 64.0522H7.79648C9.70715 64.0522 11.2589 65.5776 11.2589 67.4632V86.3569C11.2589 95.7752 19.0076 103.409 28.5678 103.409H40.6539C41.4195 103.409 42.0381 102.799 42.0381 102.045V82.9122C42.0381 82.158 41.4195 81.5485 40.6539 81.5485H31.7841C29.8734 81.5485 28.3216 80.0231 28.3216 78.1375V26.3995C28.3216 24.5172 29.87 22.9885 31.7841 22.9885H40.6539C41.4195 22.9885 42.0381 22.379 42.0381 21.6247V2.49195C42.0381 1.73768 41.4195 1.1282 40.6539 1.1282H28.5678C19.0076 1.1282 11.2589 8.76178 11.2589 18.18V37.9256C11.2589 39.8079 9.71057 41.3367 7.79648 41.3367H2.43359C1.66795 41.3367 1.04932 41.9461 1.04932 42.7004V62.6851C1.04932 63.4427 1.66795 64.0522 2.43359 64.0522Z" fill="#F9AB00" stroke="black" stroke-width="2" stroke-miterlimit="10" stroke-linejoin="round"/>
<path d="M433.667 40.4847H428.505C426.665 40.4847 425.172 38.9594 425.172 37.0737V18.18C425.172 8.76178 417.713 1.1282 408.51 1.1282H396.876C396.139 1.1282 395.543 1.73768 395.543 2.49195V21.6247C395.543 22.379 396.139 22.9885 396.876 22.9885H405.414C407.253 22.9885 408.747 24.5138 408.747 26.3995V78.1375C408.747 80.0198 407.256 81.5485 405.414 81.5485H396.876C396.139 81.5485 395.543 82.158 395.543 82.9122V102.045C395.543 102.799 396.139 103.409 396.876 103.409H408.51C417.713 103.409 425.172 95.7752 425.172 86.3569V66.6113C425.172 64.729 426.662 63.2003 428.505 63.2003H433.667C434.404 63.2003 435 62.5908 435 61.8365V41.8519C435 41.0976 434.401 40.4847 433.667 40.4847Z" fill="#34A853" stroke="black" stroke-width="2" stroke-miterlimit="10" stroke-linejoin="round"/>
</svg>
