<svg width="630" height="230" viewBox="0 0 630 230" fill="none" xmlns="http://www.w3.org/2000/svg">
<path d="M5 227.063H2.5V224.563V26.0628V24.8416L3.46321 24.0909L30.4891 3.02812L31.1668 2.5H32.0259H624.405H626.905V5V208.691V210.229L625.533 210.923L594.124 226.795L593.592 227.063H592.997H5Z" fill="#F9AB00" stroke="black" stroke-width="5"/>
<rect x="-2.5" y="2.5" width="593.727" height="205.668" transform="matrix(1 0 0 -1 35.333 211.02)" fill="white" stroke="black" stroke-width="5"/>
<path d="M118.841 45.3081L67.1954 82.4506C56.374 90.2331 53.9052 105.322 61.6812 116.152L61.7095 116.192C69.4855 127.022 84.5616 129.493 95.383 121.711L147.029 84.5682C157.85 76.7857 160.319 61.6969 152.543 50.8664L152.515 50.827C144.739 39.9965 129.663 37.5256 118.841 45.3081Z" fill="#EA4335" stroke="#1E1E1E" stroke-width="4" stroke-miterlimit="10"/>
<path d="M61.7134 87.9747L61.6851 88.0142C53.9091 98.8447 56.3779 113.934 67.1993 121.716L118.845 158.859C129.667 166.641 144.743 164.17 152.519 153.34L152.547 153.3C160.323 142.47 157.854 127.381 147.033 119.598L95.3869 82.4559C84.5655 74.6734 69.4894 77.1442 61.7134 87.9747Z" fill="#4285F4" stroke="#1E1E1E" stroke-width="4" stroke-miterlimit="10"/>
<path d="M243.525 82.4247L191.879 119.567C181.058 127.35 178.589 142.438 186.365 153.269L186.393 153.308C194.169 164.139 209.245 166.61 220.067 158.827L271.712 121.685C282.534 113.902 285.003 98.8135 277.227 87.983L277.198 87.9436C269.422 77.1131 254.346 74.6422 243.525 82.4247Z" fill="#F9AB00" stroke="#1E1E1E" stroke-width="4" stroke-miterlimit="10"/>
<path d="M186.388 50.8421L186.36 50.8815C178.584 61.712 181.053 76.8008 191.874 84.5833L243.52 121.726C254.341 129.508 269.417 127.037 277.193 116.207L277.222 116.167C284.998 105.337 282.529 90.2482 271.708 82.4657L220.062 45.3232C209.24 37.5407 194.164 40.0116 186.388 50.8421Z" fill="#34A853" stroke="#1E1E1E" stroke-width="4" stroke-miterlimit="10"/>
<path d="M593.636 99.6702C591.654 99.6702 589.829 99.3834 588.16 98.8097C586.491 98.1839 585.136 97.3495 584.093 96.3064C581.641 93.9596 580.416 90.6219 580.416 86.2934V67.91H573.454V59.1485H580.416V47.8838H590.664V59.1485H600.442V67.91H590.664V84.4159C590.664 86.4498 591.107 87.9101 591.993 88.7966C592.724 89.6311 593.975 90.0483 595.748 90.0483C596.739 90.0483 597.548 89.9179 598.173 89.6571C598.851 89.3964 599.712 88.9531 600.755 88.3273V98.3404C598.512 99.2269 596.14 99.6702 593.636 99.6702Z" fill="#1E1E1E"/>
<path d="M552.331 100.296C547.481 100.296 543.544 99.3053 540.519 97.3235C537.546 95.3418 535.46 92.7603 534.261 89.579L543.413 85.5894C544.248 87.4669 545.421 88.9011 546.934 89.8919C548.498 90.8307 550.297 91.3 552.331 91.3C554.209 91.3 555.773 91.0132 557.025 90.4395C558.277 89.8137 558.902 88.8228 558.902 87.4669C558.902 86.1631 558.329 85.1983 557.181 84.5725C556.034 83.8945 554.313 83.2948 552.018 82.7733L547.325 81.7563C544.091 80.974 541.406 79.566 539.267 77.532C537.129 75.446 536.06 72.8645 536.06 69.7875C536.06 67.4929 536.738 65.4329 538.094 63.6076C539.502 61.7823 541.379 60.3742 543.726 59.3833C546.125 58.3924 548.759 57.897 551.627 57.897C559.867 57.897 565.369 60.7914 568.133 66.5802L559.372 70.4134C557.807 67.5972 555.304 66.1891 551.862 66.1891C550.089 66.1891 548.681 66.5281 547.638 67.206C546.595 67.8319 546.073 68.6402 546.073 69.6311C546.073 71.5085 547.846 72.9166 551.393 73.8554L557.26 75.2635C561.223 76.2543 564.196 77.7667 566.177 79.8006C568.211 81.8345 569.228 84.3378 569.228 87.3104C569.228 89.8659 568.472 92.1345 566.96 94.1162C565.499 96.0458 563.466 97.5582 560.858 98.6534C558.303 99.7486 555.46 100.296 552.331 100.296Z" fill="#1E1E1E"/>
<path d="M509.556 100.296C505.593 100.296 502.02 99.3835 498.839 97.5582C495.658 95.7329 493.154 93.2296 491.329 90.0484C489.556 86.815 488.669 83.1905 488.669 79.1748C488.669 75.3678 489.556 71.8475 491.329 68.6141C493.102 65.3286 495.553 62.721 498.683 60.7914C501.812 58.8618 505.306 57.897 509.165 57.897C513.285 57.897 516.831 58.7836 519.804 60.5567C522.777 62.3299 525.019 64.7549 526.531 67.8319C528.096 70.9088 528.878 74.3247 528.878 78.0796C528.878 79.2791 528.8 80.4265 528.644 81.5216H498.683C499.204 84.7029 500.456 87.1279 502.437 88.7968C504.471 90.4135 506.896 91.2218 509.713 91.2218C512.059 91.2218 514.067 90.7264 515.736 89.7355C517.457 88.6925 518.813 87.3104 519.804 85.5894L528.096 89.6573C524.028 96.7499 517.848 100.296 509.556 100.296ZM519.022 74.2465C518.917 72.9949 518.448 71.7693 517.614 70.5698C516.831 69.3182 515.71 68.3012 514.25 67.519C512.842 66.6845 511.173 66.2673 509.243 66.2673C506.792 66.2673 504.68 66.9974 502.907 68.4577C501.186 69.8658 499.934 71.7954 499.152 74.2465H519.022Z" fill="#1E1E1E"/>
<path d="M449.795 43.0342H485.31V53.0473H460.356V66.6588H482.807V76.6719H460.356V99.0449H449.795V43.0342Z" fill="#1E1E1E"/>
<path d="M398.702 59.1495H410.358L420.449 85.121H421.075L431.323 59.1495H442.822L425.769 99.0454H415.599L398.702 59.1495Z" fill="#1E1E1E"/>
<path d="M376.71 100.296C372.746 100.296 369.174 99.3835 365.993 97.5582C362.812 95.7329 360.308 93.2296 358.483 90.0484C356.71 86.815 355.823 83.1905 355.823 79.1748C355.823 75.3678 356.71 71.8475 358.483 68.6141C360.256 65.3286 362.707 62.721 365.836 60.7914C368.965 58.8618 372.46 57.897 376.319 57.897C380.439 57.897 383.985 58.7836 386.958 60.5567C389.93 62.3299 392.173 64.7549 393.685 67.8319C395.25 70.9088 396.032 74.3247 396.032 78.0796C396.032 79.2791 395.954 80.4265 395.797 81.5216H365.836C366.358 84.7029 367.609 87.1279 369.591 88.7968C371.625 90.4135 374.05 91.2218 376.866 91.2218C379.213 91.2218 381.221 90.7264 382.89 89.7355C384.611 88.6925 385.967 87.3104 386.958 85.5894L395.25 89.6573C391.182 96.7499 385.002 100.296 376.71 100.296ZM386.175 74.2465C386.071 72.9949 385.602 71.7693 384.767 70.5698C383.985 69.3182 382.864 68.3012 381.404 67.519C379.995 66.6845 378.327 66.2673 376.397 66.2673C373.946 66.2673 371.834 66.9974 370.061 68.4577C368.34 69.8658 367.088 71.7954 366.306 74.2465H386.175Z" fill="#1E1E1E"/>
<path d="M302.813 43.0341H321.744C327.585 43.0341 332.67 44.2075 336.998 46.5543C341.327 48.9011 344.665 52.1866 347.011 56.4109C349.358 60.6352 350.532 65.5114 350.532 71.0394C350.532 76.5675 349.358 81.4436 347.011 85.6679C344.665 89.8922 341.327 93.1777 336.998 95.5245C332.67 97.8714 327.585 99.0448 321.744 99.0448H302.813V43.0341ZM321.275 89.0317C327.324 89.0317 331.94 87.4411 335.121 84.2598C338.302 81.0264 339.893 76.6196 339.893 71.0394C339.893 65.4592 338.302 61.0785 335.121 57.8972C331.94 54.6638 327.324 53.0471 321.275 53.0471H313.374V89.0317H321.275Z" fill="#1E1E1E"/>
<rect x="494.589" y="122.804" width="108.984" height="39.4556" rx="19.7278" fill="white" stroke="#1E1E1E" stroke-width="4"/>
<rect x="299.908" y="122.804" width="187.204" height="39.4556" rx="19.7278" fill="white" stroke="#1E1E1E" stroke-width="4"/>
<path fill-rule="evenodd" clip-rule="evenodd" d="M402.897 135.6C402.336 135.6 401.857 135.41 401.459 135.03C401.079 134.632 400.889 134.153 400.889 133.592C400.889 133.031 401.079 132.561 401.459 132.181C401.857 131.783 402.336 131.584 402.897 131.584C403.458 131.584 403.928 131.783 404.308 132.181C404.706 132.561 404.905 133.031 404.905 133.592C404.905 134.153 404.706 134.632 404.308 135.03C403.928 135.41 403.458 135.6 402.897 135.6ZM404.389 137.879V151.339H401.404V137.879H404.389ZM408.244 135.03C408.642 135.41 409.121 135.6 409.682 135.6C410.243 135.6 410.713 135.41 411.093 135.03C411.491 134.632 411.69 134.153 411.69 133.592C411.69 133.031 411.491 132.561 411.093 132.181C410.713 131.783 410.243 131.584 409.682 131.584C409.121 131.584 408.642 131.783 408.244 132.181C407.864 132.561 407.674 133.031 407.674 133.592C407.674 134.153 407.864 134.632 408.244 135.03ZM405.53 157.282C405.982 157.408 406.471 157.472 406.995 157.472C408.262 157.472 409.275 157.101 410.035 156.359C410.794 155.617 411.174 154.478 411.174 152.94V137.879H408.189V152.886C408.189 153.501 408.081 153.962 407.864 154.27C407.647 154.577 407.285 154.731 406.778 154.731C406.344 154.731 405.928 154.622 405.53 154.405V157.282ZM416.305 151.203C417.083 151.583 417.951 151.773 418.91 151.773C419.833 151.773 420.629 151.583 421.298 151.203C421.968 150.805 422.519 150.299 422.953 149.684H423.116V151.339H426.02V143.089C426.02 141.298 425.477 139.915 424.392 138.938C423.324 137.943 421.805 137.445 419.833 137.445C418.639 137.445 417.562 137.671 416.604 138.124C415.663 138.576 414.876 139.227 414.243 140.077L416.522 141.651C417.354 140.53 418.458 139.969 419.833 139.969C420.737 139.969 421.506 140.24 422.139 140.783C422.791 141.308 423.116 141.977 423.116 142.791V143.361C422.103 142.872 420.882 142.628 419.453 142.628C417.825 142.628 416.477 143.035 415.41 143.849C414.36 144.663 413.836 145.776 413.836 147.187C413.836 148.073 414.053 148.869 414.487 149.575C414.939 150.262 415.545 150.805 416.305 151.203ZM421.244 148.815C420.683 149.141 420.068 149.304 419.399 149.304C418.711 149.304 418.114 149.114 417.608 148.734C417.119 148.336 416.875 147.829 416.875 147.214C416.875 146.545 417.155 145.993 417.716 145.559C418.277 145.125 419.055 144.908 420.05 144.908C421.135 144.908 422.157 145.17 423.116 145.695C423.116 146.328 422.944 146.925 422.601 147.486C422.275 148.028 421.823 148.471 421.244 148.815ZM393.33 137.88H390.508V151.339H393.493V144.284C393.493 143.198 393.818 142.285 394.47 141.543C395.139 140.783 395.962 140.403 396.939 140.403C397.699 140.403 398.386 140.557 399.001 140.865V137.744C398.585 137.563 398.051 137.473 397.4 137.473C396.604 137.473 395.826 137.708 395.067 138.178C394.307 138.631 393.782 139.2 393.493 139.888H393.33V137.88ZM380.247 151.773C379.288 151.773 378.42 151.583 377.642 151.203C376.882 150.805 376.276 150.262 375.824 149.575C375.39 148.869 375.173 148.073 375.173 147.187C375.173 145.776 375.697 144.663 376.747 143.849C377.814 143.035 379.162 142.628 380.79 142.628C382.219 142.628 383.44 142.872 384.453 143.361V142.791C384.453 141.977 384.128 141.308 383.476 140.783C382.843 140.24 382.074 139.969 381.17 139.969C379.795 139.969 378.691 140.53 377.859 141.651L375.58 140.077C376.213 139.227 377 138.576 377.941 138.124C378.899 137.671 379.976 137.445 381.17 137.445C383.142 137.445 384.661 137.943 385.729 138.938C386.814 139.915 387.357 141.298 387.357 143.089V151.339H384.453V149.684H384.29C383.856 150.299 383.305 150.805 382.635 151.203C381.966 151.583 381.17 151.773 380.247 151.773ZM380.736 149.304C381.405 149.304 382.02 149.141 382.581 148.815C383.16 148.471 383.612 148.028 383.938 147.486C384.281 146.925 384.453 146.328 384.453 145.695C383.494 145.17 382.472 144.908 381.387 144.908C380.392 144.908 379.614 145.125 379.053 145.559C378.492 145.993 378.212 146.545 378.212 147.214C378.212 147.829 378.456 148.336 378.945 148.734C379.451 149.114 380.048 149.304 380.736 149.304ZM361.706 134.813H367.133V151.339H370.173V134.813H375.6V131.91H361.706V134.813Z" fill="#1E1E1E"/>
<path fill-rule="evenodd" clip-rule="evenodd" d="M522.431 145.004L519.066 148.369V151.146H530.95V148.476H522.992L522.938 148.369L525.128 146.179C526.57 144.737 527.469 143.847 527.825 143.509C528.662 142.672 529.347 141.773 529.881 140.812C530.433 139.832 530.709 138.818 530.709 137.767C530.709 136.788 530.46 135.898 529.962 135.097C529.481 134.278 528.787 133.637 527.879 133.174C526.988 132.693 525.965 132.453 524.808 132.453C523.739 132.453 522.796 132.667 521.977 133.094C521.158 133.521 520.499 134.047 520.001 134.67C519.52 135.293 519.191 135.925 519.013 136.566L521.683 137.661C521.843 137.02 522.182 136.459 522.698 135.978C523.232 135.48 523.917 135.23 524.754 135.23C525.662 135.23 526.383 135.489 526.917 136.005C527.451 136.521 527.718 137.126 527.718 137.821C527.718 138.515 527.576 139.111 527.291 139.61C527.024 140.108 526.517 140.758 525.769 141.559C525.217 142.165 524.104 143.313 522.431 145.004ZM541.124 151.574C539.628 151.574 538.311 151.155 537.171 150.319C536.032 149.464 535.151 148.316 534.528 146.874C533.922 145.414 533.62 143.794 533.62 142.013C533.62 140.215 533.922 138.595 534.528 137.153C535.151 135.693 536.032 134.545 537.171 133.708C538.311 132.872 539.628 132.453 541.124 132.453C542.619 132.453 543.928 132.872 545.049 133.708C546.189 134.545 547.061 135.693 547.666 137.153C548.289 138.595 548.601 140.215 548.601 142.013C548.601 143.794 548.289 145.414 547.666 146.874C547.061 148.316 546.189 149.464 545.049 150.319C543.91 151.155 542.601 151.574 541.124 151.574ZM541.124 148.796C542.032 148.796 542.824 148.503 543.5 147.915C544.195 147.31 544.72 146.5 545.076 145.485C545.45 144.452 545.637 143.295 545.637 142.013C545.637 140.732 545.45 139.574 545.076 138.542C544.72 137.509 544.195 136.699 543.5 136.112C542.824 135.524 542.032 135.23 541.124 135.23C540.198 135.23 539.397 135.524 538.72 136.112C538.044 136.699 537.519 137.509 537.145 138.542C536.789 139.574 536.611 140.732 536.611 142.013C536.611 143.295 536.789 144.452 537.145 145.485C537.519 146.5 538.044 147.31 538.72 147.915C539.397 148.503 540.198 148.796 541.124 148.796ZM554.351 145.004L550.987 148.369V151.146H562.87V148.476H554.912L554.859 148.369L557.049 146.179C558.491 144.737 559.39 143.847 559.746 143.509C560.582 142.672 561.268 141.773 561.802 140.812C562.354 139.833 562.63 138.818 562.63 137.767C562.63 136.788 562.381 135.898 561.882 135.097C561.401 134.278 560.707 133.637 559.799 133.174C558.909 132.694 557.885 132.453 556.728 132.453C555.66 132.453 554.716 132.667 553.897 133.094C553.079 133.521 552.42 134.047 551.921 134.67C551.441 135.293 551.111 135.925 550.933 136.566L553.604 137.661C553.764 137.02 554.102 136.459 554.618 135.978C555.153 135.48 555.838 135.23 556.675 135.23C557.583 135.23 558.304 135.489 558.838 136.005C559.372 136.521 559.639 137.127 559.639 137.821C559.639 138.515 559.496 139.112 559.212 139.61C558.945 140.109 558.437 140.758 557.689 141.559C557.138 142.165 556.025 143.313 554.351 145.004ZM565.432 147.514H573.977V151.146H576.915V147.514H579.238V144.79H576.915V132.88H573.737L565.432 145.218V147.514ZM573.977 137.233V144.79H568.716L573.817 137.233H573.977Z" fill="#1E1E1E"/>
</svg>
