<svg width="551" height="305" viewBox="0 0 551 305" fill="none" xmlns="http://www.w3.org/2000/svg">
<path d="M21.3219 50.4339L21.1365 28.811C21.1365 28.811 24.3102 4.37013 48.9582 3.0545C73.6062 1.73888 78.0865 24.6774 78.0865 24.6774H98.4397C98.4397 24.6774 117.857 26.7442 118.607 45.3581C119.358 63.9721 119.168 62.092 119.168 62.092C119.168 62.092 133.545 66.4166 132.984 80.3282C132.423 94.2399 120.099 98 120.099 98H24.8666C24.8666 98 3.76737 96.1199 3.02136 74.3103C2.27534 52.5007 21.3219 50.4339 21.3219 50.4339Z" fill="white" stroke="black" stroke-width="5" stroke-miterlimit="10"/>
<path d="M236.289 128.462L236.397 115.943C236.397 115.943 234.542 101.793 220.132 101.032C205.723 100.27 203.103 113.55 203.103 113.55H191.204C191.204 113.55 179.853 114.747 179.414 125.523C178.976 136.3 179.086 135.211 179.086 135.211C179.086 135.211 170.682 137.715 171.009 145.769C171.337 153.823 178.542 156 178.542 156H234.216C234.216 156 246.551 154.912 246.988 142.285C247.424 129.658 236.289 128.462 236.289 128.462Z" fill="white" stroke="black" stroke-width="5" stroke-miterlimit="10"/>
<rect x="65.5" y="224.606" width="77" height="77.0908" fill="#EA4335" stroke="black" stroke-width="5"/>
<rect x="142.5" y="224.606" width="76" height="77.0908" fill="#4285F4" stroke="black" stroke-width="5"/>
<rect x="218.5" y="224.606" width="77" height="77.0908" fill="#F9AB00" stroke="black" stroke-width="5"/>
<rect x="296.5" y="224.606" width="77" height="77.0908" fill="#34A853" stroke="black" stroke-width="5"/>
<rect x="473.5" y="48.5" width="77" height="77.0908" fill="#EA4335" stroke="black" stroke-width="5"/>
<rect x="374.5" y="125.5" width="176" height="176" fill="#F9AB00" stroke="black" stroke-width="5"/>
<path d="M462.822 172.905H461.05L459.869 173.158L458.772 173.581L457.591 174.341L456.578 175.27L455.988 176.115L455.313 177.382L453.794 180.846L452.528 183.634L451.431 186.168L450.503 188.196L449.153 191.237L448.647 192.251L447.719 192.082L446.706 191.998H445.694L444.175 192.167L442.234 192.673L440.716 193.349L439.45 194.11L438.606 194.785L437.594 195.715L436.75 196.729L435.991 197.911L435.231 199.516L434.809 200.784L434.556 202.051L434.472 202.811V204.585L434.725 206.275L435.231 207.965L436.075 209.739L436.75 210.752L437.763 211.935L438.522 212.696L439.281 213.287L439.028 214.047L437.847 216.666L435.484 221.988L433.966 225.368L433.038 227.48L432.363 229.085L432.025 230.521V232.295L432.363 233.731L432.7 234.576L433.459 235.759L434.388 236.773L435.653 237.618L436.581 238.04L437.847 238.378L438.522 238.462H439.45L440.631 238.293L441.897 237.871L442.825 237.364L443.922 236.519L444.681 235.674L444.85 235.421L456.663 232.887L459.109 232.38L460.881 232.126L461.978 232.042H465.269L467.209 232.211L466.534 233.816L466.197 234.999L466.113 235.674V237.026L466.366 238.293L466.703 239.223L467.294 240.321L468.222 241.419L469.15 242.18L470.753 243.024L472.272 243.7V243.954L469.572 250.036L468.475 252.486L466.113 257.809L465.016 260.259L464.172 262.286L463.919 263.3L463.834 264.06V265.158L464.088 266.51L464.509 267.608L465.1 268.622L465.859 269.467L466.45 270.058L467.631 270.819L468.644 271.241L469.656 271.495L470.331 271.579H471.428L472.863 271.326L473.959 270.903L475.141 270.143L476.153 269.214L476.913 268.2L477.841 266.257L478.769 264.145L479.866 261.695L480.794 259.583L481.891 257.133L483.241 254.091L484.844 250.459L486.025 247.84L486.953 245.728L488.05 243.278L489.063 240.997H489.316L491.425 241.926L492.775 242.517L494.125 242.94L495.728 243.193H497.922L499.525 242.94L500.875 242.517L501.888 242.095L503.153 241.419L504.081 240.743L504.925 239.983L505.938 238.969L506.781 237.786L507.878 235.674L508.975 233.14L510.494 229.761L511.422 227.649L511.928 226.297L512.266 224.861L512.35 224.185V221.651L512.097 220.13L511.506 218.356L510.831 217.004L509.988 215.737L509.228 214.808L508.553 214.216L507.709 213.456L506.359 212.611L505.009 211.935L502.309 210.752L498.934 209.232L496.825 208.302L494.378 207.204L487.544 204.163L485.434 203.149L483.916 202.22L482.481 201.206L481.722 200.615L480.625 199.685L479.528 198.672L478.263 197.32L477.419 196.222L476.491 194.954L475.563 193.434L474.128 190.984L472.863 188.787L471.681 186.76L470.416 184.563L469.066 182.282L468.813 181.86L468.897 181.015L468.981 179.579L468.813 178.396L468.391 177.129L467.884 176.115L467.294 175.355L466.956 174.932L466.028 174.172L465.1 173.581L464.003 173.158L462.822 172.905Z" fill="black"/>
<path d="M466.45 187.182L466.197 187.436L465.1 189.886L463.665 193.096L462.737 195.208L461.64 197.658L458.603 204.501L457.506 206.951L455.144 212.273L453.625 215.652L452.781 217.595L451.684 220.045L447.634 229.169L447.297 230.014L448.14 229.93L457.59 227.902L459.784 227.564L461.64 227.395H465.522L467.969 227.649L470.331 228.071L472.525 228.662L473.537 229H473.875L475.056 226.381L475.984 224.269L477.672 220.468L478.853 217.849L479.865 215.568L481.469 211.935L482.903 208.725L483.409 207.542L483.325 207.289L481.722 206.359L480.709 205.684L479.528 204.839L478.178 203.74L476.49 202.22L475.562 201.291L474.972 200.615L474.044 199.516L472.862 197.911L471.934 196.475L470.837 194.616L469.572 192.42L468.728 190.984L467.547 188.956L466.534 187.267L466.45 187.182Z" fill="white"/>
<path d="M487.881 209.4H487.628L486.025 212.949L485.097 215.061L484 217.511L481.638 222.833L480.203 226.043L478.178 230.605V230.943L481.638 232.464L484.844 233.9L491.088 236.688L494.125 238.04L495.559 238.462L496.234 238.546H497.5L498.85 238.293L500.116 237.786L501.044 237.195L501.888 236.434L502.647 235.59L503.322 234.407L505.684 229.085L507.288 225.452L507.625 224.269L507.709 223.678V222.073L507.456 220.89L507.034 219.792L506.528 218.862L505.6 217.764L504.672 217.004L503.744 216.497L500.453 214.976L497.922 213.878L494.969 212.526L493.197 211.766L489.991 210.33L487.881 209.4Z" fill="white"/>
<path d="M462.316 177.551H461.472L460.628 177.889L459.953 178.481L459.447 179.494L458.35 181.944L457.084 184.817L455.566 188.196L454.638 190.308L452.95 194.11L451.516 197.32L449.153 202.642L448.056 205.092L446.791 207.965L445.356 211.175L444.428 213.287L443.669 214.977L442.656 217.258L441.222 220.468L440.209 222.749L438.606 226.382L437.172 229.592L436.666 230.859V231.873L437.003 232.718L437.425 233.224L438.184 233.647L439.113 233.816L440.125 233.562L440.8 233.056L441.306 232.211L442.656 229.169L443.753 226.719L445.356 223.087L447.044 219.285L448.225 216.666L449.153 214.554L450.25 212.104L451.6 209.063L453.203 205.43L454.384 202.811L455.313 200.699L456.494 198.08L457.422 195.968L459.025 192.336L460.206 189.717L461.725 186.253L462.906 183.634L464.003 181.184L464.256 180.508V179.325L463.834 178.481L463.075 177.805L462.316 177.551Z" fill="white"/>
<path d="M480.709 237.026H480.456L478.853 240.659L477.672 243.278L476.744 245.39L475.056 249.191L473.875 251.81L472.947 253.922L471.85 256.372L470.5 259.413L468.897 263.046L468.559 263.806L468.475 264.229V264.905L468.812 265.75L469.403 266.425L470.247 266.848L471.006 266.932L471.766 266.763L472.525 266.256L472.862 265.834L473.369 264.82L474.887 261.357L476.491 257.808L477.419 255.696L478.853 252.486L480.203 249.445L481.806 245.812L482.903 243.362L484.253 240.321L484.759 239.222L484.675 238.8L481.637 237.448L480.709 237.026Z" fill="white"/>
<path d="M419.706 164.625H419.115L418.272 164.879L417.597 165.386L417.09 166.4V167.498L417.597 168.512L418.694 170.032L419.875 171.637L420.887 173.074L425.275 179.156L426.203 180.424L426.878 180.93L427.722 181.184L428.65 181.099L429.325 180.761L430 180.001L430.253 179.241V178.48L429.915 177.551L421.14 165.386L420.465 164.879L419.706 164.625Z" fill="black"/>
<path d="M408.4 186.337H407.387L406.628 186.675L405.953 187.266L405.616 188.027V189.209L406.037 190.054L406.712 190.645L408.4 191.406L412.956 193.349L417.428 195.292L420.634 196.644L420.972 196.728H421.731L422.659 196.39L423.081 196.052L423.503 195.376L423.672 194.785V194.025L423.334 193.095L422.744 192.504L421.562 191.913L417.006 189.97L414.475 188.871L411.522 187.604L408.737 186.421L408.4 186.337Z" fill="black"/>
<path d="M418.609 208.809H417.344L412.872 210.161L404.687 212.695L402.831 213.287L401.987 214.047L401.65 214.807V215.906L401.903 216.581L402.409 217.173L402.916 217.511L403.422 217.68H404.434L409.159 216.243L414.644 214.554L418.441 213.371L419.2 213.033L419.791 212.526L420.212 211.681V210.499L419.959 209.907L419.537 209.316L418.862 208.894L418.609 208.809Z" fill="black"/>
<path d="M491.425 216.328L490.581 216.413L489.906 216.751L489.4 217.173L488.978 217.933L488.894 218.356V219.032L489.231 219.961L489.906 220.637L492.1 221.65L498.175 224.354L499.187 224.776L500.031 224.861L500.706 224.692L501.381 224.269L501.887 223.678L502.141 223.002V222.073L501.803 221.228L501.381 220.721L500.706 220.299L497.247 218.778L494.631 217.595L492.1 216.497L491.425 216.328Z" fill="black"/>
<path d="M487.797 224.945H487.037L486.278 225.199L485.434 225.959L485.097 226.804V227.733L485.434 228.494L486.025 229.169L487.966 230.099L491.425 231.619L494.041 232.802L495.222 233.309L495.559 233.393H496.487L497.331 233.056L497.753 232.718L498.175 232.042L498.344 231.366V230.775L498.006 229.845L497.5 229.254L496.15 228.578L493.534 227.395L491.256 226.381L488.387 225.114L487.797 224.945Z" fill="black"/>
<path d="M446.284 196.644L445.103 196.729L443.837 197.066L442.487 197.742L441.728 198.249L440.969 198.925L440.209 199.939L439.534 201.291L439.197 202.642L439.112 203.825L439.281 205.346L439.703 206.613L440.378 207.796L441.137 208.725H441.475L442.825 205.684L444.259 202.473L445.272 200.192L446.369 197.742L446.706 196.982V196.729L446.284 196.644Z" fill="white"/>
<path d="M472.019 233.309L471.681 233.647L470.837 235.59L470.753 235.928V236.688L471.006 237.448L471.428 238.04L472.356 238.631L474.044 239.391H474.381L475.731 236.434L476.237 235.252L476.153 234.998L473.622 233.9L472.019 233.309Z" fill="white"/>
</svg>
