<svg width="441" height="178" viewBox="0 0 441 178" fill="none" xmlns="http://www.w3.org/2000/svg">
<rect x="-2.5" y="-2.5" width="77" height="227" transform="matrix(0 -1 -1 0 436 77)" fill="#F9AB00" stroke="black" stroke-width="5"/>
<g clip-path="url(#clip0_1281_762)">
<path d="M60.1348 -7.67129C61.1683 -7.49845 62.0854 -7.37853 62.9849 -7.17747C63.3164 -7.1034 63.7856 -6.89176 63.8596 -6.64484C63.9337 -6.39088 63.6868 -5.91469 63.4363 -5.71011C61.9725 -4.50024 60.4699 -3.33975 58.8967 -2.09461C61.6409 -1.22337 63.5245 0.522652 63.909 3.46796C64.2864 6.3533 63.0836 8.5755 60.5863 10.1663C61.9161 12.318 62.2935 14.5402 61.2424 16.8506C60.1877 19.1645 58.2724 20.3497 55.8279 20.7165C56.1807 26.2332 54.9144 28.2685 50.223 29.6124C50.4241 32.1027 49.7751 34.3461 47.6763 35.958C46.3818 36.9492 44.8897 37.3795 43.2637 37.2631C39.4365 36.988 37.3342 34.3813 37.1085 29.5771C35.1226 29.175 33.4083 28.2544 32.3184 26.4308C31.2567 24.66 31.1297 22.7624 31.7046 20.8153C25.6694 19.6583 24.2867 14.191 26.8193 10.124C24.5089 8.50143 23.2638 6.30039 23.68 3.41152C24.0998 0.512068 25.9234 -1.22337 28.7311 -2.09109C27.2708 -3.20925 25.881 -4.22511 24.5512 -5.31505C24.1632 -5.63251 23.9481 -6.15808 23.6518 -6.59194C24.1103 -6.81063 24.5512 -7.09988 25.038 -7.22686C25.7646 -7.42086 26.523 -7.50552 27.3837 -7.65719C26.6218 -9.33619 25.8599 -10.92 25.1791 -12.5355C24.4172 -14.345 24.5759 -14.5531 26.4736 -14.3802C28.4101 -14.2039 30.3466 -13.9958 32.3501 -13.7947C32.3501 -14.7189 32.3501 -15.6183 32.3501 -16.74C34.5194 -16.2674 35.9339 -14.6977 37.7963 -13.8053C37.9162 -15.4949 38.0009 -17.1562 38.1596 -18.8141C38.2408 -19.6536 38.4171 -20.4896 38.6146 -21.3114C38.8651 -22.359 39.2249 -22.4648 40.0785 -21.8052C40.4418 -21.5266 40.7981 -21.2373 41.2284 -20.8987C41.7575 -21.777 42.2443 -22.6059 42.7557 -23.4208C43.6093 -24.7717 43.9303 -24.7788 44.7733 -23.4737C45.0485 -23.0469 45.306 -22.6059 45.5635 -22.1721C45.7998 -21.777 46.0255 -21.382 46.2477 -21.001C46.3853 -21.0292 46.4806 -21.0222 46.537 -21.068C48.7098 -22.7717 48.798 -22.7682 49.2072 -20.0028C49.5035 -17.9957 49.6234 -15.9675 49.835 -13.8053C50.8615 -14.4578 51.9408 -15.1457 53.0202 -15.8264C53.38 -16.0522 53.7327 -16.2885 54.1137 -16.4719C54.872 -16.8317 55.3623 -16.6977 55.2918 -15.7277C55.2495 -15.1386 55.186 -14.5496 55.1119 -13.7736C56.2336 -13.897 57.3023 -14.0205 58.3711 -14.1298C59.4681 -14.2427 60.5651 -14.3344 61.6586 -14.4473C62.678 -14.5531 63.0342 -14.1333 62.6321 -13.1845C62.0184 -11.7453 61.3658 -10.3203 60.7274 -8.89175C60.5616 -8.52491 60.3711 -8.15806 60.1348 -7.67129ZM43.0273 0.0641026C43.2954 -1.21631 43.2778 -2.30979 41.9056 -3.03994C41.0167 -3.5126 40.2019 -4.15809 39.4436 -4.82828C39.1085 -5.12457 38.9956 -5.67484 38.7804 -6.11223C39.2637 -6.02404 39.8245 -6.06285 40.2196 -5.82652C41.1508 -5.27273 42.0009 -4.5849 43.1402 -3.77009C43.1402 -4.6237 43.1402 -5.19512 43.1402 -5.76301C43.1402 -7.62896 43.1085 -9.49492 43.1755 -11.3573C43.1861 -11.6819 43.6164 -11.9887 43.8527 -12.3062C44.0361 -11.9852 44.3289 -11.6783 44.3747 -11.3397C44.4594 -10.7154 44.403 -10.0699 44.403 -9.43495C44.403 -7.62897 44.403 -5.82651 44.403 -3.77362C45.4753 -4.52846 46.2689 -5.16338 47.1366 -5.66073C47.6128 -5.93233 48.5828 -6.24273 48.7063 -6.07342C49.2848 -5.29036 48.3994 -5.0364 47.9409 -4.68014C47.1754 -4.0805 46.3747 -3.52318 45.5846 -2.95176C44.2407 -1.98175 44.1102 -1.58315 44.6358 0.141705C47.2283 -1.66428 49.8985 -1.76657 52.5193 -0.207496C55.514 -2.28156 59.0766 -3.30096 61.7009 -6.08048C60.9284 -6.19688 60.3464 -6.29565 59.7644 -6.36619C58.1771 -6.56372 58.0889 -6.7683 58.8367 -8.18981C59.648 -9.7383 60.4064 -11.3115 61.3411 -13.181C59.387 -12.9411 57.835 -12.7824 56.2935 -12.5566C53.7856 -12.1863 53.7891 -12.1651 53.6939 -14.7365C52.29 -13.7806 50.992 -12.8635 49.6551 -12.0064C49.3059 -11.7806 48.8403 -11.7312 48.4276 -11.6007C48.3571 -12.024 48.1948 -12.4579 48.2301 -12.8741C48.4558 -15.3291 48.3994 -17.7594 47.8245 -20.2885C47.5493 -20.091 47.3765 -19.9851 47.2213 -19.8582C45.9268 -18.7859 45.8915 -18.8 45.1296 -20.2144C44.7204 -20.9693 44.2725 -21.7065 43.761 -22.5918C43.313 -21.8299 42.9815 -21.2903 42.6746 -20.7365C41.6305 -18.8423 41.634 -18.8423 39.9727 -20.1157C39.9268 -20.1509 39.821 -20.1086 39.3836 -20.0769C39.366 -17.6712 39.3589 -15.2374 39.3236 -12.8035C39.3166 -12.412 39.2037 -12.024 39.1402 -11.636C38.7311 -11.7489 38.2619 -11.7771 37.9198 -11.9958C36.5547 -12.867 35.2284 -13.7947 33.7575 -14.7894C33.7364 -14.4049 33.7117 -14.2815 33.7258 -14.1651C34.008 -12.1686 34.0115 -12.1863 32.0009 -12.4614C30.1879 -12.7083 28.3713 -12.9129 26.1844 -13.1845C27.2038 -11.1598 28.001 -9.48786 28.8793 -7.85824C29.3801 -6.93056 29.1368 -6.5355 28.1456 -6.41557C27.4225 -6.32739 26.7064 -6.19335 25.9869 -6.07695C25.941 -5.92175 25.8951 -5.76655 25.8493 -5.61488C28.8863 -3.81947 31.9198 -2.02759 34.9533 -0.232191C38.3607 -1.71366 39.0026 -1.6925 43.0273 0.0641026ZM38.47 14.1169C38.4489 16.9952 40.8016 19.3726 43.6869 19.3973C46.544 19.422 48.9462 17.0269 48.9497 14.1592C48.9532 11.2668 46.6075 8.90355 43.7257 8.8965C40.8333 8.88592 38.4877 11.2139 38.47 14.1169ZM37.3448 12.1028C36.0009 11.1152 34.8404 10.2334 33.6447 9.40443C33.2884 9.15752 32.8369 8.94588 32.4172 8.91766C29.9622 8.7554 27.68 10.4097 27.0556 12.7342C26.4066 15.1681 27.5424 17.6866 29.8069 18.8259C32.6923 20.2791 36.5829 18.6072 37.1297 15.6019C37.3554 14.3744 37.2919 13.094 37.3448 12.1028ZM38.6923 0.000614617C36.082 0.0111966 33.8739 2.00765 33.5071 4.68489C33.1791 7.08346 34.9215 9.7113 37.3131 10.2898C37.7081 10.385 38.3571 10.2404 38.6146 9.95821C39.7469 8.71307 41.1049 7.97939 42.7381 7.61608C43.1472 7.52437 43.6446 7.01996 43.7681 6.60726C44.7557 3.3445 42.142 -0.0134959 38.6923 0.000614617ZM37.9727 17.3938C36.1067 19.5313 36.0962 19.5067 33.7575 20.4978C33.3978 20.6495 33.0521 21.0869 32.918 21.4678C31.9445 24.265 33.7928 27.4643 36.7205 28.1345C39.4012 28.7482 42.5053 26.9563 42.9427 24.4343C43.1508 23.2456 43.0767 22.011 43.1367 20.7024C41.0026 20.4273 39.246 19.3726 37.9727 17.3938ZM49.4964 17.2915C48.4523 18.9634 47.119 19.9828 45.3765 20.4908C45.0485 20.586 44.7028 20.9775 44.5617 21.3162C43.7434 23.3126 44.5335 25.8241 46.3536 27.1962C48.2019 28.5895 50.7274 28.5965 52.6145 27.2103C54.4417 25.8664 55.2565 23.3655 54.4593 21.3444C54.3253 21.0058 53.9831 20.6036 53.6551 20.5084C51.9126 19.9934 50.5758 18.9705 49.4964 17.2915ZM50.0361 11.9335C50.1172 13.1998 49.9867 14.5226 50.3218 15.7077C50.9003 17.7359 52.3853 18.9917 54.5087 19.3056C56.7415 19.6372 58.5157 18.7836 59.7221 16.8964C60.879 15.0869 60.8297 13.1998 59.7256 11.3727C59.5528 11.0834 59.0484 10.7624 58.7627 10.8154C56.9108 11.154 55.2424 10.6954 53.8244 9.89119C52.484 10.6178 51.2671 11.2704 50.0361 11.9335ZM45.3271 7.48204C46.4171 8.28274 47.6022 9.19279 48.8333 10.0323C49.1648 10.258 49.6728 10.4062 50.0537 10.3392C52.1172 9.96527 53.8103 7.98645 54.0466 5.7854C54.29 3.53498 53.0378 1.39743 50.9285 0.462691C48.9179 -0.429719 46.4947 0.0182423 45.1014 1.60201C44.8721 1.86303 44.7522 2.32863 44.7839 2.68489C44.925 4.28629 45.1402 5.88417 45.3271 7.48204ZM54.5299 8.61784C56.8403 10.2827 59.9267 9.78537 61.6268 7.51026C63.3552 5.19281 62.9531 2.11347 60.6815 0.258101C58.5792 -1.4597 55.4646 -1.21984 53.7257 0.833054C55.6516 3.24574 55.835 5.87359 54.5299 8.61784ZM43.701 26.1521C42.5652 27.9405 41.1473 28.981 39.2778 29.436C38.9709 29.5101 38.5512 29.9193 38.5159 30.2085C38.2831 32.3461 39.1614 34.0215 40.9356 35.1609C42.7804 36.346 44.7169 36.3213 46.5476 35.1185C48.2724 33.9827 49.0978 32.3284 48.9038 30.2473C48.8791 29.9687 48.5511 29.5489 48.2936 29.4854C46.3606 29.0128 44.8263 27.9934 43.701 26.1521ZM33.8986 0.780146C31.4789 -1.54788 28.1526 -1.38562 26.0856 1.05528C24.1738 3.31276 24.6042 6.84359 27.031 8.56845C27.3308 8.78362 27.8316 8.99878 28.1279 8.89297C29.5671 8.38503 30.9674 7.77128 32.4524 7.16459C31.8422 4.96001 32.2514 2.7625 33.8986 0.780146Z" fill="black"/>
<path d="M115.97 -7.67129C117.004 -7.49845 117.921 -7.37853 118.82 -7.17747C119.152 -7.1034 119.621 -6.89176 119.695 -6.64484C119.769 -6.39088 119.522 -5.91469 119.272 -5.71011C117.808 -4.50024 116.305 -3.33975 114.732 -2.09461C117.476 -1.22337 119.36 0.522652 119.744 3.46796C120.122 6.3533 118.919 8.5755 116.422 10.1663C117.752 12.318 118.129 14.5402 117.078 16.8506C116.023 19.1645 114.108 20.3497 111.663 20.7165C112.016 26.2332 110.75 28.2685 106.058 29.6124C106.26 32.1027 105.611 34.3461 103.512 35.958C102.217 36.9492 100.725 37.3795 99.0991 37.2631C95.272 36.988 93.1697 34.3813 92.9439 29.5771C90.9581 29.175 89.2438 28.2544 88.1538 26.4308C87.0921 24.66 86.9651 22.7624 87.5401 20.8153C81.5049 19.6583 80.1222 14.191 82.6548 10.124C80.3444 8.50143 79.0992 6.30039 79.5155 3.41152C79.9352 0.512068 81.7588 -1.22337 84.5666 -2.09109C83.1063 -3.20925 81.7165 -4.22511 80.3867 -5.31505C79.9987 -5.63251 79.7835 -6.15808 79.4872 -6.59194C79.9458 -6.81063 80.3867 -7.09988 80.8735 -7.22686C81.6001 -7.42086 82.3585 -7.50552 83.2191 -7.65719C82.4572 -9.33619 81.6953 -10.92 81.0146 -12.5355C80.2527 -14.345 80.4114 -14.5531 82.3091 -14.3802C84.2456 -14.2039 86.1821 -13.9958 88.1856 -13.7947C88.1856 -14.7189 88.1856 -15.6183 88.1856 -16.74C90.3549 -16.2674 91.7693 -14.6977 93.6318 -13.8053C93.7517 -15.4949 93.8363 -17.1562 93.9951 -18.8141C94.0762 -19.6536 94.2526 -20.4896 94.4501 -21.3114C94.7005 -22.359 95.0603 -22.4648 95.9139 -21.8052C96.2772 -21.5266 96.6335 -21.2373 97.0638 -20.8987C97.5929 -21.777 98.0797 -22.6059 98.5912 -23.4208C99.4448 -24.7717 99.7658 -24.7788 100.609 -23.4737C100.884 -23.0469 101.141 -22.6059 101.399 -22.1721C101.635 -21.777 101.861 -21.382 102.083 -21.001C102.221 -21.0292 102.316 -21.0222 102.372 -21.068C104.545 -22.7717 104.633 -22.7682 105.043 -20.0028C105.339 -17.9957 105.459 -15.9675 105.67 -13.8053C106.697 -14.4578 107.776 -15.1457 108.856 -15.8264C109.215 -16.0522 109.568 -16.2885 109.949 -16.4719C110.707 -16.8317 111.198 -16.6977 111.127 -15.7277C111.085 -15.1386 111.021 -14.5496 110.947 -13.7736C112.069 -13.897 113.138 -14.0205 114.207 -14.1298C115.304 -14.2427 116.401 -14.3344 117.494 -14.4473C118.513 -14.5531 118.87 -14.1333 118.468 -13.1845C117.854 -11.7453 117.201 -10.3203 116.563 -8.89175C116.401 -8.52491 116.21 -8.15806 115.97 -7.67129ZM98.8663 0.0641026C99.1344 -1.21631 99.1167 -2.30979 97.7446 -3.03994C96.8557 -3.5126 96.0409 -4.15809 95.2825 -4.82828C94.9475 -5.12457 94.8346 -5.67484 94.6194 -6.11223C95.1027 -6.02404 95.6635 -6.06285 96.0586 -5.82652C96.9898 -5.27273 97.8398 -4.5849 98.9792 -3.77009C98.9792 -4.6237 98.9792 -5.19512 98.9792 -5.76301C98.9792 -7.62896 98.9474 -9.49492 99.0145 -11.3573C99.025 -11.6819 99.4554 -11.9887 99.6917 -12.3062C99.8751 -11.9852 100.168 -11.6783 100.214 -11.3397C100.298 -10.7154 100.242 -10.0699 100.242 -9.43495C100.242 -7.62897 100.242 -5.82651 100.242 -3.77362C101.314 -4.52846 102.108 -5.16338 102.976 -5.66073C103.452 -5.93233 104.422 -6.24273 104.545 -6.07342C105.124 -5.29036 104.238 -5.0364 103.78 -4.68014C103.014 -4.0805 102.214 -3.52318 101.424 -2.95176C100.08 -1.98175 99.9492 -1.58315 100.475 0.141705C103.067 -1.66428 105.738 -1.76657 108.358 -0.207496C111.353 -2.28156 114.916 -3.30096 117.54 -6.08048C116.767 -6.19688 116.185 -6.29565 115.603 -6.36619C114.016 -6.56372 113.928 -6.7683 114.676 -8.18981C115.487 -9.7383 116.245 -11.3115 117.18 -13.181C115.226 -12.9411 113.674 -12.7824 112.133 -12.5566C109.625 -12.1863 109.628 -12.1651 109.533 -14.7365C108.129 -13.7806 106.831 -12.8635 105.494 -12.0064C105.145 -11.7806 104.679 -11.7312 104.267 -11.6007C104.196 -12.024 104.034 -12.4579 104.069 -12.8741C104.295 -15.3291 104.238 -17.7594 103.663 -20.2885C103.388 -20.091 103.215 -19.9851 103.06 -19.8582C101.766 -18.7859 101.73 -18.8 100.969 -20.2144C100.559 -20.9693 100.111 -21.7065 99.6 -22.5918C99.152 -21.8299 98.8204 -21.2903 98.5136 -20.7365C97.4695 -18.8423 97.473 -18.8423 95.8116 -20.1157C95.7658 -20.1509 95.66 -20.1086 95.2226 -20.0769C95.205 -17.6712 95.1979 -15.2374 95.1626 -12.8035C95.1556 -12.412 95.0427 -12.024 94.9792 -11.636C94.57 -11.7489 94.1009 -11.7771 93.7587 -11.9958C92.3937 -12.867 91.0674 -13.7947 89.5965 -14.7894C89.5754 -14.4049 89.5507 -14.2815 89.5648 -14.1651C89.847 -12.1686 89.8505 -12.1863 87.8399 -12.4614C86.0269 -12.7083 84.2103 -12.9129 82.0234 -13.1845C83.0428 -11.1598 83.8399 -9.48786 84.7182 -7.85824C85.2191 -6.93056 84.9757 -6.5355 83.9846 -6.41557C83.2615 -6.32739 82.5454 -6.19335 81.8258 -6.07695C81.78 -5.92175 81.7341 -5.76655 81.6883 -5.61488C84.7253 -3.81947 87.7588 -2.02759 90.7923 -0.232191C94.1997 -1.71366 94.8416 -1.6925 98.8663 0.0641026ZM94.3055 14.1169C94.2843 16.9952 96.637 19.3726 99.5224 19.3973C102.38 19.422 104.782 17.0269 104.785 14.1592C104.789 11.2668 102.443 8.90355 99.5612 8.8965C96.6688 8.88592 94.3266 11.2139 94.3055 14.1169ZM93.1838 12.1028C91.8399 11.1152 90.6794 10.2334 89.4836 9.40443C89.1274 9.15752 88.6759 8.94588 88.2561 8.91766C85.8011 8.7554 83.519 10.4097 82.8946 12.7342C82.2456 15.1681 83.3814 17.6866 85.6459 18.8259C88.5313 20.2791 92.4219 18.6072 92.9686 15.6019C93.1909 14.3744 93.1309 13.094 93.1838 12.1028ZM94.5277 0.000614617C91.9175 0.0111966 89.7094 2.00765 89.3425 4.68489C89.0145 7.08346 90.757 9.7113 93.1485 10.2898C93.5436 10.385 94.1926 10.2404 94.4501 9.95821C95.5824 8.71307 96.9404 7.97939 98.5735 7.61608C98.9827 7.52437 99.4801 7.01996 99.6035 6.60726C100.591 3.3445 97.9774 -0.0134959 94.5277 0.000614617ZM93.8081 17.3938C91.9422 19.5313 91.9316 19.5067 89.593 20.4978C89.2332 20.6495 88.8875 21.0869 88.7535 21.4678C87.78 24.265 89.6283 27.4643 92.5559 28.1345C95.2367 28.7482 98.3407 26.9563 98.7781 24.4343C98.9862 23.2456 98.9122 22.011 98.9721 20.7024C96.8381 20.4273 95.085 19.3726 93.8081 17.3938ZM105.332 17.2915C104.288 18.9634 102.954 19.9828 101.212 20.4908C100.884 20.586 100.538 20.9775 100.397 21.3162C99.5788 23.3126 100.369 25.8241 102.189 27.1962C104.037 28.5895 106.563 28.5965 108.45 27.2103C110.277 25.8664 111.092 23.3655 110.295 21.3444C110.161 21.0058 109.819 20.6036 109.491 20.5084C107.748 19.9934 106.415 18.9705 105.332 17.2915ZM105.875 11.9335C105.956 13.1998 105.826 14.5226 106.161 15.7077C106.739 17.7359 108.224 18.9917 110.348 19.3056C112.58 19.6372 114.355 18.7836 115.561 16.8964C116.718 15.0869 116.669 13.1998 115.565 11.3727C115.392 11.0834 114.887 10.7624 114.602 10.8154C112.75 11.154 111.081 10.6954 109.663 9.89119C108.32 10.6178 107.106 11.2704 105.875 11.9335ZM101.166 7.48204C102.256 8.28274 103.441 9.19279 104.672 10.0323C105.004 10.258 105.512 10.4062 105.893 10.3392C107.956 9.96527 109.649 7.98645 109.886 5.7854C110.129 3.53498 108.877 1.39743 106.767 0.462691C104.757 -0.429719 102.334 0.0182423 100.94 1.60201C100.711 1.86303 100.591 2.32863 100.623 2.68489C100.764 4.28629 100.976 5.88417 101.166 7.48204ZM110.365 8.61784C112.676 10.2827 115.762 9.78537 117.462 7.51026C119.191 5.19281 118.789 2.11347 116.517 0.258101C114.415 -1.4597 111.3 -1.21984 109.561 0.833054C111.491 3.24574 111.67 5.87359 110.365 8.61784ZM99.5365 26.1521C98.4007 27.9405 96.9827 28.981 95.1132 29.436C94.8064 29.5101 94.3866 29.9193 94.3513 30.2085C94.1185 32.3461 94.9968 34.0215 96.7711 35.1609C98.6158 36.346 100.552 36.3213 102.383 35.1185C104.108 33.9827 104.933 32.3284 104.739 30.2473C104.715 29.9687 104.387 29.5489 104.129 29.4854C102.196 29.0128 100.662 27.9934 99.5365 26.1521ZM89.7376 0.780146C87.3179 -1.54788 83.9916 -1.38562 81.9246 1.05528C80.0128 3.31276 80.4431 6.84359 82.8699 8.56845C83.1698 8.78362 83.6706 8.99878 83.9669 8.89297C85.4061 8.38503 86.8064 7.77128 88.2914 7.16459C87.6812 4.96001 88.0868 2.7625 89.7376 0.780146Z" fill="black"/>
<path d="M171.806 -7.67129C172.84 -7.49845 173.757 -7.37853 174.656 -7.17747C174.988 -7.1034 175.457 -6.89176 175.531 -6.64484C175.605 -6.39088 175.358 -5.91469 175.108 -5.71011C173.644 -4.50024 172.141 -3.33975 170.568 -2.09461C173.312 -1.22337 175.196 0.522652 175.58 3.46796C175.958 6.3533 174.755 8.5755 172.258 10.1663C173.587 12.318 173.965 14.5402 172.914 16.8506C171.859 19.1645 169.944 20.3497 167.499 20.7165C167.852 26.2332 166.586 28.2685 161.894 29.6124C162.095 32.1027 161.446 34.3461 159.348 35.958C158.053 36.9492 156.561 37.3795 154.935 37.2631C151.108 36.988 149.006 34.3813 148.78 29.5771C146.794 29.175 145.08 28.2544 143.99 26.4308C142.928 24.66 142.801 22.7624 143.376 20.8153C137.341 19.6583 135.958 14.191 138.491 10.124C136.18 8.50143 134.935 6.30039 135.351 3.41152C135.771 0.512068 137.595 -1.22337 140.403 -2.09109C138.942 -3.20925 137.552 -4.22511 136.223 -5.31505C135.835 -5.63251 135.619 -6.15808 135.323 -6.59194C135.782 -6.81063 136.223 -7.09988 136.709 -7.22686C137.436 -7.42086 138.194 -7.50552 139.055 -7.65719C138.293 -9.33619 137.531 -10.92 136.851 -12.5355C136.089 -14.345 136.247 -14.5531 138.145 -14.3802C140.082 -14.2039 142.018 -13.9958 144.022 -13.7947C144.022 -14.7189 144.022 -15.6183 144.022 -16.74C146.191 -16.2674 147.605 -14.6977 149.468 -13.8053C149.588 -15.4949 149.672 -17.1562 149.831 -18.8141C149.912 -19.6536 150.088 -20.4896 150.286 -21.3114C150.536 -22.359 150.896 -22.4648 151.75 -21.8052C152.113 -21.5266 152.469 -21.2373 152.903 -20.8987C153.432 -21.777 153.919 -22.6059 154.431 -23.4208C155.284 -24.7717 155.605 -24.7788 156.448 -23.4737C156.723 -23.0469 156.981 -22.6059 157.238 -22.1721C157.475 -21.777 157.7 -21.382 157.923 -21.001C158.06 -21.0292 158.155 -21.0222 158.212 -21.068C160.385 -22.7717 160.473 -22.7682 160.882 -20.0028C161.178 -17.9957 161.298 -15.9675 161.51 -13.8053C162.536 -14.4578 163.616 -15.1457 164.695 -15.8264C165.055 -16.0522 165.408 -16.2885 165.789 -16.4719C166.547 -16.8317 167.037 -16.6977 166.967 -15.7277C166.924 -15.1386 166.861 -14.5496 166.787 -13.7736C167.908 -13.897 168.977 -14.0205 170.046 -14.1298C171.143 -14.2427 172.24 -14.3344 173.334 -14.4473C174.353 -14.5531 174.709 -14.1333 174.307 -13.1845C173.693 -11.7453 173.041 -10.3203 172.402 -8.89175C172.233 -8.52491 172.042 -8.15806 171.806 -7.67129ZM154.699 0.0641026C154.967 -1.21631 154.949 -2.30979 153.577 -3.03994C152.688 -3.5126 151.873 -4.15809 151.115 -4.82828C150.78 -5.12457 150.667 -5.67484 150.452 -6.11223C150.935 -6.02404 151.496 -6.06285 151.891 -5.82652C152.822 -5.27273 153.672 -4.5849 154.812 -3.77009C154.812 -4.6237 154.812 -5.19512 154.812 -5.76301C154.812 -7.62896 154.78 -9.49492 154.847 -11.3573C154.857 -11.6819 155.288 -11.9887 155.524 -12.3062C155.708 -11.9852 156 -11.6783 156.046 -11.3397C156.131 -10.7154 156.074 -10.0699 156.074 -9.43495C156.074 -7.62897 156.074 -5.82651 156.074 -3.77362C157.147 -4.52846 157.94 -5.16338 158.808 -5.66073C159.284 -5.93233 160.254 -6.24273 160.378 -6.07342C160.956 -5.29036 160.071 -5.0364 159.612 -4.68014C158.847 -4.0805 158.046 -3.52318 157.256 -2.95176C155.912 -1.98175 155.782 -1.58315 156.307 0.141705C158.9 -1.66428 161.57 -1.76657 164.191 -0.207496C167.185 -2.28156 170.748 -3.30096 173.372 -6.08048C172.6 -6.19688 172.018 -6.29565 171.436 -6.36619C169.849 -6.56372 169.76 -6.7683 170.508 -8.18981C171.319 -9.7383 172.078 -11.3115 173.013 -13.181C171.058 -12.9411 169.506 -12.7824 167.965 -12.5566C165.457 -12.1863 165.461 -12.1651 165.365 -14.7365C163.961 -13.7806 162.663 -12.8635 161.327 -12.0064C160.977 -11.7806 160.512 -11.7312 160.099 -11.6007C160.028 -12.024 159.866 -12.4579 159.901 -12.8741C160.127 -15.3291 160.071 -17.7594 159.496 -20.2885C159.221 -20.091 159.048 -19.9851 158.893 -19.8582C157.598 -18.7859 157.563 -18.8 156.801 -20.2144C156.392 -20.9693 155.944 -21.7065 155.432 -22.5918C154.984 -21.8299 154.653 -21.2903 154.346 -20.7365C153.302 -18.8423 153.305 -18.8423 151.644 -20.1157C151.598 -20.1509 151.492 -20.1086 151.055 -20.0769C151.037 -17.6712 151.03 -15.2374 150.995 -12.8035C150.988 -12.412 150.875 -12.024 150.812 -11.636C150.402 -11.7489 149.933 -11.7771 149.591 -11.9958C148.226 -12.867 146.9 -13.7947 145.429 -14.7894C145.408 -14.4049 145.383 -14.2815 145.397 -14.1651C145.679 -12.1686 145.683 -12.1863 143.672 -12.4614C141.859 -12.7083 140.043 -12.9129 137.856 -13.1845C138.875 -11.1598 139.672 -9.48786 140.551 -7.85824C141.052 -6.93056 140.808 -6.5355 139.817 -6.41557C139.094 -6.32739 138.378 -6.19335 137.658 -6.07695C137.612 -5.92175 137.567 -5.76655 137.521 -5.61488C140.558 -3.81947 143.591 -2.02759 146.625 -0.232191C150.032 -1.71366 150.674 -1.6925 154.699 0.0641026ZM150.141 14.1169C150.12 16.9952 152.473 19.3726 155.358 19.3973C158.215 19.422 160.618 17.0269 160.621 14.1592C160.625 11.2668 158.279 8.90355 155.397 8.8965C152.501 8.88592 150.159 11.2139 150.141 14.1169ZM149.016 12.1028C147.672 11.1152 146.512 10.2334 145.316 9.40443C144.96 9.15752 144.508 8.94588 144.089 8.91766C141.634 8.7554 139.351 10.4097 138.727 12.7342C138.078 15.1681 139.214 17.6866 141.478 18.8259C144.364 20.2791 148.254 18.6072 148.801 15.6019C149.027 14.3744 148.963 13.094 149.016 12.1028ZM150.364 0.000614617C147.753 0.0111966 145.545 2.00765 145.178 4.68489C144.85 7.08346 146.593 9.7113 148.984 10.2898C149.38 10.385 150.029 10.2404 150.286 9.95821C151.418 8.71307 152.776 7.97939 154.409 7.61608C154.819 7.52437 155.316 7.01996 155.439 6.60726C156.427 3.3445 153.813 -0.0134959 150.364 0.000614617ZM149.644 17.3938C147.778 19.5313 147.768 19.5067 145.429 20.4978C145.069 20.6495 144.723 21.0869 144.589 21.4678C143.616 24.265 145.464 27.4643 148.392 28.1345C151.073 28.7482 154.173 26.9563 154.614 24.4343C154.822 23.2456 154.748 22.011 154.808 20.7024C152.674 20.4273 150.917 19.3726 149.644 17.3938ZM161.168 17.2915C160.124 18.9634 158.79 19.9828 157.048 20.4908C156.72 20.586 156.374 20.9775 156.233 21.3162C155.415 23.3126 156.205 25.8241 158.025 27.1962C159.873 28.5895 162.399 28.5965 164.286 27.2103C166.113 25.8664 166.928 23.3655 166.131 21.3444C165.997 21.0058 165.655 20.6036 165.326 20.5084C163.58 19.9934 162.247 18.9705 161.168 17.2915ZM161.707 11.9335C161.789 13.1998 161.658 14.5226 161.993 15.7077C162.572 17.7359 164.057 18.9917 166.18 19.3056C168.413 19.6372 170.187 18.7836 171.393 16.8964C172.55 15.0869 172.501 13.1998 171.397 11.3727C171.224 11.0834 170.72 10.7624 170.434 10.8154C168.582 11.154 166.914 10.6954 165.496 9.89119C164.152 10.6178 162.938 11.2704 161.707 11.9335ZM156.999 7.48204C158.088 8.28274 159.274 9.19279 160.505 10.0323C160.836 10.258 161.344 10.4062 161.725 10.3392C163.789 9.96527 165.482 7.98645 165.718 5.7854C165.961 3.53498 164.709 1.39743 162.6 0.462691C160.589 -0.429719 158.166 0.0182423 156.773 1.60201C156.543 1.86303 156.424 2.32863 156.455 2.68489C156.596 4.28629 156.812 5.88417 156.999 7.48204ZM166.201 8.61784C168.512 10.2827 171.598 9.78537 173.298 7.51026C175.027 5.19281 174.625 2.11347 172.353 0.258101C170.251 -1.4597 167.136 -1.21984 165.397 0.833054C167.323 3.24574 167.506 5.87359 166.201 8.61784ZM155.372 26.1521C154.237 27.9405 152.819 28.981 150.949 29.436C150.642 29.5101 150.223 29.9193 150.187 30.2085C149.954 32.3461 150.833 34.0215 152.607 35.1609C154.452 36.346 156.388 36.3213 158.219 35.1185C159.944 33.9827 160.769 32.3284 160.575 30.2473C160.551 29.9687 160.222 29.5489 159.965 29.4854C158.032 29.0128 156.498 27.9934 155.372 26.1521ZM145.57 0.780146C143.15 -1.54788 139.824 -1.38562 137.757 1.05528C135.845 3.31276 136.276 6.84359 138.702 8.56845C139.002 8.78362 139.503 8.99878 139.799 8.89297C141.238 8.38503 142.639 7.77128 144.124 7.16459C143.514 4.96001 143.923 2.7625 145.57 0.780146Z" fill="black"/>
<path d="M227.641 -7.67129C228.674 -7.49845 229.591 -7.37853 230.491 -7.17747C230.822 -7.1034 231.291 -6.89176 231.365 -6.64484C231.44 -6.39088 231.193 -5.91469 230.942 -5.71011C229.478 -4.50024 227.976 -3.33975 226.403 -2.09461C229.147 -1.22337 231.03 0.522652 231.415 3.46796C231.792 6.3533 230.589 8.5755 228.092 10.1663C229.422 12.318 229.799 14.5402 228.748 16.8506C227.694 19.1645 225.778 20.3497 223.334 20.7165C223.687 26.2332 222.42 28.2685 217.729 29.6124C217.93 32.1027 217.281 34.3461 215.182 35.958C213.888 36.9492 212.396 37.3795 210.77 37.2631C206.942 36.988 204.84 34.3813 204.614 29.5771C202.628 29.175 200.914 28.2544 199.824 26.4308C198.763 24.66 198.636 22.7624 199.211 20.8153C193.175 19.6583 191.793 14.191 194.325 10.124C192.015 8.50143 190.77 6.30039 191.186 3.41152C191.606 0.512068 193.429 -1.22337 196.237 -2.09109C194.777 -3.20925 193.387 -4.22511 192.057 -5.31505C191.669 -5.63251 191.454 -6.15808 191.158 -6.59194C191.616 -6.81063 192.057 -7.09988 192.544 -7.22686C193.27 -7.42086 194.029 -7.50552 194.89 -7.65719C194.128 -9.33619 193.366 -10.92 192.685 -12.5355C191.923 -14.345 192.082 -14.5531 193.98 -14.3802C195.916 -14.2039 197.852 -13.9958 199.856 -13.7947C199.856 -14.7189 199.856 -15.6183 199.856 -16.74C202.025 -16.2674 203.44 -14.6977 205.302 -13.8053C205.422 -15.4949 205.507 -17.1562 205.665 -18.8141C205.747 -19.6536 205.923 -20.4896 206.12 -21.3114C206.371 -22.359 206.731 -22.4648 207.584 -21.8052C207.948 -21.5266 208.304 -21.2373 208.738 -20.8987C209.267 -21.777 209.754 -22.6059 210.265 -23.4208C211.119 -24.7717 211.44 -24.7788 212.283 -23.4737C212.558 -23.0469 212.815 -22.6059 213.073 -22.1721C213.309 -21.777 213.535 -21.382 213.757 -21.001C213.895 -21.0292 213.99 -21.0222 214.046 -21.068C216.219 -22.7717 216.307 -22.7682 216.717 -20.0028C217.013 -17.9957 217.133 -15.9675 217.344 -13.8053C218.371 -14.4578 219.45 -15.1457 220.53 -15.8264C220.889 -16.0522 221.242 -16.2885 221.623 -16.4719C222.381 -16.8317 222.872 -16.6977 222.801 -15.7277C222.759 -15.1386 222.695 -14.5496 222.621 -13.7736C223.743 -13.897 224.812 -14.0205 225.881 -14.1298C226.978 -14.2427 228.074 -14.3344 229.168 -14.4473C230.187 -14.5531 230.544 -14.1333 230.141 -13.1845C229.528 -11.7453 228.875 -10.3203 228.237 -8.89175C228.067 -8.52491 227.88 -8.15806 227.641 -7.67129ZM210.537 0.0641026C210.805 -1.21631 210.787 -2.30979 209.415 -3.03994C208.526 -3.5126 207.711 -4.15809 206.953 -4.82828C206.618 -5.12457 206.505 -5.67484 206.29 -6.11223C206.773 -6.02404 207.334 -6.06285 207.729 -5.82652C208.66 -5.27273 209.51 -4.5849 210.65 -3.77009C210.65 -4.6237 210.65 -5.19512 210.65 -5.76301C210.65 -7.62896 210.618 -9.49492 210.685 -11.3573C210.695 -11.6819 211.126 -11.9887 211.362 -12.3062C211.545 -11.9852 211.838 -11.6783 211.884 -11.3397C211.969 -10.7154 211.912 -10.0699 211.912 -9.43495C211.912 -7.62897 211.912 -5.82651 211.912 -3.77362C212.985 -4.52846 213.778 -5.16338 214.646 -5.66073C215.122 -5.93233 216.092 -6.24273 216.216 -6.07342C216.794 -5.29036 215.909 -5.0364 215.45 -4.68014C214.685 -4.0805 213.884 -3.52318 213.094 -2.95176C211.75 -1.98175 211.62 -1.58315 212.145 0.141705C214.738 -1.66428 217.408 -1.76657 220.029 -0.207496C223.023 -2.28156 226.586 -3.30096 229.21 -6.08048C228.438 -6.19688 227.856 -6.29565 227.274 -6.36619C225.686 -6.56372 225.598 -6.7683 226.346 -8.18981C227.157 -9.7383 227.916 -11.3115 228.851 -13.181C226.896 -12.9411 225.344 -12.7824 223.803 -12.5566C221.295 -12.1863 221.299 -12.1651 221.203 -14.7365C219.799 -13.7806 218.501 -12.8635 217.165 -12.0064C216.815 -11.7806 216.35 -11.7312 215.937 -11.6007C215.866 -12.024 215.704 -12.4579 215.739 -12.8741C215.965 -15.3291 215.909 -17.7594 215.334 -20.2885C215.059 -20.091 214.886 -19.9851 214.731 -19.8582C213.436 -18.7859 213.401 -18.8 212.639 -20.2144C212.23 -20.9693 211.782 -21.7065 211.27 -22.5918C210.822 -21.8299 210.491 -21.2903 210.184 -20.7365C209.14 -18.8423 209.143 -18.8423 207.482 -20.1157C207.436 -20.1509 207.33 -20.1086 206.893 -20.0769C206.875 -17.6712 206.868 -15.2374 206.833 -12.8035C206.826 -12.412 206.713 -12.024 206.65 -11.636C206.24 -11.7489 205.771 -11.7771 205.429 -11.9958C204.064 -12.867 202.738 -13.7947 201.267 -14.7894C201.246 -14.4049 201.221 -14.2815 201.235 -14.1651C201.517 -12.1686 201.521 -12.1863 199.51 -12.4614C197.697 -12.7083 195.881 -12.9129 193.694 -13.1845C194.713 -11.1598 195.51 -9.48786 196.389 -7.85824C196.89 -6.93056 196.646 -6.5355 195.655 -6.41557C194.932 -6.32739 194.216 -6.19335 193.496 -6.07695C193.45 -5.92175 193.405 -5.76655 193.359 -5.61488C196.396 -3.81947 199.429 -2.02759 202.463 -0.232191C205.87 -1.71366 206.512 -1.6925 210.537 0.0641026ZM205.976 14.1169C205.955 16.9952 208.307 19.3726 211.193 19.3973C214.05 19.422 216.452 17.0269 216.456 14.1592C216.459 11.2668 214.113 8.90355 211.232 8.8965C208.339 8.88592 205.997 11.2139 205.976 14.1169ZM204.854 12.1028C203.51 11.1152 202.35 10.2334 201.154 9.40443C200.798 9.15752 200.346 8.94588 199.927 8.91766C197.472 8.7554 195.189 10.4097 194.565 12.7342C193.916 15.1681 195.052 17.6866 197.316 18.8259C200.202 20.2791 204.092 18.6072 204.639 15.6019C204.861 14.3744 204.798 13.094 204.854 12.1028ZM206.198 0.000614617C203.588 0.0111966 201.38 2.00765 201.013 4.68489C200.685 7.08346 202.427 9.7113 204.819 10.2898C205.214 10.385 205.863 10.2404 206.12 9.95821C207.253 8.71307 208.611 7.97939 210.244 7.61608C210.653 7.52437 211.15 7.01996 211.274 6.60726C212.262 3.3445 209.648 -0.0134959 206.198 0.000614617ZM205.479 17.3938C203.613 19.5313 203.602 19.5067 201.263 20.4978C200.904 20.6495 200.558 21.0869 200.424 21.4678C199.45 24.265 201.299 27.4643 204.226 28.1345C206.907 28.7482 210.008 26.9563 210.449 24.4343C210.657 23.2456 210.583 22.011 210.643 20.7024C208.509 20.4273 206.752 19.3726 205.479 17.3938ZM217.002 17.2915C215.958 18.9634 214.625 19.9828 212.882 20.4908C212.554 20.586 212.209 20.9775 212.068 21.3162C211.249 23.3126 212.039 25.8241 213.859 27.1962C215.708 28.5895 218.233 28.5965 220.12 27.2103C221.948 25.8664 222.762 23.3655 221.965 21.3444C221.831 21.0058 221.489 20.6036 221.161 20.5084C219.418 19.9934 218.082 18.9705 217.002 17.2915ZM217.545 11.9335C217.627 13.1998 217.496 14.5226 217.831 15.7077C218.41 17.7359 219.895 18.9917 222.018 19.3056C224.251 19.6372 226.025 18.7836 227.231 16.8964C228.388 15.0869 228.339 13.1998 227.235 11.3727C227.062 11.0834 226.558 10.7624 226.272 10.8154C224.42 11.154 222.752 10.6954 221.334 9.89119C219.99 10.6178 218.776 11.2704 217.545 11.9335ZM212.833 7.48204C213.923 8.28274 215.108 9.19279 216.339 10.0323C216.671 10.258 217.179 10.4062 217.56 10.3392C219.623 9.96527 221.316 7.98645 221.552 5.7854C221.796 3.53498 220.544 1.39743 218.434 0.462691C216.424 -0.429719 214.001 0.0182423 212.607 1.60201C212.378 1.86303 212.258 2.32863 212.29 2.68489C212.431 4.28629 212.646 5.88417 212.833 7.48204ZM222.036 8.61784C224.346 10.2827 227.433 9.78537 229.133 7.51026C230.861 5.19281 230.459 2.11347 228.187 0.258101C226.085 -1.4597 222.97 -1.21984 221.231 0.833054C223.157 3.24574 223.341 5.87359 222.036 8.61784ZM211.207 26.1521C210.071 27.9405 208.653 28.981 206.784 29.436C206.477 29.5101 206.057 29.9193 206.022 30.2085C205.789 32.3461 206.667 34.0215 208.441 35.1609C210.286 36.346 212.223 36.3213 214.053 35.1185C215.778 33.9827 216.604 32.3284 216.41 30.2473C216.385 29.9687 216.057 29.5489 215.799 29.4854C213.866 29.0128 212.332 27.9934 211.207 26.1521ZM201.408 0.780146C198.988 -1.54788 195.662 -1.38562 193.595 1.05528C191.683 3.31276 192.114 6.84359 194.54 8.56845C194.84 8.78362 195.341 8.99878 195.637 8.89297C197.076 8.38503 198.477 7.77128 199.962 7.16459C199.348 4.96001 199.757 2.7625 201.408 0.780146Z" fill="black"/>
<path d="M88.7988 58.4202C89.8323 58.5931 90.7495 58.713 91.6489 58.9141C91.9805 58.9881 92.4496 59.1998 92.5237 59.4467C92.5978 59.7007 92.3508 60.1768 92.1004 60.3814C90.6366 61.5913 89.1339 62.7518 87.5608 63.9969C90.305 64.8682 92.1886 66.6142 92.5731 69.5595C92.9505 72.4448 91.7477 74.6671 89.2503 76.2579C90.5801 78.4095 90.9576 80.6317 89.9064 82.9421C88.8518 85.256 86.9364 86.4412 84.492 86.8081C84.8447 92.3248 83.5784 94.36 78.8871 95.7039C79.0882 98.1942 78.4391 100.438 76.3404 102.05C75.0458 103.041 73.5538 103.471 71.9277 103.355C68.1006 103.08 65.9983 100.473 65.7726 95.6687C63.7867 95.2666 62.0724 94.3459 60.9825 92.5223C59.9207 90.7516 59.7938 88.8539 60.3687 86.9068C54.3335 85.7499 52.9508 80.2825 55.4834 76.2155C53.173 74.593 51.9278 72.3919 52.3441 69.5031C52.7638 66.6036 54.5874 64.8682 57.3952 64.0005C55.9349 62.8823 54.5451 61.8664 53.2153 60.7765C52.8273 60.4591 52.6121 59.9335 52.3158 59.4996C52.7744 59.2809 53.2153 58.9917 53.7021 58.8647C54.4287 58.6707 55.1871 58.586 56.0477 58.4344C55.2858 56.7554 54.5239 55.1716 53.8432 53.5561C53.0813 51.7466 53.24 51.5385 55.1377 51.7113C57.0742 51.8877 59.0107 52.0958 61.0142 52.2968C61.0142 51.3727 61.0142 50.4732 61.0142 49.3515C63.1835 49.8242 64.5979 51.3939 66.4604 52.2863C66.5803 50.5967 66.665 48.9353 66.8237 47.2775C66.9048 46.438 67.0812 45.602 67.2787 44.7801C67.5291 43.7325 67.8889 43.6267 68.7425 44.2863C69.1059 44.565 69.4621 44.8542 69.8925 45.1928C70.4215 44.3145 70.9083 43.4856 71.4198 42.6708C72.2734 41.3198 72.5944 41.3128 73.4374 42.6179C73.7125 43.0447 73.97 43.4856 74.2275 43.9195C74.4638 44.3145 74.6896 44.7096 74.9118 45.0905C75.0494 45.0623 75.1446 45.0694 75.2011 45.0235C77.3739 43.3198 77.4621 43.3234 77.8712 46.0888C78.1675 48.0958 78.2874 50.124 78.4991 52.2863C79.5255 51.6337 80.6049 50.9459 81.6843 50.2651C82.044 50.0394 82.3968 49.803 82.7777 49.6196C83.5361 49.2598 84.0264 49.3939 83.9558 50.3639C83.9135 50.9529 83.85 51.542 83.776 52.318C84.8976 52.1945 85.9664 52.0711 87.0352 51.9617C88.1322 51.8489 89.2292 51.7572 90.3226 51.6443C91.342 51.5385 91.6983 51.9582 91.2962 52.9071C90.6824 54.3462 90.0299 55.7712 89.3914 57.1998C89.2256 57.5666 89.0352 57.9299 88.7988 58.4202ZM71.6914 66.1521C71.9594 64.8717 71.9418 63.7782 70.5697 63.0481C69.6808 62.5754 68.866 61.9299 68.1076 61.2597C67.7725 60.9635 67.6597 60.4132 67.4445 59.9758C67.9277 60.064 68.4886 60.0252 68.8836 60.2615C69.8148 60.8153 70.6649 61.5031 71.8042 62.3179C71.8042 61.4643 71.8042 60.8929 71.8042 60.325C71.8042 58.4591 71.7725 56.5931 71.8395 54.7307C71.8501 54.4062 72.2804 54.0993 72.5168 53.7818C72.7002 54.1028 72.993 54.4097 73.0388 54.7483C73.1235 55.3727 73.067 56.0182 73.067 56.6531C73.067 58.4591 73.067 60.2615 73.067 62.3144C74.1393 61.5596 74.933 60.9246 75.8007 60.4273C76.2769 60.1557 77.2469 59.8453 77.3703 60.0146C77.9488 60.7977 77.0635 61.0516 76.6049 61.4079C75.8395 62.0075 75.0388 62.5648 74.2487 63.1363C72.9048 64.1063 72.7743 64.5049 73.2998 66.2297C75.8924 64.4237 78.5626 64.3214 81.1834 65.8805C84.1781 63.8065 87.7406 62.7871 90.365 60.0075C89.5925 59.8911 89.0105 59.7924 88.4285 59.7218C86.8412 59.5243 86.753 59.3197 87.5008 57.8982C88.3121 56.3497 89.0704 54.7765 90.0052 52.9071C88.051 53.1469 86.499 53.3056 84.9576 53.5314C82.4497 53.9018 82.4532 53.9229 82.358 51.3515C80.9541 52.3074 79.656 53.2245 78.3192 54.0817C77.97 54.3074 77.5044 54.3568 77.0917 54.4873C77.0211 54.064 76.8589 53.6302 76.8942 53.2139C77.1199 50.7589 77.0635 48.3286 76.4885 45.7995C76.2134 45.9971 76.0406 46.1029 75.8854 46.2299C74.5908 47.3022 74.5556 47.2881 73.7937 45.8736C73.3845 45.1188 72.94 44.3815 72.4251 43.4962C71.9771 44.2581 71.6455 44.7978 71.3386 45.3516C70.2946 47.2457 70.2981 47.2457 68.6367 45.9724C68.5909 45.9371 68.485 45.9794 68.0477 46.0112C68.03 48.4168 68.023 50.8506 67.9877 53.2845C67.9806 53.676 67.8678 54.064 67.8043 54.452C67.3951 54.3391 66.926 54.3109 66.5838 54.0922C65.2188 53.221 63.8925 52.2933 62.4216 51.2986C62.4004 51.6831 62.3757 51.8065 62.3899 51.9229C62.672 53.9194 62.6756 53.9018 60.665 53.6266C58.852 53.3797 57.0354 53.1751 54.8485 52.9035C55.8678 54.9282 56.665 56.6002 57.5433 58.2298C58.0442 59.1575 57.8008 59.5525 56.8096 59.6725C56.0865 59.7606 55.3705 59.8947 54.6509 60.0111C54.6051 60.1663 54.5592 60.3215 54.5134 60.4731C57.5504 62.2685 60.5839 64.0604 63.6173 65.8558C67.0247 64.3744 67.6667 64.3955 71.6914 66.1521ZM67.1341 80.2049C67.1129 83.0832 69.4656 85.4606 72.351 85.4853C75.2081 85.51 77.6102 83.115 77.6137 80.2473C77.6173 77.3549 75.2716 74.9916 72.3898 74.9845C69.4974 74.9739 67.1517 77.302 67.1341 80.2049ZM66.0089 78.1909C64.665 77.2032 63.5045 76.3214 62.3087 75.4924C61.9525 75.2455 61.501 75.0339 61.0812 75.0057C58.6262 74.8434 56.344 76.4977 55.7197 78.8222C55.0707 81.2561 56.2065 83.7746 58.471 84.9139C61.3564 86.3672 65.247 84.6952 65.7937 81.6899C66.0195 80.466 65.956 79.1856 66.0089 78.1909ZM67.3563 66.0886C64.7461 66.0992 62.538 68.0957 62.1712 70.7729C61.8431 73.1715 63.5856 75.7993 65.9771 76.3778C66.3722 76.473 67.0212 76.3284 67.2787 76.0462C68.411 74.8011 69.769 74.0674 71.4021 73.7041C71.8113 73.6124 72.3086 73.108 72.4321 72.6953C73.4197 69.4325 70.806 66.0745 67.3563 66.0886ZM66.6367 83.4818C64.7708 85.6194 64.7602 85.5947 62.4216 86.5859C62.0618 86.7375 61.7161 87.1749 61.5821 87.5559C60.6086 90.353 62.4569 93.5523 65.3845 94.2225C68.0653 94.8362 71.1658 93.0444 71.6067 90.5223C71.8148 89.3336 71.7408 88.0991 71.8007 86.7904C69.6667 86.5153 67.9101 85.4642 66.6367 83.4818ZM78.1605 83.3795C77.1164 85.0515 75.7831 86.0709 74.0406 86.5788C73.7125 86.674 73.3668 87.0656 73.2257 87.4042C72.4074 89.4007 73.1975 91.9121 75.0176 93.2842C76.8659 94.6775 79.3915 94.6846 81.2786 93.2983C83.1058 91.9544 83.9206 89.4535 83.1234 87.4324C82.9894 87.0938 82.6472 86.6917 82.3192 86.5964C80.5732 86.085 79.2398 85.062 78.1605 83.3795ZM78.7001 78.0215C78.7813 79.2878 78.6508 80.6106 78.9859 81.7958C79.5643 83.824 81.0493 85.0797 83.1728 85.3936C85.4056 85.7252 87.1798 84.8716 88.3862 82.9845C89.5431 81.1749 89.4937 79.2878 88.3897 77.4607C88.2168 77.1715 87.7124 76.8505 87.4267 76.9034C85.5749 77.242 83.9065 76.7834 82.4885 75.9792C81.1446 76.7058 79.9312 77.3584 78.7001 78.0215ZM73.9912 73.5701C75.0811 74.3708 76.2663 75.2808 77.4973 76.1203C77.8289 76.3461 78.3368 76.4942 78.7178 76.4272C80.7813 76.0533 82.4744 74.0745 82.7107 71.8734C82.9541 69.623 81.7019 67.4855 79.5926 66.5507C77.582 65.6583 75.1587 66.1063 73.7654 67.69C73.5362 67.9511 73.4162 68.4167 73.448 68.7729C73.5891 70.3743 73.8042 71.9722 73.9912 73.5701ZM83.1939 74.7059C85.5043 76.3708 88.5907 75.8734 90.2909 73.5983C92.0193 71.2808 91.6172 68.2015 89.3456 66.3461C87.2433 64.6283 84.1287 64.8682 82.3897 66.9211C84.3156 69.3338 84.499 71.9616 83.1939 74.7059ZM72.3651 92.2401C71.2293 94.0285 69.8113 95.069 67.9418 95.5241C67.635 95.5981 67.2152 96.0073 67.1799 96.2965C66.9471 98.4341 67.8254 100.11 69.5997 101.249C71.4445 102.434 73.3809 102.409 75.2116 101.207C76.9365 100.071 77.7619 98.4165 77.5679 96.3354C77.5432 96.0567 77.2151 95.6369 76.9576 95.5734C75.0247 95.1008 73.4903 94.0814 72.3651 92.2401ZM62.5627 66.8682C60.1429 64.5401 56.8167 64.7024 54.7497 67.1433C52.8379 69.4008 53.2682 72.9316 55.695 74.6565C55.9948 74.8716 56.4957 75.0868 56.792 74.981C58.2312 74.4731 59.6315 73.8593 61.1165 73.2526C60.5063 71.048 60.9154 68.8505 62.5627 66.8682Z" fill="black"/>
<path d="M144.251 58.4202C145.285 58.5931 146.202 58.713 147.102 58.9141C147.433 58.9881 147.902 59.1998 147.976 59.4467C148.05 59.7007 147.803 60.1768 147.553 60.3814C146.089 61.5913 144.587 62.7518 143.013 63.9969C145.758 64.8682 147.641 66.6142 148.026 69.5595C148.403 72.4448 147.2 74.6671 144.703 76.2579C146.033 78.4095 146.41 80.6317 145.359 82.9421C144.304 85.256 142.389 86.4412 139.945 86.8081C140.297 92.3248 139.031 94.36 134.34 95.7039C134.541 98.1942 133.892 100.438 131.793 102.05C130.499 103.041 129.006 103.471 127.38 103.355C123.553 103.08 121.451 100.473 121.225 95.6687C119.239 95.2666 117.525 94.3459 116.435 92.5223C115.373 90.7516 115.246 88.8539 115.821 86.9068C109.786 85.7499 108.403 80.2825 110.936 76.2155C108.626 74.593 107.38 72.3919 107.797 69.5031C108.216 66.6036 110.04 64.8682 112.848 64.0005C111.388 62.8823 109.998 61.8664 108.668 60.7765C108.28 60.4591 108.065 59.9335 107.769 59.4996C108.227 59.2809 108.668 58.9917 109.155 58.8647C109.881 58.6707 110.64 58.586 111.5 58.4344C110.738 56.7554 109.977 55.1716 109.296 53.5561C108.534 51.7466 108.693 51.5385 110.59 51.7113C112.527 51.8877 114.463 52.0958 116.467 52.2968C116.467 51.3727 116.467 50.4732 116.467 49.3515C118.636 49.8242 120.051 51.3939 121.913 52.2863C122.033 50.5967 122.118 48.9353 122.276 47.2775C122.357 46.438 122.534 45.602 122.731 44.7801C122.982 43.7325 123.342 43.6267 124.195 44.2863C124.558 44.565 124.915 44.8542 125.345 45.1928C125.874 44.3145 126.361 43.4856 126.872 42.6708C127.726 41.3198 128.047 41.3128 128.89 42.6179C129.165 43.0447 129.423 43.4856 129.68 43.9195C129.916 44.3145 130.142 44.7096 130.364 45.0905C130.502 45.0623 130.597 45.0694 130.654 45.0235C132.827 43.3198 132.915 43.3234 133.324 46.0888C133.62 48.0958 133.74 50.124 133.952 52.2863C134.978 51.6337 136.058 50.9459 137.137 50.2651C137.497 50.0394 137.849 49.803 138.23 49.6196C138.989 49.2598 139.479 49.3939 139.408 50.3639C139.366 50.9529 139.303 51.542 139.229 52.318C140.35 52.1945 141.419 52.0711 142.488 51.9617C143.585 51.8489 144.682 51.7572 145.775 51.6443C146.795 51.5385 147.151 51.9582 146.749 52.9071C146.135 54.3462 145.483 55.7712 144.844 57.1998C144.678 57.5666 144.488 57.9299 144.251 58.4202ZM127.144 66.1521C127.412 64.8717 127.394 63.7782 126.022 63.0481C125.133 62.5754 124.319 61.9299 123.56 61.2597C123.225 60.9635 123.112 60.4132 122.897 59.9758C123.38 60.064 123.941 60.0252 124.336 60.2615C125.267 60.8153 126.118 61.5031 127.257 62.3179C127.257 61.4643 127.257 60.8929 127.257 60.325C127.257 58.4591 127.225 56.5931 127.292 54.7307C127.303 54.4062 127.733 54.0993 127.969 53.7818C128.153 54.1028 128.446 54.4097 128.491 54.7483C128.576 55.3727 128.52 56.0182 128.52 56.6531C128.52 58.4591 128.52 60.2615 128.52 62.3144C129.592 61.5596 130.386 60.9246 131.253 60.4273C131.73 60.1557 132.7 59.8453 132.823 60.0146C133.401 60.7977 132.516 61.0516 132.058 61.4079C131.292 62.0075 130.491 62.5648 129.701 63.1363C128.357 64.1063 128.227 64.5049 128.752 66.2297C131.345 64.4237 134.015 64.3214 136.636 65.8805C139.631 63.8065 143.193 62.7871 145.818 60.0075C145.045 59.8911 144.463 59.7924 143.881 59.7218C142.294 59.5243 142.206 59.3197 142.953 57.8982C143.765 56.3497 144.523 54.7765 145.458 52.9071C143.504 53.1469 141.952 53.3056 140.41 53.5314C137.902 53.9018 137.906 53.9229 137.811 51.3515C136.407 52.3074 135.109 53.2245 133.772 54.0817C133.423 54.3074 132.957 54.3568 132.544 54.4873C132.474 54.064 132.312 53.6302 132.347 53.2139C132.573 50.7589 132.516 48.3286 131.941 45.7995C131.666 45.9971 131.493 46.1029 131.338 46.2299C130.043 47.3022 130.008 47.2881 129.246 45.8736C128.837 45.1188 128.393 44.3815 127.878 43.4962C127.43 44.2581 127.098 44.7978 126.791 45.3516C125.747 47.2457 125.751 47.2457 124.089 45.9724C124.044 45.9371 123.938 45.9794 123.5 46.0112C123.483 48.4168 123.476 50.8506 123.44 53.2845C123.433 53.676 123.32 54.064 123.257 54.452C122.848 54.3391 122.379 54.3109 122.036 54.0922C120.671 53.221 119.345 52.2933 117.874 51.2986C117.853 51.6831 117.828 51.8065 117.843 51.9229C118.125 53.9194 118.128 53.9018 116.118 53.6266C114.305 53.3797 112.488 53.1751 110.301 52.9035C111.321 54.9282 112.118 56.6002 112.996 58.2298C113.497 59.1575 113.253 59.5525 112.262 59.6725C111.539 59.7606 110.823 59.8947 110.104 60.0111C110.058 60.1663 110.012 60.3215 109.966 60.4731C113.003 62.2685 116.037 64.0604 119.07 65.8558C122.477 64.3744 123.119 64.3955 127.144 66.1521ZM122.587 80.2049C122.566 83.0832 124.918 85.4606 127.804 85.4853C130.661 85.51 133.063 83.115 133.066 80.2473C133.07 77.3549 130.724 74.9916 127.842 74.9845C124.947 74.9739 122.604 77.302 122.587 80.2049ZM121.462 78.1909C120.118 77.2032 118.957 76.3214 117.761 75.4924C117.405 75.2455 116.954 75.0339 116.534 75.0057C114.079 74.8434 111.797 76.4977 111.172 78.8222C110.523 81.2561 111.659 83.7746 113.924 84.9139C116.809 86.3672 120.7 84.6952 121.246 81.6899C121.472 80.466 121.409 79.1856 121.462 78.1909ZM122.809 66.0886C120.199 66.0992 117.991 68.0957 117.624 70.7729C117.296 73.1715 119.038 75.7993 121.43 76.3778C121.825 76.473 122.474 76.3284 122.731 76.0462C123.864 74.8011 125.222 74.0674 126.855 73.7041C127.264 73.6124 127.761 73.108 127.885 72.6953C128.872 69.4325 126.259 66.0745 122.809 66.0886ZM122.089 83.4818C120.223 85.6194 120.213 85.5947 117.874 86.5859C117.514 86.7375 117.169 87.1749 117.035 87.5559C116.061 90.353 117.91 93.5523 120.837 94.2225C123.518 94.8362 126.618 93.0444 127.059 90.5223C127.267 89.3336 127.193 88.0991 127.253 86.7904C125.119 86.5153 123.363 85.4642 122.089 83.4818ZM133.613 83.3795C132.569 85.0515 131.236 86.0709 129.493 86.5788C129.165 86.674 128.819 87.0656 128.678 87.4042C127.86 89.4007 128.65 91.9121 130.47 93.2842C132.319 94.6775 134.844 94.6846 136.731 93.2983C138.558 91.9544 139.373 89.4535 138.576 87.4324C138.442 87.0938 138.1 86.6917 137.772 86.5964C136.026 86.085 134.692 85.062 133.613 83.3795ZM134.153 78.0215C134.234 79.2878 134.103 80.6106 134.439 81.7958C135.017 83.824 136.502 85.0797 138.625 85.3936C140.858 85.7252 142.632 84.8716 143.839 82.9845C144.996 81.1749 144.946 79.2878 143.842 77.4607C143.67 77.1715 143.165 76.8505 142.879 76.9034C141.028 77.242 139.359 76.7834 137.941 75.9792C136.597 76.7058 135.384 77.3584 134.153 78.0215ZM129.444 73.5701C130.534 74.3708 131.719 75.2808 132.95 76.1203C133.282 76.3461 133.789 76.4942 134.17 76.4272C136.234 76.0533 137.927 74.0745 138.163 71.8734C138.407 69.623 137.155 67.4855 135.045 66.5507C133.035 65.6583 130.611 66.1063 129.218 67.69C128.989 67.9511 128.869 68.4167 128.901 68.7729C129.042 70.3743 129.257 71.9722 129.444 73.5701ZM138.647 74.7059C140.957 76.3708 144.043 75.8734 145.744 73.5983C147.472 71.2808 147.07 68.2015 144.798 66.3461C142.696 64.6283 139.581 64.8682 137.842 66.9211C139.768 69.3338 139.952 71.9616 138.647 74.7059ZM127.818 92.2401C126.682 94.0285 125.264 95.069 123.394 95.5241C123.088 95.5981 122.668 96.0073 122.633 96.2965C122.4 98.4341 123.278 100.11 125.052 101.249C126.897 102.434 128.834 102.409 130.664 101.207C132.389 100.071 133.215 98.4165 133.021 96.3354C132.996 96.0567 132.668 95.6369 132.41 95.5734C130.477 95.1008 128.943 94.0814 127.818 92.2401ZM118.015 66.8682C115.596 64.5401 112.269 64.7024 110.202 67.1433C108.291 69.4008 108.721 72.9316 111.148 74.6565C111.447 74.8716 111.948 75.0868 112.245 74.981C113.684 74.4731 115.084 73.8593 116.569 73.2526C115.959 71.048 116.368 68.8505 118.015 66.8682Z" fill="black"/>
<path d="M199.704 58.4202C200.737 58.5931 201.654 58.713 202.554 58.9141C202.885 58.9881 203.354 59.1998 203.428 59.4467C203.503 59.7007 203.256 60.1768 203.005 60.3814C201.541 61.5913 200.039 62.7518 198.466 63.9969C201.21 64.8682 203.093 66.6142 203.478 69.5595C203.855 72.4448 202.652 74.6671 200.155 76.2579C201.485 78.4095 201.862 80.6317 200.811 82.9421C199.757 85.256 197.841 86.4412 195.397 86.8081C195.75 92.3248 194.483 94.36 189.792 95.7039C189.993 98.1942 189.344 100.438 187.245 102.05C185.951 103.041 184.459 103.471 182.833 103.355C179.005 103.08 176.903 100.473 176.677 95.6687C174.691 95.2666 172.977 94.3459 171.887 92.5223C170.826 90.7516 170.699 88.8539 171.273 86.9068C165.238 85.7499 163.856 80.2825 166.388 76.2155C164.078 74.593 162.833 72.3919 163.249 69.5031C163.669 66.6036 165.492 64.8682 168.3 64.0005C166.84 62.8823 165.45 61.8664 164.12 60.7765C163.732 60.4591 163.517 59.9335 163.221 59.4996C163.679 59.2809 164.12 58.9917 164.607 58.8647C165.334 58.6707 166.092 58.586 166.953 58.4344C166.191 56.7554 165.429 55.1716 164.748 53.5561C163.986 51.7466 164.145 51.5385 166.043 51.7113C167.979 51.8877 169.916 52.0958 171.919 52.2968C171.919 51.3727 171.919 50.4732 171.919 49.3515C174.088 49.8242 175.503 51.3939 177.365 52.2863C177.485 50.5967 177.57 48.9353 177.728 47.2775C177.81 46.438 177.986 45.602 178.184 44.7801C178.434 43.7325 178.794 43.6267 179.647 44.2863C180.011 44.565 180.367 44.8542 180.801 45.1928C181.33 44.3145 181.817 43.4856 182.328 42.6708C183.182 41.3198 183.503 41.3128 184.346 42.6179C184.621 43.0447 184.878 43.4856 185.136 43.9195C185.372 44.3145 185.598 44.7096 185.82 45.0905C185.958 45.0623 186.053 45.0694 186.109 45.0235C188.282 43.3198 188.37 43.3234 188.78 46.0888C189.076 48.0958 189.196 50.124 189.407 52.2863C190.434 51.6337 191.513 50.9459 192.593 50.2651C192.952 50.0394 193.305 49.803 193.686 49.6196C194.444 49.2598 194.935 49.3939 194.864 50.3639C194.822 50.9529 194.758 51.542 194.684 52.318C195.806 52.1945 196.875 52.0711 197.944 51.9617C199.041 51.8489 200.138 51.7572 201.231 51.6443C202.25 51.5385 202.607 51.9582 202.205 52.9071C201.591 54.3462 200.938 55.7712 200.3 57.1998C200.13 57.5666 199.94 57.9299 199.704 58.4202ZM182.596 66.1521C182.864 64.8717 182.847 63.7782 181.474 63.0481C180.586 62.5754 179.771 61.9299 179.012 61.2597C178.677 60.9635 178.564 60.4132 178.349 59.9758C178.833 60.064 179.393 60.0252 179.788 60.2615C180.72 60.8153 181.57 61.5031 182.709 62.3179C182.709 61.4643 182.709 60.8929 182.709 60.325C182.709 58.4591 182.677 56.5931 182.744 54.7307C182.755 54.4062 183.185 54.0993 183.422 53.7818C183.605 54.1028 183.898 54.4097 183.944 54.7483C184.028 55.3727 183.972 56.0182 183.972 56.6531C183.972 58.4591 183.972 60.2615 183.972 62.3144C185.044 61.5596 185.838 60.9246 186.705 60.4273C187.182 60.1557 188.152 59.8453 188.275 60.0146C188.854 60.7977 187.968 61.0516 187.51 61.4079C186.744 62.0075 185.944 62.5648 185.154 63.1363C183.81 64.1063 183.679 64.5049 184.205 66.2297C186.797 64.4237 189.467 64.3214 192.088 65.8805C195.083 63.8065 198.645 62.7871 201.27 60.0075C200.497 59.8911 199.915 59.7924 199.333 59.7218C197.746 59.5243 197.658 59.3197 198.406 57.8982C199.217 56.3497 199.975 54.7765 200.91 52.9071C198.956 53.1469 197.404 53.3056 195.862 53.5314C193.354 53.9018 193.358 53.9229 193.263 51.3515C191.859 52.3074 190.561 53.2245 189.224 54.0817C188.875 54.3074 188.409 54.3568 187.996 54.4873C187.926 54.064 187.764 53.6302 187.799 53.2139C188.025 50.7589 187.968 48.3286 187.393 45.7995C187.118 45.9971 186.945 46.1029 186.79 46.2299C185.496 47.3022 185.46 47.2881 184.698 45.8736C184.289 45.1188 183.841 44.3815 183.33 43.4962C182.882 44.2581 182.55 44.7978 182.243 45.3516C181.199 47.2457 181.203 47.2457 179.542 45.9724C179.496 45.9371 179.39 45.9794 178.952 46.0112C178.935 48.4168 178.928 50.8506 178.893 53.2845C178.885 53.676 178.773 54.064 178.709 54.452C178.3 54.3391 177.831 54.3109 177.489 54.0922C176.124 53.221 174.797 52.2933 173.326 51.2986C173.305 51.6831 173.281 51.8065 173.295 51.9229C173.577 53.9194 173.58 53.9018 171.57 53.6266C169.757 53.3797 167.94 53.1751 165.753 52.9035C166.773 54.9282 167.57 56.6002 168.448 58.2298C168.949 59.1575 168.706 59.5525 167.714 59.6725C166.991 59.7606 166.275 59.8947 165.556 60.0111C165.51 60.1663 165.464 60.3215 165.418 60.4731C168.455 62.2685 171.489 64.0604 174.522 65.8558C177.93 64.3744 178.572 64.3955 182.596 66.1521ZM178.039 80.2049C178.018 83.0832 180.37 85.4606 183.256 85.4853C186.113 85.51 188.515 83.115 188.519 80.2473C188.522 77.3549 186.176 74.9916 183.295 74.9845C180.399 74.9739 178.057 77.302 178.039 80.2049ZM176.914 78.1909C175.57 77.2032 174.409 76.3214 173.214 75.4924C172.857 75.2455 172.406 75.0339 171.986 75.0057C169.531 74.8434 167.249 76.4977 166.625 78.8222C165.975 81.2561 167.111 83.7746 169.376 84.9139C172.261 86.3672 176.152 84.6952 176.698 81.6899C176.924 80.466 176.861 79.1856 176.914 78.1909ZM178.261 66.0886C175.651 66.0992 173.443 68.0957 173.076 70.7729C172.748 73.1715 174.49 75.7993 176.882 76.3778C177.277 76.473 177.926 76.3284 178.184 76.0462C179.316 74.8011 180.674 74.0674 182.307 73.7041C182.716 73.6124 183.213 73.108 183.337 72.6953C184.325 69.4325 181.711 66.0745 178.261 66.0886ZM177.542 83.4818C175.676 85.6194 175.665 85.5947 173.326 86.5859C172.967 86.7375 172.621 87.1749 172.487 87.5559C171.513 90.353 173.362 93.5523 176.289 94.2225C178.97 94.8362 182.074 93.0444 182.512 90.5223C182.72 89.3336 182.646 88.0991 182.706 86.7904C180.571 86.5153 178.815 85.4642 177.542 83.4818ZM189.065 83.3795C188.021 85.0515 186.688 86.0709 184.945 86.5788C184.617 86.674 184.272 87.0656 184.131 87.4042C183.312 89.4007 184.102 91.9121 185.922 93.2842C187.771 94.6775 190.296 94.6846 192.183 93.2983C194.011 91.9544 194.825 89.4535 194.028 87.4324C193.894 87.0938 193.552 86.6917 193.224 86.5964C191.478 86.085 190.145 85.062 189.065 83.3795ZM189.605 78.0215C189.686 79.2878 189.556 80.6106 189.891 81.7958C190.469 83.824 191.954 85.0797 194.078 85.3936C196.31 85.7252 198.085 84.8716 199.291 82.9845C200.448 81.1749 200.399 79.2878 199.294 77.4607C199.122 77.1715 198.617 76.8505 198.332 76.9034C196.48 77.242 194.811 76.7834 193.393 75.9792C192.049 76.7058 190.836 77.3584 189.605 78.0215ZM184.896 73.5701C185.986 74.3708 187.171 75.2808 188.402 76.1203C188.734 76.3461 189.242 76.4942 189.623 76.4272C191.686 76.0533 193.379 74.0745 193.616 71.8734C193.859 69.623 192.607 67.4855 190.497 66.5507C188.487 65.6583 186.064 66.1063 184.67 67.69C184.441 67.9511 184.321 68.4167 184.353 68.7729C184.494 70.3743 184.709 71.9722 184.896 73.5701ZM194.099 74.7059C196.409 76.3708 199.496 75.8734 201.196 73.5983C202.924 71.2808 202.522 68.2015 200.25 66.3461C198.148 64.6283 195.033 64.8682 193.295 66.9211C195.22 69.3338 195.404 71.9616 194.099 74.7059ZM183.27 92.2401C182.134 94.0285 180.716 95.069 178.847 95.5241C178.54 95.5981 178.12 96.0073 178.088 96.2965C177.855 98.4341 178.734 100.11 180.508 101.249C182.353 102.434 184.289 102.409 186.12 101.207C187.845 100.071 188.67 98.4165 188.476 96.3354C188.452 96.0567 188.123 95.6369 187.866 95.5734C185.929 95.1008 184.395 94.0814 183.27 92.2401ZM173.468 66.8682C171.048 64.5401 167.722 64.7024 165.655 67.1433C163.743 69.4008 164.173 72.9316 166.6 74.6565C166.9 74.8716 167.401 75.0868 167.697 74.981C169.136 74.4731 170.536 73.8593 172.021 73.2526C171.411 71.048 171.82 68.8505 173.468 66.8682Z" fill="black"/>
<path d="M60.1348 125.619C61.1683 125.792 62.0854 125.912 62.9849 126.113C63.3164 126.187 63.7856 126.399 63.8596 126.645C63.9337 126.899 63.6868 127.376 63.4363 127.58C61.9725 128.79 60.4699 129.951 58.8967 131.196C61.6409 132.067 63.5245 133.813 63.909 136.758C64.2864 139.644 63.0836 141.866 60.5863 143.457C61.9161 145.608 62.2935 147.83 61.2424 150.141C60.1877 152.455 58.2724 153.64 55.8279 154.007C56.1807 159.524 54.9144 161.559 50.223 162.903C50.4241 165.393 49.7751 167.636 47.6763 169.248C46.3818 170.239 44.8897 170.67 43.2637 170.553C39.4365 170.278 37.3342 167.672 37.1085 162.867C35.1226 162.465 33.4083 161.545 32.3184 159.721C31.2567 157.95 31.1297 156.053 31.7046 154.106C25.6694 152.949 24.2867 147.481 26.8193 143.414C24.5089 141.792 23.2638 139.591 23.68 136.702C24.0998 133.802 25.9234 132.067 28.7311 131.199C27.2708 130.081 25.881 129.065 24.5512 127.975C24.1632 127.658 23.9481 127.132 23.6518 126.698C24.1103 126.48 24.5512 126.19 25.038 126.063C25.7646 125.869 26.523 125.785 27.3837 125.633C26.6218 123.954 25.8599 122.37 25.1791 120.755C24.4172 118.945 24.5759 118.737 26.4736 118.91C28.4101 119.086 30.3466 119.295 32.3501 119.496C32.3501 118.571 32.3501 117.672 32.3501 116.55C34.5194 117.023 35.9339 118.593 37.7963 119.485C37.9162 117.795 38.0009 116.134 38.1596 114.476C38.2408 113.637 38.4171 112.801 38.6146 111.979C38.8651 110.931 39.2249 110.825 40.0785 111.485C40.4418 111.764 40.7981 112.053 41.2284 112.392C41.7575 111.513 42.2443 110.684 42.7557 109.87C43.6093 108.519 43.9303 108.512 44.7733 109.817C45.0485 110.243 45.306 110.684 45.5635 111.118C45.7998 111.513 46.0255 111.908 46.2477 112.289C46.3853 112.261 46.4806 112.268 46.537 112.222C48.7098 110.519 48.798 110.522 49.2072 113.288C49.5035 115.295 49.6234 117.323 49.835 119.485C50.8615 118.832 51.9408 118.145 53.0202 117.464C53.38 117.238 53.7327 117.002 54.1137 116.818C54.872 116.459 55.3623 116.593 55.2918 117.563C55.2495 118.152 55.186 118.741 55.1119 119.517C56.2336 119.393 57.3023 119.27 58.3711 119.16C59.4681 119.048 60.5651 118.956 61.6586 118.843C62.678 118.737 63.0342 119.157 62.6321 120.106C62.0184 121.545 61.3658 122.97 60.7274 124.399C60.5616 124.765 60.3711 125.129 60.1348 125.619ZM43.0273 133.351C43.2954 132.07 43.2778 130.977 41.9056 130.247C41.0167 129.774 40.2019 129.129 39.4436 128.458C39.1085 128.162 38.9956 127.612 38.7804 127.175C39.2637 127.263 39.8245 127.224 40.2196 127.46C41.1508 128.014 42.0009 128.702 43.1402 129.517C43.1402 128.663 43.1402 128.092 43.1402 127.524C43.1402 125.658 43.1085 123.792 43.1755 121.929C43.1861 121.605 43.6164 121.298 43.8527 120.981C44.0361 121.302 44.3289 121.608 44.3747 121.947C44.4594 122.571 44.403 123.217 44.403 123.852C44.403 125.658 44.403 127.46 44.403 129.513C45.4753 128.758 46.2689 128.123 47.1366 127.626C47.6128 127.354 48.5828 127.044 48.7063 127.213C49.2848 127.996 48.3994 128.25 47.9409 128.607C47.1754 129.206 46.3747 129.764 45.5846 130.335C44.2407 131.305 44.1102 131.704 44.6358 133.428C47.2283 131.622 49.8985 131.52 52.5193 133.079C55.514 131.005 59.0766 129.986 61.7009 127.206C60.9284 127.09 60.3464 126.991 59.7644 126.921C58.1771 126.723 58.0889 126.518 58.8367 125.097C59.648 123.548 60.4064 121.975 61.3411 120.106C59.387 120.346 57.835 120.504 56.2935 120.73C53.7856 121.1 53.7891 121.122 53.6939 118.55C52.29 119.506 50.992 120.423 49.6551 121.28C49.3059 121.506 48.8403 121.556 48.4276 121.686C48.3571 121.263 48.1948 120.829 48.2301 120.413C48.4558 117.958 48.3994 115.527 47.8245 112.998C47.5493 113.196 47.3765 113.302 47.2213 113.429C45.9268 114.501 45.8915 114.487 45.1296 113.072C44.7204 112.317 44.2725 111.58 43.761 110.695C43.313 111.457 42.9815 111.996 42.6746 112.55C41.6305 114.444 41.634 114.444 39.9727 113.171C39.9268 113.136 39.821 113.178 39.3836 113.21C39.366 115.616 39.3589 118.049 39.3236 120.483C39.3166 120.875 39.2037 121.263 39.1402 121.651C38.7311 121.538 38.2619 121.51 37.9198 121.291C36.5547 120.42 35.2284 119.492 33.7575 118.497C33.7364 118.882 33.7117 119.005 33.7258 119.122C34.008 121.118 34.0115 121.1 32.0009 120.825C30.1879 120.578 28.3713 120.374 26.1844 120.102C27.2038 122.127 28.001 123.799 28.8793 125.429C29.3801 126.356 29.1368 126.751 28.1456 126.871C27.4225 126.959 26.7064 127.093 25.9869 127.21C25.941 127.365 25.8951 127.52 25.8493 127.672C28.8863 129.467 31.9198 131.259 34.9533 133.055C38.3607 131.573 39.0026 131.594 43.0273 133.351ZM38.47 147.404C38.4489 150.282 40.8016 152.659 43.6869 152.684C46.544 152.709 48.9462 150.314 48.9497 147.446C48.9532 144.554 46.6075 142.19 43.7257 142.183C40.8333 142.173 38.4877 144.501 38.47 147.404ZM37.3448 145.39C36.0009 144.402 34.8404 143.52 33.6447 142.691C33.2884 142.444 32.8369 142.233 32.4172 142.204C29.9622 142.042 27.68 143.696 27.0556 146.021C26.4066 148.455 27.5424 150.973 29.8069 152.113C32.6923 153.566 36.5829 151.894 37.1297 148.889C37.3554 147.665 37.2919 146.384 37.3448 145.39ZM38.6923 133.287C36.082 133.298 33.8739 135.294 33.5071 137.972C33.1791 140.37 34.9215 142.998 37.3131 143.577C37.7081 143.672 38.3571 143.527 38.6146 143.245C39.7469 142 41.1049 141.266 42.7381 140.903C43.1472 140.811 43.6446 140.307 43.7681 139.894C44.7557 136.631 42.142 133.273 38.6923 133.287ZM37.9727 150.681C36.1067 152.818 36.0962 152.793 33.7575 153.785C33.3978 153.936 33.0521 154.374 32.918 154.755C31.9445 157.552 33.7928 160.751 36.7205 161.421C39.4012 162.035 42.5053 160.243 42.9427 157.721C43.1508 156.532 43.0767 155.298 43.1367 153.989C41.0026 153.714 39.246 152.663 37.9727 150.681ZM49.4964 150.578C48.4523 152.25 47.119 153.27 45.3765 153.778C45.0485 153.873 44.7028 154.264 44.5617 154.603C43.7434 156.599 44.5335 159.111 46.3536 160.483C48.2019 161.876 50.7274 161.883 52.6145 160.497C54.4417 159.153 55.2565 156.652 54.4593 154.631C54.3253 154.293 53.9831 153.89 53.6551 153.795C51.9126 153.284 50.5758 152.261 49.4964 150.578ZM50.0361 145.22C50.1172 146.487 49.9867 147.809 50.3218 148.994C50.9003 151.023 52.3853 152.278 54.5087 152.592C56.7415 152.924 58.5157 152.07 59.7221 150.183C60.879 148.374 60.8297 146.487 59.7256 144.659C59.5528 144.37 59.0484 144.049 58.7627 144.102C56.9108 144.441 55.2424 143.982 53.8244 143.178C52.484 143.905 51.2671 144.557 50.0361 145.22ZM45.3271 140.769C46.4171 141.569 47.6022 142.48 48.8333 143.319C49.1648 143.545 49.6728 143.693 50.0537 143.626C52.1172 143.252 53.8103 141.273 54.0466 139.072C54.29 136.822 53.0378 134.684 50.9285 133.749C48.9179 132.857 46.4947 133.305 45.1014 134.889C44.8721 135.15 44.7522 135.615 44.7839 135.972C44.925 137.573 45.1402 139.171 45.3271 140.769ZM54.5299 141.905C56.8403 143.569 59.9267 143.072 61.6268 140.797C63.3552 138.48 62.9531 135.4 60.6815 133.545C58.5792 131.827 55.4646 132.067 53.7257 134.12C55.6516 136.532 55.835 139.16 54.5299 141.905ZM43.701 159.439C42.5652 161.227 41.1473 162.268 39.2778 162.723C38.9709 162.797 38.5512 163.206 38.5159 163.495C38.2831 165.633 39.1614 167.308 40.9356 168.448C42.7804 169.633 44.7169 169.608 46.5476 168.405C48.2724 167.269 49.0978 165.615 48.9038 163.534C48.8791 163.255 48.5511 162.836 48.2936 162.772C46.3606 162.3 44.8263 161.28 43.701 159.439ZM33.8986 134.067C31.4789 131.739 28.1526 131.901 26.0856 134.342C24.1738 136.6 24.6042 140.13 27.031 141.855C27.3308 142.07 27.8316 142.286 28.1279 142.18C29.5671 141.672 30.9674 141.058 32.4524 140.451C31.8422 138.247 32.2514 136.049 33.8986 134.067Z" fill="black"/>
<path d="M115.97 125.619C117.004 125.792 117.921 125.912 118.82 126.113C119.152 126.187 119.621 126.399 119.695 126.645C119.769 126.899 119.522 127.376 119.272 127.58C117.808 128.79 116.305 129.951 114.732 131.196C117.476 132.067 119.36 133.813 119.744 136.758C120.122 139.644 118.919 141.866 116.422 143.457C117.752 145.608 118.129 147.83 117.078 150.141C116.023 152.455 114.108 153.64 111.663 154.007C112.016 159.524 110.75 161.559 106.058 162.903C106.26 165.393 105.611 167.636 103.512 169.248C102.217 170.239 100.725 170.67 99.0991 170.553C95.272 170.278 93.1697 167.672 92.9439 162.867C90.9581 162.465 89.2438 161.545 88.1538 159.721C87.0921 157.95 86.9651 156.053 87.5401 154.106C81.5049 152.949 80.1222 147.481 82.6548 143.414C80.3444 141.792 79.0992 139.591 79.5155 136.702C79.9352 133.802 81.7588 132.067 84.5666 131.199C83.1063 130.081 81.7165 129.065 80.3867 127.975C79.9987 127.658 79.7835 127.132 79.4872 126.698C79.9458 126.48 80.3867 126.19 80.8735 126.063C81.6001 125.869 82.3585 125.785 83.2191 125.633C82.4572 123.954 81.6953 122.37 81.0146 120.755C80.2527 118.945 80.4114 118.737 82.3091 118.91C84.2456 119.086 86.1821 119.295 88.1856 119.496C88.1856 118.571 88.1856 117.672 88.1856 116.55C90.3549 117.023 91.7693 118.593 93.6318 119.485C93.7517 117.795 93.8363 116.134 93.9951 114.476C94.0762 113.637 94.2526 112.801 94.4501 111.979C94.7005 110.931 95.0603 110.825 95.9139 111.485C96.2772 111.764 96.6335 112.053 97.0638 112.392C97.5929 111.513 98.0797 110.684 98.5912 109.87C99.4448 108.519 99.7658 108.512 100.609 109.817C100.884 110.243 101.141 110.684 101.399 111.118C101.635 111.513 101.861 111.908 102.083 112.289C102.221 112.261 102.316 112.268 102.372 112.222C104.545 110.519 104.633 110.522 105.043 113.288C105.339 115.295 105.459 117.323 105.67 119.485C106.697 118.832 107.776 118.145 108.856 117.464C109.215 117.238 109.568 117.002 109.949 116.818C110.707 116.459 111.198 116.593 111.127 117.563C111.085 118.152 111.021 118.741 110.947 119.517C112.069 119.393 113.138 119.27 114.207 119.16C115.304 119.048 116.401 118.956 117.494 118.843C118.513 118.737 118.87 119.157 118.468 120.106C117.854 121.545 117.201 122.97 116.563 124.399C116.401 124.765 116.21 125.129 115.97 125.619ZM98.8663 133.351C99.1344 132.07 99.1167 130.977 97.7446 130.247C96.8557 129.774 96.0409 129.129 95.2825 128.458C94.9475 128.162 94.8346 127.612 94.6194 127.175C95.1027 127.263 95.6635 127.224 96.0586 127.46C96.9898 128.014 97.8398 128.702 98.9792 129.517C98.9792 128.663 98.9792 128.092 98.9792 127.524C98.9792 125.658 98.9474 123.792 99.0145 121.929C99.025 121.605 99.4554 121.298 99.6917 120.981C99.8751 121.302 100.168 121.608 100.214 121.947C100.298 122.571 100.242 123.217 100.242 123.852C100.242 125.658 100.242 127.46 100.242 129.513C101.314 128.758 102.108 128.123 102.976 127.626C103.452 127.354 104.422 127.044 104.545 127.213C105.124 127.996 104.238 128.25 103.78 128.607C103.014 129.206 102.214 129.764 101.424 130.335C100.08 131.305 99.9492 131.704 100.475 133.428C103.067 131.622 105.738 131.52 108.358 133.079C111.353 131.005 114.916 129.986 117.54 127.206C116.767 127.09 116.185 126.991 115.603 126.921C114.016 126.723 113.928 126.518 114.676 125.097C115.487 123.548 116.245 121.975 117.18 120.106C115.226 120.346 113.674 120.504 112.133 120.73C109.625 121.1 109.628 121.122 109.533 118.55C108.129 119.506 106.831 120.423 105.494 121.28C105.145 121.506 104.679 121.556 104.267 121.686C104.196 121.263 104.034 120.829 104.069 120.413C104.295 117.958 104.238 115.527 103.663 112.998C103.388 113.196 103.215 113.302 103.06 113.429C101.766 114.501 101.73 114.487 100.969 113.072C100.559 112.317 100.111 111.58 99.6 110.695C99.152 111.457 98.8204 111.996 98.5136 112.55C97.4695 114.444 97.473 114.444 95.8116 113.171C95.7658 113.136 95.66 113.178 95.2226 113.21C95.205 115.616 95.1979 118.049 95.1626 120.483C95.1556 120.875 95.0427 121.263 94.9792 121.651C94.57 121.538 94.1009 121.51 93.7587 121.291C92.3937 120.42 91.0674 119.492 89.5965 118.497C89.5754 118.882 89.5507 119.005 89.5648 119.122C89.847 121.118 89.8505 121.1 87.8399 120.825C86.0269 120.578 84.2103 120.374 82.0234 120.102C83.0428 122.127 83.8399 123.799 84.7182 125.429C85.2191 126.356 84.9757 126.751 83.9846 126.871C83.2615 126.959 82.5454 127.093 81.8258 127.21C81.78 127.365 81.7341 127.52 81.6883 127.672C84.7253 129.467 87.7588 131.259 90.7923 133.055C94.1997 131.573 94.8416 131.594 98.8663 133.351ZM94.3055 147.404C94.2843 150.282 96.637 152.659 99.5224 152.684C102.38 152.709 104.782 150.314 104.785 147.446C104.789 144.554 102.443 142.19 99.5612 142.183C96.6688 142.173 94.3266 144.501 94.3055 147.404ZM93.1838 145.39C91.8399 144.402 90.6794 143.52 89.4836 142.691C89.1274 142.444 88.6759 142.233 88.2561 142.204C85.8011 142.042 83.519 143.696 82.8946 146.021C82.2456 148.455 83.3814 150.973 85.6459 152.113C88.5313 153.566 92.4219 151.894 92.9686 148.889C93.1909 147.665 93.1309 146.384 93.1838 145.39ZM94.5277 133.287C91.9175 133.298 89.7094 135.294 89.3425 137.972C89.0145 140.37 90.757 142.998 93.1485 143.577C93.5436 143.672 94.1926 143.527 94.4501 143.245C95.5824 142 96.9404 141.266 98.5735 140.903C98.9827 140.811 99.4801 140.307 99.6035 139.894C100.591 136.631 97.9774 133.273 94.5277 133.287ZM93.8081 150.681C91.9422 152.818 91.9316 152.793 89.593 153.785C89.2332 153.936 88.8875 154.374 88.7535 154.755C87.78 157.552 89.6283 160.751 92.5559 161.421C95.2367 162.035 98.3407 160.243 98.7781 157.721C98.9862 156.532 98.9122 155.298 98.9721 153.989C96.8381 153.714 95.085 152.663 93.8081 150.681ZM105.332 150.578C104.288 152.25 102.954 153.27 101.212 153.778C100.884 153.873 100.538 154.264 100.397 154.603C99.5788 156.599 100.369 159.111 102.189 160.483C104.037 161.876 106.563 161.883 108.45 160.497C110.277 159.153 111.092 156.652 110.295 154.631C110.161 154.293 109.819 153.89 109.491 153.795C107.748 153.284 106.415 152.261 105.332 150.578ZM105.875 145.22C105.956 146.487 105.826 147.809 106.161 148.994C106.739 151.023 108.224 152.278 110.348 152.592C112.58 152.924 114.355 152.07 115.561 150.183C116.718 148.374 116.669 146.487 115.565 144.659C115.392 144.37 114.887 144.049 114.602 144.102C112.75 144.441 111.081 143.982 109.663 143.178C108.32 143.905 107.106 144.557 105.875 145.22ZM101.166 140.769C102.256 141.569 103.441 142.48 104.672 143.319C105.004 143.545 105.512 143.693 105.893 143.626C107.956 143.252 109.649 141.273 109.886 139.072C110.129 136.822 108.877 134.684 106.767 133.749C104.757 132.857 102.334 133.305 100.94 134.889C100.711 135.15 100.591 135.615 100.623 135.972C100.764 137.573 100.976 139.171 101.166 140.769ZM110.365 141.905C112.676 143.569 115.762 143.072 117.462 140.797C119.191 138.48 118.789 135.4 116.517 133.545C114.415 131.827 111.3 132.067 109.561 134.12C111.491 136.532 111.67 139.16 110.365 141.905ZM99.5365 159.439C98.4007 161.227 96.9827 162.268 95.1132 162.723C94.8064 162.797 94.3866 163.206 94.3513 163.495C94.1185 165.633 94.9968 167.308 96.7711 168.448C98.6158 169.633 100.552 169.608 102.383 168.405C104.108 167.269 104.933 165.615 104.739 163.534C104.715 163.255 104.387 162.836 104.129 162.772C102.196 162.3 100.662 161.28 99.5365 159.439ZM89.7376 134.067C87.3179 131.739 83.9916 131.901 81.9246 134.342C80.0128 136.6 80.4431 140.13 82.8699 141.855C83.1698 142.07 83.6706 142.286 83.9669 142.18C85.4061 141.672 86.8064 141.058 88.2914 140.451C87.6812 138.247 88.0868 136.049 89.7376 134.067Z" fill="black"/>
<path d="M171.806 125.619C172.84 125.792 173.757 125.912 174.656 126.113C174.988 126.187 175.457 126.399 175.531 126.645C175.605 126.899 175.358 127.376 175.108 127.58C173.644 128.79 172.141 129.951 170.568 131.196C173.312 132.067 175.196 133.813 175.58 136.758C175.958 139.644 174.755 141.866 172.258 143.457C173.587 145.608 173.965 147.83 172.914 150.141C171.859 152.455 169.944 153.64 167.499 154.007C167.852 159.524 166.586 161.559 161.894 162.903C162.095 165.393 161.446 167.636 159.348 169.248C158.053 170.239 156.561 170.67 154.935 170.553C151.108 170.278 149.006 167.672 148.78 162.867C146.794 162.465 145.08 161.545 143.99 159.721C142.928 157.95 142.801 156.053 143.376 154.106C137.341 152.949 135.958 147.481 138.491 143.414C136.18 141.792 134.935 139.591 135.351 136.702C135.771 133.802 137.595 132.067 140.403 131.199C138.942 130.081 137.552 129.065 136.223 127.975C135.835 127.658 135.619 127.132 135.323 126.698C135.782 126.48 136.223 126.19 136.709 126.063C137.436 125.869 138.194 125.785 139.055 125.633C138.293 123.954 137.531 122.37 136.851 120.755C136.089 118.945 136.247 118.737 138.145 118.91C140.082 119.086 142.018 119.295 144.022 119.496C144.022 118.571 144.022 117.672 144.022 116.55C146.191 117.023 147.605 118.593 149.468 119.485C149.588 117.795 149.672 116.134 149.831 114.476C149.912 113.637 150.088 112.801 150.286 111.979C150.536 110.931 150.896 110.825 151.75 111.485C152.113 111.764 152.469 112.053 152.903 112.392C153.432 111.513 153.919 110.684 154.431 109.87C155.284 108.519 155.605 108.512 156.448 109.817C156.723 110.243 156.981 110.684 157.238 111.118C157.475 111.513 157.7 111.908 157.923 112.289C158.06 112.261 158.155 112.268 158.212 112.222C160.385 110.519 160.473 110.522 160.882 113.288C161.178 115.295 161.298 117.323 161.51 119.485C162.536 118.832 163.616 118.145 164.695 117.464C165.055 117.238 165.408 117.002 165.789 116.818C166.547 116.459 167.037 116.593 166.967 117.563C166.924 118.152 166.861 118.741 166.787 119.517C167.908 119.393 168.977 119.27 170.046 119.16C171.143 119.048 172.24 118.956 173.334 118.843C174.353 118.737 174.709 119.157 174.307 120.106C173.693 121.545 173.041 122.97 172.402 124.399C172.233 124.765 172.042 125.129 171.806 125.619ZM154.699 133.351C154.967 132.07 154.949 130.977 153.577 130.247C152.688 129.774 151.873 129.129 151.115 128.458C150.78 128.162 150.667 127.612 150.452 127.175C150.935 127.263 151.496 127.224 151.891 127.46C152.822 128.014 153.672 128.702 154.812 129.517C154.812 128.663 154.812 128.092 154.812 127.524C154.812 125.658 154.78 123.792 154.847 121.929C154.857 121.605 155.288 121.298 155.524 120.981C155.708 121.302 156 121.608 156.046 121.947C156.131 122.571 156.074 123.217 156.074 123.852C156.074 125.658 156.074 127.46 156.074 129.513C157.147 128.758 157.94 128.123 158.808 127.626C159.284 127.354 160.254 127.044 160.378 127.213C160.956 127.996 160.071 128.25 159.612 128.607C158.847 129.206 158.046 129.764 157.256 130.335C155.912 131.305 155.782 131.704 156.307 133.428C158.9 131.622 161.57 131.52 164.191 133.079C167.185 131.005 170.748 129.986 173.372 127.206C172.6 127.09 172.018 126.991 171.436 126.921C169.849 126.723 169.76 126.518 170.508 125.097C171.319 123.548 172.078 121.975 173.013 120.106C171.058 120.346 169.506 120.504 167.965 120.73C165.457 121.1 165.461 121.122 165.365 118.55C163.961 119.506 162.663 120.423 161.327 121.28C160.977 121.506 160.512 121.556 160.099 121.686C160.028 121.263 159.866 120.829 159.901 120.413C160.127 117.958 160.071 115.527 159.496 112.998C159.221 113.196 159.048 113.302 158.893 113.429C157.598 114.501 157.563 114.487 156.801 113.072C156.392 112.317 155.944 111.58 155.432 110.695C154.984 111.457 154.653 111.996 154.346 112.55C153.302 114.444 153.305 114.444 151.644 113.171C151.598 113.136 151.492 113.178 151.055 113.21C151.037 115.616 151.03 118.049 150.995 120.483C150.988 120.875 150.875 121.263 150.812 121.651C150.402 121.538 149.933 121.51 149.591 121.291C148.226 120.42 146.9 119.492 145.429 118.497C145.408 118.882 145.383 119.005 145.397 119.122C145.679 121.118 145.683 121.1 143.672 120.825C141.859 120.578 140.043 120.374 137.856 120.102C138.875 122.127 139.672 123.799 140.551 125.429C141.052 126.356 140.808 126.751 139.817 126.871C139.094 126.959 138.378 127.093 137.658 127.21C137.612 127.365 137.567 127.52 137.521 127.672C140.558 129.467 143.591 131.259 146.625 133.055C150.032 131.573 150.674 131.594 154.699 133.351ZM150.141 147.404C150.12 150.282 152.473 152.659 155.358 152.684C158.215 152.709 160.618 150.314 160.621 147.446C160.625 144.554 158.279 142.19 155.397 142.183C152.501 142.173 150.159 144.501 150.141 147.404ZM149.016 145.39C147.672 144.402 146.512 143.52 145.316 142.691C144.96 142.444 144.508 142.233 144.089 142.204C141.634 142.042 139.351 143.696 138.727 146.021C138.078 148.455 139.214 150.973 141.478 152.113C144.364 153.566 148.254 151.894 148.801 148.889C149.027 147.665 148.963 146.384 149.016 145.39ZM150.364 133.287C147.753 133.298 145.545 135.294 145.178 137.972C144.85 140.37 146.593 142.998 148.984 143.577C149.38 143.672 150.029 143.527 150.286 143.245C151.418 142 152.776 141.266 154.409 140.903C154.819 140.811 155.316 140.307 155.439 139.894C156.427 136.631 153.813 133.273 150.364 133.287ZM149.644 150.681C147.778 152.818 147.768 152.793 145.429 153.785C145.069 153.936 144.723 154.374 144.589 154.755C143.616 157.552 145.464 160.751 148.392 161.421C151.073 162.035 154.173 160.243 154.614 157.721C154.822 156.532 154.748 155.298 154.808 153.989C152.674 153.714 150.917 152.663 149.644 150.681ZM161.168 150.578C160.124 152.25 158.79 153.27 157.048 153.778C156.72 153.873 156.374 154.264 156.233 154.603C155.415 156.599 156.205 159.111 158.025 160.483C159.873 161.876 162.399 161.883 164.286 160.497C166.113 159.153 166.928 156.652 166.131 154.631C165.997 154.293 165.655 153.89 165.326 153.795C163.58 153.284 162.247 152.261 161.168 150.578ZM161.707 145.22C161.789 146.487 161.658 147.809 161.993 148.994C162.572 151.023 164.057 152.278 166.18 152.592C168.413 152.924 170.187 152.07 171.393 150.183C172.55 148.374 172.501 146.487 171.397 144.659C171.224 144.37 170.72 144.049 170.434 144.102C168.582 144.441 166.914 143.982 165.496 143.178C164.152 143.905 162.938 144.557 161.707 145.22ZM156.999 140.769C158.088 141.569 159.274 142.48 160.505 143.319C160.836 143.545 161.344 143.693 161.725 143.626C163.789 143.252 165.482 141.273 165.718 139.072C165.961 136.822 164.709 134.684 162.6 133.749C160.589 132.857 158.166 133.305 156.773 134.889C156.543 135.15 156.424 135.615 156.455 135.972C156.596 137.573 156.812 139.171 156.999 140.769ZM166.201 141.905C168.512 143.569 171.598 143.072 173.298 140.797C175.027 138.48 174.625 135.4 172.353 133.545C170.251 131.827 167.136 132.067 165.397 134.12C167.323 136.532 167.506 139.16 166.201 141.905ZM155.372 159.439C154.237 161.227 152.819 162.268 150.949 162.723C150.642 162.797 150.223 163.206 150.187 163.495C149.954 165.633 150.833 167.308 152.607 168.448C154.452 169.633 156.388 169.608 158.219 168.405C159.944 167.269 160.769 165.615 160.575 163.534C160.551 163.255 160.222 162.836 159.965 162.772C158.032 162.3 156.498 161.28 155.372 159.439ZM145.57 134.067C143.15 131.739 139.824 131.901 137.757 134.342C135.845 136.6 136.276 140.13 138.702 141.855C139.002 142.07 139.503 142.286 139.799 142.18C141.238 141.672 142.639 141.058 144.124 140.451C143.514 138.247 143.923 136.049 145.57 134.067Z" fill="black"/>
<path d="M227.641 125.619C228.674 125.792 229.591 125.912 230.491 126.113C230.822 126.187 231.291 126.399 231.365 126.645C231.44 126.899 231.193 127.376 230.942 127.58C229.478 128.79 227.976 129.951 226.403 131.196C229.147 132.067 231.03 133.813 231.415 136.758C231.792 139.644 230.589 141.866 228.092 143.457C229.422 145.608 229.799 147.83 228.748 150.141C227.694 152.455 225.778 153.64 223.334 154.007C223.687 159.524 222.42 161.559 217.729 162.903C217.93 165.393 217.281 167.636 215.182 169.248C213.888 170.239 212.396 170.67 210.77 170.553C206.942 170.278 204.84 167.672 204.614 162.867C202.628 162.465 200.914 161.545 199.824 159.721C198.763 157.95 198.636 156.053 199.211 154.106C193.175 152.949 191.793 147.481 194.325 143.414C192.015 141.792 190.77 139.591 191.186 136.702C191.606 133.802 193.429 132.067 196.237 131.199C194.777 130.081 193.387 129.065 192.057 127.975C191.669 127.658 191.454 127.132 191.158 126.698C191.616 126.48 192.057 126.19 192.544 126.063C193.27 125.869 194.029 125.785 194.89 125.633C194.128 123.954 193.366 122.37 192.685 120.755C191.923 118.945 192.082 118.737 193.98 118.91C195.916 119.086 197.852 119.295 199.856 119.496C199.856 118.571 199.856 117.672 199.856 116.55C202.025 117.023 203.44 118.593 205.302 119.485C205.422 117.795 205.507 116.134 205.665 114.476C205.747 113.637 205.923 112.801 206.12 111.979C206.371 110.931 206.731 110.825 207.584 111.485C207.948 111.764 208.304 112.053 208.738 112.392C209.267 111.513 209.754 110.684 210.265 109.87C211.119 108.519 211.44 108.512 212.283 109.817C212.558 110.243 212.815 110.684 213.073 111.118C213.309 111.513 213.535 111.908 213.757 112.289C213.895 112.261 213.99 112.268 214.046 112.222C216.219 110.519 216.307 110.522 216.717 113.288C217.013 115.295 217.133 117.323 217.344 119.485C218.371 118.832 219.45 118.145 220.53 117.464C220.889 117.238 221.242 117.002 221.623 116.818C222.381 116.459 222.872 116.593 222.801 117.563C222.759 118.152 222.695 118.741 222.621 119.517C223.743 119.393 224.812 119.27 225.881 119.16C226.978 119.048 228.074 118.956 229.168 118.843C230.187 118.737 230.544 119.157 230.141 120.106C229.528 121.545 228.875 122.97 228.237 124.399C228.067 124.765 227.88 125.129 227.641 125.619ZM210.537 133.351C210.805 132.07 210.787 130.977 209.415 130.247C208.526 129.774 207.711 129.129 206.953 128.458C206.618 128.162 206.505 127.612 206.29 127.175C206.773 127.263 207.334 127.224 207.729 127.46C208.66 128.014 209.51 128.702 210.65 129.517C210.65 128.663 210.65 128.092 210.65 127.524C210.65 125.658 210.618 123.792 210.685 121.929C210.695 121.605 211.126 121.298 211.362 120.981C211.545 121.302 211.838 121.608 211.884 121.947C211.969 122.571 211.912 123.217 211.912 123.852C211.912 125.658 211.912 127.46 211.912 129.513C212.985 128.758 213.778 128.123 214.646 127.626C215.122 127.354 216.092 127.044 216.216 127.213C216.794 127.996 215.909 128.25 215.45 128.607C214.685 129.206 213.884 129.764 213.094 130.335C211.75 131.305 211.62 131.704 212.145 133.428C214.738 131.622 217.408 131.52 220.029 133.079C223.023 131.005 226.586 129.986 229.21 127.206C228.438 127.09 227.856 126.991 227.274 126.921C225.686 126.723 225.598 126.518 226.346 125.097C227.157 123.548 227.916 121.975 228.851 120.106C226.896 120.346 225.344 120.504 223.803 120.73C221.295 121.1 221.299 121.122 221.203 118.55C219.799 119.506 218.501 120.423 217.165 121.28C216.815 121.506 216.35 121.556 215.937 121.686C215.866 121.263 215.704 120.829 215.739 120.413C215.965 117.958 215.909 115.527 215.334 112.998C215.059 113.196 214.886 113.302 214.731 113.429C213.436 114.501 213.401 114.487 212.639 113.072C212.23 112.317 211.782 111.58 211.27 110.695C210.822 111.457 210.491 111.996 210.184 112.55C209.14 114.444 209.143 114.444 207.482 113.171C207.436 113.136 207.33 113.178 206.893 113.21C206.875 115.616 206.868 118.049 206.833 120.483C206.826 120.875 206.713 121.263 206.65 121.651C206.24 121.538 205.771 121.51 205.429 121.291C204.064 120.42 202.738 119.492 201.267 118.497C201.246 118.882 201.221 119.005 201.235 119.122C201.517 121.118 201.521 121.1 199.51 120.825C197.697 120.578 195.881 120.374 193.694 120.102C194.713 122.127 195.51 123.799 196.389 125.429C196.89 126.356 196.646 126.751 195.655 126.871C194.932 126.959 194.216 127.093 193.496 127.21C193.45 127.365 193.405 127.52 193.359 127.672C196.396 129.467 199.429 131.259 202.463 133.055C205.87 131.573 206.512 131.594 210.537 133.351ZM205.976 147.404C205.955 150.282 208.307 152.659 211.193 152.684C214.05 152.709 216.452 150.314 216.456 147.446C216.459 144.554 214.113 142.19 211.232 142.183C208.339 142.173 205.997 144.501 205.976 147.404ZM204.854 145.39C203.51 144.402 202.35 143.52 201.154 142.691C200.798 142.444 200.346 142.233 199.927 142.204C197.472 142.042 195.189 143.696 194.565 146.021C193.916 148.455 195.052 150.973 197.316 152.113C200.202 153.566 204.092 151.894 204.639 148.889C204.861 147.665 204.798 146.384 204.854 145.39ZM206.198 133.287C203.588 133.298 201.38 135.294 201.013 137.972C200.685 140.37 202.427 142.998 204.819 143.577C205.214 143.672 205.863 143.527 206.12 143.245C207.253 142 208.611 141.266 210.244 140.903C210.653 140.811 211.15 140.307 211.274 139.894C212.262 136.631 209.648 133.273 206.198 133.287ZM205.479 150.681C203.613 152.818 203.602 152.793 201.263 153.785C200.904 153.936 200.558 154.374 200.424 154.755C199.45 157.552 201.299 160.751 204.226 161.421C206.907 162.035 210.008 160.243 210.449 157.721C210.657 156.532 210.583 155.298 210.643 153.989C208.509 153.714 206.752 152.663 205.479 150.681ZM217.002 150.578C215.958 152.25 214.625 153.27 212.882 153.778C212.554 153.873 212.209 154.264 212.068 154.603C211.249 156.599 212.039 159.111 213.859 160.483C215.708 161.876 218.233 161.883 220.12 160.497C221.948 159.153 222.762 156.652 221.965 154.631C221.831 154.293 221.489 153.89 221.161 153.795C219.418 153.284 218.082 152.261 217.002 150.578ZM217.545 145.22C217.627 146.487 217.496 147.809 217.831 148.994C218.41 151.023 219.895 152.278 222.018 152.592C224.251 152.924 226.025 152.07 227.231 150.183C228.388 148.374 228.339 146.487 227.235 144.659C227.062 144.37 226.558 144.049 226.272 144.102C224.42 144.441 222.752 143.982 221.334 143.178C219.99 143.905 218.776 144.557 217.545 145.22ZM212.833 140.769C213.923 141.569 215.108 142.48 216.339 143.319C216.671 143.545 217.179 143.693 217.56 143.626C219.623 143.252 221.316 141.273 221.552 139.072C221.796 136.822 220.544 134.684 218.434 133.749C216.424 132.857 214.001 133.305 212.607 134.889C212.378 135.15 212.258 135.615 212.29 135.972C212.431 137.573 212.646 139.171 212.833 140.769ZM222.036 141.905C224.346 143.569 227.433 143.072 229.133 140.797C230.861 138.48 230.459 135.4 228.187 133.545C226.085 131.827 222.97 132.067 221.231 134.12C223.157 136.532 223.341 139.16 222.036 141.905ZM211.207 159.439C210.071 161.227 208.653 162.268 206.784 162.723C206.477 162.797 206.057 163.206 206.022 163.495C205.789 165.633 206.667 167.308 208.441 168.448C210.286 169.633 212.223 169.608 214.053 168.405C215.778 167.269 216.604 165.615 216.41 163.534C216.385 163.255 216.057 162.836 215.799 162.772C213.866 162.3 212.332 161.28 211.207 159.439ZM201.408 134.067C198.988 131.739 195.662 131.901 193.595 134.342C191.683 136.6 192.114 140.13 194.54 141.855C194.84 142.07 195.341 142.286 195.637 142.18C197.076 141.672 198.477 141.058 199.962 140.451C199.348 138.247 199.757 136.049 201.408 134.067Z" fill="black"/>
</g>
<rect x="2.5" y="2.5" width="45" height="44" transform="matrix(0 -1 -1 0 47 178)" fill="#EA4335" stroke="black" stroke-width="5"/>
<rect x="2.5" y="2.5" width="44" height="44" transform="matrix(0 -1 -1 0 47 135)" fill="#4285F4" stroke="black" stroke-width="5"/>
<rect x="2.5" y="2.5" width="45" height="45" transform="matrix(0 -1 -1 0 47 93)" fill="#34A853" stroke="black" stroke-width="5"/>
<rect x="2.5" y="2.5" width="45" height="45" transform="matrix(0 -1 -1 0 47 50)" fill="#F9AB00" stroke="black" stroke-width="5"/>
<defs>
<clipPath id="clip0_1281_762">
<rect width="161" height="133" fill="white" transform="matrix(-1 0 0 1 209 5)"/>
</clipPath>
</defs>
</svg>
