<svg width="79" height="79" viewBox="0 0 79 79" fill="none" xmlns="http://www.w3.org/2000/svg">
<g clip-path="url(#clip0_1230_916)">
<path d="M79 39.5C79 50.1012 74.8231 59.7277 68.0254 66.8225C60.8356 74.3272 50.7132 79 39.5 79C28.2868 79 18.1644 74.3272 10.9746 66.8225C4.17686 59.7277 0 50.1012 0 39.5C0 17.6847 17.6847 0 39.5 0C61.3153 0 79 17.6847 79 39.5Z" fill="#F9AB00"/>
<path d="M39.4999 37.8361C44.1369 37.8361 47.8959 34.0771 47.8959 29.4401C47.8959 24.8032 44.1369 21.0442 39.4999 21.0442C34.863 21.0442 31.104 24.8032 31.104 29.4401C31.104 34.0771 34.863 37.8361 39.4999 37.8361Z" fill="white"/>
<path d="M53.645 50.2529V52.6279C53.645 53.4233 52.9997 54.0686 52.2043 54.0686H26.7957C26.0003 54.0686 25.355 53.4233 25.355 52.6279V50.2529C25.355 45.7644 27.3647 40.0023 33.2371 38.9309C35.1251 40.3367 36.884 40.9276 39.5 40.9276C42.116 40.9276 44.1127 40.327 45.7401 38.9569C51.8366 40.1208 53.645 46.1207 53.645 50.2537V50.2529Z" fill="white"/>
<path d="M20.9112 42.3717C24.2522 42.3717 26.9606 39.6633 26.9606 36.3223C26.9606 32.9814 24.2522 30.2729 20.9112 30.2729C17.5702 30.2729 14.8618 32.9814 14.8618 36.3223C14.8618 39.6633 17.5702 42.3717 20.9112 42.3717Z" fill="white"/>
<path d="M24.0959 52.6288C24.0959 53.158 24.2485 53.6523 24.5139 54.0695H11.7577C11.1838 54.0695 10.7188 53.6044 10.7188 53.0306V51.3188C10.7188 48.0842 12.1676 43.9325 16.3988 43.1606C17.7592 44.1736 19.0262 44.5989 20.9117 44.5989C22.7972 44.5989 24.2355 44.1663 25.4084 43.1785C25.5074 43.1972 25.604 43.2183 25.6998 43.2402C24.6625 45.2686 24.0967 47.7312 24.0967 50.2522V52.628L24.0959 52.6288Z" fill="white"/>
<path d="M58.088 42.3717C61.4289 42.3717 64.1374 39.6633 64.1374 36.3223C64.1374 32.9814 61.4289 30.2729 58.088 30.2729C54.747 30.2729 52.0386 32.9814 52.0386 36.3223C52.0386 39.6633 54.747 42.3717 58.088 42.3717Z" fill="white"/>
<path d="M54.9037 52.6288C54.9037 53.158 54.7511 53.6523 54.4857 54.0695H67.2419C67.8157 54.0695 68.2808 53.6044 68.2808 53.0306V51.3188C68.2808 48.0842 66.832 43.9325 62.6008 43.1606C61.2404 44.1736 59.9734 44.5989 58.0879 44.5989C56.1991 44.5989 54.7641 44.1663 53.5912 43.1785C53.4922 43.1972 53.3956 43.2183 53.2998 43.2402C54.3371 45.2686 54.9029 47.7312 54.9029 50.2522V52.628L54.9037 52.6288Z" fill="white"/>
<path d="M39.4999 37.8361C44.1369 37.8361 47.8959 34.0771 47.8959 29.4401C47.8959 24.8032 44.1369 21.0442 39.4999 21.0442C34.863 21.0442 31.104 24.8032 31.104 29.4401C31.104 34.0771 34.863 37.8361 39.4999 37.8361Z" fill="white"/>
<path d="M53.645 50.2529V52.6279C53.645 53.4233 52.9997 54.0686 52.2043 54.0686H26.7957C26.0003 54.0686 25.355 53.4233 25.355 52.6279V50.2529C25.355 45.7644 27.3647 40.0023 33.2371 38.9309C35.1251 40.3367 36.884 40.9276 39.5 40.9276C42.116 40.9276 44.1127 40.327 45.7401 38.9569C51.8366 40.1208 53.645 46.1207 53.645 50.2537V50.2529Z" fill="white"/>
<path d="M20.9112 42.3717C24.2522 42.3717 26.9606 39.6633 26.9606 36.3223C26.9606 32.9814 24.2522 30.2729 20.9112 30.2729C17.5702 30.2729 14.8618 32.9814 14.8618 36.3223C14.8618 39.6633 17.5702 42.3717 20.9112 42.3717Z" fill="white"/>
<path d="M24.0959 52.6288C24.0959 53.158 24.2485 53.6523 24.5139 54.0695H11.7577C11.1838 54.0695 10.7188 53.6044 10.7188 53.0306V51.3188C10.7188 48.0842 12.1676 43.9325 16.3988 43.1606C17.7592 44.1736 19.0262 44.5989 20.9117 44.5989C22.7972 44.5989 24.2355 44.1663 25.4084 43.1785C25.5074 43.1972 25.604 43.2183 25.6998 43.2402C24.6625 45.2686 24.0967 47.7312 24.0967 50.2522V52.628L24.0959 52.6288Z" fill="white"/>
<path d="M58.088 42.3717C61.4289 42.3717 64.1374 39.6633 64.1374 36.3223C64.1374 32.9814 61.4289 30.2729 58.088 30.2729C54.747 30.2729 52.0386 32.9814 52.0386 36.3223C52.0386 39.6633 54.747 42.3717 58.088 42.3717Z" fill="white"/>
<path d="M54.9037 52.6288C54.9037 53.158 54.7511 53.6523 54.4857 54.0695H67.2419C67.8157 54.0695 68.2808 53.6044 68.2808 53.0306V51.3188C68.2808 48.0842 66.832 43.9325 62.6008 43.1606C61.2404 44.1736 59.9734 44.5989 58.0879 44.5989C56.1991 44.5989 54.7641 44.1663 53.5912 43.1785C53.4922 43.1972 53.3956 43.2183 53.2998 43.2402C54.3371 45.2686 54.9029 47.7312 54.9029 50.2522V52.628L54.9037 52.6288Z" fill="white"/>
</g>
<defs>
<clipPath id="clip0_1230_916">
<rect width="79" height="79" fill="white"/>
</clipPath>
</defs>
</svg>
