<svg width="63" height="86" viewBox="0 0 63 86" fill="none" xmlns="http://www.w3.org/2000/svg">
<path d="M17.5355 70.7959C27.0633 71.6014 36.8824 71.3804 46.4387 71.359C46.9005 75.6358 46.9005 79.8414 47.0923 84.1254C47.0071 84.0897 46.9076 84.0683 46.7939 84.0683C36.9464 84.0897 26.971 84.0541 17.1519 84.6243C16.889 79.9626 17.3366 75.422 17.5355 70.7959ZM18.8855 72.2714C20.2425 72.471 21.6991 72.692 23.0703 72.6777C23.3261 72.6777 23.4043 72.2429 23.1272 72.2001C21.7772 71.9792 20.2994 71.9435 18.9352 71.9221C18.7505 71.9221 18.6936 72.2286 18.8926 72.2643L18.8855 72.2714ZM22.8714 73.7327C21.6706 73.5188 20.4202 73.4547 19.2052 73.3335C18.9849 73.3192 18.9281 73.6899 19.1484 73.7184C20.3633 73.918 21.5783 74.1603 22.8003 74.2601C22.8145 74.2601 22.8145 74.2459 22.8216 74.2459C22.6795 74.3671 22.644 74.5666 22.7364 74.7306C22.7222 74.752 22.7009 74.7662 22.7009 74.7876C22.4025 76.9332 22.438 79.093 22.4167 81.2528C22.4167 81.7303 22.8359 81.9299 23.1982 81.8586C23.2124 82.0582 23.3545 82.2436 23.6174 82.2649C29.3156 82.6285 35.0422 82.3647 40.712 81.8444C40.8683 81.8301 40.9891 81.766 41.0957 81.6804C41.316 81.7446 41.5788 81.6662 41.657 81.3739C42.0549 79.6133 42.3604 77.5105 42.2396 75.7071C42.2183 75.4434 42.0265 75.2652 41.8204 75.2082C42.1543 74.9658 42.062 74.3813 41.5433 74.3243C35.5751 73.6257 29.0598 73.8253 23.0561 74.1603C23.0206 74.1603 22.9993 74.1817 22.978 74.1817C23.0987 74.0392 23.0774 73.7612 22.8572 73.7255L22.8714 73.7327Z" fill="#A27E4E"/>
<path d="M42.8076 66.7258C42.9852 66.569 43.0279 66.2696 42.765 66.1199C41.614 65.4641 40.328 64.3593 39.1556 62.9978C40.9319 63.3186 42.7223 63.3827 44.527 63.2615C44.527 63.3257 44.5128 63.3827 44.527 63.4469C44.9888 65.6637 45.3086 68.13 46.2819 70.2114C36.8678 69.9263 27.2192 69.4487 17.8193 69.9548C19.1764 67.8948 20.3345 65.6566 21.4926 63.4896C21.5281 63.4255 21.5495 63.3542 21.5495 63.2901C22.7502 63.4896 24.0646 63.6251 25.3009 63.454C24.228 64.3165 23.0131 65.015 21.7555 65.7207C21.4784 65.8775 21.5424 66.3266 21.8337 66.4193C21.6987 66.6402 21.7555 66.9753 22.0894 67.1036C28.4555 69.7623 35.7523 69.4059 42.296 67.5883C42.7508 67.4671 42.8787 67.0679 42.8005 66.7115L42.8076 66.7258Z" fill="#A27E4E"/>
<path d="M41.3085 75.3363C41.2516 75.4004 41.209 75.4717 41.1877 75.5715C40.7898 77.0969 40.6903 78.8575 40.7259 80.4899C40.7117 80.4899 40.7117 80.4756 40.7117 80.4756C35.0419 80.9532 29.365 81.1314 23.681 81.3809C23.6952 81.3452 23.7165 81.3167 23.7165 81.2597C23.6952 79.1641 23.7165 77.0755 23.4536 74.9941C29.2371 75.5359 35.5392 75.8923 41.3085 75.3363Z" fill="#E7BC3D"/>
<path d="M53.302 39.2113C54.4246 38.7123 55.7106 38.1564 56.7266 37.4649C57.2808 37.1014 56.8047 36.3031 56.2221 36.5882C55.1209 37.1299 53.9912 37.9496 52.9965 38.6838C52.6909 38.9191 52.9538 39.3681 53.302 39.2184V39.2113ZM50.6518 37.8712C50.4102 37.8926 50.3179 38.2775 50.5879 38.3274C52.1225 38.584 53.9201 38.0494 55.0214 36.9303C55.2843 36.6523 54.9219 36.1249 54.588 36.3743C53.3304 37.3152 52.2291 37.7928 50.6447 37.8712H50.6518ZM49.5363 37.3152C59.3839 37.5148 62.844 19.8729 52.3073 18.9605C52.2291 18.9605 52.1652 18.9748 52.0941 18.9819C52.0373 17.599 51.9591 16.2162 51.8526 14.8547C60.1441 15.8313 62.7232 23.943 61.4798 31.2849C60.2862 38.3132 53.437 41.6919 46.8364 41.8344C47.8951 40.4302 48.8116 38.9333 49.5434 37.3152H49.5363Z" fill="#E7BC3D"/>
<path d="M13.5852 13.5503C13.5496 15.0472 13.507 16.5655 13.4644 18.0909C8.23511 17.4707 5.28654 23.1518 5.62047 27.8492C5.97572 32.9742 9.82663 37.3295 14.8925 38.0565C15.3756 39.6176 16.0719 40.9577 16.9316 42.1552C8.03617 41.1002 1.62036 37.415 1.393 27.3858C1.20827 19.5806 5.86204 14.4342 13.5852 13.5574V13.5503Z" fill="#E7BC3D"/>
<path d="M44.3067 3.75645C45.4862 3.81347 46.7011 3.89901 47.8948 3.8206C48.3353 3.79921 48.3353 3.16482 47.8948 3.13631C46.7011 3.07215 45.4862 3.15769 44.3067 3.21471C43.9515 3.2361 43.9515 3.73506 44.3067 3.75645ZM13.4639 1.31865C25.6916 2.52329 38.3741 2.15263 50.6444 2.12412C50.7083 2.12412 50.7652 2.10274 50.8078 2.08848C51.3904 3.48558 51.2625 5.04662 50.5947 6.39383C38.2035 6.27978 25.784 6.01604 13.4 6.37244C13.3574 6.37244 13.3218 6.3867 13.2792 6.39383C13.2792 6.35819 13.265 6.31542 13.2437 6.27978C12.4195 4.7615 12.384 3.02226 13.3645 1.57526C13.4284 1.48972 13.4497 1.38993 13.4497 1.31152L13.4639 1.31865ZM42.026 4.8613C43.5465 5.23908 45.337 5.46718 46.8787 5.19631C47.2766 5.11791 47.1629 4.51202 46.7935 4.49776C45.2162 4.455 43.6815 4.51915 42.09 4.36233C41.8129 4.32669 41.756 4.79714 42.026 4.8613Z" fill="#E7BC3D"/>
<path d="M18.1536 14.9832C17.8197 16.0453 17.9405 17.4068 18.1749 18.4902C18.2389 18.7326 18.6297 18.6756 18.6297 18.4261C18.6155 17.863 18.6084 17.307 18.6652 16.751C18.7291 16.1879 18.8997 15.6461 18.9494 15.0759C18.992 14.6126 18.2744 14.5413 18.1536 14.9761V14.9832ZM16.8179 15.5606C16.7539 15.1828 16.1358 15.1828 16.0648 15.5606C15.7806 17.1787 15.9013 19.1175 16.1216 20.7285C16.1642 21.035 16.7042 21.035 16.7539 20.7285C16.9884 19.1104 17.095 17.1716 16.8179 15.5606ZM35.8024 62.0783C35.6888 61.7789 35.2198 61.7219 35.1417 62.0783C34.8575 63.34 35.9161 64.9153 36.9961 65.457C37.2803 65.6138 37.6 65.236 37.3513 65.0008C36.9463 64.5945 36.5698 64.2025 36.2927 63.6821C36.0156 63.1618 35.9943 62.62 35.8095 62.0783H35.8024ZM34.5022 62.5559C34.5804 61.95 33.6638 61.8573 33.6852 62.4418C33.7207 63.3043 33.9267 64.0884 34.4454 64.7798C34.6301 65.0222 35.0067 64.8226 34.8646 64.5375C34.5804 63.9316 34.4028 63.2402 34.5022 62.5559ZM35.3975 59.5336C36.449 62.3919 38.2466 65.1362 41.0246 66.3551C34.7864 67.9019 29.074 67.4742 22.779 66.3124C28.5056 65.0364 31.7739 57.7231 29.614 52.3913C29.5998 52.3699 29.5927 52.3485 29.5785 52.3129C29.2445 51.5288 28.804 50.7732 28.2214 50.096C28.0864 49.9392 27.8804 49.9107 27.7027 49.9606C26.6867 48.9057 25.5855 47.979 24.3492 47.0452C19.461 43.3386 16.4271 40.3377 15.7095 33.8441C14.7859 25.4258 15.3329 16.6369 15.2335 8.17594C15.2193 7.8338 15.0345 7.61283 14.793 7.49878C26.3812 7.93359 37.9908 7.87657 49.5932 7.90508C50.5524 16.1522 51.4334 25.4544 49.2735 33.559C47.2628 41.0791 41.2946 44.4649 36.9321 49.9677C36.9108 49.982 36.8895 49.982 36.8753 49.9891C33.2304 51.6143 34.2962 56.5184 35.3975 59.5122V59.5336Z" fill="#E7BC3D"/>
<path d="M56.7263 37.458C55.7103 38.1566 54.4314 38.7126 53.3017 39.2044C52.9464 39.3612 52.6835 38.905 52.9962 38.6698C53.9909 37.9356 55.1134 37.123 56.2218 36.5741C56.8044 36.289 57.2805 37.0802 56.7263 37.4509V37.458Z" fill="#222221"/>
<path d="M50.659 37.8713C52.2363 37.7929 53.3376 37.3154 54.6023 36.3745C54.9362 36.1178 55.2986 36.6525 55.0357 36.9304C53.9344 38.0496 52.1298 38.577 50.6022 38.3275C50.3393 38.2848 50.4246 37.8927 50.6661 37.8713H50.659Z" fill="#222221"/>
<path d="M44.307 3.21477C45.4864 3.15774 46.7014 3.07221 47.895 3.13636C48.3355 3.172 48.3355 3.79927 47.895 3.82065C46.7014 3.89906 45.4864 3.8064 44.307 3.7565C43.9517 3.73512 43.9517 3.23615 44.307 3.21477Z" fill="#222221"/>
<path d="M46.879 5.19626C45.3372 5.47425 43.5467 5.23903 42.0263 4.86124C41.7634 4.79709 41.8131 4.32664 42.0902 4.36228C43.6817 4.51909 45.2164 4.44781 46.7937 4.49771C47.1703 4.51197 47.2769 5.11785 46.879 5.19626Z" fill="#222221"/>
<path d="M36.2852 63.682C36.5623 64.2023 36.9389 64.5872 37.3439 65.0007C37.5997 65.2359 37.2799 65.6066 36.9886 65.4569C35.9087 64.9151 34.85 63.3398 35.1342 62.0782C35.2124 61.7218 35.6884 61.7788 35.795 62.0782C35.9797 62.6199 36.0081 63.1616 36.2781 63.682H36.2852Z" fill="#222221"/>
<path d="M34.502 62.5488C34.4025 63.233 34.5802 63.9245 34.8644 64.5304C35.0065 64.8155 34.6299 65.0151 34.4452 64.7727C33.9265 64.0884 33.7134 63.2972 33.6849 62.4347C33.6636 61.8502 34.5802 61.9357 34.502 62.5488Z" fill="#222221"/>
<path d="M18.9281 71.9292C20.2994 71.9506 21.7772 71.9862 23.12 72.2072C23.3971 72.25 23.319 72.6848 23.0632 72.6848C21.6919 72.699 20.2354 72.4709 18.8784 72.2785C18.6794 72.2428 18.7363 71.9363 18.921 71.9363L18.9281 71.9292Z" fill="#222221"/>
<path d="M41.188 75.5716C41.2093 75.4718 41.2519 75.4076 41.3088 75.3364C35.5395 75.8923 29.2374 75.5359 23.4539 74.9942C23.7168 77.0756 23.6955 79.1712 23.7168 81.2598C23.7168 81.3168 23.6955 81.3453 23.6813 81.3809C29.3653 81.1243 35.0351 80.9461 40.7119 80.4757C40.7119 80.4757 40.7119 80.4899 40.7262 80.4899C40.6906 78.8647 40.7901 77.1041 41.188 75.5716ZM22.8002 74.2671C21.5782 74.1674 20.3632 73.925 19.1483 73.7254C18.928 73.6898 18.9849 73.3262 19.2051 73.3405C20.4201 73.4617 21.6634 73.5258 22.8713 73.7397C23.0916 73.7753 23.1129 74.0533 22.9921 74.1959C23.0134 74.1959 23.0347 74.1745 23.0702 74.1745C29.074 73.8395 35.5892 73.6399 41.5574 74.3384C42.0761 74.3954 42.1614 74.9799 41.8345 75.2223C42.0477 75.2793 42.2324 75.4575 42.2537 75.7213C42.3745 77.5247 42.069 79.6274 41.6711 81.3881C41.593 81.6875 41.3301 81.7659 41.1098 81.6946C40.9961 81.7801 40.8754 81.8514 40.7262 81.8585C35.0564 82.3789 29.3226 82.6426 23.6315 82.2791C23.3686 82.2577 23.2265 82.0652 23.2123 81.8728C22.85 81.9369 22.4308 81.7373 22.4308 81.2669C22.4521 79.1071 22.4166 76.9473 22.715 74.8017C22.715 74.7804 22.7363 74.7661 22.7505 74.7447C22.6653 74.5808 22.6937 74.3812 22.8358 74.26C22.8216 74.26 22.8216 74.2743 22.8145 74.2743L22.8002 74.2671Z" fill="#222221"/>
<path d="M18.1535 14.9831C18.2743 14.5483 18.9919 14.6195 18.9493 15.0829C18.8924 15.646 18.729 16.1877 18.6651 16.7579C18.6082 17.3139 18.6224 17.8628 18.6295 18.433C18.6295 18.6897 18.2459 18.7395 18.1748 18.4972C17.9403 17.4137 17.8196 16.0523 18.1535 14.9902V14.9831Z" fill="#222221"/>
<path d="M16.0644 15.5604C16.1283 15.1827 16.7464 15.1827 16.8175 15.5604C17.0946 17.1785 16.9809 19.1173 16.7536 20.7283C16.7109 21.0348 16.1709 21.0348 16.1212 20.7283C15.901 19.1102 15.7802 17.1714 16.0644 15.5604Z" fill="#222221"/>
<path d="M5.61298 27.8491C5.27904 23.1517 8.22762 17.4778 13.4569 18.0908C13.4995 16.5654 13.5422 15.0471 13.5777 13.5502C5.86165 14.427 1.20077 19.5734 1.3855 27.3858C1.61997 37.4149 8.02867 41.1073 16.9241 42.1551C16.0644 40.9576 15.3681 39.6175 14.885 38.0565C9.81913 37.3223 5.96823 32.9742 5.61298 27.8491ZM13.4285 19.4594C8.10683 19.3168 6.20269 25.618 7.43896 29.9804C8.46208 33.6157 11.2899 35.7684 14.6221 37.087C14.5866 36.9445 14.5369 36.8091 14.5084 36.6522C13.3503 31.1921 13.3077 25.3044 13.4285 19.4594ZM56.8471 30.0303C57.92 26.3094 57.0602 20.8636 52.3141 20.4644C52.2502 20.4502 52.2004 20.4288 52.1507 20.4074C52.2644 25.3543 51.8949 30.3083 50.5094 34.8702C50.3673 35.3335 50.1897 35.7897 50.0121 36.2317C53.4083 35.7113 55.8808 33.3947 56.8542 30.0303H56.8471ZM13.4072 6.37938C25.7912 6.02298 38.2036 6.29384 50.6018 6.40076C51.2626 5.04643 51.3976 3.48539 50.815 2.09542C50.7723 2.10967 50.7155 2.13106 50.6515 2.13106C38.3812 2.15244 25.6988 2.53023 13.4711 1.32559C13.4711 1.404 13.4498 1.50379 13.3858 1.58933C12.4054 3.03632 12.4338 4.77557 13.2651 6.29384C13.2864 6.32948 13.3006 6.37225 13.3006 6.40789C13.3432 6.39364 13.3787 6.38651 13.4214 6.38651L13.4072 6.37938ZM52.3141 18.9604C62.8508 19.8799 59.3907 37.5147 49.5432 37.3151C48.8114 38.9332 47.9019 40.423 46.8362 41.8343C53.4367 41.6918 60.293 38.3131 61.4796 31.2848C62.73 23.9429 60.1438 15.8312 51.8523 14.8546C51.966 16.2161 52.037 17.5989 52.0939 18.9818C52.1578 18.9675 52.2289 18.9604 52.307 18.9604H52.3141ZM46.4454 71.3659C36.8892 71.3873 27.063 71.6082 17.5423 70.8027C17.3433 75.4289 16.8886 79.9694 17.1586 84.6312C26.9777 84.0681 36.9602 84.0966 46.8006 84.0752C46.9143 84.0752 47.0138 84.0966 47.099 84.1322C46.9143 79.8483 46.9143 75.6427 46.4454 71.3659ZM42.3032 67.6022C35.7595 69.4199 28.4626 69.7692 22.0966 67.1175C21.7626 66.9821 21.7129 66.6542 21.8408 66.4333C21.5566 66.3477 21.4855 65.8915 21.7626 65.7347C23.0202 65.029 24.2352 64.3305 25.308 63.468C24.0718 63.6319 22.7573 63.5036 21.5566 63.304C21.5566 63.3682 21.5353 63.4395 21.4997 63.5036C20.3416 65.6705 19.1835 67.9088 17.8265 69.9688C27.2264 69.4627 36.875 69.9331 46.2891 70.2254C45.3157 68.144 44.996 65.6777 44.5341 63.4608C44.5199 63.3967 44.5341 63.3397 44.5341 63.2755C42.7224 63.3967 40.939 63.3326 39.1628 63.0118C40.3351 64.3732 41.6211 65.4781 42.7721 66.1339C43.035 66.2907 42.9924 66.5901 42.8147 66.7398C42.8929 67.0962 42.7579 67.4953 42.3103 67.6165L42.3032 67.6022ZM28.2211 50.0957C28.8037 50.7729 29.2442 51.5214 29.5781 52.3126C29.5923 52.3482 29.5994 52.3696 29.6137 52.391C31.7736 57.7156 28.5124 65.0361 22.7786 66.3121C29.0666 67.4739 34.7861 67.9088 41.0243 66.3548C38.2462 65.1359 36.4416 62.3916 35.3971 59.5333C34.2958 56.5466 33.2372 51.6354 36.875 50.0102C36.8892 49.996 36.9105 49.996 36.9318 49.9888C41.2943 44.486 47.2625 41.1001 49.2732 33.58C51.4331 25.4754 50.5521 16.1733 49.5929 7.92617C37.9904 7.89053 26.3809 7.94755 14.7926 7.51987C15.0342 7.63392 15.226 7.85489 15.2331 8.19703C15.3326 16.658 14.7784 25.4469 15.7092 33.8652C16.4268 40.3517 19.4606 43.3526 24.3489 47.0663C25.5851 47.993 26.6864 48.9267 27.7024 49.9817C27.88 49.9247 28.0861 49.9603 28.2211 50.1171V50.0957ZM20.6187 62.9761C20.7608 62.7195 21.0024 62.691 21.2155 62.7623C21.2582 62.7053 21.3292 62.6768 21.4145 62.6768C23.07 62.6554 24.7467 62.3703 26.3951 62.413C26.4093 62.413 26.4093 62.4273 26.4093 62.4273C26.9919 61.7929 27.5035 61.0872 27.9014 60.2318C29.3223 57.1668 28.6616 54.4439 27.6385 51.5427C24.1428 48.5632 20.2635 46.3179 17.5636 42.9819C7.46738 43.9941 0.305545 37.251 0.00713482 27.3858C-0.248645 18.7038 4.90958 12.873 13.6061 12.0604C13.6274 10.756 13.6416 9.4587 13.6274 8.18278C13.6274 7.81925 13.8264 7.59828 14.0821 7.48423C13.8619 7.46997 13.6274 7.46997 13.4072 7.46284C13.0732 7.44859 12.9027 7.20623 12.8885 6.95675C12.7748 6.97101 12.654 6.93537 12.5688 6.82132C11.233 5.11771 11.233 2.81535 12.4267 1.01908C12.4906 0.919289 12.5901 0.862264 12.6824 0.819496C12.6824 0.598526 12.8245 0.3633 13.1372 0.341916C25.4999 -0.47781 38.2817 0.3633 50.6515 0.819496C50.7865 0.833752 50.8931 0.87652 50.9855 0.933545C51.2839 0.719703 51.7031 0.719703 51.902 1.14739C52.8612 3.15037 52.7404 5.33156 51.3834 7.10644C51.4047 7.34167 51.3194 7.56264 51.1631 7.72658C51.362 9.54424 51.561 11.426 51.7386 13.315C60.7193 14.1703 63.6253 22.4817 62.9077 30.5577C62.1758 38.698 53.998 43.4595 46.2891 42.5685C43.4542 46.0898 39.8306 49.0479 36.4202 51.9918C34.5232 54.9571 36.065 58.9916 38.431 62.0923C40.5838 62.2063 42.7153 62.2705 44.8752 62.1493C45.2375 62.1279 45.4081 62.4059 45.3938 62.6839C45.5715 62.7409 45.7278 62.8692 45.7775 63.1187C46.3104 65.4211 47.099 67.9159 47.0351 70.2967C47.099 70.3323 47.1559 70.3751 47.1985 70.4321C47.433 70.4677 47.639 70.6103 47.6746 70.874C48.3779 75.3504 48.7687 80.2403 48.0156 84.7238C47.9588 85.0446 47.6603 85.1088 47.433 85.009C47.3477 85.2513 47.1346 85.4509 46.8006 85.4652C36.7684 85.9713 26.4803 86.2991 16.4481 85.6861C16.1284 85.6647 15.9721 85.4295 15.965 85.2014C15.9081 85.1159 15.8655 85.0161 15.8513 84.8807C15.5671 79.9837 15.5102 74.8586 16.8033 70.0971C16.8247 70.0329 16.8602 69.9759 16.8886 69.9403C17.9472 67.5452 19.3043 65.2429 20.6187 62.9833V62.9761Z" fill="#222221"/>
</svg>
