<svg width="139" height="82" viewBox="0 0 139 82" fill="none" xmlns="http://www.w3.org/2000/svg">
<path d="M134.412 34.1156C133.456 33.1474 132.409 32.2715 131.393 31.3571C131.021 31.0267 130.589 31.5953 130.908 31.9411C131.856 32.9323 132.781 33.9619 133.782 34.8839C134.26 35.3219 134.852 34.5612 134.412 34.1156ZM133.388 41.2306C131.985 37.8498 129.861 34.8916 127.138 32.6249C128.496 30.1969 129.861 27.7612 131.226 25.3562C133.426 27.354 135.254 30.0048 136.581 33.5931C136.679 33.839 136.839 33.985 137.006 34.0695C135.891 36.5206 134.67 38.8948 133.38 41.2306H133.388ZM128.913 31.7106C128.549 31.5569 128.177 32.064 128.526 32.333C129.14 32.8017 129.724 33.2243 130.18 33.8697C130.582 34.4306 130.756 35.1913 131.241 35.6677C131.446 35.8751 131.818 35.7061 131.863 35.4295C131.977 34.6611 131.348 33.8005 130.877 33.2396C130.346 32.6173 129.679 32.0103 128.913 31.7106Z" fill="#F5F5F5"/>
<path d="M127.153 51.542C125.598 53.9854 124.006 56.4057 122.451 58.8491C121.298 55.7603 119.303 53.1017 116.838 51.0041C118.522 48.0382 120.206 45.0646 121.867 42.0757C124.673 43.9274 126.63 46.7089 126.956 51.0579C126.971 51.2653 127.047 51.4113 127.153 51.5343V51.542Z" fill="#F5F5F5"/>
<path d="M114.199 51.3345C112.659 54.431 111.218 57.5429 109.891 60.6932C107.835 58.8107 105.378 57.3662 102.587 56.4672C101.207 56.0062 99.796 55.7219 98.3853 55.476C100.516 53.0326 102.572 50.3971 104.544 47.6541C106.197 47.923 107.828 48.2841 109.421 48.845C111.241 49.4828 112.803 50.328 114.199 51.3345Z" fill="#F5F5F5"/>
<path d="M124.332 33.0783C123.073 35.1529 121.836 37.2582 120.623 39.3712C119.326 38.6951 117.945 38.1572 116.504 37.7192C114.904 37.2582 113.289 36.9509 111.65 36.7127C112.94 34.5228 114.184 32.3022 115.374 30.0894C118.643 30.681 121.685 31.5416 124.324 33.0783H124.332Z" fill="#F5F5F5"/>
<path d="M96.8228 40.2548C98.4989 40.808 100.281 41.4458 102.018 41.707C102.496 41.7839 102.754 41.0309 102.268 40.8541C100.607 40.2702 98.734 39.9859 96.9972 39.6862C96.6862 39.6248 96.4966 40.1472 96.8303 40.2471L96.8228 40.2548ZM94.9646 42.8596C95.814 43.0363 96.6862 43.1977 97.5509 43.3667C98.3169 43.505 99.1133 43.7509 99.902 43.6356C100.281 43.5665 100.357 43.0747 100.016 42.898C99.318 42.5369 98.4762 42.5215 97.7026 42.4062C96.8304 42.2756 95.9581 42.168 95.0935 42.0605C94.5778 41.9913 94.4564 42.7597 94.9646 42.8596ZM92.1052 43.8047C93.387 41.8607 94.5778 39.8629 95.7382 37.8959C96.1174 37.2505 96.4739 36.5667 96.8228 35.8828C98.2714 36.413 99.7959 36.8356 101.366 37.1506C103.429 37.5578 105.795 37.8421 108.253 38.1649C107.911 38.7258 107.585 39.2867 107.244 39.8399C106.015 41.7915 104.733 43.7278 103.429 45.6487C99.6138 45.0955 95.6927 44.7959 92.0977 43.8047H92.1052Z" fill="#F5F5F5"/>
<path d="M118.772 19.9008C118.772 19.9008 118.742 19.9315 118.742 19.9546C117.21 22.544 115.739 25.1641 114.267 27.7842C111.689 27.5691 109.095 27.5153 106.531 27.1388C104.719 26.8775 103.058 26.4396 101.495 25.8633C102.762 23.2201 104.157 20.7152 105.917 18.6022C105.978 18.5331 106.008 18.4639 106.046 18.3948C107.358 18.6253 108.685 18.7713 109.952 18.8712C112.993 19.1247 115.966 19.4013 118.78 19.9008H118.772Z" fill="#F5F5F5"/>
<path d="M96.1934 29.5745C96.7243 29.7666 97.0884 28.9675 96.565 28.7524C95.124 28.1761 93.9712 27.3847 92.8638 26.2936C92.606 26.04 92.1964 26.4473 92.4088 26.7316C93.3492 28.0071 94.7296 29.029 96.201 29.5822L96.1934 29.5745ZM89.5115 27.9686C90.6947 29.0674 92.2571 30.2737 93.865 30.5965C94.2518 30.6733 94.3655 30.1354 94.0546 29.9664C93.3872 29.5745 92.6439 29.3286 91.9764 28.9291C91.2408 28.5065 90.5809 28.0071 89.9362 27.4385C89.6025 27.1388 89.1854 27.6767 89.5115 27.9686ZM96.0645 33.6699C92.5453 32.2023 89.3977 30.0586 86.5005 27.4308C87.896 24.7031 89.2688 21.9831 90.6568 19.2554C92.8411 22.7207 95.7535 25.1795 99.1665 26.7854C98.1654 29.1596 97.2173 31.5415 96.0948 33.6238C96.0796 33.6469 96.0645 33.6545 96.0645 33.6776V33.6699Z" fill="#F5F5F5"/>
<path d="M89.1776 44.6115C87.5166 47.1087 85.8936 49.6136 84.4374 52.226C81.5856 50.8967 78.9538 49.1372 76.4434 47.0549C78.0816 43.9123 79.6819 40.7543 81.2974 37.604C83.1025 41.054 85.8936 43.2284 89.1852 44.6115H89.1776Z" fill="#F5F5F5"/>
<path d="M116.012 61.0468C116.292 61.4848 116.452 61.9612 116.611 62.4683C116.785 62.9601 117.612 62.7757 117.513 62.2455C117.278 61.0622 116.399 59.8482 115.322 59.3257C114.965 59.1413 114.662 59.6561 114.95 59.9174C115.337 60.2708 115.708 60.6012 116.004 61.0545L116.012 61.0468ZM115.344 64.3124C115.655 64.5813 116.034 64.1664 115.845 63.836C115.557 63.3366 115.102 62.9217 114.722 62.4914C114.343 62.0611 113.956 61.6154 113.57 61.1775C113.334 60.9085 112.887 61.2159 113.114 61.5079C113.494 61.9996 113.873 62.476 114.252 62.9678C114.593 63.4211 114.912 63.9359 115.344 64.3047V64.3124ZM115.807 69.7985C114.707 66.6021 112.97 63.7669 110.718 61.4771C112.462 58.5727 114.191 55.6452 115.875 52.7024C118.143 54.7923 119.872 57.4125 121.344 60.532L121.359 60.5551C119.432 63.5901 117.544 66.6636 115.807 69.8216C115.807 69.8216 115.807 69.8139 115.807 69.7985Z" fill="#3E3E3D"/>
<path d="M132.242 43.2207C131.044 45.2953 129.808 47.3468 128.533 49.3753C127.836 45.5719 125.644 42.6905 122.678 40.6159C123.846 38.526 125.007 36.4283 126.175 34.3384C128.723 36.3131 130.809 39.1253 132.242 43.2284V43.2207Z" fill="#3E3E3D"/>
<path d="M110.581 38.4875C113.797 38.9793 117.005 39.6555 119.735 40.9156C118.112 43.7893 116.542 46.7091 115.041 49.6519C113.433 48.5531 111.688 47.6542 109.838 47.0471C108.503 46.5938 107.115 46.2788 105.704 46.0099C107.395 43.5741 109.011 41.0539 110.581 38.4875Z" fill="#3E3E3D"/>
<path d="M120.213 20.1851C123.808 20.9457 127.108 22.1521 129.906 24.242C128.389 26.5548 126.895 28.9291 125.409 31.334C123.869 30.2968 122.17 29.4592 120.319 28.8753C119.053 28.468 117.756 28.2145 116.459 28.0301C117.764 25.5329 118.992 23.0434 120.137 20.6C120.206 20.4463 120.221 20.308 120.206 20.1851H120.213Z" fill="#3E3E3D"/>
<path d="M94.5856 46.2249C97.1491 46.7244 99.743 46.9625 102.322 47.3083C100.555 49.9284 98.8101 52.5793 97.2249 55.2916C94.9648 54.9689 92.6894 54.7307 90.4672 54.2543C88.5635 53.8471 86.7963 53.2555 85.0898 52.5178C87.3273 50.3818 89.2916 47.923 91.0815 45.3259C92.2116 45.6871 93.3796 45.979 94.5856 46.2249Z" fill="#3E3E3D"/>
<path d="M113.16 29.7358C111.901 31.964 110.619 34.1846 109.307 36.3975C106.417 36.0594 103.52 35.8059 100.683 35.1681C99.6214 34.9222 98.6203 34.6226 97.6191 34.2691C98.6961 32.0486 99.6973 29.7281 100.744 27.446C102.769 28.2221 104.946 28.7369 107.229 28.9981C109.261 29.2363 111.241 29.4592 113.167 29.7358H113.16Z" fill="#3E3E3D"/>
<path d="M81.7524 36.6895C83.148 33.9772 84.5435 31.2725 85.9239 28.5525C88.6012 31.4953 91.6956 33.6929 95.1693 35.2142C93.5993 37.9342 91.8701 40.5544 90.1332 43.1668C87.0691 42.0143 84.3387 40.1625 82.2985 36.9277C82.1696 36.7202 81.9496 36.6587 81.7524 36.6895Z" fill="#3E3E3D"/>
<path d="M94.4109 11.8561C96.5194 15.3445 100.213 17.0886 104.119 18.003C102.337 20.0084 101.009 22.5517 99.849 25.1872C96.5876 23.6659 93.7966 21.3915 91.2255 18.2873C91.2027 18.2719 91.1875 18.2566 91.1724 18.2412C92.2569 16.1128 93.3263 13.9844 94.4109 11.8484V11.8561Z" fill="#3E3E3D"/>
<path d="M93.3341 9.80441C80.8501 33.2857 68.131 56.813 56.6785 80.8091C55.958 80.7399 55.2905 80.6631 54.6155 80.2405C54.2287 80.0023 53.8798 79.6873 53.5688 79.3492C53.6219 79.3031 53.6599 79.257 53.7054 79.1955C67.3953 56.5595 79.1057 32.4558 91.5138 9.07446C92.0978 9.38181 92.7197 9.62 93.3341 9.80441Z" fill="#6F6F6F"/>
<path d="M99.2046 4.76383C99.6445 7.26102 97.3692 9.15888 95.0407 8.97448C94.9497 8.97448 94.8663 8.97448 94.798 9.00521C93.9258 8.64408 92.955 8.28295 92.1056 7.79119C92.1662 7.20723 91.5292 6.80768 90.9831 6.92294C90.6645 6.60791 90.4067 6.24678 90.2246 5.81649C89.1021 3.18868 92.0221 1.82099 94.0396 1.5828C96.3301 1.30618 98.7647 2.18212 99.2046 4.77151V4.76383Z" fill="#6F6F6F"/>
<path d="M133.782 34.8839C132.781 33.9695 131.863 32.9322 130.907 31.941C130.581 31.5953 131.021 31.0344 131.393 31.3571C132.402 32.2638 133.456 33.1474 134.411 34.1155C134.859 34.5612 134.267 35.3218 133.782 34.8839Z" fill="#222221"/>
<path d="M128.526 32.3254C128.177 32.0564 128.549 31.5493 128.913 31.703C129.679 32.0026 130.346 32.6097 130.877 33.232C131.347 33.7929 131.977 34.6535 131.863 35.4219C131.817 35.6908 131.446 35.8675 131.241 35.6601C130.756 35.1837 130.581 34.4307 130.179 33.8621C129.724 33.2167 129.133 32.8017 128.526 32.3254Z" fill="#222221"/>
<path d="M116.012 61.0467C115.716 60.5934 115.344 60.263 114.957 59.9095C114.669 59.656 114.965 59.1335 115.329 59.3179C116.398 59.8404 117.286 61.0544 117.521 62.2377C117.62 62.7679 116.785 62.9523 116.618 62.4605C116.459 61.9611 116.307 61.4847 116.019 61.039L116.012 61.0467Z" fill="#222221"/>
<path d="M114.715 62.4912C115.094 62.9215 115.549 63.3364 115.837 63.8359C116.027 64.1663 115.647 64.5812 115.336 64.3122C114.904 63.9434 114.586 63.4209 114.244 62.9753C113.865 62.4835 113.486 62.0071 113.107 61.5154C112.879 61.2234 113.327 60.9161 113.562 61.185C113.949 61.623 114.335 62.0686 114.715 62.4989V62.4912Z" fill="#222221"/>
<path d="M97.7028 42.4061C98.4764 42.5213 99.3183 42.5444 100.016 42.8978C100.357 43.0669 100.274 43.5663 99.9023 43.6355C99.1135 43.7507 98.3247 43.5048 97.5511 43.3665C96.6865 43.1975 95.8219 43.0361 94.9648 42.8594C94.4567 42.7518 94.578 41.9835 95.0938 42.0603C95.9584 42.1679 96.8306 42.2755 97.7028 42.4061Z" fill="#222221"/>
<path d="M96.99 39.6863C98.7268 39.9859 100.608 40.2702 102.261 40.8542C102.747 41.0232 102.489 41.7839 102.011 41.7071C100.282 41.4458 98.4917 40.8081 96.8156 40.2549C96.4894 40.155 96.6791 39.6325 96.9824 39.694L96.99 39.6863Z" fill="#222221"/>
<path d="M96.1934 29.5744C94.722 29.0212 93.3417 28.0069 92.4012 26.7237C92.1964 26.4471 92.606 26.0399 92.8563 26.2858C93.9636 27.3845 95.1164 28.176 96.5575 28.7445C97.0808 28.9597 96.7167 29.7588 96.1858 29.5667L96.1934 29.5744Z" fill="#222221"/>
<path d="M93.8648 30.5964C92.2569 30.2737 90.7021 29.0673 89.5114 27.9686C89.1928 27.6766 89.61 27.1387 89.9361 27.4384C90.5808 28.007 91.2406 28.5141 91.9763 28.929C92.6437 29.3286 93.387 29.5744 94.0544 29.9663C94.3578 30.1353 94.2516 30.6732 93.8648 30.5964Z" fill="#222221"/>
<path d="M132.242 43.2207C130.816 39.1176 128.723 36.3054 126.175 34.3307C125.007 36.4206 123.846 38.5183 122.678 40.6082C125.644 42.6828 127.836 45.5719 128.533 49.3676C129.808 47.3391 131.036 45.2952 132.242 43.213V43.2207ZM127.138 32.6249C129.853 34.8916 131.977 37.8498 133.388 41.2306C134.677 38.8948 135.906 36.5205 137.013 34.0694C136.846 33.9849 136.687 33.8389 136.588 33.593C135.261 30.0048 133.433 27.3462 131.234 25.3562C129.868 27.7611 128.503 30.1969 127.146 32.6249H127.138ZM121.859 42.0912C120.191 45.0724 118.514 48.046 116.831 51.0196C119.296 53.1172 121.29 55.7758 122.443 58.8646C123.998 56.4212 125.591 54.0008 127.146 51.5574C127.039 51.4345 126.956 51.2962 126.948 51.081C126.622 46.7244 124.665 43.9506 121.859 42.0988V42.0912ZM109.838 47.0548C111.688 47.6618 113.433 48.5608 115.041 49.6596C116.542 46.7167 118.105 43.7969 119.736 40.9232C117.005 39.6631 113.797 38.987 110.581 38.4952C109.011 41.0692 107.396 43.5818 105.704 46.0175C107.115 46.2864 108.503 46.6015 109.838 47.0548ZM115.86 52.7023C114.176 55.6528 112.447 58.5803 110.702 61.477C112.955 63.7744 114.692 66.602 115.792 69.7984C115.792 69.7984 115.792 69.8061 115.792 69.8215C117.528 66.6635 119.417 63.59 121.343 60.555L121.328 60.5319C119.857 57.4124 118.128 54.7922 115.86 52.7023ZM120.138 20.6077C118.992 23.0511 117.756 25.5406 116.459 28.0378C117.756 28.2145 119.053 28.4757 120.32 28.883C122.17 29.4669 123.869 30.2967 125.409 31.3417C126.888 28.9444 128.389 26.5702 129.906 24.2497C127.108 22.1521 123.808 20.9534 120.213 20.1927C120.229 20.3234 120.213 20.4617 120.145 20.6077H120.138ZM124.324 33.0859C121.685 31.5492 118.643 30.6963 115.374 30.097C114.184 32.3099 112.94 34.5304 111.651 36.7203C113.281 36.9508 114.904 37.2658 116.505 37.7268C117.946 38.1571 119.326 38.7027 120.623 39.3788C121.829 37.2658 123.073 35.1682 124.332 33.0859H124.324ZM98.3702 55.4838C99.7809 55.7297 101.192 56.014 102.572 56.475C105.355 57.374 107.813 58.8185 109.876 60.701C111.203 57.5584 112.652 54.4465 114.184 51.3423C112.788 50.3357 111.233 49.4905 109.406 48.8528C107.813 48.2919 106.175 47.9307 104.529 47.6618C102.557 50.4126 100.501 53.0404 98.3702 55.4838ZM100.661 35.1759C103.497 35.8136 106.402 36.0672 109.284 36.4053C110.596 34.2 111.878 31.9718 113.137 29.7435C111.211 29.4592 109.231 29.2441 107.198 29.0059C104.916 28.7446 102.746 28.2298 100.714 27.4538C99.6595 29.7358 98.666 32.0563 97.589 34.2769C98.5825 34.6227 99.5913 34.93 100.653 35.1759H100.661ZM105.894 18.6099C104.134 20.7229 102.739 23.2278 101.472 25.871C103.042 26.4549 104.696 26.8852 106.508 27.1465C109.072 27.5229 111.673 27.5767 114.244 27.7919C115.716 25.1717 117.187 22.5439 118.719 19.9622C118.719 19.9392 118.75 19.9315 118.75 19.9084C115.936 19.409 112.955 19.1324 109.921 18.8788C108.655 18.7789 107.327 18.6253 106.015 18.4024C105.977 18.4793 105.947 18.5408 105.886 18.6099H105.894ZM95.7156 37.9036C94.5552 39.8706 93.3645 41.8683 92.0827 43.8123C95.6777 44.8112 99.5989 45.1032 103.414 45.6564C104.718 43.7355 106 41.7992 107.229 39.8475C107.57 39.2866 107.896 38.7257 108.238 38.1725C105.78 37.8498 103.414 37.5655 101.351 37.1583C99.7733 36.8432 98.2564 36.4206 96.8078 35.8904C96.4589 36.5743 96.0949 37.2581 95.7232 37.9036H95.7156ZM90.4444 54.2698C92.6667 54.7538 94.942 54.9843 97.2022 55.3071C98.7949 52.587 100.532 49.9439 102.299 47.3237C99.7202 46.9857 97.1263 46.7398 94.5628 46.2403C93.3569 45.9945 92.1889 45.7025 91.0588 45.3414C89.2689 47.9384 87.3121 50.3972 85.0671 52.5333C86.766 53.2786 88.5408 53.8702 90.4444 54.2698ZM91.2029 18.3026C93.774 21.3991 96.5727 23.6811 99.8264 25.2025C100.994 22.567 102.314 20.0237 104.096 18.0183C100.19 17.0962 96.4968 15.3597 94.3884 11.8713C93.3038 13.9997 92.2344 16.1358 91.1498 18.2641C91.1574 18.2795 91.1801 18.2949 91.2029 18.3102V18.3026ZM99.1893 4.77164C98.7418 2.18224 96.3072 1.30631 94.0243 1.58292C92.0068 1.82111 89.0868 3.18112 90.2093 5.81661C90.3914 6.25458 90.6568 6.60803 90.9678 6.92306C91.5139 6.80012 92.1434 7.20736 92.0903 7.79131C92.9397 8.29075 93.9105 8.6442 94.7827 9.00533C94.8586 8.98228 94.9344 8.9746 95.0254 8.9746C97.3539 9.159 99.6216 7.26114 99.1893 4.76395V4.77164ZM89.1627 44.6191C85.871 43.236 83.08 41.0616 81.2749 37.6116C79.6594 40.7696 78.0591 43.9276 76.4208 47.0625C78.9389 49.1448 81.5631 50.912 84.4148 52.2336C85.871 49.6212 87.5017 47.1163 89.1551 44.6191H89.1627ZM56.6558 80.8168C68.1083 56.8207 80.8274 33.2934 93.3114 9.81212C92.697 9.62771 92.0751 9.38951 91.4911 9.08217C79.083 32.4635 67.3726 56.5672 53.6827 79.2032C53.6372 79.2647 53.5992 79.3031 53.5462 79.3569C53.8571 79.695 54.206 80.01 54.5928 80.2482C55.2678 80.6708 55.9353 80.7477 56.6558 80.8168ZM86.4778 27.4384C89.375 30.0662 92.5226 32.21 96.0418 33.6776C96.0418 33.6545 96.0569 33.6468 96.0721 33.6238C97.1946 31.5492 98.1427 29.1673 99.1438 26.7853C95.7232 25.1794 92.8108 22.7207 90.6341 19.2553C89.2461 21.983 87.8733 24.703 86.4778 27.4307V27.4384ZM82.2836 36.9431C84.3314 40.1779 87.0542 42.0297 90.1183 43.1822C91.8552 40.5698 93.5844 37.9574 95.1544 35.2297C91.6807 33.7083 88.5863 31.5108 85.909 28.5679C84.5286 31.2879 83.133 33.9926 81.7375 36.7049C81.9347 36.6819 82.1547 36.7357 82.2836 36.9431ZM89.997 8.09098C88.9124 7.14589 88.2146 5.8704 88.427 4.21841C88.8669 1.0758 92.5529 -0.107487 95.2378 8.38153e-05C98.2943 0.115339 100.873 2.39738 100.661 5.66294C100.471 8.59041 97.8469 10.4422 95.124 10.3653C95.1013 10.4191 95.1089 10.4806 95.0709 10.5574C94.9875 10.7188 94.8889 10.8878 94.8055 11.0569C103.558 19.0325 113.607 15.4135 123.983 18.7636C130.771 20.9688 135.761 26.2628 138.204 32.9553C138.226 33.0321 138.226 33.1013 138.234 33.1781C138.75 33.3087 139.197 33.8235 138.901 34.4613C133.001 47.3852 125.052 60.5396 116.042 71.4888C115.701 71.8961 115.01 71.5196 115.155 71.0432C114.722 71.1815 114.206 71.0432 114.009 70.4977C109.959 59.364 101.343 58.319 91.1498 56.3751C85.2112 55.2302 80.0083 52.564 75.8823 48.1689C70.0651 59.3563 64.134 70.4823 57.9603 81.4392C57.8162 81.6851 57.6038 81.8003 57.3763 81.808C57.3611 81.831 57.3384 81.8387 57.3156 81.8464C55.1465 82.584 52.5905 80.6324 52.2796 78.4733C52.2416 78.212 52.6133 78.0507 52.7725 78.2658C63.9975 54.3543 77.5206 31.3264 90.0273 8.09098H89.997Z" fill="#222221"/>
<path d="M5.21805 34.8839C6.21919 33.9696 7.13691 32.9323 8.09255 31.9411C8.41868 31.5953 7.97878 31.0344 7.60715 31.3571C6.59842 32.2638 5.54418 33.1474 4.58854 34.1156C4.14106 34.5612 4.73264 35.3219 5.21805 34.8839ZM1.98708 34.0695C2.15393 33.985 2.31321 33.839 2.41181 33.5931C3.73908 30.0048 5.56693 27.3463 7.76642 25.3562C9.13162 27.7612 10.4968 30.1969 11.8544 32.6249C9.1392 34.8916 7.01556 37.8498 5.60485 41.2306C4.3155 38.8948 3.08682 36.5206 1.97949 34.0695H1.98708ZM8.12289 33.2396C7.65265 33.8005 7.02314 34.6611 7.13691 35.4295C7.18242 35.6984 7.55405 35.8751 7.75883 35.6677C8.24424 35.1913 8.41868 34.4383 8.82066 33.8697C9.27572 33.2243 9.86731 32.8094 10.4741 32.333C10.8229 32.064 10.4513 31.5569 10.0873 31.7106C9.32123 32.0103 8.6538 32.6173 8.12289 33.2396Z" fill="#F5F5F5"/>
<path d="M11.8545 51.5422C13.4093 53.9856 15.002 56.4059 16.5568 58.8494C17.7097 55.7605 19.7044 53.102 22.1693 51.0043C20.4856 48.0384 18.8094 45.0649 17.1408 42.0759C14.3346 43.9277 12.3778 46.7092 12.0517 51.0581C12.0365 51.2656 11.9607 51.4116 11.8545 51.5345V51.5422Z" fill="#F5F5F5"/>
<path d="M24.8086 51.3345C26.3482 54.431 27.7893 57.5429 29.1166 60.6932C31.1719 58.8107 33.6293 57.3662 36.4204 56.4672C37.8007 56.0062 39.2114 55.7219 40.6221 55.476C38.4909 53.0326 36.4355 50.3971 34.4636 47.6541C32.8102 47.923 31.1795 48.2841 29.5868 48.845C27.7665 49.4828 26.2041 50.328 24.8086 51.3345Z" fill="#F5F5F5"/>
<path d="M14.668 33.0783C15.927 35.1529 17.1632 37.2582 18.3768 39.3712C19.6737 38.6951 21.0541 38.1572 22.4951 37.7192C24.0954 37.2582 25.7109 36.9509 27.3491 36.7127C26.0598 34.5228 24.8159 32.3022 23.6252 30.0894C20.3563 30.681 17.3149 31.5416 14.6756 33.0783H14.668Z" fill="#F5F5F5"/>
<path d="M42.01 39.6862C40.2731 39.9859 38.3922 40.2702 36.7388 40.8541C36.2534 41.0232 36.5112 41.7839 36.9891 41.707C38.7183 41.4458 40.5082 40.808 42.1844 40.2548C42.5105 40.1549 42.3209 39.6324 42.0175 39.6939L42.01 39.6862ZM43.9137 42.0528C43.049 42.1604 42.1768 42.2679 41.3046 42.3986C40.531 42.5138 39.6891 42.5369 38.9914 42.8903C38.6501 43.0593 38.7335 43.5588 39.1051 43.6279C39.8939 43.7432 40.6827 43.4973 41.4563 43.359C42.3209 43.19 43.1855 43.0286 44.0426 42.8519C44.5507 42.7443 44.4294 41.976 43.9137 42.0528ZM35.5708 45.6487C34.2663 43.7278 32.9845 41.7915 31.7558 39.8399C31.4145 39.279 31.0884 38.7181 30.7471 38.1649C33.2044 37.8421 35.5708 37.5578 37.6337 37.1506C39.2113 36.8356 40.7282 36.413 42.1768 35.8828C42.5257 36.5667 42.8898 37.2505 43.2614 37.8959C44.4218 39.8629 45.6126 41.8607 46.8943 43.8047C43.2993 44.8035 39.3782 45.0955 35.5632 45.6487H35.5708Z" fill="#F5F5F5"/>
<path d="M20.2278 19.9008C20.2278 19.9008 20.2581 19.9315 20.2581 19.9546C21.7902 22.544 23.2616 25.1641 24.733 27.7842C27.3117 27.5691 29.9055 27.5153 32.4691 27.1388C34.2818 26.8775 35.9428 26.4396 37.5051 25.8633C36.2386 23.2201 34.843 20.7152 33.0834 18.6022C33.0227 18.5331 32.9924 18.4639 32.9545 18.3948C31.6424 18.6253 30.3151 18.7713 29.0485 18.8712C26.0071 19.1247 23.034 19.4013 20.2202 19.9008H20.2278Z" fill="#F5F5F5"/>
<path d="M46.5988 26.7314C46.8036 26.4548 46.394 26.0476 46.1437 26.2935C45.0364 27.3922 43.8836 28.1837 42.4425 28.7522C41.9192 28.9674 42.2833 29.7665 42.8142 29.5744C44.2856 29.0212 45.6659 28.0069 46.6064 26.7238L46.5988 26.7314ZM49.0562 27.4383C48.4115 28.0069 47.7517 28.5141 47.016 28.929C46.3485 29.3285 45.6053 29.5744 44.9378 29.9663C44.6344 30.1353 44.7406 30.6732 45.1274 30.5963C46.7353 30.2736 48.2901 29.0673 49.4809 27.9685C49.7994 27.6765 49.3823 27.1387 49.0562 27.4383ZM42.9052 33.616C41.7827 31.5414 40.8346 29.1595 39.8335 26.7775C43.2541 25.1717 46.1665 22.7129 48.3432 19.2476C49.7312 21.9753 51.104 24.6953 52.4995 27.423C49.6023 30.0508 46.4547 32.1945 42.9355 33.6621C42.9355 33.6391 42.9204 33.6314 42.9052 33.6083V33.616Z" fill="#F5F5F5"/>
<path d="M49.822 44.6115C51.483 47.1087 53.1061 49.6136 54.5623 52.226C57.4141 50.8967 60.0459 49.1372 62.5563 47.0549C60.9181 43.9123 59.3178 40.7543 57.7023 37.604C55.8972 41.054 53.1061 43.2284 49.8145 44.6115H49.822Z" fill="#F5F5F5"/>
<path d="M24.0499 59.9097C24.3381 59.6561 24.0423 59.1336 23.6783 59.318C22.6089 59.8405 21.7215 61.0545 21.4864 62.2378C21.3878 62.768 22.2221 62.9524 22.3889 62.4606C22.5482 61.9612 22.6999 61.4848 22.9881 61.0392C23.2839 60.5858 23.6555 60.2554 24.0423 59.902L24.0499 59.9097ZM24.7553 62.9678C25.1345 62.476 25.5137 61.9996 25.8929 61.5079C26.1205 61.2159 25.673 60.9085 25.4379 61.1775C25.0511 61.6154 24.6643 62.0611 24.285 62.4914C23.9058 62.9217 23.4508 63.3366 23.1626 63.836C22.9729 64.1664 23.3522 64.5813 23.6631 64.3124C24.0954 63.9436 24.414 63.4211 24.7553 62.9754V62.9678ZM23.2081 69.8216C21.4712 66.6636 19.5827 63.5901 17.6562 60.5551C17.6562 60.5551 17.6613 60.5474 17.6714 60.532C19.1428 57.4125 20.8721 54.7923 23.1398 52.7024C24.8235 55.6529 26.5528 58.5804 28.2972 61.4771C26.0446 63.7745 24.3078 66.6021 23.2081 69.7985V69.8216Z" fill="#3E3E3D"/>
<path d="M6.75781 43.2207C7.95615 45.2953 9.19242 47.3468 10.4666 49.3753C11.1644 45.5719 13.3563 42.6905 16.3218 40.6159C15.1538 38.526 13.9934 36.4283 12.8254 34.3384C10.277 36.3131 8.19127 39.1253 6.75781 43.2284V43.2207Z" fill="#3E3E3D"/>
<path d="M28.4186 38.4875C25.2028 38.9793 21.9946 39.6555 19.2642 40.9156C20.8872 43.7893 22.4572 46.7091 23.9589 49.6519C25.5668 48.5531 27.3112 47.6542 29.1619 47.0471C30.4967 46.5938 31.8847 46.2788 33.2954 46.0099C31.604 43.5741 29.9886 41.0539 28.4186 38.4875Z" fill="#3E3E3D"/>
<path d="M18.7867 20.1851C15.1916 20.9457 11.8924 22.1521 9.09375 24.242C10.6106 26.5548 12.1048 28.9291 13.5913 31.334C15.131 30.2968 16.8299 29.4592 18.6805 28.8753C19.9471 28.468 21.244 28.2145 22.541 28.0301C21.2364 25.5329 20.0078 23.0434 18.8625 20.6C18.7942 20.4463 18.7791 20.308 18.7942 20.1851H18.7867Z" fill="#3E3E3D"/>
<path d="M44.4222 46.2249C41.8586 46.7244 39.2647 46.9625 36.686 47.3083C38.4532 49.9284 40.1976 52.5793 41.7828 55.2916C44.0429 54.9689 46.3183 54.7307 48.5405 54.2543C50.4442 53.8471 52.2114 53.2555 53.9179 52.5178C51.6805 50.3818 49.7161 47.923 47.9262 45.3259C46.7961 45.6871 45.6281 45.979 44.4222 46.2249Z" fill="#3E3E3D"/>
<path d="M25.8401 29.7358C27.0991 31.964 28.3809 34.1846 29.693 36.3975C32.5827 36.0594 35.4799 35.8059 38.3165 35.1681C39.3783 34.9222 40.3795 34.6226 41.3806 34.2691C40.3036 32.0486 39.3025 29.7281 38.2558 27.446C36.2308 28.2221 34.054 28.7369 31.7711 28.9981C29.7385 29.2363 27.759 29.4592 25.8325 29.7358H25.8401Z" fill="#3E3E3D"/>
<path d="M57.2474 36.6895C55.8519 33.9772 54.4564 31.2725 53.076 28.5525C50.3987 31.4953 47.3042 33.6929 43.8306 35.2142C45.4005 37.9342 47.1298 40.5544 48.8666 43.1668C51.9307 42.0143 54.6611 40.1625 56.7014 36.9277C56.8303 36.7202 57.0502 36.6587 57.2474 36.6895Z" fill="#3E3E3D"/>
<path d="M44.5889 11.8561C42.4805 15.3445 38.7868 17.0886 34.8809 18.003C36.6632 20.0084 37.9905 22.5517 39.1509 25.1872C42.4122 23.6659 45.2033 21.3915 47.7744 18.2873C47.7972 18.2719 47.8123 18.2566 47.8275 18.2412C46.7429 16.1128 45.6735 13.9844 44.5889 11.8484V11.8561Z" fill="#3E3E3D"/>
<path d="M45.6733 9.80441C58.1573 33.2857 70.8764 56.813 82.3289 80.8091C83.0495 80.7399 83.7169 80.6631 84.3919 80.2405C84.7787 80.0023 85.1276 79.6873 85.4385 79.3492C85.3855 79.3031 85.3475 79.257 85.302 79.1955C71.6121 56.5595 59.9017 32.4558 47.4936 9.07446C46.9096 9.38181 46.2877 9.62 45.6733 9.80441Z" fill="#6F6F6F"/>
<path d="M39.7952 4.76408C39.3553 7.26126 41.6306 9.15913 43.959 8.97472C44.0501 8.97472 44.1335 8.97472 44.2017 9.00545C45.074 8.64432 46.0448 8.28319 46.8942 7.79144C46.8336 7.20748 47.4706 6.80793 48.0167 6.92318C48.3353 6.60815 48.5931 6.24702 48.7752 5.81674C49.8977 3.18893 46.9777 1.82123 44.9602 1.58304C42.6697 1.30643 40.2351 2.18237 39.7952 4.77176V4.76408Z" fill="#6F6F6F"/>
<path d="M5.21788 34.8839C6.21902 33.9695 7.13674 32.9322 8.09238 31.941C8.41851 31.5953 7.97861 31.0344 7.60697 31.3571C6.59824 32.2638 5.54401 33.1474 4.58837 34.1155C4.14089 34.5612 4.73247 35.3218 5.21788 34.8839Z" fill="#222221"/>
<path d="M10.4742 32.3254C10.8231 32.0564 10.4514 31.5493 10.0874 31.703C9.32135 32.0026 8.65392 32.6097 8.12301 33.232C7.65277 33.7929 7.02326 34.6535 7.13703 35.4219C7.18254 35.6908 7.55417 35.8675 7.75895 35.6601C8.24436 35.1837 8.4188 34.4307 8.82078 33.8621C9.27584 33.2167 9.86743 32.8017 10.4742 32.3254Z" fill="#222221"/>
<path d="M22.9959 61.0467C23.2917 60.5934 23.6633 60.263 24.0501 59.9095C24.3383 59.656 24.0425 59.1335 23.6785 59.3179C22.6091 59.8404 21.7217 61.0544 21.4866 62.2377C21.388 62.7679 22.2223 62.9523 22.3891 62.4605C22.5484 61.9611 22.7001 61.4847 22.9883 61.039L22.9959 61.0467Z" fill="#222221"/>
<path d="M24.2852 62.4912C23.906 62.9215 23.4509 63.3364 23.1627 63.8359C22.9731 64.1663 23.3523 64.5812 23.6633 64.3122C24.0956 63.9434 24.4141 63.4209 24.7554 62.9753C25.1346 62.4835 25.5139 62.0071 25.8931 61.5154C26.1206 61.2234 25.6731 60.9161 25.438 61.185C25.0512 61.623 24.6644 62.0686 24.2852 62.4989V62.4912Z" fill="#222221"/>
<path d="M41.3047 42.4063C40.5311 42.5216 39.6892 42.5446 38.9914 42.8981C38.6501 43.0671 38.7335 43.5666 39.1052 43.6357C39.894 43.751 40.6827 43.5051 41.4564 43.3668C42.321 43.1977 43.1856 43.0364 44.0427 42.8597C44.5508 42.7521 44.4295 41.9837 43.9137 42.0606C43.0491 42.1681 42.1769 42.2757 41.3047 42.4063Z" fill="#222221"/>
<path d="M42.0103 39.6863C40.2735 39.9859 38.3925 40.2702 36.7391 40.8542C36.2537 41.0232 36.5116 41.7839 36.9894 41.7071C38.7187 41.4458 40.5086 40.8081 42.1847 40.2549C42.5109 40.155 42.3213 39.6325 42.0179 39.694L42.0103 39.6863Z" fill="#222221"/>
<path d="M42.8142 29.5746C44.2856 29.0214 45.666 28.0072 46.6065 26.724C46.8112 26.4474 46.4017 26.0401 46.1514 26.286C45.0441 27.3848 43.8912 28.1762 42.4502 28.7448C41.9269 28.9599 42.2909 29.759 42.8218 29.5669L42.8142 29.5746Z" fill="#222221"/>
<path d="M45.1349 30.5964C46.7428 30.2737 48.2976 29.0673 49.4884 27.9686C49.8069 27.6766 49.3898 27.1387 49.0636 27.4384C48.419 28.007 47.7591 28.5141 47.0234 28.929C46.356 29.3286 45.6127 29.5744 44.9453 29.9663C44.6419 30.1353 44.7481 30.6732 45.1349 30.5964Z" fill="#222221"/>
<path d="M10.4663 49.3755C11.1641 45.5721 13.356 42.6907 16.3215 40.6161C15.1535 38.5262 13.9931 36.4285 12.8251 34.3386C10.2767 36.3133 8.19099 39.1255 6.75753 43.2286C7.95587 45.3031 9.19214 47.3547 10.4663 49.3832V49.3755ZM7.77385 25.3564C5.57436 27.3541 3.74651 30.005 2.41923 33.5932C2.32064 33.8391 2.16136 33.9851 1.99451 34.0696C3.10942 36.5207 4.33051 38.895 5.61987 41.2308C7.02299 37.85 9.14663 34.8918 11.8694 32.6251C10.5118 30.1971 9.14663 27.7614 7.78143 25.3564H7.77385ZM12.0515 51.0736C12.0363 51.281 11.9605 51.427 11.8543 51.5499C13.4091 53.9934 15.0018 56.4137 16.5566 58.8571C17.7095 55.7683 19.7042 53.1097 22.1691 51.0121C20.4854 48.0462 18.8092 45.0726 17.1406 42.0837C14.3344 43.9355 12.3776 46.7169 12.0515 51.0659V51.0736ZM33.2955 46.01C31.6042 43.5743 29.9887 41.0541 28.4187 38.4877C25.2029 38.9795 21.9947 39.6557 19.2643 40.9158C20.8873 43.7895 22.4573 46.7093 23.959 49.6521C25.5669 48.5533 27.3114 47.6543 29.162 47.0473C30.4968 46.594 31.8848 46.279 33.2955 46.01ZM17.6715 60.5245C17.6715 60.5245 17.664 60.5398 17.6564 60.5475C19.5828 63.5826 21.4713 66.656 23.2082 69.814V69.791C24.3079 66.5946 26.0372 63.7593 28.2973 61.4696C26.5529 58.5651 24.8237 55.6377 23.1399 52.6948C20.8722 54.7848 19.1429 57.4049 17.6715 60.5245ZM18.794 20.1776C15.199 20.9383 11.8998 22.1446 9.10112 24.2346C10.618 26.5473 12.1121 28.9216 13.5987 31.3266C15.1383 30.2893 16.8372 29.4518 18.6879 28.8678C19.9545 28.4606 21.2514 28.207 22.5483 28.0226C21.2438 25.5254 20.0151 23.0359 18.8699 20.5925C18.8016 20.4388 18.7865 20.3005 18.8016 20.1776H18.794ZM18.3769 39.3637C19.6738 38.6875 21.0542 38.1497 22.4952 37.7117C24.0956 37.2507 25.711 36.9433 27.3493 36.7051C26.0599 34.5153 24.8161 32.2947 23.6253 30.0818C20.3564 30.6735 17.3151 31.534 14.6757 33.0708C15.9347 35.1453 17.171 37.2507 18.3845 39.3637H18.3769ZM34.4635 47.6467C32.8101 47.9156 31.1794 48.2767 29.5867 48.8376C27.7664 49.4754 26.204 50.3206 24.8085 51.3271C26.3481 54.4236 27.7892 57.5355 29.1165 60.6858C31.1718 58.8033 33.6292 57.3588 36.4203 56.4598C37.8006 55.9988 39.2113 55.7145 40.622 55.4686C38.4908 53.0252 36.4354 50.3897 34.4635 47.6467ZM41.3881 34.2694C40.3111 32.0488 39.3099 29.7284 38.2633 27.4463C36.2382 28.2224 34.0615 28.7372 31.7786 28.9984C29.746 29.2366 27.7664 29.4594 25.84 29.7361C27.099 31.9643 28.3808 34.1849 29.6929 36.3978C32.5825 36.0597 35.4798 35.8061 38.3164 35.1684C39.3782 34.9225 40.3793 34.6229 41.3805 34.2694H41.3881ZM32.9693 18.3873C31.6572 18.6178 30.33 18.7638 29.0634 18.8637C26.022 19.1172 23.0489 19.3938 20.2351 19.8933C20.2351 19.9163 20.2654 19.924 20.2654 19.9471C21.7975 22.5365 23.2689 25.1566 24.7402 27.7767C27.3189 27.5616 29.9128 27.5078 32.4764 27.1313C34.289 26.87 35.95 26.4321 37.5124 25.8558C36.2458 23.2126 34.8503 20.7078 33.0907 18.5947C33.03 18.5256 32.9997 18.4564 32.9618 18.3873H32.9693ZM42.1844 35.8753C40.7358 36.4055 39.2113 36.8281 37.6414 37.1431C35.5784 37.5503 33.2121 37.8346 30.7547 38.1573C31.096 38.7182 31.4221 39.2792 31.7634 39.8324C32.9921 41.784 34.2739 43.7203 35.5784 45.6412C39.3934 45.088 43.3145 44.7883 46.9095 43.7971C45.6278 41.8532 44.437 39.8554 43.2766 37.8884C42.8974 37.243 42.5409 36.5591 42.192 35.8753H42.1844ZM53.9176 52.5104C51.6802 50.3744 49.7158 47.9156 47.9259 45.3185C46.7958 45.6796 45.6278 45.9716 44.4218 46.2175C41.8583 46.7169 39.2644 46.9551 36.6857 47.3009C38.4529 49.921 40.1973 52.5719 41.7825 55.2842C44.0426 54.9615 46.318 54.7233 48.5402 54.2469C50.4439 53.8397 52.2111 53.248 53.9176 52.5104ZM47.8348 18.2413C46.7503 16.1129 45.6809 13.9846 44.5963 11.8485C42.4878 15.3369 38.7942 17.0811 34.8882 17.9954C36.6706 20.0009 37.9978 22.5441 39.1582 25.1796C42.4196 23.6583 45.2106 21.3839 47.7818 18.2797C47.8045 18.2643 47.8197 18.249 47.8348 18.2336V18.2413ZM43.9592 8.96712C44.0502 8.96712 44.1336 8.96712 44.2019 8.99786C45.0741 8.63672 46.0449 8.27559 46.8944 7.78384C46.8337 7.19988 47.4708 6.80033 48.0169 6.91559C48.3354 6.60055 48.5933 6.23942 48.7753 5.80914C49.8978 3.18133 46.9778 1.81364 44.9603 1.57544C42.6698 1.29883 40.2352 2.17477 39.7953 4.76416C39.3554 7.26135 41.6308 9.15921 43.9592 8.97481V8.96712ZM54.5622 52.2261C57.414 50.8968 60.0458 49.1373 62.5562 47.055C60.918 43.9124 59.3177 40.7544 57.7022 37.6041C55.8971 41.0541 53.106 43.2286 49.8144 44.6116C51.4754 47.1088 53.0984 49.6137 54.5547 52.2261H54.5622ZM84.3843 80.2407C84.7711 80.0025 85.1199 79.6875 85.4309 79.3494C85.3778 79.3033 85.3399 79.2572 85.2944 79.1958C71.6045 56.5597 59.8941 32.4561 47.486 9.07469C46.902 9.38204 46.28 9.62023 45.6657 9.80464C58.1497 33.2859 70.8688 56.8133 82.3213 80.8093C83.0418 80.7402 83.7092 80.6633 84.3843 80.2407ZM48.3506 19.2555C46.1663 22.7209 43.2538 25.1796 39.8408 26.7855C40.842 29.1598 41.7901 31.5417 42.9125 33.624C42.9277 33.647 42.9429 33.6547 42.9429 33.6778C46.4621 32.2102 49.6096 30.0664 52.5069 27.4386C51.1113 24.7109 49.7385 21.9909 48.3506 19.2632V19.2555ZM57.2471 36.6974C55.8516 33.9851 54.4561 31.2805 53.0757 28.5604C50.3984 31.5033 47.3039 33.7008 43.8303 35.2222C45.4002 37.9422 47.1295 40.5623 48.8663 43.1748C51.9304 42.0222 54.6608 40.1705 56.7011 36.9356C56.83 36.7282 57.0499 36.6667 57.2471 36.6974ZM86.25 78.2583C86.4093 78.0432 86.7809 78.2046 86.743 78.4658C86.4396 80.6249 83.8761 82.5766 81.7069 81.8389C81.6842 81.8389 81.6614 81.8236 81.6463 81.8005C81.4187 81.7928 81.2064 81.6776 81.0623 81.4317C74.881 70.4825 68.9499 59.3489 63.1402 48.1615C59.0143 52.5565 53.8114 55.2227 47.8728 56.3676C37.6793 58.3193 29.0558 59.3565 25.0133 70.4902C24.8161 71.0434 24.3003 71.174 23.868 71.0357C24.0121 71.5121 23.3144 71.8886 22.9806 71.4814C13.94 60.5475 5.9915 47.3931 0.0983963 34.4692C-0.197397 33.8314 0.250085 33.3166 0.765827 33.186C0.773411 33.1015 0.773411 33.0323 0.796165 32.9632C3.23835 26.2707 8.22891 20.9767 15.017 18.7715C25.3849 15.4214 35.4419 19.0404 44.1943 11.0648C44.1109 10.8957 44.0123 10.7267 43.9289 10.5653C43.8909 10.4885 43.8985 10.4347 43.8758 10.3732C41.153 10.4501 38.5363 8.59062 38.3391 5.67083C38.1268 2.40528 40.7055 0.123231 43.762 0.000292575C46.4469 -0.114962 50.1329 1.06832 50.5577 4.19557C50.7776 5.85524 50.0798 7.12304 48.9877 8.06813C61.502 31.3035 75.0175 54.3391 86.2424 78.243L86.25 78.2583Z" fill="#222221"/>
</svg>
