<svg width="136" height="65" viewBox="0 0 136 65" fill="none" xmlns="http://www.w3.org/2000/svg">
<g id="Group 34">
<path id="Vector" d="M45.5118 24.2082L34.2037 32.4629L45.5118 40.7177C50.5493 44.3966 51.6987 51.5278 48.077 56.6449C44.4553 61.7621 37.435 62.9296 32.3975 59.2539L8.39633 41.731C8.36225 41.7058 8.33127 41.6807 8.29719 41.6555C8.21664 41.5957 8.13919 41.5359 8.06173 41.4761C7.98428 41.4163 7.90993 41.3534 7.83557 41.2936C7.77361 41.2432 7.71474 41.1897 7.65588 41.1394C7.56294 41.0607 7.47309 40.9789 7.38325 40.897C7.34607 40.8624 7.31199 40.8309 7.27791 40.7963C7.16638 40.6893 7.05485 40.5792 6.94641 40.469C6.93712 40.4596 6.92783 40.4501 6.91853 40.4407C6.11612 39.6067 5.45931 38.6689 4.95432 37.665C4.94503 37.6461 4.93573 37.6304 4.92644 37.6115C4.86138 37.4762 4.79632 37.3409 4.73436 37.2055C4.71267 37.1583 4.69098 37.108 4.66929 37.0608C4.62592 36.9569 4.58255 36.8531 4.53917 36.7461C4.50819 36.6674 4.47721 36.5856 4.44623 36.5069C4.41835 36.4313 4.39356 36.3558 4.36568 36.2803C4.3285 36.1733 4.29132 36.0631 4.25724 35.9561C4.24175 35.9058 4.22626 35.8554 4.21077 35.8051C4.1705 35.6729 4.13332 35.5407 4.09614 35.4086C4.08685 35.3771 4.08065 35.3456 4.07136 35.3141C4.03418 35.1662 3.99701 35.0152 3.96602 34.8641C3.96293 34.8421 3.95673 34.8201 3.95363 34.798C3.92265 34.6407 3.89167 34.4833 3.86688 34.326C3.86378 34.3008 3.86069 34.2788 3.85759 34.2536C3.8328 34.0994 3.81111 33.9452 3.79253 33.791C3.78943 33.7564 3.78633 33.7186 3.78014 33.684C3.76464 33.5423 3.75225 33.4007 3.74296 33.2591C3.73986 33.1993 3.73676 33.1395 3.73367 33.0797C3.72747 32.9633 3.72127 32.8437 3.71817 32.7273C3.71508 32.6391 3.71817 32.551 3.71817 32.4629C3.71817 32.3748 3.71817 32.2867 3.71817 32.1985C3.72127 32.0821 3.72747 31.9625 3.73367 31.8461C3.73676 31.7863 3.73986 31.7265 3.74296 31.6667C3.75225 31.5251 3.76464 31.3835 3.78014 31.2418C3.78323 31.2072 3.78633 31.1695 3.79253 31.1348C3.81111 30.9806 3.8328 30.8264 3.85759 30.6722C3.86069 30.6471 3.86378 30.625 3.86688 30.5998C3.89167 30.4425 3.92265 30.2851 3.95363 30.1278C3.95673 30.1058 3.96293 30.0837 3.96602 30.0617C3.99701 29.9106 4.03418 29.7627 4.07136 29.6117C4.08065 29.5802 4.08685 29.5487 4.09614 29.5173C4.13022 29.3851 4.1705 29.2529 4.21077 29.1207C4.22626 29.0704 4.24175 29.02 4.25724 28.9697C4.29132 28.8595 4.3285 28.7525 4.36568 28.6455C4.39046 28.57 4.41835 28.4945 4.44623 28.4189C4.47721 28.3403 4.50819 28.2584 4.53917 28.1798C4.57945 28.0759 4.62282 27.9689 4.66929 27.865C4.69098 27.8147 4.71267 27.7675 4.73436 27.7203C4.79632 27.585 4.85828 27.4496 4.92644 27.3143C4.93573 27.2954 4.94503 27.2797 4.95432 27.2608C5.45931 26.2569 6.11612 25.3191 6.91853 24.4851C6.92783 24.4757 6.93712 24.4662 6.94641 24.4568C7.05485 24.3466 7.16328 24.2365 7.27791 24.1295C7.31199 24.0949 7.34917 24.0634 7.38325 24.0288C7.47309 23.9469 7.56294 23.8651 7.65588 23.7865C7.71474 23.733 7.77671 23.6826 7.83557 23.6322C7.90993 23.5693 7.98738 23.5095 8.06173 23.4497C8.13919 23.3868 8.21664 23.327 8.29719 23.2672C8.33127 23.242 8.36225 23.2168 8.39633 23.1917L32.3975 5.66881C37.435 1.98989 44.4584 3.15745 48.077 8.27773C51.7018 13.398 50.5524 20.5292 45.5118 24.2082Z" fill="black" stroke="white" stroke-width="6" stroke-miterlimit="10"/>
<path id="Vector_2" d="M90.8229 24.2082L102.132 32.4629L90.8229 40.7177C85.7851 44.3966 84.6357 51.5278 88.2575 56.6449C91.8794 61.7621 98.9001 62.9296 103.938 59.2539L127.94 41.731C127.974 41.7058 128.005 41.6807 128.039 41.6555C128.12 41.5957 128.197 41.5359 128.275 41.4761C128.352 41.4163 128.427 41.3534 128.501 41.2936C128.563 41.2432 128.622 41.1897 128.681 41.1394C128.774 41.0607 128.863 40.9789 128.953 40.897C128.99 40.8624 129.025 40.8309 129.059 40.7963C129.17 40.6893 129.282 40.5792 129.39 40.469C129.399 40.4596 129.409 40.4501 129.418 40.4407C130.22 39.6067 130.877 38.6689 131.382 37.665C131.392 37.6461 131.401 37.6304 131.41 37.6115C131.475 37.4762 131.54 37.3409 131.602 37.2055C131.624 37.1583 131.646 37.108 131.667 37.0608C131.711 36.9569 131.754 36.8531 131.797 36.7461C131.828 36.6674 131.859 36.5856 131.89 36.5069C131.918 36.4313 131.943 36.3558 131.971 36.2803C132.008 36.1733 132.045 36.0631 132.079 35.9561C132.095 35.9058 132.11 35.8554 132.126 35.8051C132.166 35.6729 132.203 35.5407 132.241 35.4086C132.25 35.3771 132.256 35.3456 132.265 35.3141C132.303 35.1662 132.34 35.0152 132.371 34.8641C132.374 34.8421 132.38 34.8201 132.383 34.798C132.414 34.6407 132.445 34.4833 132.47 34.326C132.473 34.3008 132.476 34.2788 132.479 34.2536C132.504 34.0994 132.526 33.9452 132.544 33.791C132.547 33.7564 132.55 33.7186 132.557 33.684C132.572 33.5423 132.584 33.4007 132.594 33.2591C132.597 33.1993 132.6 33.1395 132.603 33.0797C132.609 32.9633 132.615 32.8437 132.619 32.7273C132.622 32.6391 132.619 32.551 132.619 32.4629C132.619 32.3748 132.619 32.2867 132.619 32.1985C132.615 32.0821 132.609 31.9625 132.603 31.8461C132.6 31.7863 132.597 31.7265 132.594 31.6667C132.584 31.5251 132.572 31.3835 132.557 31.2418C132.553 31.2072 132.55 31.1695 132.544 31.1348C132.526 30.9806 132.504 30.8264 132.479 30.6722C132.476 30.6471 132.473 30.625 132.47 30.5998C132.445 30.4425 132.414 30.2851 132.383 30.1278C132.38 30.1058 132.374 30.0837 132.371 30.0617C132.34 29.9106 132.303 29.7627 132.265 29.6117C132.256 29.5802 132.25 29.5487 132.241 29.5173C132.206 29.3851 132.166 29.2529 132.126 29.1207C132.11 29.0704 132.095 29.02 132.079 28.9697C132.045 28.8595 132.008 28.7525 131.971 28.6455C131.946 28.57 131.918 28.4945 131.89 28.4189C131.859 28.3403 131.828 28.2584 131.797 28.1798C131.757 28.0759 131.714 27.9689 131.667 27.865C131.646 27.8147 131.624 27.7675 131.602 27.7203C131.54 27.585 131.478 27.4496 131.41 27.3143C131.401 27.2954 131.392 27.2797 131.382 27.2608C130.877 26.2569 130.22 25.3191 129.418 24.4851C129.409 24.4757 129.399 24.4662 129.39 24.4568C129.282 24.3466 129.173 24.2365 129.059 24.1295C129.025 24.0949 128.987 24.0634 128.953 24.0288C128.863 23.9469 128.774 23.8651 128.681 23.7865C128.622 23.733 128.56 23.6826 128.501 23.6322C128.427 23.5693 128.349 23.5095 128.275 23.4497C128.197 23.3868 128.12 23.327 128.039 23.2672C128.005 23.242 127.974 23.2168 127.94 23.1917L103.938 5.66881C98.9001 1.98989 91.8763 3.15745 88.2575 8.27773C84.6357 13.398 85.7851 20.5292 90.8229 24.2082Z" fill="black" stroke="white" stroke-width="6" stroke-miterlimit="10"/>
</g>
</svg>
