<svg width="405" height="72" viewBox="0 0 405 72" fill="none" xmlns="http://www.w3.org/2000/svg">
<rect x="2" y="2.5" width="400.541" height="67" fill="white"/>
<rect x="2" y="2.5" width="400.541" height="67" stroke="black" stroke-width="4"/>
<g clip-path="url(#clip0_953_800)">
<path d="M125.252 19.189C122.169 17.6059 118.512 16.8071 114.267 16.8071H100.726V54.3505H114.267C118.512 54.3505 122.184 53.5662 125.252 51.9977C128.335 50.4292 130.69 48.2216 132.363 45.3895C134.021 42.5574 134.858 39.2896 134.858 35.5861C134.858 31.8826 134.021 28.6148 132.363 25.8117C130.706 22.9942 128.335 20.8011 125.252 19.2035V19.189ZM125.763 41.9184C124.772 43.7338 123.3 45.1426 121.316 46.1447C119.333 47.1468 116.885 47.6406 113.926 47.6406H108.271V23.517H113.926C116.87 23.517 119.333 24.0108 121.316 25.0129C123.3 26.0151 124.772 27.4093 125.763 29.2102C126.755 31.0112 127.251 33.1316 127.251 35.5861C127.251 38.0406 126.755 40.1174 125.763 41.9329V41.9184Z" fill="#1E1E1E"/>
<path d="M160.856 28.6002C158.764 27.3803 156.192 26.7703 153.14 26.7703C150.088 26.7703 147.795 27.4238 145.595 28.7309C143.395 30.0381 141.66 31.7809 140.389 33.9449C139.119 36.1089 138.483 38.4763 138.483 41.0179C138.483 43.5595 139.134 46.1737 140.42 48.3087C141.706 50.4437 143.472 52.1139 145.734 53.3484C147.996 54.5684 150.553 55.1783 153.419 55.1783C156.285 55.1783 159.26 54.5393 161.414 53.2612C163.583 51.9832 165.334 50.2403 166.666 48.0473L160.732 45.3168C160.066 46.4061 159.121 47.3066 157.928 48.0182C156.735 48.7299 155.263 49.093 153.512 49.093C151.761 49.093 150.661 48.7735 149.453 48.1199C148.244 47.4663 147.284 46.5368 146.571 45.2878C146.122 44.5035 145.827 43.5885 145.672 42.5864H167.053C167.084 42.4121 167.131 42.1217 167.162 41.715C167.193 41.3083 167.224 40.8291 167.224 40.2772C167.224 37.7936 166.682 35.528 165.597 33.4801C164.513 31.4323 162.932 29.8057 160.841 28.5712L160.856 28.6002ZM145.967 37.721C146.122 37.2272 146.292 36.7625 146.525 36.3268C147.191 35.0923 148.12 34.1192 149.298 33.4221C150.475 32.7249 151.761 32.3764 153.187 32.3764C154.612 32.3764 155.232 32.5361 156.069 32.8702C156.905 33.2042 157.618 33.6254 158.222 34.1482C158.811 34.6711 159.291 35.252 159.617 35.8765C159.942 36.501 160.143 37.111 160.174 37.7065H145.967V37.721Z" fill="#1E1E1E"/>
<path d="M183.43 45.0119H182.981L175.761 27.6127H167.441L179.51 54.3505H186.792L198.986 27.6127H190.759L183.43 45.0119Z" fill="#1E1E1E"/>
<path d="M202.596 54.3505H210.141V39.3477H226.192V32.6378H210.141V23.517H227.99V16.8071H202.596V54.3505Z" fill="#1E1E1E"/>
<path d="M252.562 28.6002C250.47 27.3803 247.899 26.7703 244.846 26.7703C241.794 26.7703 239.501 27.4238 237.301 28.7309C235.101 30.0381 233.366 31.7809 232.095 33.9449C230.825 36.1089 230.189 38.4763 230.189 41.0179C230.189 43.5595 230.84 46.1737 232.126 48.3087C233.412 50.4437 235.178 52.1139 237.44 53.3484C239.702 54.5684 242.259 55.1783 245.125 55.1783C247.992 55.1783 250.966 54.5393 253.12 53.2612C255.289 51.9832 257.04 50.2403 258.372 48.0473L252.438 45.3168C251.772 46.4061 250.827 47.3066 249.634 48.0182C248.441 48.7299 246.969 49.093 245.218 49.093C243.467 49.093 242.367 48.7735 241.159 48.1199C239.95 47.4663 238.99 46.5368 238.277 45.2878C237.828 44.5035 237.533 43.5885 237.378 42.5864H258.76C258.791 42.4121 258.837 42.1217 258.868 41.715C258.899 41.3083 258.93 40.8291 258.93 40.2772C258.93 37.7936 258.388 35.528 257.303 33.4801C256.219 31.4323 254.638 29.8057 252.547 28.5712L252.562 28.6002ZM237.688 37.721C237.843 37.2272 238.014 36.7625 238.246 36.3268C238.912 35.0923 239.842 34.1192 241.019 33.4221C242.197 32.7249 243.483 32.3764 244.908 32.3764C246.334 32.3764 246.953 32.5361 247.79 32.8702C248.627 33.2042 249.339 33.6254 249.944 34.1482C250.532 34.6711 251.013 35.252 251.338 35.8765C251.679 36.501 251.865 37.111 251.896 37.7065H237.688V37.721Z" fill="#1E1E1E"/>
<path d="M277.832 38.4036L273.634 37.4596C272.596 37.2127 271.697 36.8496 270.953 36.3558C270.209 35.862 269.838 35.2956 269.838 34.6275C269.838 33.9594 270.209 33.4511 270.953 33.0009C271.697 32.5506 272.704 32.3183 273.974 32.3183C275.245 32.3183 276.066 32.5216 277.027 32.9428C277.972 33.364 278.746 34.0901 279.351 35.1504L285.61 32.5797C284.944 31.258 284.045 30.1542 282.93 29.2974C281.814 28.4405 280.482 27.8014 278.963 27.3803C277.429 26.9591 275.725 26.7557 273.819 26.7557C271.914 26.7557 269.9 27.0898 268.195 27.7579C266.491 28.4259 265.159 29.3555 264.167 30.5319C263.175 31.7228 262.68 33.1171 262.68 34.7292C262.68 36.3413 263.067 37.4306 263.826 38.5343C264.585 39.6381 265.592 40.5386 266.816 41.2648C268.04 41.9764 269.357 42.4848 270.736 42.7607L274.098 43.4433C274.889 43.5885 275.648 43.7628 276.391 43.9952C277.135 44.2276 277.755 44.5326 278.266 44.9392C278.762 45.3459 279.025 45.8978 279.025 46.5949C279.025 47.292 278.545 48.2506 277.569 48.6137C276.593 48.9768 275.524 49.1656 274.331 49.1656C273.138 49.1656 271.604 48.8461 270.519 48.1925C269.435 47.539 268.583 46.5949 267.947 45.3314L261.409 48.0037C261.936 49.2963 262.726 50.4872 263.811 51.562C264.895 52.6512 266.305 53.5227 268.04 54.1907C269.776 54.8588 271.867 55.1929 274.331 55.1929C276.794 55.1929 278.607 54.8298 280.435 54.1181C282.263 53.4065 283.72 52.3898 284.804 51.0827C285.889 49.7756 286.431 48.2361 286.431 46.4933C286.431 44.7504 285.719 42.8624 284.278 41.4536C282.837 40.0593 280.714 39.0427 277.879 38.4182L277.832 38.4036Z" fill="#1E1E1E"/>
<path d="M306.124 48.0909C305.597 48.2506 305.039 48.3233 304.45 48.3233C303.18 48.3233 302.266 48.0183 301.708 47.4083C301.15 46.7983 300.871 45.8397 300.871 44.5471V33.4802H307.859V27.6127H300.871V20.0604H293.543V27.6127H288.569V33.4802H293.543V45.7962C293.543 48.5992 294.379 50.7923 296.053 52.3753C297.726 53.9729 300.05 54.7572 302.994 54.7572C305.938 54.7572 304.76 54.6846 305.597 54.5248C306.433 54.3651 307.27 54.1472 308.091 53.8713V47.1614C307.301 47.6116 306.65 47.9166 306.139 48.0764L306.124 48.0909Z" fill="#1E1E1E"/>
<path d="M367.757 16.8507H338.97C327.897 16.8507 318.921 25.2648 318.921 35.6442C318.921 46.0235 327.897 54.4377 338.97 54.4377H367.757C378.829 54.4377 387.805 46.0235 387.805 35.6442C387.805 25.2648 378.829 16.8507 367.757 16.8507Z" fill="white" stroke="#1E1E1E" stroke-width="2" stroke-linejoin="round"/>
<path d="M334.662 41.4536V40.0593C334.693 40.0303 334.802 39.9141 334.972 39.7398C335.143 39.5655 335.375 39.3332 335.639 39.0427C335.902 38.7667 336.196 38.4618 336.506 38.1422C336.816 37.8227 337.126 37.4887 337.451 37.1692C337.761 36.8351 338.056 36.5446 338.334 36.2687C338.598 35.9927 338.815 35.7749 338.985 35.6151C339.527 35.0632 339.946 34.5549 340.209 34.1337C340.473 33.698 340.596 33.2478 340.596 32.754C340.596 32.2602 340.504 32.0569 340.318 31.7664C340.132 31.4614 339.868 31.229 339.512 31.0402C339.171 30.8659 338.768 30.7643 338.303 30.7643C337.839 30.7643 337.498 30.8514 337.172 31.0257C336.847 31.2 336.599 31.4178 336.398 31.6647C336.212 31.9116 336.072 32.1585 336.026 32.4054L334.678 31.8971C334.755 31.6647 334.879 31.4178 335.05 31.1274C335.22 30.8369 335.468 30.5755 335.778 30.314C336.088 30.0526 336.444 29.8348 336.878 29.675C337.312 29.5152 337.808 29.4281 338.365 29.4281C338.923 29.4281 339.822 29.5879 340.38 29.9074C340.937 30.2269 341.371 30.6336 341.666 31.1274C341.96 31.6212 342.115 32.1585 342.115 32.7249C342.115 33.2914 342.006 33.698 341.789 34.1773C341.573 34.6421 341.294 35.0778 340.984 35.4844C340.674 35.8911 340.364 36.2251 340.07 36.5156C339.915 36.6608 339.713 36.8642 339.45 37.1256C339.187 37.387 338.908 37.6775 338.598 37.997C338.288 38.3165 337.994 38.607 337.699 38.912C337.405 39.2025 337.157 39.4639 336.94 39.6817C336.723 39.8996 336.568 40.0448 336.491 40.132H342.223V41.4681H334.647L334.662 41.4536Z" fill="#1E1E1E"/>
<path d="M348.529 41.715C347.785 41.715 347.135 41.5553 346.546 41.2357C345.957 40.9162 345.461 40.4805 345.043 39.9141C344.625 39.3622 344.299 38.7087 344.083 37.9534C343.866 37.2127 343.742 36.4139 343.742 35.557C343.742 34.7001 343.85 33.9014 344.083 33.1607C344.299 32.4199 344.625 31.7664 345.043 31.2C345.461 30.6336 345.973 30.1978 346.546 29.8783C347.135 29.5733 347.785 29.4136 348.529 29.4136C349.273 29.4136 349.924 29.5733 350.512 29.8783C351.101 30.1978 351.612 30.6336 352.031 31.2C352.449 31.7664 352.774 32.4199 352.991 33.1607C353.208 33.9014 353.317 34.7001 353.317 35.557C353.317 36.4139 353.208 37.2127 352.991 37.9534C352.774 38.6941 352.449 39.3477 352.031 39.9141C351.612 40.466 351.101 40.9162 350.512 41.2357C349.924 41.5553 349.257 41.715 348.529 41.715ZM348.529 40.3934C349.211 40.3934 349.8 40.1755 350.28 39.7543C350.776 39.3332 351.148 38.7522 351.411 38.026C351.674 37.2999 351.798 36.4865 351.798 35.5861C351.798 34.6856 351.674 33.8578 351.411 33.1316C351.148 32.4054 350.776 31.839 350.28 31.4033C349.784 30.9821 349.211 30.7643 348.529 30.7643C347.847 30.7643 347.274 30.9821 346.778 31.4033C346.298 31.8245 345.926 32.4054 345.663 33.1316C345.399 33.8578 345.276 34.6711 345.276 35.5861C345.276 36.5011 345.399 37.2999 345.663 38.026C345.926 38.7522 346.298 39.3332 346.778 39.7543C347.259 40.1755 347.847 40.3934 348.529 40.3934Z" fill="#1E1E1E"/>
<path d="M354.602 41.4536V40.0593C354.633 40.0303 354.742 39.9141 354.912 39.7398C355.083 39.5655 355.315 39.3332 355.578 39.0427C355.842 38.7667 356.136 38.4618 356.446 38.1422C356.756 37.8227 357.066 37.4887 357.391 37.1692C357.701 36.8351 357.995 36.5446 358.274 36.2687C358.538 35.9927 358.755 35.7749 358.925 35.6151C359.467 35.0632 359.886 34.5549 360.149 34.1337C360.412 33.698 360.536 33.2478 360.536 32.754C360.536 32.2602 360.443 32.0569 360.258 31.7664C360.072 31.4614 359.808 31.229 359.452 31.0402C359.111 30.8659 358.708 30.7643 358.243 30.7643C357.779 30.7643 357.438 30.8514 357.112 31.0257C356.787 31.2 356.539 31.4178 356.338 31.6647C356.152 31.9116 356.012 32.1585 355.966 32.4054L354.618 31.8971C354.695 31.6647 354.819 31.4178 354.99 31.1274C355.16 30.8369 355.408 30.5755 355.718 30.314C356.028 30.0526 356.384 29.8348 356.818 29.675C357.252 29.5152 357.748 29.4281 358.305 29.4281C358.863 29.4281 359.762 29.5879 360.32 29.9074C360.877 30.2269 361.311 30.6336 361.605 31.1274C361.9 31.6212 362.055 32.1585 362.055 32.7249C362.055 33.2914 361.946 33.698 361.729 34.1773C361.512 34.6421 361.234 35.0778 360.924 35.4844C360.614 35.8911 360.304 36.2251 360.01 36.5156C359.855 36.6608 359.653 36.8642 359.39 37.1256C359.127 37.387 358.848 37.6775 358.538 37.997C358.228 38.3165 357.934 38.607 357.639 38.912C357.345 39.2025 357.097 39.4639 356.88 39.6817C356.663 39.8996 356.508 40.0448 356.431 40.132H362.163V41.4681H354.587L354.602 41.4536Z" fill="#1E1E1E"/>
<path d="M363.264 38.8539V37.8082L369.105 29.6895H370.685V41.4536H369.229V31.8245H369.136L364.937 37.5468H372.11V38.8684H363.248L363.264 38.8539Z" fill="#1E1E1E"/>
<path d="M35.8988 18.5564L19.4164 29.6588C15.9628 31.9851 15.1749 36.4953 17.6565 39.7327L17.6656 39.7445C20.1472 42.9819 24.9587 43.7204 28.4123 41.3942L44.8947 30.2918C48.3483 27.9655 49.1362 23.4553 46.6546 20.2179L46.6455 20.2061C44.1639 16.9687 39.3524 16.2301 35.8988 18.5564Z" fill="#EA4335" stroke="#1E1E1E" stroke-width="2" stroke-miterlimit="10"/>
<path d="M17.6665 31.3101L17.6575 31.3219C15.1758 34.5593 15.9637 39.0695 19.4173 41.3958L35.8998 52.4982C39.3534 54.8245 44.1649 54.0859 46.6465 50.8485L46.6556 50.8367C49.1372 47.5994 48.3493 43.0891 44.8957 40.7628L28.4132 29.6605C24.9597 27.3342 20.1482 28.0728 17.6665 31.3101Z" fill="#4285F4" stroke="#1E1E1E" stroke-width="2" stroke-miterlimit="10"/>
<path d="M75.6903 29.651L59.2079 40.7533C55.7543 43.0796 54.9664 47.5899 57.448 50.8272L57.4571 50.839C59.9387 54.0764 64.7502 54.815 68.2038 52.4887L84.6862 41.3863C88.1398 39.06 88.9277 34.5498 86.4461 31.3124L86.437 31.3006C83.9554 28.0633 79.1439 27.3247 75.6903 29.651Z" fill="#F9AB00" stroke="#1E1E1E" stroke-width="2" stroke-miterlimit="10"/>
<path d="M57.4556 20.2105L57.4466 20.2223C54.9649 23.4596 55.7528 27.9699 59.2064 30.2962L75.6889 41.3985C79.1425 43.7248 83.9539 42.9862 86.4356 39.7489L86.4446 39.7371C88.9263 36.4997 88.1384 31.9895 84.6848 29.6632L68.2023 18.5608C64.7487 16.2345 59.9373 16.9731 57.4556 20.2105Z" fill="#34A853" stroke="#1E1E1E" stroke-width="2" stroke-miterlimit="10"/>
</g>
<defs>
<clipPath id="clip0_953_800">
<rect width="374.541" height="41" fill="white" transform="translate(15 15.5)"/>
</clipPath>
</defs>
</svg>
