<svg width="118" height="44" viewBox="0 0 118 44" fill="none" xmlns="http://www.w3.org/2000/svg">
<rect x="1.55713" y="2.62488" width="74.0154" height="37.9526" rx="18.9763" fill="#4285F4" stroke="black" stroke-width="3"/>
<rect x="41.8979" y="2.62488" width="74.0154" height="37.9526" rx="18.9763" fill="#EA4335" stroke="black" stroke-width="3"/>
<path d="M62.067 28.5867C62.793 27.8607 64.19 26.4637 66.258 24.3957C68.348 22.3057 69.69 20.9417 70.284 20.3037C71.076 19.4457 71.615 18.7307 71.901 18.1587C72.209 17.5867 72.363 16.9377 72.363 16.2117C72.363 15.4417 72.077 14.7927 71.505 14.2647C70.933 13.7367 70.174 13.4727 69.228 13.4727C68.304 13.4727 67.556 13.7367 66.984 14.2647C66.412 14.7927 66.005 15.4527 65.763 16.2447L61.869 14.6277C62.111 13.7697 62.551 12.9447 63.189 12.1527C63.849 11.3387 64.696 10.6787 65.73 10.1727C66.764 9.66667 67.952 9.41367 69.294 9.41367C70.79 9.41367 72.099 9.71067 73.221 10.3047C74.343 10.8767 75.212 11.6687 75.828 12.6807C76.444 13.6707 76.752 14.7817 76.752 16.0137C76.752 18.4557 75.564 20.8427 73.188 23.1747C72.22 24.1207 70.427 25.9027 67.809 28.5207L67.908 28.7187H77.049V32.5137H62.067V28.5867ZM88.885 33.0417C87.697 33.0417 86.553 32.8217 85.453 32.3817C84.353 31.9197 83.385 31.2377 82.549 30.3357C81.735 29.4117 81.174 28.2787 80.866 26.9367L84.76 25.4187C85.024 26.5407 85.508 27.4317 86.212 28.0917C86.916 28.7297 87.796 29.0487 88.852 29.0487C89.908 29.0487 90.788 28.6967 91.492 27.9927C92.196 27.2887 92.548 26.3977 92.548 25.3197C92.548 24.2637 92.196 23.3837 91.492 22.6797C90.81 21.9537 89.93 21.5907 88.852 21.5907C88.192 21.5907 87.587 21.7337 87.037 22.0197C86.509 22.2837 86.058 22.6467 85.684 23.1087L81.493 21.2277L82.78 9.94167H95.518V13.7367H86.377L85.552 19.0167L85.816 19.0827C86.916 18.1807 88.225 17.7297 89.743 17.7297C90.997 17.7297 92.163 18.0487 93.241 18.6867C94.341 19.3247 95.221 20.2267 95.881 21.3927C96.541 22.5367 96.871 23.8457 96.871 25.3197C96.871 26.8157 96.53 28.1467 95.848 29.3127C95.166 30.4787 94.22 31.3917 93.01 32.0517C91.8 32.7117 90.425 33.0417 88.885 33.0417Z" fill="white"/>
<path d="M12.8947 12.5285H18.4947C19.2947 12.5285 20.028 12.6952 20.6947 13.0285C21.3747 13.3618 21.908 13.8152 22.2947 14.3885C22.6814 14.9618 22.8747 15.5885 22.8747 16.2685C22.8747 16.9885 22.6947 17.6152 22.3347 18.1485C21.988 18.6685 21.528 19.0685 20.9547 19.3485V19.5085C21.7014 19.7752 22.2947 20.2018 22.7347 20.7885C23.1747 21.3618 23.3947 22.0552 23.3947 22.8685C23.3947 23.6552 23.1814 24.3552 22.7547 24.9685C22.3414 25.5685 21.7747 26.0352 21.0547 26.3685C20.348 26.6885 19.5614 26.8485 18.6947 26.8485H12.8947V12.5285ZM18.2947 18.3685C18.8814 18.3685 19.348 18.2085 19.6947 17.8885C20.0547 17.5552 20.2347 17.1418 20.2347 16.6485C20.2347 16.1685 20.0614 15.7685 19.7147 15.4485C19.3814 15.1152 18.9347 14.9485 18.3747 14.9485H15.5947V18.3685H18.2947ZM18.5947 24.3885C19.248 24.3885 19.7547 24.2218 20.1147 23.8885C20.488 23.5418 20.6747 23.0952 20.6747 22.5485C20.6747 22.0018 20.488 21.5552 20.1147 21.2085C19.7414 20.8618 19.208 20.6885 18.5147 20.6885H15.5947V24.3885H18.5947ZM29.7639 27.1685C28.5239 27.1685 27.5172 26.9152 26.7439 26.4085C25.9839 25.9018 25.4506 25.2418 25.1439 24.4285L27.4839 23.4085C27.6972 23.8885 27.9972 24.2552 28.3839 24.5085C28.7839 24.7485 29.2439 24.8685 29.7639 24.8685C30.2439 24.8685 30.6439 24.7952 30.9639 24.6485C31.2839 24.4885 31.4439 24.2352 31.4439 23.8885C31.4439 23.5552 31.2972 23.3085 31.0039 23.1485C30.7106 22.9752 30.2706 22.8218 29.6839 22.6885L28.4839 22.4285C27.6572 22.2285 26.9706 21.8685 26.4239 21.3485C25.8772 20.8152 25.6039 20.1552 25.6039 19.3685C25.6039 18.7818 25.7772 18.2552 26.1239 17.7885C26.4839 17.3218 26.9639 16.9618 27.5639 16.7085C28.1772 16.4552 28.8506 16.3285 29.5839 16.3285C31.6906 16.3285 33.0972 17.0685 33.8039 18.5485L31.5639 19.5285C31.1639 18.8085 30.5239 18.4485 29.6439 18.4485C29.1906 18.4485 28.8306 18.5352 28.5639 18.7085C28.2972 18.8685 28.1639 19.0752 28.1639 19.3285C28.1639 19.8085 28.6172 20.1685 29.5239 20.4085L31.0239 20.7685C32.0372 21.0218 32.7972 21.4085 33.3039 21.9285C33.8239 22.4485 34.0839 23.0885 34.0839 23.8485C34.0839 24.5018 33.8906 25.0818 33.5039 25.5885C33.1306 26.0818 32.6106 26.4685 31.9439 26.7485C31.2906 27.0285 30.5639 27.1685 29.7639 27.1685Z" fill="white"/>
</svg>
