<svg width="118" height="44" viewBox="0 0 118 44" fill="none" xmlns="http://www.w3.org/2000/svg">
<rect x="1.55713" y="2.62488" width="74.0154" height="37.9526" rx="18.9763" fill="#4285F4" stroke="black" stroke-width="3"/>
<rect x="41.8979" y="2.62488" width="74.0154" height="37.9526" rx="18.9763" fill="#EA4335" stroke="black" stroke-width="3"/>
<path d="M71.6138 28.6077H61.8488V25.3217L71.2728 11.3097H75.6748V24.8257H78.3098V28.6077H75.6748V32.5137H71.6138V28.6077ZM71.6138 24.8257V17.3547H71.3658L66.3438 24.8257H71.6138ZM89.4071 33.0097C88.2911 33.0097 87.2164 32.803 86.1831 32.3897C85.1497 31.9557 84.2404 31.315 83.4551 30.4677C82.6904 29.5997 82.1634 28.5353 81.8741 27.2747L85.5321 25.8487C85.7801 26.9027 86.2347 27.7397 86.8961 28.3597C87.5574 28.959 88.3841 29.2587 89.3761 29.2587C90.3681 29.2587 91.1947 28.928 91.8561 28.2667C92.5174 27.6053 92.8481 26.7683 92.8481 25.7557C92.8481 24.7637 92.5174 23.937 91.8561 23.2757C91.2154 22.5937 90.3887 22.2527 89.3761 22.2527C88.7561 22.2527 88.1877 22.387 87.6711 22.6557C87.1751 22.9037 86.7514 23.2447 86.4001 23.6787L82.4631 21.9117L83.6721 11.3097H95.6381V14.8747H87.0511L86.2761 19.8347L86.5241 19.8967C87.5574 19.0493 88.7871 18.6257 90.2131 18.6257C91.3911 18.6257 92.4864 18.9253 93.4991 19.5247C94.5324 20.124 95.3591 20.9713 95.9791 22.0667C96.5991 23.1413 96.9091 24.371 96.9091 25.7557C96.9091 27.161 96.5887 28.4113 95.9481 29.5067C95.3074 30.602 94.4187 31.4597 93.2821 32.0797C92.1454 32.6997 90.8537 33.0097 89.4071 33.0097Z" fill="white"/>
<path d="M12.8947 12.5285H18.4947C19.2947 12.5285 20.028 12.6952 20.6947 13.0285C21.3747 13.3618 21.908 13.8152 22.2947 14.3885C22.6814 14.9618 22.8747 15.5885 22.8747 16.2685C22.8747 16.9885 22.6947 17.6152 22.3347 18.1485C21.988 18.6685 21.528 19.0685 20.9547 19.3485V19.5085C21.7014 19.7752 22.2947 20.2018 22.7347 20.7885C23.1747 21.3618 23.3947 22.0552 23.3947 22.8685C23.3947 23.6552 23.1814 24.3552 22.7547 24.9685C22.3414 25.5685 21.7747 26.0352 21.0547 26.3685C20.348 26.6885 19.5614 26.8485 18.6947 26.8485H12.8947V12.5285ZM18.2947 18.3685C18.8814 18.3685 19.348 18.2085 19.6947 17.8885C20.0547 17.5552 20.2347 17.1418 20.2347 16.6485C20.2347 16.1685 20.0614 15.7685 19.7147 15.4485C19.3814 15.1152 18.9347 14.9485 18.3747 14.9485H15.5947V18.3685H18.2947ZM18.5947 24.3885C19.248 24.3885 19.7547 24.2218 20.1147 23.8885C20.488 23.5418 20.6747 23.0952 20.6747 22.5485C20.6747 22.0018 20.488 21.5552 20.1147 21.2085C19.7414 20.8618 19.208 20.6885 18.5147 20.6885H15.5947V24.3885H18.5947ZM29.7639 27.1685C28.5239 27.1685 27.5172 26.9152 26.7439 26.4085C25.9839 25.9018 25.4506 25.2418 25.1439 24.4285L27.4839 23.4085C27.6972 23.8885 27.9972 24.2552 28.3839 24.5085C28.7839 24.7485 29.2439 24.8685 29.7639 24.8685C30.2439 24.8685 30.6439 24.7952 30.9639 24.6485C31.2839 24.4885 31.4439 24.2352 31.4439 23.8885C31.4439 23.5552 31.2972 23.3085 31.0039 23.1485C30.7106 22.9752 30.2706 22.8218 29.6839 22.6885L28.4839 22.4285C27.6572 22.2285 26.9706 21.8685 26.4239 21.3485C25.8772 20.8152 25.6039 20.1552 25.6039 19.3685C25.6039 18.7818 25.7772 18.2552 26.1239 17.7885C26.4839 17.3218 26.9639 16.9618 27.5639 16.7085C28.1772 16.4552 28.8506 16.3285 29.5839 16.3285C31.6906 16.3285 33.0972 17.0685 33.8039 18.5485L31.5639 19.5285C31.1639 18.8085 30.5239 18.4485 29.6439 18.4485C29.1906 18.4485 28.8306 18.5352 28.5639 18.7085C28.2972 18.8685 28.1639 19.0752 28.1639 19.3285C28.1639 19.8085 28.6172 20.1685 29.5239 20.4085L31.0239 20.7685C32.0372 21.0218 32.7972 21.4085 33.3039 21.9285C33.8239 22.4485 34.0839 23.0885 34.0839 23.8485C34.0839 24.5018 33.8906 25.0818 33.5039 25.5885C33.1306 26.0818 32.6106 26.4685 31.9439 26.7485C31.2906 27.0285 30.5639 27.1685 29.7639 27.1685Z" fill="white"/>
</svg>
