<svg width="925" height="802" viewBox="0 0 925 802" fill="none" xmlns="http://www.w3.org/2000/svg">
<mask id="path-1-outside-1_1245_2291" maskUnits="userSpaceOnUse" x="572.474" y="422.467" width="353" height="379" fill="black">
<rect fill="white" x="572.474" y="422.467" width="353" height="379"/>
<path d="M577.474 427.467H924.974V801.003H577.474V427.467Z"/>
</mask>
<path d="M577.474 427.467H924.974V801.003H577.474V427.467Z" fill="#F9AB00"/>
<path d="M577.474 427.467V422.467H572.474V427.467H577.474ZM577.474 432.467H924.974V422.467H577.474V432.467ZM582.474 801.003V427.467H572.474V801.003H582.474Z" fill="black" mask="url(#path-1-outside-1_1245_2291)"/>
<mask id="path-3-outside-2_1245_2291" maskUnits="userSpaceOnUse" x="-0.402344" y="-0.00146484" width="452" height="96" fill="black">
<rect fill="white" x="-0.402344" y="-0.00146484" width="452" height="96"/>
<path d="M446.598 -0.00146484H5.14648V90.8855H446.598V-0.00146484Z"/>
</mask>
<path d="M446.598 -0.00146484H5.14648V90.8855H446.598V-0.00146484Z" fill="#4285F4"/>
<path d="M5.14648 90.8855V95.8855H0.146484V90.8855H5.14648ZM446.598 90.8855H451.598V95.8855H446.598V90.8855ZM10.1465 -0.00146484V90.8855H0.146484V-0.00146484H10.1465ZM5.14648 85.8855H446.598V95.8855H5.14648V85.8855ZM441.598 90.8855V-0.00146484H451.598V90.8855H441.598Z" fill="black" mask="url(#path-3-outside-2_1245_2291)"/>
<path d="M77.8515 35.6397L66.5574 43.8842L77.8515 52.1287C82.8828 55.8031 84.0308 62.9255 80.4136 68.0363C76.7964 73.147 69.7847 74.3131 64.7534 70.6419L40.7821 53.1408C40.7481 53.1157 40.7171 53.0906 40.6831 53.0654C40.6027 53.0057 40.5253 52.946 40.4479 52.8862C40.3706 52.8265 40.2963 52.7637 40.2221 52.7039C40.1602 52.6537 40.1014 52.6002 40.0426 52.5499C39.9498 52.4713 39.86 52.3896 39.7703 52.3079C39.7332 52.2733 39.6991 52.2419 39.6651 52.2073C39.5537 52.1005 39.4423 51.9904 39.334 51.8804C39.3247 51.871 39.3154 51.8616 39.3062 51.8521C38.5047 51.0192 37.8488 50.0826 37.3444 49.0799C37.3351 49.061 37.3258 49.0453 37.3165 49.0264C37.2516 48.8913 37.1866 48.7561 37.1247 48.621C37.103 48.5738 37.0814 48.5235 37.0597 48.4764C37.0164 48.3727 36.9731 48.2689 36.9298 48.1621C36.8988 48.0835 36.8679 48.0018 36.8369 47.9232C36.8091 47.8478 36.7843 47.7723 36.7565 47.6969C36.7193 47.59 36.6822 47.48 36.6482 47.3731C36.6327 47.3229 36.6172 47.2726 36.6018 47.2223C36.5615 47.0903 36.5244 46.9583 36.4873 46.8262C36.478 46.7948 36.4718 46.7634 36.4625 46.7319C36.4254 46.5842 36.3883 46.4333 36.3573 46.2825C36.3542 46.2605 36.348 46.2385 36.3449 46.2165C36.314 46.0593 36.2831 45.9022 36.2583 45.745C36.2552 45.7198 36.2521 45.6978 36.249 45.6727C36.2243 45.5187 36.2026 45.3647 36.184 45.2107C36.1809 45.1761 36.1778 45.1384 36.1717 45.1038C36.1562 44.9623 36.1438 44.8209 36.1345 44.6795C36.1314 44.6197 36.1283 44.56 36.1252 44.5003C36.1191 44.384 36.1129 44.2646 36.1098 44.1483C36.1067 44.0603 36.1098 43.9723 36.1098 43.8842C36.1098 43.7962 36.1098 43.7082 36.1098 43.6202C36.1129 43.5039 36.1191 43.3845 36.1252 43.2682C36.1283 43.2085 36.1314 43.1488 36.1345 43.089C36.1438 42.9476 36.1562 42.8061 36.1717 42.6647C36.1748 42.6301 36.1778 42.5924 36.184 42.5578C36.2026 42.4038 36.2243 42.2498 36.249 42.0958C36.2521 42.0706 36.2552 42.0486 36.2583 42.0235C36.2831 41.8663 36.314 41.7092 36.3449 41.552C36.348 41.53 36.3542 41.508 36.3573 41.486C36.3883 41.3351 36.4254 41.1874 36.4625 41.0365C36.4718 41.0051 36.478 40.9737 36.4873 40.9423C36.5213 40.8102 36.5615 40.6782 36.6018 40.5462C36.6172 40.4959 36.6327 40.4456 36.6482 40.3953C36.6822 40.2853 36.7193 40.1785 36.7565 40.0716C36.7812 39.9962 36.8091 39.9207 36.8369 39.8453C36.8679 39.7667 36.8988 39.685 36.9298 39.6064C36.97 39.5027 37.0133 39.3958 37.0597 39.2921C37.0814 39.2418 37.103 39.1947 37.1247 39.1475C37.1866 39.0124 37.2485 38.8772 37.3165 38.742C37.3258 38.7232 37.3351 38.7075 37.3444 38.6886C37.8488 37.6859 38.5047 36.7493 39.3062 35.9163C39.3154 35.9069 39.3247 35.8975 39.334 35.8881C39.4423 35.778 39.5506 35.668 39.6651 35.5612C39.6991 35.5266 39.7363 35.4952 39.7703 35.4606C39.86 35.3789 39.9498 35.2971 40.0426 35.2186C40.1014 35.1651 40.1633 35.1148 40.2221 35.0645C40.2963 35.0017 40.3737 34.942 40.4479 34.8822C40.5253 34.8194 40.6027 34.7597 40.6831 34.6999C40.7171 34.6748 40.7481 34.6497 40.7821 34.6245L64.7534 17.1234C69.7847 13.4491 76.7995 14.6152 80.4136 19.7291C84.0339 24.843 82.8859 31.9654 77.8515 35.6397Z" fill="white" stroke="#1E1E1E" stroke-width="5" stroke-miterlimit="10"/>
<path d="M123.106 35.6397L134.401 43.8842L123.106 52.1287C118.075 55.8031 116.927 62.9255 120.544 68.0363C124.161 73.147 131.173 74.3131 136.205 70.6419L160.177 53.1408C160.211 53.1157 160.242 53.0906 160.276 53.0654C160.357 53.0057 160.434 52.946 160.512 52.8862C160.589 52.8265 160.663 52.7637 160.737 52.7039C160.799 52.6537 160.858 52.6002 160.917 52.5499C161.01 52.4713 161.099 52.3896 161.189 52.3079C161.226 52.2733 161.26 52.2419 161.294 52.2073C161.406 52.1005 161.517 51.9904 161.626 51.8804C161.635 51.871 161.644 51.8616 161.653 51.8521C162.455 51.0192 163.111 50.0826 163.615 49.0799C163.624 49.061 163.634 49.0453 163.643 49.0264C163.708 48.8913 163.773 48.7561 163.835 48.621C163.857 48.5738 163.878 48.5235 163.9 48.4764C163.943 48.3727 163.987 48.2689 164.03 48.1621C164.061 48.0835 164.092 48.0018 164.123 47.9232C164.151 47.8478 164.175 47.7723 164.203 47.6969C164.24 47.59 164.277 47.48 164.311 47.3731C164.327 47.3229 164.342 47.2726 164.358 47.2223C164.398 47.0903 164.435 46.9583 164.472 46.8262C164.482 46.7948 164.488 46.7634 164.497 46.7319C164.534 46.5842 164.571 46.4333 164.602 46.2825C164.605 46.2605 164.612 46.2385 164.615 46.2165C164.646 46.0593 164.677 45.9022 164.701 45.745C164.704 45.7198 164.708 45.6978 164.711 45.6727C164.735 45.5187 164.757 45.3647 164.776 45.2107C164.779 45.1761 164.782 45.1384 164.788 45.1038C164.803 44.9623 164.816 44.8209 164.825 44.6795C164.828 44.6197 164.831 44.56 164.834 44.5003C164.841 44.384 164.847 44.2646 164.85 44.1483C164.853 44.0603 164.85 43.9723 164.85 43.8842C164.85 43.7962 164.85 43.7082 164.85 43.6202C164.847 43.5039 164.841 43.3845 164.834 43.2682C164.831 43.2085 164.828 43.1488 164.825 43.089C164.816 42.9476 164.803 42.8061 164.788 42.6647C164.785 42.6301 164.782 42.5924 164.776 42.5578C164.757 42.4038 164.735 42.2498 164.711 42.0958C164.708 42.0706 164.704 42.0486 164.701 42.0235C164.677 41.8663 164.646 41.7092 164.615 41.552C164.612 41.53 164.605 41.508 164.602 41.486C164.571 41.3351 164.534 41.1874 164.497 41.0365C164.488 41.0051 164.482 40.9737 164.472 40.9423C164.438 40.8102 164.398 40.6782 164.358 40.5462C164.342 40.4959 164.327 40.4456 164.311 40.3953C164.277 40.2853 164.24 40.1785 164.203 40.0716C164.178 39.9962 164.151 39.9207 164.123 39.8453C164.092 39.7667 164.061 39.685 164.03 39.6064C163.99 39.5027 163.946 39.3958 163.9 39.2921C163.878 39.2418 163.857 39.1947 163.835 39.1475C163.773 39.0124 163.711 38.8772 163.643 38.742C163.634 38.7232 163.624 38.7075 163.615 38.6886C163.111 37.6859 162.455 36.7493 161.653 35.9163C161.644 35.9069 161.635 35.8975 161.626 35.8881C161.517 35.778 161.409 35.668 161.294 35.5612C161.26 35.5266 161.223 35.4952 161.189 35.4606C161.099 35.3789 161.01 35.2971 160.917 35.2186C160.858 35.1651 160.796 35.1148 160.737 35.0645C160.663 35.0017 160.586 34.942 160.512 34.8822C160.434 34.8194 160.357 34.7597 160.276 34.6999C160.242 34.6748 160.211 34.6497 160.177 34.6245L136.205 17.1234C131.173 13.4491 124.158 14.6152 120.544 19.7291C116.927 24.843 118.075 31.9654 123.106 35.6397Z" fill="white" stroke="#1E1E1E" stroke-width="5" stroke-miterlimit="10"/>
<mask id="path-7-outside-3_1245_2291" maskUnits="userSpaceOnUse" x="649.975" y="-0.0810577" width="275" height="69" fill="black">
<rect fill="white" x="649.975" y="-0.0810577" width="275" height="69"/>
<path d="M924.975 63.9189L924.975 -0.0015831L655.484 -0.00158609L655.484 63.9189L924.975 63.9189Z"/>
</mask>
<path d="M924.975 63.9189L924.975 -0.0015831L655.484 -0.00158609L655.484 63.9189L924.975 63.9189Z" fill="#EA4335"/>
<path d="M655.484 63.9189L655.484 68.9189L650.484 68.9189L650.484 63.9189L655.484 63.9189ZM660.484 -0.00158603L660.484 63.9189L650.484 63.9189L650.484 -0.00158614L660.484 -0.00158603ZM655.484 58.9189L924.975 58.9189L924.975 68.9189L655.484 68.9189L655.484 58.9189Z" fill="black" mask="url(#path-7-outside-3_1245_2291)"/>
<mask id="path-9-outside-4_1245_2291" maskUnits="userSpaceOnUse" x="715.975" y="422.201" width="209" height="224" fill="black">
<rect fill="white" x="715.975" y="422.201" width="209" height="224"/>
<path d="M924.975 641.201L924.975 427.467L721.337 427.467L721.337 641.201L924.975 641.201Z"/>
</mask>
<path d="M924.975 641.201L924.975 427.467L721.337 427.467L721.337 641.201L924.975 641.201Z" fill="#34A853"/>
<path d="M721.337 427.467L716.337 427.467L716.337 422.467L721.337 422.467L721.337 427.467ZM721.337 641.201L721.337 646.201L716.337 646.201L716.337 641.201L721.337 641.201ZM924.975 432.467L721.337 432.467L721.337 422.467L924.975 422.467L924.975 432.467ZM726.337 427.467L726.337 641.201L716.337 641.201L716.337 427.467L726.337 427.467ZM721.337 636.201L924.975 636.201L924.975 646.201L721.337 646.201L721.337 636.201Z" fill="black" mask="url(#path-9-outside-4_1245_2291)"/>
<rect x="2.5" y="2.5" width="218.966" height="172.019" transform="matrix(1.28259e-08 -1 -1 -1.10871e-08 749.191 646.282)" fill="#EA4335" stroke="black" stroke-width="5"/>
<rect x="2.5" y="2.5" width="214.004" height="120.496" transform="matrix(1.28259e-08 -1 -1 -1.10871e-08 577.408 519.009)" fill="#34A853" stroke="black" stroke-width="5"/>
<rect x="2.5" y="2.5" width="82.9032" height="302.63" transform="matrix(1.28259e-08 -1 -1 -1.10871e-08 451.598 178.783)" fill="#34A853" stroke="black" stroke-width="5"/>
<rect x="2.5" y="2.5" width="68.9205" height="82.9032" transform="matrix(1.28259e-08 -1 -1 -1.10871e-08 451.598 247.697)" fill="#F9AB00" stroke="black" stroke-width="5"/>
<mask id="path-15-outside-5_1245_2291" maskUnits="userSpaceOnUse" x="467.109" y="514.01" width="111" height="288" fill="black">
<rect fill="white" x="467.109" y="514.01" width="111" height="288"/>
<path d="M472.109 519.01H572.408V801.015H472.109V519.01Z"/>
</mask>
<path d="M472.109 519.01H572.408V801.015H472.109V519.01Z" fill="#4285F4"/>
<path d="M472.109 519.01V514.01H467.109V519.01H472.109ZM572.408 519.01H577.408V514.01H572.408V519.01ZM472.109 524.01H572.408V514.01H472.109V524.01ZM567.408 519.01V801.015H577.408V519.01H567.408ZM477.109 801.015V519.01H467.109V801.015H477.109Z" fill="black" mask="url(#path-15-outside-5_1245_2291)"/>
<mask id="path-17-outside-6_1245_2291" maskUnits="userSpaceOnUse" x="572.474" y="-0.00146484" width="115" height="267" fill="black">
<rect fill="white" x="572.474" y="-0.00146484" width="115" height="267"/>
<path d="M577.474 -0.00146484H681.825V261.673H577.474V-0.00146484Z"/>
</mask>
<path d="M577.474 -0.00146484H681.825V261.673H577.474V-0.00146484Z" fill="#F9AB00"/>
<path d="M681.825 261.673V266.673H686.825V261.673H681.825ZM577.474 261.673H572.474V266.673H577.474V261.673ZM676.825 -0.00146484V261.673H686.825V-0.00146484H676.825ZM681.825 256.673H577.474V266.673H681.825V256.673ZM582.474 261.673V-0.00146484H572.474V261.673H582.474Z" fill="black" mask="url(#path-17-outside-6_1245_2291)"/>
<mask id="path-19-outside-7_1245_2291" maskUnits="userSpaceOnUse" x="445.834" y="-0.00146484" width="133" height="306" fill="black">
<rect fill="white" x="445.834" y="-0.00146484" width="133" height="306"/>
<path d="M450.834 -0.00146484H573.422V300.625H450.834V-0.00146484Z"/>
</mask>
<path d="M450.834 -0.00146484H573.422V300.625H450.834V-0.00146484Z" fill="#EA4335"/>
<path d="M573.422 300.625V305.625H578.422V300.625H573.422ZM450.834 300.625H445.834V305.625H450.834V300.625ZM568.422 -0.00146484V300.625H578.422V-0.00146484H568.422ZM573.422 295.625H450.834V305.625H573.422V295.625ZM455.834 300.625V-0.00146484H445.834V300.625H455.834Z" fill="black" mask="url(#path-19-outside-7_1245_2291)"/>
<mask id="path-21-outside-8_1245_2291" maskUnits="userSpaceOnUse" x="571.975" y="261.667" width="353" height="167" fill="black">
<rect fill="white" x="571.975" y="261.667" width="353" height="167"/>
<path d="M924.975 266.667H577.474V423.472H924.975V266.667Z"/>
</mask>
<path d="M924.975 266.667H577.474V423.472H924.975V266.667Z" fill="#EA4335"/>
<path d="M577.474 266.667H572.474V261.667H577.474V266.667ZM577.474 423.472V428.472H572.474V423.472H577.474ZM924.975 271.667H577.474V261.667H924.975V271.667ZM582.474 266.667V423.472H572.474V266.667H582.474ZM577.474 418.472H924.975V428.472H577.474V418.472Z" fill="black" mask="url(#path-21-outside-8_1245_2291)"/>
<mask id="path-23-outside-9_1245_2291" maskUnits="userSpaceOnUse" x="6.13867" y="724.014" width="83" height="78" fill="black">
<rect fill="white" x="6.13867" y="724.014" width="83" height="78"/>
<path d="M11.1387 729.014H84.0834V801.015H11.1387V729.014Z"/>
</mask>
<path d="M11.1387 729.014H84.0834V801.015H11.1387V729.014Z" fill="#EA4335"/>
<path d="M11.1387 729.014V724.014H6.13867V729.014H11.1387ZM84.0834 729.014H89.0834V724.014H84.0834V729.014ZM11.1387 734.014H84.0834V724.014H11.1387V734.014ZM79.0834 729.014V801.015H89.0834V729.014H79.0834ZM16.1387 801.015V729.014H6.13867V801.015H16.1387Z" fill="black" mask="url(#path-23-outside-9_1245_2291)"/>
<mask id="path-25-outside-10_1245_2291" maskUnits="userSpaceOnUse" x="84.1494" y="724.014" width="82" height="78" fill="black">
<rect fill="white" x="84.1494" y="724.014" width="82" height="78"/>
<path d="M89.1494 729.014H161.081V801.015H89.1494V729.014Z"/>
</mask>
<path d="M89.1494 729.014H161.081V801.015H89.1494V729.014Z" fill="#4285F4"/>
<path d="M89.1494 729.014V724.014H84.1494V729.014H89.1494ZM161.081 729.014H166.081V724.014H161.081V729.014ZM89.1494 734.014H161.081V724.014H89.1494V734.014ZM156.081 729.014V801.015H166.081V729.014H156.081ZM94.1494 801.015V729.014H84.1494V801.015H94.1494Z" fill="black" mask="url(#path-25-outside-10_1245_2291)"/>
<mask id="path-27-outside-11_1245_2291" maskUnits="userSpaceOnUse" x="161.146" y="724.014" width="83" height="78" fill="black">
<rect fill="white" x="161.146" y="724.014" width="83" height="78"/>
<path d="M166.146 729.014H239.091V801.015H166.146V729.014Z"/>
</mask>
<path d="M166.146 729.014H239.091V801.015H166.146V729.014Z" fill="#F9AB00"/>
<path d="M166.146 729.014V724.014H161.146V729.014H166.146ZM239.091 729.014H244.091V724.014H239.091V729.014ZM166.146 734.014H239.091V724.014H166.146V734.014ZM234.091 729.014V801.015H244.091V729.014H234.091ZM171.146 801.015V729.014H161.146V801.015H171.146Z" fill="black" mask="url(#path-27-outside-11_1245_2291)"/>
<mask id="path-29-outside-12_1245_2291" maskUnits="userSpaceOnUse" x="238.17" y="724.014" width="83" height="78" fill="black">
<rect fill="white" x="238.17" y="724.014" width="83" height="78"/>
<path d="M243.17 729.014H316.115V801.015H243.17V729.014Z"/>
</mask>
<path d="M243.17 729.014H316.115V801.015H243.17V729.014Z" fill="#34A853"/>
<path d="M243.17 729.014V724.014H238.17V729.014H243.17ZM316.115 729.014H321.115V724.014H316.115V729.014ZM243.17 734.014H316.115V724.014H243.17V734.014ZM311.115 729.014V801.015H321.115V729.014H311.115ZM248.17 801.015V729.014H238.17V801.015H248.17Z" fill="black" mask="url(#path-29-outside-12_1245_2291)"/>
<mask id="path-31-outside-13_1245_2291" maskUnits="userSpaceOnUse" x="313.044" y="646.189" width="159" height="155" fill="black">
<rect fill="white" x="313.044" y="646.189" width="159" height="155"/>
<path d="M467.044 651.189H318.115V801.003H467.044V651.189Z"/>
</mask>
<path d="M467.044 651.189H318.115V801.003H467.044V651.189Z" fill="#EA4335"/>
<path d="M467.044 651.189V646.189H472.044V651.189H467.044ZM318.115 651.189H313.115V646.189H318.115V651.189ZM467.044 656.189H318.115V646.189H467.044V656.189ZM323.115 651.189V801.003H313.115V651.189H323.115ZM462.044 801.003V651.189H472.044V801.003H462.044Z" fill="black" mask="url(#path-31-outside-13_1245_2291)"/>
<g clip-path="url(#clip0_1245_2291)">
<path d="M555.469 14.1454C555.469 6.45848 560.561 0.226074 566.843 0.226074C573.126 0.226074 578.218 6.45848 578.218 14.1454" stroke="#1E1E1E" stroke-width="3" stroke-miterlimit="10" stroke-linejoin="round"/>
<path d="M532.722 14.1454C532.722 6.45848 537.814 0.226074 544.096 0.226074C550.379 0.226074 555.471 6.45848 555.471 14.1454" stroke="#1E1E1E" stroke-width="3" stroke-miterlimit="10" stroke-linejoin="round"/>
<path d="M509.973 14.1454C509.973 6.45848 515.065 0.226074 521.347 0.226074C527.63 0.226074 532.722 6.45848 532.722 14.1454" stroke="#1E1E1E" stroke-width="3" stroke-miterlimit="10" stroke-linejoin="round"/>
<path d="M464.53 14.1454C464.53 6.45848 469.623 0.226074 475.905 0.226074C482.187 0.226074 487.28 6.45848 487.28 14.1454" stroke="#1E1E1E" stroke-width="3" stroke-miterlimit="10" stroke-linejoin="round"/>
<path d="M487.276 14.1454C487.276 6.45848 492.369 0.226074 498.651 0.226074C504.933 0.226074 510.026 6.45848 510.026 14.1454" stroke="#1E1E1E" stroke-width="3" stroke-miterlimit="10" stroke-linejoin="round"/>
<path d="M441.78 14.1454C441.78 6.45848 446.873 0.226074 453.155 0.226074C459.437 0.226074 464.53 6.45848 464.53 14.1454" stroke="#1E1E1E" stroke-width="3" stroke-miterlimit="10" stroke-linejoin="round"/>
<path d="M555.469 31.0643C555.469 23.3774 560.561 17.145 566.843 17.145C573.126 17.145 578.218 23.3774 578.218 31.0643" stroke="#1E1E1E" stroke-width="3" stroke-miterlimit="10" stroke-linejoin="round"/>
<path d="M532.722 31.0643C532.722 23.3774 537.814 17.145 544.096 17.145C550.379 17.145 555.471 23.3774 555.471 31.0643" stroke="#1E1E1E" stroke-width="3" stroke-miterlimit="10" stroke-linejoin="round"/>
<path d="M509.973 31.0643C509.973 23.3774 515.065 17.145 521.347 17.145C527.63 17.145 532.722 23.3774 532.722 31.0643" stroke="#1E1E1E" stroke-width="3" stroke-miterlimit="10" stroke-linejoin="round"/>
<path d="M464.53 31.0643C464.53 23.3774 469.623 17.145 475.905 17.145C482.187 17.145 487.28 23.3774 487.28 31.0643" stroke="#1E1E1E" stroke-width="3" stroke-miterlimit="10" stroke-linejoin="round"/>
<path d="M487.276 31.0643C487.276 23.3774 492.369 17.145 498.651 17.145C504.933 17.145 510.026 23.3774 510.026 31.0643" stroke="#1E1E1E" stroke-width="3" stroke-miterlimit="10" stroke-linejoin="round"/>
<path d="M441.78 31.0643C441.78 23.3774 446.873 17.145 453.155 17.145C459.437 17.145 464.53 23.3774 464.53 31.0643" stroke="#1E1E1E" stroke-width="3" stroke-miterlimit="10" stroke-linejoin="round"/>
<path d="M555.469 47.9838C555.469 40.2969 560.561 34.0645 566.843 34.0645C573.126 34.0645 578.218 40.2969 578.218 47.9838" stroke="#1E1E1E" stroke-width="3" stroke-miterlimit="10" stroke-linejoin="round"/>
<path d="M532.722 47.9838C532.722 40.2969 537.814 34.0645 544.096 34.0645C550.379 34.0645 555.471 40.2969 555.471 47.9838" stroke="#1E1E1E" stroke-width="3" stroke-miterlimit="10" stroke-linejoin="round"/>
<path d="M509.973 47.9838C509.973 40.2969 515.065 34.0645 521.347 34.0645C527.63 34.0645 532.722 40.2969 532.722 47.9838" stroke="#1E1E1E" stroke-width="3" stroke-miterlimit="10" stroke-linejoin="round"/>
<path d="M464.53 47.9838C464.53 40.2969 469.623 34.0645 475.905 34.0645C482.187 34.0645 487.28 40.2969 487.28 47.9838" stroke="#1E1E1E" stroke-width="3" stroke-miterlimit="10" stroke-linejoin="round"/>
<path d="M487.276 47.9838C487.276 40.2969 492.369 34.0645 498.651 34.0645C504.933 34.0645 510.026 40.2969 510.026 47.9838" stroke="#1E1E1E" stroke-width="3" stroke-miterlimit="10" stroke-linejoin="round"/>
<path d="M441.78 47.9838C441.78 40.2969 446.873 34.0645 453.155 34.0645C459.437 34.0645 464.53 40.2969 464.53 47.9838" stroke="#1E1E1E" stroke-width="3" stroke-miterlimit="10" stroke-linejoin="round"/>
<path d="M555.469 64.9032C555.469 57.2163 560.561 50.9839 566.843 50.9839C573.126 50.9839 578.218 57.2163 578.218 64.9032" stroke="#1E1E1E" stroke-width="3" stroke-miterlimit="10" stroke-linejoin="round"/>
<path d="M532.722 64.9032C532.722 57.2163 537.814 50.9839 544.096 50.9839C550.379 50.9839 555.471 57.2163 555.471 64.9032" stroke="#1E1E1E" stroke-width="3" stroke-miterlimit="10" stroke-linejoin="round"/>
<path d="M509.973 64.9032C509.973 57.2163 515.065 50.9839 521.347 50.9839C527.63 50.9839 532.722 57.2163 532.722 64.9032" stroke="#1E1E1E" stroke-width="3" stroke-miterlimit="10" stroke-linejoin="round"/>
<path d="M464.53 64.9032C464.53 57.2163 469.623 50.9839 475.905 50.9839C482.187 50.9839 487.28 57.2163 487.28 64.9032" stroke="#1E1E1E" stroke-width="3" stroke-miterlimit="10" stroke-linejoin="round"/>
<path d="M487.276 64.9032C487.276 57.2163 492.369 50.9839 498.651 50.9839C504.933 50.9839 510.026 57.2163 510.026 64.9032" stroke="#1E1E1E" stroke-width="3" stroke-miterlimit="10" stroke-linejoin="round"/>
<path d="M441.78 64.9032C441.78 57.2163 446.873 50.9839 453.155 50.9839C459.437 50.9839 464.53 57.2163 464.53 64.9032" stroke="#1E1E1E" stroke-width="3" stroke-miterlimit="10" stroke-linejoin="round"/>
<path d="M555.469 81.8226C555.469 74.1357 560.561 67.9033 566.843 67.9033C573.126 67.9033 578.218 74.1357 578.218 81.8226" stroke="#1E1E1E" stroke-width="3" stroke-miterlimit="10" stroke-linejoin="round"/>
<path d="M532.722 81.8226C532.722 74.1357 537.814 67.9033 544.096 67.9033C550.379 67.9033 555.471 74.1357 555.471 81.8226" stroke="#1E1E1E" stroke-width="3" stroke-miterlimit="10" stroke-linejoin="round"/>
<path d="M509.973 81.8226C509.973 74.1357 515.065 67.9033 521.347 67.9033C527.63 67.9033 532.722 74.1357 532.722 81.8226" stroke="#1E1E1E" stroke-width="3" stroke-miterlimit="10" stroke-linejoin="round"/>
<path d="M464.53 81.8226C464.53 74.1357 469.623 67.9033 475.905 67.9033C482.187 67.9033 487.28 74.1357 487.28 81.8226" stroke="#1E1E1E" stroke-width="3" stroke-miterlimit="10" stroke-linejoin="round"/>
<path d="M487.276 81.8226C487.276 74.1357 492.369 67.9033 498.651 67.9033C504.933 67.9033 510.026 74.1357 510.026 81.8226" stroke="#1E1E1E" stroke-width="3" stroke-miterlimit="10" stroke-linejoin="round"/>
<path d="M441.78 81.8226C441.78 74.1357 446.873 67.9033 453.155 67.9033C459.437 67.9033 464.53 74.1357 464.53 81.8226" stroke="#1E1E1E" stroke-width="3" stroke-miterlimit="10" stroke-linejoin="round"/>
<path d="M555.469 98.7416C555.469 91.0547 560.561 84.8223 566.843 84.8223C573.126 84.8223 578.218 91.0547 578.218 98.7416" stroke="#1E1E1E" stroke-width="3" stroke-miterlimit="10" stroke-linejoin="round"/>
<path d="M532.722 98.7416C532.722 91.0547 537.814 84.8223 544.096 84.8223C550.379 84.8223 555.471 91.0547 555.471 98.7416" stroke="#1E1E1E" stroke-width="3" stroke-miterlimit="10" stroke-linejoin="round"/>
<path d="M509.973 98.7416C509.973 91.0547 515.065 84.8223 521.347 84.8223C527.63 84.8223 532.722 91.0547 532.722 98.7416" stroke="#1E1E1E" stroke-width="3" stroke-miterlimit="10" stroke-linejoin="round"/>
<path d="M464.53 98.7416C464.53 91.0547 469.623 84.8223 475.905 84.8223C482.187 84.8223 487.28 91.0547 487.28 98.7416" stroke="#1E1E1E" stroke-width="3" stroke-miterlimit="10" stroke-linejoin="round"/>
<path d="M487.276 98.7416C487.276 91.0547 492.369 84.8223 498.651 84.8223C504.933 84.8223 510.026 91.0547 510.026 98.7416" stroke="#1E1E1E" stroke-width="3" stroke-miterlimit="10" stroke-linejoin="round"/>
<path d="M441.78 98.7416C441.78 91.0547 446.873 84.8223 453.155 84.8223C459.437 84.8223 464.53 91.0547 464.53 98.7416" stroke="#1E1E1E" stroke-width="3" stroke-miterlimit="10" stroke-linejoin="round"/>
<path d="M555.469 115.661C555.469 107.974 560.561 101.742 566.843 101.742C573.126 101.742 578.218 107.974 578.218 115.661" stroke="#1E1E1E" stroke-width="3" stroke-miterlimit="10" stroke-linejoin="round"/>
<path d="M532.722 115.661C532.722 107.974 537.814 101.742 544.096 101.742C550.379 101.742 555.471 107.974 555.471 115.661" stroke="#1E1E1E" stroke-width="3" stroke-miterlimit="10" stroke-linejoin="round"/>
<path d="M509.973 115.661C509.973 107.974 515.065 101.742 521.347 101.742C527.63 101.742 532.722 107.974 532.722 115.661" stroke="#1E1E1E" stroke-width="3" stroke-miterlimit="10" stroke-linejoin="round"/>
<path d="M464.53 115.661C464.53 107.974 469.623 101.742 475.905 101.742C482.187 101.742 487.28 107.974 487.28 115.661" stroke="#1E1E1E" stroke-width="3" stroke-miterlimit="10" stroke-linejoin="round"/>
<path d="M487.276 115.661C487.276 107.974 492.369 101.742 498.651 101.742C504.933 101.742 510.026 107.974 510.026 115.661" stroke="#1E1E1E" stroke-width="3" stroke-miterlimit="10" stroke-linejoin="round"/>
<path d="M441.78 115.661C441.78 107.974 446.873 101.742 453.155 101.742C459.437 101.742 464.53 107.974 464.53 115.661" stroke="#1E1E1E" stroke-width="3" stroke-miterlimit="10" stroke-linejoin="round"/>
<path d="M555.469 132.58C555.469 124.894 560.561 118.661 566.843 118.661C573.126 118.661 578.218 124.894 578.218 132.58" stroke="#1E1E1E" stroke-width="3" stroke-miterlimit="10" stroke-linejoin="round"/>
<path d="M532.722 132.58C532.722 124.894 537.814 118.661 544.096 118.661C550.379 118.661 555.471 124.894 555.471 132.58" stroke="#1E1E1E" stroke-width="3" stroke-miterlimit="10" stroke-linejoin="round"/>
<path d="M509.973 132.58C509.973 124.894 515.065 118.661 521.347 118.661C527.63 118.661 532.722 124.894 532.722 132.58" stroke="#1E1E1E" stroke-width="3" stroke-miterlimit="10" stroke-linejoin="round"/>
<path d="M464.53 132.58C464.53 124.894 469.623 118.661 475.905 118.661C482.187 118.661 487.28 124.894 487.28 132.58" stroke="#1E1E1E" stroke-width="3" stroke-miterlimit="10" stroke-linejoin="round"/>
<path d="M487.276 132.58C487.276 124.894 492.369 118.661 498.651 118.661C504.933 118.661 510.026 124.894 510.026 132.58" stroke="#1E1E1E" stroke-width="3" stroke-miterlimit="10" stroke-linejoin="round"/>
<path d="M441.78 132.58C441.78 124.894 446.873 118.661 453.155 118.661C459.437 118.661 464.53 124.894 464.53 132.58" stroke="#1E1E1E" stroke-width="3" stroke-miterlimit="10" stroke-linejoin="round"/>
<path d="M555.469 149.5C555.469 141.813 560.561 135.581 566.843 135.581C573.126 135.581 578.218 141.813 578.218 149.5" stroke="#1E1E1E" stroke-width="3" stroke-miterlimit="10" stroke-linejoin="round"/>
<path d="M532.722 149.5C532.722 141.813 537.814 135.581 544.096 135.581C550.379 135.581 555.471 141.813 555.471 149.5" stroke="#1E1E1E" stroke-width="3" stroke-miterlimit="10" stroke-linejoin="round"/>
<path d="M509.973 149.5C509.973 141.813 515.065 135.581 521.347 135.581C527.63 135.581 532.722 141.813 532.722 149.5" stroke="#1E1E1E" stroke-width="3" stroke-miterlimit="10" stroke-linejoin="round"/>
<path d="M464.53 149.5C464.53 141.813 469.623 135.581 475.905 135.581C482.187 135.581 487.28 141.813 487.28 149.5" stroke="#1E1E1E" stroke-width="3" stroke-miterlimit="10" stroke-linejoin="round"/>
<path d="M487.276 149.5C487.276 141.813 492.369 135.581 498.651 135.581C504.933 135.581 510.026 141.813 510.026 149.5" stroke="#1E1E1E" stroke-width="3" stroke-miterlimit="10" stroke-linejoin="round"/>
<path d="M441.78 149.5C441.78 141.813 446.873 135.581 453.155 135.581C459.437 135.581 464.53 141.813 464.53 149.5" stroke="#1E1E1E" stroke-width="3" stroke-miterlimit="10" stroke-linejoin="round"/>
<path d="M555.469 166.419C555.469 158.732 560.561 152.5 566.843 152.5C573.126 152.5 578.218 158.732 578.218 166.419" stroke="#1E1E1E" stroke-width="3" stroke-miterlimit="10" stroke-linejoin="round"/>
<path d="M532.722 166.419C532.722 158.732 537.814 152.5 544.096 152.5C550.379 152.5 555.471 158.732 555.471 166.419" stroke="#1E1E1E" stroke-width="3" stroke-miterlimit="10" stroke-linejoin="round"/>
<path d="M509.973 166.419C509.973 158.732 515.065 152.5 521.347 152.5C527.63 152.5 532.722 158.732 532.722 166.419" stroke="#1E1E1E" stroke-width="3" stroke-miterlimit="10" stroke-linejoin="round"/>
<path d="M464.53 166.419C464.53 158.732 469.623 152.5 475.905 152.5C482.187 152.5 487.28 158.732 487.28 166.419" stroke="#1E1E1E" stroke-width="3" stroke-miterlimit="10" stroke-linejoin="round"/>
<path d="M487.276 166.419C487.276 158.732 492.369 152.5 498.651 152.5C504.933 152.5 510.026 158.732 510.026 166.419" stroke="#1E1E1E" stroke-width="3" stroke-miterlimit="10" stroke-linejoin="round"/>
<path d="M441.78 166.419C441.78 158.732 446.873 152.5 453.155 152.5C459.437 152.5 464.53 158.732 464.53 166.419" stroke="#1E1E1E" stroke-width="3" stroke-miterlimit="10" stroke-linejoin="round"/>
<path d="M555.469 183.338C555.469 175.651 560.561 169.419 566.843 169.419C573.126 169.419 578.218 175.651 578.218 183.338" stroke="#1E1E1E" stroke-width="3" stroke-miterlimit="10" stroke-linejoin="round"/>
<path d="M532.722 183.338C532.722 175.651 537.814 169.419 544.096 169.419C550.379 169.419 555.471 175.651 555.471 183.338" stroke="#1E1E1E" stroke-width="3" stroke-miterlimit="10" stroke-linejoin="round"/>
<path d="M509.973 183.338C509.973 175.651 515.065 169.419 521.347 169.419C527.63 169.419 532.722 175.651 532.722 183.338" stroke="#1E1E1E" stroke-width="3" stroke-miterlimit="10" stroke-linejoin="round"/>
<path d="M464.53 183.338C464.53 175.651 469.623 169.419 475.905 169.419C482.187 169.419 487.28 175.651 487.28 183.338" stroke="#1E1E1E" stroke-width="3" stroke-miterlimit="10" stroke-linejoin="round"/>
<path d="M487.276 183.338C487.276 175.651 492.369 169.419 498.651 169.419C504.933 169.419 510.026 175.651 510.026 183.338" stroke="#1E1E1E" stroke-width="3" stroke-miterlimit="10" stroke-linejoin="round"/>
<path d="M441.78 183.338C441.78 175.651 446.873 169.419 453.155 169.419C459.437 169.419 464.53 175.651 464.53 183.338" stroke="#1E1E1E" stroke-width="3" stroke-miterlimit="10" stroke-linejoin="round"/>
<path d="M555.469 200.258C555.469 192.571 560.561 186.338 566.843 186.338C573.126 186.338 578.218 192.571 578.218 200.258" stroke="#1E1E1E" stroke-width="3" stroke-miterlimit="10" stroke-linejoin="round"/>
<path d="M532.722 200.258C532.722 192.571 537.814 186.338 544.096 186.338C550.379 186.338 555.471 192.571 555.471 200.258" stroke="#1E1E1E" stroke-width="3" stroke-miterlimit="10" stroke-linejoin="round"/>
<path d="M509.973 200.258C509.973 192.571 515.065 186.338 521.347 186.338C527.63 186.338 532.722 192.571 532.722 200.258" stroke="#1E1E1E" stroke-width="3" stroke-miterlimit="10" stroke-linejoin="round"/>
<path d="M464.53 200.258C464.53 192.571 469.623 186.338 475.905 186.338C482.187 186.338 487.28 192.571 487.28 200.258" stroke="#1E1E1E" stroke-width="3" stroke-miterlimit="10" stroke-linejoin="round"/>
<path d="M487.276 200.258C487.276 192.571 492.369 186.338 498.651 186.338C504.933 186.338 510.026 192.571 510.026 200.258" stroke="#1E1E1E" stroke-width="3" stroke-miterlimit="10" stroke-linejoin="round"/>
<path d="M441.78 200.258C441.78 192.571 446.873 186.338 453.155 186.338C459.437 186.338 464.53 192.571 464.53 200.258" stroke="#1E1E1E" stroke-width="3" stroke-miterlimit="10" stroke-linejoin="round"/>
<path d="M555.469 217.177C555.469 209.49 560.561 203.258 566.843 203.258C573.126 203.258 578.218 209.49 578.218 217.177" stroke="#1E1E1E" stroke-width="3" stroke-miterlimit="10" stroke-linejoin="round"/>
<path d="M532.723 217.177C532.723 209.49 537.815 203.258 544.097 203.258C550.38 203.258 555.472 209.49 555.472 217.177" stroke="#1E1E1E" stroke-width="3" stroke-miterlimit="10" stroke-linejoin="round"/>
<path d="M509.974 217.177C509.974 209.49 515.066 203.258 521.348 203.258C527.631 203.258 532.723 209.49 532.723 217.177" stroke="#1E1E1E" stroke-width="3" stroke-miterlimit="10" stroke-linejoin="round"/>
<path d="M464.531 217.177C464.531 209.49 469.624 203.258 475.906 203.258C482.188 203.258 487.281 209.49 487.281 217.177" stroke="#1E1E1E" stroke-width="3" stroke-miterlimit="10" stroke-linejoin="round"/>
<path d="M487.277 217.177C487.277 209.49 492.37 203.258 498.652 203.258C504.934 203.258 510.027 209.49 510.027 217.177" stroke="#1E1E1E" stroke-width="3" stroke-miterlimit="10" stroke-linejoin="round"/>
<path d="M441.781 217.177C441.781 209.49 446.874 203.258 453.156 203.258C459.438 203.258 464.531 209.49 464.531 217.177" stroke="#1E1E1E" stroke-width="3" stroke-miterlimit="10" stroke-linejoin="round"/>
<path d="M555.469 234.096C555.469 226.409 560.561 220.177 566.843 220.177C573.126 220.177 578.218 226.409 578.218 234.096" stroke="#1E1E1E" stroke-width="3" stroke-miterlimit="10" stroke-linejoin="round"/>
<path d="M532.722 234.096C532.722 226.409 537.814 220.177 544.096 220.177C550.379 220.177 555.471 226.409 555.471 234.096" stroke="#1E1E1E" stroke-width="3" stroke-miterlimit="10" stroke-linejoin="round"/>
<path d="M509.973 234.096C509.973 226.409 515.065 220.177 521.347 220.177C527.63 220.177 532.722 226.409 532.722 234.096" stroke="#1E1E1E" stroke-width="3" stroke-miterlimit="10" stroke-linejoin="round"/>
<path d="M464.53 234.096C464.53 226.409 469.623 220.177 475.905 220.177C482.187 220.177 487.28 226.409 487.28 234.096" stroke="#1E1E1E" stroke-width="3" stroke-miterlimit="10" stroke-linejoin="round"/>
<path d="M487.276 234.096C487.276 226.409 492.369 220.177 498.651 220.177C504.933 220.177 510.026 226.409 510.026 234.096" stroke="#1E1E1E" stroke-width="3" stroke-miterlimit="10" stroke-linejoin="round"/>
<path d="M441.78 234.096C441.78 226.409 446.873 220.177 453.155 220.177C459.437 220.177 464.53 226.409 464.53 234.096" stroke="#1E1E1E" stroke-width="3" stroke-miterlimit="10" stroke-linejoin="round"/>
<path d="M555.469 251.016C555.469 243.329 560.561 237.096 566.843 237.096C573.126 237.096 578.218 243.329 578.218 251.016" stroke="#1E1E1E" stroke-width="3" stroke-miterlimit="10" stroke-linejoin="round"/>
<path d="M532.723 251.016C532.723 243.329 537.815 237.096 544.097 237.096C550.38 237.096 555.472 243.329 555.472 251.016" stroke="#1E1E1E" stroke-width="3" stroke-miterlimit="10" stroke-linejoin="round"/>
<path d="M509.974 251.016C509.974 243.329 515.066 237.096 521.348 237.096C527.631 237.096 532.723 243.329 532.723 251.016" stroke="#1E1E1E" stroke-width="3" stroke-miterlimit="10" stroke-linejoin="round"/>
<path d="M464.531 251.016C464.531 243.329 469.624 237.096 475.906 237.096C482.188 237.096 487.281 243.329 487.281 251.016" stroke="#1E1E1E" stroke-width="3" stroke-miterlimit="10" stroke-linejoin="round"/>
<path d="M487.277 251.016C487.277 243.329 492.37 237.096 498.652 237.096C504.934 237.096 510.027 243.329 510.027 251.016" stroke="#1E1E1E" stroke-width="3" stroke-miterlimit="10" stroke-linejoin="round"/>
<path d="M441.781 251.016C441.781 243.329 446.874 237.096 453.156 237.096C459.438 237.096 464.531 243.329 464.531 251.016" stroke="#1E1E1E" stroke-width="3" stroke-miterlimit="10" stroke-linejoin="round"/>
<path d="M555.469 267.935C555.469 260.248 560.561 254.016 566.843 254.016C573.126 254.016 578.218 260.248 578.218 267.935" stroke="#1E1E1E" stroke-width="3" stroke-miterlimit="10" stroke-linejoin="round"/>
<path d="M532.722 267.935C532.722 260.248 537.814 254.016 544.096 254.016C550.379 254.016 555.471 260.248 555.471 267.935" stroke="#1E1E1E" stroke-width="3" stroke-miterlimit="10" stroke-linejoin="round"/>
<path d="M509.973 267.935C509.973 260.248 515.065 254.016 521.347 254.016C527.63 254.016 532.722 260.248 532.722 267.935" stroke="#1E1E1E" stroke-width="3" stroke-miterlimit="10" stroke-linejoin="round"/>
<path d="M464.53 267.935C464.53 260.248 469.623 254.016 475.905 254.016C482.187 254.016 487.28 260.248 487.28 267.935" stroke="#1E1E1E" stroke-width="3" stroke-miterlimit="10" stroke-linejoin="round"/>
<path d="M487.276 267.935C487.276 260.248 492.369 254.016 498.651 254.016C504.933 254.016 510.026 260.248 510.026 267.935" stroke="#1E1E1E" stroke-width="3" stroke-miterlimit="10" stroke-linejoin="round"/>
<path d="M441.78 267.935C441.78 260.248 446.873 254.016 453.155 254.016C459.437 254.016 464.53 260.248 464.53 267.935" stroke="#1E1E1E" stroke-width="3" stroke-miterlimit="10" stroke-linejoin="round"/>
<path d="M555.469 284.854C555.469 277.167 560.561 270.935 566.843 270.935C573.126 270.935 578.218 277.167 578.218 284.854" stroke="#1E1E1E" stroke-width="3" stroke-miterlimit="10" stroke-linejoin="round"/>
<path d="M532.723 284.854C532.723 277.167 537.815 270.935 544.097 270.935C550.38 270.935 555.472 277.167 555.472 284.854" stroke="#1E1E1E" stroke-width="3" stroke-miterlimit="10" stroke-linejoin="round"/>
<path d="M509.974 284.854C509.974 277.167 515.066 270.935 521.348 270.935C527.631 270.935 532.723 277.167 532.723 284.854" stroke="#1E1E1E" stroke-width="3" stroke-miterlimit="10" stroke-linejoin="round"/>
<path d="M464.531 284.854C464.531 277.167 469.624 270.935 475.906 270.935C482.188 270.935 487.281 277.167 487.281 284.854" stroke="#1E1E1E" stroke-width="3" stroke-miterlimit="10" stroke-linejoin="round"/>
<path d="M487.277 284.854C487.277 277.167 492.37 270.935 498.652 270.935C504.934 270.935 510.027 277.167 510.027 284.854" stroke="#1E1E1E" stroke-width="3" stroke-miterlimit="10" stroke-linejoin="round"/>
<path d="M441.781 284.854C441.781 277.167 446.874 270.935 453.156 270.935C459.438 270.935 464.531 277.167 464.531 284.854" stroke="#1E1E1E" stroke-width="3" stroke-miterlimit="10" stroke-linejoin="round"/>
<path d="M555.469 301.774C555.469 294.087 560.561 287.854 566.843 287.854C573.126 287.854 578.218 294.087 578.218 301.774" stroke="#1E1E1E" stroke-width="3" stroke-miterlimit="10" stroke-linejoin="round"/>
<path d="M532.722 301.774C532.722 294.087 537.814 287.854 544.096 287.854C550.379 287.854 555.471 294.087 555.471 301.774" stroke="#1E1E1E" stroke-width="3" stroke-miterlimit="10" stroke-linejoin="round"/>
<path d="M509.973 301.774C509.973 294.087 515.065 287.854 521.347 287.854C527.63 287.854 532.722 294.087 532.722 301.774" stroke="#1E1E1E" stroke-width="3" stroke-miterlimit="10" stroke-linejoin="round"/>
<path d="M464.53 301.774C464.53 294.087 469.623 287.854 475.905 287.854C482.187 287.854 487.28 294.087 487.28 301.774" stroke="#1E1E1E" stroke-width="3" stroke-miterlimit="10" stroke-linejoin="round"/>
<path d="M487.276 301.774C487.276 294.087 492.369 287.854 498.651 287.854C504.933 287.854 510.026 294.087 510.026 301.774" stroke="#1E1E1E" stroke-width="3" stroke-miterlimit="10" stroke-linejoin="round"/>
<path d="M441.78 301.774C441.78 294.087 446.873 287.854 453.155 287.854C459.437 287.854 464.53 294.087 464.53 301.774" stroke="#1E1E1E" stroke-width="3" stroke-miterlimit="10" stroke-linejoin="round"/>
</g>
<path d="M484.266 473.488H481.766V470.988V342.25V341.019L482.741 340.269L500.499 326.608L501.173 326.09H502.023H891.245H893.745V328.59V460.694V462.241L892.361 462.931L871.724 473.225L871.197 473.488H870.608H484.266Z" fill="#F9AB00" stroke="black" stroke-width="5"/>
<rect x="-2.5" y="2.5" width="391.822" height="135.143" transform="matrix(1 0 0 -1 504.196 463.961)" fill="white" stroke="black" stroke-width="5"/>
<path d="M559.064 354.732L525.13 378.821C518.02 383.868 516.398 393.654 521.507 400.678L521.525 400.704C526.635 407.728 536.54 409.33 543.651 404.283L577.584 380.194C584.695 375.147 586.317 365.361 581.208 358.337L581.189 358.311C576.08 351.287 566.174 349.685 559.064 354.732Z" fill="#EA4335" stroke="#1E1E1E" stroke-width="3" stroke-miterlimit="10"/>
<path d="M521.527 382.404L521.509 382.429C516.4 389.453 518.022 399.239 525.132 404.286L559.066 428.375C566.176 433.423 576.082 431.82 581.191 424.796L581.209 424.77C586.319 417.746 584.697 407.96 577.586 402.913L543.653 378.824C536.542 373.777 526.637 375.379 521.527 382.404Z" fill="#4285F4" stroke="#1E1E1E" stroke-width="3" stroke-miterlimit="10"/>
<path d="M640.988 378.804L607.054 402.893C599.944 407.94 598.321 417.726 603.431 424.75L603.449 424.776C608.558 431.8 618.464 433.402 625.574 428.355L659.508 404.266C666.618 399.219 668.241 389.433 663.131 382.409L663.113 382.383C658.004 375.359 648.098 373.757 640.988 378.804Z" fill="#F9AB00" stroke="#1E1E1E" stroke-width="3" stroke-miterlimit="10"/>
<path d="M603.445 358.322L603.427 358.347C598.318 365.371 599.94 375.157 607.05 380.204L640.984 404.293C648.094 409.341 658 407.738 663.109 400.714L663.127 400.688C668.237 393.664 666.614 383.878 659.504 378.831L625.571 354.742C618.46 349.695 608.555 351.297 603.445 358.322Z" fill="#34A853" stroke="#1E1E1E" stroke-width="3" stroke-miterlimit="10"/>
<path d="M871.027 389.988C869.724 389.988 868.525 389.802 867.429 389.43C866.332 389.024 865.441 388.483 864.756 387.807C863.145 386.285 862.34 384.12 862.34 381.313V369.39H857.766V363.708H862.34V356.402H869.073V363.708H875.498V369.39H869.073V380.095C869.073 381.414 869.365 382.361 869.947 382.936C870.427 383.478 871.249 383.748 872.414 383.748C873.065 383.748 873.597 383.664 874.008 383.494C874.453 383.325 875.019 383.038 875.704 382.632V389.126C874.23 389.701 872.671 389.988 871.027 389.988Z" fill="#1E1E1E"/>
<path d="M843.886 390.395C840.699 390.395 838.112 389.752 836.125 388.467C834.171 387.182 832.801 385.508 832.013 383.444L838.026 380.857C838.575 382.075 839.346 383.005 840.339 383.647C841.367 384.256 842.55 384.561 843.886 384.561C845.119 384.561 846.147 384.374 846.97 384.002C847.792 383.597 848.203 382.954 848.203 382.075C848.203 381.229 847.826 380.603 847.073 380.197C846.319 379.758 845.188 379.369 843.68 379.03L840.596 378.371C838.472 377.864 836.707 376.95 835.302 375.631C833.897 374.278 833.195 372.604 833.195 370.609C833.195 369.12 833.64 367.784 834.531 366.601C835.456 365.417 836.69 364.504 838.232 363.861C839.808 363.218 841.539 362.897 843.423 362.897C848.837 362.897 852.452 364.774 854.269 368.528L848.512 371.014C847.484 369.188 845.839 368.275 843.577 368.275C842.412 368.275 841.487 368.495 840.802 368.934C840.117 369.34 839.774 369.864 839.774 370.507C839.774 371.725 840.939 372.638 843.269 373.247L847.124 374.16C849.728 374.803 851.681 375.783 852.984 377.103C854.32 378.422 854.988 380.045 854.988 381.973C854.988 383.63 854.491 385.102 853.498 386.387C852.538 387.638 851.202 388.619 849.488 389.33C847.809 390.04 845.942 390.395 843.886 390.395Z" fill="#1E1E1E"/>
<path d="M815.782 390.395C813.178 390.395 810.831 389.803 808.74 388.619C806.65 387.435 805.005 385.812 803.806 383.749C802.641 381.652 802.059 379.301 802.059 376.697C802.059 374.228 802.641 371.945 803.806 369.848C804.971 367.717 806.582 366.026 808.638 364.774C810.694 363.523 812.989 362.897 815.525 362.897C818.232 362.897 820.562 363.472 822.515 364.622C824.469 365.772 825.942 367.345 826.936 369.34C827.964 371.336 828.478 373.551 828.478 375.986C828.478 376.764 828.426 377.508 828.324 378.219H808.638C808.98 380.282 809.803 381.855 811.105 382.937C812.441 383.986 814.035 384.51 815.885 384.51C817.427 384.51 818.746 384.188 819.843 383.546C820.973 382.869 821.864 381.973 822.515 380.857L827.964 383.495C825.291 388.095 821.23 390.395 815.782 390.395ZM822.001 373.5C821.933 372.689 821.625 371.894 821.076 371.116C820.562 370.304 819.826 369.645 818.866 369.137C817.941 368.596 816.844 368.326 815.577 368.326C813.966 368.326 812.578 368.799 811.413 369.746C810.282 370.659 809.46 371.911 808.946 373.5H822.001Z" fill="#1E1E1E"/>
<path d="M776.516 353.257H799.851V359.751H783.455V368.579H798.206V375.073H783.455V389.583H776.516V353.257Z" fill="#1E1E1E"/>
<path d="M742.945 363.708H750.604L757.234 380.552H757.645L764.379 363.708H771.934L760.729 389.583H754.048L742.945 363.708Z" fill="#1E1E1E"/>
<path d="M728.494 390.395C725.89 390.395 723.543 389.803 721.452 388.619C719.362 387.435 717.717 385.812 716.518 383.749C715.353 381.652 714.771 379.301 714.771 376.697C714.771 374.228 715.353 371.945 716.518 369.848C717.683 367.717 719.294 366.026 721.35 364.774C723.406 363.523 725.701 362.897 728.237 362.897C730.944 362.897 733.274 363.472 735.227 364.622C737.181 365.772 738.654 367.345 739.648 369.34C740.676 371.336 741.19 373.551 741.19 375.986C741.19 376.764 741.138 377.508 741.035 378.219H721.35C721.692 380.282 722.515 381.855 723.817 382.937C725.153 383.986 726.746 384.51 728.597 384.51C730.139 384.51 731.458 384.188 732.555 383.546C733.685 382.869 734.576 381.973 735.227 380.857L740.676 383.495C738.003 388.095 733.942 390.395 728.494 390.395ZM734.713 373.5C734.645 372.689 734.336 371.894 733.788 371.116C733.274 370.304 732.537 369.645 731.578 369.137C730.653 368.596 729.556 368.326 728.288 368.326C726.678 368.326 725.29 368.799 724.125 369.746C722.994 370.659 722.172 371.911 721.658 373.5H734.713Z" fill="#1E1E1E"/>
<path d="M679.941 353.257H692.38C696.218 353.257 699.559 354.018 702.403 355.54C705.247 357.062 707.44 359.193 708.982 361.933C710.524 364.673 711.295 367.835 711.295 371.42C711.295 375.005 710.524 378.168 708.982 380.908C707.44 383.647 705.247 385.778 702.403 387.3C699.559 388.822 696.218 389.583 692.38 389.583H679.941V353.257ZM692.072 383.089C696.046 383.089 699.079 382.057 701.169 379.994C703.259 377.897 704.305 375.039 704.305 371.42C704.305 367.801 703.259 364.96 701.169 362.897C699.079 360.8 696.046 359.751 692.072 359.751H686.88V383.089H692.072Z" fill="#1E1E1E"/>
<rect x="806.134" y="405.195" width="71.2363" height="25.1831" rx="12.5916" fill="white" stroke="#1E1E1E" stroke-width="3"/>
<rect x="678.219" y="405.196" width="122.631" height="25.1831" rx="12.5916" fill="white" stroke="#1E1E1E" stroke-width="3"/>
<path fill-rule="evenodd" clip-rule="evenodd" d="M745.702 413.292C745.334 413.292 745.019 413.168 744.757 412.922C744.508 412.664 744.383 412.353 744.383 411.989C744.383 411.626 744.508 411.321 744.757 411.074C745.019 410.816 745.334 410.687 745.702 410.687C746.071 410.687 746.38 410.816 746.63 411.074C746.891 411.321 747.022 411.626 747.022 411.989C747.022 412.353 746.891 412.664 746.63 412.922C746.38 413.168 746.071 413.292 745.702 413.292ZM746.683 414.77V423.499H744.722V414.77H746.683ZM749.216 412.922C749.477 413.168 749.792 413.292 750.161 413.292C750.529 413.292 750.838 413.168 751.088 412.922C751.35 412.664 751.48 412.353 751.48 411.989C751.48 411.626 751.35 411.321 751.088 411.074C750.838 410.816 750.529 410.687 750.161 410.687C749.792 410.687 749.477 410.816 749.216 411.074C748.966 411.321 748.842 411.626 748.842 411.989C748.842 412.353 748.966 412.664 749.216 412.922ZM747.433 427.353C747.73 427.436 748.051 427.477 748.396 427.477C749.228 427.477 749.893 427.236 750.393 426.755C750.892 426.274 751.142 425.535 751.142 424.538V414.77H749.18V424.502C749.18 424.901 749.109 425.2 748.966 425.4C748.824 425.599 748.586 425.699 748.253 425.699C747.968 425.699 747.694 425.629 747.433 425.488V427.353ZM754.513 423.411C755.024 423.657 755.594 423.78 756.224 423.78C756.83 423.78 757.353 423.657 757.793 423.411C758.233 423.153 758.596 422.824 758.881 422.425H758.988V423.499H760.896V418.149C760.896 416.987 760.539 416.089 759.826 415.456C759.124 414.811 758.126 414.488 756.83 414.488C756.046 414.488 755.339 414.635 754.709 414.928C754.091 415.221 753.574 415.644 753.157 416.195L754.655 417.216C755.202 416.488 755.927 416.125 756.83 416.125C757.425 416.125 757.93 416.301 758.346 416.653C758.774 416.993 758.988 417.427 758.988 417.955V418.325C758.322 418.008 757.52 417.849 756.581 417.849C755.511 417.849 754.625 418.113 753.924 418.641C753.235 419.169 752.89 419.891 752.89 420.806C752.89 421.381 753.033 421.897 753.318 422.355C753.615 422.801 754.013 423.153 754.513 423.411ZM757.758 421.862C757.389 422.073 756.985 422.179 756.545 422.179C756.093 422.179 755.701 422.056 755.368 421.809C755.047 421.551 754.887 421.223 754.887 420.824C754.887 420.39 755.071 420.032 755.44 419.75C755.808 419.468 756.319 419.328 756.973 419.328C757.686 419.328 758.358 419.498 758.988 419.838C758.988 420.249 758.875 420.636 758.649 421C758.435 421.352 758.138 421.639 757.758 421.862ZM739.417 414.769H737.562V423.499H739.524V418.923C739.524 418.219 739.738 417.626 740.166 417.145C740.605 416.653 741.146 416.406 741.788 416.406C742.287 416.406 742.739 416.506 743.143 416.705V414.681C742.87 414.564 742.519 414.506 742.091 414.506C741.568 414.506 741.057 414.658 740.558 414.963C740.059 415.256 739.714 415.626 739.524 416.072H739.417V414.769ZM730.82 423.78C730.19 423.78 729.62 423.657 729.109 423.411C728.609 423.153 728.211 422.801 727.914 422.355C727.629 421.897 727.486 421.381 727.486 420.806C727.486 419.891 727.831 419.169 728.52 418.641C729.221 418.113 730.107 417.849 731.177 417.849C732.116 417.849 732.918 418.008 733.584 418.325V417.955C733.584 417.427 733.37 416.993 732.942 416.653C732.526 416.301 732.021 416.125 731.426 416.125C730.523 416.125 729.798 416.488 729.251 417.216L727.754 416.195C728.17 415.644 728.687 415.221 729.305 414.928C729.935 414.635 730.642 414.488 731.426 414.488C732.722 414.488 733.721 414.811 734.422 415.456C735.135 416.089 735.492 416.987 735.492 418.149V423.499H733.584V422.425H733.477C733.192 422.824 732.829 423.153 732.389 423.411C731.949 423.657 731.426 423.78 730.82 423.78ZM731.141 422.179C731.581 422.179 731.985 422.073 732.354 421.862C732.734 421.639 733.031 421.352 733.245 421C733.471 420.636 733.584 420.249 733.584 419.838C732.954 419.498 732.282 419.328 731.569 419.328C730.915 419.328 730.404 419.468 730.036 419.75C729.667 420.032 729.483 420.39 729.483 420.824C729.483 421.223 729.643 421.551 729.964 421.809C730.297 422.056 730.689 422.179 731.141 422.179ZM718.639 412.781H722.205V423.499H724.202V412.781H727.767V410.898H718.639V412.781Z" fill="#1E1E1E"/>
<path fill-rule="evenodd" clip-rule="evenodd" d="M836.523 423.651C835.54 423.651 834.675 423.38 833.926 422.837C833.178 422.283 832.599 421.538 832.189 420.603C831.791 419.656 831.593 418.605 831.593 417.451C831.593 416.285 831.791 415.234 832.189 414.299C832.599 413.352 833.178 412.607 833.926 412.064C834.675 411.522 835.54 411.25 836.523 411.25C837.506 411.25 838.365 411.522 839.102 412.064C839.851 412.607 840.424 413.352 840.822 414.299C841.231 415.234 841.436 416.285 841.436 417.451C841.436 418.605 841.231 419.656 840.822 420.603C840.424 421.538 839.851 422.283 839.102 422.837C838.354 423.38 837.494 423.651 836.523 423.651ZM836.523 421.85C837.12 421.85 837.64 421.659 838.085 421.278C838.541 420.886 838.886 420.36 839.12 419.702C839.366 419.033 839.488 418.282 839.488 417.451C839.488 416.619 839.366 415.869 839.12 415.199C838.886 414.53 838.541 414.004 838.085 413.623C837.64 413.242 837.12 413.052 836.523 413.052C835.915 413.052 835.388 413.242 834.944 413.623C834.499 414.004 834.154 414.53 833.909 415.199C833.675 415.869 833.558 416.619 833.558 417.451C833.558 418.282 833.675 419.033 833.909 419.702C834.154 420.36 834.499 420.886 834.944 421.278C835.388 421.659 835.915 421.85 836.523 421.85ZM845.215 419.391L843.004 421.573V423.374H850.812V421.642H845.583L845.548 421.573L846.987 420.153C847.935 419.217 848.525 418.64 848.759 418.421C849.309 417.878 849.759 417.295 850.11 416.671C850.473 416.036 850.654 415.378 850.654 414.697C850.654 414.062 850.49 413.485 850.163 412.965C849.847 412.434 849.391 412.018 848.794 411.718C848.209 411.406 847.537 411.25 846.777 411.25C846.075 411.25 845.455 411.389 844.917 411.666C844.379 411.943 843.946 412.284 843.618 412.688C843.302 413.092 843.086 413.502 842.969 413.918L844.724 414.628C844.829 414.212 845.051 413.848 845.39 413.537C845.741 413.213 846.192 413.052 846.741 413.052C847.338 413.052 847.812 413.219 848.163 413.554C848.514 413.889 848.689 414.281 848.689 414.732C848.689 415.182 848.596 415.569 848.408 415.892C848.233 416.215 847.9 416.637 847.408 417.156C847.046 417.549 846.315 418.294 845.215 419.391ZM852.494 421.019H858.109V423.374H860.039V421.019H861.566V419.252H860.039V411.528H857.951L852.494 419.529V421.019ZM858.109 414.351V419.252H854.652L858.004 414.351H858.109ZM824.241 419.391L822.03 421.573V423.374H829.838V421.643H824.609L824.574 421.573L826.013 420.153C826.961 419.218 827.551 418.641 827.785 418.421C828.335 417.878 828.785 417.295 829.136 416.672C829.499 416.037 829.68 415.379 829.68 414.698C829.68 414.062 829.517 413.485 829.189 412.966C828.873 412.434 828.417 412.019 827.82 411.719C827.236 411.407 826.563 411.251 825.803 411.251C825.101 411.251 824.481 411.39 823.943 411.667C823.405 411.944 822.972 412.284 822.644 412.688C822.328 413.093 822.112 413.502 821.995 413.918L823.75 414.628C823.855 414.213 824.077 413.849 824.416 413.537C824.767 413.214 825.218 413.052 825.768 413.052C826.364 413.052 826.838 413.22 827.189 413.554C827.54 413.889 827.715 414.282 827.715 414.732C827.715 415.182 827.622 415.569 827.434 415.893C827.259 416.216 826.926 416.637 826.434 417.157C826.072 417.549 825.341 418.294 824.241 419.391Z" fill="#1E1E1E"/>
<g clip-path="url(#clip1_1245_2291)">
<path d="M717.43 800.995C703.682 800.948 689.934 800.974 676.186 800.979C674.71 800.979 673.233 800.979 671.686 800.624C675.694 800.76 678.745 798.051 682.416 797.344C689.312 796.018 695.826 793.215 702.756 792.123C707.589 791.36 710.559 788.575 712.73 784.565C712.987 784.09 713.136 783.47 713.531 783.17C716.593 780.837 717.553 777.231 719.247 774.073C720.568 771.61 722.471 769.552 724.025 767.262C727.247 762.512 730.029 757.391 728.812 751.473C728.095 747.988 726.668 744.571 724.998 741.318C724.389 740.132 723.27 740.991 722.76 740.469C721.894 734.746 720.523 729.312 717.975 724.27C715.992 720.346 715.264 716.549 716.915 712.275C718.218 708.901 718.875 705.332 717.49 701.702C716.952 700.291 716.43 698.877 715.198 697.967C709.781 693.96 704.652 689.522 698.384 686.77C698.04 686.618 697.639 686.597 697.199 686.5C695.776 688.056 695.937 690.068 696.514 691.494C697.545 694.04 696.085 696.23 696.169 698.603C696.22 700.037 694.65 700.659 693.479 700.335C692.146 699.966 690.699 700.193 689.501 699.622C686.11 698.006 682.506 697.203 678.835 696.709C675.85 696.307 673.627 694.519 671.235 693.03C669.969 692.242 669.876 691.098 670.828 689.928C672.804 687.5 675.283 686.149 678.516 686.071C683.03 685.961 682.765 685.802 684.2 681.508C685.253 678.357 684.116 675.016 685.564 671.988C685.693 671.717 685.482 671.147 685.247 670.867C683.249 668.488 682.707 665.168 680.125 663.155C679.622 662.763 679.263 662.102 679.012 661.495C677.062 656.782 673.995 652.655 671.862 648.036C670.62 645.345 670.336 645.305 667.608 646.381C666.963 646.635 666.461 646.986 665.923 647.41C664.741 648.342 663.289 648.777 661.789 648.871C659.625 649.008 657.853 648.055 657.383 646.061C656.411 641.948 653.711 638.901 650.931 636.109C647.367 632.528 644.355 628.688 642.156 624.179C640.802 621.4 639.347 618.67 637.953 615.947C634.123 617.274 633.959 617.403 634.401 620.697C634.511 621.514 634.284 622.32 634.459 623.035C634.807 624.452 635.265 626.038 637.125 626.166C638.467 626.258 639.389 626.89 640.3 627.754C641.538 628.929 643.755 629.323 643.899 631.339C644.089 633.986 644.617 636.741 643.174 639.255C641.856 641.552 641.199 644.236 638.638 645.778C635.716 647.538 632.968 646.959 631.923 643.725C631.209 641.513 630.384 639.448 629.024 637.573C628.795 637.258 628.585 636.847 628.572 636.473C628.45 632.908 626.485 630.137 624.546 627.386C622.884 625.029 621.437 622.647 621.836 619.826C620.823 618.491 619.278 619.407 618.219 618.439C618.162 618.173 617.918 617.738 618.032 617.436C618.458 616.308 618.861 615.131 619.529 614.142C620.902 612.107 622.313 610.133 621.992 607.501C624.597 604.048 623.306 600.055 623.561 596.28C623.66 594.822 623.422 593.474 625.393 592.735C626.766 592.22 627.158 590.37 628.652 589.406C630.354 588.307 631.923 587.862 633.545 588.43C637.115 589.68 640.555 589.007 643.932 588.067C647.125 587.178 649.271 584.478 652.009 582.767C652.798 582.274 653.419 581.526 654.184 580.988C657.437 578.701 661.168 579.016 664.077 581.801C664.663 582.362 665.195 582.977 665.744 583.574C666.538 584.437 667.876 584.791 669.759 584.636C670.267 581.345 672.736 578.679 673.221 575.361C673.498 573.473 676.109 573.906 675.999 571.729C675.93 570.37 676.549 568.841 677.482 567.634C677.969 567.004 678.513 566.417 678.951 565.905C678.546 562.785 676.814 560.294 676.397 557.282C675.931 553.91 675.956 550.705 676.355 547.34C676.847 543.19 677.772 539.181 678.919 535.194C679.149 534.397 679.374 533.467 678.839 532.856C677.294 531.086 677.1 529.378 678.636 527.548C677.517 525.139 680.477 524.937 680.934 523.381C682.974 523.591 684.27 521.569 686.479 521.805C689.544 522.133 692.671 521.887 695.593 521.887C696.64 520.33 696.035 518.867 696.511 517.555C697.469 518.175 698.197 518.647 699.468 518.409C703.312 517.69 705.967 520.307 708.809 522.222C709.786 522.879 709.479 524.203 709.828 525.191C710.526 527.164 711.336 528.862 713.499 529.632C715.181 528.858 715.692 527.354 716.198 525.592C717.097 522.467 718.495 521.831 722.162 522.339C723.126 528.257 722.573 533.811 717.794 538.18C715.65 540.139 715.398 542.295 716.467 544.729C717.131 546.238 717.861 547.609 716.904 549.297C716.621 549.796 716.663 550.726 716.95 551.246C717.799 552.789 717.343 554.117 716.545 555.427C715.709 556.796 715.907 558.294 715.917 559.761C715.945 563.715 715.518 567.514 712.918 570.789C712.169 571.732 711.794 572.916 711.815 574.192C711.844 575.934 711.825 577.64 711.179 579.354C710.568 580.977 711.677 582.477 712.251 583.954C712.565 584.76 713.45 584.947 714.325 584.937C715.329 584.926 715.74 584.354 715.962 583.48C716.159 582.701 716.526 581.961 716.678 581.178C717.168 578.635 718.789 577.645 721.219 576.772C725.472 575.244 730.311 574.989 733.804 571.616C734.486 570.957 735.207 570.37 735.442 569.374C735.952 567.214 735.393 566.017 733.226 564.851C730.86 563.578 728.406 562.53 726.894 560.034C723.9 555.088 724.317 552.849 727.686 548.727C731.853 543.629 740.283 541.533 746.586 543.758C749.662 544.843 752.681 546.125 754.846 548.723C757.507 551.914 758.85 555.7 759.138 559.729C759.391 563.259 757.811 565.127 754.301 565.463C752.246 565.66 750.94 567.084 749.121 567.535C749.8 569.763 751.242 570.668 753.622 570.458C755.648 570.28 757.73 570.208 759.737 570.467C763.021 570.892 765.833 569.563 768.567 568.266C769.675 567.739 770.624 567.128 771.875 567.177C772.877 567.217 773.704 566.868 774.493 566.253C775.126 565.759 775.846 565.285 776.605 565.055C782.296 563.334 785.445 559.262 787.564 554.009C788.822 550.893 790.492 547.934 792.072 544.953C793.461 542.331 793.703 539.77 792.753 536.883C791.586 533.335 790.523 529.736 790.178 525.961C789.977 523.761 788.551 521.916 787.061 520.462C784.077 517.55 780.8 514.93 777.592 512.25C775.82 510.769 773.719 511.256 771.759 511.714C770.704 511.959 769.907 512.087 769.324 511.058C768.761 510.065 769.22 509.288 769.862 508.505C772.426 505.378 775.871 505.162 779.032 507.949C783.366 511.771 788.168 515.117 791.047 520.144C792.818 519.868 793.562 518.592 795.087 518.576C799.257 518.533 800.443 519.302 800.81 523.493C801.009 525.754 801.338 527.826 802.187 530.038C803.081 532.369 803.129 535.374 801.739 537.894C800.544 540.058 800.627 542.37 801.045 544.593C801.756 548.367 801.261 552.073 800.143 555.555C797.396 564.112 792.31 571.129 784.74 576.233C782.283 577.89 779.95 579.704 777.221 580.996C774.792 582.146 773.576 584.274 773.006 587.029C772.231 590.772 772.361 594.501 772.258 598.251C772.177 601.189 772.723 604.176 771.574 607.046C771.386 607.516 771.359 608.166 771.526 608.64C772.678 611.917 772.072 615.308 772.307 618.642C772.448 620.634 772.802 622.624 773.227 624.58C774.334 629.668 775.607 634.722 776.68 639.816C778.383 647.904 778.891 655.978 776.417 664.056C775.289 667.739 774.885 668.077 771.424 666.681C770.547 666.328 769.649 666.027 768.751 665.733C768.4 665.618 768.018 665.285 767.467 665.967C769.179 667.649 769.756 670.216 771.951 671.705C772.571 672.126 773.006 672.947 773.309 673.673C775.38 678.625 777.697 683.494 778.822 688.782C779.194 690.532 780.466 691.913 780.889 693.589C781.925 697.693 782.857 701.826 782.257 706.131C782.015 707.869 782.782 709.388 784.31 710.205C785.858 711.032 786.688 712.343 787.56 713.71C789.513 716.771 791.594 719.755 793.447 722.874C795.116 725.683 795.807 728.826 795.962 732.074C796.025 733.395 795.814 734.711 797.062 735.771C797.967 736.539 797.653 737.813 797.568 738.852C797.352 741.501 797.947 743.9 799.311 746.178C800.21 747.679 800.954 749.229 800.956 751.094C800.957 752.125 801.366 753.224 801.836 754.173C803.163 756.851 803.943 759.65 804.48 762.585C804.761 764.124 804.946 765.774 805.846 767.194C807.273 769.447 807.553 771.752 807.064 774.495C806.637 776.889 807.152 779.561 807.755 781.988C808.282 784.107 807.9 786.455 809.639 788.394C810.329 789.163 809.919 790.997 809.828 792.334C809.679 794.523 810.196 796.588 810.652 798.691C810.894 799.807 811.626 800.191 813.002 800.349C811.393 801.247 810.168 800.952 809.004 800.953C784.094 800.971 759.184 800.964 734.275 800.958C732.516 800.958 718.834 800.998 717.431 800.994L717.43 800.995ZM797.213 796.84C796.347 795.163 795.681 793.716 794.873 792.352C793.919 790.742 794.513 788.922 793.964 787.232C791.441 779.46 789.157 771.611 786.556 763.866C785.401 760.424 785.04 756.796 783.761 753.415C780.751 745.463 778.364 737.409 778.756 728.776C778.812 727.532 779.238 726.089 777.696 724.738C775.512 726.241 773.312 727.708 771.173 729.258C770.597 729.675 770.644 730.46 770.645 731.137C770.652 739.31 770.146 747.505 772.576 755.515C773.662 759.093 773.244 759.049 770.374 761.55C767.956 763.658 764.805 764.725 762.862 767.56C760.345 771.235 757.921 774.867 756.291 779.057C754.832 782.811 754.161 786.814 752.326 790.446C751.563 791.956 753.159 793.74 754.894 793.302C756.53 792.888 758.056 792.874 759.698 793.121C763.291 793.659 766.897 794.25 770.517 794.43C774.034 794.604 777.53 795.123 780.98 795.565C783.658 795.908 786.435 795.583 789.012 796.395C791.706 797.243 794.349 796.817 797.212 796.84L797.213 796.84ZM736.002 791.018C735.537 788.771 735.708 787.576 737.265 787.319C740.616 786.764 741.515 783.884 741.852 781.507C742.243 778.739 743.453 776.733 745.166 774.844C749.294 770.292 752.351 765.075 754.743 759.498C756.939 754.382 757.235 749.179 754.555 744.026C753.066 741.164 751.489 738.334 750.477 735.243C750.145 734.23 749.62 733.109 748.302 733.139C746.694 733.176 746.622 734.636 746.211 735.726C746.119 735.97 746.167 736.263 746.109 736.524C745.104 741.085 744.845 745.762 743.805 750.336C743.294 752.585 743.173 755.185 744.572 757.414C745.969 759.638 745.149 761.553 743.681 763.315C742.479 764.759 741.135 766.062 739.981 767.578C738.402 769.652 735.399 770.415 734.468 773.299C734.314 773.779 732.912 774.054 732.317 774.891C730.38 777.618 728.284 780.235 726.382 782.984C725.329 784.507 724.284 786.105 724.114 788.301C727.618 790.636 731.817 789.068 736.002 791.018H736.002ZM655.092 613.323C655.746 608.814 656.179 607.759 658.53 604.2C659.196 603.192 659.718 602.089 660.395 601.089C661.61 599.293 660.957 597.72 659.787 596.301C658.559 594.812 656.451 594.32 654.6 595.166C651.77 596.459 648.911 597.727 646.388 599.591C644.597 600.914 644.495 601.49 645.672 603.188C648.222 606.866 651.557 609.799 655.093 613.324L655.092 613.323ZM679.105 546.689C679.632 552.059 677.769 557.547 681.581 562.305C683.94 560.944 684.826 558.71 686.199 556.936C687.07 555.811 687.016 554.263 686.215 552.777C685.394 551.255 684.264 549.933 683.723 548.198C683.059 546.07 682.837 546.138 679.106 546.688L679.105 546.689Z" fill="white" stroke="black" stroke-width="4"/>
</g>
<path d="M398.984 680.872H397.189L395.992 681.125L394.881 681.547L393.684 682.306L392.658 683.235L392.06 684.078L391.376 685.344L389.838 688.803L388.555 691.588L387.444 694.119L386.504 696.144L385.136 699.182L384.623 700.194L383.683 700.026L382.657 699.941H381.631L380.093 700.11L378.126 700.616L376.588 701.291L375.306 702.051L374.451 702.726L373.425 703.654L372.57 704.666L371.801 705.848L371.031 707.451L370.604 708.716L370.348 709.982L370.262 710.741V712.513L370.519 714.201L371.031 715.888L371.886 717.66L372.57 718.673L373.596 719.854L374.365 720.613L375.135 721.204L374.878 721.963L373.681 724.579L371.288 729.895L369.749 733.27L368.809 735.379L368.125 736.982L367.783 738.417V740.189L368.125 741.623L368.467 742.467L369.236 743.648L370.177 744.661L371.459 745.504L372.399 745.926L373.681 746.264L374.365 746.348H375.306L376.502 746.179L377.785 745.758L378.725 745.251L379.836 744.408L380.605 743.564L380.776 743.311L392.744 740.779L395.223 740.273L397.018 740.02L398.129 739.936H401.463L403.429 740.104L402.745 741.708L402.403 742.889L402.318 743.564V744.914L402.574 746.179L402.916 747.108L403.515 748.204L404.455 749.301L405.395 750.061L407.019 750.905L408.558 751.58V751.833L405.823 757.908L404.711 760.355L402.318 765.67L401.207 768.117L400.352 770.142L400.095 771.155L400.01 771.914V773.011L400.266 774.361L400.694 775.458L401.292 776.471L402.061 777.314L402.66 777.905L403.857 778.664L404.882 779.086L405.908 779.339L406.592 779.424H407.703L409.156 779.171L410.268 778.749L411.464 777.989L412.49 777.061L413.26 776.049L414.2 774.108L415.14 771.999L416.251 769.552L417.192 767.442L418.303 764.995L419.671 761.958L421.295 758.33L422.492 755.714L423.432 753.605L424.543 751.158L425.569 748.88H425.825L427.963 749.808L429.33 750.398L430.698 750.82L432.322 751.073H434.545L436.169 750.82L437.537 750.398L438.562 749.976L439.845 749.301L440.785 748.626L441.64 747.867L442.665 746.854L443.52 745.673L444.632 743.564L445.743 741.032L447.282 737.657L448.222 735.548L448.735 734.198L449.077 732.764L449.162 732.089V729.557L448.906 728.039L448.307 726.267L447.623 724.917L446.769 723.651L445.999 722.723L445.315 722.132L444.461 721.373L443.093 720.529L441.725 719.854L438.99 718.673L435.57 717.154L433.433 716.226L430.954 715.129L424.03 712.091L421.893 711.079L420.355 710.151L418.901 709.138L418.132 708.548L417.021 707.619L415.91 706.607L414.627 705.257L413.773 704.16L412.832 702.894L411.892 701.376L410.439 698.929L409.156 696.735L407.96 694.71L406.677 692.516L405.31 690.238L405.053 689.816L405.139 688.972L405.224 687.538L405.053 686.357L404.626 685.091L404.113 684.078L403.515 683.319L403.173 682.897L402.232 682.138L401.292 681.547L400.181 681.125L398.984 680.872Z" fill="black"/>
<path d="M402.659 695.132L402.402 695.385L401.291 697.832L399.838 701.038L398.898 703.148L397.786 705.595L394.709 712.429L393.598 714.876L391.204 720.192L389.666 723.567L388.811 725.507L387.7 727.954L383.596 737.067L383.254 737.911L384.109 737.826L393.683 735.801L395.906 735.464L397.786 735.295H401.719L404.198 735.548L406.591 735.97L408.814 736.561L409.839 736.898H410.181L411.378 734.283L412.318 732.173L414.028 728.376L415.225 725.76L416.251 723.482L417.875 719.854L419.328 716.648L419.841 715.467L419.755 715.213L418.131 714.285L417.105 713.61L415.909 712.767L414.541 711.67L412.831 710.151L411.891 709.223L411.293 708.548L410.352 707.451L409.156 705.848L408.215 704.413L407.104 702.557L405.822 700.363L404.967 698.929L403.77 696.904L402.744 695.216L402.659 695.132Z" fill="white"/>
<path d="M424.372 717.323H424.115L422.491 720.867L421.551 722.976L420.439 725.423L418.046 730.739L416.593 733.945L414.541 738.501V738.839L418.046 740.358L421.294 741.792L427.62 744.576L430.697 745.926L432.151 746.348L432.834 746.433H434.117L435.484 746.18L436.767 745.673L437.707 745.083L438.562 744.323L439.331 743.479L440.015 742.298L442.408 736.982L444.033 733.354L444.374 732.173L444.46 731.582V729.979L444.204 728.798L443.776 727.701L443.263 726.773L442.323 725.676L441.383 724.917L440.442 724.41L437.108 722.892L434.544 721.795L431.552 720.445L429.757 719.685L426.509 718.251L424.372 717.323Z" fill="white"/>
<path d="M398.47 685.513H397.616L396.761 685.85L396.077 686.441L395.564 687.453L394.453 689.9L393.171 692.769L391.632 696.144L390.692 698.254L388.982 702.05L387.529 705.257L385.135 710.573L384.024 713.019L382.742 715.888L381.289 719.095L380.348 721.204L379.579 722.891L378.553 725.17L377.1 728.376L376.074 730.654L374.45 734.282L372.997 737.489L372.484 738.754V739.767L372.826 740.611L373.253 741.117L374.023 741.539L374.963 741.707L375.989 741.454L376.672 740.948L377.185 740.104L378.553 737.067L379.664 734.62L381.289 730.992L382.998 727.195L384.195 724.579L385.135 722.47L386.246 720.023L387.614 716.985L389.238 713.357L390.435 710.741L391.375 708.632L392.572 706.016L393.512 703.907L395.137 700.279L396.333 697.663L397.872 694.203L399.069 691.588L400.18 689.141L400.437 688.466V687.285L400.009 686.441L399.24 685.766L398.47 685.513Z" fill="white"/>
<path d="M417.106 744.914H416.849L415.225 748.542L414.028 751.157L413.088 753.267L411.379 757.064L410.182 759.679L409.241 761.789L408.13 764.236L406.763 767.273L405.138 770.902L404.796 771.661L404.711 772.083V772.758L405.053 773.602L405.651 774.277L406.506 774.698L407.275 774.783L408.045 774.614L408.814 774.108L409.156 773.686L409.669 772.673L411.208 769.214L412.832 765.67L413.772 763.561L415.225 760.354L416.593 757.317L418.217 753.689L419.328 751.242L420.696 748.204L421.209 747.107L421.124 746.685L418.046 745.335L417.106 744.914Z" fill="white"/>
<path d="M355.302 672.604H354.704L353.849 672.857L353.165 673.363L352.652 674.375V675.472L353.165 676.485L354.276 678.004L355.473 679.607L356.499 681.041L360.944 687.116L361.884 688.382L362.568 688.888L363.423 689.141L364.363 689.057L365.047 688.719L365.731 687.96L365.987 687.201V686.441L365.645 685.513L356.755 673.363L356.071 672.857L355.302 672.604Z" fill="black"/>
<path d="M343.847 694.288H342.821L342.052 694.625L341.368 695.216L341.026 695.975V697.156L341.454 698L342.137 698.591L343.847 699.35L348.463 701.291L352.994 703.232L356.242 704.582L356.584 704.666H357.353L358.294 704.328L358.721 703.991L359.148 703.316L359.319 702.725V701.966L358.977 701.038L358.379 700.447L357.182 699.856L352.566 697.916L350.002 696.819L347.01 695.553L344.189 694.372L343.847 694.288Z" fill="black"/>
<path d="M354.191 716.732H352.909L348.378 718.082L340.087 720.613L338.206 721.204L337.351 721.963L337.009 722.723V723.82L337.266 724.495L337.779 725.085L338.292 725.423L338.804 725.591H339.83L344.617 724.157L350.174 722.47L354.02 721.288L354.79 720.951L355.388 720.444L355.815 719.601V718.419L355.559 717.829L355.132 717.238L354.448 716.816L354.191 716.732Z" fill="black"/>
<path d="M427.962 724.242L427.107 724.326L426.423 724.664L425.911 725.085L425.483 725.845L425.398 726.267V726.942L425.74 727.87L426.423 728.545L428.646 729.557L434.801 732.257L435.826 732.679L436.681 732.764L437.365 732.595L438.049 732.173L438.562 731.582L438.818 730.907V729.979L438.476 729.136L438.049 728.629L437.365 728.207L433.86 726.689L431.21 725.507L428.646 724.41L427.962 724.242Z" fill="black"/>
<path d="M424.286 732.848H423.517L422.748 733.101L421.893 733.861L421.551 734.704V735.633L421.893 736.392L422.491 737.067L424.457 737.995L427.962 739.514L430.612 740.695L431.809 741.201L432.151 741.286H433.091L433.946 740.948L434.373 740.611L434.801 739.936L434.972 739.261V738.67L434.63 737.742L434.117 737.151L432.749 736.476L430.099 735.295L427.791 734.283L424.885 733.017L424.286 732.848Z" fill="black"/>
<path d="M382.229 704.582L381.032 704.666L379.75 705.004L378.382 705.679L377.613 706.185L376.843 706.86L376.074 707.873L375.39 709.223L375.048 710.573L374.963 711.754L375.134 713.273L375.561 714.538L376.245 715.72L377.014 716.648H377.356L378.724 713.61L380.177 710.404L381.203 708.126L382.314 705.679L382.656 704.92V704.666L382.229 704.582Z" fill="white"/>
<path d="M408.3 741.201L407.958 741.539L407.103 743.48L407.018 743.817V744.577L407.274 745.336L407.702 745.927L408.642 746.518L410.352 747.277H410.694L412.062 744.324L412.575 743.142L412.49 742.889L409.925 741.792L408.3 741.201Z" fill="white"/>
<path d="M407.59 20.8747L407.287 21.2759V21.7786V156.087V157.587H408.787H527.847H528.354L528.757 157.279L536.411 151.431L537.686 150.457L536.629 149.25L416.435 12.1557L415.22 10.7703L414.11 12.2406L407.59 20.8747Z" fill="#F9AB00" stroke="black" stroke-width="3"/>
<rect x="415.977" y="9.5" width="122.473" height="140.225" fill="white" stroke="black" stroke-width="3"/>
<path d="M442.013 68.7005C443.443 67.2705 446.195 64.5189 450.268 60.4455C454.385 56.3289 457.028 53.6422 458.198 52.3855C459.758 50.6955 460.82 49.2872 461.383 48.1605C461.99 47.0339 462.293 45.7555 462.293 44.3255C462.293 42.8089 461.73 41.5305 460.603 40.4905C459.476 39.4505 457.981 38.9305 456.118 38.9305C454.298 38.9305 452.825 39.4505 451.698 40.4905C450.571 41.5305 449.77 42.8305 449.293 44.3905L441.623 41.2055C442.1 39.5155 442.966 37.8905 444.223 36.3305C445.523 34.7272 447.191 33.4272 449.228 32.4305C451.265 31.4339 453.605 30.9355 456.248 30.9355C459.195 30.9355 461.773 31.5205 463.983 32.6905C466.193 33.8172 467.905 35.3772 469.118 37.3705C470.331 39.3205 470.938 41.5089 470.938 43.9355C470.938 48.7455 468.598 53.4472 463.918 58.0405C462.011 59.9039 458.48 63.4139 453.323 68.5705L453.518 68.9605H471.523V76.4355H442.013V68.7005ZM496.006 77.4755C492.279 77.4755 489.008 76.4789 486.191 74.4855C483.374 72.4489 481.186 69.6755 479.626 66.1655C478.109 62.6122 477.351 58.6255 477.351 54.2055C477.351 49.7855 478.109 45.8205 479.626 42.3105C481.186 38.7572 483.374 35.9839 486.191 33.9905C489.008 31.9539 492.279 30.9355 496.006 30.9355C499.733 30.9355 503.004 31.9539 505.821 33.9905C508.638 35.9839 510.804 38.7572 512.321 42.3105C513.881 45.8205 514.661 49.7855 514.661 54.2055C514.661 58.6255 513.881 62.6122 512.321 66.1655C510.804 69.6755 508.638 72.4489 505.821 74.4855C503.004 76.4789 499.733 77.4755 496.006 77.4755ZM496.006 69.4805C498.086 69.4805 499.884 68.8305 501.401 67.5305C502.961 66.1872 504.131 64.3672 504.911 62.0705C505.734 59.7305 506.146 57.1089 506.146 54.2055C506.146 49.6989 505.236 46.0372 503.416 43.2205C501.596 40.3605 499.126 38.9305 496.006 38.9305C492.929 38.9305 490.481 40.3605 488.661 43.2205C486.841 46.0805 485.931 49.7422 485.931 54.2055C485.931 57.1089 486.321 59.7305 487.101 62.0705C487.924 64.3672 489.094 66.1872 490.611 67.5305C492.171 68.8305 493.969 69.4805 496.006 69.4805ZM443.6 120.701C445.03 119.271 447.782 116.519 451.855 112.446C455.972 108.329 458.615 105.642 459.785 104.386C461.345 102.696 462.407 101.287 462.97 100.161C463.577 99.0339 463.88 97.7555 463.88 96.3255C463.88 94.8089 463.317 93.5305 462.19 92.4905C461.063 91.4505 459.568 90.9305 457.705 90.9305C455.885 90.9305 454.412 91.4505 453.285 92.4905C452.158 93.5305 451.357 94.8305 450.88 96.3905L443.21 93.2055C443.687 91.5155 444.553 89.8905 445.81 88.3305C447.11 86.7272 448.778 85.4272 450.815 84.4305C452.852 83.4339 455.192 82.9355 457.835 82.9355C460.782 82.9355 463.36 83.5205 465.57 84.6905C467.78 85.8172 469.492 87.3772 470.705 89.3705C471.918 91.3205 472.525 93.5089 472.525 95.9355C472.525 100.746 470.185 105.447 465.505 110.041C463.598 111.904 460.067 115.414 454.91 120.571L455.105 120.961H473.11V128.436H443.6V120.701ZM499.153 120.246H478.678V113.356L498.438 83.9755H507.668V112.316H513.193V120.246H507.668V128.436H499.153V120.246ZM499.153 112.316V96.6505H498.633L488.103 112.316H499.153Z" fill="black"/>
<mask id="path-174-outside-14_1245_2291" maskUnits="userSpaceOnUse" x="680.975" y="60.6743" width="244" height="205" fill="black">
<rect fill="white" x="680.975" y="60.6743" width="244" height="205"/>
<path d="M924.975 260.674L924.975 65.9164L686.891 65.9164L686.891 260.674L924.975 260.674Z"/>
</mask>
<path d="M924.975 260.674L924.975 65.9164L686.891 65.9164L686.891 260.674L924.975 260.674Z" fill="#34A853"/>
<path d="M686.891 65.9164L681.891 65.9164L681.891 60.9164L686.891 60.9164L686.891 65.9164ZM686.891 260.674L686.891 265.674L681.891 265.674L681.891 260.674L686.891 260.674ZM924.975 70.9164L686.891 70.9164L686.891 60.9164L924.975 60.9164L924.975 70.9164ZM691.891 65.9164L691.891 260.674L681.891 260.674L681.891 65.9164L691.891 65.9164ZM686.891 255.674L924.975 255.674L924.975 265.674L686.891 265.674L686.891 255.674Z" fill="black" mask="url(#path-174-outside-14_1245_2291)"/>
<g clip-path="url(#clip2_1245_2291)">
<path d="M694.141 95.3965H688V67H694.352" stroke="black" stroke-width="3" stroke-miterlimit="10" stroke-linejoin="round"/>
<path d="M706.866 67H713.221V95.3991H706.866" stroke="black" stroke-width="3" stroke-miterlimit="10" stroke-linejoin="round"/>
<path d="M747.474 67.6768C748.726 67.9112 750.554 68.7052 750.532 71.3162C750.5 75.2914 750.623 78.2542 750.623 78.2542C750.623 78.2542 750.788 81.6219 753.767 81.843" stroke="black" stroke-width="3" stroke-miterlimit="10" stroke-linejoin="round"/>
<path d="M747.468 96.0093C748.723 95.7748 750.553 94.9835 750.532 92.3671C750.5 88.3919 750.622 85.4292 750.622 85.4292C750.622 85.4292 750.787 82.0615 753.766 81.8403" stroke="black" stroke-width="3" stroke-miterlimit="10" stroke-linejoin="round"/>
<path d="M734.833 96.0095C733.581 95.7751 731.753 94.9811 731.774 92.37C731.806 88.3949 731.684 85.4321 731.684 85.4321C731.684 85.4321 731.519 82.0644 728.54 81.8433" stroke="black" stroke-width="3" stroke-miterlimit="10" stroke-linejoin="round"/>
<path d="M734.838 67.6768C733.584 67.9112 731.753 68.7025 731.774 71.3189C731.806 75.2941 731.684 78.2568 731.684 78.2568C731.684 78.2568 731.519 81.6245 728.54 81.8457" stroke="black" stroke-width="3" stroke-miterlimit="10" stroke-linejoin="round"/>
<path d="M775.227 95.3965H769.086V67H775.438" stroke="black" stroke-width="3" stroke-miterlimit="10" stroke-linejoin="round"/>
<path d="M787.952 67H794.307V95.3991H787.952" stroke="black" stroke-width="3" stroke-miterlimit="10" stroke-linejoin="round"/>
<path d="M828.561 67.6768C829.813 67.9112 831.641 68.7052 831.619 71.3162C831.587 75.2914 831.71 78.2542 831.71 78.2542C831.71 78.2542 831.875 81.6219 834.851 81.843" stroke="black" stroke-width="3" stroke-miterlimit="10" stroke-linejoin="round"/>
<path d="M828.555 96.0093C829.807 95.7748 831.64 94.9835 831.619 92.3671C831.587 88.3919 831.709 85.4292 831.709 85.4292C831.709 85.4292 831.874 82.0615 834.85 81.8403" stroke="black" stroke-width="3" stroke-miterlimit="10" stroke-linejoin="round"/>
<path d="M815.92 96.0095C814.668 95.7751 812.84 94.9811 812.861 92.37C812.893 88.3949 812.771 85.4321 812.771 85.4321C812.771 85.4321 812.606 82.0644 809.627 81.8433" stroke="black" stroke-width="3" stroke-miterlimit="10" stroke-linejoin="round"/>
<path d="M815.925 67.6768C814.673 67.9112 812.84 68.7025 812.861 71.3189C812.893 75.2941 812.771 78.2568 812.771 78.2568C812.771 78.2568 812.606 81.6245 809.627 81.8457" stroke="black" stroke-width="3" stroke-miterlimit="10" stroke-linejoin="round"/>
<path d="M856.314 95.3965H850.173V67H856.525" stroke="black" stroke-width="3" stroke-miterlimit="10" stroke-linejoin="round"/>
<path d="M869.042 67H875.394V95.3991H869.042" stroke="black" stroke-width="3" stroke-miterlimit="10" stroke-linejoin="round"/>
<path d="M909.646 67.6768C910.898 67.9112 912.725 68.7052 912.704 71.3162C912.672 75.2914 912.795 78.2542 912.795 78.2542C912.795 78.2542 912.96 81.6219 915.939 81.843" stroke="black" stroke-width="3" stroke-miterlimit="10" stroke-linejoin="round"/>
<path d="M909.641 96.0093C910.893 95.7748 912.726 94.9835 912.705 92.3671C912.673 88.3919 912.795 85.4292 912.795 85.4292C912.795 85.4292 912.96 82.0615 915.939 81.8403" stroke="black" stroke-width="3" stroke-miterlimit="10" stroke-linejoin="round"/>
<path d="M897.006 96.0095C895.754 95.7751 893.926 94.9811 893.947 92.37C893.979 88.3949 893.857 85.4321 893.857 85.4321C893.857 85.4321 893.692 82.0644 890.713 81.8433" stroke="black" stroke-width="3" stroke-miterlimit="10" stroke-linejoin="round"/>
<path d="M897.011 67.6768C895.759 67.9112 893.926 68.7025 893.947 71.3189C893.979 75.2941 893.857 78.2568 893.857 78.2568C893.857 78.2568 893.692 81.6245 890.713 81.8457" stroke="black" stroke-width="3" stroke-miterlimit="10" stroke-linejoin="round"/>
<path d="M735.231 135.124H729.087V106.728H735.439" stroke="black" stroke-width="3" stroke-miterlimit="10" stroke-linejoin="round"/>
<path d="M747.956 106.728H754.308V135.124H747.956" stroke="black" stroke-width="3" stroke-miterlimit="10" stroke-linejoin="round"/>
<path d="M788.289 107.405C789.541 107.639 791.369 108.433 791.348 111.044C791.316 115.019 791.438 117.982 791.438 117.982C791.438 117.982 791.603 121.35 794.58 121.571" stroke="black" stroke-width="3" stroke-miterlimit="10" stroke-linejoin="round"/>
<path d="M788.283 135.737C789.535 135.503 791.369 134.712 791.347 132.095C791.315 128.12 791.438 125.157 791.438 125.157C791.438 125.157 791.603 121.789 794.579 121.568" stroke="black" stroke-width="3" stroke-miterlimit="10" stroke-linejoin="round"/>
<path d="M775.649 135.738C774.396 135.503 772.569 134.709 772.59 132.098C772.622 128.123 772.499 125.16 772.499 125.16C772.499 125.16 772.334 121.792 769.355 121.571" stroke="black" stroke-width="3" stroke-miterlimit="10" stroke-linejoin="round"/>
<path d="M775.654 107.405C774.402 107.639 772.569 108.431 772.59 111.047C772.622 115.022 772.499 117.985 772.499 117.985C772.499 117.985 772.334 121.353 769.355 121.574" stroke="black" stroke-width="3" stroke-miterlimit="10" stroke-linejoin="round"/>
<path d="M707.745 107.405C708.997 107.639 710.825 108.433 710.804 111.044C710.772 115.019 710.894 117.982 710.894 117.982C710.894 117.982 711.06 121.35 714.038 121.571" stroke="black" stroke-width="3" stroke-miterlimit="10" stroke-linejoin="round"/>
<path d="M707.74 135.737C708.992 135.503 710.826 134.712 710.804 132.095C710.772 128.12 710.895 125.157 710.895 125.157C710.895 125.157 711.06 121.789 714.039 121.568" stroke="black" stroke-width="3" stroke-miterlimit="10" stroke-linejoin="round"/>
<path d="M695.106 135.738C693.853 135.503 692.026 134.709 692.047 132.098C692.079 128.123 691.956 125.16 691.956 125.16C691.956 125.16 691.791 121.792 688.812 121.571" stroke="black" stroke-width="3" stroke-miterlimit="10" stroke-linejoin="round"/>
<path d="M695.111 107.405C693.859 107.639 692.026 108.431 692.047 111.047C692.079 115.022 691.956 117.985 691.956 117.985C691.956 117.985 691.791 121.353 688.812 121.574" stroke="black" stroke-width="3" stroke-miterlimit="10" stroke-linejoin="round"/>
<path d="M815.77 135.124H809.629V106.728H815.981" stroke="black" stroke-width="3" stroke-miterlimit="10" stroke-linejoin="round"/>
<path d="M828.495 106.728H834.85V135.124H828.495" stroke="black" stroke-width="3" stroke-miterlimit="10" stroke-linejoin="round"/>
<path d="M868.831 107.405C870.083 107.639 871.911 108.433 871.89 111.044C871.858 115.019 871.98 117.982 871.98 117.982C871.98 117.982 872.145 121.35 875.122 121.571" stroke="black" stroke-width="3" stroke-miterlimit="10" stroke-linejoin="round"/>
<path d="M868.825 135.737C870.077 135.503 871.91 134.712 871.889 132.095C871.857 128.12 871.98 125.157 871.98 125.157C871.98 125.157 872.145 121.789 875.121 121.568" stroke="black" stroke-width="3" stroke-miterlimit="10" stroke-linejoin="round"/>
<path d="M856.192 135.738C854.939 135.503 853.112 134.709 853.133 132.098C853.165 128.123 853.042 125.16 853.042 125.16C853.042 125.16 852.877 121.792 849.898 121.571" stroke="black" stroke-width="3" stroke-miterlimit="10" stroke-linejoin="round"/>
<path d="M856.197 107.405C854.945 107.639 853.112 108.431 853.133 111.047C853.165 115.022 853.042 117.985 853.042 117.985C853.042 117.985 852.877 121.353 849.898 121.574" stroke="black" stroke-width="3" stroke-miterlimit="10" stroke-linejoin="round"/>
<path d="M896.313 135.124H890.172V106.728H896.524" stroke="black" stroke-width="3" stroke-miterlimit="10" stroke-linejoin="round"/>
<path d="M909.038 106.728H915.39V135.124H909.038" stroke="black" stroke-width="3" stroke-miterlimit="10" stroke-linejoin="round"/>
<path d="M694.141 176.062H688V147.666H694.352" stroke="black" stroke-width="3" stroke-miterlimit="10" stroke-linejoin="round"/>
<path d="M706.866 147.666H713.221V176.062H706.866" stroke="black" stroke-width="3" stroke-miterlimit="10" stroke-linejoin="round"/>
<path d="M747.474 148.342C748.726 148.577 750.554 149.371 750.532 151.982C750.5 155.957 750.623 158.92 750.623 158.92C750.623 158.92 750.788 162.287 753.767 162.509" stroke="black" stroke-width="3" stroke-miterlimit="10" stroke-linejoin="round"/>
<path d="M747.468 176.672C748.723 176.438 750.553 175.647 750.532 173.03C750.5 169.055 750.622 166.092 750.622 166.092C750.622 166.092 750.787 162.725 753.766 162.503" stroke="black" stroke-width="3" stroke-miterlimit="10" stroke-linejoin="round"/>
<path d="M734.833 176.672C733.581 176.438 731.753 175.644 731.774 173.033C731.806 169.057 731.684 166.095 731.684 166.095C731.684 166.095 731.519 162.727 728.54 162.506" stroke="black" stroke-width="3" stroke-miterlimit="10" stroke-linejoin="round"/>
<path d="M734.838 148.342C733.584 148.577 731.753 149.368 731.774 151.984C731.806 155.96 731.684 158.922 731.684 158.922C731.684 158.922 731.519 162.29 728.54 162.511" stroke="black" stroke-width="3" stroke-miterlimit="10" stroke-linejoin="round"/>
<path d="M775.227 176.062H769.086V147.666H775.438" stroke="black" stroke-width="3" stroke-miterlimit="10" stroke-linejoin="round"/>
<path d="M787.952 147.666H794.307V176.062H787.952" stroke="black" stroke-width="3" stroke-miterlimit="10" stroke-linejoin="round"/>
<path d="M828.561 148.342C829.813 148.577 831.641 149.371 831.619 151.982C831.587 155.957 831.71 158.92 831.71 158.92C831.71 158.92 831.875 162.287 834.851 162.509" stroke="black" stroke-width="3" stroke-miterlimit="10" stroke-linejoin="round"/>
<path d="M828.555 176.672C829.807 176.438 831.64 175.647 831.619 173.03C831.587 169.055 831.709 166.092 831.709 166.092C831.709 166.092 831.874 162.725 834.85 162.503" stroke="black" stroke-width="3" stroke-miterlimit="10" stroke-linejoin="round"/>
<path d="M815.92 176.672C814.668 176.438 812.84 175.644 812.861 173.033C812.893 169.057 812.771 166.095 812.771 166.095C812.771 166.095 812.606 162.727 809.627 162.506" stroke="black" stroke-width="3" stroke-miterlimit="10" stroke-linejoin="round"/>
<path d="M815.925 148.342C814.673 148.577 812.84 149.368 812.861 151.984C812.893 155.96 812.771 158.922 812.771 158.922C812.771 158.922 812.606 162.29 809.627 162.511" stroke="black" stroke-width="3" stroke-miterlimit="10" stroke-linejoin="round"/>
<path d="M856.314 176.062H850.173V147.666H856.525" stroke="black" stroke-width="3" stroke-miterlimit="10" stroke-linejoin="round"/>
<path d="M869.042 147.666H875.394V176.062H869.042" stroke="black" stroke-width="3" stroke-miterlimit="10" stroke-linejoin="round"/>
<path d="M909.646 148.342C910.898 148.577 912.725 149.371 912.704 151.982C912.672 155.957 912.795 158.92 912.795 158.92C912.795 158.92 912.96 162.287 915.939 162.509" stroke="black" stroke-width="3" stroke-miterlimit="10" stroke-linejoin="round"/>
<path d="M909.641 176.672C910.893 176.438 912.726 175.647 912.705 173.03C912.673 169.055 912.795 166.092 912.795 166.092C912.795 166.092 912.96 162.725 915.939 162.503" stroke="black" stroke-width="3" stroke-miterlimit="10" stroke-linejoin="round"/>
<path d="M897.006 176.672C895.754 176.438 893.926 175.644 893.947 173.033C893.979 169.057 893.857 166.095 893.857 166.095C893.857 166.095 893.692 162.727 890.713 162.506" stroke="black" stroke-width="3" stroke-miterlimit="10" stroke-linejoin="round"/>
<path d="M897.011 148.342C895.759 148.577 893.926 149.368 893.947 151.984C893.979 155.96 893.857 158.922 893.857 158.922C893.857 158.922 893.692 162.29 890.713 162.511" stroke="black" stroke-width="3" stroke-miterlimit="10" stroke-linejoin="round"/>
<path d="M735.231 215.787H729.087V187.391H735.439" stroke="black" stroke-width="3" stroke-miterlimit="10" stroke-linejoin="round"/>
<path d="M747.956 187.391H754.308V215.787H747.956" stroke="black" stroke-width="3" stroke-miterlimit="10" stroke-linejoin="round"/>
<path d="M788.289 188.067C789.541 188.302 791.369 189.096 791.348 191.707C791.316 195.682 791.438 198.645 791.438 198.645C791.438 198.645 791.603 202.013 794.58 202.234" stroke="black" stroke-width="3" stroke-miterlimit="10" stroke-linejoin="round"/>
<path d="M788.283 216.4C789.535 216.165 791.369 215.374 791.347 212.758C791.315 208.783 791.438 205.82 791.438 205.82C791.438 205.82 791.603 202.452 794.579 202.231" stroke="black" stroke-width="3" stroke-miterlimit="10" stroke-linejoin="round"/>
<path d="M775.649 216.4C774.396 216.166 772.569 215.372 772.59 212.761C772.622 208.785 772.499 205.823 772.499 205.823C772.499 205.823 772.334 202.455 769.355 202.234" stroke="black" stroke-width="3" stroke-miterlimit="10" stroke-linejoin="round"/>
<path d="M775.654 188.067C774.402 188.302 772.569 189.093 772.59 191.71C772.622 195.685 772.499 198.647 772.499 198.647C772.499 198.647 772.334 202.015 769.355 202.236" stroke="black" stroke-width="3" stroke-miterlimit="10" stroke-linejoin="round"/>
<path d="M707.745 188.067C708.997 188.302 710.825 189.096 710.804 191.707C710.772 195.682 710.894 198.645 710.894 198.645C710.894 198.645 711.06 202.013 714.038 202.234" stroke="black" stroke-width="3" stroke-miterlimit="10" stroke-linejoin="round"/>
<path d="M707.74 216.4C708.992 216.165 710.826 215.374 710.804 212.758C710.772 208.783 710.895 205.82 710.895 205.82C710.895 205.82 711.06 202.452 714.039 202.231" stroke="black" stroke-width="3" stroke-miterlimit="10" stroke-linejoin="round"/>
<path d="M695.106 216.4C693.853 216.166 692.026 215.372 692.047 212.761C692.079 208.785 691.956 205.823 691.956 205.823C691.956 205.823 691.791 202.455 688.812 202.234" stroke="black" stroke-width="3" stroke-miterlimit="10" stroke-linejoin="round"/>
<path d="M695.111 188.067C693.859 188.302 692.026 189.093 692.047 191.71C692.079 195.685 691.956 198.647 691.956 198.647C691.956 198.647 691.791 202.015 688.812 202.236" stroke="black" stroke-width="3" stroke-miterlimit="10" stroke-linejoin="round"/>
<path d="M815.77 215.787H809.629V187.391H815.981" stroke="black" stroke-width="3" stroke-miterlimit="10" stroke-linejoin="round"/>
<path d="M828.495 187.391H834.85V215.787H828.495" stroke="black" stroke-width="3" stroke-miterlimit="10" stroke-linejoin="round"/>
<path d="M868.831 188.067C870.083 188.302 871.911 189.096 871.89 191.707C871.858 195.682 871.98 198.645 871.98 198.645C871.98 198.645 872.145 202.013 875.122 202.234" stroke="black" stroke-width="3" stroke-miterlimit="10" stroke-linejoin="round"/>
<path d="M868.825 216.4C870.077 216.165 871.91 215.374 871.889 212.758C871.857 208.783 871.98 205.82 871.98 205.82C871.98 205.82 872.145 202.452 875.121 202.231" stroke="black" stroke-width="3" stroke-miterlimit="10" stroke-linejoin="round"/>
<path d="M856.192 216.4C854.939 216.166 853.112 215.372 853.133 212.761C853.165 208.785 853.042 205.823 853.042 205.823C853.042 205.823 852.877 202.455 849.898 202.234" stroke="black" stroke-width="3" stroke-miterlimit="10" stroke-linejoin="round"/>
<path d="M856.197 188.067C854.945 188.302 853.112 189.093 853.133 191.71C853.165 195.685 853.042 198.647 853.042 198.647C853.042 198.647 852.877 202.015 849.898 202.236" stroke="black" stroke-width="3" stroke-miterlimit="10" stroke-linejoin="round"/>
<path d="M896.313 215.787H890.172V187.391H896.524" stroke="black" stroke-width="3" stroke-miterlimit="10" stroke-linejoin="round"/>
<path d="M909.038 187.391H915.39V215.787H909.038" stroke="black" stroke-width="3" stroke-miterlimit="10" stroke-linejoin="round"/>
<path d="M694.141 257.553H688V229.157H694.352" stroke="black" stroke-width="3" stroke-miterlimit="10" stroke-linejoin="round"/>
<path d="M706.866 229.157H713.221V257.556H706.866" stroke="black" stroke-width="3" stroke-miterlimit="10" stroke-linejoin="round"/>
<path d="M747.474 229.833C748.726 230.068 750.554 230.862 750.532 233.473C750.5 237.448 750.623 240.411 750.623 240.411C750.623 240.411 750.788 243.779 753.767 244" stroke="black" stroke-width="3" stroke-miterlimit="10" stroke-linejoin="round"/>
<path d="M747.468 258.166C748.723 257.932 750.553 257.14 750.532 254.524C750.5 250.549 750.622 247.586 750.622 247.586C750.622 247.586 750.787 244.218 753.766 243.997" stroke="black" stroke-width="3" stroke-miterlimit="10" stroke-linejoin="round"/>
<path d="M734.833 258.166C733.581 257.932 731.753 257.138 731.774 254.527C731.806 250.552 731.684 247.589 731.684 247.589C731.684 247.589 731.519 244.221 728.54 244" stroke="black" stroke-width="3" stroke-miterlimit="10" stroke-linejoin="round"/>
<path d="M734.838 229.833C733.584 230.068 731.753 230.859 731.774 233.476C731.806 237.451 731.684 240.414 731.684 240.414C731.684 240.414 731.519 243.781 728.54 244.002" stroke="black" stroke-width="3" stroke-miterlimit="10" stroke-linejoin="round"/>
<path d="M775.227 257.553H769.086V229.157H775.438" stroke="black" stroke-width="3" stroke-miterlimit="10" stroke-linejoin="round"/>
<path d="M787.952 229.157H794.307V257.556H787.952" stroke="black" stroke-width="3" stroke-miterlimit="10" stroke-linejoin="round"/>
<path d="M828.561 229.833C829.813 230.068 831.641 230.862 831.619 233.473C831.587 237.448 831.71 240.411 831.71 240.411C831.71 240.411 831.875 243.779 834.851 244" stroke="black" stroke-width="3" stroke-miterlimit="10" stroke-linejoin="round"/>
<path d="M828.555 258.166C829.807 257.932 831.64 257.14 831.619 254.524C831.587 250.549 831.709 247.586 831.709 247.586C831.709 247.586 831.874 244.218 834.85 243.997" stroke="black" stroke-width="3" stroke-miterlimit="10" stroke-linejoin="round"/>
<path d="M815.92 258.166C814.668 257.932 812.84 257.138 812.861 254.527C812.893 250.552 812.771 247.589 812.771 247.589C812.771 247.589 812.606 244.221 809.627 244" stroke="black" stroke-width="3" stroke-miterlimit="10" stroke-linejoin="round"/>
<path d="M815.925 229.833C814.673 230.068 812.84 230.859 812.861 233.476C812.893 237.451 812.771 240.414 812.771 240.414C812.771 240.414 812.606 243.781 809.627 244.002" stroke="black" stroke-width="3" stroke-miterlimit="10" stroke-linejoin="round"/>
<path d="M856.314 257.553H850.173V229.157H856.525" stroke="black" stroke-width="3" stroke-miterlimit="10" stroke-linejoin="round"/>
<path d="M869.042 229.157H875.394V257.556H869.042" stroke="black" stroke-width="3" stroke-miterlimit="10" stroke-linejoin="round"/>
<path d="M909.646 229.833C910.898 230.068 912.725 230.862 912.704 233.473C912.672 237.448 912.795 240.411 912.795 240.411C912.795 240.411 912.96 243.779 915.939 244" stroke="black" stroke-width="3" stroke-miterlimit="10" stroke-linejoin="round"/>
<path d="M909.641 258.166C910.893 257.932 912.726 257.14 912.705 254.524C912.673 250.549 912.795 247.586 912.795 247.586C912.795 247.586 912.96 244.218 915.939 243.997" stroke="black" stroke-width="3" stroke-miterlimit="10" stroke-linejoin="round"/>
<path d="M897.006 258.166C895.754 257.932 893.926 257.138 893.947 254.527C893.979 250.552 893.857 247.589 893.857 247.589C893.857 247.589 893.692 244.221 890.713 244" stroke="black" stroke-width="3" stroke-miterlimit="10" stroke-linejoin="round"/>
<path d="M897.011 229.833C895.759 230.068 893.926 230.859 893.947 233.476C893.979 237.451 893.857 240.414 893.857 240.414C893.857 240.414 893.692 243.781 890.713 244.002" stroke="black" stroke-width="3" stroke-miterlimit="10" stroke-linejoin="round"/>
</g>
<path d="M743.265 55.4448L743.105 37.0081C743.105 37.0081 745.85 16.1687 767.172 15.047C788.494 13.9252 792.37 33.4836 792.37 33.4836H809.976C809.976 33.4836 826.773 35.2459 827.422 51.117C828.071 66.9881 827.907 65.3851 827.907 65.3851C827.907 65.3851 840.344 69.0724 839.859 80.9341C839.374 92.7958 828.713 96.0019 828.713 96.0019H746.332C746.332 96.0019 728.08 94.3989 727.434 75.803C726.789 57.2071 743.265 55.4448 743.265 55.4448Z" fill="white" stroke="black" stroke-width="5" stroke-miterlimit="10"/>
<defs>
<clipPath id="clip0_1245_2291">
<rect width="126" height="300" fill="white" transform="translate(447 1)"/>
</clipPath>
<clipPath id="clip1_1245_2291">
<rect width="195" height="295" fill="white" transform="translate(618 506)"/>
</clipPath>
<clipPath id="clip2_1245_2291">
<rect width="231" height="195" fill="white" transform="translate(688 67)"/>
</clipPath>
</defs>
</svg>
