<svg width="1391" height="812" viewBox="0 0 1391 812" fill="none" xmlns="http://www.w3.org/2000/svg" preserveAspectRatio="none">
<rect x="2.5" y="2.5" width="1386" height="806" fill="white" stroke="black" stroke-width="5"/>
<rect x="2.5" y="-2.5" width="148" height="146" transform="matrix(-1 0 0 1 974 665)" fill="#F9AB00" stroke="black" stroke-width="5"/>
<rect x="950.5" y="2.5" width="124" height="304" fill="#4285F4" stroke="black" stroke-width="5"/>
<path d="M1117.05 239.008C1107.8 238.776 1099.68 243.751 1095.3 251.257C1094.93 251.9 1094.02 251.917 1093.64 251.274C1089.36 243.928 1081.5 239 1072.5 239C1063.5 239 1055.63 243.926 1051.35 251.274C1050.98 251.917 1050.07 251.902 1049.69 251.257C1045.31 243.751 1037.19 238.776 1027.94 239.008C1015.1 239.328 1004.18 250.572 1004 263.644C1003.81 277.615 1014.88 289 1028.56 289C1037.56 289 1045.43 284.075 1049.7 276.726C1050.07 276.091 1050.99 276.091 1051.36 276.726C1055.64 284.072 1063.5 289 1072.5 289C1081.5 289 1089.36 284.075 1093.64 276.726C1094.01 276.091 1094.93 276.091 1095.3 276.726C1099.57 284.072 1107.44 289 1116.44 289C1130.12 289 1141.19 277.615 1141 263.644C1140.81 250.57 1129.89 239.328 1117.05 239.008Z" fill="white" stroke="black" stroke-width="5" stroke-miterlimit="10"/>
<path d="M648.26 762.936L637.908 770.492L648.26 778.049C652.871 781.416 653.923 787.945 650.608 792.629C647.293 797.313 640.866 798.382 636.255 795.017L614.284 778.976C614.253 778.953 614.224 778.93 614.193 778.907C614.119 778.853 614.048 778.798 613.977 778.743C613.907 778.688 613.838 778.631 613.77 778.576C613.714 778.53 613.66 778.481 613.606 778.435C613.521 778.363 613.439 778.288 613.356 778.213C613.322 778.181 613.291 778.152 613.26 778.121C613.158 778.023 613.056 777.922 612.956 777.821C612.948 777.813 612.939 777.804 612.931 777.795C612.196 777.032 611.595 776.173 611.133 775.254C611.124 775.237 611.116 775.223 611.107 775.205C611.048 775.081 610.988 774.958 610.931 774.834C610.912 774.79 610.892 774.744 610.872 774.701C610.832 774.606 610.793 774.511 610.753 774.413C610.724 774.341 610.696 774.266 610.668 774.194C610.642 774.125 610.62 774.056 610.594 773.987C610.56 773.889 610.526 773.788 610.495 773.69C610.481 773.644 610.466 773.598 610.452 773.552C610.415 773.431 610.381 773.31 610.347 773.189C610.339 773.16 610.333 773.131 610.325 773.102C610.291 772.967 610.257 772.829 610.228 772.69C610.225 772.67 610.22 772.65 610.217 772.63C610.188 772.486 610.16 772.342 610.137 772.198C610.135 772.175 610.132 772.154 610.129 772.131C610.106 771.99 610.086 771.849 610.069 771.708C610.066 771.676 610.064 771.642 610.058 771.61C610.044 771.48 610.032 771.351 610.024 771.221C610.021 771.166 610.018 771.112 610.015 771.057C610.01 770.95 610.004 770.841 610.001 770.734C609.998 770.654 610.001 770.573 610.001 770.492C610.001 770.412 610.001 770.331 610.001 770.25C610.004 770.144 610.01 770.034 610.015 769.928C610.018 769.873 610.021 769.818 610.024 769.763C610.032 769.634 610.044 769.504 610.058 769.374C610.061 769.343 610.064 769.308 610.069 769.277C610.086 769.135 610.106 768.994 610.129 768.853C610.132 768.83 610.135 768.81 610.137 768.787C610.16 768.643 610.188 768.499 610.217 768.355C610.22 768.334 610.225 768.314 610.228 768.294C610.257 768.156 610.291 768.02 610.325 767.882C610.333 767.853 610.339 767.825 610.347 767.796C610.378 767.675 610.415 767.554 610.452 767.433C610.466 767.387 610.481 767.341 610.495 767.294C610.526 767.194 610.56 767.096 610.594 766.998C610.617 766.929 610.642 766.859 610.668 766.79C610.696 766.718 610.724 766.643 610.753 766.571C610.79 766.476 610.829 766.378 610.872 766.283C610.892 766.237 610.912 766.194 610.931 766.151C610.988 766.027 611.045 765.903 611.107 765.779C611.116 765.762 611.124 765.747 611.133 765.73C611.595 764.811 612.196 763.953 612.931 763.189C612.939 763.181 612.948 763.172 612.956 763.163C613.056 763.062 613.155 762.962 613.26 762.864C613.291 762.832 613.325 762.803 613.356 762.772C613.439 762.697 613.521 762.622 613.606 762.55C613.66 762.501 613.716 762.455 613.77 762.409C613.838 762.351 613.909 762.296 613.977 762.241C614.048 762.184 614.119 762.129 614.193 762.074C614.224 762.051 614.253 762.028 614.284 762.005L636.255 745.965C640.866 742.597 647.295 743.666 650.608 748.353C653.926 753.04 652.874 759.568 648.26 762.936Z" fill="white" stroke="#1E1E1E" stroke-width="5" stroke-miterlimit="10"/>
<path d="M690.283 762.936L700.635 770.492L690.283 778.049C685.671 781.416 684.619 787.945 687.934 792.629C691.25 797.313 697.677 798.382 702.288 795.017L724.26 778.976C724.291 778.953 724.32 778.93 724.351 778.907C724.425 778.853 724.496 778.798 724.567 778.743C724.637 778.688 724.706 778.631 724.774 778.576C724.83 778.53 724.884 778.481 724.938 778.435C725.023 778.363 725.105 778.288 725.188 778.213C725.222 778.181 725.253 778.152 725.284 778.121C725.386 778.023 725.488 777.922 725.588 777.821C725.596 777.813 725.605 777.804 725.613 777.795C726.348 777.032 726.949 776.173 727.411 775.254C727.42 775.237 727.428 775.223 727.437 775.205C727.496 775.081 727.556 774.958 727.613 774.834C727.632 774.79 727.652 774.744 727.672 774.701C727.712 774.606 727.752 774.511 727.791 774.413C727.82 774.341 727.848 774.266 727.876 774.194C727.902 774.125 727.925 774.056 727.95 773.987C727.984 773.889 728.018 773.788 728.049 773.69C728.064 773.644 728.078 773.598 728.092 773.552C728.129 773.431 728.163 773.31 728.197 773.189C728.205 773.16 728.211 773.131 728.22 773.102C728.254 772.967 728.288 772.829 728.316 772.69C728.319 772.67 728.325 772.65 728.327 772.63C728.356 772.486 728.384 772.342 728.407 772.198C728.41 772.175 728.412 772.154 728.415 772.131C728.438 771.99 728.458 771.849 728.475 771.708C728.478 771.676 728.481 771.642 728.486 771.61C728.5 771.48 728.512 771.351 728.52 771.221C728.523 771.166 728.526 771.112 728.529 771.057C728.534 770.95 728.54 770.841 728.543 770.734C728.546 770.654 728.543 770.573 728.543 770.492C728.543 770.412 728.543 770.331 728.543 770.25C728.54 770.144 728.534 770.034 728.529 769.928C728.526 769.873 728.523 769.818 728.52 769.763C728.512 769.634 728.5 769.504 728.486 769.374C728.483 769.343 728.481 769.308 728.475 769.277C728.458 769.135 728.438 768.994 728.415 768.853C728.412 768.83 728.41 768.81 728.407 768.787C728.384 768.643 728.356 768.499 728.327 768.355C728.325 768.334 728.319 768.314 728.316 768.294C728.288 768.156 728.254 768.02 728.22 767.882C728.211 767.853 728.205 767.825 728.197 767.796C728.166 767.675 728.129 767.554 728.092 767.433C728.078 767.387 728.064 767.341 728.049 767.294C728.018 767.194 727.984 767.096 727.95 766.998C727.927 766.929 727.902 766.859 727.876 766.79C727.848 766.718 727.82 766.643 727.791 766.571C727.754 766.476 727.715 766.378 727.672 766.283C727.652 766.237 727.632 766.194 727.613 766.151C727.556 766.027 727.499 765.903 727.437 765.779C727.428 765.762 727.42 765.747 727.411 765.73C726.949 764.811 726.348 763.953 725.613 763.189C725.605 763.181 725.596 763.172 725.588 763.163C725.488 763.062 725.389 762.962 725.284 762.864C725.253 762.832 725.219 762.803 725.188 762.772C725.105 762.697 725.023 762.622 724.938 762.55C724.884 762.501 724.828 762.455 724.774 762.409C724.706 762.351 724.635 762.296 724.567 762.241C724.496 762.184 724.425 762.129 724.351 762.074C724.32 762.051 724.291 762.028 724.26 762.005L702.288 745.965C697.677 742.597 691.247 743.666 687.934 748.353C684.619 753.04 685.671 759.568 690.283 762.936Z" fill="white" stroke="#1E1E1E" stroke-width="5" stroke-miterlimit="10"/>
<rect x="1074.5" y="429.5" width="312" height="379" fill="#F9AB00" stroke="black" stroke-width="5"/>
<rect x="2.5" y="-2.5" width="288" height="96" transform="matrix(-1 0 0 1 953 5)" fill="#EA4335" stroke="black" stroke-width="5"/>
<rect x="2.5" y="2.5" width="69" height="235" transform="matrix(1.26601e-08 -1 -1 -1.12324e-08 1389 74)" fill="#EA4335" stroke="black" stroke-width="5"/>
<rect x="2.5" y="2.5" width="218.962" height="169.856" transform="matrix(1.26601e-08 -1 -1 -1.12324e-08 1388.62 651.271)" fill="#34A853" stroke="black" stroke-width="5"/>
<rect x="2.5" y="2.5" width="218.962" height="169.856" transform="matrix(1.26601e-08 -1 -1 -1.12324e-08 1246.56 651.271)" fill="#EA4335" stroke="black" stroke-width="5"/>
<rect x="2.5" y="2.5" width="214" height="119" transform="matrix(1.26601e-08 -1 -1 -1.12324e-08 1078 524)" fill="#34A853" stroke="black" stroke-width="5"/>
<rect x="2.5" y="2.5" width="83" height="83" transform="matrix(1.26601e-08 -1 -1 -1.12324e-08 953 184)" fill="#34A853" stroke="black" stroke-width="5"/>
<rect x="970.5" y="521.5" width="104" height="287" fill="#4285F4" stroke="black" stroke-width="5"/>
<rect x="1074.5" y="2.5" width="77" height="267" fill="#F9AB00" stroke="black" stroke-width="5"/>
<rect x="2.5" y="-2.5" width="311.913" height="161.964" transform="matrix(-1 0 0 1 1388.62 270.96)" fill="#EA4335" stroke="black" stroke-width="5"/>
<rect x="515.5" y="731.5" width="77" height="77" fill="#EA4335" stroke="black" stroke-width="5"/>
<rect x="592.5" y="731.5" width="76" height="77" fill="#4285F4" stroke="black" stroke-width="5"/>
<rect x="668.5" y="731.5" width="77" height="77" fill="#F9AB00" stroke="black" stroke-width="5"/>
<rect x="746.5" y="731.5" width="77" height="77" fill="#34A853" stroke="black" stroke-width="5"/>
<g clip-path="url(#clip0_1141_4305)">
<path d="M1055.97 18.1454C1055.97 10.4585 1061.06 4.22607 1067.34 4.22607C1073.63 4.22607 1078.72 10.4585 1078.72 18.1454" stroke="#1E1E1E" stroke-width="3" stroke-miterlimit="10" stroke-linejoin="round"/>
<path d="M1033.22 18.1454C1033.22 10.4585 1038.31 4.22607 1044.6 4.22607C1050.88 4.22607 1055.97 10.4585 1055.97 18.1454" stroke="#1E1E1E" stroke-width="3" stroke-miterlimit="10" stroke-linejoin="round"/>
<path d="M1010.47 18.1454C1010.47 10.4585 1015.56 4.22607 1021.85 4.22607C1028.13 4.22607 1033.22 10.4585 1033.22 18.1454" stroke="#1E1E1E" stroke-width="3" stroke-miterlimit="10" stroke-linejoin="round"/>
<path d="M965.029 18.1454C965.029 10.4585 970.122 4.22607 976.404 4.22607C982.686 4.22607 987.779 10.4585 987.779 18.1454" stroke="#1E1E1E" stroke-width="3" stroke-miterlimit="10" stroke-linejoin="round"/>
<path d="M987.776 18.1454C987.776 10.4585 992.868 4.22607 999.151 4.22607C1005.43 4.22607 1010.53 10.4585 1010.53 18.1454" stroke="#1E1E1E" stroke-width="3" stroke-miterlimit="10" stroke-linejoin="round"/>
<path d="M942.28 18.1454C942.28 10.4585 947.373 4.22607 953.655 4.22607C959.937 4.22607 965.03 10.4585 965.03 18.1454" stroke="#1E1E1E" stroke-width="3" stroke-miterlimit="10" stroke-linejoin="round"/>
<path d="M1055.97 35.0647C1055.97 27.3778 1061.06 21.1454 1067.34 21.1454C1073.63 21.1454 1078.72 27.3778 1078.72 35.0647" stroke="#1E1E1E" stroke-width="3" stroke-miterlimit="10" stroke-linejoin="round"/>
<path d="M1033.22 35.0647C1033.22 27.3778 1038.31 21.1454 1044.6 21.1454C1050.88 21.1454 1055.97 27.3778 1055.97 35.0647" stroke="#1E1E1E" stroke-width="3" stroke-miterlimit="10" stroke-linejoin="round"/>
<path d="M1010.47 35.0647C1010.47 27.3778 1015.56 21.1454 1021.85 21.1454C1028.13 21.1454 1033.22 27.3778 1033.22 35.0647" stroke="#1E1E1E" stroke-width="3" stroke-miterlimit="10" stroke-linejoin="round"/>
<path d="M965.029 35.0647C965.029 27.3778 970.122 21.1454 976.404 21.1454C982.686 21.1454 987.779 27.3778 987.779 35.0647" stroke="#1E1E1E" stroke-width="3" stroke-miterlimit="10" stroke-linejoin="round"/>
<path d="M987.776 35.0647C987.776 27.3778 992.868 21.1454 999.151 21.1454C1005.43 21.1454 1010.53 27.3778 1010.53 35.0647" stroke="#1E1E1E" stroke-width="3" stroke-miterlimit="10" stroke-linejoin="round"/>
<path d="M942.28 35.0647C942.28 27.3778 947.373 21.1454 953.655 21.1454C959.937 21.1454 965.03 27.3778 965.03 35.0647" stroke="#1E1E1E" stroke-width="3" stroke-miterlimit="10" stroke-linejoin="round"/>
<path d="M1055.97 51.984C1055.97 44.2971 1061.06 38.0647 1067.34 38.0647C1073.63 38.0647 1078.72 44.2971 1078.72 51.984" stroke="#1E1E1E" stroke-width="3" stroke-miterlimit="10" stroke-linejoin="round"/>
<path d="M1033.22 51.984C1033.22 44.2971 1038.31 38.0647 1044.6 38.0647C1050.88 38.0647 1055.97 44.2971 1055.97 51.984" stroke="#1E1E1E" stroke-width="3" stroke-miterlimit="10" stroke-linejoin="round"/>
<path d="M1010.47 51.984C1010.47 44.2971 1015.56 38.0647 1021.85 38.0647C1028.13 38.0647 1033.22 44.2971 1033.22 51.984" stroke="#1E1E1E" stroke-width="3" stroke-miterlimit="10" stroke-linejoin="round"/>
<path d="M965.029 51.984C965.029 44.2971 970.122 38.0647 976.404 38.0647C982.686 38.0647 987.779 44.2971 987.779 51.984" stroke="#1E1E1E" stroke-width="3" stroke-miterlimit="10" stroke-linejoin="round"/>
<path d="M987.776 51.984C987.776 44.2971 992.868 38.0647 999.151 38.0647C1005.43 38.0647 1010.53 44.2971 1010.53 51.984" stroke="#1E1E1E" stroke-width="3" stroke-miterlimit="10" stroke-linejoin="round"/>
<path d="M942.28 51.984C942.28 44.2971 947.373 38.0647 953.655 38.0647C959.937 38.0647 965.03 44.2971 965.03 51.984" stroke="#1E1E1E" stroke-width="3" stroke-miterlimit="10" stroke-linejoin="round"/>
<path d="M1055.97 68.9033C1055.97 61.2164 1061.06 54.984 1067.34 54.984C1073.63 54.984 1078.72 61.2164 1078.72 68.9033" stroke="#1E1E1E" stroke-width="3" stroke-miterlimit="10" stroke-linejoin="round"/>
<path d="M1033.22 68.9033C1033.22 61.2164 1038.31 54.984 1044.6 54.984C1050.88 54.984 1055.97 61.2164 1055.97 68.9033" stroke="#1E1E1E" stroke-width="3" stroke-miterlimit="10" stroke-linejoin="round"/>
<path d="M1010.47 68.9033C1010.47 61.2164 1015.56 54.984 1021.85 54.984C1028.13 54.984 1033.22 61.2164 1033.22 68.9033" stroke="#1E1E1E" stroke-width="3" stroke-miterlimit="10" stroke-linejoin="round"/>
<path d="M965.029 68.9033C965.029 61.2164 970.122 54.984 976.404 54.984C982.686 54.984 987.779 61.2164 987.779 68.9033" stroke="#1E1E1E" stroke-width="3" stroke-miterlimit="10" stroke-linejoin="round"/>
<path d="M987.776 68.9033C987.776 61.2164 992.868 54.984 999.151 54.984C1005.43 54.984 1010.53 61.2164 1010.53 68.9033" stroke="#1E1E1E" stroke-width="3" stroke-miterlimit="10" stroke-linejoin="round"/>
<path d="M942.28 68.9033C942.28 61.2164 947.373 54.984 953.655 54.984C959.937 54.984 965.03 61.2164 965.03 68.9033" stroke="#1E1E1E" stroke-width="3" stroke-miterlimit="10" stroke-linejoin="round"/>
<path d="M1055.97 85.8226C1055.97 78.1357 1061.06 71.9033 1067.34 71.9033C1073.63 71.9033 1078.72 78.1357 1078.72 85.8226" stroke="#1E1E1E" stroke-width="3" stroke-miterlimit="10" stroke-linejoin="round"/>
<path d="M1033.22 85.8226C1033.22 78.1357 1038.31 71.9033 1044.6 71.9033C1050.88 71.9033 1055.97 78.1357 1055.97 85.8226" stroke="#1E1E1E" stroke-width="3" stroke-miterlimit="10" stroke-linejoin="round"/>
<path d="M1010.47 85.8226C1010.47 78.1357 1015.56 71.9033 1021.85 71.9033C1028.13 71.9033 1033.22 78.1357 1033.22 85.8226" stroke="#1E1E1E" stroke-width="3" stroke-miterlimit="10" stroke-linejoin="round"/>
<path d="M965.029 85.8226C965.029 78.1357 970.122 71.9033 976.404 71.9033C982.686 71.9033 987.779 78.1357 987.779 85.8226" stroke="#1E1E1E" stroke-width="3" stroke-miterlimit="10" stroke-linejoin="round"/>
<path d="M987.776 85.8226C987.776 78.1357 992.868 71.9033 999.151 71.9033C1005.43 71.9033 1010.53 78.1357 1010.53 85.8226" stroke="#1E1E1E" stroke-width="3" stroke-miterlimit="10" stroke-linejoin="round"/>
<path d="M942.28 85.8226C942.28 78.1357 947.373 71.9033 953.655 71.9033C959.937 71.9033 965.03 78.1357 965.03 85.8226" stroke="#1E1E1E" stroke-width="3" stroke-miterlimit="10" stroke-linejoin="round"/>
<path d="M1055.97 102.742C1055.97 95.055 1061.06 88.8226 1067.34 88.8226C1073.63 88.8226 1078.72 95.055 1078.72 102.742" stroke="#1E1E1E" stroke-width="3" stroke-miterlimit="10" stroke-linejoin="round"/>
<path d="M1033.22 102.742C1033.22 95.055 1038.31 88.8226 1044.6 88.8226C1050.88 88.8226 1055.97 95.055 1055.97 102.742" stroke="#1E1E1E" stroke-width="3" stroke-miterlimit="10" stroke-linejoin="round"/>
<path d="M1010.47 102.742C1010.47 95.055 1015.56 88.8226 1021.85 88.8226C1028.13 88.8226 1033.22 95.055 1033.22 102.742" stroke="#1E1E1E" stroke-width="3" stroke-miterlimit="10" stroke-linejoin="round"/>
<path d="M965.029 102.742C965.029 95.055 970.122 88.8226 976.404 88.8226C982.686 88.8226 987.779 95.055 987.779 102.742" stroke="#1E1E1E" stroke-width="3" stroke-miterlimit="10" stroke-linejoin="round"/>
<path d="M987.776 102.742C987.776 95.055 992.868 88.8226 999.151 88.8226C1005.43 88.8226 1010.53 95.055 1010.53 102.742" stroke="#1E1E1E" stroke-width="3" stroke-miterlimit="10" stroke-linejoin="round"/>
<path d="M942.28 102.742C942.28 95.055 947.373 88.8226 953.655 88.8226C959.937 88.8226 965.03 95.055 965.03 102.742" stroke="#1E1E1E" stroke-width="3" stroke-miterlimit="10" stroke-linejoin="round"/>
<path d="M1055.97 119.661C1055.97 111.974 1061.06 105.742 1067.34 105.742C1073.63 105.742 1078.72 111.974 1078.72 119.661" stroke="#1E1E1E" stroke-width="3" stroke-miterlimit="10" stroke-linejoin="round"/>
<path d="M1033.22 119.661C1033.22 111.974 1038.31 105.742 1044.6 105.742C1050.88 105.742 1055.97 111.974 1055.97 119.661" stroke="#1E1E1E" stroke-width="3" stroke-miterlimit="10" stroke-linejoin="round"/>
<path d="M1010.47 119.661C1010.47 111.974 1015.56 105.742 1021.85 105.742C1028.13 105.742 1033.22 111.974 1033.22 119.661" stroke="#1E1E1E" stroke-width="3" stroke-miterlimit="10" stroke-linejoin="round"/>
<path d="M965.029 119.661C965.029 111.974 970.122 105.742 976.404 105.742C982.686 105.742 987.779 111.974 987.779 119.661" stroke="#1E1E1E" stroke-width="3" stroke-miterlimit="10" stroke-linejoin="round"/>
<path d="M987.776 119.661C987.776 111.974 992.868 105.742 999.151 105.742C1005.43 105.742 1010.53 111.974 1010.53 119.661" stroke="#1E1E1E" stroke-width="3" stroke-miterlimit="10" stroke-linejoin="round"/>
<path d="M942.28 119.661C942.28 111.974 947.373 105.742 953.655 105.742C959.937 105.742 965.03 111.974 965.03 119.661" stroke="#1E1E1E" stroke-width="3" stroke-miterlimit="10" stroke-linejoin="round"/>
<path d="M1055.97 136.581C1055.97 128.894 1061.06 122.661 1067.34 122.661C1073.63 122.661 1078.72 128.894 1078.72 136.581" stroke="#1E1E1E" stroke-width="3" stroke-miterlimit="10" stroke-linejoin="round"/>
<path d="M1033.22 136.581C1033.22 128.894 1038.31 122.661 1044.6 122.661C1050.88 122.661 1055.97 128.894 1055.97 136.581" stroke="#1E1E1E" stroke-width="3" stroke-miterlimit="10" stroke-linejoin="round"/>
<path d="M1010.47 136.581C1010.47 128.894 1015.56 122.661 1021.85 122.661C1028.13 122.661 1033.22 128.894 1033.22 136.581" stroke="#1E1E1E" stroke-width="3" stroke-miterlimit="10" stroke-linejoin="round"/>
<path d="M965.029 136.581C965.029 128.894 970.122 122.661 976.404 122.661C982.686 122.661 987.779 128.894 987.779 136.581" stroke="#1E1E1E" stroke-width="3" stroke-miterlimit="10" stroke-linejoin="round"/>
<path d="M987.776 136.581C987.776 128.894 992.868 122.661 999.151 122.661C1005.43 122.661 1010.53 128.894 1010.53 136.581" stroke="#1E1E1E" stroke-width="3" stroke-miterlimit="10" stroke-linejoin="round"/>
<path d="M942.28 136.581C942.28 128.894 947.373 122.661 953.655 122.661C959.937 122.661 965.03 128.894 965.03 136.581" stroke="#1E1E1E" stroke-width="3" stroke-miterlimit="10" stroke-linejoin="round"/>
<path d="M1055.97 153.5C1055.97 145.813 1061.06 139.581 1067.34 139.581C1073.63 139.581 1078.72 145.813 1078.72 153.5" stroke="#1E1E1E" stroke-width="3" stroke-miterlimit="10" stroke-linejoin="round"/>
<path d="M1033.22 153.5C1033.22 145.813 1038.31 139.581 1044.6 139.581C1050.88 139.581 1055.97 145.813 1055.97 153.5" stroke="#1E1E1E" stroke-width="3" stroke-miterlimit="10" stroke-linejoin="round"/>
<path d="M1010.47 153.5C1010.47 145.813 1015.56 139.581 1021.85 139.581C1028.13 139.581 1033.22 145.813 1033.22 153.5" stroke="#1E1E1E" stroke-width="3" stroke-miterlimit="10" stroke-linejoin="round"/>
<path d="M965.029 153.5C965.029 145.813 970.122 139.581 976.404 139.581C982.686 139.581 987.779 145.813 987.779 153.5" stroke="#1E1E1E" stroke-width="3" stroke-miterlimit="10" stroke-linejoin="round"/>
<path d="M987.776 153.5C987.776 145.813 992.868 139.581 999.151 139.581C1005.43 139.581 1010.53 145.813 1010.53 153.5" stroke="#1E1E1E" stroke-width="3" stroke-miterlimit="10" stroke-linejoin="round"/>
<path d="M942.28 153.5C942.28 145.813 947.373 139.581 953.655 139.581C959.937 139.581 965.03 145.813 965.03 153.5" stroke="#1E1E1E" stroke-width="3" stroke-miterlimit="10" stroke-linejoin="round"/>
<path d="M1055.97 170.419C1055.97 162.732 1061.06 156.5 1067.34 156.5C1073.63 156.5 1078.72 162.732 1078.72 170.419" stroke="#1E1E1E" stroke-width="3" stroke-miterlimit="10" stroke-linejoin="round"/>
<path d="M1033.22 170.419C1033.22 162.732 1038.31 156.5 1044.6 156.5C1050.88 156.5 1055.97 162.732 1055.97 170.419" stroke="#1E1E1E" stroke-width="3" stroke-miterlimit="10" stroke-linejoin="round"/>
<path d="M1010.47 170.419C1010.47 162.732 1015.56 156.5 1021.85 156.5C1028.13 156.5 1033.22 162.732 1033.22 170.419" stroke="#1E1E1E" stroke-width="3" stroke-miterlimit="10" stroke-linejoin="round"/>
<path d="M965.029 170.419C965.029 162.732 970.122 156.5 976.404 156.5C982.686 156.5 987.779 162.732 987.779 170.419" stroke="#1E1E1E" stroke-width="3" stroke-miterlimit="10" stroke-linejoin="round"/>
<path d="M987.776 170.419C987.776 162.732 992.868 156.5 999.151 156.5C1005.43 156.5 1010.53 162.732 1010.53 170.419" stroke="#1E1E1E" stroke-width="3" stroke-miterlimit="10" stroke-linejoin="round"/>
<path d="M942.28 170.419C942.28 162.732 947.373 156.5 953.655 156.5C959.937 156.5 965.03 162.732 965.03 170.419" stroke="#1E1E1E" stroke-width="3" stroke-miterlimit="10" stroke-linejoin="round"/>
<path d="M1055.97 187.339C1055.97 179.652 1061.06 173.419 1067.34 173.419C1073.63 173.419 1078.72 179.652 1078.72 187.339" stroke="#1E1E1E" stroke-width="3" stroke-miterlimit="10" stroke-linejoin="round"/>
<path d="M1033.22 187.339C1033.22 179.652 1038.31 173.419 1044.6 173.419C1050.88 173.419 1055.97 179.652 1055.97 187.339" stroke="#1E1E1E" stroke-width="3" stroke-miterlimit="10" stroke-linejoin="round"/>
<path d="M1010.47 187.339C1010.47 179.652 1015.56 173.419 1021.85 173.419C1028.13 173.419 1033.22 179.652 1033.22 187.339" stroke="#1E1E1E" stroke-width="3" stroke-miterlimit="10" stroke-linejoin="round"/>
<path d="M965.029 187.339C965.029 179.652 970.122 173.419 976.404 173.419C982.686 173.419 987.779 179.652 987.779 187.339" stroke="#1E1E1E" stroke-width="3" stroke-miterlimit="10" stroke-linejoin="round"/>
<path d="M987.776 187.339C987.776 179.652 992.868 173.419 999.151 173.419C1005.43 173.419 1010.53 179.652 1010.53 187.339" stroke="#1E1E1E" stroke-width="3" stroke-miterlimit="10" stroke-linejoin="round"/>
<path d="M942.28 187.339C942.28 179.652 947.373 173.419 953.655 173.419C959.937 173.419 965.03 179.652 965.03 187.339" stroke="#1E1E1E" stroke-width="3" stroke-miterlimit="10" stroke-linejoin="round"/>
<path d="M1055.97 204.258C1055.97 196.571 1061.06 190.339 1067.34 190.339C1073.63 190.339 1078.72 196.571 1078.72 204.258" stroke="#1E1E1E" stroke-width="3" stroke-miterlimit="10" stroke-linejoin="round"/>
<path d="M1033.22 204.258C1033.22 196.571 1038.31 190.339 1044.6 190.339C1050.88 190.339 1055.97 196.571 1055.97 204.258" stroke="#1E1E1E" stroke-width="3" stroke-miterlimit="10" stroke-linejoin="round"/>
<path d="M1010.47 204.258C1010.47 196.571 1015.56 190.339 1021.85 190.339C1028.13 190.339 1033.22 196.571 1033.22 204.258" stroke="#1E1E1E" stroke-width="3" stroke-miterlimit="10" stroke-linejoin="round"/>
<path d="M965.029 204.258C965.029 196.571 970.122 190.339 976.404 190.339C982.686 190.339 987.779 196.571 987.779 204.258" stroke="#1E1E1E" stroke-width="3" stroke-miterlimit="10" stroke-linejoin="round"/>
<path d="M987.776 204.258C987.776 196.571 992.868 190.339 999.151 190.339C1005.43 190.339 1010.53 196.571 1010.53 204.258" stroke="#1E1E1E" stroke-width="3" stroke-miterlimit="10" stroke-linejoin="round"/>
<path d="M942.28 204.258C942.28 196.571 947.373 190.339 953.655 190.339C959.937 190.339 965.03 196.571 965.03 204.258" stroke="#1E1E1E" stroke-width="3" stroke-miterlimit="10" stroke-linejoin="round"/>
<path d="M1055.97 221.177C1055.97 213.49 1061.06 207.258 1067.34 207.258C1073.63 207.258 1078.72 213.49 1078.72 221.177" stroke="#1E1E1E" stroke-width="3" stroke-miterlimit="10" stroke-linejoin="round"/>
<path d="M1033.22 221.177C1033.22 213.49 1038.31 207.258 1044.6 207.258C1050.88 207.258 1055.97 213.49 1055.97 221.177" stroke="#1E1E1E" stroke-width="3" stroke-miterlimit="10" stroke-linejoin="round"/>
<path d="M1010.47 221.177C1010.47 213.49 1015.57 207.258 1021.85 207.258C1028.13 207.258 1033.22 213.49 1033.22 221.177" stroke="#1E1E1E" stroke-width="3" stroke-miterlimit="10" stroke-linejoin="round"/>
<path d="M965.031 221.177C965.031 213.49 970.123 207.258 976.405 207.258C982.688 207.258 987.78 213.49 987.78 221.177" stroke="#1E1E1E" stroke-width="3" stroke-miterlimit="10" stroke-linejoin="round"/>
<path d="M987.777 221.177C987.777 213.49 992.87 207.258 999.152 207.258C1005.43 207.258 1010.53 213.49 1010.53 221.177" stroke="#1E1E1E" stroke-width="3" stroke-miterlimit="10" stroke-linejoin="round"/>
<path d="M942.282 221.177C942.282 213.49 947.374 207.258 953.656 207.258C959.939 207.258 965.031 213.49 965.031 221.177" stroke="#1E1E1E" stroke-width="3" stroke-miterlimit="10" stroke-linejoin="round"/>
<path d="M1055.97 238.096C1055.97 230.41 1061.06 224.177 1067.34 224.177C1073.63 224.177 1078.72 230.41 1078.72 238.096" stroke="#1E1E1E" stroke-width="3" stroke-miterlimit="10" stroke-linejoin="round"/>
<path d="M1033.22 238.096C1033.22 230.41 1038.31 224.177 1044.6 224.177C1050.88 224.177 1055.97 230.41 1055.97 238.096" stroke="#1E1E1E" stroke-width="3" stroke-miterlimit="10" stroke-linejoin="round"/>
<path d="M1010.47 238.096C1010.47 230.41 1015.56 224.177 1021.85 224.177C1028.13 224.177 1033.22 230.41 1033.22 238.096" stroke="#1E1E1E" stroke-width="3" stroke-miterlimit="10" stroke-linejoin="round"/>
<path d="M965.029 238.096C965.029 230.41 970.122 224.177 976.404 224.177C982.686 224.177 987.779 230.41 987.779 238.096" stroke="#1E1E1E" stroke-width="3" stroke-miterlimit="10" stroke-linejoin="round"/>
<path d="M987.776 238.096C987.776 230.41 992.868 224.177 999.151 224.177C1005.43 224.177 1010.53 230.41 1010.53 238.096" stroke="#1E1E1E" stroke-width="3" stroke-miterlimit="10" stroke-linejoin="round"/>
<path d="M942.28 238.096C942.28 230.41 947.373 224.177 953.655 224.177C959.937 224.177 965.03 230.41 965.03 238.096" stroke="#1E1E1E" stroke-width="3" stroke-miterlimit="10" stroke-linejoin="round"/>
<path d="M1055.97 255.016C1055.97 247.329 1061.06 241.096 1067.34 241.096C1073.63 241.096 1078.72 247.329 1078.72 255.016" stroke="#1E1E1E" stroke-width="3" stroke-miterlimit="10" stroke-linejoin="round"/>
<path d="M1033.22 255.016C1033.22 247.329 1038.31 241.096 1044.6 241.096C1050.88 241.096 1055.97 247.329 1055.97 255.016" stroke="#1E1E1E" stroke-width="3" stroke-miterlimit="10" stroke-linejoin="round"/>
<path d="M1010.47 255.016C1010.47 247.329 1015.57 241.096 1021.85 241.096C1028.13 241.096 1033.22 247.329 1033.22 255.016" stroke="#1E1E1E" stroke-width="3" stroke-miterlimit="10" stroke-linejoin="round"/>
<path d="M965.031 255.016C965.031 247.329 970.123 241.096 976.405 241.096C982.688 241.096 987.78 247.329 987.78 255.016" stroke="#1E1E1E" stroke-width="3" stroke-miterlimit="10" stroke-linejoin="round"/>
<path d="M987.777 255.016C987.777 247.329 992.87 241.096 999.152 241.096C1005.43 241.096 1010.53 247.329 1010.53 255.016" stroke="#1E1E1E" stroke-width="3" stroke-miterlimit="10" stroke-linejoin="round"/>
<path d="M942.282 255.016C942.282 247.329 947.374 241.096 953.656 241.096C959.939 241.096 965.031 247.329 965.031 255.016" stroke="#1E1E1E" stroke-width="3" stroke-miterlimit="10" stroke-linejoin="round"/>
<path d="M1055.97 271.935C1055.97 264.248 1061.06 258.016 1067.34 258.016C1073.63 258.016 1078.72 264.248 1078.72 271.935" stroke="#1E1E1E" stroke-width="3" stroke-miterlimit="10" stroke-linejoin="round"/>
<path d="M1033.22 271.935C1033.22 264.248 1038.31 258.016 1044.6 258.016C1050.88 258.016 1055.97 264.248 1055.97 271.935" stroke="#1E1E1E" stroke-width="3" stroke-miterlimit="10" stroke-linejoin="round"/>
<path d="M1010.47 271.935C1010.47 264.248 1015.56 258.016 1021.85 258.016C1028.13 258.016 1033.22 264.248 1033.22 271.935" stroke="#1E1E1E" stroke-width="3" stroke-miterlimit="10" stroke-linejoin="round"/>
<path d="M965.029 271.935C965.029 264.248 970.122 258.016 976.404 258.016C982.686 258.016 987.779 264.248 987.779 271.935" stroke="#1E1E1E" stroke-width="3" stroke-miterlimit="10" stroke-linejoin="round"/>
<path d="M987.776 271.935C987.776 264.248 992.868 258.016 999.151 258.016C1005.43 258.016 1010.53 264.248 1010.53 271.935" stroke="#1E1E1E" stroke-width="3" stroke-miterlimit="10" stroke-linejoin="round"/>
<path d="M942.28 271.935C942.28 264.248 947.373 258.016 953.655 258.016C959.937 258.016 965.03 264.248 965.03 271.935" stroke="#1E1E1E" stroke-width="3" stroke-miterlimit="10" stroke-linejoin="round"/>
<path d="M1055.97 288.854C1055.97 281.167 1061.06 274.935 1067.34 274.935C1073.63 274.935 1078.72 281.167 1078.72 288.854" stroke="#1E1E1E" stroke-width="3" stroke-miterlimit="10" stroke-linejoin="round"/>
<path d="M1033.22 288.854C1033.22 281.167 1038.31 274.935 1044.6 274.935C1050.88 274.935 1055.97 281.167 1055.97 288.854" stroke="#1E1E1E" stroke-width="3" stroke-miterlimit="10" stroke-linejoin="round"/>
<path d="M1010.47 288.854C1010.47 281.167 1015.57 274.935 1021.85 274.935C1028.13 274.935 1033.22 281.167 1033.22 288.854" stroke="#1E1E1E" stroke-width="3" stroke-miterlimit="10" stroke-linejoin="round"/>
<path d="M965.031 288.854C965.031 281.167 970.123 274.935 976.405 274.935C982.688 274.935 987.78 281.167 987.78 288.854" stroke="#1E1E1E" stroke-width="3" stroke-miterlimit="10" stroke-linejoin="round"/>
<path d="M987.777 288.854C987.777 281.167 992.87 274.935 999.152 274.935C1005.43 274.935 1010.53 281.167 1010.53 288.854" stroke="#1E1E1E" stroke-width="3" stroke-miterlimit="10" stroke-linejoin="round"/>
<path d="M942.282 288.854C942.282 281.167 947.374 274.935 953.656 274.935C959.939 274.935 965.031 281.167 965.031 288.854" stroke="#1E1E1E" stroke-width="3" stroke-miterlimit="10" stroke-linejoin="round"/>
<path d="M1055.97 305.774C1055.97 298.087 1061.06 291.854 1067.34 291.854C1073.63 291.854 1078.72 298.087 1078.72 305.774" stroke="#1E1E1E" stroke-width="3" stroke-miterlimit="10" stroke-linejoin="round"/>
<path d="M1033.22 305.774C1033.22 298.087 1038.31 291.854 1044.6 291.854C1050.88 291.854 1055.97 298.087 1055.97 305.774" stroke="#1E1E1E" stroke-width="3" stroke-miterlimit="10" stroke-linejoin="round"/>
<path d="M1010.47 305.774C1010.47 298.087 1015.56 291.854 1021.85 291.854C1028.13 291.854 1033.22 298.087 1033.22 305.774" stroke="#1E1E1E" stroke-width="3" stroke-miterlimit="10" stroke-linejoin="round"/>
<path d="M965.029 305.774C965.029 298.087 970.122 291.854 976.404 291.854C982.686 291.854 987.779 298.087 987.779 305.774" stroke="#1E1E1E" stroke-width="3" stroke-miterlimit="10" stroke-linejoin="round"/>
<path d="M987.776 305.774C987.776 298.087 992.868 291.854 999.151 291.854C1005.43 291.854 1010.53 298.087 1010.53 305.774" stroke="#1E1E1E" stroke-width="3" stroke-miterlimit="10" stroke-linejoin="round"/>
<path d="M942.28 305.774C942.28 298.087 947.373 291.854 953.655 291.854C959.937 291.854 965.03 298.087 965.03 305.774" stroke="#1E1E1E" stroke-width="3" stroke-miterlimit="10" stroke-linejoin="round"/>
</g>
<path d="M1004 460.5H1002.5V459V352.32V351.587L1003.08 351.136L1017.6 339.817L1018.01 339.5H1018.52H1336.89H1338.39V341V450.47V451.392L1337.56 451.808L1320.68 460.339L1320.36 460.5H1320.01H1004Z" fill="#F9AB00" stroke="black" stroke-width="3"/>
<rect x="-1.5" y="1.5" width="319.4" height="110.845" transform="matrix(1 0 0 -1 1020.3 452.034)" fill="white" stroke="black" stroke-width="3"/>
<path d="M1065.18 362.663L1037.43 382.624C1031.61 386.807 1030.28 394.916 1034.46 400.737L1034.48 400.758C1038.66 406.578 1046.76 407.906 1052.57 403.724L1080.33 383.762C1086.15 379.58 1087.47 371.471 1083.29 365.65L1083.28 365.629C1079.1 359.808 1071 358.48 1065.18 362.663Z" fill="#EA4335" stroke="#1E1E1E" stroke-width="2" stroke-miterlimit="10"/>
<path d="M1034.48 385.593L1034.46 385.614C1030.29 391.435 1031.61 399.544 1037.43 403.727L1065.18 423.688C1071 427.871 1079.1 426.543 1083.28 420.722L1083.3 420.701C1087.48 414.88 1086.15 406.771 1080.33 402.589L1052.58 382.627C1046.76 378.445 1038.66 379.773 1034.48 385.593Z" fill="#4285F4" stroke="#1E1E1E" stroke-width="2" stroke-miterlimit="10"/>
<path d="M1132.19 382.61L1104.43 402.572C1098.62 406.754 1097.29 414.864 1101.47 420.684L1101.49 420.705C1105.66 426.526 1113.77 427.854 1119.58 423.671L1147.34 403.71C1153.15 399.527 1154.48 391.418 1150.3 385.598L1150.29 385.576C1146.11 379.756 1138.01 378.428 1132.19 382.61Z" fill="#F9AB00" stroke="#1E1E1E" stroke-width="2" stroke-miterlimit="10"/>
<path d="M1101.48 365.637L1101.47 365.658C1097.29 371.479 1098.62 379.588 1104.43 383.771L1132.19 403.732C1138 407.915 1146.11 406.587 1150.28 400.766L1150.3 400.745C1154.48 394.924 1153.15 386.815 1147.34 382.633L1119.58 362.671C1113.76 358.489 1105.66 359.816 1101.48 365.637Z" fill="#34A853" stroke="#1E1E1E" stroke-width="2" stroke-miterlimit="10"/>
<path d="M1320.35 391.879C1319.29 391.879 1318.3 391.724 1317.41 391.416C1316.51 391.08 1315.78 390.631 1315.22 390.071C1313.9 388.81 1313.25 387.016 1313.25 384.689V374.81H1309.5V370.101H1313.25V364.047H1318.75V370.101H1324.01V374.81H1318.75V383.68C1318.75 384.774 1318.99 385.558 1319.47 386.035C1319.86 386.483 1320.53 386.707 1321.49 386.707C1322.02 386.707 1322.45 386.637 1322.79 386.497C1323.15 386.357 1323.62 386.119 1324.18 385.783V391.164C1322.97 391.64 1321.7 391.879 1320.35 391.879Z" fill="#1E1E1E"/>
<path d="M1298.15 392.215C1295.55 392.215 1293.43 391.682 1291.8 390.617C1290.21 389.552 1289.09 388.165 1288.44 386.455L1293.36 384.311C1293.81 385.32 1294.44 386.091 1295.25 386.623C1296.09 387.128 1297.06 387.38 1298.15 387.38C1299.16 387.38 1300 387.226 1300.67 386.918C1301.35 386.581 1301.68 386.049 1301.68 385.32C1301.68 384.619 1301.38 384.101 1300.76 383.765C1300.14 383.4 1299.22 383.078 1297.98 382.798L1295.46 382.251C1293.72 381.831 1292.28 381.074 1291.13 379.981C1289.98 378.86 1289.41 377.472 1289.41 375.819C1289.41 374.585 1289.77 373.478 1290.5 372.497C1291.26 371.516 1292.27 370.76 1293.53 370.227C1294.82 369.695 1296.23 369.428 1297.77 369.428C1302.2 369.428 1305.16 370.984 1306.64 374.095L1301.94 376.155C1301.09 374.642 1299.75 373.885 1297.9 373.885C1296.95 373.885 1296.19 374.067 1295.63 374.431C1295.07 374.768 1294.79 375.202 1294.79 375.735C1294.79 376.744 1295.74 377.5 1297.65 378.005L1300.8 378.762C1302.93 379.294 1304.53 380.107 1305.59 381.2C1306.69 382.293 1307.23 383.638 1307.23 385.236C1307.23 386.609 1306.83 387.829 1306.01 388.894C1305.23 389.931 1304.14 390.743 1302.73 391.332C1301.36 391.921 1299.83 392.215 1298.15 392.215Z" fill="#1E1E1E"/>
<path d="M1275.16 392.215C1273.03 392.215 1271.11 391.724 1269.4 390.743C1267.69 389.762 1266.35 388.417 1265.37 386.707C1264.41 384.97 1263.94 383.022 1263.94 380.864C1263.94 378.818 1264.41 376.926 1265.37 375.188C1266.32 373.422 1267.64 372.021 1269.32 370.984C1271 369.947 1272.88 369.428 1274.95 369.428C1277.17 369.428 1279.07 369.905 1280.67 370.858C1282.27 371.811 1283.47 373.114 1284.29 374.768C1285.13 376.421 1285.55 378.257 1285.55 380.275C1285.55 380.92 1285.51 381.536 1285.42 382.125H1269.32C1269.6 383.835 1270.27 385.138 1271.34 386.035C1272.43 386.904 1273.73 387.338 1275.25 387.338C1276.51 387.338 1277.59 387.072 1278.48 386.539C1279.41 385.979 1280.14 385.236 1280.67 384.311L1285.13 386.497C1282.94 390.309 1279.62 392.215 1275.16 392.215ZM1280.25 378.215C1280.19 377.542 1279.94 376.884 1279.49 376.239C1279.07 375.566 1278.47 375.02 1277.69 374.599C1276.93 374.151 1276.03 373.927 1275 373.927C1273.68 373.927 1272.54 374.319 1271.59 375.104C1270.67 375.861 1269.99 376.898 1269.57 378.215H1280.25Z" fill="#1E1E1E"/>
<path d="M1243.05 361.441H1262.13V366.822H1248.72V374.137H1260.79V379.519H1248.72V391.543H1243.05V361.441Z" fill="#1E1E1E"/>
<path d="M1215.59 370.101H1221.85L1227.27 384.059H1227.61L1233.12 370.101H1239.3L1230.13 391.543H1224.67L1215.59 370.101Z" fill="#1E1E1E"/>
<path d="M1203.77 392.215C1201.64 392.215 1199.72 391.724 1198.01 390.743C1196.3 389.762 1194.95 388.417 1193.97 386.707C1193.02 384.97 1192.54 383.022 1192.54 380.864C1192.54 378.818 1193.02 376.926 1193.97 375.188C1194.92 373.422 1196.24 372.021 1197.92 370.984C1199.61 369.947 1201.48 369.428 1203.56 369.428C1205.77 369.428 1207.68 369.905 1209.28 370.858C1210.87 371.811 1212.08 373.114 1212.89 374.768C1213.73 376.421 1214.15 378.257 1214.15 380.275C1214.15 380.92 1214.11 381.536 1214.03 382.125H1197.92C1198.2 383.835 1198.88 385.138 1199.94 386.035C1201.03 386.904 1202.34 387.338 1203.85 387.338C1205.11 387.338 1206.19 387.072 1207.09 386.539C1208.01 385.979 1208.74 385.236 1209.28 384.311L1213.73 386.497C1211.55 390.309 1208.22 392.215 1203.77 392.215ZM1208.85 378.215C1208.8 377.542 1208.55 376.884 1208.1 376.239C1207.68 375.566 1207.07 375.02 1206.29 374.599C1205.53 374.151 1204.64 373.927 1203.6 373.927C1202.28 373.927 1201.15 374.319 1200.19 375.104C1199.27 375.861 1198.6 376.898 1198.18 378.215H1208.85Z" fill="#1E1E1E"/>
<path d="M1164.05 361.441H1174.23C1177.37 361.441 1180.1 362.071 1182.43 363.333C1184.75 364.594 1186.55 366.36 1187.81 368.63C1189.07 370.9 1189.7 373.521 1189.7 376.492C1189.7 379.463 1189.07 382.083 1187.81 384.353C1186.55 386.624 1184.75 388.389 1182.43 389.651C1180.1 390.912 1177.37 391.543 1174.23 391.543H1164.05V361.441ZM1173.98 386.161C1177.23 386.161 1179.71 385.306 1181.42 383.597C1183.13 381.859 1183.98 379.491 1183.98 376.492C1183.98 373.493 1183.13 371.138 1181.42 369.429C1179.71 367.691 1177.23 366.822 1173.98 366.822H1169.73V386.161H1173.98Z" fill="#1E1E1E"/>
<rect x="1267.04" y="404.237" width="58.7212" height="21.3543" rx="10.6772" fill="white" stroke="#1E1E1E" stroke-width="2"/>
<rect x="1162.42" y="404.237" width="100.759" height="21.3543" rx="10.6772" fill="white" stroke="#1E1E1E" stroke-width="2"/>
<path fill-rule="evenodd" clip-rule="evenodd" d="M1217.84 411.189C1217.54 411.189 1217.28 411.086 1217.07 410.882C1216.86 410.668 1216.76 410.411 1216.76 410.109C1216.76 409.808 1216.86 409.555 1217.07 409.351C1217.28 409.137 1217.54 409.03 1217.84 409.03C1218.14 409.03 1218.4 409.137 1218.6 409.351C1218.81 409.555 1218.92 409.808 1218.92 410.109C1218.92 410.411 1218.81 410.668 1218.6 410.882C1218.4 411.086 1218.14 411.189 1217.84 411.189ZM1218.64 412.414V419.647H1217.04V412.414H1218.64ZM1220.71 410.882C1220.93 411.086 1221.19 411.189 1221.49 411.189C1221.79 411.189 1222.04 411.086 1222.25 410.882C1222.46 410.668 1222.57 410.411 1222.57 410.109C1222.57 409.808 1222.46 409.555 1222.25 409.351C1222.04 409.137 1221.79 409.03 1221.49 409.03C1221.19 409.03 1220.93 409.137 1220.71 409.351C1220.51 409.555 1220.41 409.808 1220.41 410.109C1220.41 410.411 1220.51 410.668 1220.71 410.882ZM1219.26 422.841C1219.5 422.909 1219.76 422.943 1220.04 422.943C1220.72 422.943 1221.27 422.744 1221.68 422.345C1222.09 421.946 1222.29 421.334 1222.29 420.508V412.414H1220.69V420.478C1220.69 420.809 1220.63 421.057 1220.51 421.222C1220.39 421.387 1220.2 421.47 1219.93 421.47C1219.69 421.47 1219.47 421.412 1219.26 421.295V422.841ZM1225.05 419.574C1225.47 419.778 1225.93 419.88 1226.45 419.88C1226.94 419.88 1227.37 419.778 1227.73 419.574C1228.09 419.36 1228.39 419.088 1228.62 418.757H1228.71V419.647H1230.27V415.214C1230.27 414.251 1229.98 413.507 1229.39 412.982C1228.82 412.448 1228 412.18 1226.94 412.18C1226.3 412.18 1225.72 412.302 1225.21 412.545C1224.7 412.788 1224.28 413.138 1223.94 413.595L1225.16 414.441C1225.61 413.838 1226.2 413.537 1226.94 413.537C1227.43 413.537 1227.84 413.682 1228.18 413.974C1228.53 414.256 1228.71 414.616 1228.71 415.053V415.359C1228.16 415.097 1227.51 414.966 1226.74 414.966C1225.86 414.966 1225.14 415.184 1224.57 415.622C1224 416.06 1223.72 416.657 1223.72 417.416C1223.72 417.892 1223.84 418.32 1224.07 418.699C1224.31 419.069 1224.64 419.36 1225.05 419.574ZM1227.7 418.291C1227.4 418.466 1227.07 418.553 1226.71 418.553C1226.34 418.553 1226.02 418.451 1225.75 418.247C1225.49 418.033 1225.35 417.761 1225.35 417.43C1225.35 417.071 1225.5 416.774 1225.81 416.541C1226.11 416.307 1226.53 416.191 1227.06 416.191C1227.64 416.191 1228.19 416.332 1228.71 416.614C1228.71 416.954 1228.62 417.275 1228.43 417.576C1228.26 417.868 1228.01 418.106 1227.7 418.291ZM1212.7 412.414H1211.18V419.647H1212.79V415.856C1212.79 415.272 1212.96 414.781 1213.31 414.383C1213.67 413.974 1214.11 413.77 1214.64 413.77C1215.05 413.77 1215.42 413.853 1215.75 414.018V412.341C1215.52 412.244 1215.24 412.195 1214.89 412.195C1214.46 412.195 1214.04 412.321 1213.63 412.574C1213.23 412.817 1212.94 413.123 1212.79 413.493H1212.7V412.414ZM1205.67 419.88C1205.15 419.88 1204.69 419.778 1204.27 419.574C1203.86 419.36 1203.53 419.069 1203.29 418.699C1203.06 418.32 1202.94 417.892 1202.94 417.416C1202.94 416.657 1203.22 416.06 1203.79 415.622C1204.36 415.184 1205.09 414.966 1205.96 414.966C1206.73 414.966 1207.39 415.097 1207.93 415.359V415.053C1207.93 414.616 1207.75 414.256 1207.4 413.974C1207.06 413.682 1206.65 413.537 1206.16 413.537C1205.43 413.537 1204.83 413.838 1204.39 414.441L1203.16 413.595C1203.5 413.138 1203.92 412.788 1204.43 412.545C1204.94 412.302 1205.52 412.18 1206.16 412.18C1207.22 412.18 1208.04 412.448 1208.61 412.982C1209.2 413.507 1209.49 414.251 1209.49 415.214V419.647H1207.93V418.757H1207.84C1207.61 419.088 1207.31 419.36 1206.95 419.574C1206.59 419.778 1206.16 419.88 1205.67 419.88ZM1205.93 418.553C1206.29 418.553 1206.62 418.466 1206.92 418.291C1207.23 418.106 1207.48 417.868 1207.65 417.576C1207.84 417.275 1207.93 416.954 1207.93 416.614C1207.41 416.332 1206.86 416.191 1206.28 416.191C1205.75 416.191 1205.33 416.307 1205.03 416.541C1204.73 416.774 1204.58 417.071 1204.58 417.43C1204.58 417.761 1204.71 418.033 1204.97 418.247C1205.24 418.451 1205.56 418.553 1205.93 418.553ZM1195.7 410.766H1198.62V419.647H1200.25V410.766H1203.17V409.205H1195.7V410.766Z" fill="#1E1E1E"/>
<path fill-rule="evenodd" clip-rule="evenodd" d="M1292.13 419.773C1291.33 419.773 1290.62 419.548 1290 419.099C1289.39 418.639 1288.92 418.022 1288.58 417.247C1288.26 416.463 1288.1 415.592 1288.1 414.635C1288.1 413.669 1288.26 412.798 1288.58 412.023C1288.92 411.239 1289.39 410.621 1290 410.172C1290.62 409.722 1291.33 409.497 1292.13 409.497C1292.93 409.497 1293.64 409.722 1294.24 410.172C1294.85 410.621 1295.32 411.239 1295.65 412.023C1295.98 412.798 1296.15 413.669 1296.15 414.635C1296.15 415.592 1295.98 416.463 1295.65 417.247C1295.32 418.022 1294.85 418.639 1294.24 419.099C1293.63 419.548 1292.92 419.773 1292.13 419.773ZM1292.13 418.281C1292.62 418.281 1293.04 418.123 1293.41 417.807C1293.78 417.482 1294.06 417.046 1294.25 416.501C1294.45 415.946 1294.55 415.324 1294.55 414.635C1294.55 413.946 1294.45 413.324 1294.25 412.769C1294.06 412.214 1293.78 411.779 1293.41 411.463C1293.04 411.148 1292.62 410.99 1292.13 410.99C1291.63 410.99 1291.2 411.148 1290.84 411.463C1290.47 411.779 1290.19 412.214 1289.99 412.769C1289.8 413.324 1289.7 413.946 1289.7 414.635C1289.7 415.324 1289.8 415.946 1289.99 416.501C1290.19 417.046 1290.47 417.482 1290.84 417.807C1291.2 418.123 1291.63 418.281 1292.13 418.281ZM1299.24 416.243L1297.43 418.051V419.543H1303.82V418.108H1299.54L1299.51 418.051L1300.69 416.874C1301.46 416.099 1301.95 415.621 1302.14 415.439C1302.59 414.989 1302.95 414.506 1303.24 413.989C1303.54 413.463 1303.69 412.918 1303.69 412.353C1303.69 411.827 1303.55 411.349 1303.29 410.918C1303.03 410.478 1302.65 410.133 1302.17 409.885C1301.69 409.626 1301.14 409.497 1300.52 409.497C1299.94 409.497 1299.43 409.612 1298.99 409.842C1298.55 410.071 1298.2 410.354 1297.93 410.688C1297.67 411.023 1297.5 411.363 1297.4 411.707L1298.84 412.296C1298.92 411.951 1299.1 411.65 1299.38 411.392C1299.67 411.124 1300.04 410.99 1300.49 410.99C1300.97 410.99 1301.36 411.129 1301.65 411.406C1301.94 411.683 1302.08 412.009 1302.08 412.382C1302.08 412.755 1302 413.076 1301.85 413.343C1301.71 413.611 1301.43 413.961 1301.03 414.391C1300.74 414.716 1300.14 415.334 1299.24 416.243ZM1305.19 417.592H1309.79V419.543H1311.36V417.592H1312.61V416.128H1311.36V409.727H1309.66L1305.19 416.357V417.592ZM1309.79 412.066V416.128H1306.96L1309.7 412.066H1309.79ZM1282.08 416.243L1280.27 418.051V419.544H1286.66V418.108H1282.38L1282.36 418.051L1283.53 416.874C1284.31 416.099 1284.79 415.621 1284.98 415.439C1285.43 414.989 1285.8 414.506 1286.09 413.989C1286.38 413.463 1286.53 412.918 1286.53 412.353C1286.53 411.827 1286.4 411.349 1286.13 410.918C1285.87 410.478 1285.5 410.134 1285.01 409.885C1284.53 409.627 1283.98 409.497 1283.36 409.497C1282.79 409.497 1282.28 409.612 1281.84 409.842C1281.4 410.071 1281.04 410.354 1280.78 410.689C1280.52 411.023 1280.34 411.363 1280.25 411.708L1281.68 412.296C1281.77 411.952 1281.95 411.65 1282.23 411.392C1282.51 411.124 1282.88 410.99 1283.33 410.99C1283.82 410.99 1284.21 411.129 1284.49 411.406C1284.78 411.684 1284.92 412.009 1284.92 412.382C1284.92 412.755 1284.85 413.076 1284.69 413.344C1284.55 413.612 1284.28 413.961 1283.88 414.391C1283.58 414.717 1282.98 415.334 1282.08 416.243Z" fill="#1E1E1E"/>
<g clip-path="url(#clip1_1141_4305)">
<path d="M1232.9 806.995C1219.36 806.948 1205.83 806.974 1192.29 806.979C1190.84 806.979 1189.38 806.979 1187.86 806.624C1191.81 806.76 1194.81 804.051 1198.43 803.344C1205.21 802.018 1211.63 799.215 1218.45 798.123C1223.21 797.36 1226.13 794.575 1228.27 790.565C1228.53 790.09 1228.67 789.47 1229.06 789.17C1232.08 786.837 1233.02 783.231 1234.69 780.073C1235.99 777.61 1237.86 775.552 1239.39 773.262C1242.57 768.512 1245.31 763.391 1244.11 757.473C1243.4 753.988 1242 750.571 1240.35 747.318C1239.75 746.132 1238.65 746.991 1238.15 746.469C1237.3 740.746 1235.95 735.312 1233.44 730.27C1231.48 726.346 1230.77 722.549 1232.39 718.275C1233.68 714.901 1234.32 711.332 1232.96 707.702C1232.43 706.291 1231.92 704.877 1230.7 703.967C1225.37 699.96 1220.32 695.522 1214.15 692.77C1213.81 692.618 1213.41 692.597 1212.98 692.5C1211.58 694.056 1211.74 696.068 1212.31 697.494C1213.32 700.04 1211.88 702.23 1211.97 704.603C1212.02 706.037 1210.47 706.659 1209.32 706.335C1208.01 705.966 1206.58 706.193 1205.4 705.622C1202.06 704.006 1198.51 703.203 1194.9 702.709C1191.96 702.307 1189.77 700.519 1187.42 699.03C1186.17 698.242 1186.08 697.098 1187.02 695.928C1188.96 693.5 1191.4 692.149 1194.59 692.071C1199.03 691.961 1198.77 691.802 1200.18 687.508C1201.22 684.357 1200.1 681.016 1201.52 677.988C1201.65 677.717 1201.44 677.147 1201.21 676.867C1199.24 674.488 1198.71 671.168 1196.17 669.155C1195.67 668.763 1195.32 668.102 1195.07 667.495C1193.15 662.782 1190.13 658.655 1188.03 654.036C1186.81 651.345 1186.53 651.305 1183.85 652.381C1183.21 652.635 1182.72 652.986 1182.19 653.41C1181.02 654.342 1179.59 654.777 1178.12 654.871C1175.98 655.008 1174.24 654.055 1173.78 652.061C1172.82 647.948 1170.16 644.901 1167.42 642.109C1163.91 638.528 1160.95 634.688 1158.78 630.179C1157.45 627.4 1156.02 624.67 1154.65 621.947C1150.87 623.274 1150.71 623.403 1151.15 626.697C1151.26 627.514 1151.03 628.32 1151.21 629.035C1151.55 630.452 1152 632.038 1153.83 632.166C1155.15 632.258 1156.06 632.89 1156.96 633.754C1158.18 634.929 1160.36 635.323 1160.5 637.339C1160.69 639.986 1161.21 642.741 1159.79 645.255C1158.49 647.552 1157.84 650.236 1155.32 651.778C1152.44 653.538 1149.74 652.959 1148.71 649.725C1148.01 647.513 1147.19 645.448 1145.85 643.573C1145.63 643.258 1145.42 642.847 1145.41 642.473C1145.29 638.908 1143.35 636.137 1141.44 633.386C1139.81 631.029 1138.38 628.647 1138.78 625.826C1137.78 624.491 1136.26 625.407 1135.22 624.439C1135.16 624.173 1134.92 623.738 1135.03 623.436C1135.45 622.308 1135.85 621.131 1136.51 620.142C1137.86 618.107 1139.25 616.133 1138.93 613.501C1141.5 610.048 1140.22 606.055 1140.48 602.28C1140.57 600.822 1140.34 599.474 1142.28 598.735C1143.63 598.22 1144.02 596.37 1145.49 595.406C1147.16 594.307 1148.71 593.862 1150.31 594.43C1153.82 595.68 1157.21 595.007 1160.53 594.067C1163.68 593.178 1165.79 590.478 1168.49 588.767C1169.26 588.274 1169.87 587.526 1170.63 586.988C1173.83 584.701 1177.5 585.016 1180.37 587.801C1180.94 588.362 1181.47 588.977 1182.01 589.574C1182.79 590.437 1184.11 590.791 1185.96 590.636C1186.46 587.345 1188.89 584.679 1189.37 581.361C1189.64 579.473 1192.22 579.906 1192.11 577.729C1192.04 576.37 1192.65 574.841 1193.57 573.634C1194.05 573.004 1194.58 572.417 1195.01 571.905C1194.61 568.785 1192.91 566.294 1192.5 563.282C1192.04 559.91 1192.06 556.705 1192.46 553.34C1192.94 549.19 1193.85 545.181 1194.98 541.194C1195.21 540.397 1195.43 539.467 1194.9 538.856C1193.38 537.086 1193.19 535.378 1194.7 533.548C1193.6 531.139 1196.52 530.937 1196.97 529.381C1198.97 529.591 1200.25 527.569 1202.43 527.805C1205.44 528.133 1208.52 527.887 1211.4 527.887C1212.43 526.33 1211.83 524.867 1212.3 523.555C1213.25 524.175 1213.96 524.647 1215.21 524.409C1219 523.69 1221.61 526.307 1224.41 528.222C1225.37 528.879 1225.07 530.203 1225.42 531.191C1226.1 533.164 1226.9 534.862 1229.03 535.632C1230.69 534.858 1231.19 533.354 1231.69 531.592C1232.57 528.467 1233.95 527.831 1237.56 528.339C1238.51 534.257 1237.96 539.811 1233.26 544.18C1231.15 546.139 1230.9 548.295 1231.95 550.729C1232.61 552.238 1233.32 553.609 1232.38 555.297C1232.1 555.796 1232.15 556.726 1232.43 557.246C1233.26 558.789 1232.81 560.117 1232.03 561.427C1231.21 562.796 1231.4 564.294 1231.41 565.761C1231.44 569.715 1231.02 573.514 1228.46 576.789C1227.72 577.732 1227.35 578.916 1227.37 580.192C1227.4 581.934 1227.38 583.64 1226.75 585.354C1226.14 586.977 1227.24 588.477 1227.8 589.954C1228.11 590.76 1228.98 590.947 1229.84 590.937C1230.83 590.926 1231.24 590.354 1231.45 589.48C1231.65 588.701 1232.01 587.961 1232.16 587.178C1232.64 584.635 1234.24 583.645 1236.63 582.772C1240.82 581.244 1245.58 580.989 1249.02 577.616C1249.69 576.957 1250.4 576.37 1250.63 575.374C1251.14 573.214 1250.59 572.017 1248.45 570.851C1246.12 569.578 1243.71 568.53 1242.22 566.034C1239.27 561.088 1239.68 558.849 1243 554.727C1247.1 549.629 1255.4 547.533 1261.61 549.758C1264.64 550.843 1267.61 552.125 1269.74 554.723C1272.36 557.914 1273.68 561.7 1273.97 565.729C1274.22 569.259 1272.66 571.127 1269.2 571.463C1267.18 571.66 1265.89 573.084 1264.1 573.535C1264.77 575.763 1266.19 576.668 1268.54 576.458C1270.53 576.28 1272.58 576.208 1274.56 576.467C1277.79 576.892 1280.56 575.563 1283.25 574.266C1284.34 573.739 1285.28 573.128 1286.51 573.177C1287.49 573.217 1288.31 572.868 1289.09 572.253C1289.71 571.759 1290.42 571.285 1291.17 571.055C1296.77 569.334 1299.87 565.262 1301.96 560.009C1303.19 556.893 1304.84 553.934 1306.39 550.953C1307.76 548.331 1308 545.77 1307.06 542.883C1305.92 539.335 1304.87 535.736 1304.53 531.961C1304.33 529.761 1302.93 527.916 1301.46 526.462C1298.52 523.55 1295.3 520.93 1292.14 518.25C1290.39 516.769 1288.32 517.256 1286.39 517.714C1285.36 517.959 1284.57 518.087 1284 517.058C1283.44 516.065 1283.89 515.288 1284.53 514.505C1287.05 511.378 1290.44 511.162 1293.55 513.949C1297.82 517.771 1302.55 521.117 1305.38 526.144C1307.13 525.868 1307.86 524.592 1309.36 524.576C1313.47 524.533 1314.64 525.302 1315 529.493C1315.19 531.754 1315.52 533.826 1316.35 536.038C1317.23 538.369 1317.28 541.374 1315.91 543.894C1314.74 546.058 1314.82 548.37 1315.23 550.593C1315.93 554.367 1315.44 558.073 1314.34 561.555C1311.64 570.112 1306.63 577.129 1299.17 582.233C1296.76 583.89 1294.46 585.704 1291.77 586.996C1289.38 588.146 1288.18 590.274 1287.62 593.029C1286.86 596.772 1286.99 600.501 1286.88 604.251C1286.8 607.189 1287.34 610.176 1286.21 613.046C1286.03 613.516 1286 614.166 1286.16 614.64C1287.3 617.917 1286.7 621.308 1286.93 624.642C1287.07 626.634 1287.42 628.624 1287.84 630.58C1288.93 635.668 1290.18 640.722 1291.24 645.816C1292.92 653.904 1293.42 661.978 1290.98 670.056C1289.87 673.739 1289.47 674.077 1286.06 672.681C1285.2 672.328 1284.32 672.027 1283.43 671.733C1283.09 671.618 1282.71 671.285 1282.17 671.967C1283.85 673.649 1284.42 676.216 1286.58 677.705C1287.19 678.126 1287.62 678.947 1287.92 679.673C1289.96 684.625 1292.24 689.494 1293.35 694.782C1293.71 696.532 1294.97 697.913 1295.38 699.589C1296.4 703.693 1297.32 707.826 1296.73 712.131C1296.49 713.869 1297.25 715.388 1298.75 716.205C1300.28 717.032 1301.09 718.343 1301.95 719.71C1303.87 722.771 1305.92 725.755 1307.75 728.874C1309.39 731.683 1310.07 734.826 1310.22 738.074C1310.29 739.395 1310.08 740.711 1311.31 741.771C1312.2 742.539 1311.89 743.813 1311.81 744.852C1311.59 747.501 1312.18 749.9 1313.52 752.178C1314.41 753.679 1315.14 755.229 1315.14 757.094C1315.14 758.125 1315.54 759.224 1316.01 760.173C1317.31 762.851 1318.08 765.65 1318.61 768.585C1318.89 770.124 1319.07 771.774 1319.96 773.194C1321.36 775.447 1321.64 777.752 1321.16 780.495C1320.74 782.889 1321.24 785.561 1321.84 787.988C1322.35 790.107 1321.98 792.455 1323.69 794.394C1324.37 795.163 1323.97 796.997 1323.88 798.334C1323.73 800.523 1324.24 802.588 1324.69 804.691C1324.93 805.807 1325.65 806.191 1327 806.349C1325.42 807.247 1324.21 806.952 1323.07 806.953C1298.54 806.971 1274.01 806.964 1249.49 806.958C1247.75 806.958 1234.28 806.998 1232.9 806.994L1232.9 806.995ZM1311.46 802.84C1310.6 801.163 1309.95 799.716 1309.15 798.352C1308.21 796.742 1308.8 794.922 1308.26 793.232C1305.77 785.46 1303.52 777.611 1300.96 769.866C1299.83 766.424 1299.47 762.796 1298.21 759.415C1295.25 751.463 1292.9 743.409 1293.28 734.776C1293.34 733.532 1293.76 732.089 1292.24 730.738C1290.09 732.241 1287.92 733.708 1285.82 735.258C1285.25 735.675 1285.3 736.46 1285.3 737.137C1285.3 745.31 1284.8 753.505 1287.2 761.515C1288.27 765.093 1287.86 765.049 1285.03 767.55C1282.65 769.658 1279.55 770.725 1277.63 773.56C1275.16 777.235 1272.77 780.867 1271.16 785.057C1269.73 788.811 1269.07 792.814 1267.26 796.446C1266.51 797.956 1268.08 799.74 1269.79 799.302C1271.4 798.888 1272.9 798.874 1274.52 799.121C1278.06 799.659 1281.61 800.25 1285.17 800.43C1288.63 800.604 1292.08 801.123 1295.47 801.565C1298.11 801.908 1300.84 801.583 1303.38 802.395C1306.03 803.243 1308.64 802.817 1311.46 802.84L1311.46 802.84ZM1251.19 797.018C1250.73 794.771 1250.9 793.576 1252.43 793.319C1255.73 792.764 1256.62 789.884 1256.95 787.507C1257.33 784.739 1258.52 782.733 1260.21 780.844C1264.27 776.292 1267.28 771.075 1269.64 765.498C1271.8 760.382 1272.09 755.179 1269.45 750.026C1267.99 747.164 1266.44 744.334 1265.44 741.243C1265.11 740.23 1264.6 739.109 1263.3 739.139C1261.71 739.176 1261.64 740.636 1261.24 741.726C1261.15 741.97 1261.2 742.263 1261.14 742.524C1260.15 747.085 1259.89 751.762 1258.87 756.336C1258.37 758.585 1258.25 761.185 1259.63 763.414C1261 765.638 1260.19 767.553 1258.75 769.315C1257.56 770.759 1256.24 772.062 1255.1 773.578C1253.55 775.652 1250.59 776.415 1249.68 779.299C1249.52 779.779 1248.14 780.054 1247.56 780.891C1245.65 783.618 1243.59 786.235 1241.71 788.984C1240.68 790.507 1239.65 792.105 1239.48 794.301C1242.93 796.636 1247.07 795.068 1251.19 797.018H1251.19ZM1171.52 619.323C1172.17 614.814 1172.59 613.759 1174.91 610.2C1175.56 609.192 1176.08 608.089 1176.74 607.089C1177.94 605.293 1177.3 603.72 1176.14 602.301C1174.93 600.812 1172.86 600.32 1171.04 601.166C1168.25 602.459 1165.44 603.727 1162.95 605.591C1161.19 606.914 1161.09 607.49 1162.25 609.188C1164.76 612.866 1168.04 615.799 1171.52 619.324L1171.52 619.323ZM1195.17 552.689C1195.68 558.059 1193.85 563.547 1197.6 568.305C1199.93 566.944 1200.8 564.71 1202.15 562.936C1203.01 561.811 1202.95 560.263 1202.17 558.777C1201.36 557.255 1200.24 555.933 1199.71 554.198C1199.06 552.07 1198.84 552.138 1195.17 552.688L1195.17 552.689Z" fill="white" stroke="black" stroke-width="4"/>
</g>
<path d="M900.822 685.859H899.05L897.869 686.113L896.772 686.534L895.591 687.294L894.578 688.222L893.988 689.066L893.313 690.331L891.794 693.791L890.528 696.575L889.431 699.106L888.503 701.131L887.153 704.169L886.647 705.181L885.719 705.013L884.706 704.928H883.694L882.175 705.097L880.234 705.603L878.716 706.278L877.45 707.038L876.606 707.713L875.594 708.641L874.75 709.653L873.991 710.834L873.231 712.438L872.809 713.703L872.556 714.969L872.472 715.728V717.5L872.725 719.188L873.231 720.875L874.075 722.647L874.75 723.659L875.763 724.841L876.522 725.6L877.281 726.191L877.028 726.95L875.847 729.566L873.484 734.881L871.966 738.256L871.038 740.366L870.363 741.969L870.025 743.403V745.175L870.363 746.609L870.7 747.453L871.459 748.634L872.388 749.647L873.653 750.491L874.581 750.913L875.847 751.25L876.522 751.334H877.45L878.631 751.166L879.897 750.744L880.825 750.238L881.922 749.394L882.681 748.55L882.85 748.297L894.663 745.766L897.109 745.259L898.881 745.006L899.978 744.922H903.269L905.209 745.091L904.534 746.694L904.197 747.875L904.113 748.55V749.9L904.366 751.166L904.703 752.094L905.294 753.191L906.222 754.288L907.15 755.047L908.753 755.891L910.272 756.566V756.819L907.572 762.894L906.475 765.341L904.113 770.656L903.016 773.103L902.172 775.128L901.919 776.141L901.834 776.9V777.997L902.088 779.347L902.509 780.444L903.1 781.456L903.859 782.3L904.45 782.891L905.631 783.65L906.644 784.072L907.656 784.325L908.331 784.409H909.428L910.863 784.156L911.959 783.734L913.141 782.975L914.153 782.047L914.913 781.034L915.841 779.094L916.769 776.984L917.866 774.538L918.794 772.428L919.891 769.981L921.241 766.944L922.844 763.316L924.025 760.7L924.953 758.591L926.05 756.144L927.063 753.866H927.316L929.425 754.794L930.775 755.384L932.125 755.806L933.728 756.059H935.922L937.525 755.806L938.875 755.384L939.888 754.963L941.153 754.288L942.081 753.613L942.925 752.853L943.938 751.841L944.781 750.659L945.878 748.55L946.975 746.019L948.494 742.644L949.422 740.534L949.928 739.184L950.266 737.75L950.35 737.075V734.544L950.097 733.025L949.506 731.253L948.831 729.903L947.988 728.638L947.228 727.709L946.553 727.119L945.709 726.359L944.359 725.516L943.009 724.841L940.309 723.659L936.934 722.141L934.825 721.213L932.378 720.116L925.544 717.078L923.434 716.066L921.916 715.138L920.481 714.125L919.722 713.534L918.625 712.606L917.528 711.594L916.263 710.244L915.419 709.147L914.491 707.881L913.563 706.363L912.128 703.916L910.863 701.722L909.681 699.697L908.416 697.503L907.066 695.225L906.813 694.803L906.897 693.959L906.981 692.525L906.813 691.344L906.391 690.078L905.884 689.066L905.294 688.306L904.956 687.884L904.028 687.125L903.1 686.534L902.003 686.113L900.822 685.859Z" fill="black"/>
<path d="M904.45 700.119L904.197 700.372L903.1 702.819L901.665 706.025L900.737 708.134L899.64 710.581L896.603 717.416L895.506 719.863L893.144 725.178L891.625 728.553L890.781 730.494L889.684 732.941L885.634 742.053L885.297 742.897L886.14 742.813L895.59 740.788L897.784 740.45L899.64 740.281H903.522L905.969 740.534L908.331 740.956L910.525 741.547L911.537 741.884H911.875L913.056 739.269L913.984 737.159L915.672 733.363L916.853 730.747L917.865 728.469L919.469 724.841L920.903 721.634L921.409 720.453L921.325 720.2L919.722 719.272L918.709 718.597L917.528 717.753L916.178 716.656L914.49 715.138L913.562 714.209L912.972 713.534L912.044 712.438L910.862 710.834L909.934 709.4L908.837 707.544L907.572 705.35L906.728 703.916L905.547 701.891L904.534 700.203L904.45 700.119Z" fill="white"/>
<path d="M925.881 722.309H925.628L924.025 725.853L923.097 727.962L922 730.409L919.638 735.725L918.203 738.931L916.178 743.487V743.825L919.638 745.344L922.844 746.778L929.088 749.562L932.125 750.912L933.559 751.334L934.234 751.419H935.5L936.85 751.166L938.116 750.659L939.044 750.069L939.888 749.309L940.647 748.466L941.322 747.284L943.684 741.969L945.288 738.341L945.625 737.159L945.709 736.569V734.966L945.456 733.784L945.034 732.687L944.528 731.759L943.6 730.662L942.672 729.903L941.744 729.397L938.453 727.878L935.922 726.781L932.969 725.431L931.197 724.672L927.991 723.237L925.881 722.309Z" fill="white"/>
<path d="M900.316 690.5H899.472L898.628 690.838L897.953 691.428L897.447 692.441L896.35 694.888L895.084 697.756L893.566 701.131L892.638 703.241L890.95 707.038L889.516 710.244L887.153 715.559L886.056 718.006L884.791 720.875L883.356 724.081L882.428 726.191L881.669 727.878L880.656 730.156L879.222 733.363L878.209 735.641L876.606 739.269L875.172 742.475L874.666 743.741V744.753L875.003 745.597L875.425 746.103L876.184 746.525L877.113 746.694L878.125 746.441L878.8 745.934L879.306 745.091L880.656 742.053L881.753 739.606L883.356 735.978L885.044 732.181L886.225 729.566L887.153 727.456L888.25 725.009L889.6 721.972L891.203 718.344L892.384 715.728L893.313 713.619L894.494 711.003L895.422 708.894L897.025 705.266L898.206 702.65L899.725 699.191L900.906 696.575L902.003 694.128L902.256 693.453V692.272L901.834 691.428L901.075 690.753L900.316 690.5Z" fill="white"/>
<path d="M918.709 749.9H918.456L916.853 753.528L915.672 756.144L914.744 758.253L913.056 762.05L911.875 764.666L910.947 766.775L909.85 769.222L908.5 772.259L906.897 775.888L906.559 776.647L906.475 777.069V777.744L906.812 778.588L907.403 779.263L908.247 779.684L909.006 779.769L909.766 779.6L910.525 779.094L910.862 778.672L911.369 777.659L912.887 774.2L914.491 770.656L915.419 768.547L916.853 765.341L918.203 762.303L919.806 758.675L920.903 756.228L922.253 753.191L922.759 752.094L922.675 751.672L919.637 750.322L918.709 749.9Z" fill="white"/>
<path d="M857.706 677.591H857.115L856.272 677.844L855.597 678.35L855.09 679.362V680.459L855.597 681.472L856.694 682.991L857.875 684.594L858.887 686.028L863.275 692.103L864.203 693.369L864.878 693.875L865.722 694.128L866.65 694.044L867.325 693.706L868 692.947L868.253 692.187V691.428L867.915 690.5L859.14 678.35L858.465 677.844L857.706 677.591Z" fill="black"/>
<path d="M846.4 699.275H845.387L844.628 699.613L843.953 700.203L843.616 700.963V702.144L844.037 702.988L844.712 703.578L846.4 704.338L850.956 706.278L855.428 708.219L858.634 709.569L858.972 709.653H859.731L860.659 709.316L861.081 708.978L861.503 708.303L861.672 707.713V706.953L861.334 706.025L860.744 705.434L859.562 704.844L855.006 702.903L852.475 701.806L849.522 700.541L846.737 699.359L846.4 699.275Z" fill="black"/>
<path d="M856.609 721.719H855.344L850.872 723.069L842.687 725.6L840.831 726.191L839.987 726.95L839.65 727.709V728.806L839.903 729.481L840.409 730.072L840.916 730.409L841.422 730.578H842.434L847.159 729.144L852.644 727.456L856.441 726.275L857.2 725.938L857.791 725.431L858.212 724.588V723.406L857.959 722.816L857.537 722.225L856.862 721.803L856.609 721.719Z" fill="black"/>
<path d="M929.425 729.228L928.581 729.313L927.906 729.65L927.4 730.072L926.978 730.831L926.894 731.253V731.928L927.231 732.856L927.906 733.531L930.1 734.544L936.175 737.244L937.188 737.666L938.031 737.75L938.706 737.581L939.381 737.159L939.888 736.569L940.141 735.894V734.966L939.803 734.122L939.381 733.616L938.706 733.194L935.247 731.675L932.631 730.494L930.1 729.397L929.425 729.228Z" fill="black"/>
<path d="M925.797 737.834H925.038L924.278 738.087L923.434 738.847L923.097 739.691V740.619L923.434 741.378L924.025 742.053L925.966 742.981L929.425 744.5L932.041 745.681L933.222 746.187L933.559 746.272H934.488L935.331 745.934L935.753 745.597L936.175 744.922L936.344 744.247V743.656L936.006 742.728L935.5 742.137L934.15 741.462L931.534 740.281L929.256 739.269L926.388 738.003L925.797 737.834Z" fill="black"/>
<path d="M884.284 709.569L883.103 709.653L881.837 709.991L880.487 710.666L879.728 711.172L878.969 711.847L878.209 712.859L877.534 714.209L877.197 715.559L877.112 716.741L877.281 718.259L877.703 719.525L878.378 720.706L879.137 721.634H879.475L880.825 718.597L882.259 715.391L883.272 713.112L884.369 710.666L884.706 709.906V709.653L884.284 709.569Z" fill="white"/>
<path d="M910.019 746.188L909.681 746.525L908.837 748.466L908.753 748.803V749.563L909.006 750.322L909.428 750.913L910.356 751.503L912.044 752.263H912.381L913.731 749.309L914.237 748.128L914.153 747.875L911.622 746.778L910.019 746.188Z" fill="white"/>
<path d="M909.295 24.0925L908.998 24.4914V24.9889V137V138.5H910.498H1008.51H1009.02L1009.43 138.186L1015.73 133.309L1016.98 132.34L1015.94 131.142L916.999 16.8066L915.778 15.3952L914.662 16.8918L909.295 24.0925Z" fill="#F9AB00" stroke="black" stroke-width="3"/>
<rect x="916.15" y="14.5" width="101.35" height="117.443" fill="white" stroke="black" stroke-width="3"/>
<path d="M931.25 61.802C932.68 60.372 935.432 57.6203 939.505 53.547C943.622 49.4303 946.265 46.7437 947.435 45.487C948.995 43.797 950.057 42.3887 950.62 41.262C951.227 40.1353 951.53 38.857 951.53 37.427C951.53 35.9103 950.967 34.632 949.84 33.592C948.714 32.552 947.219 32.032 945.355 32.032C943.535 32.032 942.062 32.552 940.935 33.592C939.809 34.632 939.007 35.932 938.53 37.492L930.86 34.307C931.337 32.617 932.204 30.992 933.46 29.432C934.76 27.8287 936.429 26.5287 938.465 25.532C940.502 24.5353 942.842 24.037 945.485 24.037C948.432 24.037 951.01 24.622 953.22 25.792C955.43 26.9187 957.142 28.4787 958.355 30.472C959.569 32.422 960.175 34.6103 960.175 37.037C960.175 41.847 957.835 46.5487 953.155 51.142C951.249 53.0053 947.717 56.5153 942.56 61.672L942.755 62.062H960.76V69.537H931.25V61.802ZM985.244 70.577C981.517 70.577 978.245 69.5803 975.429 67.587C972.612 65.5503 970.424 62.777 968.864 59.267C967.347 55.7137 966.589 51.727 966.589 47.307C966.589 42.887 967.347 38.922 968.864 35.412C970.424 31.8587 972.612 29.0853 975.429 27.092C978.245 25.0553 981.517 24.037 985.244 24.037C988.97 24.037 992.242 25.0553 995.059 27.092C997.875 29.0853 1000.04 31.8587 1001.56 35.412C1003.12 38.922 1003.9 42.887 1003.9 47.307C1003.9 51.727 1003.12 55.7137 1001.56 59.267C1000.04 62.777 997.875 65.5503 995.059 67.587C992.242 69.5803 988.97 70.577 985.244 70.577ZM985.244 62.582C987.324 62.582 989.122 61.932 990.639 60.632C992.199 59.2887 993.369 57.4687 994.149 55.172C994.972 52.832 995.384 50.2103 995.384 47.307C995.384 42.8003 994.474 39.1387 992.654 36.322C990.834 33.462 988.364 32.032 985.244 32.032C982.167 32.032 979.719 33.462 977.899 36.322C976.079 39.182 975.169 42.8437 975.169 47.307C975.169 50.2103 975.559 52.832 976.339 55.172C977.162 57.4687 978.332 59.2887 979.849 60.632C981.409 61.932 983.207 62.582 985.244 62.582ZM932.837 113.802C934.267 112.372 937.019 109.62 941.092 105.547C945.209 101.43 947.852 98.7437 949.022 97.487C950.582 95.797 951.644 94.3887 952.207 93.262C952.814 92.1353 953.117 90.857 953.117 89.427C953.117 87.9103 952.554 86.632 951.427 85.592C950.301 84.552 948.806 84.032 946.942 84.032C945.122 84.032 943.649 84.552 942.522 85.592C941.396 86.632 940.594 87.932 940.117 89.492L932.447 86.307C932.924 84.617 933.791 82.992 935.047 81.432C936.347 79.8287 938.016 78.5287 940.052 77.532C942.089 76.5353 944.429 76.037 947.072 76.037C950.019 76.037 952.597 76.622 954.807 77.792C957.017 78.9187 958.729 80.4787 959.942 82.472C961.156 84.422 961.762 86.6103 961.762 89.037C961.762 93.847 959.422 98.5487 954.742 103.142C952.836 105.005 949.304 108.515 944.147 113.672L944.342 114.062H962.347V121.537H932.837V113.802ZM988.39 113.347H967.915V106.457L987.675 77.077H996.905V105.417H1002.43V113.347H996.905V121.537H988.39V113.347ZM988.39 105.417V89.752H987.87L977.34 105.417H988.39Z" fill="black"/>
<rect x="2.5" y="2.5" width="196" height="237" transform="matrix(1.26866e-08 -1 -1 -1.12089e-08 1391 268)" fill="#34A853" stroke="black" stroke-width="5"/>
<g clip-path="url(#clip2_1141_4305)">
<path d="M1160.14 100.396H1154V72H1160.35" stroke="#1E1E1E" stroke-width="3" stroke-miterlimit="10" stroke-linejoin="round"/>
<path d="M1172.87 72H1179.22V100.399H1172.87" stroke="#1E1E1E" stroke-width="3" stroke-miterlimit="10" stroke-linejoin="round"/>
<path d="M1213.47 72.6768C1214.73 72.9112 1216.55 73.7052 1216.53 76.3162C1216.5 80.2914 1216.62 83.2542 1216.62 83.2542C1216.62 83.2542 1216.79 86.6219 1219.77 86.843" stroke="#1E1E1E" stroke-width="3" stroke-miterlimit="10" stroke-linejoin="round"/>
<path d="M1213.47 101.009C1214.72 100.775 1216.55 99.9835 1216.53 97.3671C1216.5 93.3919 1216.62 90.4292 1216.62 90.4292C1216.62 90.4292 1216.79 87.0615 1219.77 86.8403" stroke="#1E1E1E" stroke-width="3" stroke-miterlimit="10" stroke-linejoin="round"/>
<path d="M1200.83 101.009C1199.58 100.775 1197.75 99.9808 1197.77 97.3698C1197.81 93.3946 1197.68 90.4319 1197.68 90.4319C1197.68 90.4319 1197.52 87.0642 1194.54 86.843" stroke="#1E1E1E" stroke-width="3" stroke-miterlimit="10" stroke-linejoin="round"/>
<path d="M1200.84 72.6768C1199.58 72.9112 1197.75 73.7025 1197.77 76.3189C1197.81 80.2941 1197.68 83.2568 1197.68 83.2568C1197.68 83.2568 1197.52 86.6245 1194.54 86.8457" stroke="#1E1E1E" stroke-width="3" stroke-miterlimit="10" stroke-linejoin="round"/>
<path d="M1241.23 100.396H1235.09V72H1241.44" stroke="#1E1E1E" stroke-width="3" stroke-miterlimit="10" stroke-linejoin="round"/>
<path d="M1253.95 72H1260.31V100.399H1253.95" stroke="#1E1E1E" stroke-width="3" stroke-miterlimit="10" stroke-linejoin="round"/>
<path d="M1294.56 72.6768C1295.81 72.9112 1297.64 73.7052 1297.62 76.3162C1297.59 80.2914 1297.71 83.2542 1297.71 83.2542C1297.71 83.2542 1297.87 86.6219 1300.85 86.843" stroke="#1E1E1E" stroke-width="3" stroke-miterlimit="10" stroke-linejoin="round"/>
<path d="M1294.55 101.009C1295.81 100.775 1297.64 99.9835 1297.62 97.3671C1297.59 93.3919 1297.71 90.4292 1297.71 90.4292C1297.71 90.4292 1297.87 87.0615 1300.85 86.8403" stroke="#1E1E1E" stroke-width="3" stroke-miterlimit="10" stroke-linejoin="round"/>
<path d="M1281.92 101.009C1280.67 100.775 1278.84 99.9808 1278.86 97.3698C1278.89 93.3946 1278.77 90.4319 1278.77 90.4319C1278.77 90.4319 1278.61 87.0642 1275.63 86.843" stroke="#1E1E1E" stroke-width="3" stroke-miterlimit="10" stroke-linejoin="round"/>
<path d="M1281.92 72.6768C1280.67 72.9112 1278.84 73.7025 1278.86 76.3189C1278.89 80.2941 1278.77 83.2568 1278.77 83.2568C1278.77 83.2568 1278.61 86.6245 1275.63 86.8457" stroke="#1E1E1E" stroke-width="3" stroke-miterlimit="10" stroke-linejoin="round"/>
<path d="M1322.31 100.396H1316.17V72H1322.52" stroke="#1E1E1E" stroke-width="3" stroke-miterlimit="10" stroke-linejoin="round"/>
<path d="M1335.04 72H1341.39V100.399H1335.04" stroke="#1E1E1E" stroke-width="3" stroke-miterlimit="10" stroke-linejoin="round"/>
<path d="M1375.65 72.6768C1376.9 72.9112 1378.73 73.7052 1378.7 76.3162C1378.67 80.2914 1378.8 83.2542 1378.8 83.2542C1378.8 83.2542 1378.96 86.6219 1381.94 86.843" stroke="#1E1E1E" stroke-width="3" stroke-miterlimit="10" stroke-linejoin="round"/>
<path d="M1375.64 101.009C1376.89 100.775 1378.73 99.9835 1378.7 97.3671C1378.67 93.3919 1378.8 90.4292 1378.8 90.4292C1378.8 90.4292 1378.96 87.0615 1381.94 86.8403" stroke="#1E1E1E" stroke-width="3" stroke-miterlimit="10" stroke-linejoin="round"/>
<path d="M1363.01 101.009C1361.75 100.775 1359.93 99.9808 1359.95 97.3698C1359.98 93.3946 1359.86 90.4319 1359.86 90.4319C1359.86 90.4319 1359.69 87.0642 1356.71 86.843" stroke="#1E1E1E" stroke-width="3" stroke-miterlimit="10" stroke-linejoin="round"/>
<path d="M1363.01 72.6768C1361.76 72.9112 1359.93 73.7025 1359.95 76.3189C1359.98 80.2941 1359.86 83.2568 1359.86 83.2568C1359.86 83.2568 1359.69 86.6245 1356.71 86.8457" stroke="#1E1E1E" stroke-width="3" stroke-miterlimit="10" stroke-linejoin="round"/>
<path d="M1201.23 140.124H1195.09V111.728H1201.44" stroke="#1E1E1E" stroke-width="3" stroke-miterlimit="10" stroke-linejoin="round"/>
<path d="M1213.96 111.728H1220.31V140.124H1213.96" stroke="#1E1E1E" stroke-width="3" stroke-miterlimit="10" stroke-linejoin="round"/>
<path d="M1254.29 112.405C1255.54 112.639 1257.37 113.433 1257.35 116.044C1257.31 120.019 1257.44 122.982 1257.44 122.982C1257.44 122.982 1257.6 126.35 1260.58 126.571" stroke="#1E1E1E" stroke-width="3" stroke-miterlimit="10" stroke-linejoin="round"/>
<path d="M1254.28 140.737C1255.53 140.503 1257.37 139.711 1257.35 137.095C1257.31 133.12 1257.44 130.157 1257.44 130.157C1257.44 130.157 1257.6 126.789 1260.58 126.568" stroke="#1E1E1E" stroke-width="3" stroke-miterlimit="10" stroke-linejoin="round"/>
<path d="M1241.65 140.737C1240.4 140.503 1238.57 139.709 1238.59 137.098C1238.62 133.123 1238.5 130.16 1238.5 130.16C1238.5 130.16 1238.33 126.792 1235.35 126.571" stroke="#1E1E1E" stroke-width="3" stroke-miterlimit="10" stroke-linejoin="round"/>
<path d="M1241.65 112.405C1240.4 112.639 1238.57 113.43 1238.59 116.047C1238.62 120.022 1238.5 122.985 1238.5 122.985C1238.5 122.985 1238.33 126.352 1235.35 126.574" stroke="#1E1E1E" stroke-width="3" stroke-miterlimit="10" stroke-linejoin="round"/>
<path d="M1173.75 112.405C1175 112.639 1176.83 113.433 1176.8 116.044C1176.77 120.019 1176.89 122.982 1176.89 122.982C1176.89 122.982 1177.06 126.35 1180.04 126.571" stroke="#1E1E1E" stroke-width="3" stroke-miterlimit="10" stroke-linejoin="round"/>
<path d="M1173.74 140.737C1174.99 140.503 1176.83 139.711 1176.8 137.095C1176.77 133.12 1176.89 130.157 1176.89 130.157C1176.89 130.157 1177.06 126.789 1180.04 126.568" stroke="#1E1E1E" stroke-width="3" stroke-miterlimit="10" stroke-linejoin="round"/>
<path d="M1161.11 140.737C1159.85 140.503 1158.03 139.709 1158.05 137.098C1158.08 133.123 1157.96 130.16 1157.96 130.16C1157.96 130.16 1157.79 126.792 1154.81 126.571" stroke="#1E1E1E" stroke-width="3" stroke-miterlimit="10" stroke-linejoin="round"/>
<path d="M1161.11 112.405C1159.86 112.639 1158.03 113.43 1158.05 116.047C1158.08 120.022 1157.96 122.985 1157.96 122.985C1157.96 122.985 1157.79 126.352 1154.81 126.574" stroke="#1E1E1E" stroke-width="3" stroke-miterlimit="10" stroke-linejoin="round"/>
<path d="M1281.77 140.124H1275.63V111.728H1281.98" stroke="#1E1E1E" stroke-width="3" stroke-miterlimit="10" stroke-linejoin="round"/>
<path d="M1294.5 111.728H1300.85V140.124H1294.5" stroke="#1E1E1E" stroke-width="3" stroke-miterlimit="10" stroke-linejoin="round"/>
<path d="M1334.83 112.405C1336.08 112.639 1337.91 113.433 1337.89 116.044C1337.86 120.019 1337.98 122.982 1337.98 122.982C1337.98 122.982 1338.15 126.35 1341.12 126.571" stroke="#1E1E1E" stroke-width="3" stroke-miterlimit="10" stroke-linejoin="round"/>
<path d="M1334.83 140.737C1336.08 140.503 1337.91 139.711 1337.89 137.095C1337.86 133.12 1337.98 130.157 1337.98 130.157C1337.98 130.157 1338.15 126.789 1341.12 126.568" stroke="#1E1E1E" stroke-width="3" stroke-miterlimit="10" stroke-linejoin="round"/>
<path d="M1322.19 140.737C1320.94 140.503 1319.11 139.709 1319.13 137.098C1319.16 133.123 1319.04 130.16 1319.04 130.16C1319.04 130.16 1318.88 126.792 1315.9 126.571" stroke="#1E1E1E" stroke-width="3" stroke-miterlimit="10" stroke-linejoin="round"/>
<path d="M1322.2 112.405C1320.94 112.639 1319.11 113.43 1319.13 116.047C1319.16 120.022 1319.04 122.985 1319.04 122.985C1319.04 122.985 1318.88 126.352 1315.9 126.574" stroke="#1E1E1E" stroke-width="3" stroke-miterlimit="10" stroke-linejoin="round"/>
<path d="M1362.31 140.124H1356.17V111.728H1362.52" stroke="#1E1E1E" stroke-width="3" stroke-miterlimit="10" stroke-linejoin="round"/>
<path d="M1375.04 111.728H1381.39V140.124H1375.04" stroke="#1E1E1E" stroke-width="3" stroke-miterlimit="10" stroke-linejoin="round"/>
<path d="M1160.14 181.062H1154V152.665H1160.35" stroke="#1E1E1E" stroke-width="3" stroke-miterlimit="10" stroke-linejoin="round"/>
<path d="M1172.87 152.665H1179.22V181.062H1172.87" stroke="#1E1E1E" stroke-width="3" stroke-miterlimit="10" stroke-linejoin="round"/>
<path d="M1213.47 153.342C1214.73 153.577 1216.55 154.371 1216.53 156.982C1216.5 160.957 1216.62 163.92 1216.62 163.92C1216.62 163.92 1216.79 167.287 1219.77 167.508" stroke="#1E1E1E" stroke-width="3" stroke-miterlimit="10" stroke-linejoin="round"/>
<path d="M1213.47 181.672C1214.72 181.438 1216.55 180.646 1216.53 178.03C1216.5 174.055 1216.62 171.092 1216.62 171.092C1216.62 171.092 1216.79 167.724 1219.77 167.503" stroke="#1E1E1E" stroke-width="3" stroke-miterlimit="10" stroke-linejoin="round"/>
<path d="M1200.83 181.672C1199.58 181.438 1197.75 180.644 1197.77 178.033C1197.81 174.057 1197.68 171.095 1197.68 171.095C1197.68 171.095 1197.52 167.727 1194.54 167.506" stroke="#1E1E1E" stroke-width="3" stroke-miterlimit="10" stroke-linejoin="round"/>
<path d="M1200.84 153.342C1199.58 153.577 1197.75 154.368 1197.77 156.984C1197.81 160.959 1197.68 163.922 1197.68 163.922C1197.68 163.922 1197.52 167.29 1194.54 167.511" stroke="#1E1E1E" stroke-width="3" stroke-miterlimit="10" stroke-linejoin="round"/>
<path d="M1241.23 181.062H1235.09V152.665H1241.44" stroke="#1E1E1E" stroke-width="3" stroke-miterlimit="10" stroke-linejoin="round"/>
<path d="M1253.95 152.665H1260.31V181.062H1253.95" stroke="#1E1E1E" stroke-width="3" stroke-miterlimit="10" stroke-linejoin="round"/>
<path d="M1294.56 153.342C1295.81 153.577 1297.64 154.371 1297.62 156.982C1297.59 160.957 1297.71 163.92 1297.71 163.92C1297.71 163.92 1297.87 167.287 1300.85 167.508" stroke="#1E1E1E" stroke-width="3" stroke-miterlimit="10" stroke-linejoin="round"/>
<path d="M1294.55 181.672C1295.81 181.438 1297.64 180.646 1297.62 178.03C1297.59 174.055 1297.71 171.092 1297.71 171.092C1297.71 171.092 1297.87 167.724 1300.85 167.503" stroke="#1E1E1E" stroke-width="3" stroke-miterlimit="10" stroke-linejoin="round"/>
<path d="M1281.92 181.672C1280.67 181.438 1278.84 180.644 1278.86 178.033C1278.89 174.057 1278.77 171.095 1278.77 171.095C1278.77 171.095 1278.61 167.727 1275.63 167.506" stroke="#1E1E1E" stroke-width="3" stroke-miterlimit="10" stroke-linejoin="round"/>
<path d="M1281.92 153.342C1280.67 153.577 1278.84 154.368 1278.86 156.984C1278.89 160.959 1278.77 163.922 1278.77 163.922C1278.77 163.922 1278.61 167.29 1275.63 167.511" stroke="#1E1E1E" stroke-width="3" stroke-miterlimit="10" stroke-linejoin="round"/>
<path d="M1322.31 181.062H1316.17V152.665H1322.52" stroke="#1E1E1E" stroke-width="3" stroke-miterlimit="10" stroke-linejoin="round"/>
<path d="M1335.04 152.665H1341.39V181.062H1335.04" stroke="#1E1E1E" stroke-width="3" stroke-miterlimit="10" stroke-linejoin="round"/>
<path d="M1375.65 153.342C1376.9 153.577 1378.73 154.371 1378.7 156.982C1378.67 160.957 1378.8 163.92 1378.8 163.92C1378.8 163.92 1378.96 167.287 1381.94 167.508" stroke="#1E1E1E" stroke-width="3" stroke-miterlimit="10" stroke-linejoin="round"/>
<path d="M1375.64 181.672C1376.89 181.438 1378.73 180.646 1378.7 178.03C1378.67 174.055 1378.8 171.092 1378.8 171.092C1378.8 171.092 1378.96 167.724 1381.94 167.503" stroke="#1E1E1E" stroke-width="3" stroke-miterlimit="10" stroke-linejoin="round"/>
<path d="M1363.01 181.672C1361.75 181.438 1359.93 180.644 1359.95 178.033C1359.98 174.057 1359.86 171.095 1359.86 171.095C1359.86 171.095 1359.69 167.727 1356.71 167.506" stroke="#1E1E1E" stroke-width="3" stroke-miterlimit="10" stroke-linejoin="round"/>
<path d="M1363.01 153.342C1361.76 153.577 1359.93 154.368 1359.95 156.984C1359.98 160.959 1359.86 163.922 1359.86 163.922C1359.86 163.922 1359.69 167.29 1356.71 167.511" stroke="#1E1E1E" stroke-width="3" stroke-miterlimit="10" stroke-linejoin="round"/>
<path d="M1201.23 220.787H1195.09V192.391H1201.44" stroke="#1E1E1E" stroke-width="3" stroke-miterlimit="10" stroke-linejoin="round"/>
<path d="M1213.96 192.391H1220.31V220.787H1213.96" stroke="#1E1E1E" stroke-width="3" stroke-miterlimit="10" stroke-linejoin="round"/>
<path d="M1254.29 193.067C1255.54 193.302 1257.37 194.096 1257.35 196.707C1257.31 200.682 1257.44 203.645 1257.44 203.645C1257.44 203.645 1257.6 207.013 1260.58 207.234" stroke="#1E1E1E" stroke-width="3" stroke-miterlimit="10" stroke-linejoin="round"/>
<path d="M1254.28 221.4C1255.53 221.165 1257.37 220.374 1257.35 217.758C1257.31 213.783 1257.44 210.82 1257.44 210.82C1257.44 210.82 1257.6 207.452 1260.58 207.231" stroke="#1E1E1E" stroke-width="3" stroke-miterlimit="10" stroke-linejoin="round"/>
<path d="M1241.65 221.4C1240.4 221.165 1238.57 220.371 1238.59 217.76C1238.62 213.785 1238.5 210.822 1238.5 210.822C1238.5 210.822 1238.33 207.455 1235.35 207.234" stroke="#1E1E1E" stroke-width="3" stroke-miterlimit="10" stroke-linejoin="round"/>
<path d="M1241.65 193.067C1240.4 193.302 1238.57 194.093 1238.59 196.71C1238.62 200.685 1238.5 203.647 1238.5 203.647C1238.5 203.647 1238.33 207.015 1235.35 207.236" stroke="#1E1E1E" stroke-width="3" stroke-miterlimit="10" stroke-linejoin="round"/>
<path d="M1173.75 193.067C1175 193.302 1176.83 194.096 1176.8 196.707C1176.77 200.682 1176.89 203.645 1176.89 203.645C1176.89 203.645 1177.06 207.013 1180.04 207.234" stroke="#1E1E1E" stroke-width="3" stroke-miterlimit="10" stroke-linejoin="round"/>
<path d="M1173.74 221.4C1174.99 221.165 1176.83 220.374 1176.8 217.758C1176.77 213.783 1176.89 210.82 1176.89 210.82C1176.89 210.82 1177.06 207.452 1180.04 207.231" stroke="#1E1E1E" stroke-width="3" stroke-miterlimit="10" stroke-linejoin="round"/>
<path d="M1161.11 221.4C1159.85 221.165 1158.03 220.371 1158.05 217.76C1158.08 213.785 1157.96 210.822 1157.96 210.822C1157.96 210.822 1157.79 207.455 1154.81 207.234" stroke="#1E1E1E" stroke-width="3" stroke-miterlimit="10" stroke-linejoin="round"/>
<path d="M1161.11 193.067C1159.86 193.302 1158.03 194.093 1158.05 196.71C1158.08 200.685 1157.96 203.647 1157.96 203.647C1157.96 203.647 1157.79 207.015 1154.81 207.236" stroke="#1E1E1E" stroke-width="3" stroke-miterlimit="10" stroke-linejoin="round"/>
<path d="M1281.77 220.787H1275.63V192.391H1281.98" stroke="#1E1E1E" stroke-width="3" stroke-miterlimit="10" stroke-linejoin="round"/>
<path d="M1294.5 192.391H1300.85V220.787H1294.5" stroke="#1E1E1E" stroke-width="3" stroke-miterlimit="10" stroke-linejoin="round"/>
<path d="M1334.83 193.067C1336.08 193.302 1337.91 194.096 1337.89 196.707C1337.86 200.682 1337.98 203.645 1337.98 203.645C1337.98 203.645 1338.15 207.013 1341.12 207.234" stroke="#1E1E1E" stroke-width="3" stroke-miterlimit="10" stroke-linejoin="round"/>
<path d="M1334.83 221.4C1336.08 221.165 1337.91 220.374 1337.89 217.758C1337.86 213.783 1337.98 210.82 1337.98 210.82C1337.98 210.82 1338.15 207.452 1341.12 207.231" stroke="#1E1E1E" stroke-width="3" stroke-miterlimit="10" stroke-linejoin="round"/>
<path d="M1322.19 221.4C1320.94 221.165 1319.11 220.371 1319.13 217.76C1319.16 213.785 1319.04 210.822 1319.04 210.822C1319.04 210.822 1318.88 207.455 1315.9 207.234" stroke="#1E1E1E" stroke-width="3" stroke-miterlimit="10" stroke-linejoin="round"/>
<path d="M1322.2 193.067C1320.94 193.302 1319.11 194.093 1319.13 196.71C1319.16 200.685 1319.04 203.647 1319.04 203.647C1319.04 203.647 1318.88 207.015 1315.9 207.236" stroke="#1E1E1E" stroke-width="3" stroke-miterlimit="10" stroke-linejoin="round"/>
<path d="M1362.31 220.787H1356.17V192.391H1362.52" stroke="#1E1E1E" stroke-width="3" stroke-miterlimit="10" stroke-linejoin="round"/>
<path d="M1375.04 192.391H1381.39V220.787H1375.04" stroke="#1E1E1E" stroke-width="3" stroke-miterlimit="10" stroke-linejoin="round"/>
<path d="M1160.14 262.553H1154V234.157H1160.35" stroke="#1E1E1E" stroke-width="3" stroke-miterlimit="10" stroke-linejoin="round"/>
<path d="M1172.87 234.157H1179.22V262.556H1172.87" stroke="#1E1E1E" stroke-width="3" stroke-miterlimit="10" stroke-linejoin="round"/>
<path d="M1213.47 234.833C1214.73 235.068 1216.55 235.862 1216.53 238.473C1216.5 242.448 1216.62 245.411 1216.62 245.411C1216.62 245.411 1216.79 248.779 1219.77 249" stroke="#1E1E1E" stroke-width="3" stroke-miterlimit="10" stroke-linejoin="round"/>
<path d="M1213.47 263.166C1214.72 262.932 1216.55 262.14 1216.53 259.524C1216.5 255.549 1216.62 252.586 1216.62 252.586C1216.62 252.586 1216.79 249.218 1219.77 248.997" stroke="#1E1E1E" stroke-width="3" stroke-miterlimit="10" stroke-linejoin="round"/>
<path d="M1200.83 263.166C1199.58 262.932 1197.75 262.138 1197.77 259.527C1197.81 255.551 1197.68 252.589 1197.68 252.589C1197.68 252.589 1197.52 249.221 1194.54 249" stroke="#1E1E1E" stroke-width="3" stroke-miterlimit="10" stroke-linejoin="round"/>
<path d="M1200.84 234.833C1199.58 235.068 1197.75 235.859 1197.77 238.476C1197.81 242.451 1197.68 245.414 1197.68 245.414C1197.68 245.414 1197.52 248.781 1194.54 249.002" stroke="#1E1E1E" stroke-width="3" stroke-miterlimit="10" stroke-linejoin="round"/>
<path d="M1241.23 262.553H1235.09V234.157H1241.44" stroke="#1E1E1E" stroke-width="3" stroke-miterlimit="10" stroke-linejoin="round"/>
<path d="M1253.95 234.157H1260.31V262.556H1253.95" stroke="#1E1E1E" stroke-width="3" stroke-miterlimit="10" stroke-linejoin="round"/>
<path d="M1294.56 234.833C1295.81 235.068 1297.64 235.862 1297.62 238.473C1297.59 242.448 1297.71 245.411 1297.71 245.411C1297.71 245.411 1297.87 248.779 1300.85 249" stroke="#1E1E1E" stroke-width="3" stroke-miterlimit="10" stroke-linejoin="round"/>
<path d="M1294.55 263.166C1295.81 262.932 1297.64 262.14 1297.62 259.524C1297.59 255.549 1297.71 252.586 1297.71 252.586C1297.71 252.586 1297.87 249.218 1300.85 248.997" stroke="#1E1E1E" stroke-width="3" stroke-miterlimit="10" stroke-linejoin="round"/>
<path d="M1281.92 263.166C1280.67 262.932 1278.84 262.138 1278.86 259.527C1278.89 255.551 1278.77 252.589 1278.77 252.589C1278.77 252.589 1278.61 249.221 1275.63 249" stroke="#1E1E1E" stroke-width="3" stroke-miterlimit="10" stroke-linejoin="round"/>
<path d="M1281.92 234.833C1280.67 235.068 1278.84 235.859 1278.86 238.476C1278.89 242.451 1278.77 245.414 1278.77 245.414C1278.77 245.414 1278.61 248.781 1275.63 249.002" stroke="#1E1E1E" stroke-width="3" stroke-miterlimit="10" stroke-linejoin="round"/>
<path d="M1322.31 262.553H1316.17V234.157H1322.52" stroke="#1E1E1E" stroke-width="3" stroke-miterlimit="10" stroke-linejoin="round"/>
<path d="M1335.04 234.157H1341.39V262.556H1335.04" stroke="#1E1E1E" stroke-width="3" stroke-miterlimit="10" stroke-linejoin="round"/>
<path d="M1375.65 234.833C1376.9 235.068 1378.73 235.862 1378.7 238.473C1378.67 242.448 1378.8 245.411 1378.8 245.411C1378.8 245.411 1378.96 248.779 1381.94 249" stroke="#1E1E1E" stroke-width="3" stroke-miterlimit="10" stroke-linejoin="round"/>
<path d="M1375.64 263.166C1376.89 262.932 1378.73 262.14 1378.7 259.524C1378.67 255.549 1378.8 252.586 1378.8 252.586C1378.8 252.586 1378.96 249.218 1381.94 248.997" stroke="#1E1E1E" stroke-width="3" stroke-miterlimit="10" stroke-linejoin="round"/>
<path d="M1363.01 263.166C1361.75 262.932 1359.93 262.138 1359.95 259.527C1359.98 255.551 1359.86 252.589 1359.86 252.589C1359.86 252.589 1359.69 249.221 1356.71 249" stroke="#1E1E1E" stroke-width="3" stroke-miterlimit="10" stroke-linejoin="round"/>
<path d="M1363.01 234.833C1361.76 235.068 1359.93 235.859 1359.95 238.476C1359.98 242.451 1359.86 245.414 1359.86 245.414C1359.86 245.414 1359.69 248.781 1356.71 249.002" stroke="#1E1E1E" stroke-width="3" stroke-miterlimit="10" stroke-linejoin="round"/>
</g>
<path d="M1240.64 60.4436L1240.49 42.0073C1240.49 42.0073 1243.2 21.1682 1264.24 20.0465C1285.29 18.9247 1289.11 38.4828 1289.11 38.4828H1306.49C1306.49 38.4828 1323.07 40.245 1323.71 56.1159C1324.35 71.9867 1324.19 70.3837 1324.19 70.3837C1324.19 70.3837 1336.46 74.071 1335.99 85.9325C1335.51 97.794 1324.98 101 1324.98 101H1243.67C1243.67 101 1225.66 99.397 1225.02 80.8014C1224.38 62.2058 1240.64 60.4436 1240.64 60.4436Z" fill="white" stroke="black" stroke-width="5" stroke-miterlimit="10"/>
<path d="M828.49 49.4616L811.272 31.216C811 30.9278 810.558 30.9278 810.286 31.216L803.38 38.5393C803.108 38.8275 803.108 39.2959 803.38 39.5841L808.349 44.8531H768V56.6869H808.355L803.289 62.0579C803.017 62.3461 803.017 62.8146 803.289 63.1027L810.525 70.4261C810.797 70.7142 811.238 70.7142 811.51 70.4261L828.487 52.0805C828.573 51.9883 828.647 51.8903 828.712 51.7864C829.159 51.069 829.086 50.0948 828.49 49.4616Z" fill="white" stroke="#1E1E1E" stroke-width="5" stroke-miterlimit="10" stroke-linejoin="round"/>
<defs>
<clipPath id="clip0_1141_4305">
<rect width="125" height="302" fill="white" transform="translate(948 4)"/>
</clipPath>
<clipPath id="clip1_1141_4305">
<rect width="192" height="295" fill="white" transform="translate(1135 512)"/>
</clipPath>
<clipPath id="clip2_1141_4305">
<rect width="235" height="195" fill="white" transform="translate(1154 72)"/>
</clipPath>
</defs>
</svg>
