<svg width="502" height="96" viewBox="0 0 502 96" fill="none" xmlns="http://www.w3.org/2000/svg"  preserveAspectRatio="none">
<path d="M4 94H2V92V12.4419V11.2142L3.09463 10.6585L18.738 2.71666L19.1637 2.5005L19.6412 2.5L497.998 2L500 1.99791V4V82.5V83.8805L498.709 84.37L473.66 93.87L473.317 94H472.95H4Z" fill="#4285F4" stroke="black" stroke-width="4"/>
<rect x="20.9995" y="3" width="479" height="80" fill="white" stroke="black" stroke-width="4"/>
<path d="M79.1094 41.624C78.1974 41.624 77.4121 41.3073 76.7534 40.674C76.1201 40.0153 75.8034 39.23 75.8034 38.318C75.8034 37.406 76.1201 36.6333 76.7534 36C77.4121 35.3413 78.1974 35.012 79.1094 35.012C80.0214 35.012 80.7941 35.3413 81.4274 36C82.0608 36.6333 82.3774 37.406 82.3774 38.318C82.3774 39.23 82.0608 40.0153 81.4274 40.674C80.7941 41.3073 80.0214 41.624 79.1094 41.624ZM79.2234 63.816C77.6274 63.816 76.1961 63.4993 74.9294 62.866C73.6881 62.2327 72.7128 61.3587 72.0034 60.244C71.3194 59.1547 70.9774 57.9387 70.9774 56.596C70.9774 55.2787 71.2561 54.164 71.8134 53.252C72.3708 52.3147 73.2068 51.314 74.3214 50.25C75.1828 49.4393 75.7654 48.7427 76.0694 48.16C76.3988 47.5773 76.5634 46.8427 76.5634 45.956V44.778H81.5414V46.602C81.5414 47.818 81.2881 48.8693 80.7814 49.756C80.2748 50.6427 79.3628 51.656 78.0454 52.796C77.2854 53.48 76.7281 54.0753 76.3734 54.582C76.0441 55.0887 75.8794 55.6713 75.8794 56.33C75.8794 57.1153 76.1708 57.774 76.7534 58.306C77.3361 58.8633 78.1088 59.142 79.0714 59.142C80.0848 59.142 80.9208 58.838 81.5794 58.23C82.2381 57.6473 82.6941 56.9127 82.9474 56.026L87.3174 57.85C86.8361 59.4713 85.8988 60.8647 84.5054 62.03C83.1121 63.2207 81.3514 63.816 79.2234 63.816ZM109.727 54.392C107.827 55.2027 105.864 55.608 103.837 55.608C101.177 55.608 98.7577 54.9873 96.579 53.746C94.4257 52.4793 92.7284 50.7567 91.487 48.578C90.2457 46.3993 89.625 44.0053 89.625 41.396C89.625 38.7867 90.2457 36.3927 91.487 34.214C92.7284 32.0353 94.4257 30.3253 96.579 29.084C98.7577 27.8173 101.177 27.184 103.837 27.184C106.497 27.184 108.904 27.8173 111.057 29.084C113.236 30.3253 114.946 32.0353 116.187 34.214C117.428 36.3927 118.049 38.7867 118.049 41.396C118.049 43.4733 117.656 45.4113 116.871 47.21C116.086 49.0087 114.984 50.5667 113.565 51.884L115.655 55L111.855 57.546L109.727 54.392ZM103.837 50.744C104.825 50.744 105.851 50.554 106.915 50.174L103.951 45.728L107.751 43.144L110.715 47.628C111.424 46.8427 111.969 45.918 112.349 44.854C112.729 43.79 112.919 42.6373 112.919 41.396C112.919 39.572 112.514 37.9507 111.703 36.532C110.918 35.1133 109.828 34.0113 108.435 33.226C107.042 32.4407 105.509 32.048 103.837 32.048C102.165 32.048 100.632 32.4407 99.239 33.226C97.871 34.0113 96.7817 35.1133 95.971 36.532C95.1857 37.9507 94.793 39.572 94.793 41.396C94.793 43.22 95.1857 44.8413 95.971 46.26C96.7817 47.6787 97.871 48.7807 99.239 49.566C100.632 50.3513 102.165 50.744 103.837 50.744ZM129.975 55.608C127.644 55.608 125.871 54.886 124.655 53.442C123.439 51.998 122.831 49.984 122.831 47.4V35.62H127.809V46.792C127.809 48.1093 128.126 49.148 128.759 49.908C129.392 50.6427 130.228 51.01 131.267 51.01C132.686 51.01 133.813 50.4907 134.649 49.452C135.485 48.4133 135.903 47.096 135.903 45.5V35.62H140.881V55H136.207V52.568H135.903C135.32 53.5053 134.497 54.2527 133.433 54.81C132.394 55.342 131.242 55.608 129.975 55.608ZM155.388 55.608C153.462 55.608 151.727 55.1647 150.182 54.278C148.636 53.3913 147.42 52.1753 146.534 50.63C145.672 49.0593 145.242 47.2987 145.242 45.348C145.242 43.4987 145.672 41.7887 146.534 40.218C147.395 38.622 148.586 37.3553 150.106 36.418C151.626 35.4807 153.323 35.012 155.198 35.012C157.199 35.012 158.922 35.4427 160.366 36.304C161.81 37.1653 162.899 38.3433 163.634 39.838C164.394 41.3327 164.774 42.992 164.774 44.816C164.774 45.3987 164.736 45.956 164.66 46.488H150.106C150.359 48.0333 150.967 49.2113 151.93 50.022C152.918 50.8073 154.096 51.2 155.464 51.2C156.604 51.2 157.579 50.9593 158.39 50.478C159.226 49.9713 159.884 49.3 160.366 48.464L164.394 50.44C162.418 53.8853 159.416 55.608 155.388 55.608ZM159.986 42.954C159.935 42.346 159.707 41.7507 159.302 41.168C158.922 40.56 158.377 40.066 157.668 39.686C156.984 39.2807 156.173 39.078 155.236 39.078C154.045 39.078 153.019 39.4327 152.158 40.142C151.322 40.826 150.714 41.7633 150.334 42.954H159.986ZM154.742 26.728H160.556L157.136 31.896H153.146L154.742 26.728ZM188.117 55.608C186.191 55.608 184.456 55.1647 182.911 54.278C181.365 53.3913 180.149 52.1753 179.263 50.63C178.401 49.0593 177.971 47.2987 177.971 45.348C177.971 43.4987 178.401 41.7887 179.263 40.218C180.124 38.622 181.315 37.3553 182.835 36.418C184.355 35.4807 186.052 35.012 187.927 35.012C189.928 35.012 191.651 35.4427 193.095 36.304C194.539 37.1653 195.628 38.3433 196.363 39.838C197.123 41.3327 197.503 42.992 197.503 44.816C197.503 45.3987 197.465 45.956 197.389 46.488H182.835C183.088 48.0333 183.696 49.2113 184.659 50.022C185.647 50.8073 186.825 51.2 188.193 51.2C189.333 51.2 190.308 50.9593 191.119 50.478C191.955 49.9713 192.613 49.3 193.095 48.464L197.123 50.44C195.147 53.8853 192.145 55.608 188.117 55.608ZM192.715 42.954C192.664 42.346 192.436 41.7507 192.031 41.168C191.651 40.56 191.106 40.066 190.397 39.686C189.713 39.2807 188.902 39.078 187.965 39.078C186.774 39.078 185.748 39.4327 184.887 40.142C184.051 40.826 183.443 41.7633 183.063 42.954H192.715ZM209.655 55.608C207.299 55.608 205.386 55.1267 203.917 54.164C202.473 53.2013 201.46 51.9473 200.877 50.402L205.323 48.464C205.728 49.376 206.298 50.0727 207.033 50.554C207.793 51.01 208.667 51.238 209.655 51.238C210.567 51.238 211.327 51.0987 211.935 50.82C212.543 50.516 212.847 50.0347 212.847 49.376C212.847 48.7427 212.568 48.274 212.011 47.97C211.454 47.6407 210.618 47.3493 209.503 47.096L207.223 46.602C205.652 46.222 204.348 45.538 203.309 44.55C202.27 43.5367 201.751 42.2827 201.751 40.788C201.751 39.6733 202.08 38.6727 202.739 37.786C203.423 36.8993 204.335 36.2153 205.475 35.734C206.64 35.2527 207.92 35.012 209.313 35.012C213.316 35.012 215.988 36.418 217.331 39.23L213.075 41.092C212.315 39.724 211.099 39.04 209.427 39.04C208.566 39.04 207.882 39.2047 207.375 39.534C206.868 39.838 206.615 40.2307 206.615 40.712C206.615 41.624 207.476 42.308 209.199 42.764L212.049 43.448C213.974 43.9293 215.418 44.664 216.381 45.652C217.369 46.64 217.863 47.856 217.863 49.3C217.863 50.5413 217.496 51.6433 216.761 52.606C216.052 53.5433 215.064 54.278 213.797 54.81C212.556 55.342 211.175 55.608 209.655 55.608ZM240.977 55.608C239.051 55.608 237.316 55.1647 235.771 54.278C234.225 53.3913 233.009 52.1753 232.123 50.63C231.261 49.0593 230.831 47.2987 230.831 45.348C230.831 43.4987 231.261 41.7887 232.123 40.218C232.984 38.622 234.175 37.3553 235.695 36.418C237.215 35.4807 238.912 35.012 240.787 35.012C242.788 35.012 244.511 35.4427 245.955 36.304C247.399 37.1653 248.488 38.3433 249.223 39.838C249.983 41.3327 250.363 42.992 250.363 44.816C250.363 45.3987 250.325 45.956 250.249 46.488H235.695C235.948 48.0333 236.556 49.2113 237.519 50.022C238.507 50.8073 239.685 51.2 241.053 51.2C242.193 51.2 243.168 50.9593 243.979 50.478C244.815 49.9713 245.473 49.3 245.955 48.464L249.983 50.44C248.007 53.8853 245.005 55.608 240.977 55.608ZM245.575 42.954C245.524 42.346 245.296 41.7507 244.891 41.168C244.511 40.56 243.966 40.066 243.257 39.686C242.573 39.2807 241.762 39.078 240.825 39.078C239.634 39.078 238.608 39.4327 237.747 40.142C236.911 40.826 236.303 41.7633 235.923 42.954H245.575ZM254.957 27.792H259.935V55H254.957V27.792ZM275.939 27.792H285.135C287.972 27.792 290.442 28.362 292.545 29.502C294.647 30.642 296.269 32.238 297.409 34.29C298.549 36.342 299.119 38.7107 299.119 41.396C299.119 44.0813 298.549 46.45 297.409 48.502C296.269 50.554 294.647 52.15 292.545 53.29C290.442 54.43 287.972 55 285.135 55H275.939V27.792ZM284.907 50.136C287.845 50.136 290.087 49.3633 291.633 47.818C293.178 46.2473 293.951 44.1067 293.951 41.396C293.951 38.6853 293.178 36.5573 291.633 35.012C290.087 33.4413 287.845 32.656 284.907 32.656H281.069V50.136H284.907ZM312.595 55.608C310.669 55.608 308.934 55.1647 307.389 54.278C305.843 53.3913 304.627 52.1753 303.741 50.63C302.879 49.0593 302.449 47.2987 302.449 45.348C302.449 43.4987 302.879 41.7887 303.741 40.218C304.602 38.622 305.793 37.3553 307.313 36.418C308.833 35.4807 310.53 35.012 312.405 35.012C314.406 35.012 316.129 35.4427 317.573 36.304C319.017 37.1653 320.106 38.3433 320.841 39.838C321.601 41.3327 321.981 42.992 321.981 44.816C321.981 45.3987 321.943 45.956 321.867 46.488H307.313C307.566 48.0333 308.174 49.2113 309.137 50.022C310.125 50.8073 311.303 51.2 312.671 51.2C313.811 51.2 314.786 50.9593 315.597 50.478C316.433 49.9713 317.091 49.3 317.573 48.464L321.601 50.44C319.625 53.8853 316.623 55.608 312.595 55.608ZM317.193 42.954C317.142 42.346 316.914 41.7507 316.509 41.168C316.129 40.56 315.584 40.066 314.875 39.686C314.191 39.2807 313.38 39.078 312.443 39.078C311.252 39.078 310.226 39.4327 309.365 40.142C308.529 40.826 307.921 41.7633 307.541 42.954H317.193ZM324.038 35.62H329.7L334.602 48.236H334.906L339.884 35.62H345.47L337.186 55H332.246L324.038 35.62ZM349.617 27.792H366.869V32.656H354.747V39.268H365.653V44.132H354.747V55H349.617V27.792ZM379.408 55.608C377.483 55.608 375.747 55.1647 374.202 54.278C372.657 53.3913 371.441 52.1753 370.554 50.63C369.693 49.0593 369.262 47.2987 369.262 45.348C369.262 43.4987 369.693 41.7887 370.554 40.218C371.415 38.622 372.606 37.3553 374.126 36.418C375.646 35.4807 377.343 35.012 379.218 35.012C381.219 35.012 382.942 35.4427 384.386 36.304C385.83 37.1653 386.919 38.3433 387.654 39.838C388.414 41.3327 388.794 42.992 388.794 44.816C388.794 45.3987 388.756 45.956 388.68 46.488H374.126C374.379 48.0333 374.987 49.2113 375.95 50.022C376.938 50.8073 378.116 51.2 379.484 51.2C380.624 51.2 381.599 50.9593 382.41 50.478C383.246 49.9713 383.905 49.3 384.386 48.464L388.414 50.44C386.438 53.8853 383.436 55.608 379.408 55.608ZM384.006 42.954C383.955 42.346 383.727 41.7507 383.322 41.168C382.942 40.56 382.397 40.066 381.688 39.686C381.004 39.2807 380.193 39.078 379.256 39.078C378.065 39.078 377.039 39.4327 376.178 40.142C375.342 40.826 374.734 41.7633 374.354 42.954H384.006ZM400.946 55.608C398.59 55.608 396.678 55.1267 395.208 54.164C393.764 53.2013 392.751 51.9473 392.168 50.402L396.614 48.464C397.02 49.376 397.59 50.0727 398.324 50.554C399.084 51.01 399.958 51.238 400.946 51.238C401.858 51.238 402.618 51.0987 403.226 50.82C403.834 50.516 404.138 50.0347 404.138 49.376C404.138 48.7427 403.86 48.274 403.302 47.97C402.745 47.6407 401.909 47.3493 400.794 47.096L398.514 46.602C396.944 46.222 395.639 45.538 394.6 44.55C393.562 43.5367 393.042 42.2827 393.042 40.788C393.042 39.6733 393.372 38.6727 394.03 37.786C394.714 36.8993 395.626 36.2153 396.766 35.734C397.932 35.2527 399.211 35.012 400.604 35.012C404.607 35.012 407.28 36.418 408.622 39.23L404.366 41.092C403.606 39.724 402.39 39.04 400.718 39.04C399.857 39.04 399.173 39.2047 398.666 39.534C398.16 39.838 397.906 40.2307 397.906 40.712C397.906 41.624 398.768 42.308 400.49 42.764L403.34 43.448C405.266 43.9293 406.71 44.664 407.672 45.652C408.66 46.64 409.154 47.856 409.154 49.3C409.154 50.5413 408.787 51.6433 408.052 52.606C407.343 53.5433 406.355 54.278 405.088 54.81C403.847 55.342 402.466 55.608 400.946 55.608ZM421.77 55.304C420.808 55.304 419.921 55.1647 419.11 54.886C418.3 54.582 417.641 54.1767 417.134 53.67C415.944 52.53 415.348 50.9087 415.348 48.806V39.876H411.966V35.62H415.348V30.148H420.326V35.62H425.076V39.876H420.326V47.894C420.326 48.882 420.542 49.5913 420.972 50.022C421.327 50.4273 421.935 50.63 422.796 50.63C423.278 50.63 423.67 50.5667 423.974 50.44C424.304 50.3133 424.722 50.098 425.228 49.794V54.658C424.139 55.0887 422.986 55.304 421.77 55.304ZM434.993 44.398C434.993 43.182 435.246 42.1307 435.753 41.244C436.285 40.3573 437.197 39.344 438.489 38.204C439.249 37.52 439.794 36.9247 440.123 36.418C440.478 35.9113 440.655 35.3287 440.655 34.67C440.655 33.8847 440.364 33.226 439.781 32.694C439.198 32.1367 438.426 31.858 437.463 31.858C436.45 31.858 435.614 32.162 434.955 32.77C434.322 33.3527 433.866 34.0873 433.587 34.974L429.217 33.15C429.698 31.5287 430.636 30.1353 432.029 28.97C433.448 27.7793 435.221 27.184 437.349 27.184C438.945 27.184 440.364 27.5007 441.605 28.134C442.846 28.7673 443.809 29.6413 444.493 30.756C445.202 31.8453 445.557 33.0613 445.557 34.404C445.557 35.7213 445.278 36.8487 444.721 37.786C444.164 38.7233 443.34 39.7113 442.251 40.75C441.39 41.5607 440.794 42.2573 440.465 42.84C440.161 43.4227 440.009 44.1573 440.009 45.044V45.652H434.993V44.398ZM437.463 55.228C436.551 55.228 435.766 54.9113 435.107 54.278C434.474 53.6193 434.157 52.834 434.157 51.922C434.157 51.01 434.474 50.2373 435.107 49.604C435.766 48.9707 436.551 48.654 437.463 48.654C438.375 48.654 439.148 48.9707 439.781 49.604C440.414 50.2373 440.731 51.01 440.731 51.922C440.731 52.834 440.414 53.6193 439.781 54.278C439.148 54.9113 438.375 55.228 437.463 55.228Z" fill="black"/>
</svg>
