<svg width="201" height="42" viewBox="0 0 201 42" fill="none" xmlns="http://www.w3.org/2000/svg">
<rect x="1.6792" y="1.5" width="198" height="39" fill="white"/>
<rect x="1.6792" y="1.5" width="198" height="39" stroke="black" stroke-width="2"/>
<g clip-path="url(#clip0_953_897)">
<path d="M63.665 12.3895C62.1832 11.5786 60.426 11.1695 58.3858 11.1695H51.8779V30.399H58.3858C60.426 30.399 62.1907 29.9973 63.665 29.1939C65.1467 28.3905 66.2785 27.2598 67.0827 25.8092C67.8794 24.3587 68.2815 22.6849 68.2815 20.788C68.2815 18.8911 67.8794 17.2173 67.0827 15.7816C66.286 14.3385 65.1467 13.2152 63.665 12.3969V12.3895ZM63.9107 24.0313C63.4342 24.9612 62.7268 25.6828 61.7737 26.1961C60.8206 26.7093 59.6441 26.9623 58.2219 26.9623H55.5041V14.6063H58.2219C59.6367 14.6063 60.8206 14.8592 61.7737 15.3725C62.7268 15.8858 63.4342 16.5999 63.9107 17.5223C64.3872 18.4447 64.6255 19.5308 64.6255 20.788C64.6255 22.0452 64.3872 23.1089 63.9107 24.0388V24.0313Z" fill="#1E1E1E"/>
<path d="M80.776 17.2099C79.7708 16.585 78.5347 16.2726 77.0679 16.2726C75.601 16.2726 74.499 16.6073 73.4416 17.2768C72.3843 17.9463 71.5504 18.839 70.9398 19.9474C70.3292 21.0558 70.0239 22.2683 70.0239 23.5701C70.0239 24.8719 70.3367 26.2109 70.9547 27.3045C71.5727 28.398 72.4215 29.2535 73.5087 29.8858C74.5958 30.5106 75.8244 30.8231 77.2019 30.8231C78.5794 30.8231 80.009 30.4958 81.044 29.8411C82.0865 29.1865 82.9279 28.2938 83.5682 27.1706L80.7164 25.7721C80.3962 26.33 79.942 26.7912 79.3687 27.1557C78.7953 27.5202 78.088 27.7062 77.2466 27.7062C76.4052 27.7062 75.8765 27.5425 75.2957 27.2078C74.7149 26.873 74.2533 26.3969 73.9107 25.7572C73.6948 25.3555 73.5533 24.8868 73.4789 24.3735H83.7544C83.7693 24.2843 83.7916 24.1355 83.8065 23.9272C83.8214 23.7189 83.8363 23.4734 83.8363 23.1908C83.8363 21.9187 83.5757 20.7582 83.0545 19.7094C82.5332 18.6605 81.7737 17.8273 80.7685 17.195L80.776 17.2099ZM73.6204 21.8815C73.6948 21.6286 73.7767 21.3905 73.8884 21.1674C74.2086 20.5351 74.6553 20.0367 75.2212 19.6796C75.7871 19.3225 76.4052 19.144 77.0902 19.144C77.7752 19.144 78.0731 19.2258 78.4752 19.3969C78.8772 19.568 79.2198 19.7837 79.5102 20.0515C79.7931 20.3193 80.0239 20.6169 80.1803 20.9368C80.3367 21.2566 80.4335 21.5691 80.4483 21.8741H73.6204V21.8815Z" fill="#1E1E1E"/>
<path d="M91.6247 25.6158H91.4088L87.9389 16.704H83.9404L89.7409 30.399H93.2405L99.1005 16.704H95.1467L91.6247 25.6158Z" fill="#1E1E1E"/>
<path d="M100.835 30.399H104.462V22.7147H112.176V19.2779H104.462V14.6063H113.039V11.1695H100.835V30.399Z" fill="#1E1E1E"/>
<path d="M124.849 17.2099C123.844 16.585 122.607 16.2726 121.141 16.2726C119.674 16.2726 118.572 16.6073 117.514 17.2768C116.457 17.9463 115.623 18.839 115.013 19.9474C114.402 21.0558 114.097 22.2683 114.097 23.5701C114.097 24.8719 114.409 26.2109 115.027 27.3045C115.645 28.398 116.494 29.2535 117.581 29.8858C118.669 30.5106 119.897 30.8231 121.275 30.8231C122.652 30.8231 124.082 30.4958 125.117 29.8411C126.159 29.1865 127.001 28.2938 127.641 27.1706L124.789 25.7721C124.469 26.33 124.015 26.7912 123.441 27.1557C122.868 27.5202 122.161 27.7062 121.319 27.7062C120.478 27.7062 119.949 27.5425 119.368 27.2078C118.788 26.873 118.326 26.3969 117.983 25.7572C117.768 25.3555 117.626 24.8868 117.552 24.3735H127.827C127.842 24.2843 127.864 24.1355 127.879 23.9272C127.894 23.7189 127.909 23.4734 127.909 23.1908C127.909 21.9187 127.648 20.7582 127.127 19.7094C126.606 18.6605 125.846 17.8273 124.841 17.195L124.849 17.2099ZM117.701 21.8815C117.775 21.6286 117.857 21.3905 117.969 21.1674C118.289 20.5351 118.736 20.0367 119.301 19.6796C119.867 19.3225 120.485 19.144 121.17 19.144C121.855 19.144 122.153 19.2258 122.555 19.3969C122.957 19.568 123.3 19.7837 123.59 20.0515C123.873 20.3193 124.104 20.6169 124.26 20.9368C124.424 21.2566 124.514 21.5691 124.529 21.8741H117.701V21.8815Z" fill="#1E1E1E"/>
<path d="M136.993 22.2311L134.975 21.7476C134.477 21.6211 134.045 21.4352 133.687 21.1822C133.33 20.9293 133.151 20.6392 133.151 20.297C133.151 19.9548 133.33 19.6945 133.687 19.4639C134.045 19.2333 134.529 19.1142 135.139 19.1142C135.75 19.1142 136.145 19.2184 136.606 19.4341C137.06 19.6498 137.433 20.0218 137.723 20.5648L140.731 19.2481C140.411 18.5712 139.979 18.0058 139.443 17.5669C138.907 17.128 138.267 16.8007 137.537 16.585C136.8 16.3693 135.981 16.2651 135.065 16.2651C134.149 16.2651 133.181 16.4362 132.362 16.7784C131.543 17.1206 130.903 17.5967 130.426 18.1992C129.949 18.8092 129.711 19.5234 129.711 20.3491C129.711 21.1748 129.897 21.7327 130.262 22.2981C130.627 22.8634 131.111 23.3246 131.699 23.6966C132.287 24.0611 132.92 24.3215 133.583 24.4628L135.199 24.8124C135.579 24.8868 135.943 24.9761 136.301 25.0951C136.658 25.2141 136.956 25.3703 137.202 25.5786C137.44 25.7869 137.567 26.0696 137.567 26.4267C137.567 26.7837 137.336 27.2747 136.867 27.4607C136.398 27.6466 135.884 27.7434 135.311 27.7434C134.737 27.7434 134 27.5797 133.479 27.2449C132.958 26.9102 132.548 26.4267 132.243 25.7795L129.101 27.1482C129.354 27.8103 129.733 28.4203 130.255 28.9708C130.776 29.5287 131.454 29.975 132.287 30.3172C133.121 30.6594 134.127 30.8305 135.311 30.8305C136.494 30.8305 137.366 30.6445 138.244 30.28C139.123 29.9155 139.823 29.3948 140.344 28.7253C140.865 28.0558 141.126 27.2673 141.126 26.3746C141.126 25.4819 140.783 24.5149 140.091 23.7933C139.398 23.0792 138.378 22.5584 137.016 22.2386L136.993 22.2311Z" fill="#1E1E1E"/>
<path d="M150.59 27.1929C150.336 27.2747 150.068 27.3119 149.785 27.3119C149.175 27.3119 148.736 27.1557 148.468 26.8433C148.199 26.5308 148.065 26.0399 148.065 25.3778V19.7094H151.424V16.704H148.065V12.8358H144.543V16.704H142.153V19.7094H144.543V26.0175C144.543 27.4532 144.946 28.5765 145.75 29.3874C146.554 30.2056 147.671 30.6073 149.086 30.6073C150.5 30.6073 149.934 30.5701 150.336 30.4883C150.739 30.4065 151.141 30.2949 151.535 30.1536V26.7168C151.156 26.9474 150.843 27.1036 150.597 27.1854L150.59 27.1929Z" fill="#1E1E1E"/>
<path d="M180.21 11.1918H166.375C161.054 11.1918 156.74 15.5015 156.74 20.8178C156.74 26.134 161.054 30.4437 166.375 30.4437H180.21C185.531 30.4437 189.845 26.134 189.845 20.8178C189.845 15.5015 185.531 11.1918 180.21 11.1918Z" fill="white" stroke="#1E1E1E" stroke-linejoin="round"/>
<path d="M164.305 23.7933V23.0792C164.32 23.0643 164.372 23.0048 164.454 22.9155C164.536 22.8263 164.648 22.7072 164.774 22.5585C164.901 22.4171 165.042 22.2609 165.191 22.0972C165.34 21.9336 165.489 21.7625 165.646 21.5988C165.794 21.4277 165.936 21.279 166.07 21.1376C166.197 20.9963 166.301 20.8847 166.383 20.8029C166.643 20.5202 166.844 20.2598 166.971 20.0441C167.098 19.8209 167.157 19.5903 167.157 19.3374C167.157 19.0845 167.112 18.9804 167.023 18.8316C166.934 18.6754 166.807 18.5563 166.636 18.4596C166.472 18.3704 166.278 18.3183 166.055 18.3183C165.832 18.3183 165.668 18.3629 165.512 18.4522C165.355 18.5415 165.236 18.653 165.139 18.7795C165.05 18.906 164.983 19.0324 164.961 19.1589L164.313 18.8985C164.35 18.7795 164.41 18.653 164.491 18.5043C164.573 18.3555 164.692 18.2216 164.841 18.0877C164.99 17.9538 165.162 17.8422 165.37 17.7604C165.579 17.6785 165.817 17.6339 166.085 17.6339C166.353 17.6339 166.785 17.7157 167.053 17.8794C167.321 18.0431 167.529 18.2513 167.671 18.5043C167.812 18.7572 167.887 19.0324 167.887 19.3225C167.887 19.6127 167.835 19.8209 167.73 20.0664C167.626 20.3045 167.492 20.5276 167.343 20.7359C167.194 20.9442 167.045 21.1153 166.904 21.2641C166.829 21.3385 166.733 21.4426 166.606 21.5765C166.48 21.7104 166.346 21.8592 166.197 22.0229C166.048 22.1865 165.906 22.3353 165.765 22.4915C165.623 22.6403 165.504 22.7742 165.4 22.8858C165.296 22.9974 165.221 23.0717 165.184 23.1164H167.939V23.8008H164.298L164.305 23.7933Z" fill="#1E1E1E"/>
<path d="M170.969 23.9272C170.612 23.9272 170.299 23.8454 170.016 23.6817C169.733 23.5181 169.495 23.2949 169.294 23.0048C169.093 22.7221 168.937 22.3874 168.832 22.0005C168.728 21.6212 168.668 21.212 168.668 20.7731C168.668 20.3342 168.721 19.9251 168.832 19.5457C168.937 19.1663 169.093 18.8316 169.294 18.5414C169.495 18.2513 169.741 18.0282 170.016 17.8645C170.299 17.7083 170.612 17.6265 170.969 17.6265C171.327 17.6265 171.639 17.7083 171.922 17.8645C172.205 18.0282 172.451 18.2513 172.652 18.5414C172.853 18.8316 173.009 19.1663 173.114 19.5457C173.218 19.9251 173.27 20.3342 173.27 20.7731C173.27 21.212 173.218 21.6212 173.114 22.0005C173.009 22.3799 172.853 22.7147 172.652 23.0048C172.451 23.2875 172.205 23.5181 171.922 23.6817C171.639 23.8454 171.319 23.9272 170.969 23.9272ZM170.969 23.2503C171.297 23.2503 171.58 23.1387 171.811 22.923C172.049 22.7072 172.228 22.4097 172.354 22.0377C172.481 21.6658 172.54 21.2492 172.54 20.788C172.54 20.3268 172.481 19.9028 172.354 19.5308C172.228 19.1589 172.049 18.8688 171.811 18.6456C171.572 18.4299 171.297 18.3183 170.969 18.3183C170.642 18.3183 170.366 18.4299 170.128 18.6456C169.897 18.8613 169.718 19.1589 169.592 19.5308C169.465 19.9028 169.406 20.3193 169.406 20.788C169.406 21.2566 169.465 21.6658 169.592 22.0377C169.718 22.4097 169.897 22.7072 170.128 22.923C170.359 23.1387 170.642 23.2503 170.969 23.2503Z" fill="#1E1E1E"/>
<path d="M173.888 23.7933V23.0792C173.903 23.0643 173.955 23.0048 174.037 22.9155C174.119 22.8263 174.231 22.7072 174.357 22.5585C174.484 22.4171 174.625 22.2609 174.774 22.0972C174.923 21.9336 175.072 21.7625 175.229 21.5988C175.377 21.4277 175.519 21.279 175.653 21.1376C175.78 20.9963 175.884 20.8847 175.966 20.8029C176.226 20.5202 176.427 20.2598 176.554 20.0441C176.681 19.8209 176.74 19.5903 176.74 19.3374C176.74 19.0845 176.695 18.9804 176.606 18.8316C176.517 18.6754 176.39 18.5563 176.219 18.4596C176.055 18.3704 175.861 18.3183 175.638 18.3183C175.415 18.3183 175.251 18.3629 175.095 18.4522C174.938 18.5415 174.819 18.653 174.722 18.7795C174.633 18.906 174.566 19.0324 174.544 19.1589L173.896 18.8985C173.933 18.7795 173.993 18.653 174.074 18.5043C174.156 18.3555 174.276 18.2216 174.424 18.0877C174.573 17.9538 174.745 17.8422 174.953 17.7604C175.162 17.6785 175.4 17.6339 175.668 17.6339C175.936 17.6339 176.368 17.7157 176.636 17.8794C176.904 18.0431 177.112 18.2513 177.254 18.5043C177.395 18.7572 177.47 19.0324 177.47 19.3225C177.47 19.6127 177.418 19.8209 177.313 20.0664C177.209 20.3045 177.075 20.5276 176.926 20.7359C176.777 20.9442 176.628 21.1153 176.487 21.2641C176.413 21.3385 176.316 21.4426 176.189 21.5765C176.063 21.7104 175.929 21.8592 175.78 22.0229C175.631 22.1865 175.489 22.3353 175.348 22.4915C175.206 22.6403 175.087 22.7742 174.983 22.8858C174.879 22.9974 174.804 23.0717 174.767 23.1164H177.522V23.8008H173.881L173.888 23.7933Z" fill="#1E1E1E"/>
<path d="M178.05 22.4618V21.9262L180.858 17.7678H181.617V23.7933H180.917V18.8613H180.872L178.855 21.7923H182.302V22.4692H178.043L178.05 22.4618Z" fill="#1E1E1E"/>
<path d="M20.7229 12.0655L12.8016 17.7521C11.1419 18.9436 10.7632 21.2538 11.9559 22.9119L11.9602 22.918C13.1529 24.5761 15.4652 24.9544 17.125 23.7629L25.0463 18.0763C26.706 16.8848 27.0847 14.5747 25.892 12.9165L25.8877 12.9105C24.695 11.2523 22.3827 10.874 20.7229 12.0655Z" fill="#EA4335" stroke="#1E1E1E" stroke-miterlimit="10"/>
<path d="M11.9607 18.5979L11.9564 18.6039C10.7637 20.2621 11.1424 22.5722 12.8021 23.7638L20.7234 29.4503C22.3832 30.6418 24.6955 30.2635 25.8882 28.6054L25.8925 28.5993C27.0852 26.9412 26.7065 24.631 25.0468 23.4395L17.1255 17.753C15.4657 16.5614 13.1534 16.9397 11.9607 18.5979Z" fill="#4285F4" stroke="#1E1E1E" stroke-miterlimit="10"/>
<path d="M39.846 17.7481L31.9247 23.4347C30.2649 24.6262 29.8863 26.9363 31.0789 28.5945L31.0833 28.6005C32.2759 30.2587 34.5883 30.637 36.248 29.4455L44.1693 23.7589C45.8291 22.5674 46.2077 20.2573 45.0151 18.5991L45.0107 18.593C43.8181 16.9349 41.5057 16.5566 39.846 17.7481Z" fill="#F9AB00" stroke="#1E1E1E" stroke-miterlimit="10"/>
<path d="M31.0828 12.9127L31.0784 12.9188C29.8858 14.5769 30.2644 16.8871 31.9242 18.0786L39.8455 23.7652C41.5052 24.9567 43.8176 24.5784 45.0102 22.9202L45.0146 22.9142C46.2072 21.256 45.8286 18.9459 44.1688 17.7544L36.2475 12.0678C34.5878 10.8763 32.2754 11.2546 31.0828 12.9127Z" fill="#34A853" stroke="#1E1E1E" stroke-miterlimit="10"/>
</g>
<defs>
<clipPath id="clip0_953_897">
<rect width="180" height="21" fill="white" transform="translate(10.6792 10.5)"/>
</clipPath>
</defs>
</svg>
