<svg width="397" height="130" viewBox="0 0 397 130" fill="none" xmlns="http://www.w3.org/2000/svg" preserveAspectRatio="none" >
<rect width="353.936" height="76.7174" transform="matrix(-1 0 0 1 370.526 26.9449)" fill="#4285F4" stroke="black" stroke-width="3"/>
<path d="M3.70077 79.3109H10.2898C12.6374 79.3109 14.5439 81.1851 14.5439 83.5019V106.715C14.5439 118.287 24.0642 127.666 35.8103 127.666H50.6597C51.6004 127.666 52.3605 126.917 52.3605 125.99V102.483C52.3605 101.556 51.6004 100.808 50.6597 100.808H39.762C37.4144 100.808 35.5079 98.9334 35.5079 96.6166V33.0493C35.5079 30.7366 37.4102 28.8584 39.762 28.8584H50.6597C51.6004 28.8584 52.3605 28.1096 52.3605 27.1828V3.67555C52.3605 2.74882 51.6004 2 50.6597 2H35.8103C24.0642 2 14.5439 11.3789 14.5439 22.9505V47.2108C14.5439 49.5234 12.6416 51.4017 10.2898 51.4017H3.70077C2.76008 51.4017 2 52.1505 2 53.0773V77.6312C2 78.5621 2.76008 79.3109 3.70077 79.3109Z" fill="#F9AB00" stroke="black" stroke-width="3" stroke-miterlimit="10" stroke-linejoin="round"/>
<path d="M393.363 50.355H387.02C384.76 50.355 382.925 48.4809 382.925 46.1641V22.9505C382.925 11.3789 373.76 2 362.454 2H348.159C347.254 2 346.522 2.74882 346.522 3.67555V27.1828C346.522 28.1096 347.254 28.8584 348.159 28.8584H358.65C360.909 28.8584 362.745 30.7325 362.745 33.0493V96.6166C362.745 98.9293 360.913 100.808 358.65 100.808H348.159C347.254 100.808 346.522 101.556 346.522 102.483V125.99C346.522 126.917 347.254 127.666 348.159 127.666H362.454C373.76 127.666 382.925 118.287 382.925 106.715V82.4552C382.925 80.1425 384.756 78.2642 387.02 78.2642H393.363C394.268 78.2642 395 77.5154 395 76.5887V52.0347C395 51.108 394.264 50.355 393.363 50.355Z" fill="#34A853" stroke="black" stroke-width="3" stroke-miterlimit="10" stroke-linejoin="round"/>
</svg>
