<svg width="1220" height="384" viewBox="0 0 1220 384" fill="none" xmlns="http://www.w3.org/2000/svg">
<g clip-path="url(#clip0_517_943)">
<path d="M610.353 779.706C823.729 779.706 996.706 606.729 996.706 393.353C996.706 179.976 823.729 7 610.353 7C396.976 7 224 179.976 224 393.353C224 606.729 396.976 779.706 610.353 779.706Z" fill="#EEEEEE" stroke="#202124" stroke-width="4" stroke-miterlimit="10"/>
<path d="M611.922 469.191C824.432 469.191 996.705 429.147 996.705 379.75C996.705 330.354 824.432 290.31 611.922 290.31C399.412 290.31 227.139 330.354 227.139 379.75C227.139 429.147 399.412 469.191 611.922 469.191Z" fill="url(#paint0_linear_517_943)" stroke="#202124" stroke-width="4" stroke-miterlimit="10"/>
<path d="M611.922 208.025C777.742 208.025 912.165 184.061 912.165 154.5C912.165 124.939 777.742 100.974 611.922 100.974C446.103 100.974 311.68 124.939 311.68 154.5C311.68 184.061 446.103 208.025 611.922 208.025Z" fill="url(#paint1_linear_517_943)" stroke="#202124" stroke-width="4" stroke-miterlimit="10"/>
<path d="M611.922 49.735C676.386 49.735 728.644 40.4175 728.644 28.9238C728.644 17.4301 676.386 8.11255 611.922 8.11255C547.459 8.11255 495.201 17.4301 495.201 28.9238C495.201 40.4175 547.459 49.735 611.922 49.735Z" fill="url(#paint2_linear_517_943)" stroke="#202124" stroke-width="4" stroke-miterlimit="10"/>
<path d="M610.353 779.706C753.803 779.706 870.093 606.729 870.093 393.353C870.093 179.976 753.803 7 610.353 7C466.902 7 350.612 179.976 350.612 393.353C350.612 606.729 466.902 779.706 610.353 779.706Z" stroke="#202124" stroke-width="4" stroke-miterlimit="10"/>
<path d="M610.353 779.706C680.443 779.706 737.262 606.729 737.262 393.353C737.262 179.976 680.443 7 610.353 7C540.262 7 483.443 179.976 483.443 393.353C483.443 606.729 540.262 779.706 610.353 779.706Z" stroke="#202124" stroke-width="4" stroke-miterlimit="10"/>
<path d="M610.353 7V779.705" stroke="#202124" stroke-width="4" stroke-miterlimit="10"/>
</g>
<path d="M1103.91 178.031C1113.55 178.358 1122.87 181.539 1130.71 187.169C1138.54 192.799 1144.52 200.627 1147.91 209.661C1151.29 218.694 1151.91 228.529 1149.7 237.918C1147.49 247.308 1142.55 255.831 1135.49 262.409L1001.5 347.5C992.044 356.323 996.89 356.405 994.5 370.5C981.574 370.052 972.965 365.084 964.142 355.627C955.318 346.171 950.613 333.597 951.061 320.671C951.508 307.745 957.072 295.526 966.529 286.703L1068.96 191.113C1073.63 186.737 1079.13 183.33 1085.13 181.085C1091.12 178.84 1097.51 177.802 1103.91 178.031Z" fill="#202124" stroke="#202124" stroke-width="4" stroke-miterlimit="10"/>
<path d="M1111.39 170.801C1121.03 171.129 1130.36 174.309 1138.19 179.939C1146.03 185.57 1152.01 193.397 1155.39 202.431C1158.78 211.465 1159.4 221.299 1157.19 230.689C1154.98 240.078 1150.04 248.601 1142.98 255.179L1040.56 350.784C1031.1 359.608 1018.52 364.313 1005.6 363.866C992.673 363.418 980.454 357.854 971.631 348.398C962.807 338.941 958.102 326.367 958.549 313.441C958.997 300.515 964.561 288.297 974.017 279.473L1076.44 183.883C1081.12 179.508 1086.62 176.1 1092.61 173.855C1098.61 171.61 1104.99 170.572 1111.39 170.801Z" fill="url(#paint3_linear_517_943)" stroke="#202124" stroke-width="4" stroke-miterlimit="10"/>
<path d="M965.365 116.197C965.692 106.555 968.872 97.2277 974.503 89.3946C980.133 81.5615 987.961 75.575 996.996 72.1929C1006.03 68.8108 1015.86 68.1852 1025.26 70.3953C1034.65 72.6054 1043.17 77.5518 1049.75 84.6083L1145.34 187.035C1149.71 191.717 1153.11 197.213 1155.36 203.211C1157.6 209.208 1158.64 215.589 1158.42 221.989C1158.2 228.39 1156.72 234.684 1154.07 240.512C1151.42 246.341 1147.64 251.59 1142.96 255.96C1138.28 260.33 1132.78 263.734 1126.79 265.98C1120.79 268.225 1114.41 269.268 1108.01 269.047C1101.61 268.827 1095.31 267.348 1089.48 264.695C1083.66 262.042 1078.41 258.267 1074.04 253.585L978.45 151.146C974.074 146.47 970.665 140.975 968.419 134.977C966.174 128.979 965.136 122.597 965.365 116.197Z" fill="url(#paint4_linear_517_943)" stroke="#282626" stroke-width="4" stroke-miterlimit="10"/>
<path d="M116.095 178.031C106.454 178.358 97.1274 181.539 89.2949 187.169C81.4624 192.799 75.4764 200.627 72.0944 209.661C68.7124 218.694 68.0866 228.529 70.2961 237.918C72.5055 247.308 77.451 255.831 84.5065 262.409L218.5 347.5C227.956 356.323 223.11 356.405 225.5 370.5C238.426 370.052 247.035 365.084 255.858 355.627C264.682 346.171 269.387 333.597 268.939 320.671C268.492 307.745 262.928 295.526 253.471 286.703L151.045 191.113C146.368 186.737 140.873 183.33 134.875 181.085C128.877 178.84 122.495 177.802 116.095 178.031Z" fill="#202124" stroke="#202124" stroke-width="4" stroke-miterlimit="10"/>
<path d="M108.606 170.801C98.9654 171.129 89.6386 174.309 81.8061 179.939C73.9737 185.57 67.9876 193.397 64.6056 202.431C61.2237 211.465 60.5978 221.299 62.8073 230.689C65.0168 240.078 69.9622 248.601 77.0178 255.179L179.445 350.784C188.901 359.608 201.475 364.313 214.401 363.866C227.327 363.418 239.546 357.854 248.369 348.398C257.193 338.941 261.898 326.367 261.451 313.441C261.003 300.515 255.439 288.297 245.983 279.473L143.556 183.883C138.879 179.508 133.384 176.1 127.386 173.855C121.388 171.61 115.006 170.572 108.606 170.801Z" fill="url(#paint5_linear_517_943)" stroke="#202124" stroke-width="4" stroke-miterlimit="10"/>
<path d="M254.635 116.197C254.308 106.555 251.128 97.2277 245.497 89.3946C239.867 81.5615 232.039 75.575 223.004 72.1929C213.97 68.8108 204.135 68.1852 194.745 70.3953C185.355 72.6054 176.831 77.5518 170.254 84.6083L74.6637 187.035C70.294 191.717 66.8891 197.213 64.6436 203.211C62.398 209.208 61.3558 215.589 61.5763 221.989C61.7968 228.39 63.2758 234.684 65.9287 240.512C68.5817 246.341 72.3568 251.59 77.0384 255.96C81.7199 260.33 87.2164 263.734 93.2138 265.98C99.2112 268.225 105.592 269.268 111.992 269.047C118.393 268.827 124.687 267.348 130.516 264.695C136.344 262.042 141.593 258.267 145.963 253.585L241.55 151.146C245.926 146.47 249.335 140.975 251.581 134.977C253.826 128.979 254.864 122.597 254.635 116.197Z" fill="url(#paint6_linear_517_943)" stroke="#282626" stroke-width="4" stroke-miterlimit="10"/>
<defs>
<linearGradient id="paint0_linear_517_943" x1="996.705" y1="379.75" x2="227.139" y2="379.75" gradientUnits="userSpaceOnUse">
<stop stop-color="#FFC708"/>
<stop offset="0.18" stop-color="#FFC708"/>
<stop offset="0.53" stop-color="#F05E22"/>
<stop offset="0.79" stop-color="#ED342E"/>
<stop offset="1" stop-color="#ED342E"/>
</linearGradient>
<linearGradient id="paint1_linear_517_943" x1="311.68" y1="154.5" x2="912.165" y2="154.5" gradientUnits="userSpaceOnUse">
<stop stop-color="#547DBE"/>
<stop offset="0.27" stop-color="#547DBE"/>
<stop offset="0.68" stop-color="#30A043"/>
<stop offset="1" stop-color="#30A043"/>
</linearGradient>
<linearGradient id="paint2_linear_517_943" x1="728.644" y1="28.9238" x2="495.201" y2="28.9238" gradientUnits="userSpaceOnUse">
<stop stop-color="#FFC708"/>
<stop offset="0.18" stop-color="#FFC708"/>
<stop offset="0.53" stop-color="#F05E22"/>
<stop offset="0.79" stop-color="#ED342E"/>
<stop offset="1" stop-color="#ED342E"/>
</linearGradient>
<linearGradient id="paint3_linear_517_943" x1="1222.84" y1="90.3501" x2="993.461" y2="337.347" gradientUnits="userSpaceOnUse">
<stop stop-color="#547DBE"/>
<stop offset="1" stop-color="#30A043"/>
</linearGradient>
<linearGradient id="paint4_linear_517_943" x1="965" y1="69" x2="1205.5" y2="302" gradientUnits="userSpaceOnUse">
<stop stop-color="#547DBE"/>
<stop offset="1" stop-color="#30A043"/>
</linearGradient>
<linearGradient id="paint5_linear_517_943" x1="-2.84028" y1="90.3501" x2="226.539" y2="337.347" gradientUnits="userSpaceOnUse">
<stop stop-color="#547DBE"/>
<stop offset="1" stop-color="#30A043"/>
</linearGradient>
<linearGradient id="paint6_linear_517_943" x1="255" y1="69" x2="14.5" y2="302" gradientUnits="userSpaceOnUse">
<stop stop-color="#547DBE"/>
<stop offset="1" stop-color="#30A043"/>
</linearGradient>
<clipPath id="clip0_517_943">
<rect width="823" height="384" fill="white" transform="translate(200)"/>
</clipPath>
</defs>
</svg>
