<svg width="450" height="750" viewBox="0 0 450 750" fill="none" xmlns="http://www.w3.org/2000/svg">
<path d="M66.3508 128.684L180.8 44.9028L320.97 66.5882L404.752 181.038L383.066 321.208L268.617 404.989L128.447 383.304L44.6654 268.854L66.3508 128.684Z" stroke="black"/>
<line x1="238.86" y1="400.531" x2="156.271" y2="61.8786" stroke="black"/>
<line x1="289.283" y1="388.234" x2="206.694" y2="49.5815" stroke="black"/>
<line x1="110.259" y1="96.9232" x2="182.047" y2="391.285" stroke="black"/>
<line x1="268.342" y1="58.3703" x2="340.13" y2="352.732" stroke="black"/>
<line x1="65.2861" y1="137.49" x2="123.78" y2="377.34" stroke="black"/>
<line x1="326.093" y1="73.1628" x2="384.587" y2="313.013" stroke="black"/>
<line x1="400.036" y1="209.044" x2="61.8914" y2="293.692" stroke="black"/>
<line x1="387.432" y1="158.697" x2="49.2879" y2="243.345" stroke="black"/>
<line x1="97.2152" y1="339.49" x2="391.135" y2="265.913" stroke="black"/>
<line x1="57.7016" y1="181.644" x2="351.621" y2="108.067" stroke="black"/>
<line x1="138.054" y1="384.215" x2="377.544" y2="324.263" stroke="black"/>
<line x1="72.1427" y1="123.804" x2="311.633" y2="63.8521" stroke="black"/>
<path d="M198.475 660.248C176.508 643.975 171.891 612.975 188.164 591.008L277.449 470.475C293.722 448.508 324.721 443.891 346.689 460.164C368.656 476.436 373.273 507.436 357.001 529.403L267.715 649.936C251.443 671.904 220.443 676.52 198.475 660.248Z" fill="url(#paint0_linear_84_2)" stroke="black"/>
<path d="M177.92 606.004C188.559 580.821 217.599 569.032 242.782 579.671L380.956 638.048C406.139 648.688 417.928 677.728 407.289 702.91C396.649 728.093 367.61 739.883 342.427 729.243L204.253 670.866C179.07 660.227 167.28 631.187 177.92 606.004Z" fill="url(#paint1_linear_84_2)" stroke="black"/>
<rect x="98.5" y="278.5" width="325" height="196" rx="34.5" fill="url(#paint2_linear_84_2)"/>
<rect x="98.5" y="278.5" width="325" height="196" rx="34.5" stroke="black"/>
<rect x="136.5" y="315.5" width="249" height="122" rx="29.5" fill="white"/>
<rect x="136.5" y="315.5" width="249" height="122" rx="29.5" stroke="black"/>
<path d="M174.436 357.632H182.788L191.908 381.776H192.292L201.412 357.632H209.812V392H203.38V375.056L203.764 369.344H203.38L194.644 392H189.604L180.82 369.344H180.436L180.82 375.056V392H174.436V357.632ZM223.576 392.768C220.984 392.768 218.856 392.016 217.192 390.512C215.528 388.976 214.696 386.976 214.696 384.512C214.696 382.88 215.128 381.44 215.992 380.192C216.856 378.944 218.04 377.984 219.544 377.312C221.048 376.64 222.712 376.304 224.536 376.304C227.064 376.304 229.224 376.672 231.016 377.408V376.352C231.016 375.008 230.504 373.92 229.48 373.088C228.488 372.256 227.144 371.84 225.448 371.84C224.296 371.84 223.176 372.112 222.088 372.656C221.032 373.168 220.152 373.856 219.448 374.72L215.416 371.552C216.6 370.016 218.088 368.832 219.88 368C221.672 367.168 223.624 366.752 225.736 366.752C229.48 366.752 232.328 367.616 234.28 369.344C236.232 371.072 237.208 373.6 237.208 376.928V392H231.016V389.504H230.632C229.896 390.464 228.92 391.248 227.704 391.856C226.52 392.464 225.144 392.768 223.576 392.768ZM225.064 387.872C226.888 387.872 228.328 387.296 229.384 386.144C230.472 384.96 231.016 383.584 231.016 382.016C229.384 381.248 227.672 380.864 225.88 380.864C222.616 380.864 220.984 382.08 220.984 384.512C220.984 385.504 221.336 386.32 222.04 386.96C222.744 387.568 223.752 387.872 225.064 387.872ZM242.994 367.52H248.898V370.592H249.282C250.018 369.408 251.058 368.48 252.402 367.808C253.746 367.104 255.202 366.752 256.77 366.752C259.714 366.752 261.954 367.648 263.49 369.44C265.026 371.232 265.794 373.68 265.794 376.784V392H259.506V377.552C259.506 375.984 259.106 374.768 258.306 373.904C257.506 373.04 256.386 372.608 254.946 372.608C253.25 372.608 251.874 373.264 250.818 374.576C249.794 375.888 249.282 377.536 249.282 379.52V392H242.994V367.52ZM257.874 362.864C257.17 362.864 256.514 362.752 255.906 362.528C255.298 362.272 254.61 361.936 253.842 361.52C253.778 361.488 253.538 361.36 253.122 361.136C252.706 360.912 252.37 360.8 252.114 360.8C251.314 360.8 250.898 361.264 250.866 362.192H246.45C246.45 360.208 246.978 358.704 248.034 357.68C249.122 356.624 250.45 356.096 252.018 356.096C252.754 356.096 253.41 356.208 253.986 356.432C254.562 356.656 255.298 357.008 256.194 357.488C256.994 357.936 257.522 358.16 257.778 358.16C258.194 358.16 258.498 358.048 258.69 357.824C258.882 357.6 259.01 357.248 259.074 356.768H263.49C263.49 358.72 262.946 360.224 261.858 361.28C260.77 362.336 259.442 362.864 257.874 362.864ZM278.982 392.768C276.39 392.768 274.262 392.016 272.598 390.512C270.934 388.976 270.102 386.976 270.102 384.512C270.102 382.88 270.534 381.44 271.398 380.192C272.262 378.944 273.446 377.984 274.95 377.312C276.454 376.64 278.118 376.304 279.942 376.304C282.47 376.304 284.63 376.672 286.422 377.408V376.352C286.422 375.008 285.91 373.92 284.886 373.088C283.894 372.256 282.55 371.84 280.854 371.84C279.702 371.84 278.582 372.112 277.494 372.656C276.438 373.168 275.558 373.856 274.854 374.72L270.822 371.552C272.006 370.016 273.494 368.832 275.286 368C277.078 367.168 279.03 366.752 281.142 366.752C284.886 366.752 287.734 367.616 289.686 369.344C291.638 371.072 292.614 373.6 292.614 376.928V392H286.422V389.504H286.038C285.302 390.464 284.326 391.248 283.11 391.856C281.926 392.464 280.55 392.768 278.982 392.768ZM280.47 387.872C282.294 387.872 283.734 387.296 284.79 386.144C285.878 384.96 286.422 383.584 286.422 382.016C284.79 381.248 283.078 380.864 281.286 380.864C278.022 380.864 276.39 382.08 276.39 384.512C276.39 385.504 276.742 386.32 277.446 386.96C278.15 387.568 279.158 387.872 280.47 387.872ZM298.4 367.52H304.304V370.592H304.688C305.424 369.408 306.464 368.48 307.808 367.808C309.152 367.104 310.608 366.752 312.176 366.752C315.12 366.752 317.36 367.648 318.896 369.44C320.432 371.232 321.2 373.68 321.2 376.784V392H314.912V377.552C314.912 375.984 314.512 374.768 313.712 373.904C312.912 373.04 311.792 372.608 310.352 372.608C308.656 372.608 307.28 373.264 306.224 374.576C305.2 375.888 304.688 377.536 304.688 379.52V392H298.4V367.52ZM334.388 392.768C331.796 392.768 329.668 392.016 328.004 390.512C326.34 388.976 325.508 386.976 325.508 384.512C325.508 382.88 325.94 381.44 326.804 380.192C327.668 378.944 328.852 377.984 330.356 377.312C331.86 376.64 333.524 376.304 335.348 376.304C337.876 376.304 340.036 376.672 341.828 377.408V376.352C341.828 375.008 341.316 373.92 340.292 373.088C339.3 372.256 337.956 371.84 336.26 371.84C335.108 371.84 333.988 372.112 332.9 372.656C331.844 373.168 330.964 373.856 330.26 374.72L326.228 371.552C327.412 370.016 328.9 368.832 330.692 368C332.484 367.168 334.436 366.752 336.548 366.752C340.292 366.752 343.14 367.616 345.092 369.344C347.044 371.072 348.02 373.6 348.02 376.928V392H341.828V389.504H341.444C340.708 390.464 339.732 391.248 338.516 391.856C337.332 392.464 335.956 392.768 334.388 392.768ZM335.876 387.872C337.7 387.872 339.14 387.296 340.196 386.144C341.284 384.96 341.828 383.584 341.828 382.016C340.196 381.248 338.484 380.864 336.692 380.864C333.428 380.864 331.796 382.08 331.796 384.512C331.796 385.504 332.148 386.32 332.852 386.96C333.556 387.568 334.564 387.872 335.876 387.872Z" fill="black"/>
<defs>
<linearGradient id="paint0_linear_84_2" x1="198.178" y1="660.649" x2="346.987" y2="459.762" gradientUnits="userSpaceOnUse">
<stop stop-color="#FFCB32"/>
<stop offset="0.324" stop-color="#FFCB32"/>
<stop offset="0.709" stop-color="#34A853"/>
<stop offset="1" stop-color="#34A853"/>
</linearGradient>
<linearGradient id="paint1_linear_84_2" x1="177.459" y1="605.809" x2="407.749" y2="703.105" gradientUnits="userSpaceOnUse">
<stop stop-color="#FFCB32"/>
<stop offset="0.324" stop-color="#FFCB32"/>
<stop offset="0.709" stop-color="#34A853"/>
<stop offset="1" stop-color="#34A853"/>
</linearGradient>
<linearGradient id="paint2_linear_84_2" x1="139.541" y1="278" x2="382.707" y2="459.277" gradientUnits="userSpaceOnUse">
<stop offset="0.0253947" stop-color="#4285F4"/>
<stop offset="0.265" stop-color="#4285F4"/>
<stop offset="0.525" stop-color="#9F6CD4"/>
<stop offset="0.77" stop-color="#EA4335"/>
<stop offset="1" stop-color="#EA4335"/>
</linearGradient>
</defs>
</svg>
