<svg width="516" height="879" viewBox="0 0 516 879" fill="none" xmlns="http://www.w3.org/2000/svg">
<rect x="36.7818" y="1.51812" width="479" height="479" rx="49.5" transform="rotate(4.2219 36.7818 1.51812)" stroke="black"/>
<line x1="33.0439" y1="45.362" x2="511.741" y2="80.6993" stroke="black"/>
<line x1="28.2586" y1="110.185" x2="506.956" y2="145.523" stroke="black"/>
<line x1="23.4733" y1="175.009" x2="502.171" y2="210.346" stroke="black"/>
<line x1="18.6881" y1="239.833" x2="497.386" y2="275.17" stroke="black"/>
<line x1="13.9028" y1="304.656" x2="492.6" y2="339.994" stroke="black"/>
<line x1="9.11756" y1="369.48" x2="487.815" y2="404.817" stroke="black"/>
<line x1="4.33228" y1="434.304" x2="483.03" y2="469.641" stroke="black"/>
<line x1="81.6597" y1="4.831" x2="46.3959" y2="482.531" stroke="black"/>
<line x1="146.483" y1="9.61616" x2="111.22" y2="487.316" stroke="black"/>
<line x1="211.307" y1="14.4016" x2="176.043" y2="492.102" stroke="black"/>
<line x1="276.131" y1="19.1867" x2="240.867" y2="496.887" stroke="black"/>
<line x1="340.954" y1="23.9721" x2="305.69" y2="501.672" stroke="black"/>
<line x1="405.778" y1="28.7573" x2="370.514" y2="506.457" stroke="black"/>
<line x1="470.601" y1="33.5427" x2="435.338" y2="511.243" stroke="black"/>
<path d="M216.164 466.666L414.093 656.177C424.939 666.562 420.47 684.795 406.05 688.987L142.628 765.56C128.208 769.751 114.661 756.756 118.25 742.174L183.743 476.09C187.329 461.525 205.329 456.292 216.164 466.666Z" fill="url(#paint0_linear_87_3)" stroke="black"/>
<rect x="95.5" y="296.5" width="325" height="196" rx="34.5" fill="url(#paint1_linear_87_3)" stroke="black"/>
<rect x="132.5" y="334.5" width="249" height="122" rx="29.5" fill="white" stroke="black"/>
<path d="M207.013 384.776H197.413V378.632H223.093V384.776H213.493V413H207.013V384.776ZM231.287 413.768C228.695 413.768 226.567 413.016 224.903 411.512C223.239 409.976 222.407 407.976 222.407 405.512C222.407 403.88 222.839 402.44 223.703 401.192C224.567 399.944 225.751 398.984 227.255 398.312C228.759 397.64 230.423 397.304 232.247 397.304C234.775 397.304 236.935 397.672 238.727 398.408V397.352C238.727 396.008 238.215 394.92 237.191 394.088C236.199 393.256 234.855 392.84 233.159 392.84C232.007 392.84 230.887 393.112 229.799 393.656C228.743 394.168 227.863 394.856 227.159 395.72L223.127 392.552C224.311 391.016 225.799 389.832 227.591 389C229.383 388.168 231.335 387.752 233.447 387.752C237.191 387.752 240.039 388.616 241.991 390.344C243.943 392.072 244.919 394.6 244.919 397.928V413H238.727V410.504H238.343C237.607 411.464 236.631 412.248 235.415 412.856C234.231 413.464 232.855 413.768 231.287 413.768ZM232.775 408.872C234.599 408.872 236.039 408.296 237.095 407.144C238.183 405.96 238.727 404.584 238.727 403.016C237.095 402.248 235.383 401.864 233.591 401.864C230.327 401.864 228.695 403.08 228.695 405.512C228.695 406.504 229.047 407.32 229.751 407.96C230.455 408.568 231.463 408.872 232.775 408.872ZM250.705 388.52H256.609V391.784H256.993C257.601 390.632 258.545 389.688 259.825 388.952C261.105 388.184 262.513 387.8 264.049 387.8C265.169 387.8 266.193 387.976 267.121 388.328V394.616C266.257 394.296 265.521 394.072 264.913 393.944C264.337 393.784 263.713 393.704 263.041 393.704C261.185 393.704 259.713 394.376 258.625 395.72C257.537 397.064 256.993 398.76 256.993 400.808V413H250.705V388.52ZM280.248 413.768C278.04 413.768 276.024 413.224 274.2 412.136C272.408 411.016 270.984 409.48 269.928 407.528C268.904 405.544 268.392 403.288 268.392 400.76C268.392 398.264 268.904 396.024 269.928 394.04C270.984 392.056 272.408 390.52 274.2 389.432C276.024 388.312 278.04 387.752 280.248 387.752C281.912 387.752 283.384 388.12 284.664 388.856C285.944 389.56 286.92 390.44 287.592 391.496H287.976L287.592 388.04V378.632H293.832V413H287.976V410.072H287.592C286.952 411.128 285.976 412.008 284.664 412.712C283.384 413.416 281.912 413.768 280.248 413.768ZM281.304 407.96C282.488 407.96 283.592 407.656 284.616 407.048C285.64 406.44 286.456 405.592 287.064 404.504C287.672 403.416 287.976 402.168 287.976 400.76C287.976 399.352 287.672 398.104 287.064 397.016C286.456 395.928 285.64 395.096 284.616 394.52C283.592 393.912 282.488 393.608 281.304 393.608C280.152 393.608 279.064 393.912 278.04 394.52C277.016 395.096 276.2 395.928 275.592 397.016C274.984 398.104 274.68 399.352 274.68 400.76C274.68 402.168 274.984 403.416 275.592 404.504C276.2 405.592 277.016 406.44 278.04 407.048C279.064 407.656 280.152 407.96 281.304 407.96ZM311.255 413.768C308.823 413.768 306.631 413.208 304.679 412.088C302.727 410.968 301.191 409.432 300.071 407.48C298.983 405.496 298.439 403.272 298.439 400.808C298.439 398.472 298.983 396.312 300.071 394.328C301.159 392.312 302.663 390.712 304.583 389.528C306.503 388.344 308.647 387.752 311.015 387.752C313.543 387.752 315.719 388.296 317.543 389.384C319.367 390.472 320.743 391.96 321.671 393.848C322.631 395.736 323.111 397.832 323.111 400.136C323.111 400.872 323.063 401.576 322.967 402.248H304.583C304.903 404.2 305.671 405.688 306.887 406.712C308.135 407.704 309.623 408.2 311.351 408.2C312.791 408.2 314.023 407.896 315.047 407.288C316.103 406.648 316.935 405.8 317.543 404.744L322.631 407.24C320.135 411.592 316.343 413.768 311.255 413.768ZM317.063 397.784C316.999 397.016 316.711 396.264 316.199 395.528C315.719 394.76 315.031 394.136 314.135 393.656C313.271 393.144 312.247 392.888 311.063 392.888C309.559 392.888 308.263 393.336 307.175 394.232C306.119 395.096 305.351 396.28 304.871 397.784H317.063Z" fill="black"/>
<defs>
<linearGradient id="paint0_linear_87_3" x1="191.525" y1="442.383" x2="302.13" y2="822.877" gradientUnits="userSpaceOnUse">
<stop stop-color="#FFCB32"/>
<stop offset="0.299" stop-color="#FFCB32"/>
<stop offset="0.744" stop-color="#34A853"/>
<stop offset="1" stop-color="#34A853"/>
</linearGradient>
<linearGradient id="paint1_linear_87_3" x1="136.541" y1="296" x2="379.707" y2="477.277" gradientUnits="userSpaceOnUse">
<stop offset="0.0253947" stop-color="#FFCB32"/>
<stop offset="0.265" stop-color="#FFCB32"/>
<stop offset="0.525" stop-color="#F46831"/>
<stop offset="0.77" stop-color="#EA4335"/>
<stop offset="1" stop-color="#EA4335"/>
</linearGradient>
</defs>
</svg>
