<svg width="245" height="245" viewBox="0 0 245 245" fill="none" xmlns="http://www.w3.org/2000/svg">
<path d="M82.379 87.8371C75.0665 88.0854 67.992 90.4975 62.0509 94.7682C56.1099 99.0389 51.5694 104.976 49.0041 111.828C46.4389 118.681 45.9641 126.14 47.6401 133.262C49.316 140.385 53.0672 146.849 58.4189 151.839L136.111 224.357C143.284 231.049 152.822 234.618 162.626 234.279C172.431 233.94 181.699 229.719 188.391 222.546C195.084 215.373 198.653 205.836 198.314 196.031C197.974 186.227 193.754 176.959 186.581 170.266L108.889 97.7596C105.342 94.441 101.173 91.856 96.624 90.1532C92.0746 88.4503 87.2336 87.6633 82.379 87.8371Z" fill="url(#paint0_linear_189_2296)" stroke="#282626" stroke-width="2" stroke-miterlimit="10"/>
<path d="M193.144 46.4185C192.896 39.1054 190.484 32.0304 186.213 26.0888C181.942 20.1473 176.005 15.6064 169.152 13.0411C162.299 10.4757 154.839 10.0012 147.717 11.6776C140.594 13.354 134.129 17.1059 129.14 22.4584L56.6335 100.151C53.319 103.702 50.7364 107.871 49.0331 112.42C47.3298 116.969 46.5392 121.809 46.7065 126.664C46.8738 131.518 47.9956 136.293 50.0079 140.714C52.0202 145.135 54.8837 149.116 58.4347 152.431C61.9857 155.745 66.1549 158.328 70.704 160.031C75.2531 161.735 80.0932 162.525 84.9479 162.358C89.8026 162.191 94.5768 161.069 98.9979 159.056C103.419 157.044 107.4 154.181 110.715 150.63L183.219 72.9284C186.539 69.3815 189.124 65.2135 190.827 60.664C192.531 56.1145 193.318 51.2732 193.144 46.4185Z" fill="url(#paint1_linear_189_2296)" stroke="#282626" stroke-width="2" stroke-miterlimit="10"/>
<defs>
<linearGradient id="paint0_linear_189_2296" x1="-2.15453" y1="26.8136" x2="171.833" y2="214.164" gradientUnits="userSpaceOnUse">
<stop stop-color="#FFCB32"/>
<stop offset="0.3" stop-color="#FFCB32"/>
<stop offset="0.35" stop-color="#FAC330"/>
<stop offset="0.38" stop-color="#F6BB2E"/>
<stop offset="0.47" stop-color="#F4A72F"/>
<stop offset="0.66" stop-color="#EF7233"/>
<stop offset="0.68" stop-color="#EE6934"/>
<stop offset="0.86" stop-color="#E74435"/>
</linearGradient>
<linearGradient id="paint1_linear_189_2296" x1="240.479" y1="-19.4443" x2="-16.6908" y2="206.592" gradientUnits="userSpaceOnUse">
<stop stop-color="#FFCB32"/>
<stop offset="0.3" stop-color="#FFCB32"/>
<stop offset="0.35" stop-color="#FAC330"/>
<stop offset="0.38" stop-color="#F6BB2E"/>
<stop offset="0.47" stop-color="#F4A72F"/>
<stop offset="0.66" stop-color="#EF7233"/>
<stop offset="0.68" stop-color="#EE6934"/>
<stop offset="0.86" stop-color="#E74435"/>
</linearGradient>
</defs>
</svg>
