<svg width="245" height="245" viewBox="0 0 245 245" fill="none" xmlns="http://www.w3.org/2000/svg">
<path d="M163.209 87.3379C170.624 87.5962 177.797 90.047 183.82 94.3806C189.843 98.7142 194.447 104.736 197.048 111.685C199.65 118.634 200.133 126.199 198.437 133.423C196.741 140.646 192.941 147.205 187.518 152.27L108.689 225.836C101.413 232.626 91.7371 236.248 81.7903 235.904C71.8436 235.561 62.4407 231.28 55.6502 224.004C48.8597 216.727 45.2378 207.052 45.5813 197.105C45.9249 187.158 50.2057 177.755 57.482 170.965L136.311 97.3988C139.91 94.0325 144.14 91.4106 148.756 89.6841C153.372 87.9575 158.283 87.1602 163.209 87.3379Z" fill="url(#paint0_linear_189_2306)" stroke="#282626" stroke-width="2" stroke-miterlimit="10"/>
<path d="M50.8148 45.3046C51.0693 37.8851 53.5187 30.7079 57.8532 24.6808C62.1877 18.6538 68.2125 14.0478 75.1653 11.4457C82.1181 8.84353 89.6866 8.36213 96.913 10.0624C104.14 11.7626 110.699 15.5681 115.763 20.9974L189.328 99.8148C196.12 107.091 199.743 116.767 199.4 126.715C199.058 136.663 194.777 146.067 187.501 152.858C180.225 159.65 170.548 163.273 160.601 162.931C150.653 162.588 141.249 158.308 134.457 151.031L60.8916 72.2047C57.5234 68.6053 54.8993 64.3761 53.17 59.7598C51.4407 55.1435 50.6404 50.2311 50.8148 45.3046Z" fill="url(#paint1_linear_189_2306)" stroke="#282626" stroke-width="2" stroke-miterlimit="10"/>
<defs>
<linearGradient id="paint0_linear_189_2306" x1="249.032" y1="26.3914" x2="72.3017" y2="216.315" gradientUnits="userSpaceOnUse">
<stop stop-color="#FFCB32"/>
<stop offset="0.3" stop-color="#FFCB32"/>
<stop offset="0.35" stop-color="#FAC330"/>
<stop offset="0.38" stop-color="#F6BB2E"/>
<stop offset="0.47" stop-color="#F4A72F"/>
<stop offset="0.66" stop-color="#EF7233"/>
<stop offset="0.68" stop-color="#EE6934"/>
<stop offset="0.86" stop-color="#E74435"/>
</linearGradient>
<linearGradient id="paint1_linear_189_2306" x1="2.88468" y1="-20.7895" x2="263.598" y2="208.821" gradientUnits="userSpaceOnUse">
<stop stop-color="#FFCB32"/>
<stop offset="0.3" stop-color="#FFCB32"/>
<stop offset="0.35" stop-color="#FAC330"/>
<stop offset="0.38" stop-color="#F6BB2E"/>
<stop offset="0.47" stop-color="#F4A72F"/>
<stop offset="0.66" stop-color="#EF7233"/>
<stop offset="0.68" stop-color="#EE6934"/>
<stop offset="0.86" stop-color="#E74435"/>
</linearGradient>
</defs>
</svg>
