<svg width="670" height="88" viewBox="0 0 670 88" fill="none" xmlns="http://www.w3.org/2000/svg">
<path d="M122.231 58.9284H115.166V56.1934H132.249V58.9284H125.219V80.3691H122.231V58.9284Z" fill="#6D6D6D"/>
<path d="M139.204 80.9093C137.892 80.9093 136.72 80.6617 135.689 80.1665C134.658 79.6713 133.861 78.996 133.299 78.1406C132.737 77.2627 132.455 76.2723 132.455 75.1693C132.455 73.346 133.17 71.9279 134.6 70.9149C136.029 69.8795 137.833 69.3617 140.013 69.3617C141.091 69.3617 142.087 69.4743 143 69.6994C143.938 69.9245 144.653 70.1834 145.145 70.476V69.4293C145.145 68.1462 144.676 67.122 143.739 66.3567C142.801 65.5688 141.618 65.1749 140.188 65.1749C139.181 65.1749 138.255 65.3887 137.412 65.8164C136.568 66.2216 135.9 66.7956 135.408 67.5384L133.158 65.9177C133.861 64.8823 134.822 64.0719 136.041 63.4866C137.283 62.9014 138.654 62.6087 140.153 62.6087C142.59 62.6087 144.5 63.2278 145.883 64.4658C147.289 65.6814 147.992 67.3471 147.992 69.463V80.3691H145.145V77.9043H145.004C144.488 78.7371 143.715 79.4462 142.684 80.0315C141.653 80.6167 140.493 80.9093 139.204 80.9093ZM139.485 78.377C140.493 78.377 141.43 78.1294 142.297 77.6341C143.165 77.1389 143.856 76.4749 144.371 75.642C144.887 74.8091 145.145 73.8975 145.145 72.9071C144.582 72.5469 143.891 72.2543 143.071 72.0292C142.251 71.8041 141.384 71.6915 140.47 71.6915C138.829 71.6915 137.587 72.0179 136.744 72.6707C135.924 73.3235 135.513 74.1676 135.513 75.2031C135.513 76.1485 135.888 76.9138 136.638 77.4991C137.388 78.0843 138.337 78.377 139.485 78.377Z" fill="#6D6D6D"/>
<path d="M152.851 63.149H155.698V65.9177H155.839C156.191 64.9723 156.87 64.1957 157.878 63.5879C158.885 62.9577 159.94 62.6425 161.041 62.6425C161.861 62.6425 162.564 62.7551 163.15 62.9802V66.0865C162.4 65.7264 161.557 65.5463 160.619 65.5463C159.752 65.5463 158.956 65.7827 158.229 66.2554C157.503 66.7281 156.917 67.3696 156.472 68.18C156.05 68.9678 155.839 69.8232 155.839 70.7461V80.3691H152.851V63.149Z" fill="#6D6D6D"/>
<path d="M168.493 59.9751C167.907 59.9751 167.403 59.7725 166.982 59.3673C166.56 58.9621 166.349 58.4782 166.349 57.9154C166.349 57.3527 166.56 56.88 166.982 56.4973C167.403 56.0921 167.907 55.8895 168.493 55.8895C169.079 55.8895 169.583 56.0921 170.005 56.4973C170.426 56.88 170.637 57.3527 170.637 57.9154C170.637 58.4782 170.426 58.9621 170.005 59.3673C169.606 59.7725 169.102 59.9751 168.493 59.9751ZM167.017 63.149H169.969V80.3691H167.017V63.149Z" fill="#6D6D6D"/>
<path d="M177.125 59.9751C176.54 59.9751 176.036 59.7725 175.614 59.3673C175.192 58.9621 174.981 58.4782 174.981 57.9154C174.981 57.3527 175.192 56.88 175.614 56.4973C176.036 56.0921 176.54 55.8895 177.125 55.8895C177.711 55.8895 178.215 56.0921 178.637 56.4973C179.059 56.88 179.27 57.3527 179.27 57.9154C179.27 58.4782 179.059 58.9621 178.637 59.3673C178.239 59.7725 177.735 59.9751 177.125 59.9751ZM173.681 88C173.118 88 172.591 87.9212 172.099 87.7636V85.0287C172.286 85.1412 172.521 85.2313 172.802 85.2988C173.083 85.3663 173.341 85.4001 173.575 85.4001C174.302 85.4001 174.829 85.175 175.157 84.7248C175.485 84.2971 175.649 83.6556 175.649 82.8002V63.149H178.602V82.8002C178.602 84.5335 178.168 85.8278 177.301 86.6832C176.434 87.561 175.227 88 173.681 88Z" fill="#6D6D6D"/>
<path d="M189.558 80.9093C188.246 80.9093 187.074 80.6617 186.043 80.1665C185.012 79.6713 184.215 78.996 183.653 78.1406C183.091 77.2627 182.809 76.2723 182.809 75.1693C182.809 73.346 183.524 71.9279 184.953 70.9149C186.383 69.8795 188.187 69.3617 190.367 69.3617C191.445 69.3617 192.44 69.4743 193.354 69.6994C194.292 69.9245 195.006 70.1834 195.499 70.476V69.4293C195.499 68.1462 195.03 67.122 194.092 66.3567C193.155 65.5688 191.972 65.1749 190.542 65.1749C189.535 65.1749 188.609 65.3887 187.765 65.8164C186.922 66.2216 186.254 66.7956 185.762 67.5384L183.512 65.9177C184.215 64.8823 185.176 64.0719 186.395 63.4866C187.637 62.9014 189.007 62.6087 190.507 62.6087C192.944 62.6087 194.854 63.2278 196.237 64.4658C197.643 65.6814 198.346 67.3471 198.346 69.463V80.3691H195.499V77.9043H195.358C194.842 78.7371 194.069 79.4462 193.038 80.0315C192.007 80.6167 190.847 80.9093 189.558 80.9093ZM189.839 78.377C190.847 78.377 191.784 78.1294 192.651 77.6341C193.518 77.1389 194.21 76.4749 194.725 75.642C195.241 74.8091 195.499 73.8975 195.499 72.9071C194.936 72.5469 194.245 72.2543 193.425 72.0292C192.604 71.8041 191.737 71.6915 190.824 71.6915C189.183 71.6915 187.941 72.0179 187.098 72.6707C186.277 73.3235 185.867 74.1676 185.867 75.2031C185.867 76.1485 186.242 76.9138 186.992 77.4991C187.742 78.0843 188.691 78.377 189.839 78.377Z" fill="#6D6D6D"/>
<path d="M3.85217 16.3292L30.9869 0.973348C34.5979 -1.04716 39.3439 0.165147 41.5105 3.80207C43.6771 7.43899 42.3358 11.9851 38.6216 14.1067L23.0425 22.9969L3.85217 16.3292Z" fill="#EA4335"/>
<path d="M30.9864 44.7172L3.85177 29.3613C0.137527 27.3408 -1.1005 22.6936 1.06614 19.0567C3.12961 15.5208 7.87554 14.2075 11.5898 16.329L38.6212 31.6849C42.3354 33.7054 43.6767 38.3526 41.5101 41.9895C40.0657 44.4141 37.4863 45.7275 34.8038 45.7275C33.4626 45.7275 32.2245 45.4244 30.9864 44.7172Z" fill="#4285F4"/>
<path d="M55.0264 41.9899C52.9629 38.353 54.201 33.7058 57.9153 31.6853L73.8039 22.593L92.6847 29.3617L65.6533 44.7176C64.4152 45.4248 63.0739 45.7279 61.7327 45.7279C59.0501 45.7279 56.4708 44.4145 55.0264 41.9899V41.9899Z" fill="#FBBC04"/>
<path d="M84.9467 29.3615L57.9153 14.1067C54.201 11.9851 52.9629 7.43899 55.0264 3.80207C57.193 0.165147 61.9391 -1.04716 65.6533 0.973349L92.6847 16.3292C96.399 18.4508 97.637 22.9969 95.4703 26.6339C94.1291 29.0585 91.4467 30.3718 88.8673 30.3718C87.5261 30.3718 86.1848 30.0687 84.9467 29.3615V29.3615Z" fill="#0F9D58"/>
<path d="M134.609 41.46C131.188 41.46 128.038 40.6301 125.159 38.9703C122.279 37.3106 119.993 35.0242 118.299 32.1112C116.606 29.1981 115.759 25.9803 115.759 22.4575C115.759 18.9348 116.606 15.7169 118.299 12.8039C119.993 9.89084 122.279 7.60445 125.159 5.9447C128.038 4.28495 131.188 3.45508 134.609 3.45508C137.285 3.45508 139.792 3.92929 142.129 4.87772C144.5 5.82615 146.447 7.16411 147.972 8.89161L144.872 11.9909C143.721 10.5683 142.247 9.48438 140.452 8.73918C138.657 7.96011 136.726 7.57058 134.66 7.57058C132.086 7.57058 129.681 8.19722 127.445 9.4505C125.243 10.6699 123.465 12.4143 122.11 14.6838C120.789 16.9194 120.129 19.5106 120.129 22.4575C120.129 25.4044 120.789 28.0126 122.11 30.2821C123.465 32.5176 125.26 34.2621 127.496 35.5154C129.731 36.7348 132.119 37.3445 134.66 37.3445C137.099 37.3445 139.131 36.9719 140.757 36.2267C142.417 35.4476 143.839 34.4314 145.025 33.1782C145.906 32.2297 146.617 31.095 147.159 29.774C147.701 28.4191 148.039 26.9287 148.175 25.3028H134.711V21.2889H152.189C152.358 22.2374 152.443 23.118 152.443 23.931C152.443 26.1666 152.087 28.3513 151.376 30.4853C150.665 32.5854 149.53 34.4314 147.972 36.0234C144.618 39.6478 140.164 41.46 134.609 41.46Z" fill="#6D6D6D"/>
<path d="M167.665 41.46C165.124 41.46 162.838 40.8503 160.806 39.6309C158.773 38.4114 157.181 36.7517 156.03 34.6516C154.912 32.5515 154.353 30.2312 154.353 27.6908C154.353 25.1504 154.912 22.8301 156.03 20.73C157.181 18.6299 158.773 16.9702 160.806 15.7508C162.838 14.5314 165.124 13.9217 167.665 13.9217C170.205 13.9217 172.492 14.5314 174.524 15.7508C176.556 16.9702 178.131 18.6299 179.249 20.73C180.401 22.8301 180.977 25.1504 180.977 27.6908C180.977 30.2312 180.401 32.5515 179.249 34.6516C178.131 36.7517 176.556 38.4114 174.524 39.6309C172.492 40.8503 170.205 41.46 167.665 41.46ZM167.665 37.5477C169.257 37.5477 170.73 37.1582 172.085 36.3791C173.474 35.5662 174.575 34.4145 175.388 32.9241C176.235 31.4337 176.658 29.6893 176.658 27.6908C176.658 25.6923 176.235 23.9479 175.388 22.4575C174.575 20.9671 173.474 19.8324 172.085 19.0533C170.73 18.2404 169.257 17.8339 167.665 17.8339C166.073 17.8339 164.582 18.2404 163.194 19.0533C161.805 19.8324 160.687 20.9671 159.84 22.4575C159.027 23.9479 158.621 25.6923 158.621 27.6908C158.621 29.6893 159.027 31.4337 159.84 32.9241C160.687 34.4145 161.805 35.5662 163.194 36.3791C164.582 37.1582 166.073 37.5477 167.665 37.5477Z" fill="#6D6D6D"/>
<path d="M195.899 41.46C193.359 41.46 191.073 40.8503 189.04 39.6309C187.008 38.4114 185.416 36.7517 184.264 34.6516C183.146 32.5515 182.588 30.2312 182.588 27.6908C182.588 25.1504 183.146 22.8301 184.264 20.73C185.416 18.6299 187.008 16.9702 189.04 15.7508C191.073 14.5314 193.359 13.9217 195.899 13.9217C198.44 13.9217 200.726 14.5314 202.759 15.7508C204.791 16.9702 206.366 18.6299 207.484 20.73C208.635 22.8301 209.211 25.1504 209.211 27.6908C209.211 30.2312 208.635 32.5515 207.484 34.6516C206.366 36.7517 204.791 38.4114 202.759 39.6309C200.726 40.8503 198.44 41.46 195.899 41.46ZM195.899 37.5477C197.491 37.5477 198.965 37.1582 200.32 36.3791C201.709 35.5662 202.809 34.4145 203.622 32.9241C204.469 31.4337 204.893 29.6893 204.893 27.6908C204.893 25.6923 204.469 23.9479 203.622 22.4575C202.809 20.9671 201.709 19.8324 200.32 19.0533C198.965 18.2404 197.491 17.8339 195.899 17.8339C194.307 17.8339 192.817 18.2404 191.428 19.0533C190.039 19.8324 188.922 20.9671 188.075 22.4575C187.262 23.9479 186.855 25.6923 186.855 27.6908C186.855 29.6893 187.262 31.4337 188.075 32.9241C188.922 34.4145 190.039 35.5662 191.428 36.3791C192.817 37.1582 194.307 37.5477 195.899 37.5477Z" fill="#6D6D6D"/>
<path d="M223.575 52.4346C220.527 52.4346 218.003 51.7233 216.005 50.3007C214.04 48.878 212.719 47.1675 212.041 45.169L215.954 43.4923C216.53 44.9827 217.478 46.1852 218.799 47.0997C220.154 48.0482 221.746 48.5224 223.575 48.5224C226.251 48.5224 228.317 47.7433 229.774 46.1852C231.264 44.627 232.009 42.4253 232.009 39.58V36.684H231.806C230.959 38.005 229.757 39.0889 228.199 39.9357C226.674 40.7486 224.93 41.1551 222.965 41.1551C220.73 41.1551 218.68 40.5793 216.817 39.4276C214.988 38.276 213.532 36.667 212.448 34.6008C211.364 32.5346 210.822 30.1804 210.822 27.5384C210.822 24.9302 211.364 22.593 212.448 20.5268C213.532 18.4267 214.988 16.8008 216.817 15.6492C218.68 14.4975 220.73 13.9217 222.965 13.9217C224.93 13.9217 226.674 14.3451 228.199 15.1919C229.757 16.0048 230.959 17.0887 231.806 18.4436H232.009V14.7346H236.125V39.6309C236.125 43.7972 234.973 46.9642 232.67 49.1321C230.366 51.3338 227.335 52.4346 223.575 52.4346ZM223.575 37.2428C225.133 37.2428 226.539 36.8533 227.792 36.0742C229.079 35.2952 230.095 34.1774 230.841 32.7209C231.62 31.2644 232.009 29.5369 232.009 27.5384C232.009 25.506 231.62 23.7616 230.841 22.3051C230.095 20.8486 229.079 19.7477 227.792 19.0025C226.539 18.2235 225.133 17.8339 223.575 17.8339C222.017 17.8339 220.594 18.2235 219.307 19.0025C218.02 19.7816 216.987 20.8994 216.208 22.3559C215.463 23.8124 215.09 25.5399 215.09 27.5384C215.09 29.5369 215.463 31.2813 216.208 32.7717C216.987 34.2282 218.02 35.346 219.307 36.1251C220.594 36.8702 222.017 37.2428 223.575 37.2428Z" fill="#6D6D6D"/>
<path d="M240.478 4.26802H244.797V40.647H240.478V4.26802Z" fill="#6D6D6D"/>
<path d="M260.449 41.46C257.976 41.46 255.757 40.8672 253.793 39.6817C251.828 38.4961 250.287 36.8703 249.169 34.804C248.085 32.7039 247.543 30.3498 247.543 27.7416C247.543 25.2351 248.051 22.9317 249.067 20.8316C250.118 18.7316 251.591 17.0549 253.488 15.8016C255.385 14.5483 257.586 13.9217 260.093 13.9217C262.633 13.9217 264.835 14.4975 266.698 15.6492C268.561 16.767 269.984 18.3251 270.966 20.3236C271.982 22.322 272.49 24.6084 272.49 27.1827C272.49 27.6908 272.439 28.1312 272.338 28.5038H251.862C251.964 30.4684 252.438 32.1281 253.285 33.483C254.131 34.8379 255.198 35.8541 256.486 36.5315C257.807 37.209 259.178 37.5477 260.601 37.5477C263.921 37.5477 266.478 35.9896 268.273 32.8733L271.931 34.6516C270.814 36.7517 269.289 38.4114 267.359 39.6309C265.462 40.8503 263.158 41.46 260.449 41.46ZM267.918 24.9471C267.85 23.8632 267.545 22.7793 267.003 21.6954C266.461 20.6115 265.597 19.6969 264.412 18.9517C263.26 18.2065 261.804 17.8339 260.042 17.8339C258.01 17.8339 256.282 18.4944 254.86 19.8155C253.471 21.1026 252.556 22.8132 252.116 24.9471H267.918Z" fill="#6D6D6D"/>
<path d="M287.169 4.26802H298.143C301.869 4.26802 305.121 5.04708 307.899 6.60522C310.676 8.12948 312.81 10.2634 314.301 13.0071C315.791 15.7508 316.536 18.9009 316.536 22.4575C316.536 26.0141 315.791 29.1643 314.301 31.9079C312.81 34.6516 310.676 36.8025 307.899 38.3606C305.121 39.8849 301.869 40.647 298.143 40.647H287.169V4.26802ZM298.143 36.5315C302.445 36.5315 305.849 35.2952 308.356 32.8225C310.896 30.3498 312.167 26.8948 312.167 22.4575C312.167 18.0202 310.896 14.5652 308.356 12.0926C305.849 9.61986 302.445 8.38352 298.143 8.38352H291.437V36.5315H298.143Z" fill="#6D6D6D"/>
<path d="M330.787 41.46C328.314 41.46 326.096 40.8672 324.131 39.6817C322.166 38.4961 320.625 36.8703 319.507 34.804C318.423 32.7039 317.881 30.3498 317.881 27.7416C317.881 25.2351 318.39 22.9317 319.406 20.8316C320.456 18.7316 321.929 17.0549 323.826 15.8016C325.723 14.5483 327.925 13.9217 330.431 13.9217C332.972 13.9217 335.173 14.4975 337.036 15.6492C338.899 16.767 340.322 18.3251 341.304 20.3236C342.32 22.322 342.829 24.6084 342.829 27.1827C342.829 27.6908 342.778 28.1312 342.676 28.5038H322.2C322.302 30.4684 322.776 32.1281 323.623 33.483C324.47 34.8379 325.537 35.8541 326.824 36.5315C328.145 37.209 329.517 37.5477 330.939 37.5477C334.259 37.5477 336.816 35.9896 338.611 32.8733L342.27 34.6516C341.152 36.7517 339.628 38.4114 337.697 39.6309C335.8 40.8503 333.497 41.46 330.787 41.46ZM338.256 24.9471C338.188 23.8632 337.883 22.7793 337.341 21.6954C336.799 20.6115 335.936 19.6969 334.75 18.9517C333.598 18.2065 332.142 17.8339 330.38 17.8339C328.348 17.8339 326.621 18.4944 325.198 19.8155C323.809 21.1026 322.895 22.8132 322.454 24.9471H338.256Z" fill="#6D6D6D"/>
<path d="M342.509 14.7346H347.133L355.16 35.5662H355.262L363.391 14.7346H367.913L357.345 40.647H352.976L342.509 14.7346Z" fill="#6D6D6D"/>
<path d="M380.21 41.46C377.738 41.46 375.519 40.8672 373.554 39.6817C371.59 38.4961 370.049 36.8703 368.931 34.804C367.847 32.7039 367.305 30.3498 367.305 27.7416C367.305 25.2351 367.813 22.9317 368.829 20.8316C369.879 18.7316 371.353 17.0549 373.249 15.8016C375.146 14.5483 377.348 13.9217 379.855 13.9217C382.395 13.9217 384.597 14.4975 386.46 15.6492C388.323 16.767 389.745 18.3251 390.728 20.3236C391.744 22.322 392.252 24.6084 392.252 27.1827C392.252 27.6908 392.201 28.1312 392.099 28.5038H371.624C371.725 30.4684 372.199 32.1281 373.046 33.483C373.893 34.8379 374.96 35.8541 376.247 36.5315C377.568 37.209 378.94 37.5477 380.363 37.5477C383.682 37.5477 386.24 35.9896 388.035 32.8733L391.693 34.6516C390.575 36.7517 389.051 38.4114 387.12 39.6309C385.223 40.8503 382.92 41.46 380.21 41.46ZM387.679 24.9471C387.611 23.8632 387.307 22.7793 386.765 21.6954C386.223 20.6115 385.359 19.6969 384.173 18.9517C383.022 18.2065 381.565 17.8339 379.804 17.8339C377.771 17.8339 376.044 18.4944 374.621 19.8155C373.233 21.1026 372.318 22.8132 371.878 24.9471H387.679Z" fill="#6D6D6D"/>
<path d="M395.274 4.26802H399.593V40.647H395.274V4.26802Z" fill="#6D6D6D"/>
<path d="M415.651 41.46C413.11 41.46 410.824 40.8503 408.792 39.6309C406.759 38.4114 405.167 36.7517 404.016 34.6516C402.898 32.5515 402.339 30.2312 402.339 27.6908C402.339 25.1504 402.898 22.8301 404.016 20.73C405.167 18.6299 406.759 16.9702 408.792 15.7508C410.824 14.5314 413.11 13.9217 415.651 13.9217C418.191 13.9217 420.478 14.5314 422.51 15.7508C424.542 16.9702 426.117 18.6299 427.235 20.73C428.387 22.8301 428.963 25.1504 428.963 27.6908C428.963 30.2312 428.387 32.5515 427.235 34.6516C426.117 36.7517 424.542 38.4114 422.51 39.6309C420.478 40.8503 418.191 41.46 415.651 41.46ZM415.651 37.5477C417.243 37.5477 418.716 37.1582 420.071 36.3791C421.46 35.5662 422.561 34.4145 423.374 32.9241C424.221 31.4337 424.644 29.6893 424.644 27.6908C424.644 25.6923 424.221 23.9479 423.374 22.4575C422.561 20.9671 421.46 19.8324 420.071 19.0533C418.716 18.2404 417.243 17.8339 415.651 17.8339C414.059 17.8339 412.568 18.2404 411.18 19.0533C409.791 19.8324 408.673 20.9671 407.826 22.4575C407.013 23.9479 406.607 25.6923 406.607 27.6908C406.607 29.6893 407.013 31.4337 407.826 32.9241C408.673 34.4145 409.791 35.5662 411.18 36.3791C412.568 37.1582 414.059 37.5477 415.651 37.5477Z" fill="#6D6D6D"/>
<path d="M431.494 14.7346H435.61V18.5961H435.813C436.592 17.275 437.76 16.1742 439.319 15.2935C440.911 14.3789 442.689 13.9217 444.653 13.9217C446.957 13.9217 449.057 14.5144 450.954 15.7C452.851 16.8855 454.341 18.5283 455.425 20.6284C456.509 22.7285 457.051 25.0826 457.051 27.6908C457.051 30.3329 456.509 32.7039 455.425 34.804C454.341 36.8703 452.851 38.4961 450.954 39.6817C449.057 40.8672 446.957 41.46 444.653 41.46C442.689 41.46 440.911 41.0196 439.319 40.1389C437.76 39.2244 436.592 38.1235 435.813 36.8364H435.61L435.813 40.393V51.6217H431.494V14.7346ZM444.145 37.5477C445.636 37.5477 447.041 37.1412 448.363 36.3283C449.684 35.5154 450.734 34.3637 451.513 32.8733C452.326 31.349 452.732 29.6215 452.732 27.6908C452.732 25.7601 452.326 24.0495 451.513 22.5591C450.734 21.0349 449.684 19.8663 448.363 19.0533C447.041 18.2404 445.636 17.8339 444.145 17.8339C442.655 17.8339 441.249 18.2404 439.928 19.0533C438.607 19.8663 437.557 21.0179 436.778 22.5083C435.999 23.9987 435.61 25.7262 435.61 27.6908C435.61 29.6554 435.999 31.3829 436.778 32.8733C437.557 34.3637 438.607 35.5154 439.928 36.3283C441.249 37.1412 442.655 37.5477 444.145 37.5477Z" fill="#6D6D6D"/>
<path d="M471.565 41.46C469.092 41.46 466.873 40.8672 464.909 39.6817C462.944 38.4961 461.403 36.8703 460.285 34.804C459.201 32.7039 458.659 30.3498 458.659 27.7416C458.659 25.2351 459.167 22.9317 460.183 20.8316C461.234 18.7316 462.707 17.0549 464.604 15.8016C466.501 14.5483 468.702 13.9217 471.209 13.9217C473.749 13.9217 475.951 14.4975 477.814 15.6492C479.677 16.767 481.1 18.3251 482.082 20.3236C483.098 22.322 483.606 24.6084 483.606 27.1827C483.606 27.6908 483.555 28.1312 483.454 28.5038H462.978C463.08 30.4684 463.554 32.1281 464.401 33.483C465.247 34.8379 466.314 35.8541 467.602 36.5315C468.923 37.209 470.294 37.5477 471.717 37.5477C475.037 37.5477 477.594 35.9896 479.389 32.8733L483.047 34.6516C481.93 36.7517 480.405 38.4114 478.475 39.6309C476.578 40.8503 474.274 41.46 471.565 41.46ZM479.033 24.9471C478.966 23.8632 478.661 22.7793 478.119 21.6954C477.577 20.6115 476.713 19.6969 475.528 18.9517C474.376 18.2065 472.92 17.8339 471.158 17.8339C469.126 17.8339 467.398 18.4944 465.976 19.8155C464.587 21.1026 463.672 22.8132 463.232 24.9471H479.033Z" fill="#6D6D6D"/>
<path d="M486.628 14.7346H490.744V18.9009H490.947C491.455 17.4783 492.437 16.3097 493.894 15.3951C495.35 14.4467 496.875 13.9725 498.467 13.9725C499.652 13.9725 500.668 14.1418 501.515 14.4806V19.155C500.431 18.613 499.212 18.342 497.857 18.342C496.604 18.342 495.452 18.6977 494.402 19.409C493.352 20.1203 492.505 21.0857 491.862 22.3051C491.252 23.4906 490.947 24.7778 490.947 26.1666V40.647H486.628V14.7346Z" fill="#6D6D6D"/>
<path d="M531.385 41.46C527.964 41.46 524.814 40.6301 521.935 38.9703C519.056 37.3106 516.769 35.0242 515.075 32.1112C513.382 29.1981 512.535 25.9803 512.535 22.4575C512.535 18.9348 513.382 15.7169 515.075 12.8039C516.769 9.89084 519.056 7.60445 521.935 5.9447C524.814 4.28495 527.964 3.45508 531.385 3.45508C534.061 3.45508 536.568 3.92929 538.905 4.87772C541.276 5.82615 543.224 7.16411 544.748 8.89161L541.648 11.9909C540.497 10.5683 539.023 9.48438 537.228 8.73918C535.433 7.96011 533.502 7.57058 531.436 7.57058C528.862 7.57058 526.457 8.19722 524.221 9.4505C522.019 10.6699 520.241 12.4143 518.886 14.6838C517.565 16.9194 516.905 19.5106 516.905 22.4575C516.905 25.4044 517.565 28.0126 518.886 30.2821C520.241 32.5176 522.036 34.2621 524.272 35.5154C526.507 36.7348 528.895 37.3445 531.436 37.3445C533.875 37.3445 535.907 36.9719 537.533 36.2267C539.193 35.4476 540.615 34.4314 541.801 33.1782C542.682 32.2297 543.393 31.095 543.935 29.774C544.477 28.4191 544.816 26.9287 544.951 25.3028H531.487V21.2889H548.965C549.134 22.2374 549.219 23.118 549.219 23.931C549.219 26.1666 548.863 28.3513 548.152 30.4853C547.441 32.5854 546.306 34.4314 544.748 36.0234C541.394 39.6478 536.94 41.46 531.385 41.46Z" fill="#6D6D6D"/>
<path d="M551.757 14.7346H555.872V18.9009H556.075C556.583 17.4783 557.566 16.3097 559.022 15.3951C560.479 14.4467 562.003 13.9725 563.595 13.9725C564.781 13.9725 565.797 14.1418 566.643 14.4806V19.155C565.56 18.613 564.34 18.342 562.985 18.342C561.732 18.342 560.58 18.6977 559.53 19.409C558.48 20.1203 557.633 21.0857 556.99 22.3051C556.38 23.4906 556.075 24.7778 556.075 26.1666V40.647H551.757V14.7346Z" fill="#6D6D6D"/>
<path d="M579.179 41.46C576.639 41.46 574.353 40.8503 572.32 39.6309C570.288 38.4114 568.696 36.7517 567.544 34.6516C566.426 32.5515 565.867 30.2312 565.867 27.6908C565.867 25.1504 566.426 22.8301 567.544 20.73C568.696 18.6299 570.288 16.9702 572.32 15.7508C574.353 14.5314 576.639 13.9217 579.179 13.9217C581.72 13.9217 584.006 14.5314 586.039 15.7508C588.071 16.9702 589.646 18.6299 590.764 20.73C591.915 22.8301 592.491 25.1504 592.491 27.6908C592.491 30.2312 591.915 32.5515 590.764 34.6516C589.646 36.7517 588.071 38.4114 586.039 39.6309C584.006 40.8503 581.72 41.46 579.179 41.46ZM579.179 37.5477C580.771 37.5477 582.245 37.1582 583.6 36.3791C584.988 35.5662 586.089 34.4145 586.902 32.9241C587.749 31.4337 588.172 29.6893 588.172 27.6908C588.172 25.6923 587.749 23.9479 586.902 22.4575C586.089 20.9671 584.988 19.8324 583.6 19.0533C582.245 18.2404 580.771 17.8339 579.179 17.8339C577.587 17.8339 576.097 18.2404 574.708 19.0533C573.319 19.8324 572.202 20.9671 571.355 22.4575C570.542 23.9479 570.135 25.6923 570.135 27.6908C570.135 29.6893 570.542 31.4337 571.355 32.9241C572.202 34.4145 573.319 35.5662 574.708 36.3791C576.097 37.1582 577.587 37.5477 579.179 37.5477Z" fill="#6D6D6D"/>
<path d="M604.625 41.46C601.509 41.46 599.121 40.5454 597.461 38.7163C595.835 36.8872 595.023 34.3298 595.023 31.0442V14.7346H599.341V30.3837C599.341 32.8564 599.9 34.6685 601.018 35.8202C602.136 36.9719 603.643 37.5477 605.54 37.5477C606.996 37.5477 608.284 37.1582 609.401 36.3791C610.553 35.6 611.434 34.5839 612.043 33.3306C612.687 32.0773 613.009 30.7563 613.009 29.3675V14.7346H617.328V40.647H613.212V36.8872H613.009C612.298 38.1743 611.163 39.2583 609.605 40.1389C608.047 41.0196 606.387 41.46 604.625 41.46Z" fill="#6D6D6D"/>
<path d="M621.471 14.7346H625.586V18.5961H625.79C626.569 17.275 627.737 16.1742 629.295 15.2935C630.887 14.3789 632.666 13.9217 634.63 13.9217C636.934 13.9217 639.034 14.5144 640.931 15.7C642.827 16.8855 644.318 18.5283 645.402 20.6284C646.486 22.7285 647.028 25.0826 647.028 27.6908C647.028 30.3329 646.486 32.7039 645.402 34.804C644.318 36.8703 642.827 38.4961 640.931 39.6817C639.034 40.8672 636.934 41.46 634.63 41.46C632.666 41.46 630.887 41.0196 629.295 40.1389C627.737 39.2244 626.569 38.1235 625.79 36.8364H625.586L625.79 40.393V51.6217H621.471V14.7346ZM634.122 37.5477C635.613 37.5477 637.018 37.1412 638.339 36.3283C639.66 35.5154 640.71 34.3637 641.489 32.8733C642.302 31.349 642.709 29.6215 642.709 27.6908C642.709 25.7601 642.302 24.0495 641.489 22.5591C640.71 21.0349 639.66 19.8663 638.339 19.0533C637.018 18.2404 635.613 17.8339 634.122 17.8339C632.632 17.8339 631.226 18.2404 629.905 19.0533C628.584 19.8663 627.534 21.0179 626.755 22.5083C625.976 23.9987 625.586 25.7262 625.586 27.6908C625.586 29.6554 625.976 31.3829 626.755 32.8733C627.534 34.3637 628.584 35.5154 629.905 36.3283C631.226 37.1412 632.632 37.5477 634.122 37.5477Z" fill="#6D6D6D"/>
<path d="M658.804 41.46C656.026 41.46 653.706 40.8164 651.843 39.5292C649.98 38.2082 648.659 36.5315 647.88 34.4992L651.741 32.7717C652.385 34.3298 653.333 35.5323 654.587 36.3791C655.874 37.2259 657.279 37.6493 658.804 37.6493C660.43 37.6493 661.818 37.3275 662.97 36.684C664.122 36.0065 664.698 35.0581 664.698 33.8387C664.698 32.7547 664.24 31.891 663.326 31.2474C662.411 30.57 660.972 29.9941 659.007 29.5199L655.857 28.707C653.791 28.1989 652.097 27.3352 650.776 26.1157C649.455 24.8963 648.794 23.3213 648.794 21.3905C648.794 19.9002 649.235 18.5961 650.115 17.4783C651.03 16.3266 652.232 15.4459 653.723 14.8362C655.213 14.2265 656.822 13.9217 658.55 13.9217C660.819 13.9217 662.834 14.4128 664.596 15.3951C666.391 16.3774 667.661 17.7493 668.406 19.5106L664.647 21.2381C663.495 18.9348 661.446 17.7831 658.499 17.7831C657.076 17.7831 655.823 18.1218 654.739 18.7993C653.689 19.4429 653.164 20.2728 653.164 21.2889C653.164 22.2374 653.536 23.0164 654.282 23.6261C655.027 24.202 656.145 24.6762 657.635 25.0488L661.395 26.0141C663.935 26.6577 665.849 27.6231 667.136 28.9102C668.423 30.1635 669.067 31.7047 669.067 33.5338C669.067 35.1258 668.61 36.5315 667.695 37.7509C666.781 38.9365 665.544 39.851 663.986 40.4946C662.428 41.1382 660.701 41.46 658.804 41.46Z" fill="#6D6D6D"/>
</svg>
