<svg width="883" height="225" viewBox="0 0 883 225" fill="none" xmlns="http://www.w3.org/2000/svg">
<path d="M112.644 22.6263L30.9817 81.3558C13.871 93.6615 9.96732 117.52 22.2626 134.645L22.3074 134.707C34.6027 151.833 58.4411 155.739 75.5518 143.434L157.214 84.7043C174.325 72.3986 178.228 48.5403 165.933 31.4151L165.888 31.3528C153.593 14.2276 129.755 10.3207 112.644 22.6263Z" fill="#EA4335" stroke="#1E1E1E" stroke-width="4" stroke-miterlimit="10"/>
<path d="M22.3133 90.0905L22.2685 90.1529C9.97318 107.278 13.8769 131.136 30.9876 143.442L112.65 202.172C129.76 214.477 153.599 210.57 165.894 193.445L165.939 193.383C178.234 176.258 174.331 152.399 157.22 140.094L75.5577 81.364C58.4469 69.0584 34.6086 72.9653 22.3133 90.0905Z" fill="#4285F4" stroke="#1E1E1E" stroke-width="4" stroke-miterlimit="10"/>
<path d="M309.79 81.3148L228.128 140.044C211.017 152.35 207.114 176.208 219.409 193.333L219.454 193.396C231.749 210.521 255.588 214.428 272.698 202.122L354.36 143.393C371.471 131.087 375.375 107.229 363.079 90.1036L363.035 90.0412C350.739 72.9161 326.901 69.0091 309.79 81.3148Z" fill="#F9AB00" stroke="#1E1E1E" stroke-width="4" stroke-miterlimit="10"/>
<path d="M219.446 31.3766L219.401 31.439C207.106 48.5641 211.01 72.4225 228.12 84.7281L309.783 143.458C326.893 155.763 350.732 151.856 363.027 134.731L363.072 134.669C375.367 117.544 371.463 93.6854 354.353 81.3797L272.69 22.6502C255.58 10.3445 231.741 14.2515 219.446 31.3766Z" fill="#34A853" stroke="#1E1E1E" stroke-width="4" stroke-miterlimit="10"/>
<path d="M863.387 108.583C860.254 108.583 857.368 108.13 854.729 107.223C852.09 106.233 849.946 104.914 848.297 103.264C844.421 99.5536 842.483 94.2761 842.483 87.4318V58.364H831.475V44.5105H842.483V26.6987H858.687V44.5105H874.149V58.364H858.687V84.4632C858.687 87.6792 859.388 89.9881 860.79 91.3899C861.944 92.7093 863.923 93.369 866.727 93.369C868.294 93.369 869.572 93.1629 870.561 92.7506C871.633 92.3382 872.994 91.6373 874.643 90.6478V106.48C871.097 107.882 867.345 108.583 863.387 108.583Z" fill="#1E1E1E"/>
<path d="M798.077 109.573C790.408 109.573 784.182 108.006 779.399 104.873C774.699 101.739 771.401 97.6574 769.504 92.6272L783.976 86.3189C785.295 89.2875 787.151 91.5552 789.542 93.122C792.016 94.6063 794.861 95.3485 798.077 95.3485C801.046 95.3485 803.519 94.8949 805.498 93.9878C807.478 92.9983 808.467 91.4315 808.467 89.2875C808.467 87.226 807.56 85.7004 805.746 84.7109C803.932 83.6389 801.21 82.6906 797.582 81.866L790.161 80.258C785.048 79.021 780.801 76.7946 777.42 73.5786C774.039 70.2801 772.349 66.1982 772.349 61.333C772.349 57.7047 773.421 54.4475 775.565 51.5613C777.791 48.6751 780.76 46.4487 784.471 44.8819C788.264 43.3151 792.428 42.5317 796.964 42.5317C809.993 42.5317 818.692 47.1084 823.063 56.2616L809.209 62.3225C806.735 57.8696 802.777 55.6432 797.335 55.6432C794.531 55.6432 792.305 56.1792 790.655 57.2512C789.006 58.2407 788.182 59.5188 788.182 61.0856C788.182 64.0542 790.985 66.2807 796.593 67.765L805.87 69.9915C812.137 71.5583 816.837 73.9496 819.97 77.1657C823.186 80.3817 824.795 84.3398 824.795 89.0401C824.795 93.0808 823.599 96.6679 821.207 99.8014C818.898 102.852 815.682 105.244 811.559 106.976C807.519 108.707 803.025 109.573 798.077 109.573Z" fill="#1E1E1E"/>
<path d="M730.44 109.573C724.173 109.573 718.524 108.13 713.494 105.244C708.464 102.358 704.506 98.3995 701.62 93.3694C698.816 88.2568 697.414 82.5257 697.414 76.1761C697.414 70.1564 698.816 64.5902 701.62 59.4776C704.423 54.2825 708.299 50.1594 713.247 47.1084C718.194 44.0573 723.719 42.5317 729.822 42.5317C736.336 42.5317 741.943 43.9336 746.644 46.7373C751.344 49.541 754.89 53.3755 757.281 58.2407C759.755 63.1059 760.992 68.5072 760.992 74.4444C760.992 76.341 760.868 78.1552 760.621 79.8869H713.247C714.071 84.9171 716.05 88.7515 719.184 91.3903C722.4 93.9466 726.234 95.2248 730.687 95.2248C734.398 95.2248 737.573 94.4414 740.212 92.8746C742.933 91.2254 745.077 89.0401 746.644 86.3189L759.755 92.7509C753.323 103.966 743.551 109.573 730.44 109.573ZM745.407 68.3835C745.242 66.4044 744.5 64.4666 743.18 62.5699C741.943 60.5909 740.17 58.9829 737.862 57.7459C735.635 56.4265 732.996 55.7668 729.945 55.7668C726.07 55.7668 722.73 56.9213 719.926 59.2302C717.205 61.4567 715.226 64.5078 713.989 68.3835H745.407Z" fill="#1E1E1E"/>
<path d="M635.945 19.0308H692.102V34.8634H652.644V56.3859H688.144V72.2186H652.644V107.595H635.945V19.0308Z" fill="#1E1E1E"/>
<path d="M555.158 44.5122H573.588L589.545 85.5781H590.534L606.738 44.5122H624.921L597.956 107.595H581.876L555.158 44.5122Z" fill="#1E1E1E"/>
<path d="M520.383 109.573C514.116 109.573 508.468 108.13 503.437 105.244C498.407 102.358 494.449 98.3995 491.563 93.3694C488.759 88.2568 487.357 82.5257 487.357 76.1761C487.357 70.1564 488.759 64.5902 491.563 59.4776C494.367 54.2825 498.242 50.1594 503.19 47.1084C508.138 44.0573 513.663 42.5317 519.765 42.5317C526.279 42.5317 531.887 43.9336 536.587 46.7373C541.287 49.541 544.833 53.3755 547.225 58.2407C549.698 63.1059 550.935 68.5072 550.935 74.4444C550.935 76.341 550.812 78.1552 550.564 79.8869H503.19C504.015 84.9171 505.994 88.7515 509.127 91.3903C512.343 93.9466 516.178 95.2248 520.631 95.2248C524.341 95.2248 527.516 94.4414 530.155 92.8746C532.876 91.2254 535.02 89.0401 536.587 86.3189L549.698 92.7509C543.266 103.966 533.495 109.573 520.383 109.573ZM535.35 68.3835C535.185 66.4044 534.443 64.4666 533.124 62.5699C531.887 60.5909 530.114 58.9829 527.805 57.7459C525.578 56.4265 522.94 55.7668 519.889 55.7668C516.013 55.7668 512.673 56.9213 509.869 59.2302C507.148 61.4567 505.169 64.5078 503.932 68.3835H535.35Z" fill="#1E1E1E"/>
<path d="M403.539 19.0308H433.473C442.708 19.0308 450.748 20.8862 457.593 24.5969C464.437 28.3077 469.715 33.5028 473.425 40.1822C477.136 46.8616 478.992 54.5718 478.992 63.3127C478.992 72.0536 477.136 79.7638 473.425 86.4432C469.715 93.1226 464.437 98.3177 457.593 102.028C450.748 105.739 442.708 107.595 433.473 107.595H403.539V19.0308ZM432.731 91.762C442.296 91.762 449.594 89.2469 454.624 84.2167C459.654 79.1041 462.169 72.1361 462.169 63.3127C462.169 54.4893 459.654 47.5625 454.624 42.5324C449.594 37.4197 442.296 34.8634 432.731 34.8634H420.238V91.762H432.731Z" fill="#1E1E1E"/>
<rect x="705.609" y="144" width="174.65" height="64.7117" rx="32.3559" fill="white" stroke="#1E1E1E" stroke-width="4"/>
<rect x="397.781" y="144" width="298.332" height="64.7117" rx="32.3559" fill="white" stroke="#1E1E1E" stroke-width="4"/>
<path fill-rule="evenodd" clip-rule="evenodd" d="M561.786 165.396C560.9 165.396 560.142 165.095 559.512 164.495C558.912 163.865 558.611 163.107 558.611 162.221C558.611 161.334 558.912 160.59 559.512 159.989C560.142 159.36 560.9 159.045 561.786 159.045C562.673 159.045 563.417 159.36 564.018 159.989C564.647 160.59 564.962 161.334 564.962 162.221C564.962 163.107 564.647 163.865 564.018 164.495C563.417 165.095 562.673 165.396 561.786 165.396ZM564.146 169V190.282H559.427V169H564.146ZM570.24 164.495C570.869 165.095 571.627 165.396 572.514 165.396C573.401 165.396 574.145 165.095 574.745 164.495C575.375 163.865 575.689 163.107 575.689 162.221C575.689 161.334 575.375 160.59 574.745 159.989C574.145 159.36 573.401 159.045 572.514 159.045C571.627 159.045 570.869 159.36 570.24 159.989C569.639 160.59 569.339 161.334 569.339 162.221C569.339 163.107 569.639 163.865 570.24 164.495ZM565.949 199.679C566.664 199.879 567.437 199.979 568.266 199.979C570.269 199.979 571.87 199.393 573.072 198.22C574.273 197.047 574.874 195.245 574.874 192.814V169H570.154V192.728C570.154 193.7 569.983 194.43 569.639 194.916C569.296 195.402 568.724 195.645 567.923 195.645C567.236 195.645 566.579 195.474 565.949 195.131V199.679ZM582.987 190.067C584.217 190.668 585.59 190.968 587.106 190.968C588.565 190.968 589.823 190.668 590.882 190.067C591.94 189.438 592.812 188.637 593.499 187.664H593.756V190.282H598.347V177.238C598.347 174.406 597.489 172.218 595.773 170.673C594.085 169.1 591.683 168.313 588.565 168.313C586.677 168.313 584.975 168.671 583.459 169.386C581.971 170.101 580.727 171.131 579.726 172.475L583.33 174.964C584.646 173.19 586.391 172.303 588.565 172.303C589.995 172.303 591.211 172.732 592.212 173.591C593.241 174.42 593.756 175.479 593.756 176.766V177.667C592.154 176.894 590.224 176.508 587.964 176.508C585.389 176.508 583.258 177.152 581.571 178.439C579.912 179.726 579.082 181.486 579.082 183.717C579.082 185.118 579.425 186.377 580.112 187.493C580.827 188.58 581.785 189.438 582.987 190.067ZM590.796 186.291C589.909 186.806 588.936 187.064 587.878 187.064C586.791 187.064 585.847 186.763 585.046 186.162C584.274 185.533 583.888 184.732 583.888 183.76C583.888 182.701 584.331 181.829 585.218 181.142C586.105 180.456 587.335 180.113 588.908 180.113C590.624 180.113 592.24 180.527 593.756 181.357C593.756 182.358 593.485 183.302 592.941 184.189C592.426 185.047 591.711 185.748 590.796 186.291ZM546.66 169.001H542.197V190.283H546.917V179.127C546.917 177.41 547.432 175.966 548.462 174.793C549.52 173.592 550.822 172.991 552.366 172.991C553.568 172.991 554.655 173.234 555.627 173.72V168.786C554.969 168.5 554.126 168.357 553.096 168.357C551.837 168.357 550.607 168.729 549.406 169.473C548.204 170.188 547.375 171.089 546.917 172.176H546.66V169.001ZM525.973 190.968C524.457 190.968 523.084 190.668 521.854 190.067C520.652 189.438 519.694 188.58 518.979 187.493C518.292 186.377 517.949 185.118 517.949 183.717C517.949 181.486 518.779 179.726 520.438 178.439C522.126 177.152 524.257 176.508 526.831 176.508C529.091 176.508 531.022 176.894 532.624 177.667V176.766C532.624 175.479 532.109 174.42 531.079 173.591C530.078 172.732 528.862 172.303 527.432 172.303C525.258 172.303 523.513 173.19 522.197 174.964L518.593 172.475C519.594 171.131 520.838 170.101 522.326 169.386C523.842 168.671 525.544 168.313 527.432 168.313C530.55 168.313 532.953 169.1 534.64 170.673C536.357 172.218 537.215 174.406 537.215 177.238V190.282H532.624V187.664H532.366C531.68 188.637 530.807 189.438 529.749 190.067C528.69 190.668 527.432 190.968 525.973 190.968ZM526.745 187.064C527.804 187.064 528.776 186.806 529.663 186.291C530.578 185.748 531.293 185.047 531.808 184.189C532.352 183.302 532.624 182.358 532.624 181.357C531.108 180.527 529.491 180.113 527.775 180.113C526.202 180.113 524.972 180.456 524.085 181.142C523.198 181.829 522.755 182.701 522.755 183.76C522.755 184.732 523.141 185.533 523.913 186.162C524.714 186.763 525.658 187.064 526.745 187.064ZM496.656 164.152H505.238V190.283H510.043V164.152H518.625V159.561H496.656V164.152Z" fill="#1E1E1E"/>
<path fill-rule="evenodd" clip-rule="evenodd" d="M750.797 180.265L745.477 185.586V189.977H764.267V185.754H751.684L751.6 185.586L755.062 182.123C757.342 179.843 758.764 178.435 759.327 177.901C760.65 176.578 761.734 175.156 762.578 173.636C763.451 172.088 763.887 170.483 763.887 168.822C763.887 167.274 763.493 165.866 762.705 164.6C761.945 163.305 760.847 162.291 759.411 161.56C758.004 160.799 756.385 160.419 754.555 160.419C752.866 160.419 751.374 160.757 750.08 161.433C748.785 162.108 747.743 162.939 746.955 163.924C746.195 164.909 745.674 165.909 745.393 166.922L749.615 168.653C749.868 167.64 750.403 166.753 751.22 165.993C752.064 165.205 753.148 164.811 754.471 164.811C755.907 164.811 757.047 165.219 757.891 166.035C758.736 166.852 759.158 167.809 759.158 168.907C759.158 170.005 758.933 170.948 758.482 171.736C758.06 172.524 757.258 173.551 756.076 174.818C755.203 175.775 753.443 177.591 750.797 180.265ZM780.354 190.653C777.989 190.653 775.906 189.991 774.104 188.668C772.303 187.317 770.909 185.501 769.924 183.221C768.967 180.913 768.488 178.351 768.488 175.536C768.488 172.693 768.967 170.131 769.924 167.851C770.909 165.543 772.303 163.727 774.104 162.404C775.906 161.081 777.989 160.419 780.354 160.419C782.718 160.419 784.787 161.081 786.561 162.404C788.362 163.727 789.742 165.543 790.699 167.851C791.684 170.131 792.177 172.693 792.177 175.536C792.177 178.351 791.684 180.913 790.699 183.221C789.742 185.501 788.362 187.317 786.561 188.668C784.759 189.991 782.69 190.653 780.354 190.653ZM780.354 186.261C781.789 186.261 783.042 185.797 784.112 184.868C785.209 183.911 786.04 182.63 786.603 181.025C787.194 179.393 787.49 177.563 787.49 175.536C787.49 173.509 787.194 171.679 786.603 170.047C786.04 168.414 785.209 167.133 784.112 166.204C783.042 165.275 781.789 164.811 780.354 164.811C778.89 164.811 777.623 165.275 776.553 166.204C775.484 167.133 774.653 168.414 774.062 170.047C773.499 171.679 773.217 173.509 773.217 175.536C773.217 177.563 773.499 179.393 774.062 181.025C774.653 182.63 775.484 183.911 776.553 184.868C777.623 185.797 778.89 186.261 780.354 186.261ZM801.27 180.265L795.95 185.586V189.977H814.74V185.754H802.157L802.072 185.586L805.535 182.123C807.815 179.843 809.237 178.435 809.8 177.901C811.123 176.578 812.206 175.156 813.051 173.636C813.923 172.088 814.36 170.483 814.36 168.822C814.36 167.274 813.966 165.866 813.178 164.6C812.417 163.305 811.32 162.291 809.884 161.56C808.476 160.799 806.858 160.419 805.028 160.419C803.339 160.419 801.847 160.757 800.552 161.433C799.257 162.108 798.216 162.939 797.428 163.924C796.668 164.909 796.147 165.909 795.865 166.922L800.088 168.653C800.341 167.64 800.876 166.753 801.692 165.993C802.537 165.205 803.621 164.811 804.944 164.811C806.379 164.811 807.519 165.219 808.364 166.035C809.208 166.852 809.631 167.809 809.631 168.907C809.631 170.005 809.405 170.948 808.955 171.736C808.533 172.524 807.73 173.551 806.548 174.818C805.676 175.775 803.916 177.591 801.27 180.265ZM818.789 184.234H832.301V189.976H836.946V184.234H840.619V179.927H836.946V161.094H831.921L818.789 180.602V184.234ZM832.301 167.977V179.927H823.983L832.048 167.977H832.301Z" fill="#1E1E1E"/>
</svg>
