<svg width="595" height="88" viewBox="0 0 595 88" fill="none" xmlns="http://www.w3.org/2000/svg">
<path d="M236.83 70.4763C231.207 70.4763 226.029 69.1133 221.297 66.3874C216.565 63.6615 212.806 59.9064 210.023 55.1222C207.239 50.3379 205.847 45.053 205.847 39.2674C205.847 33.4818 207.239 28.1969 210.023 23.4126C212.806 18.6284 216.565 14.8733 221.297 12.1474C226.029 9.42147 231.207 8.05852 236.83 8.05852C241.228 8.05852 245.348 8.83735 249.19 10.395C253.087 11.9527 256.288 14.1501 258.794 16.9873L253.699 22.0775C251.806 19.741 249.385 17.9608 246.434 16.7369C243.483 15.4574 240.31 14.8177 236.913 14.8177C232.682 14.8177 228.729 15.8468 225.055 17.9052C221.436 19.9079 218.513 22.7729 216.286 26.5001C214.115 30.1718 213.029 34.4275 213.029 39.2674C213.029 44.1073 214.115 48.3909 216.286 52.1181C218.513 55.7898 221.464 58.6547 225.138 60.7131C228.813 62.7158 232.738 63.7171 236.913 63.7171C240.922 63.7171 244.262 63.1052 246.935 61.8813C249.663 60.6018 252.001 58.9329 253.95 56.8746C255.397 55.3169 256.567 53.4533 257.457 51.2837C258.348 49.0584 258.905 46.6107 259.128 43.9404H236.997V37.3481H265.725C266.003 38.9058 266.143 40.3522 266.143 41.6873C266.143 45.359 265.558 48.9472 264.389 52.4519C263.22 55.901 261.355 58.9329 258.794 61.5475C253.282 67.5 245.961 70.4763 236.83 70.4763Z" fill="#6D6D6D"/>
<path d="M275.035 9.39366H293.073C299.197 9.39366 304.542 10.6732 309.107 13.2322C313.673 15.7356 317.18 19.2403 319.63 23.7464C322.079 28.2525 323.304 33.4262 323.304 39.2674C323.304 45.1086 322.079 50.2823 319.63 54.7884C317.18 59.2945 313.673 62.8271 309.107 65.3861C304.542 67.8895 299.197 69.1412 293.073 69.1412H275.035V9.39366ZM293.073 62.382C300.144 62.382 305.739 60.3515 309.859 56.2904C314.034 52.2294 316.122 46.555 316.122 39.2674C316.122 31.9798 314.034 26.3054 309.859 22.2444C305.739 18.1833 300.144 16.1528 293.073 16.1528H282.05V62.382H293.073Z" fill="#6D6D6D"/>
<path d="M360.143 70.4763C354.52 70.4763 349.342 69.1133 344.61 66.3874C339.878 63.6615 336.12 59.9064 333.336 55.1222C330.552 50.3379 329.161 45.053 329.161 39.2674C329.161 33.4818 330.552 28.1969 333.336 23.4126C336.12 18.6284 339.878 14.8733 344.61 12.1474C349.342 9.42147 354.52 8.05852 360.143 8.05852C364.542 8.05852 368.661 8.83735 372.503 10.395C376.4 11.9527 379.602 14.1501 382.107 16.9873L377.013 22.0775C375.12 19.741 372.698 17.9608 369.747 16.7369C366.796 15.4574 363.623 14.8177 360.227 14.8177C355.996 14.8177 352.043 15.8468 348.368 17.9052C344.749 19.9079 341.826 22.7729 339.599 26.5001C337.428 30.1718 336.342 34.4275 336.342 39.2674C336.342 44.1073 337.428 48.3909 339.599 52.1181C341.826 55.7898 344.777 58.6547 348.452 60.7131C352.126 62.7158 356.051 63.7171 360.227 63.7171C364.235 63.7171 367.576 63.1052 370.248 61.8813C372.976 60.6018 375.315 58.9329 377.263 56.8746C378.711 55.3169 379.88 53.4533 380.771 51.2837C381.661 49.0584 382.218 46.6107 382.441 43.9404H360.31V37.3481H389.038C389.317 38.9058 389.456 40.3522 389.456 41.6873C389.456 45.359 388.871 48.9472 387.702 52.4519C386.533 55.901 384.668 58.9329 382.107 61.5475C376.595 67.5 369.274 70.4763 360.143 70.4763Z" fill="#6D6D6D"/>
<path d="M430.866 16.1528H414.08V9.39366H454.667V16.1528H437.964V69.1412H430.866V16.1528Z" fill="#6D6D6D"/>
<path d="M467.85 70.4763C464.733 70.4763 461.949 69.8644 459.499 68.6405C457.05 67.4166 455.157 65.7477 453.82 63.6337C452.484 61.4641 451.816 59.0163 451.816 56.2904C451.816 51.7843 453.514 48.2796 456.91 45.7762C460.306 43.2172 464.593 41.9377 469.771 41.9377C472.332 41.9377 474.698 42.2158 476.87 42.7721C479.097 43.3285 480.795 43.9682 481.964 44.6914V42.1046C481.964 38.9336 480.85 36.4024 478.623 34.511C476.396 32.5639 473.585 31.5904 470.189 31.5904C467.795 31.5904 465.596 32.1188 463.591 33.1758C461.587 34.1772 460 35.5958 458.831 37.4316L453.486 33.4262C455.157 30.8672 457.439 28.8644 460.334 27.418C463.285 25.9716 466.542 25.2484 470.105 25.2484C475.895 25.2484 480.433 26.7783 483.718 29.838C487.058 32.842 488.728 36.9587 488.728 42.188V69.1412H481.964V63.0496H481.63C480.405 65.1079 478.568 66.8603 476.118 68.3067C473.668 69.7531 470.912 70.4763 467.85 70.4763ZM468.518 64.2178C470.912 64.2178 473.139 63.6059 475.199 62.382C477.259 61.1581 478.902 59.517 480.127 57.4587C481.351 55.4003 481.964 53.1473 481.964 50.6995C480.628 49.8094 478.985 49.0862 477.037 48.5299C475.088 47.9736 473.028 47.6955 470.857 47.6955C466.96 47.6955 464.009 48.5021 462.005 50.1154C460.056 51.7287 459.082 53.8149 459.082 56.3739C459.082 58.7104 459.972 60.6018 461.754 62.0482C463.536 63.4946 465.79 64.2178 468.518 64.2178Z" fill="#6D6D6D"/>
<path d="M496.933 26.5836H503.698V33.4262H504.032C504.867 31.0897 506.481 29.1704 508.875 27.6684C511.269 26.1107 513.775 25.3319 516.391 25.3319C518.34 25.3319 520.01 25.61 521.402 26.1663V33.8434C519.621 32.9533 517.616 32.5083 515.389 32.5083C513.329 32.5083 511.436 33.0924 509.711 34.2606C507.985 35.4289 506.593 37.0144 505.535 39.0171C504.533 40.9641 504.032 43.0781 504.032 45.359V69.1412H496.933V26.5836Z" fill="#6D6D6D"/>
<path d="M530.755 18.7396C529.364 18.7396 528.167 18.239 527.164 17.2376C526.162 16.2362 525.661 15.0402 525.661 13.6494C525.661 12.2586 526.162 11.0904 527.164 10.1447C528.167 9.14332 529.364 8.64264 530.755 8.64264C532.147 8.64264 533.344 9.14332 534.347 10.1447C535.349 11.0904 535.85 12.2586 535.85 13.6494C535.85 15.0402 535.349 16.2362 534.347 17.2376C533.4 18.239 532.203 18.7396 530.755 18.7396ZM527.248 26.5836H534.263V69.1412H527.248V26.5836Z" fill="#6D6D6D"/>
<path d="M547.924 18.7396C546.532 18.7396 545.335 18.239 544.333 17.2376C543.331 16.2362 542.83 15.0402 542.83 13.6494C542.83 12.2586 543.331 11.0904 544.333 10.1447C545.335 9.14332 546.532 8.64264 547.924 8.64264C549.316 8.64264 550.513 9.14332 551.515 10.1447C552.517 11.0904 553.018 12.2586 553.018 13.6494C553.018 15.0402 552.517 16.2362 551.515 17.2376C550.569 18.239 549.372 18.7396 547.924 18.7396ZM539.74 88C538.404 88 537.151 87.8053 535.982 87.4159V80.6567C536.428 80.9349 536.984 81.1574 537.652 81.3243C538.32 81.4912 538.933 81.5746 539.49 81.5746C541.216 81.5746 542.468 81.0183 543.248 79.9057C544.027 78.8487 544.417 77.2633 544.417 75.1493V26.5836H551.432V75.1493C551.432 79.4329 550.402 82.6316 548.342 84.7456C546.282 86.9152 543.415 88 539.74 88Z" fill="#6D6D6D"/>
<path d="M574.122 70.4763C571.004 70.4763 568.221 69.8644 565.771 68.6405C563.321 67.4166 561.428 65.7477 560.092 63.6337C558.756 61.4641 558.088 59.0163 558.088 56.2904C558.088 51.7843 559.786 48.2796 563.182 45.7762C566.578 43.2172 570.865 41.9377 576.043 41.9377C578.604 41.9377 580.97 42.2158 583.141 42.7721C585.368 43.3285 587.066 43.9682 588.236 44.6914V42.1046C588.236 38.9336 587.122 36.4024 584.895 34.511C582.668 32.5639 579.857 31.5904 576.46 31.5904C574.066 31.5904 571.867 32.1188 569.863 33.1758C567.859 34.1772 566.272 35.5958 565.103 37.4316L559.758 33.4262C561.428 30.8672 563.711 28.8644 566.606 27.418C569.557 25.9716 572.814 25.2484 576.377 25.2484C582.167 25.2484 586.705 26.7783 589.989 29.838C593.33 32.842 595 36.9587 595 42.188V69.1412H588.236V63.0496H587.902C586.677 65.1079 584.839 66.8603 582.39 68.3067C579.94 69.7531 577.184 70.4763 574.122 70.4763ZM574.79 64.2178C577.184 64.2178 579.411 63.6059 581.471 62.382C583.531 61.1581 585.173 59.517 586.398 57.4587C587.623 55.4003 588.236 53.1473 588.236 50.6995C586.899 49.8094 585.257 49.0862 583.308 48.5299C581.36 47.9736 579.3 47.6955 577.129 47.6955C573.231 47.6955 570.281 48.5021 568.276 50.1154C566.328 51.7287 565.353 53.8149 565.353 56.3739C565.353 58.7104 566.244 60.6018 568.026 62.0482C569.807 63.4946 572.062 64.2178 574.79 64.2178Z" fill="#6D6D6D"/>
<path d="M6.82633 28.3652L54.9112 1.69079C61.3103 -1.81901 69.7205 0.286873 73.56 6.6045C77.3995 12.9221 75.0226 20.8192 68.4406 24.5045L40.8333 39.9476L6.82633 28.3652Z" fill="#EA4335"/>
<path d="M54.9106 77.6777L6.82566 51.0033C0.243709 47.4935 -1.95018 39.421 1.88929 33.1033C5.54593 26.9612 13.9561 24.6798 20.5381 28.3651L68.4399 55.0396C75.0219 58.5494 77.3988 66.6219 73.5593 72.9395C70.9997 77.1512 66.4289 79.4326 61.6752 79.4326C59.2984 79.4326 57.1045 78.9062 54.9106 77.6777Z" fill="#4285F4"/>
<path d="M97.5112 72.9398C93.8546 66.6221 96.0487 58.5496 102.631 55.0399L130.787 39.2458L164.245 51.0036L116.343 77.678C114.149 78.9065 111.772 79.4329 109.395 79.4329C104.642 79.4329 100.071 77.1515 97.5112 72.9398Z" fill="#FBBC04"/>
<path d="M150.533 51.0034L102.631 24.5045C96.0487 20.8192 93.8546 12.9221 97.5112 6.6045C101.351 0.286873 109.761 -1.81901 116.343 1.69079L164.245 28.3652C170.827 32.0505 173.021 39.9476 169.181 46.2652C166.804 50.477 162.051 52.7583 157.48 52.7583C155.103 52.7583 152.726 52.2318 150.533 51.0034Z" fill="#0F9D58"/>
</svg>
