<svg width="1079" height="356" viewBox="0 0 1079 356" fill="none" xmlns="http://www.w3.org/2000/svg">
<mask id="mask0_517_750" style="mask-type:luminance" maskUnits="userSpaceOnUse" x="13" y="64" width="112" height="115">
<path d="M13.9868 64.5925H124.884V178.542H13.9868V64.5925Z" fill="white"/>
</mask>
<g mask="url(#mask0_517_750)">
<mask id="mask1_517_750" style="mask-type:luminance" maskUnits="userSpaceOnUse" x="14" y="64" width="111" height="114">
<path d="M14.1157 121.391C14.1157 90.1664 40.3024 64.7408 71.5781 64.7408C86.0959 64.5027 100.095 70.1303 110.413 80.3513L99.4429 91.2748C91.9772 84.0705 81.9669 80.0976 71.5859 80.2225C48.8023 80.2225 31.0024 98.5727 31.0024 121.399C31.0024 144.23 48.7789 162.56 71.5859 162.56C86.3652 162.56 94.7754 156.628 100.169 151.235C104.594 146.809 107.482 140.444 108.595 131.808H71.5781V116.275H123.635C124.229 119.479 124.506 122.734 124.467 125.989C124.467 137.591 121.294 151.953 111.073 162.19C101.105 172.504 88.4024 177.976 71.5859 177.976C40.3024 177.976 14.1157 152.616 14.1157 121.391Z" fill="white"/>
</mask>
<g mask="url(#mask1_517_750)">
<path d="M10.373 60.9942H363.62V214.528H10.373V60.9942Z" fill="#202124"/>
</g>
</g>
<mask id="mask2_517_750" style="mask-type:luminance" maskUnits="userSpaceOnUse" x="129" y="104" width="75" height="75">
<path d="M129.879 104.903H203.487V178.542H129.879V104.903Z" fill="white"/>
</mask>
<g mask="url(#mask2_517_750)">
<mask id="mask3_517_750" style="mask-type:luminance" maskUnits="userSpaceOnUse" x="129" y="105" width="75" height="73">
<path d="M166.502 105.09C146.345 105.09 129.915 120.42 129.915 141.56C129.915 162.697 146.337 177.983 166.502 177.983C186.667 177.983 203.093 162.51 203.093 141.513C203.093 120.517 186.667 105.09 166.502 105.09ZM166.502 163.661C155.457 163.661 145.935 154.54 145.935 141.56C145.935 128.576 155.457 119.456 166.502 119.456C177.546 119.456 187.073 128.436 187.073 141.56C187.073 154.681 177.546 163.669 166.502 163.669V163.661Z" fill="white"/>
</mask>
<g mask="url(#mask3_517_750)">
<path d="M10.373 60.9942H363.62V214.528H10.373V60.9942Z" fill="#202124"/>
</g>
</g>
<mask id="mask4_517_750" style="mask-type:luminance" maskUnits="userSpaceOnUse" x="209" y="104" width="75" height="75">
<path d="M209.485 104.903H283.253V178.542H209.485V104.903Z" fill="white"/>
</mask>
<g mask="url(#mask4_517_750)">
<mask id="mask5_517_750" style="mask-type:luminance" maskUnits="userSpaceOnUse" x="209" y="105" width="74" height="73">
<path d="M246.319 105.09C226.162 105.09 209.731 120.42 209.731 141.56C209.731 162.697 226.162 177.983 246.319 177.983C266.476 177.983 282.91 162.51 282.91 141.513C282.91 120.517 266.484 105.09 246.319 105.09ZM246.319 163.661C235.274 163.661 225.752 154.54 225.752 141.56C225.752 128.576 235.274 119.456 246.319 119.456C257.363 119.456 266.889 128.436 266.889 141.56C266.889 154.681 257.363 163.669 246.319 163.669V163.661Z" fill="white"/>
</mask>
<g mask="url(#mask5_517_750)">
<path d="M10.373 60.9942H363.62V214.528H10.373V60.9942Z" fill="#202124"/>
</g>
</g>
<mask id="mask6_517_750" style="mask-type:luminance" maskUnits="userSpaceOnUse" x="289" y="104" width="71" height="107">
<path d="M289.251 104.903H359.667V210.805H289.251V104.903Z" fill="white"/>
</mask>
<g mask="url(#mask6_517_750)">
<mask id="mask7_517_750" style="mask-type:luminance" maskUnits="userSpaceOnUse" x="289" y="105" width="71" height="106">
<path d="M344.286 107.295V113.223H343.744C340.149 108.903 333.246 105.074 324.551 105.074C306.321 105.074 289.614 121.103 289.614 141.677C289.614 162.256 306.321 177.976 324.551 177.976C333.246 177.976 340.149 174.116 343.744 169.686H344.286V174.932C344.286 188.884 336.836 196.345 324.871 196.345C315.067 196.345 308.995 189.297 306.532 183.393L292.584 189.2C297.958 202.332 310.767 210.867 324.945 210.785C343.728 210.785 359.604 199.737 359.604 172.797V107.295H344.286ZM325.948 163.661C314.903 163.661 305.65 154.4 305.65 141.701C305.65 129.002 314.911 119.464 325.956 119.464C337 119.464 345.371 128.853 345.371 141.709C345.371 154.564 336.844 163.669 325.932 163.669L325.948 163.661Z" fill="white"/>
</mask>
<g mask="url(#mask7_517_750)">
<path d="M10.373 60.9942H363.62V214.528H10.373V60.9942Z" fill="#202124"/>
</g>
</g>
<mask id="mask8_517_750" style="mask-type:luminance" maskUnits="userSpaceOnUse" x="370" y="68" width="17" height="108">
<path d="M370.524 68.6161H386.544V175.818H370.524V68.6161Z" fill="white"/>
</mask>
<g mask="url(#mask8_517_750)">
<path d="M366.781 64.8774H390.283V179.533H366.781V64.8774Z" fill="#202124"/>
<path d="M366.781 64.8774H390.283V179.533H366.781V64.8774Z" fill="#202124"/>
</g>
<mask id="mask9_517_750" style="mask-type:luminance" maskUnits="userSpaceOnUse" x="394" y="105" width="68" height="74">
<path d="M394.307 105.129H461.572V178.124H394.307V105.129Z" fill="white"/>
</mask>
<g mask="url(#mask9_517_750)">
<mask id="mask10_517_750" style="mask-type:luminance" maskUnits="userSpaceOnUse" x="394" y="105" width="68" height="74">
<path d="M430.457 163.665C422.316 163.665 416.509 159.93 412.79 152.612L461.53 132.448L459.89 128.338C456.846 120.182 447.605 105.129 428.681 105.129C409.757 105.129 394.307 119.912 394.307 141.595C394.307 162.033 409.773 178.058 430.484 178.058C442.688 178.12 454.099 172.036 460.858 161.866L448.436 153.584C444.26 159.629 438.598 163.665 430.457 163.665ZM429.212 119.179C435.565 119.179 440.947 122.351 442.742 126.918L410.155 140.452C409.738 126.356 421.055 119.179 429.204 119.179H429.212Z" fill="white"/>
</mask>
<g mask="url(#mask10_517_750)">
<path d="M394.307 105.129H461.526V178.124H394.307V105.129Z" fill="#202124"/>
</g>
</g>
<mask id="mask11_517_750" style="mask-type:luminance" maskUnits="userSpaceOnUse" x="509" y="68" width="55" height="108">
<path d="M509.114 68.46H563.174V175.978H509.114V68.46Z" fill="white"/>
</mask>
<g mask="url(#mask11_517_750)">
<path d="M505.372 53.2631H722.467V191.17H505.372V53.2631Z" fill="#202124"/>
</g>
<mask id="mask12_517_750" style="mask-type:luminance" maskUnits="userSpaceOnUse" x="607" y="66" width="113" height="112">
<path d="M607.726 66.7311H719.236V177.703H607.726V66.7311Z" fill="white"/>
</mask>
<g mask="url(#mask12_517_750)">
<mask id="mask13_517_750" style="mask-type:luminance" maskUnits="userSpaceOnUse" x="607" y="66" width="112" height="112">
<path d="M718.908 122.215C718.908 152.851 694.075 177.683 663.44 177.683C632.808 177.683 607.972 152.851 607.972 122.215C607.972 91.5831 632.808 66.7467 663.44 66.7467C694.075 66.7467 718.908 91.5831 718.908 122.215Z" fill="white"/>
</mask>
<g mask="url(#mask13_517_750)">
<path d="M505.372 53.2631H722.467V191.17H505.372V53.2631Z" fill="#202124"/>
</g>
</g>
<mask id="mask14_517_750" style="mask-type:luminance" maskUnits="userSpaceOnUse" x="570" y="56" width="41" height="132">
<path d="M570.471 56.9472H610.957V187.826H570.471V56.9472Z" fill="white"/>
</mask>
<g mask="url(#mask14_517_750)">
<mask id="mask15_517_750" style="mask-type:luminance" maskUnits="userSpaceOnUse" x="570" y="57" width="41" height="131">
<path d="M580.899 187.432H570.479L600.139 57.006H610.563L580.899 187.432Z" fill="white"/>
</mask>
<g mask="url(#mask15_517_750)">
<path d="M505.372 53.2631H722.467V191.17H505.372V53.2631Z" fill="#202124"/>
</g>
</g>
<mask id="mask16_517_750" style="mask-type:luminance" maskUnits="userSpaceOnUse" x="748" y="66" width="317" height="112">
<path d="M748.061 66.7116H1064.91V177.726H748.061V66.7116Z" fill="white"/>
</mask>
<g mask="url(#mask16_517_750)">
<mask id="mask17_517_750" style="mask-type:luminance" maskUnits="userSpaceOnUse" x="748" y="66" width="317" height="112">
<path d="M1009.42 177.687H803.572C772.936 177.687 748.104 152.851 748.104 122.219C748.104 91.5873 772.936 66.751 803.572 66.751H1009.42C1040.06 66.751 1064.89 91.5873 1064.89 122.219C1064.89 152.851 1040.06 177.687 1009.42 177.687Z" fill="white"/>
</mask>
<g mask="url(#mask17_517_750)">
<path d="M744.361 63.008H1068.62V181.426H744.361V63.008Z" fill="#202124"/>
</g>
</g>
<mask id="mask18_517_750" style="mask-type:luminance" maskUnits="userSpaceOnUse" x="803" y="103" width="23" height="37">
<path d="M803.825 103.728H825.657V108.962H803.825V103.728ZM803.825 108.962H809.355V119.12H803.825V108.962ZM803.825 119.12H824.049V124.35H803.825V119.12ZM803.825 124.35H809.355V134.512H803.825V124.35ZM803.825 134.512H825.649V139.742H803.825V134.512Z" fill="white"/>
</mask>
<g mask="url(#mask18_517_750)">
<path d="M744.361 63.008H1068.62V181.426H744.361V63.008Z" fill="white"/>
</g>
<mask id="mask19_517_750" style="mask-type:luminance" maskUnits="userSpaceOnUse" x="827" y="113" width="26" height="27">
<path d="M827.233 113.894H852.136V139.792H827.233V113.894Z" fill="white"/>
</mask>
<g mask="url(#mask19_517_750)">
<mask id="mask20_517_750" style="mask-type:luminance" maskUnits="userSpaceOnUse" x="827" y="114" width="25" height="26">
<path d="M836.416 126.715L827.565 114.093H833.852L839.582 122.547H839.734L845.217 114.093H851.758L842.754 126.715L851.808 139.742H845.471L839.636 131.043H839.488L833.798 139.742H827.417L836.416 126.715Z" fill="white"/>
</mask>
<g mask="url(#mask20_517_750)">
<path d="M744.361 63.008H1068.62V181.426H744.361V63.008Z" fill="white"/>
</g>
</g>
<mask id="mask21_517_750" style="mask-type:luminance" maskUnits="userSpaceOnUse" x="852" y="106" width="18" height="35">
<path d="M852.601 106.491H869.195V140.721H852.601V106.491Z" fill="white"/>
</mask>
<g mask="url(#mask21_517_750)">
<mask id="mask22_517_750" style="mask-type:luminance" maskUnits="userSpaceOnUse" x="852" y="106" width="17" height="35">
<path d="M861.702 140.011C860.714 139.652 859.899 139.152 859.262 138.501C857.818 137.103 857.1 135.117 857.1 132.553V118.823H852.624V114.093H857.1V106.85H862.533V114.093H868.816V118.823H862.533V131.452C862.533 132.896 862.802 133.907 863.341 134.496C863.91 135.148 864.785 135.48 865.959 135.48L867.516 135.254C867.95 135.105 868.437 134.855 868.976 134.52V139.804C867.836 140.304 866.474 140.557 864.898 140.557C863.758 140.557 862.689 140.378 861.702 140.019" fill="white"/>
</mask>
<g mask="url(#mask22_517_750)">
<path d="M744.361 63.008H1068.62V181.426H744.361V63.008Z" fill="white"/>
</g>
</g>
<mask id="mask23_517_750" style="mask-type:luminance" maskUnits="userSpaceOnUse" x="870" y="112" width="27" height="29">
<path d="M870.193 112.966H896.08V140.721H870.193V112.966Z" fill="white"/>
</mask>
<g mask="url(#mask23_517_750)">
<mask id="mask24_517_750" style="mask-type:luminance" maskUnits="userSpaceOnUse" x="870" y="113" width="26" height="28">
<path d="M890.342 123.998C890.276 123.058 889.979 122.121 889.437 121.181C888.898 120.236 888.122 119.46 887.095 118.835C886.073 118.215 884.808 117.91 883.294 117.91C881.483 117.91 879.95 118.464 878.693 119.569C877.436 120.677 876.57 122.152 876.106 123.998H890.342ZM876.839 138.793C874.841 137.619 873.284 136.003 872.16 133.938C871.04 131.87 870.478 129.552 870.478 126.972C870.478 124.525 871.024 122.25 872.117 120.154C873.21 118.059 874.72 116.388 876.668 115.147C878.611 113.906 880.812 113.286 883.259 113.286C885.839 113.286 888.071 113.848 889.948 114.968C891.825 116.092 893.262 117.641 894.249 119.624C895.236 121.606 895.732 123.85 895.732 126.363L895.634 128.077H875.805C876.039 130.524 876.913 132.409 878.424 133.735C879.938 135.058 881.694 135.718 883.708 135.718C885.355 135.718 886.76 135.343 887.935 134.586C889.109 133.833 890.046 132.838 890.756 131.593L895.229 133.759C894.054 135.866 892.501 137.529 890.553 138.735C888.61 139.937 886.272 140.546 883.556 140.546C881.074 140.546 878.837 139.96 876.847 138.785" fill="white"/>
</mask>
<g mask="url(#mask24_517_750)">
<path d="M744.36 63.008H1068.61V181.426H744.36V63.008Z" fill="white"/>
</g>
</g>
<mask id="mask25_517_750" style="mask-type:luminance" maskUnits="userSpaceOnUse" x="899" y="112" width="24" height="28">
<path d="M899.319 112.966H922.906V139.792H899.319V112.966Z" fill="white"/>
</mask>
<g mask="url(#mask25_517_750)">
<mask id="mask26_517_750" style="mask-type:luminance" maskUnits="userSpaceOnUse" x="899" y="113" width="24" height="27">
<path d="M899.502 114.093H904.638V117.618H904.935C905.669 116.345 906.777 115.303 908.256 114.495C909.739 113.688 911.327 113.293 913.041 113.293C916.124 113.293 918.473 114.207 920.081 116.029C921.689 117.856 922.497 120.365 922.497 123.55V139.749H917.119V124.256C917.119 122.242 916.615 120.744 915.605 119.748C914.594 118.753 913.228 118.269 911.484 118.269C910.211 118.269 909.072 118.621 908.084 119.323C907.097 120.025 906.328 120.97 905.774 122.137C905.22 123.304 904.943 124.584 904.943 125.961V139.742H899.51L899.502 114.093Z" fill="white"/>
</mask>
<g mask="url(#mask26_517_750)">
<path d="M744.361 63.008H1068.62V181.426H744.361V63.008Z" fill="white"/>
</g>
</g>
<mask id="mask27_517_750" style="mask-type:luminance" maskUnits="userSpaceOnUse" x="925" y="103" width="28" height="38">
<path d="M925.685 103.716H952.047V140.721H925.685V103.716Z" fill="white"/>
</mask>
<g mask="url(#mask27_517_750)">
<mask id="mask28_517_750" style="mask-type:luminance" maskUnits="userSpaceOnUse" x="926" y="103" width="27" height="38">
<path d="M942.993 134.489C944.179 133.771 945.14 132.756 945.858 131.445C946.576 130.137 946.943 128.623 946.943 126.918C946.943 125.212 946.584 123.702 945.858 122.39C945.132 121.083 944.179 120.072 942.993 119.346C941.803 118.621 940.538 118.261 939.192 118.261C937.846 118.261 936.585 118.621 935.391 119.346C934.193 120.072 933.24 121.083 932.522 122.39C931.804 123.702 931.445 125.212 931.445 126.918C931.445 128.623 931.804 130.137 932.522 131.445C933.24 132.756 934.2 133.763 935.391 134.489C936.577 135.215 937.846 135.574 939.192 135.574C940.538 135.574 941.803 135.215 942.993 134.489ZM932.097 138.817C930.22 137.654 928.745 136.038 927.667 133.958C926.59 131.878 926.06 129.528 926.06 126.918C926.06 124.307 926.598 121.965 927.667 119.901C928.737 117.836 930.212 116.217 932.097 115.042C933.982 113.867 936.07 113.286 938.384 113.286C940.261 113.286 941.92 113.695 943.364 114.519C944.812 115.342 945.897 116.353 946.634 117.563H946.935L946.634 113.996V103.728H952.016V139.749H946.935V136.323H946.634C945.897 137.498 944.812 138.493 943.364 139.316C941.92 140.14 940.261 140.549 938.384 140.549C936.07 140.549 933.966 139.976 932.097 138.817Z" fill="white"/>
</mask>
<g mask="url(#mask28_517_750)">
<path d="M744.361 63.008H1068.62V181.426H744.361V63.008Z" fill="white"/>
</g>
</g>
<mask id="mask29_517_750" style="mask-type:luminance" maskUnits="userSpaceOnUse" x="955" y="112" width="27" height="29">
<path d="M955.287 112.966H981.091V140.721H955.287V112.966Z" fill="white"/>
</mask>
<g mask="url(#mask29_517_750)">
<mask id="mask30_517_750" style="mask-type:luminance" maskUnits="userSpaceOnUse" x="955" y="113" width="26" height="28">
<path d="M975.412 123.998C975.346 123.058 975.045 122.121 974.507 121.181C973.968 120.236 973.192 119.46 972.165 118.835C971.143 118.215 969.874 117.91 968.364 117.91C966.553 117.91 965.02 118.464 963.763 119.569C962.506 120.677 961.64 122.152 961.175 123.998H975.412ZM961.909 138.793C959.911 137.619 958.354 136.003 957.23 133.938C956.11 131.87 955.548 129.552 955.548 126.972C955.548 124.525 956.094 122.25 957.187 120.154C958.28 118.059 959.79 116.388 961.734 115.147C963.681 113.906 965.882 113.286 968.329 113.286C970.909 113.286 973.137 113.848 975.018 114.968C976.895 116.092 978.331 117.641 979.319 119.624C980.306 121.606 980.802 123.85 980.802 126.363L980.704 128.077H960.875C961.105 130.524 961.983 132.409 963.494 133.735C965.004 135.058 966.764 135.718 968.778 135.718C970.421 135.718 971.83 135.343 973.004 134.586C974.179 133.833 975.116 132.838 975.826 131.593L980.298 133.759C979.124 135.866 977.567 137.529 975.623 138.735C973.676 139.937 971.342 140.546 968.626 140.546C966.143 140.546 963.903 139.96 961.913 138.785" fill="white"/>
</mask>
<g mask="url(#mask30_517_750)">
<path d="M744.361 63.008H1068.62V181.426H744.361V63.008Z" fill="white"/>
</g>
</g>
<mask id="mask31_517_750" style="mask-type:luminance" maskUnits="userSpaceOnUse" x="983" y="103" width="27" height="38">
<path d="M983.089 103.716H1009.87V140.721H983.089V103.716Z" fill="white"/>
</mask>
<g mask="url(#mask31_517_750)">
<mask id="mask32_517_750" style="mask-type:luminance" maskUnits="userSpaceOnUse" x="983" y="103" width="27" height="38">
<path d="M1000.39 134.489C1001.58 133.771 1002.54 132.756 1003.26 131.445C1003.98 130.137 1004.34 128.623 1004.34 126.918C1004.34 125.212 1003.98 123.702 1003.26 122.39C1002.53 121.083 1001.58 120.072 1000.39 119.346C999.199 118.621 997.934 118.261 996.588 118.261C995.242 118.261 993.985 118.621 992.787 119.346C991.593 120.072 990.64 121.083 989.922 122.39C989.204 123.702 988.845 125.212 988.845 126.918C988.845 128.623 989.204 130.137 989.922 131.445C990.64 132.756 991.596 133.763 992.787 134.489C993.977 135.215 995.242 135.574 996.588 135.574C997.934 135.574 999.199 135.215 1000.39 134.489ZM989.497 138.817C987.616 137.654 986.144 136.038 985.067 133.958C983.99 131.878 983.456 129.528 983.456 126.918C983.456 124.307 983.994 121.965 985.067 119.901C986.137 117.836 987.608 116.217 989.497 115.042C991.382 113.867 993.47 113.286 995.78 113.286C997.657 113.286 999.32 113.695 1000.76 114.519C1002.21 115.342 1003.29 116.353 1004.03 117.563H1004.33L1004.03 113.996V103.728H1009.42V139.749H1004.33V136.323H1004.03C1003.29 137.498 1002.21 138.493 1000.76 139.316C999.32 140.14 997.657 140.549 995.78 140.549C993.47 140.549 991.366 139.976 989.497 138.817Z" fill="white"/>
</mask>
<g mask="url(#mask32_517_750)">
<path d="M744.361 63.008H1068.62V181.426H744.361V63.008Z" fill="white"/>
</g>
</g>
<path d="M413.003 253.373H401.904V247.441H430.3V253.373H419.201V287.154H413.003V253.373Z" fill="#202124"/>
<path d="M444.162 288.044C442.121 288.044 440.306 287.646 438.714 286.858C437.13 286.058 435.892 284.93 434.999 283.47C434.113 282.003 433.672 280.348 433.672 278.506C433.672 275.583 434.769 273.273 436.966 271.575C439.171 269.87 441.953 269.015 445.317 269.015C446.98 269.015 448.478 269.179 449.813 269.499C451.144 269.811 452.202 270.151 452.982 270.514V269.077C452.982 267.341 452.33 265.924 451.031 264.831C449.739 263.739 448.08 263.192 446.051 263.192C444.603 263.192 443.241 263.512 441.961 264.145C440.689 264.769 439.666 265.635 438.886 266.736L434.624 263.473C435.881 261.737 437.504 260.39 439.495 259.43C441.493 258.462 443.713 257.978 446.16 257.978C450.258 257.978 453.419 258.989 455.636 261.007C457.86 263.017 458.977 265.854 458.977 269.515V287.154H452.982V283.767H452.701C451.889 284.996 450.742 286.015 449.267 286.827C447.788 287.638 446.086 288.044 444.162 288.044ZM445.208 283.002C446.683 283.002 448.018 282.655 449.204 281.956C450.391 281.25 451.316 280.301 451.983 279.115C452.646 277.929 452.982 276.656 452.982 275.29C452.127 274.803 451.132 274.412 450 274.12C448.877 273.831 447.706 273.683 446.488 273.683C444.197 273.683 442.515 274.135 441.446 275.041C440.373 275.946 439.838 277.117 439.838 278.553C439.838 279.857 440.338 280.922 441.337 281.753C442.336 282.588 443.624 283.002 445.208 283.002Z" fill="#202124"/>
<path d="M465.612 258.868H471.435V263.021H471.716C472.348 261.584 473.441 260.398 474.994 259.461C476.544 258.517 478.187 258.041 479.927 258.041C481.301 258.041 482.444 258.224 483.361 258.587V264.909C481.738 264.316 480.278 264.02 478.991 264.02C477.586 264.02 476.337 264.394 475.244 265.144C474.151 265.885 473.285 266.872 472.653 268.11C472.028 269.351 471.716 270.709 471.716 272.184V287.154H465.612V258.868Z" fill="#202124"/>
<path d="M491.512 254.763C490.364 254.763 489.393 254.368 488.593 253.576C487.8 252.776 487.406 251.804 487.406 250.657C487.406 249.514 487.8 248.546 488.593 247.753C489.393 246.953 490.364 246.551 491.512 246.551C492.655 246.551 493.623 246.953 494.415 247.753C495.215 248.546 495.617 249.514 495.617 250.657C495.617 251.804 495.215 252.776 494.415 253.576C493.623 254.368 492.655 254.763 491.512 254.763ZM488.468 258.868H494.571V287.154H488.468V258.868Z" fill="#202124"/>
<path d="M505.652 254.763C504.505 254.763 503.533 254.368 502.733 253.576C501.941 252.776 501.547 251.804 501.547 250.657C501.547 249.514 501.941 248.546 502.733 247.753C503.533 246.953 504.505 246.551 505.652 246.551C506.796 246.551 507.764 246.953 508.556 247.753C509.356 248.546 509.758 249.514 509.758 250.657C509.758 251.804 509.356 252.776 508.556 253.576C507.764 254.368 506.796 254.763 505.652 254.763ZM500.22 299.69C499.033 299.69 497.999 299.557 497.113 299.299V293.414C497.925 293.859 498.791 294.086 499.72 294.086C500.758 294.086 501.5 293.766 501.937 293.133C502.382 292.509 502.608 291.572 502.608 290.323V258.868H508.712V290.433C508.712 293.574 507.939 295.9 506.402 297.411C504.872 298.929 502.811 299.69 500.22 299.69Z" fill="#202124"/>
<path d="M525.178 288.044C523.137 288.044 521.322 287.646 519.73 286.858C518.146 286.058 516.909 284.93 516.015 283.47C515.129 282.003 514.688 280.348 514.688 278.506C514.688 275.583 515.785 273.273 517.982 271.575C520.187 269.87 522.969 269.015 526.333 269.015C527.996 269.015 529.495 269.179 530.829 269.499C532.16 269.811 533.218 270.151 533.998 270.514V269.077C533.998 267.341 533.346 265.924 532.047 264.831C530.755 263.739 529.097 263.192 527.067 263.192C525.619 263.192 524.257 263.512 522.977 264.145C521.705 264.769 520.682 265.635 519.902 266.736L515.64 263.473C516.897 261.737 518.52 260.39 520.511 259.43C522.509 258.462 524.729 257.978 527.176 257.978C531.274 257.978 534.435 258.989 536.652 261.007C538.877 263.017 539.993 265.854 539.993 269.515V287.154H533.998V283.767H533.717C532.905 284.996 531.758 286.015 530.283 286.827C528.804 287.638 527.102 288.044 525.178 288.044ZM526.224 283.002C527.699 283.002 529.034 282.655 530.22 281.956C531.407 281.25 532.332 280.301 532.999 279.115C533.663 277.929 533.998 276.656 533.998 275.29C533.144 274.803 532.148 274.412 531.017 274.12C529.893 273.831 528.722 273.683 527.504 273.683C525.213 273.683 523.531 274.135 522.462 275.041C521.389 275.946 520.854 277.117 520.854 278.553C520.854 279.857 521.354 280.922 522.353 281.753C523.352 282.588 524.64 283.002 526.224 283.002Z" fill="#202124"/>
<path d="M558.73 281.379C559.905 280.204 562.231 277.866 565.708 274.369C569.182 270.873 571.492 268.496 572.639 267.235C574.2 265.581 575.266 264.238 575.839 263.208C576.409 262.17 576.698 260.925 576.698 259.477C576.698 258.033 576.14 256.772 575.028 255.699C573.923 254.63 572.425 254.091 570.532 254.091C568.791 254.091 567.379 254.603 566.286 255.621C565.201 256.644 564.495 257.818 564.163 259.149L558.605 256.87C558.98 255.539 559.671 254.228 560.682 252.936C561.7 251.637 563.058 250.544 564.756 249.658C566.461 248.776 568.424 248.331 570.641 248.331C573.045 248.331 575.176 248.823 577.042 249.798C578.915 250.778 580.359 252.109 581.381 253.795C582.4 255.481 582.911 257.338 582.911 259.368C582.911 261.553 582.341 263.657 581.21 265.674C580.086 267.684 578.653 269.557 576.917 271.294C576.175 271.993 574.31 273.839 571.312 276.836C568.284 279.864 566.77 281.379 566.77 281.379L566.879 281.613H583.411V287.154H558.73V281.379Z" fill="#202124"/>
<path d="M604.53 288.044C601.427 288.044 598.691 287.162 596.318 285.406C593.953 283.65 592.135 281.265 590.855 278.256C589.582 275.24 588.95 271.883 588.95 268.188C588.95 264.453 589.582 261.081 590.855 258.072C592.135 255.055 593.953 252.679 596.318 250.938C598.691 249.201 601.427 248.331 604.53 248.331C607.628 248.331 610.356 249.201 612.709 250.938C615.059 252.679 616.87 255.055 618.142 258.072C619.422 261.081 620.062 264.453 620.062 268.188C620.062 271.883 619.422 275.24 618.142 278.256C616.87 281.265 615.051 283.65 612.678 285.406C610.313 287.162 607.597 288.044 604.53 288.044ZM604.53 282.268C606.411 282.268 608.065 281.652 609.494 280.411C610.918 279.174 612.007 277.492 612.756 275.369C613.513 273.245 613.896 270.853 613.896 268.188C613.896 265.526 613.513 263.122 612.756 260.976C612.007 258.833 610.918 257.151 609.494 255.933C608.065 254.708 606.411 254.091 604.53 254.091C602.602 254.091 600.939 254.708 599.534 255.933C598.129 257.151 597.044 258.833 596.287 260.976C595.538 263.122 595.163 265.526 595.163 268.188C595.163 270.853 595.538 273.245 596.287 275.369C597.044 277.492 598.129 279.174 599.534 280.411C600.939 281.652 602.602 282.268 604.53 282.268Z" fill="#202124"/>
<path d="M625.551 281.379C626.725 280.204 629.051 277.866 632.529 274.369C636.002 270.873 638.312 268.496 639.46 267.235C641.021 265.581 642.086 264.238 642.66 263.208C643.23 262.17 643.518 260.925 643.518 259.477C643.518 258.033 642.96 256.772 641.848 255.699C640.744 254.63 639.245 254.091 637.352 254.091C635.612 254.091 634.199 254.603 633.106 255.621C632.021 256.644 631.315 257.818 630.983 259.149L625.426 256.87C625.8 255.539 626.491 254.228 627.502 252.936C628.521 251.637 629.879 250.544 631.576 249.658C633.282 248.776 635.245 248.331 637.462 248.331C639.866 248.331 641.996 248.823 643.862 249.798C645.735 250.778 647.179 252.109 648.202 253.795C649.22 255.481 649.731 257.338 649.731 259.368C649.731 261.553 649.162 263.657 648.03 265.674C646.906 267.684 645.474 269.557 643.737 271.294C642.995 271.993 641.13 273.839 638.133 276.836C635.104 279.864 633.59 281.379 633.59 281.379L633.699 281.613H650.231V287.154H625.551V281.379Z" fill="#202124"/>
<path d="M673.285 279.615H655.536V274.838L672.786 249.221H679.389V273.948H684.213V279.615H679.389V287.154H673.285V279.615ZM673.285 273.948V258.259H672.957L662.358 273.948H673.285Z" fill="#202124"/>
</svg>
