<svg width="246" height="55" viewBox="0 0 246 55" fill="none" xmlns="http://www.w3.org/2000/svg">
<rect width="48.4474" height="16.0815" rx="8.04076" transform="matrix(-0.866042 -0.499971 0.50003 -0.866009 237.959 38.149)" fill="url(#paint0_linear_1204_6)"/>
<path d="M241.978 23.1144C244.199 26.9602 242.881 31.8777 239.035 34.0979L211.005 50.28C207.159 52.5002 202.241 51.1825 200.021 47.3367V47.3367C197.8 43.491 199.118 38.5735 202.964 36.3532L230.994 20.1712C234.84 17.9509 239.758 19.2686 241.978 23.1144V23.1144Z" fill="url(#paint1_linear_1204_6)"/>
<g filter="url(#filter0_d_1204_6)">
<rect width="48.4465" height="16.0822" rx="8.0411" transform="matrix(0.866015 -0.500018 0.499982 0.866036 2 24.2241)" fill="url(#paint2_linear_1204_6)"/>
</g>
<rect width="48.4465" height="16.0822" rx="8.0411" transform="matrix(0.866015 0.500018 -0.499982 0.866036 10.0444 16.151)" fill="url(#paint3_linear_1204_6)"/>
<defs>
<filter id="filter0_d_1204_6" x="0.941833" y="2.94194" width="52.1125" height="40.2679" filterUnits="userSpaceOnUse" color-interpolation-filters="sRGB">
<feFlood flood-opacity="0" result="BackgroundImageFix"/>
<feColorMatrix in="SourceAlpha" type="matrix" values="0 0 0 0 0 0 0 0 0 0 0 0 0 0 0 0 0 0 127 0" result="hardAlpha"/>
<feOffset dy="4"/>
<feGaussianBlur stdDeviation="2"/>
<feComposite in2="hardAlpha" operator="out"/>
<feColorMatrix type="matrix" values="0 0 0 0 0 0 0 0 0 0 0 0 0 0 0 0 0 0 0.25 0"/>
<feBlend mode="normal" in2="BackgroundImageFix" result="effect1_dropShadow_1204_6"/>
<feBlend mode="normal" in="SourceGraphic" in2="effect1_dropShadow_1204_6" result="shape"/>
</filter>
<linearGradient id="paint0_linear_1204_6" x1="48.4474" y1="8.04076" x2="0" y2="8.04076" gradientUnits="userSpaceOnUse">
<stop stop-color="#2088F0"/>
<stop offset="1" stop-color="#2A97A7"/>
</linearGradient>
<linearGradient id="paint1_linear_1204_6" x1="200.021" y1="47.3367" x2="241.976" y2="23.1116" gradientUnits="userSpaceOnUse">
<stop stop-color="#33A65F"/>
<stop offset="1" stop-color="#2C9B94"/>
</linearGradient>
<linearGradient id="paint2_linear_1204_6" x1="0" y1="8.0411" x2="48.4465" y2="8.0411" gradientUnits="userSpaceOnUse">
<stop stop-color="#2B9A99"/>
<stop offset="1" stop-color="#1F86FB"/>
</linearGradient>
<linearGradient id="paint3_linear_1204_6" x1="0" y1="8.0411" x2="48.4465" y2="8.0411" gradientUnits="userSpaceOnUse">
<stop stop-color="#2996AD"/>
<stop offset="1" stop-color="#34A853"/>
</linearGradient>
</defs>
</svg>
