<svg width="180" height="203" viewBox="0 0 180 203" fill="none" xmlns="http://www.w3.org/2000/svg">
<path d="M66.1641 128.822L75.5714 151.834L101.984 170.866L136.994 172.019L178.824 160.866L178.873 1.59102L160.919 0.999418L106.423 15.1859L78.4531 50.7689L66.1641 128.822Z" fill="white" stroke="black"/>
<path d="M112.381 75.2979L98.9386 43.5915L130.625 29.691L161.98 15.9357L175.605 47.9647L144.039 61.6114L158.032 94.9091L171.894 127.894L140.407 141.404L109.769 154.55L95.2247 121.244L81.071 88.8339L112.381 75.2979Z" fill="white"/>
<path d="M94.0209 31.9922L151.272 167.031M122.585 10.5595L178.629 143.921M155.982 1.83733L178.82 55.5233M77.293 53.0873L178.725 8.58951M72.404 92.5808L178.353 46.7766M66.0415 133.481L178.661 86.2595M90.8323 162.675L178.631 125.004M117.272 171.731L74.7175 74.285" stroke="black"/>
<rect width="101.621" height="30.6982" rx="15.3491" transform="matrix(-0.33354 -0.942736 0.98459 -0.174883 93.7877 160.599)" fill="url(#paint0_linear_1204_6)"/>
<g filter="url(#filter0_d_1204_6)">
<path d="M119.267 143.911C119.606 152.567 112.925 158.617 104.344 157.424L36.7039 148.018C28.1233 146.825 20.8925 138.84 20.5534 130.183V130.183C20.2142 121.527 26.8952 115.477 35.4758 116.67L103.116 126.076C111.697 127.27 118.928 135.254 119.267 143.911V143.911Z" fill="url(#paint1_linear_1204_6)"/>
</g>
<defs>
<filter id="filter0_d_1204_6" x="16.541" y="116.52" width="106.738" height="49.0544" filterUnits="userSpaceOnUse" color-interpolation-filters="sRGB">
<feFlood flood-opacity="0" result="BackgroundImageFix"/>
<feColorMatrix in="SourceAlpha" type="matrix" values="0 0 0 0 0 0 0 0 0 0 0 0 0 0 0 0 0 0 127 0" result="hardAlpha"/>
<feOffset dy="4"/>
<feGaussianBlur stdDeviation="2"/>
<feComposite in2="hardAlpha" operator="out"/>
<feColorMatrix type="matrix" values="0 0 0 0 0 0 0 0 0 0 0 0 0 0 0 0 0 0 0.25 0"/>
<feBlend mode="normal" in2="BackgroundImageFix" result="effect1_dropShadow_1204_6"/>
<feBlend mode="normal" in="SourceGraphic" in2="effect1_dropShadow_1204_6" result="shape"/>
</filter>
<linearGradient id="paint0_linear_1204_6" x1="101.621" y1="15.3491" x2="0" y2="15.3491" gradientUnits="userSpaceOnUse">
<stop stop-color="#EB4235"/>
<stop offset="1" stop-color="#FDAD34"/>
</linearGradient>
<linearGradient id="paint1_linear_1204_6" x1="20.5534" y1="130.183" x2="118.578" y2="126.343" gradientUnits="userSpaceOnUse">
<stop stop-color="#FECB32"/>
<stop offset="1" stop-color="#F58633"/>
</linearGradient>
</defs>
</svg>
