<svg width="913" height="279" viewBox="0 0 913 279" fill="none" xmlns="http://www.w3.org/2000/svg">
<g clip-path="url(#clip0_169_355)">
<path d="M755.991 278.745C754.048 278.745 752.314 278.38 750.787 277.649C749.261 276.919 748.081 275.922 747.249 274.66C746.416 273.365 746 271.904 746 270.276C746 267.586 747.058 265.494 749.174 264C751.29 262.472 753.962 261.708 757.188 261.708C758.784 261.708 760.258 261.874 761.611 262.206C762.998 262.538 764.057 262.92 764.785 263.352V261.808C764.785 259.915 764.091 258.404 762.704 257.275C761.316 256.112 759.564 255.531 757.448 255.531C755.956 255.531 754.586 255.847 753.337 256.478C752.088 257.075 751.1 257.922 750.371 259.018L747.041 256.627C748.081 255.099 749.504 253.904 751.308 253.04C753.146 252.177 755.176 251.745 757.396 251.745C761.004 251.745 763.831 252.658 765.878 254.485C767.959 256.278 769 258.736 769 261.858V277.948H764.785V274.312H764.577C763.814 275.54 762.669 276.586 761.143 277.45C759.616 278.313 757.899 278.745 755.991 278.745ZM756.407 275.009C757.899 275.009 759.287 274.644 760.57 273.913C761.854 273.182 762.877 272.203 763.64 270.974C764.403 269.745 764.785 268.4 764.785 266.939C763.952 266.407 762.929 265.976 761.715 265.644C760.501 265.312 759.217 265.145 757.864 265.145C755.436 265.145 753.597 265.627 752.348 266.59C751.134 267.553 750.527 268.799 750.527 270.326C750.527 271.721 751.082 272.85 752.192 273.714C753.302 274.577 754.707 275.009 756.407 275.009Z" fill="#202124"/>
<path d="M739.01 247.852C738.193 247.852 737.49 247.55 736.902 246.944C736.314 246.338 736.02 245.615 736.02 244.774C736.02 243.932 736.314 243.226 736.902 242.654C737.49 242.048 738.193 241.745 739.01 241.745C739.827 241.745 740.529 242.048 741.118 242.654C741.706 243.226 742 243.932 742 244.774C742 245.615 741.706 246.338 741.118 246.944C740.562 247.55 739.859 247.852 739.01 247.852ZM734.206 289.745C733.422 289.745 732.686 289.627 732 289.392V285.303C732.261 285.472 732.588 285.606 732.98 285.707C733.373 285.808 733.732 285.859 734.059 285.859C735.072 285.859 735.807 285.522 736.265 284.849C736.722 284.21 736.951 283.251 736.951 281.972V252.597H741.069V281.972C741.069 284.563 740.464 286.498 739.255 287.777C738.046 289.089 736.363 289.745 734.206 289.745Z" fill="#202124"/>
<path d="M728 247.753C727.18 247.753 726.475 247.455 725.885 246.86C725.295 246.264 725 245.552 725 244.724C725 243.897 725.295 243.202 725.885 242.639C726.475 242.043 727.18 241.745 728 241.745C728.82 241.745 729.525 242.043 730.115 242.639C730.705 243.202 731 243.897 731 244.724C731 245.552 730.705 246.264 730.115 246.86C729.557 247.455 728.852 247.753 728 247.753ZM725.934 252.421H730.066V277.745H725.934V252.421Z" fill="#202124"/>
<path d="M706 252.488H710.147V256.549H710.352C710.863 255.162 711.853 254.023 713.321 253.132C714.788 252.207 716.324 251.745 717.928 251.745C719.123 251.745 720.147 251.91 721 252.24V256.797C719.908 256.268 718.679 256.004 717.314 256.004C716.051 256.004 714.891 256.351 713.833 257.044C712.775 257.737 711.921 258.678 711.273 259.867C710.659 261.023 710.352 262.277 710.352 263.631V277.745H706V252.488Z" fill="#202124"/>
<path d="M688.122 278.745C686.348 278.745 684.765 278.38 683.371 277.649C681.977 276.919 680.9 275.922 680.14 274.66C679.38 273.365 679 271.904 679 270.276C679 267.586 679.966 265.494 681.898 264C683.83 262.472 686.269 261.708 689.215 261.708C690.672 261.708 692.018 261.874 693.253 262.206C694.52 262.538 695.486 262.92 696.152 263.352V261.808C696.152 259.915 695.518 258.404 694.251 257.275C692.984 256.112 691.385 255.531 689.452 255.531C688.09 255.531 686.839 255.847 685.699 256.478C684.559 257.075 683.656 257.922 682.991 259.018L679.95 256.627C680.9 255.099 682.199 253.904 683.846 253.04C685.525 252.177 687.378 251.745 689.405 251.745C692.699 251.745 695.281 252.658 697.149 254.485C699.05 256.278 700 258.736 700 261.858V277.948H696.152V274.312H695.962C695.265 275.54 694.219 276.586 692.826 277.45C691.432 278.313 689.864 278.745 688.122 278.745ZM688.502 275.009C689.864 275.009 691.131 274.644 692.303 273.913C693.475 273.182 694.41 272.203 695.106 270.974C695.803 269.745 696.152 268.4 696.152 266.939C695.391 266.407 694.457 265.976 693.348 265.644C692.24 265.312 691.068 265.145 689.833 265.145C687.615 265.145 685.937 265.627 684.796 266.59C683.688 267.553 683.133 268.799 683.133 270.326C683.133 271.721 683.64 272.85 684.654 273.714C685.667 274.577 686.95 275.009 688.502 275.009Z" fill="#202124"/>
<path d="M664.34 246.705H654V242.745H679V246.705H668.712V277.745H664.34V246.705Z" fill="#202124"/>
<path d="M889.547 279.041C887.885 279.041 886.24 278.695 884.613 278.002C882.986 277.275 881.549 276.202 880.302 274.782C879.056 273.328 878.173 271.545 877.654 269.433L881.549 267.875C882.068 269.987 883.02 271.684 884.405 272.965C885.825 274.211 887.504 274.834 889.443 274.834C891.763 274.834 893.65 274.124 895.104 272.705C896.558 271.285 897.285 269.433 897.285 267.148C897.285 264.897 896.558 263.045 895.104 261.591C893.684 260.102 891.832 259.358 889.547 259.358C888.3 259.358 887.123 259.652 886.015 260.241C884.907 260.795 884.007 261.574 883.315 262.578L878.796 260.604L881.133 242.687H899.518V246.894H884.769L883.367 257.644L883.574 257.696C885.409 256.138 887.66 255.359 890.326 255.359C892.368 255.359 894.255 255.861 895.987 256.865C897.752 257.869 899.155 259.271 900.193 261.072C901.232 262.872 901.751 264.88 901.751 267.096C901.751 269.312 901.215 271.337 900.141 273.172C899.103 274.973 897.648 276.41 895.779 277.483C893.909 278.522 891.832 279.041 889.547 279.041Z" fill="#202124"/>
<path d="M849.329 273.796C850.402 272.723 852.532 270.576 855.717 267.356C858.902 264.102 861.118 261.799 862.365 260.449C864.13 258.545 865.325 257.056 865.948 255.983C866.571 254.909 866.883 253.611 866.883 252.087C866.883 251.049 866.606 250.079 866.052 249.179C865.533 248.244 864.754 247.5 863.715 246.946C862.711 246.357 861.499 246.063 860.079 246.063C858.21 246.063 856.704 246.617 855.561 247.725C854.453 248.798 853.726 249.975 853.38 251.257L849.329 249.647C849.675 248.539 850.299 247.396 851.199 246.219C852.099 245.007 853.311 243.986 854.834 243.155C856.358 242.289 858.158 241.856 860.235 241.856C862.416 241.856 864.338 242.324 866 243.259C867.696 244.193 869.012 245.44 869.947 246.998C870.882 248.556 871.349 250.235 871.349 252.036C871.349 255.671 869.445 259.427 865.636 263.305L854.99 274.004H871.765V278.21H849.329V273.796Z" fill="#202124"/>
<path d="M829.71 279.041C826.906 279.041 824.413 278.228 822.232 276.6C820.085 274.938 818.423 272.705 817.246 269.901C816.104 267.062 815.532 263.911 815.532 260.449C815.532 256.987 816.104 253.853 817.246 251.049C818.423 248.21 820.085 245.977 822.232 244.349C824.378 242.687 826.871 241.856 829.71 241.856C832.549 241.856 835.042 242.687 837.189 244.349C839.335 245.977 840.98 248.21 842.123 251.049C843.3 253.853 843.888 256.987 843.888 260.449C843.888 263.911 843.3 267.062 842.123 269.901C840.98 272.705 839.318 274.938 837.137 276.6C834.99 278.228 832.515 279.041 829.71 279.041ZM829.71 274.835C831.684 274.835 833.398 274.211 834.852 272.965C836.306 271.684 837.431 269.953 838.227 267.772C839.024 265.59 839.422 263.149 839.422 260.449C839.422 257.748 839.024 255.307 838.227 253.126C837.431 250.945 836.306 249.231 834.852 247.985C833.398 246.704 831.684 246.063 829.71 246.063C827.737 246.063 826.023 246.704 824.569 247.985C823.115 249.231 821.989 250.945 821.193 253.126C820.397 255.307 819.999 257.748 819.999 260.449C819.999 263.149 820.397 265.59 821.193 267.772C821.989 269.953 823.115 271.684 824.569 272.965C826.023 274.211 827.737 274.835 829.71 274.835Z" fill="#202124"/>
<path d="M787 273.796C788.073 272.723 790.203 270.576 793.388 267.356C796.573 264.102 798.789 261.799 800.035 260.449C801.801 258.545 802.996 257.056 803.619 255.983C804.242 254.909 804.554 253.611 804.554 252.087C804.554 251.049 804.277 250.079 803.723 249.179C803.203 248.244 802.424 247.5 801.386 246.946C800.382 246.357 799.17 246.063 797.75 246.063C795.881 246.063 794.375 246.617 793.232 247.725C792.124 248.798 791.397 249.975 791.051 251.257L787 249.647C787.346 248.539 787.969 247.396 788.87 246.219C789.77 245.007 790.982 243.986 792.505 243.155C794.028 242.289 795.829 241.856 797.906 241.856C800.087 241.856 802.009 242.324 803.671 243.259C805.367 244.193 806.683 245.44 807.618 246.998C808.553 248.556 809.02 250.235 809.02 252.036C809.02 255.671 807.116 259.427 803.307 263.305L792.661 274.004H809.436V278.21H787V273.796Z" fill="#202124"/>
<path d="M622.491 276.548L611.533 251.724H616.311L624.621 271.407H624.724L632.722 251.724H637.5L621.141 289.428H616.571L622.491 276.548Z" fill="#202124"/>
<path d="M594.734 279.041C592.795 279.041 591.064 278.66 589.54 277.899C588.017 277.137 586.84 276.098 586.009 274.782C585.178 273.432 584.762 271.909 584.762 270.212C584.762 267.408 585.818 265.227 587.93 263.669C590.042 262.076 592.708 261.28 595.928 261.28C597.521 261.28 598.992 261.453 600.342 261.799C601.727 262.145 602.783 262.543 603.51 262.993V261.384C603.51 259.41 602.818 257.835 601.433 256.658C600.048 255.446 598.3 254.84 596.188 254.84C594.699 254.84 593.331 255.169 592.085 255.827C590.839 256.45 589.852 257.333 589.125 258.475L585.801 255.982C586.84 254.39 588.259 253.143 590.059 252.243C591.895 251.343 593.92 250.893 596.136 250.893C599.737 250.893 602.558 251.845 604.601 253.749C606.678 255.619 607.717 258.181 607.717 261.435V278.21H603.51V274.419H603.303C602.541 275.7 601.398 276.791 599.875 277.691C598.352 278.591 596.638 279.041 594.734 279.041ZM595.149 275.146C596.638 275.146 598.023 274.765 599.304 274.003C600.585 273.242 601.606 272.22 602.368 270.939C603.13 269.658 603.51 268.256 603.51 266.733C602.679 266.179 601.658 265.729 600.446 265.382C599.234 265.036 597.953 264.863 596.603 264.863C594.18 264.863 592.345 265.365 591.098 266.369C589.886 267.373 589.28 268.672 589.28 270.264C589.28 271.718 589.834 272.896 590.942 273.796C592.05 274.696 593.453 275.146 595.149 275.146Z" fill="#202124"/>
<path d="M549.597 241.025H560.814C564.623 241.025 567.947 241.821 570.786 243.414C573.625 244.972 575.806 247.153 577.329 249.958C578.853 252.762 579.615 255.982 579.615 259.618C579.615 263.253 578.853 266.473 577.329 269.277C575.806 272.082 573.625 274.28 570.786 275.873C567.947 277.431 564.623 278.21 560.814 278.21H549.597V241.025ZM560.814 274.003C565.212 274.003 568.691 272.74 571.253 270.212C573.85 267.685 575.148 264.153 575.148 259.618C575.148 255.082 573.85 251.55 571.253 249.023C568.691 246.496 565.212 245.232 560.814 245.232H553.959V274.003H560.814Z" fill="#202124"/>
<path d="M519.263 279.041C516.424 279.041 514.052 278.383 512.148 277.068C510.244 275.717 508.893 274.003 508.097 271.926L512.044 270.16C512.702 271.753 513.671 272.982 514.952 273.848C516.268 274.713 517.705 275.146 519.263 275.146C520.925 275.146 522.344 274.817 523.522 274.159C524.699 273.467 525.287 272.497 525.287 271.251C525.287 270.143 524.82 269.26 523.885 268.602C522.95 267.91 521.479 267.321 519.471 266.837L516.251 266.006C514.139 265.486 512.408 264.603 511.057 263.357C509.707 262.111 509.032 260.501 509.032 258.527C509.032 257.004 509.482 255.671 510.382 254.528C511.317 253.351 512.546 252.451 514.07 251.828C515.593 251.204 517.238 250.893 519.003 250.893C521.323 250.893 523.383 251.395 525.184 252.399C527.019 253.403 528.317 254.805 529.079 256.606L525.235 258.371C524.058 256.017 521.964 254.84 518.951 254.84C517.497 254.84 516.216 255.186 515.108 255.878C514.035 256.536 513.498 257.385 513.498 258.423C513.498 259.393 513.879 260.189 514.641 260.812C515.403 261.401 516.545 261.886 518.068 262.266L521.912 263.253C524.508 263.911 526.465 264.898 527.78 266.213C529.096 267.494 529.754 269.07 529.754 270.939C529.754 272.567 529.286 274.003 528.351 275.25C527.417 276.462 526.153 277.397 524.56 278.054C522.968 278.712 521.202 279.041 519.263 279.041Z" fill="#202124"/>
<path d="M499.022 250.373L501.567 246.478C500.944 246.374 500.39 246.063 499.905 245.544C499.421 244.99 499.178 244.314 499.178 243.518C499.178 242.583 499.49 241.804 500.113 241.181C500.771 240.523 501.55 240.194 502.45 240.194C503.385 240.194 504.164 240.523 504.787 241.181C505.445 241.804 505.774 242.583 505.774 243.518C505.774 244.072 505.653 244.609 505.41 245.128C505.203 245.647 504.856 246.271 504.372 246.998L501.1 251.724L499.022 250.373Z" fill="#202124"/>
<path d="M470.613 251.724H474.82V255.619H475.028C475.755 254.303 476.915 253.195 478.507 252.295C480.1 251.36 481.796 250.893 483.597 250.893C486.782 250.893 489.206 251.828 490.868 253.697C492.564 255.532 493.412 258.042 493.412 261.228V278.21H488.998V261.903C488.998 259.445 488.409 257.662 487.232 256.554C486.055 255.446 484.445 254.892 482.402 254.892C480.983 254.892 479.702 255.29 478.559 256.086C477.451 256.883 476.586 257.939 475.962 259.254C475.339 260.535 475.028 261.886 475.028 263.305V278.21H470.613V251.724Z" fill="#202124"/>
<path d="M452.1 279.041C449.573 279.041 447.305 278.435 445.297 277.223C443.289 276.012 441.714 274.35 440.571 272.238C439.463 270.091 438.909 267.685 438.909 265.019C438.909 262.457 439.429 260.102 440.467 257.956C441.54 255.809 443.047 254.095 444.985 252.814C446.924 251.533 449.175 250.893 451.737 250.893C454.334 250.893 456.584 251.481 458.488 252.659C460.393 253.801 461.847 255.394 462.851 257.437C463.889 259.479 464.409 261.816 464.409 264.448C464.409 264.967 464.357 265.417 464.253 265.798H443.324C443.427 267.806 443.912 269.503 444.778 270.887C445.643 272.272 446.734 273.311 448.05 274.003C449.4 274.696 450.802 275.042 452.256 275.042C455.649 275.042 458.263 273.45 460.098 270.264L463.838 272.082C462.695 274.229 461.137 275.925 459.163 277.171C457.225 278.418 454.87 279.041 452.1 279.041ZM459.735 262.163C459.665 261.055 459.354 259.947 458.8 258.839C458.246 257.731 457.363 256.796 456.151 256.034C454.974 255.273 453.485 254.892 451.685 254.892C449.608 254.892 447.842 255.567 446.388 256.917C444.968 258.233 444.033 259.981 443.583 262.163H459.735Z" fill="#202124"/>
<path d="M393.83 251.724H398.037V255.619H398.244C399.006 254.269 400.149 253.143 401.672 252.243C403.196 251.343 404.805 250.893 406.502 250.893C408.441 250.893 410.12 251.36 411.54 252.295C412.994 253.23 414.032 254.476 414.656 256.034C415.59 254.476 416.82 253.23 418.343 252.295C419.901 251.36 421.701 250.893 423.744 250.893C426.791 250.893 429.076 251.828 430.599 253.697C432.157 255.532 432.936 258.042 432.936 261.228V278.21H428.574V261.903C428.574 259.445 428.072 257.662 427.068 256.554C426.064 255.446 424.575 254.892 422.602 254.892C421.286 254.892 420.091 255.273 419.018 256.034C417.945 256.796 417.097 257.817 416.473 259.098C415.885 260.379 415.59 261.764 415.59 263.253V278.21H411.176V261.955C411.176 259.462 410.674 257.662 409.67 256.554C408.666 255.446 407.194 254.892 405.256 254.892C403.94 254.892 402.745 255.29 401.672 256.086C400.599 256.848 399.751 257.887 399.127 259.202C398.539 260.483 398.244 261.868 398.244 263.357V278.21H393.83V251.724Z" fill="#202124"/>
<path d="M374.566 279.041C371.969 279.041 369.632 278.418 367.555 277.171C365.478 275.925 363.85 274.229 362.673 272.082C361.531 269.935 360.959 267.564 360.959 264.967C360.959 262.37 361.531 259.999 362.673 257.852C363.85 255.705 365.478 254.009 367.555 252.762C369.632 251.516 371.969 250.893 374.566 250.893C377.163 250.893 379.5 251.516 381.577 252.762C383.655 254.009 385.265 255.705 386.407 257.852C387.584 259.999 388.173 262.37 388.173 264.967C388.173 267.564 387.584 269.935 386.407 272.082C385.265 274.229 383.655 275.925 381.577 277.171C379.5 278.418 377.163 279.041 374.566 279.041ZM374.566 275.042C376.193 275.042 377.7 274.644 379.084 273.848C380.504 273.017 381.629 271.84 382.46 270.316C383.326 268.793 383.759 267.01 383.759 264.967C383.759 262.924 383.326 261.141 382.46 259.618C381.629 258.094 380.504 256.934 379.084 256.138C377.7 255.307 376.193 254.892 374.566 254.892C372.939 254.892 371.416 255.307 369.996 256.138C368.576 256.934 367.434 258.094 366.568 259.618C365.737 261.141 365.322 262.924 365.322 264.967C365.322 267.01 365.737 268.793 366.568 270.316C367.434 271.84 368.576 273.017 369.996 273.848C371.416 274.644 372.939 275.042 374.566 275.042Z" fill="#202124"/>
<path d="M312.832 241.025H317.714L324.465 268.342L325.088 270.887H325.296L326.075 268.342L334.385 241.025H338.955L346.901 268.342L347.68 270.887H347.888L355.21 241.025H360.092L350.069 278.21H345.499L337.605 251.308L336.774 248.4H336.566L335.683 251.308L327.477 278.21H322.907L312.832 241.025Z" fill="#202124"/>
<path d="M292.198 241.025H296.612V278.21H292.198V241.025Z" fill="#202124"/>
<path d="M272.034 279.041C270.095 279.041 268.364 278.66 266.841 277.899C265.318 277.137 264.14 276.098 263.309 274.782C262.478 273.432 262.063 271.909 262.063 270.212C262.063 267.408 263.119 265.227 265.231 263.669C267.343 262.076 270.009 261.28 273.229 261.28C274.821 261.28 276.293 261.453 277.643 261.799C279.028 262.145 280.084 262.543 280.811 262.993V261.384C280.811 259.41 280.119 257.835 278.734 256.658C277.349 255.446 275.6 254.84 273.488 254.84C272 254.84 270.632 255.169 269.386 255.827C268.139 256.45 267.153 257.333 266.425 258.475L263.102 255.982C264.14 254.39 265.56 253.143 267.36 252.243C269.195 251.343 271.221 250.893 273.437 250.893C277.037 250.893 279.859 251.845 281.902 253.749C283.979 255.619 285.018 258.181 285.018 261.435V278.21H280.811V274.419H280.603C279.842 275.7 278.699 276.791 277.176 277.691C275.652 278.591 273.939 279.041 272.034 279.041ZM272.45 275.146C273.939 275.146 275.324 274.765 276.605 274.003C277.886 273.242 278.907 272.22 279.669 270.939C280.43 269.658 280.811 268.256 280.811 266.733C279.98 266.179 278.959 265.729 277.747 265.382C276.535 265.036 275.254 264.863 273.904 264.863C271.48 264.863 269.645 265.365 268.399 266.369C267.187 267.373 266.581 268.672 266.581 270.264C266.581 271.718 267.135 272.896 268.243 273.796C269.351 274.696 270.753 275.146 272.45 275.146Z" fill="#202124"/>
<path d="M233.672 251.724H237.879V255.619H238.087C238.814 254.303 239.974 253.195 241.566 252.295C243.159 251.36 244.856 250.893 246.656 250.893C249.841 250.893 252.265 251.828 253.927 253.697C255.623 255.532 256.471 258.042 256.471 261.228V278.21H252.057V261.903C252.057 259.445 251.468 257.662 250.291 256.554C249.114 255.446 247.504 254.892 245.461 254.892C244.042 254.892 242.761 255.29 241.618 256.086C240.51 256.883 239.645 257.939 239.022 259.254C238.398 260.535 238.087 261.886 238.087 263.305V278.21H233.672V251.724Z" fill="#202124"/>
<path d="M214.408 279.041C211.811 279.041 209.474 278.418 207.397 277.171C205.32 275.925 203.692 274.229 202.515 272.082C201.373 269.935 200.801 267.564 200.801 264.967C200.801 262.37 201.373 259.999 202.515 257.852C203.692 255.705 205.32 254.009 207.397 252.762C209.474 251.516 211.811 250.893 214.408 250.893C217.005 250.893 219.342 251.516 221.419 252.762C223.496 254.009 225.106 255.705 226.249 257.852C227.426 259.999 228.015 262.37 228.015 264.967C228.015 267.564 227.426 269.935 226.249 272.082C225.106 274.229 223.496 275.925 221.419 277.171C219.342 278.418 217.005 279.041 214.408 279.041ZM214.408 275.042C216.035 275.042 217.541 274.644 218.926 273.848C220.346 273.017 221.471 271.84 222.302 270.316C223.168 268.793 223.6 267.01 223.6 264.967C223.6 262.924 223.168 261.141 222.302 259.618C221.471 258.094 220.346 256.934 218.926 256.138C217.541 255.307 216.035 254.892 214.408 254.892C212.781 254.892 211.257 255.307 209.838 256.138C208.418 256.934 207.276 258.094 206.41 259.618C205.579 261.141 205.164 262.924 205.164 264.967C205.164 267.01 205.579 268.793 206.41 270.316C207.276 271.84 208.418 273.017 209.838 273.848C211.257 274.644 212.781 275.042 214.408 275.042Z" fill="#202124"/>
<path d="M192.299 246.842C191.434 246.842 190.689 246.531 190.066 245.907C189.443 245.284 189.131 244.54 189.131 243.674C189.131 242.809 189.443 242.082 190.066 241.493C190.689 240.87 191.434 240.558 192.299 240.558C193.165 240.558 193.909 240.87 194.532 241.493C195.156 242.082 195.467 242.809 195.467 243.674C195.467 244.54 195.156 245.284 194.532 245.907C193.944 246.531 193.2 246.842 192.299 246.842ZM190.118 251.724H194.481V278.21H190.118V251.724Z" fill="#202124"/>
<path d="M179.571 278.626C178.498 278.626 177.494 278.453 176.559 278.106C175.659 277.76 174.897 277.293 174.274 276.704C173.581 276.046 173.062 275.285 172.716 274.419C172.369 273.553 172.196 272.498 172.196 271.251V255.723H167.574V251.724H172.196V244.245H176.611V251.724H183.051V255.723H176.611V270.16C176.611 271.615 176.888 272.688 177.442 273.38C178.1 274.142 179.052 274.523 180.298 274.523C181.302 274.523 182.272 274.229 183.206 273.64V277.951C182.687 278.193 182.15 278.366 181.596 278.47C181.077 278.574 180.402 278.626 179.571 278.626Z" fill="#202124"/>
<path d="M149.736 279.041C147.797 279.041 146.066 278.66 144.543 277.899C143.019 277.137 141.842 276.098 141.011 274.782C140.18 273.432 139.765 271.909 139.765 270.212C139.765 267.408 140.821 265.227 142.933 263.669C145.045 262.076 147.711 261.28 150.93 261.28C152.523 261.28 153.995 261.453 155.345 261.799C156.73 262.145 157.786 262.543 158.513 262.993V261.384C158.513 259.41 157.82 257.835 156.435 256.658C155.051 255.446 153.302 254.84 151.19 254.84C149.701 254.84 148.334 255.169 147.087 255.827C145.841 256.45 144.854 257.333 144.127 258.475L140.803 255.982C141.842 254.39 143.262 253.143 145.062 252.243C146.897 251.343 148.922 250.893 151.138 250.893C154.739 250.893 157.561 251.845 159.603 253.749C161.681 255.619 162.72 258.181 162.72 261.435V278.21H158.513V274.419H158.305C157.543 275.7 156.401 276.791 154.877 277.691C153.354 278.591 151.64 279.041 149.736 279.041ZM150.151 275.146C151.64 275.146 153.025 274.765 154.306 274.003C155.587 273.242 156.609 272.22 157.37 270.939C158.132 269.658 158.513 268.256 158.513 266.733C157.682 266.179 156.661 265.729 155.449 265.382C154.237 265.036 152.956 264.863 151.606 264.863C149.182 264.863 147.347 265.365 146.101 266.369C144.889 267.373 144.283 268.672 144.283 270.264C144.283 271.718 144.837 272.896 145.945 273.796C147.053 274.696 148.455 275.146 150.151 275.146Z" fill="#202124"/>
<path d="M111.374 251.724H115.581V255.619H115.788C116.515 254.303 117.675 253.195 119.268 252.295C120.861 251.36 122.557 250.893 124.358 250.893C127.543 250.893 129.966 251.828 131.628 253.697C133.325 255.532 134.173 258.042 134.173 261.228V278.21H129.759V261.903C129.759 259.445 129.17 257.662 127.993 256.554C126.816 255.446 125.206 254.892 123.163 254.892C121.744 254.892 120.462 255.29 119.32 256.086C118.212 256.883 117.346 257.939 116.723 259.254C116.1 260.535 115.788 261.886 115.788 263.305V278.21H111.374V251.724Z" fill="#202124"/>
<path d="M90.8599 251.724H95.0665V255.982H95.2743C95.7936 254.528 96.7977 253.334 98.2864 252.399C99.7752 251.43 101.333 250.945 102.961 250.945C104.172 250.945 105.211 251.118 106.077 251.464V256.242C104.969 255.688 103.722 255.411 102.337 255.411C101.056 255.411 99.8791 255.775 98.8058 256.502C97.7325 257.229 96.8669 258.216 96.2091 259.462C95.5859 260.674 95.2743 261.989 95.2743 263.409V278.21H90.8599V251.724Z" fill="#202124"/>
<path d="M72.3465 279.041C69.8191 279.041 67.5513 278.435 65.5432 277.223C63.535 276.012 61.9597 274.35 60.8172 272.238C59.7092 270.091 59.1553 267.685 59.1553 265.019C59.1553 262.457 59.6746 260.102 60.7133 257.956C61.7866 255.809 63.2927 254.095 65.2316 252.814C67.1704 251.533 69.4209 250.893 71.983 250.893C74.5797 250.893 76.8302 251.481 78.7344 252.659C80.6387 253.801 82.0928 255.394 83.0969 257.437C84.1356 259.479 84.6549 261.816 84.6549 264.448C84.6549 264.967 84.603 265.417 84.4991 265.798H63.5697C63.6735 267.806 64.1583 269.503 65.0238 270.887C65.8894 272.272 66.98 273.311 68.2957 274.003C69.646 274.696 71.0482 275.042 72.5023 275.042C75.8954 275.042 78.5094 273.45 80.3444 270.264L84.0836 272.082C82.9411 274.229 81.3831 275.925 79.4096 277.171C77.4707 278.418 75.1163 279.041 72.3465 279.041ZM79.9808 262.163C79.9116 261.055 79.6 259.947 79.046 258.839C78.4921 257.731 77.6092 256.796 76.3974 256.034C75.2202 255.273 73.7314 254.892 71.9311 254.892C69.8537 254.892 68.0879 255.567 66.6338 256.917C65.2143 258.233 64.2794 259.981 63.8293 262.163H79.9808Z" fill="#202124"/>
<path d="M51.8459 278.626C50.7726 278.626 49.7685 278.453 48.8337 278.106C47.9335 277.76 47.1718 277.293 46.5486 276.704C45.8562 276.046 45.3368 275.285 44.9906 274.419C44.6444 273.553 44.4713 272.498 44.4713 271.251V255.723H39.8491V251.724H44.4713V244.245H48.8856V251.724H55.3255V255.723H48.8856V270.16C48.8856 271.615 49.1626 272.688 49.7166 273.38C50.3744 274.142 51.3266 274.523 52.573 274.523C53.577 274.523 54.5465 274.229 55.4813 273.64V277.951C54.9619 278.193 54.4253 278.366 53.8713 278.47C53.352 278.574 52.6768 278.626 51.8459 278.626Z" fill="#202124"/>
<path d="M12.835 251.724H17.0416V255.619H17.2494C17.9764 254.303 19.1363 253.195 20.7289 252.295C22.3216 251.36 24.0181 250.893 25.8185 250.893C29.0038 250.893 31.4274 251.828 33.0892 253.697C34.7858 255.532 35.634 258.042 35.634 261.228V278.21H31.2196V261.903C31.2196 259.445 30.631 257.662 29.4539 256.554C28.2767 255.446 26.6667 254.892 24.624 254.892C23.2045 254.892 21.9234 255.29 20.7809 256.086C19.6729 256.883 18.8074 257.939 18.1842 259.254C17.561 260.535 17.2494 261.886 17.2494 263.305V278.21H12.835V251.724Z" fill="#202124"/>
<path d="M0 241.025H4.36246V278.21H0V241.025Z" fill="#202124"/>
<path d="M884.959 190.194C879.127 190.194 873.87 188.851 869.189 186.165C864.507 183.479 860.824 179.796 858.138 175.115C855.529 170.357 854.224 165.023 854.224 159.114C854.224 153.512 855.529 148.332 858.138 143.574C860.747 138.739 864.354 134.902 868.959 132.063C873.563 129.223 878.705 127.803 884.384 127.803C890.446 127.803 895.665 129.108 900.039 131.717C904.413 134.326 907.713 137.895 909.938 142.423C912.241 146.95 913.392 151.977 913.392 157.502C913.392 159.267 913.277 160.956 913.046 162.567H868.959C869.726 167.249 871.568 170.817 874.484 173.273C877.477 175.652 881.045 176.841 885.189 176.841C888.643 176.841 891.597 176.112 894.053 174.654C896.585 173.119 898.581 171.086 900.039 168.553L912.241 174.539C906.255 184.976 897.161 190.194 884.959 190.194ZM898.888 151.862C898.734 150.02 898.044 148.217 896.816 146.452C895.665 144.61 894.015 143.113 891.866 141.962C889.794 140.734 887.338 140.12 884.499 140.12C880.892 140.12 877.784 141.195 875.175 143.344C872.642 145.416 870.8 148.255 869.649 151.862H898.888Z" fill="#2480F0"/>
<path d="M830.985 105.932H846.065V188.353H830.985V105.932Z" fill="#2480F0"/>
<path d="M794.498 190.195C790.507 190.195 786.938 189.35 783.792 187.662C780.722 185.974 778.42 183.863 776.885 181.331H775.964V188.353H761.806V105.932H776.885V128.494L775.964 136.782H776.885C778.497 134.25 780.838 132.14 783.907 130.451C786.977 128.686 790.507 127.804 794.498 127.804C799.793 127.804 804.589 129.147 808.887 131.833C813.261 134.442 816.676 138.125 819.132 142.883C821.587 147.641 822.815 153.013 822.815 158.999C822.815 165.062 821.587 170.472 819.132 175.23C816.676 179.911 813.261 183.595 808.887 186.281C804.589 188.89 799.793 190.195 794.498 190.195ZM791.85 176.266C794.689 176.266 797.337 175.537 799.793 174.079C802.248 172.621 804.205 170.587 805.663 167.978C807.122 165.369 807.851 162.376 807.851 158.999C807.851 155.622 807.122 152.63 805.663 150.02C804.205 147.411 802.248 145.416 799.793 144.035C797.337 142.576 794.689 141.847 791.85 141.847C789.087 141.847 786.478 142.576 784.022 144.035C781.567 145.416 779.61 147.411 778.152 150.02C776.693 152.63 775.964 155.622 775.964 158.999C775.964 162.376 776.693 165.369 778.152 167.978C779.61 170.587 781.567 172.621 784.022 174.079C786.478 175.537 789.087 176.266 791.85 176.266Z" fill="#2480F0"/>
<path d="M741.388 123.199C738.702 123.199 736.4 122.24 734.481 120.321C732.563 118.403 731.604 116.1 731.604 113.415C731.604 110.729 732.563 108.465 734.481 106.623C736.4 104.704 738.702 103.745 741.388 103.745C744.074 103.745 746.338 104.704 748.18 106.623C750.098 108.465 751.057 110.729 751.057 113.415C751.057 116.1 750.098 118.403 748.18 120.321C746.338 122.24 744.074 123.199 741.388 123.199ZM733.791 129.645H748.87V188.353H733.791V129.645Z" fill="#2480F0"/>
<path d="M700.524 190.194C693.387 190.194 687.593 188.736 683.142 185.82C678.767 182.904 675.698 179.105 673.933 174.424L687.401 168.553C688.629 171.316 690.355 173.426 692.581 174.884C694.883 176.266 697.531 176.956 700.524 176.956C703.286 176.956 705.588 176.534 707.43 175.69C709.272 174.769 710.193 173.311 710.193 171.316C710.193 169.397 709.349 167.978 707.661 167.057C705.972 166.059 703.44 165.177 700.063 164.409L693.156 162.913C688.398 161.762 684.446 159.69 681.3 156.697C678.153 153.627 676.58 149.828 676.58 145.301C676.58 141.924 677.578 138.893 679.573 136.207C681.645 133.521 684.408 131.449 687.861 129.991C691.391 128.533 695.267 127.803 699.488 127.803C711.613 127.803 719.709 132.063 723.776 140.581L710.884 146.221C708.581 142.077 704.898 140.005 699.833 140.005C697.224 140.005 695.152 140.504 693.617 141.502C692.082 142.423 691.315 143.612 691.315 145.07C691.315 147.833 693.924 149.905 699.142 151.286L707.776 153.358C713.608 154.816 717.982 157.042 720.898 160.035C723.891 163.028 725.388 166.711 725.388 171.086C725.388 174.846 724.275 178.184 722.05 181.1C719.901 183.94 716.908 186.165 713.071 187.777C709.31 189.389 705.128 190.194 700.524 190.194Z" fill="#2480F0"/>
<path d="M645.283 190.194C638.146 190.194 632.352 188.736 627.901 185.82C623.527 182.904 620.457 179.105 618.692 174.424L632.161 168.553C633.388 171.316 635.115 173.426 637.341 174.884C639.643 176.266 642.29 176.956 645.283 176.956C648.046 176.956 650.348 176.534 652.19 175.69C654.032 174.769 654.953 173.311 654.953 171.316C654.953 169.397 654.109 167.978 652.42 167.057C650.732 166.059 648.2 165.177 644.823 164.409L637.916 162.913C633.158 161.762 629.206 159.69 626.06 156.697C622.913 153.627 621.34 149.828 621.34 145.301C621.34 141.924 622.338 138.893 624.333 136.207C626.405 133.521 629.168 131.449 632.621 129.991C636.151 128.533 640.027 127.803 644.247 127.803C656.372 127.803 664.469 132.063 668.536 140.581L655.643 146.221C653.341 142.077 649.658 140.005 644.593 140.005C641.983 140.005 639.911 140.504 638.377 141.502C636.842 142.423 636.074 143.612 636.074 145.07C636.074 147.833 638.684 149.905 643.902 151.286L652.535 153.358C658.368 154.816 662.742 157.042 665.658 160.035C668.651 163.028 670.148 166.711 670.148 171.086C670.148 174.846 669.035 178.184 666.809 181.1C664.661 183.94 661.668 186.165 657.831 187.777C654.07 189.389 649.888 190.194 645.283 190.194Z" fill="#2480F0"/>
<path d="M583.658 190.194C577.595 190.194 572.185 188.851 567.427 186.165C562.669 183.403 558.947 179.681 556.261 174.999C553.652 170.242 552.347 164.908 552.347 158.999C552.347 153.167 553.652 147.871 556.261 143.113C558.947 138.355 562.669 134.633 567.427 131.948C572.185 129.185 577.595 127.803 583.658 127.803C589.644 127.803 595.015 129.185 599.773 131.948C604.531 134.633 608.215 138.355 610.824 143.113C613.51 147.871 614.853 153.167 614.853 158.999C614.853 164.908 613.51 170.242 610.824 174.999C608.215 179.681 604.531 183.403 599.773 186.165C595.015 188.851 589.644 190.194 583.658 190.194ZM583.658 176.266C586.574 176.266 589.26 175.575 591.716 174.194C594.171 172.812 596.128 170.817 597.586 168.208C599.044 165.599 599.773 162.529 599.773 158.999C599.773 155.546 599.044 152.514 597.586 149.905C596.128 147.296 594.171 145.301 591.716 143.919C589.26 142.538 586.574 141.847 583.658 141.847C580.742 141.847 578.056 142.538 575.6 143.919C573.144 145.301 571.149 147.296 569.614 149.905C568.156 152.514 567.427 155.546 567.427 158.999C567.427 162.452 568.156 165.522 569.614 168.208C571.149 170.817 573.144 172.812 575.6 174.194C578.056 175.575 580.742 176.266 583.658 176.266Z" fill="#2480F0"/>
<path d="M494.308 105.932H523.316C528.535 105.932 533.293 107.045 537.59 109.271C541.888 111.419 545.264 114.489 547.72 118.479C550.176 122.393 551.404 126.883 551.404 131.948C551.404 137.013 550.176 141.54 547.72 145.531C545.264 149.521 541.888 152.629 537.59 154.855C533.293 157.004 528.535 158.078 523.316 158.078H509.848V188.353H494.308V105.932ZM523.777 143.344C527.614 143.344 530.607 142.231 532.756 140.005C534.981 137.78 536.094 135.094 536.094 131.948C536.094 128.801 534.981 126.154 532.756 124.005C530.607 121.779 527.614 120.667 523.777 120.667H509.848V143.344H523.777Z" fill="#2480F0"/>
<path d="M430.963 190.194C425.131 190.194 419.874 188.851 415.193 186.165C410.511 183.479 406.828 179.796 404.142 175.115C401.533 170.357 400.228 165.023 400.228 159.114C400.228 153.512 401.533 148.332 404.142 143.574C406.751 138.739 410.358 134.902 414.962 132.063C419.567 129.223 424.709 127.803 430.387 127.803C436.45 127.803 441.668 129.108 446.043 131.717C450.417 134.326 453.717 137.895 455.942 142.423C458.245 146.95 459.396 151.977 459.396 157.502C459.396 159.267 459.281 160.956 459.05 162.567H414.962C415.73 167.249 417.572 170.817 420.488 173.273C423.481 175.652 427.049 176.841 431.193 176.841C434.647 176.841 437.601 176.112 440.057 174.654C442.589 173.119 444.585 171.086 446.043 168.553L458.245 174.539C452.259 184.976 443.165 190.194 430.963 190.194ZM444.892 151.862C444.738 150.02 444.047 148.217 442.82 146.452C441.668 144.61 440.018 143.113 437.87 141.962C435.798 140.734 433.342 140.12 430.503 140.12C426.896 140.12 423.788 141.195 421.178 143.344C418.646 145.416 416.804 148.255 415.653 151.862H444.892Z" fill="#202124"/>
<path d="M337.419 129.645H351.578V137.012H352.499C354.264 134.173 356.758 131.948 359.981 130.336C363.204 128.648 366.696 127.803 370.456 127.803C377.516 127.803 382.888 129.952 386.572 134.25C390.255 138.547 392.097 144.418 392.097 151.862V188.352H377.018V153.704C377.018 149.943 376.058 147.027 374.14 144.955C372.221 142.883 369.535 141.847 366.082 141.847C362.015 141.847 358.715 143.42 356.182 146.567C353.727 149.713 352.499 153.665 352.499 158.423V188.352H337.419V129.645Z" fill="#202124"/>
<path d="M317.013 123.775C314.327 123.775 312.025 122.815 310.106 120.897C308.264 118.978 307.344 116.676 307.344 113.99C307.344 111.304 308.264 109.04 310.106 107.198C312.025 105.28 314.327 104.321 317.013 104.321C319.699 104.321 322.001 105.28 323.92 107.198C325.838 109.04 326.798 111.304 326.798 113.99C326.798 116.676 325.838 118.978 323.92 120.897C322.001 122.815 319.699 123.775 317.013 123.775ZM271.198 142.538H260.723V129.645H271.198V126.422C271.198 119.746 273.194 114.527 277.184 110.767C281.175 106.93 286.393 105.011 292.839 105.011C295.449 105.011 297.597 105.242 299.286 105.702V120.206C298.979 120.129 298.326 119.938 297.329 119.631C296.331 119.324 295.142 119.17 293.76 119.17C291.535 119.17 289.731 119.899 288.35 121.357C286.969 122.815 286.278 124.811 286.278 127.343V129.645H324.61V188.353H309.531V142.538H286.278V188.353H271.198V142.538Z" fill="#202124"/>
<path d="M228.82 190.194C222.988 190.194 217.731 188.851 213.05 186.165C208.368 183.479 204.685 179.796 201.999 175.115C199.39 170.357 198.085 165.023 198.085 159.114C198.085 153.512 199.39 148.332 201.999 143.574C204.608 138.739 208.215 134.902 212.819 132.063C217.424 129.223 222.566 127.803 228.244 127.803C234.307 127.803 239.525 129.108 243.9 131.717C248.274 134.326 251.574 137.895 253.799 142.423C256.102 146.95 257.253 151.977 257.253 157.502C257.253 159.267 257.138 160.956 256.907 162.567H212.819C213.587 167.249 215.429 170.817 218.345 173.273C221.338 175.652 224.906 176.841 229.05 176.841C232.504 176.841 235.458 176.112 237.914 174.654C240.446 173.119 242.442 171.086 243.9 168.553L256.102 174.539C250.116 184.976 241.022 190.194 228.82 190.194ZM242.748 151.862C242.595 150.02 241.904 148.217 240.676 146.452C239.525 144.61 237.875 143.113 235.727 141.962C233.655 140.734 231.199 140.12 228.359 140.12C224.753 140.12 221.645 141.195 219.035 143.344C216.503 145.416 214.661 148.255 213.51 151.862H242.748Z" fill="#202124"/>
<path d="M157.337 190.194C152.042 190.194 147.208 188.89 142.833 186.281C138.536 183.595 135.121 179.911 132.588 175.23C130.133 170.472 128.905 165.062 128.905 158.999C128.905 153.013 130.133 147.641 132.588 142.883C135.121 138.125 138.536 134.442 142.833 131.832C147.208 129.147 152.042 127.804 157.337 127.804C161.328 127.804 164.858 128.686 167.928 130.451C170.997 132.139 173.338 134.25 174.95 136.782H175.871L174.95 128.494V105.932H189.914V188.353H175.871V181.331H174.95C173.415 183.863 171.074 185.974 167.928 187.662C164.858 189.35 161.328 190.194 157.337 190.194ZM159.87 176.266C162.709 176.266 165.357 175.537 167.813 174.079C170.268 172.621 172.225 170.587 173.683 167.978C175.142 165.369 175.871 162.376 175.871 158.999C175.871 155.622 175.142 152.629 173.683 150.02C172.225 147.411 170.268 145.416 167.813 144.034C165.357 142.576 162.709 141.847 159.87 141.847C157.107 141.847 154.498 142.576 152.042 144.034C149.587 145.416 147.63 147.411 146.172 150.02C144.714 152.629 143.984 155.622 143.984 158.999C143.984 162.376 144.714 165.369 146.172 167.978C147.63 170.587 149.587 172.621 152.042 174.079C154.498 175.537 157.107 176.266 159.87 176.266Z" fill="#202124"/>
<path d="M94.3946 190.194C88.5623 190.194 83.3055 188.851 78.6243 186.165C73.943 183.479 70.2594 179.796 67.5735 175.115C64.9643 170.357 63.6597 165.023 63.6597 159.114C63.6597 153.512 64.9643 148.332 67.5735 143.574C70.1827 138.739 73.7895 134.902 78.394 132.063C82.9985 129.223 88.1402 127.803 93.8191 127.803C99.8816 127.803 105.1 129.108 109.474 131.717C113.849 134.326 117.148 137.895 119.374 142.423C121.676 146.95 122.827 151.977 122.827 157.502C122.827 159.267 122.712 160.956 122.482 162.567H78.394C79.1614 167.249 81.0032 170.817 83.9194 173.273C86.9123 175.652 90.4808 176.841 94.6249 176.841C98.0782 176.841 101.033 176.112 103.488 174.654C106.021 173.119 108.016 171.086 109.474 168.553L121.676 174.539C115.69 184.976 106.597 190.194 94.3946 190.194ZM108.323 151.862C108.17 150.02 107.479 148.217 106.251 146.452C105.1 144.61 103.45 143.113 101.301 141.962C99.2293 140.734 96.7736 140.12 93.9342 140.12C90.3273 140.12 87.2193 141.195 84.6101 143.344C82.0776 145.416 80.2358 148.255 79.0847 151.862H108.323Z" fill="#202124"/>
<path d="M0 105.932H30.0443C35.4162 105.932 40.1742 107.045 44.3182 109.271C48.539 111.496 51.8005 114.604 54.1027 118.595C56.405 122.508 57.5561 126.959 57.5561 131.948C57.5561 137.243 55.8678 141.962 52.4912 146.106C49.1913 150.174 45.0089 153.128 39.9439 154.97L39.8288 155.776L61.9304 187.432V188.353H44.088L22.7922 157.387H15.5401V188.353H0V105.932ZM29.9292 143.113C33.4593 143.113 36.3371 142.039 38.5626 139.89C40.7881 137.742 41.9008 135.017 41.9008 131.717C41.9008 128.571 40.8265 125.885 38.6777 123.66C36.6057 121.434 33.7663 120.321 30.1594 120.321H15.5401V143.113H29.9292Z" fill="#202124"/>
<path opacity="0.3" d="M22.1575 43.6676H15.2783C14.3916 43.6676 13.666 42.9421 13.666 42.0553V11.6901C13.666 10.8033 14.3916 10.0778 15.2783 10.0778H22.1575C23.0443 10.0778 23.7698 10.8033 23.7698 11.6901V42.0553C23.7698 42.9421 23.0443 43.6676 22.1575 43.6676Z" fill="#202124"/>
<path d="M48.9622 43.6675H42.1099C41.2231 43.6675 40.4976 42.942 40.4976 42.0552V11.6899C40.4976 10.83 41.2231 10.0776 42.1099 10.0776H48.9622C49.849 10.0776 50.5745 10.8032 50.5745 11.6899V42.0552C50.5745 42.942 49.849 43.6675 48.9622 43.6675Z" fill="#202124"/>
<g opacity="0.3">
<path opacity="0.3" d="M50.4135 42.0552V11.6899C50.4135 10.8972 49.7686 10.1851 48.8818 10.0776C49.8627 10.0776 50.5748 10.7897 50.5748 11.6899V42.0552H50.4135Z" fill="#202124"/>
</g>
<g opacity="0.3">
<path opacity="0.3" d="M40.6588 42.1358H40.4976V11.7706C40.4841 11.1794 40.7394 10.7494 41.0619 10.4673C41.3172 10.2523 41.6799 10.1045 41.9755 10.0776C42.0427 10.0776 42.1099 10.0776 42.1905 10.0776H49.0025H49.0563C49.4862 10.0776 50.0102 10.3329 50.3193 10.8032C50.4939 11.0585 50.6014 11.3944 50.588 11.7706C50.588 10.9241 49.9027 10.2389 49.0563 10.2389H42.2039C41.6665 10.2389 41.2366 10.4404 40.9678 10.8032C40.82 11.0047 40.6857 11.26 40.6454 11.5422C40.6185 11.7974 40.6185 12.0662 40.6185 12.1468L40.6588 42.1358Z" fill="#202124"/>
</g>
<path d="M22.1575 43.6677L15.4395 43.5334C14.5528 43.5334 13.6929 42.9422 13.6929 42.0554V11.6902C13.6929 10.8034 14.4184 10.0779 15.3052 10.0779H22.1575C23.0443 10.0779 23.7698 10.8034 23.7698 11.6902V42.0554C23.7698 42.9422 23.0443 43.6677 22.1575 43.6677Z" fill="#202124"/>
<mask id="path-54-outside-1_169_355" maskUnits="userSpaceOnUse" x="26.3979" y="19.155" width="25" height="26" fill="black">
<rect fill="white" x="26.3979" y="19.155" width="25" height="26"/>
<path d="M27.3979 22.775L40.6458 42.7408C41.0757 43.4933 41.5594 43.6679 42.2044 43.6679H48.9626C50.6959 43.6679 50.8034 41.5451 50.5212 41.0479L37.0315 21.0821C36.6419 20.5044 36.1179 20.155 35.473 20.155"/>
</mask>
<path d="M27.3979 22.775L40.6458 42.7408C41.0757 43.4933 41.5594 43.6679 42.2044 43.6679H48.9626C50.6959 43.6679 50.8034 41.5451 50.5212 41.0479L37.0315 21.0821C36.6419 20.5044 36.1179 20.155 35.473 20.155" fill="#202124"/>
<path d="M40.6458 42.7408L41.0799 42.4928L41.0716 42.4783L41.0624 42.4644L40.6458 42.7408ZM50.5212 41.0479L50.9561 40.8011L50.9464 40.7842L50.9355 40.768L50.5212 41.0479ZM37.0315 21.0821L36.617 21.3617L36.6172 21.362L37.0315 21.0821ZM26.9813 23.0515L40.2292 43.0173L41.0624 42.4644L27.8146 22.4986L26.9813 23.0515ZM40.2117 42.9889C40.4588 43.4214 40.7476 43.7327 41.1071 43.9266C41.4639 44.1191 41.8391 44.1679 42.2044 44.1679V43.1679C41.9247 43.1679 41.7356 43.1294 41.5819 43.0465C41.4308 42.965 41.2627 42.8127 41.0799 42.4928L40.2117 42.9889ZM42.2044 44.1679H48.9626V43.1679H42.2044V44.1679ZM48.9626 44.1679C49.5062 44.1679 49.9523 43.9985 50.2962 43.7134C50.6328 43.4343 50.8437 43.0679 50.9694 42.7101C51.0951 42.3522 51.1434 41.9817 51.1404 41.6623C51.1376 41.3627 51.0889 41.0353 50.9561 40.8011L50.0864 41.2947C50.0851 41.2926 50.1006 41.3225 50.1157 41.3993C50.1296 41.4706 50.1395 41.5633 50.1405 41.6717C50.1425 41.8902 50.1085 42.1436 50.026 42.3786C49.9434 42.6136 49.8202 42.809 49.6579 42.9436C49.503 43.072 49.2857 43.1679 48.9626 43.1679V44.1679ZM50.9355 40.768L37.4458 20.8022L36.6172 21.362L50.1069 41.3278L50.9355 40.768ZM37.4461 20.8025C36.9907 20.1274 36.3276 19.655 35.473 19.655V20.655C35.9082 20.655 36.293 20.8813 36.617 21.3617L37.4461 20.8025Z" fill="white" mask="url(#path-54-outside-1_169_355)"/>
<g opacity="0.4">
<path opacity="0.4" d="M42.3374 43.6674C41.6925 43.6674 41.1148 43.56 40.6714 42.7941L32.1933 30.0165L27.4639 22.8149L27.5982 22.7343L40.7789 42.6598L40.8192 42.7404C41.2357 43.4793 41.7194 43.6674 42.3374 43.6674Z" fill="#202124"/>
</g>
<g opacity="0.3">
<path opacity="0.3" d="M23.7566 26.6845H23.6895L23.7163 11.6094L23.7566 11.5825V26.6845Z" fill="#202124"/>
</g>
<g opacity="0.3">
<path opacity="0.3" d="M13.8272 41.5852H13.6929V11.7171C13.6929 11.623 13.6929 11.5424 13.7063 11.4618C13.7735 10.9915 14.0153 10.6288 14.3647 10.3735C14.62 10.1854 14.9424 10.0779 15.2918 10.0779H22.2247C22.6815 10.0779 23.1249 10.3197 23.4071 10.6691C23.6355 10.9378 23.7564 11.3006 23.7564 11.5961H23.7161C23.7161 11.0453 23.0846 10.2122 22.2113 10.2122H15.2783C14.8215 10.2122 14.405 10.4272 14.1363 10.7631C14.0153 10.9243 13.7332 11.3274 13.7332 11.8917L13.8272 41.5852Z" fill="#202124"/>
</g>
<g opacity="0.3">
<path opacity="0.3" d="M48.9622 43.6811H42.2039C41.559 43.6811 41.1022 43.5601 40.6454 42.754L40.7797 42.6734C41.1962 43.4123 41.5859 43.5198 42.2039 43.5198H48.9488C49.54 43.5198 49.9296 43.3048 50.2117 42.8212C50.5879 42.1762 50.5476 41.4238 50.3998 41.1685L36.8833 21.1355L37.0177 21.0549L50.5476 41.0879C50.7357 41.4238 50.588 42.5524 50.3595 42.9018C50.1177 43.2645 49.7684 43.6811 48.9622 43.6811Z" fill="#202124"/>
</g>
<path d="M13.6215 40.9073L13.6071 40.9284L13.5973 40.952C13.3091 41.6467 13.3438 42.3828 13.6639 42.9537C13.9877 43.531 14.5925 43.9178 15.3868 43.9178H22.2794C23.0238 43.9178 23.6341 43.5256 24.0477 42.8769L37.254 22.9128L37.2605 22.9031L37.266 22.8927C37.9804 21.5552 37.0725 19.9049 35.5273 19.9049H28.9571C28.2075 19.9049 27.614 20.3156 27.1915 20.9418C27.1914 20.942 27.1913 20.9421 27.1913 20.9422L13.6215 40.9073Z" fill="#202124" stroke="white" stroke-width="0.5"/>
<g opacity="0.3">
<path opacity="0.3" d="M16.4607 43.6544L15.4664 43.6678C14.7543 43.6812 14.2572 43.3991 13.9347 42.9154C13.5854 42.3914 13.5585 41.7196 13.8273 41.0612L13.8407 41.0344L27.3976 21.0686C27.8141 20.4371 28.3649 20.1549 29.0099 20.1549H35.58C35.8219 20.1683 36.0637 20.2221 36.2787 20.3161C36.4399 20.3968 36.5877 20.4908 36.7221 20.6252C36.843 20.7461 36.9505 20.8804 37.0446 21.0417C37.0446 21.0417 36.1847 20.3027 35.5935 20.3027H29.0233C28.4321 20.3027 27.935 20.558 27.5454 21.1492L13.975 41.115C13.7198 41.733 13.7601 42.3511 14.0691 42.8348C14.3647 43.2782 14.8618 43.6006 15.4664 43.6006L16.4607 43.6544Z" fill="#202124"/>
</g>
<g opacity="0.3">
<path opacity="0.3" d="M22.2782 43.6671C22.0229 43.6671 16.4873 43.6806 15.399 43.6671C15.305 43.6671 15.2378 43.6671 15.2243 43.6671C14.8884 43.6403 14.566 43.5193 14.3241 43.3312L14.0688 43.076C14.2973 43.2506 14.8884 43.479 15.1975 43.4925C15.4527 43.5059 22.2245 43.5059 22.2916 43.5059C22.8963 43.5059 23.4068 43.1834 23.783 42.5923L36.9771 22.6265C37.2727 22.089 37.219 21.4978 36.9099 20.9738C36.8024 20.7857 36.6412 20.4901 36.4128 20.3558C36.0232 20.1274 36.171 20.2214 36.4128 20.3558C36.6412 20.4901 36.8428 20.6648 37.004 20.9067C37.3668 21.4575 37.3668 22.2099 37.1115 22.6936C37.1115 22.6936 37.1115 22.7071 37.098 22.7205C36.0097 24.3866 34.1959 27.1141 32.2611 30.0431C28.3378 35.9683 23.9174 42.6594 23.9174 42.6594C23.4606 43.3312 22.9366 43.6671 22.2782 43.6671Z" fill="#202124"/>
</g>
<g opacity="0.3">
<g opacity="0.3">
<path opacity="0.3" d="M16.8218 48.1422C16.8218 47.551 16.2978 47.1345 15.7335 47.1345L7.90036 47.0673C7.69882 47.0673 7.51072 47.0136 7.33605 46.9061L7.32261 46.8927C7.28231 46.8792 7.242 46.8523 7.20169 46.812L7.14795 46.7717C7.26887 46.8658 7.40323 46.933 7.55103 46.9598C7.56446 46.9598 7.65851 46.9733 7.67195 46.9733C7.71226 46.9733 7.766 46.9867 7.80631 46.9867H15.7335C15.9888 46.9867 16.2172 47.0673 16.3919 47.2017C16.5262 47.2957 16.6472 47.4435 16.7143 47.6048C16.7815 47.766 16.8218 47.8869 16.8218 48.1422Z" fill="#202124"/>
</g>
<g opacity="0.3">
<path opacity="0.3" d="M1.07462 0.000854492H15.7467C16.2438 0.000854492 16.8081 0.430805 16.8081 1.04886C16.8081 0.51142 16.1766 0.135214 15.7467 0.135214H1.07462C1.04775 0.135214 1.03431 0.135215 0.994002 0.148651L0.819336 0.0411627C0.859644 0.0142908 0.96713 0.000854492 1.07462 0.000854492Z" fill="#202124"/>
</g>
</g>
<g opacity="0.3">
<g opacity="0.3">
<path opacity="0.3" d="M56.2968 6.74548C56.9283 6.74548 57.4388 7.12169 57.4388 7.76662L57.4657 45.8844C57.4791 46.2471 57.3448 46.583 57.1164 46.8115C56.8745 47.0533 56.5521 47.1742 56.1624 47.1742H48.3696C47.8187 47.1742 47.4156 47.5639 47.4156 48.1147L47.4022 52.6023C47.4022 52.8442 47.4694 53.1935 47.6843 53.3951C47.9396 53.6503 48.3427 53.731 48.3427 53.731C48.289 53.731 48.2218 53.731 48.168 53.7175C47.5769 53.6235 47.2544 53.1801 47.2544 52.5889L47.2678 48.1013C47.2678 47.4698 47.7381 47.013 48.3696 47.013H56.1624C56.5118 47.013 56.7939 46.9055 56.9954 46.6905C57.197 46.489 57.3045 46.1934 57.3045 45.8709V7.75318C57.3179 7.21574 56.8342 6.75892 56.2968 6.74548Z" fill="#202124"/>
<path opacity="0.3" d="M48.3964 6.75901C47.6978 6.75901 47.2812 6.26188 47.2812 5.63039V1.02186C47.2812 0.524735 47.7246 0.000732422 48.3561 0.000732422C48.3696 0.000732422 60.3947 0.0141684 62.9476 0.000732422C63.27 0.000732422 63.5387 0.188837 63.5387 0.188837L63.3238 0.135092C63.2969 0.135092 63.2163 0.135092 63.1894 0.135092C62.3161 0.135092 48.3696 0.135092 48.3427 0.135092C47.8187 0.161964 47.4291 0.497863 47.4291 1.02186L47.4022 5.63039C47.4022 6.18126 47.8053 6.75901 48.3561 6.75901" fill="#202124"/>
</g>
</g>
<path d="M15.7469 53.7446H1.07487C0.483694 53.7446 0 53.2609 0 52.6697V1.07573C0 0.484548 0.483694 0.000854492 1.07487 0.000854492H15.7335C16.3247 0.000854492 16.8084 0.484548 16.8084 1.07573V5.64395C16.8084 6.23513 16.3247 6.71882 15.7335 6.71882H7.79284C7.20166 6.71882 6.71797 7.20252 6.71797 7.7937V45.9115C6.71797 46.5026 7.20166 46.9863 7.79284 46.9863H15.7335C16.3247 46.9863 16.8084 47.47 16.8084 48.0612V52.6697C16.8218 53.2609 16.3381 53.7446 15.7469 53.7446Z" fill="#202124"/>
<g opacity="0.3">
<g opacity="0.3">
<path opacity="0.3" d="M1.06186 53.7452C0.65878 53.7452 0.322885 53.5034 0.10791 53.1272C0.296013 53.4631 0.699088 53.584 1.06186 53.584L15.7339 53.5705C16.3117 53.5705 16.6879 53.154 16.6879 52.7375L16.7282 48.1424C16.7282 48.1424 16.7147 47.7797 16.6879 47.7259L16.6072 47.39L16.6744 47.4975C16.6744 47.4975 16.8357 47.7528 16.8357 48.0215C16.8357 48.1021 16.8357 48.2096 16.8357 48.2634V52.7375C16.8357 53.2347 16.352 53.7318 15.7473 53.7318L1.06186 53.7452Z" fill="#202124"/>
</g>
<g opacity="0.3">
<path opacity="0.3" d="M7.69967 46.9862C7.41752 46.9862 6.55762 46.6235 6.55762 45.992V7.8608C6.55762 7.22931 7.04131 6.53064 7.6728 6.53064H15.5328C16.0703 6.53064 16.648 6.27536 16.648 5.72449V1.15627C16.648 0.605395 16.2046 0.000777457 15.6537 0.000777457C16.0434 -0.0126585 16.3927 0.148573 16.6077 0.444164C16.7421 0.632267 16.8361 0.874114 16.8092 1.15627V5.68418C16.8092 5.68418 16.8092 5.75136 16.7958 5.83197C16.7689 5.97977 16.7152 6.12756 16.6346 6.24849C16.5271 6.39628 16.3927 6.51721 16.2315 6.61126C16.03 6.71875 15.8015 6.73218 15.5328 6.71875H7.75341C7.57875 6.71875 7.41752 6.78593 7.26972 6.85311C6.90695 7.05464 6.69197 7.45772 6.73228 7.8608V45.992C6.73228 46.2204 6.82634 46.4085 6.94726 46.5697C7.13536 46.8116 7.41752 46.9594 7.69967 46.9862Z" fill="#202124"/>
</g>
</g>
<path d="M48.3429 0.000732422H62.9344C63.5256 0.000732422 64.0093 0.484426 64.0093 1.07561V52.6696C64.0093 53.2608 63.5256 53.7445 62.9344 53.7445H48.3429C47.7518 53.7445 47.2681 53.2608 47.2681 52.6696V48.1014C47.2681 47.5102 47.7518 47.0265 48.3429 47.0265H56.2567C56.8479 47.0265 57.3316 46.5428 57.3316 45.9517V7.83389C57.3316 7.24271 56.8479 6.75901 56.2567 6.75901H48.3429C47.7518 6.75901 47.2681 6.27532 47.2681 5.68414V1.07561C47.2815 0.484426 47.7518 0.000732422 48.3429 0.000732422Z" fill="#202124"/>
<g opacity="0.3">
<g opacity="0.3">
<path opacity="0.3" d="M63.2837 53.6905C63.633 53.5292 63.8614 53.059 63.8614 52.6693L63.8749 1.11564C63.8749 0.712559 63.6465 0.21543 63.2971 0.0541992C63.6599 0.175123 63.9152 0.484148 63.9958 0.87379C64.0092 0.954406 64.0092 1.03502 64.0092 1.12907V52.6828C64.0092 53.1127 63.7539 53.5158 63.2837 53.6905Z" fill="#202124"/>
</g>
</g>
<g opacity="0.3">
<path opacity="0.3" d="M63.0959 53.7315C63.0556 53.7315 62.9615 53.7449 62.9212 53.7449H48.6926H48.5717C48.3701 53.7449 48.2223 53.7449 48.1014 53.7181C47.9939 53.6912 47.8327 53.6375 47.7117 53.53C47.6983 53.5165 47.6714 53.4897 47.6446 53.4628C47.6177 53.4359 47.5908 53.4225 47.5908 53.4225C47.5908 53.4225 47.873 53.5568 47.9939 53.5837C48.2492 53.624 48.397 53.6106 48.5851 53.6106H48.706L62.975 53.624C63.19 53.624 63.5662 53.53 63.7408 53.4091L63.6736 53.4762C63.5662 53.5837 63.4184 53.6643 63.2571 53.7046C63.2303 53.7046 63.1362 53.7315 63.0959 53.7315Z" fill="#202124"/>
</g>
<g opacity="0.4">
<g opacity="0.4">
<path opacity="0.4" d="M47.2812 5.6178C47.2812 6.16867 47.8456 6.61206 48.3964 6.61206H56.3102C56.9417 6.61206 57.3313 7.06888 57.3313 7.7138C57.291 7.24354 56.8611 6.75985 56.3102 6.75985H48.3964C47.7649 6.75985 47.3216 6.27616 47.2812 5.8059V5.6178Z" fill="#202124"/>
</g>
</g>
<g opacity="0.4">
<g opacity="0.4">
<path opacity="0.4" d="M0.806796 0.0279541L0.981465 0.13544C0.4709 0.229492 0.148436 0.686314 0.148436 1.07596V52.6297C0.148436 53.0327 0.376845 53.5299 0.726179 53.6911C0.363409 53.5702 0.108129 53.2612 0.0275131 52.8715C0.0140772 52.7909 0.0140764 52.7103 0.0140764 52.6162V1.06252C0.000640428 0.632571 0.323102 0.135442 0.806796 0.0279541Z" fill="#202124"/>
</g>
</g>
<path d="M15.9757 53.7446H1.31706C0.725881 53.7446 0.242188 53.2609 0.242188 52.6697V1.07573C0.242188 0.484548 0.725881 0.000854492 1.31706 0.000854492H15.9757C16.5668 0.000854492 17.0505 0.484548 17.0505 1.07573V5.64395C17.0505 6.23513 16.5668 6.71882 15.9757 6.71882H8.03503C7.44385 6.71882 6.96016 7.20252 6.96016 7.7937V45.9115C6.96016 46.5026 7.44385 46.9863 8.03503 46.9863H15.9757C16.5668 46.9863 17.0505 47.47 17.0505 48.0612V52.6697C17.0505 53.2609 16.5668 53.7446 15.9757 53.7446Z" fill="#202124"/>
<g opacity="0.3">
<g opacity="0.3">
<path opacity="0.3" d="M1.29087 53.7449C0.887788 53.7449 0.551889 53.503 0.336914 53.1268C0.525017 53.4627 0.928096 53.5836 1.29087 53.5836L15.9629 53.5702C16.5407 53.5702 16.9169 53.1537 16.9169 52.7372L16.9572 48.1421C16.9572 48.1421 16.9437 47.7793 16.9169 47.7255L16.8363 47.3896L16.9034 47.4971C16.9034 47.4971 17.0647 47.7524 17.0647 48.0211C17.0647 48.1018 17.0647 48.2092 17.0647 48.263V52.7372C17.0647 53.2343 16.581 53.7314 15.9763 53.7314L1.29087 53.7449Z" fill="#202124"/>
</g>
<g opacity="0.3">
<path opacity="0.3" d="M7.94235 46.9864C7.66019 46.9864 6.80029 46.6236 6.80029 45.9921V7.87435C6.80029 7.24287 7.28398 6.5442 7.91547 6.5442H15.7755C16.3129 6.5442 16.8907 6.28891 16.8907 5.73804V1.16982C16.8907 0.618945 16.4473 0.0143273 15.8964 0.0143273C16.2861 0.000891319 16.6354 0.162123 16.8504 0.457714C16.9847 0.645817 17.0788 0.887664 17.0519 1.16982V5.69773C17.0519 5.69773 17.0519 5.76491 17.0385 5.84553C17.0116 5.99332 16.9579 6.14112 16.8772 6.26204C16.7698 6.40984 16.6354 6.53076 16.4742 6.62481C16.2726 6.7323 16.0442 6.74574 15.7755 6.7323H7.99609C7.82142 6.7323 7.66019 6.79948 7.5124 6.86666C7.14963 7.0682 6.93465 7.47128 6.97496 7.87435V46.0056C6.97496 46.234 7.06901 46.4221 7.18993 46.5833C7.3646 46.8117 7.66019 46.9729 7.94235 46.9864Z" fill="#202124"/>
</g>
</g>
<path d="M48.5851 0.000732422H63.1766C63.7677 0.000732422 64.2514 0.484426 64.2514 1.07561V52.6696C64.2514 53.2608 63.7677 53.7445 63.1766 53.7445H48.5851C47.9939 53.7445 47.5103 53.2608 47.5103 52.6696V48.1014C47.5103 47.5102 47.9939 47.0265 48.5851 47.0265H56.4989C57.0901 47.0265 57.5738 46.5428 57.5738 45.9517V7.83389C57.5738 7.24271 57.0901 6.75901 56.4989 6.75901H48.5851C47.9939 6.75901 47.5103 6.27532 47.5103 5.68414V1.07561C47.5103 0.484426 47.9939 0.000732422 48.5851 0.000732422Z" fill="#202124"/>
<g opacity="0.3">
<g opacity="0.3">
<path opacity="0.3" d="M63.5112 53.6896C63.8606 53.5284 64.089 53.0581 64.089 52.6685L64.1024 1.11478C64.1024 0.711705 63.874 0.214576 63.5247 0.0533447C63.8874 0.174268 64.1427 0.483293 64.2233 0.872936C64.2368 0.953551 64.2368 1.03417 64.2368 1.12822V52.6819C64.2502 53.1119 63.9815 53.5149 63.5112 53.6896Z" fill="#202124"/>
</g>
</g>
<g opacity="0.3">
<path opacity="0.3" d="M63.3381 53.7309C63.2978 53.7309 63.2037 53.7443 63.1634 53.7443H48.9347H48.8138C48.6123 53.7443 48.4645 53.7443 48.3436 53.7175C48.2361 53.6906 48.0748 53.6369 47.9539 53.5294C47.9405 53.5159 47.9136 53.4891 47.8867 53.4622C47.8599 53.4353 47.833 53.4219 47.833 53.4219C47.833 53.4219 48.1152 53.5562 48.2361 53.5831C48.4914 53.6234 48.6392 53.61 48.8273 53.61H48.9482L63.2172 53.6234C63.4321 53.6234 63.8083 53.5294 63.983 53.4084L63.9158 53.4756C63.8083 53.5831 63.6605 53.6637 63.4993 53.704C63.459 53.704 63.365 53.7309 63.3381 53.7309Z" fill="#202124"/>
</g>
<path d="M358.362 15.3126H352.641V13.0177H366.475V15.3126H360.782V33.3034H358.362V15.3126Z" fill="#202124"/>
<path d="M372.107 33.7567C371.044 33.7567 370.095 33.549 369.26 33.1334C368.425 32.7179 367.78 32.1513 367.325 31.4335C366.869 30.6969 366.642 29.8658 366.642 28.9403C366.642 27.4104 367.22 26.2204 368.378 25.3705C369.535 24.5016 370.997 24.0672 372.762 24.0672C373.634 24.0672 374.441 24.1616 375.181 24.3505C375.94 24.5394 376.519 24.7566 376.917 25.0021V24.1238C376.917 23.0472 376.538 22.1878 375.779 21.5456C375.02 20.8845 374.061 20.554 372.904 20.554C372.088 20.554 371.338 20.7334 370.655 21.0923C369.972 21.4323 369.431 21.9139 369.033 22.5373L367.211 21.1773C367.78 20.3085 368.558 19.6285 369.545 19.1374C370.551 18.6463 371.661 18.4008 372.875 18.4008C374.849 18.4008 376.396 18.9202 377.515 19.959C378.654 20.979 379.223 22.3767 379.223 24.1522V33.3034H376.917V31.2352H376.804C376.386 31.934 375.76 32.529 374.925 33.0201C374.09 33.5112 373.151 33.7567 372.107 33.7567ZM372.335 31.6318C373.151 31.6318 373.91 31.4241 374.612 31.0085C375.314 30.593 375.874 30.0358 376.291 29.3369C376.709 28.6381 376.917 27.8731 376.917 27.042C376.462 26.7398 375.902 26.4943 375.238 26.3054C374.574 26.1165 373.872 26.0221 373.132 26.0221C371.803 26.0221 370.797 26.296 370.114 26.8437C369.45 27.3915 369.118 28.0998 369.118 28.9686C369.118 29.7619 369.422 30.4041 370.029 30.8952C370.636 31.3863 371.405 31.6318 372.335 31.6318Z" fill="#202124"/>
<path d="M383.158 18.8541H385.464V21.1773H385.578C385.862 20.384 386.413 19.7324 387.229 19.2224C388.045 18.6935 388.899 18.4291 389.791 18.4291C390.455 18.4291 391.024 18.5235 391.499 18.7124V21.319C390.891 21.0168 390.208 20.8657 389.449 20.8657C388.747 20.8657 388.102 21.064 387.513 21.4606C386.925 21.8573 386.451 22.3956 386.09 23.0756C385.749 23.7366 385.578 24.4544 385.578 25.2288V33.3034H383.158V18.8541Z" fill="#202124"/>
<path d="M395.825 16.1909C395.351 16.1909 394.943 16.0209 394.601 15.6809C394.26 15.3409 394.089 14.9348 394.089 14.4626C394.089 13.9904 394.26 13.5938 394.601 13.2727C394.943 12.9327 395.351 12.7627 395.825 12.7627C396.3 12.7627 396.708 12.9327 397.049 13.2727C397.391 13.5938 397.562 13.9904 397.562 14.4626C397.562 14.9348 397.391 15.3409 397.049 15.6809C396.727 16.0209 396.319 16.1909 395.825 16.1909ZM394.63 18.8541H397.021V33.3034H394.63V18.8541Z" fill="#202124"/>
<path d="M402.816 16.1909C402.341 16.1909 401.933 16.0209 401.592 15.6809C401.25 15.3409 401.079 14.9348 401.079 14.4626C401.079 13.9904 401.25 13.5938 401.592 13.2727C401.933 12.9327 402.341 12.7627 402.816 12.7627C403.29 12.7627 403.698 12.9327 404.04 13.2727C404.381 13.5938 404.552 13.9904 404.552 14.4626C404.552 14.9348 404.381 15.3409 404.04 15.6809C403.717 16.0209 403.309 16.1909 402.816 16.1909ZM400.026 39.7065C399.571 39.7065 399.144 39.6404 398.745 39.5082V37.2133C398.897 37.3077 399.087 37.3832 399.315 37.4399C399.542 37.4966 399.751 37.5249 399.941 37.5249C400.529 37.5249 400.956 37.336 401.222 36.9583C401.487 36.5994 401.62 36.0611 401.62 35.3433V18.8541H404.011V35.3433C404.011 36.7977 403.66 37.8838 402.958 38.6015C402.256 39.3382 401.279 39.7065 400.026 39.7065Z" fill="#202124"/>
<path d="M412.884 33.7567C411.821 33.7567 410.872 33.549 410.037 33.1334C409.202 32.7179 408.557 32.1513 408.102 31.4335C407.646 30.6969 407.419 29.8658 407.419 28.9403C407.419 27.4104 407.997 26.2204 409.155 25.3705C410.313 24.5016 411.774 24.0672 413.539 24.0672C414.411 24.0672 415.218 24.1616 415.958 24.3505C416.717 24.5394 417.296 24.7566 417.694 25.0021V24.1238C417.694 23.0472 417.315 22.1878 416.556 21.5456C415.797 20.8845 414.838 20.554 413.681 20.554C412.865 20.554 412.115 20.7334 411.432 21.0923C410.749 21.4323 410.208 21.9139 409.81 22.5373L407.988 21.1773C408.557 20.3085 409.335 19.6285 410.322 19.1374C411.328 18.6463 412.438 18.4008 413.652 18.4008C415.626 18.4008 417.173 18.9202 418.292 19.959C419.431 20.979 420 22.3767 420 24.1522V33.3034H417.694V31.2352H417.581C417.163 31.934 416.537 32.529 415.702 33.0201C414.867 33.5112 413.928 33.7567 412.884 33.7567ZM413.112 31.6318C413.928 31.6318 414.687 31.4241 415.389 31.0085C416.091 30.593 416.651 30.0358 417.068 29.3369C417.486 28.6381 417.694 27.8731 417.694 27.042C417.239 26.7398 416.679 26.4943 416.015 26.3054C415.351 26.1165 414.649 26.0221 413.909 26.0221C412.58 26.0221 411.574 26.296 410.891 26.8437C410.227 27.3915 409.895 28.0998 409.895 28.9686C409.895 29.7619 410.199 30.4041 410.806 30.8952C411.413 31.3863 412.182 31.6318 413.112 31.6318Z" fill="#202124"/>
<path d="M81.2681 12.7628H84.0381L87.8573 28.1657L88.1931 29.5926H88.319L88.7387 28.1657L93.4393 12.7628H95.9994L100.49 28.1657L100.91 29.5926H101.036L105.149 12.7628H107.919L102.253 33.7057H99.6927L95.244 18.5546L94.7823 16.9178H94.6564L94.1528 18.5546L89.5361 33.7057H86.9759L81.2681 12.7628Z" fill="#202124"/>
<path d="M111.485 33.1184C110.31 32.4049 109.386 31.4816 108.757 30.2645C108.085 29.0474 107.792 27.7043 107.792 26.2774C107.792 24.8084 108.127 23.4654 108.757 22.2483C109.428 21.0311 110.31 20.0659 111.485 19.3943C112.66 18.6809 113.961 18.3451 115.43 18.3451C116.899 18.3451 118.2 18.6809 119.375 19.3943C120.55 20.1078 121.474 21.0311 122.103 22.2483C122.775 23.4654 123.068 24.8084 123.068 26.2774C123.068 27.7463 122.733 29.0893 122.103 30.2645C121.432 31.4816 120.55 32.4469 119.375 33.1184C118.2 33.8319 116.899 34.1677 115.43 34.1677C113.961 34.1677 112.66 33.8319 111.485 33.1184ZM117.99 31.2298C118.788 30.7681 119.417 30.0966 119.879 29.2572C120.34 28.4178 120.592 27.4105 120.592 26.2354C120.592 25.1022 120.34 24.0949 119.879 23.2136C119.417 22.3742 118.788 21.7027 117.99 21.241C117.193 20.7793 116.353 20.5695 115.43 20.5695C114.507 20.5695 113.667 20.7793 112.87 21.241C112.072 21.7027 111.443 22.3742 110.939 23.2136C110.478 24.053 110.226 25.0602 110.226 26.2354C110.226 27.3686 110.478 28.3759 110.939 29.2572C111.401 30.0966 112.072 30.7681 112.87 31.2298C113.667 31.6914 114.549 31.9013 115.43 31.9013C116.311 31.9013 117.193 31.6914 117.99 31.2298Z" fill="#202124"/>
<path d="M125.713 18.8067H128.063V20.9892H128.189C128.609 20.2337 129.28 19.6042 130.12 19.1005C130.959 18.5969 131.882 18.3451 132.848 18.3451C133.939 18.3451 134.904 18.5969 135.702 19.1425C136.499 19.6881 137.087 20.3596 137.464 21.241C138.01 20.3596 138.682 19.6461 139.563 19.1425C140.444 18.5969 141.452 18.3451 142.585 18.3451C144.305 18.3451 145.606 18.8487 146.446 19.8979C147.327 20.9472 147.747 22.3742 147.747 24.1369V33.7059H145.271V24.5146C145.271 23.1296 144.977 22.1224 144.431 21.4928C143.886 20.8633 143.046 20.5695 141.913 20.5695C141.158 20.5695 140.486 20.7793 139.899 21.199C139.311 21.6187 138.807 22.2063 138.472 22.9198C138.136 23.6332 137.968 24.4307 137.968 25.2701V33.7059H135.492V24.5566C135.492 23.1716 135.198 22.1223 134.652 21.5348C134.107 20.9052 133.267 20.6114 132.176 20.6114C131.421 20.6114 130.749 20.8213 130.162 21.283C129.574 21.7027 129.07 22.2902 128.735 23.0457C128.399 23.7591 128.231 24.5566 128.231 25.396V33.7059H125.713V18.8067Z" fill="#202124"/>
<path d="M154.128 33.1594C152.995 32.4879 152.114 31.5226 151.484 30.3474C150.855 29.1303 150.519 27.7873 150.519 26.2764C150.519 24.8494 150.813 23.5064 151.4 22.2892C151.988 21.0721 152.827 20.1068 153.919 19.3934C155.01 18.6799 156.269 18.3021 157.738 18.3021C159.207 18.3021 160.466 18.6379 161.557 19.2674C162.648 19.9389 163.446 20.8203 164.033 21.9535C164.621 23.0867 164.915 24.4297 164.915 25.8987C164.915 26.1924 164.873 26.4443 164.831 26.6541H152.995C153.037 27.7873 153.331 28.7526 153.835 29.508C154.338 30.3055 154.926 30.8931 155.681 31.2708C156.437 31.6485 157.234 31.8583 158.032 31.8583C159.962 31.8583 161.431 30.977 162.438 29.1723L164.537 30.1796C163.907 31.3967 163.026 32.362 161.935 33.0335C160.844 33.747 159.501 34.0828 157.948 34.0828C156.521 34.1667 155.262 33.8309 154.128 33.1594ZM162.229 24.6815C162.187 24.052 162.019 23.4224 161.683 22.7929C161.389 22.1633 160.886 21.6597 160.214 21.198C159.543 20.7783 158.703 20.5685 157.696 20.5685C156.521 20.5685 155.555 20.9462 154.716 21.7017C153.919 22.4571 153.373 23.4224 153.121 24.6815H162.229Z" fill="#202124"/>
<path d="M167.768 18.8067H170.118V20.9892H170.244C170.663 20.2337 171.293 19.6042 172.216 19.1005C173.098 18.5969 174.063 18.3451 175.07 18.3451C176.875 18.3451 178.218 18.8487 179.183 19.8979C180.149 20.9472 180.61 22.3742 180.61 24.1369V33.7059H178.134V24.5146C178.134 23.1296 177.798 22.1224 177.127 21.4928C176.455 20.8633 175.574 20.5695 174.399 20.5695C173.601 20.5695 172.888 20.7793 172.258 21.241C171.629 21.7026 171.125 22.2902 170.789 23.0037C170.454 23.7172 170.244 24.5146 170.244 25.312V33.7059H167.768V18.8067Z" fill="#202124"/>
<path d="M194.587 15.1546H188.711V12.8043H202.939V15.1546H197.063V33.7052H194.587V15.1546Z" fill="#202124"/>
<path d="M206.043 33.1594C204.91 32.4879 204.029 31.5226 203.399 30.3474C202.77 29.1303 202.434 27.7873 202.434 26.2764C202.434 24.8494 202.728 23.5064 203.315 22.2892C203.903 21.0721 204.742 20.1068 205.834 19.3934C206.925 18.6799 208.184 18.3021 209.653 18.3021C211.122 18.3021 212.381 18.6379 213.472 19.2674C214.563 19.9389 215.361 20.8203 215.948 21.9535C216.536 23.0867 216.83 24.4297 216.83 25.8987C216.83 26.1924 216.788 26.4443 216.746 26.6541H204.952C204.994 27.7873 205.288 28.7526 205.792 29.508C206.295 30.3055 206.883 30.8931 207.638 31.2708C208.394 31.6485 209.191 31.8583 209.989 31.8583C211.919 31.8583 213.388 30.977 214.395 29.1723L216.494 30.1796C215.864 31.3967 214.983 32.362 213.892 33.0335C212.801 33.747 211.458 34.0828 209.905 34.0828C208.436 34.1667 207.177 33.8309 206.043 33.1594ZM214.144 24.6815C214.102 24.052 213.934 23.4224 213.598 22.7929C213.304 22.1633 212.801 21.6597 212.129 21.198C211.458 20.7783 210.618 20.5685 209.611 20.5685C208.436 20.5685 207.47 20.9462 206.631 21.7017C205.834 22.4571 205.288 23.4224 205.036 24.6815H214.144Z" fill="#202124"/>
<path d="M222.705 33.1604C221.572 32.4889 220.649 31.5236 220.019 30.3065C219.389 29.0893 219.054 27.7463 219.054 26.2774C219.054 24.7664 219.389 23.4234 220.019 22.2063C220.649 20.9892 221.572 20.0658 222.705 19.3524C223.838 18.6808 225.139 18.3451 226.608 18.3451C228.245 18.3451 229.588 18.7228 230.679 19.4783C231.771 20.2337 232.568 21.241 233.03 22.4581L230.763 23.3815C230.386 22.4581 229.84 21.7866 229.126 21.283C228.413 20.8213 227.532 20.5695 226.482 20.5695C225.601 20.5695 224.804 20.8213 224.006 21.283C223.251 21.7446 222.621 22.4162 222.159 23.2975C221.698 24.1369 221.488 25.1442 221.488 26.2354C221.488 27.3266 221.698 28.3339 222.159 29.1733C222.621 30.0127 223.209 30.6842 224.006 31.1878C224.762 31.6495 225.601 31.9013 226.482 31.9013C227.532 31.9013 228.455 31.6495 229.21 31.1878C229.966 30.6842 230.553 30.0127 230.889 29.1313L233.114 30.0546C232.61 31.2717 231.812 32.279 230.679 33.0345C229.546 33.7899 228.203 34.1677 226.608 34.1677C225.139 34.1677 223.838 33.8319 222.705 33.1604Z" fill="#202124"/>
<path d="M235.799 12.7627H238.275V18.9322L238.149 20.9888H238.275C238.695 20.2333 239.324 19.6038 240.206 19.1001C241.087 18.5965 242.052 18.3447 243.102 18.3447C244.906 18.3447 246.291 18.8903 247.257 19.9395C248.222 20.9888 248.684 22.4157 248.684 24.1784V33.7055H246.207V24.5142C246.207 23.1712 245.872 22.1639 245.2 21.5344C244.529 20.9048 243.647 20.5691 242.556 20.5691C241.759 20.5691 241.045 20.8209 240.415 21.2825C239.744 21.7442 239.24 22.3738 238.863 23.0872C238.485 23.8427 238.275 24.5981 238.275 25.3956V33.7055H235.799V12.7627Z" fill="#202124"/>
<path d="M252.294 18.8067H254.645V20.9892H254.771C255.19 20.2337 255.862 19.6042 256.701 19.1005C257.541 18.5969 258.464 18.3451 259.429 18.3451C260.52 18.3451 261.486 18.5969 262.283 19.1425C263.081 19.6881 263.668 20.3596 264.046 21.241C264.592 20.3596 265.263 19.6461 266.144 19.1425C267.026 18.5969 268.033 18.3451 269.166 18.3451C270.887 18.3451 272.188 18.8487 273.027 19.8979C273.909 20.9472 274.329 22.3742 274.329 24.1369V33.7059H271.852V24.5146C271.852 23.1296 271.559 22.1224 271.013 21.4928C270.467 20.8633 269.628 20.5695 268.495 20.5695C267.739 20.5695 267.068 20.7793 266.48 21.199C265.893 21.6187 265.389 22.2063 265.053 22.9198C264.717 23.6332 264.55 24.4307 264.55 25.2701V33.7059H262.073V24.5566C262.073 23.1716 261.78 22.1223 261.234 21.5348C260.688 20.9052 259.849 20.6114 258.758 20.6114C258.002 20.6114 257.331 20.8213 256.743 21.283C256.156 21.7027 255.652 22.2902 255.316 23.0457C254.98 23.7591 254.813 24.5566 254.813 25.396V33.7059H252.336V18.8067H252.294Z" fill="#202124"/>
<path d="M279.616 33.5381C278.777 33.1184 278.105 32.5309 277.644 31.7754C277.182 31.0199 276.93 30.1805 276.93 29.2152C276.93 27.6204 277.518 26.4033 278.693 25.5219C279.868 24.6405 281.379 24.1789 283.184 24.1789C284.065 24.1789 284.904 24.2628 285.702 24.4727C286.457 24.6825 287.045 24.8923 287.465 25.1442V24.2209C287.465 23.1296 287.087 22.2063 286.289 21.5348C285.492 20.8633 284.527 20.5275 283.352 20.5275C282.512 20.5275 281.757 20.6954 281.043 21.0731C280.33 21.4509 279.784 21.9545 279.364 22.584L277.476 21.199C278.063 20.3177 278.861 19.6042 279.868 19.1005C280.875 18.5969 282.05 18.3451 283.268 18.3451C285.282 18.3451 286.877 18.8907 288.052 19.9399C289.227 20.9892 289.773 22.4581 289.773 24.3048V33.706H287.423V31.5656H287.297C286.877 32.279 286.205 32.9086 285.366 33.4122C284.527 33.9158 283.561 34.1677 282.47 34.1677C281.421 34.1677 280.456 33.9578 279.616 33.5381ZM285.114 31.3557C285.828 30.936 286.415 30.3484 286.835 29.6349C287.255 28.9214 287.465 28.124 287.465 27.2846C287.003 26.9908 286.415 26.739 285.744 26.5292C285.072 26.3193 284.359 26.2354 283.561 26.2354C282.218 26.2354 281.169 26.5292 280.456 27.0748C279.742 27.6204 279.406 28.3759 279.406 29.2572C279.406 30.0966 279.7 30.7261 280.33 31.2298C280.959 31.7334 281.757 31.9852 282.68 31.9852C283.603 31.9852 284.359 31.7754 285.114 31.3557Z" fill="#202124"/>
<path d="M293.298 12.7627H295.774V25.9412L302.783 18.8063H305.931V18.9322L300.097 24.85L306.099 33.6216V33.7475H303.161L298.376 26.5707L295.816 29.1309V33.7056H293.34V12.7627H293.298Z" fill="#202124"/>
<path d="M310.423 33.1594C309.29 32.4879 308.409 31.5226 307.779 30.3474C307.15 29.1303 306.814 27.7873 306.814 26.2764C306.814 24.8494 307.108 23.5064 307.695 22.2892C308.283 21.0721 309.122 20.1068 310.213 19.3934C311.305 18.6799 312.564 18.3021 314.033 18.3021C315.502 18.3021 316.761 18.6379 317.852 19.2674C318.943 19.9389 319.741 20.8203 320.328 21.9535C320.916 23.0867 321.21 24.4297 321.21 25.8987C321.21 26.1924 321.168 26.4443 321.126 26.6541H309.332C309.374 27.7873 309.668 28.7526 310.172 29.508C310.675 30.3055 311.263 30.8931 312.018 31.2708C312.774 31.6485 313.571 31.8583 314.369 31.8583C316.299 31.8583 317.768 30.977 318.775 29.1723L320.874 30.1796C320.244 31.3967 319.363 32.362 318.272 33.0335C317.18 33.705 315.837 34.0828 314.285 34.0828C312.816 34.1667 311.557 33.8309 310.423 33.1594ZM318.565 24.6815C318.523 24.052 318.356 23.4224 318.02 22.7929C317.726 22.1633 317.222 21.6597 316.551 21.198C315.879 20.7783 315.04 20.5685 314.033 20.5685C312.858 20.5685 311.892 20.9462 311.053 21.7017C310.255 22.4571 309.71 23.4224 309.458 24.6815H318.565Z" fill="#202124"/>
<path d="M324.105 18.8058H326.456V21.198H326.582C326.875 20.3586 327.421 19.6871 328.26 19.1415C329.1 18.5959 329.981 18.3021 330.905 18.3021C331.576 18.3021 332.164 18.428 332.667 18.6379V21.282C332.038 20.9882 331.324 20.8203 330.569 20.8203C329.855 20.8203 329.184 21.0302 328.596 21.4499C328.009 21.8695 327.505 22.4152 327.169 23.0867C326.792 23.8002 326.624 24.5136 326.624 25.3111V33.705H324.147V18.8058H324.105Z" fill="#202124"/>
<path d="M335.687 33.0764C334.596 32.321 333.841 31.3556 333.421 30.1805L335.645 29.1732C336.023 30.0546 336.569 30.7681 337.282 31.2717C337.996 31.7754 338.835 31.9852 339.674 31.9852C340.598 31.9852 341.395 31.7754 342.067 31.3976C342.738 31.0199 343.074 30.4743 343.074 29.7608C343.074 29.1312 342.822 28.6276 342.276 28.2499C341.731 27.8722 340.933 27.5364 339.8 27.2846L337.996 26.8229C336.82 26.5291 335.813 26.0255 335.058 25.312C334.302 24.5985 333.925 23.7172 333.925 22.584C333.925 21.7446 334.176 20.9891 334.68 20.3176C335.184 19.6461 335.897 19.1425 336.736 18.8067C337.576 18.471 338.499 18.2611 339.507 18.2611C340.808 18.2611 341.983 18.5549 342.99 19.1005C343.997 19.6461 344.753 20.4435 345.172 21.4508L342.99 22.4581C342.318 21.115 341.143 20.4855 339.465 20.4855C338.625 20.4855 337.912 20.6954 337.324 21.0731C336.695 21.4508 336.401 21.9544 336.401 22.5C336.401 23.0456 336.611 23.5073 337.03 23.8431C337.45 24.1788 338.121 24.4726 338.961 24.6825L341.143 25.2281C342.612 25.6058 343.703 26.1514 344.459 26.8649C345.214 27.5784 345.55 28.5017 345.55 29.5509C345.55 30.4743 345.298 31.2717 344.753 31.9432C344.207 32.6567 343.494 33.1603 342.612 33.5381C341.731 33.9158 340.724 34.0837 339.632 34.0837C338.08 34.1676 336.736 33.7899 335.687 33.0764Z" fill="#202124"/>
</g>
<defs>
<clipPath id="clip0_169_355">
<rect width="913" height="279" fill="white"/>
</clipPath>
</defs>
</svg>
