<svg width="479" height="291" viewBox="0 0 479 291" fill="none" xmlns="http://www.w3.org/2000/svg">
<g clip-path="url(#clip0_75_94)">
<path d="M42.7306 101.476L42.748 101.485L42.7306 101.476Z" fill="#54A7ED"/>
<path d="M26.7514 95.6575L26.7601 95.6662H26.7689L26.7514 95.6575Z" fill="#54A7ED"/>
<path d="M89.2441 196.496C88.816 196.671 88.449 196.312 88.152 194.364C87.3657 189.14 86.7279 183.959 85.5048 178.822L85.4349 178.524C85.0855 176.838 84.5875 175.187 84.1244 173.527C83.6352 171.876 83.0935 170.251 82.6567 168.6C80.988 162.79 78.7515 157.19 76.5673 151.52C74.1473 145.212 70.9497 139.087 67.6647 133.129C63.6284 126.035 59.2864 118.958 53.6862 113.279C51.3011 110.885 48.6802 108.806 45.7884 107.146C42.8966 105.469 39.7689 104.141 36.5625 102.926C32.0982 101.266 27.4678 99.6327 22.8898 97.9902C21.2124 97.4223 19.5262 96.8544 17.8401 96.2865C15.8132 95.5788 13.8999 95.0197 11.9079 93.9451C11.078 93.4995 9.96843 93.0976 8.78026 92.7132C8.15996 92.521 7.79302 92.4511 7.32998 92.2764C7.0242 92.1716 6.65727 92.0143 6.36023 91.9182L6.78832 92.7482C6.94558 93.0365 7.11157 93.351 7.29504 93.6568L7.61829 94.1985L8.27353 95.2556C10.0907 98.1299 11.7594 101.162 13.8824 103.765V103.739C14.957 105.381 16.0229 107.076 17.211 108.605C19.8932 112.065 22.3045 115.629 25.0478 118.941C32.7185 128.271 42.0054 136.37 52.7339 141.909C56.8314 144.024 61.156 145.649 65.5592 146.863H65.5418C67.2629 147.308 68.5646 147.868 69.6916 148.392C70.8099 148.951 71.7447 149.501 72.6883 150.008C74.7588 151.135 73.7454 151.546 70.443 151.074C67.3328 150.55 64.2575 149.798 61.2346 148.829C58.2118 147.859 55.285 146.618 52.4369 145.194C49.8509 143.901 47.3959 142.381 44.9759 140.817C42.5908 139.201 40.2581 137.523 37.9866 135.75C35.6714 133.915 33.4349 131.976 31.3119 129.914H31.3293C31.3031 129.792 31.2158 129.73 31.0935 129.704C28.289 126.725 25.3623 123.842 22.7063 120.714C21.2823 119.037 19.9805 117.289 18.7312 115.481C17.9012 114.24 16.4597 112.694 15.3851 111.2C12.0477 106.596 8.93751 101.843 5.99329 96.9942L4.89248 95.1595L3.23253 92.3288H3.24127C2.68213 91.2105 2.0531 90.1184 1.34543 88.9565L0.262098 87.1829L-0.00873566 86.7374C0.0961032 86.7461 0.279571 86.8247 0.419356 86.8597L1.34543 87.1655C2.88307 87.6984 4.42071 88.2313 5.95834 88.7643C6.90189 89.0875 7.86291 89.4108 8.80646 89.734C9.19961 89.8651 9.58402 89.9874 9.96843 90.1184C10.2567 90.2058 10.5363 90.2844 10.8246 90.3718C13.3058 91.0533 15.6647 91.9357 18.0061 92.8967C18.2507 93.0015 18.5827 93.0365 18.871 93.1064H18.8535L20.3649 93.5432C20.4086 93.5519 20.4436 93.5519 20.4785 93.5607L20.5047 93.6393C22.5578 94.4518 24.6633 95.0197 26.7426 95.6662L27.5988 96.0768H27.625L27.5901 96.0681H27.6338C27.6338 96.0681 27.6687 96.0768 27.6862 96.0856C27.6949 96.0856 27.7211 96.103 27.7386 96.1205C30.5081 97.0466 33.3388 97.7805 36.082 98.9512H36.0908C37.7333 99.5715 39.3757 100.227 41.0007 100.943V100.926C41.2366 101.109 41.4725 101.293 41.7958 101.275H41.7783L42.4947 101.52L42.7306 101.494C43.8314 102 44.9584 102.533 45.8408 103.241H45.8146C46.0767 103.311 46.3562 103.372 46.5397 103.625H46.5048L46.5659 103.634C47.8153 104.307 49.0384 105.041 50.2265 105.844H50.2353C51.0565 106.325 51.738 106.77 52.2534 107.548C52.6378 108.133 53.6775 108.361 54.2279 109.182C54.2891 109.252 54.3502 109.304 54.4201 109.365H54.4026C57.3469 112.082 59.8892 115.158 62.2044 118.347L62.2219 118.364C63.4712 120.513 64.8166 122.601 66.1271 124.724L68.1365 127.878C68.783 128.944 69.4208 130.019 70.0586 131.085C72.7669 135.794 75.318 140.607 77.6332 145.526C78.5418 147.492 79.4679 149.449 80.3066 151.45C80.4813 151.686 80.6123 151.939 80.6298 152.245L80.6036 152.21L80.6211 152.236C81.3025 153.861 81.9752 155.792 82.5868 157.085C83.1197 158.221 83.5391 159.383 83.9672 160.527C84.3953 161.68 84.8146 162.825 85.1903 163.987C86.9114 168.871 88.2743 173.894 89.5324 178.926C89.9343 180.516 90.3886 182.098 90.8079 183.644C91.1923 185.007 91.0788 185.488 90.7904 185.767C90.2313 186.309 89.9779 187.156 90.5808 189.873C90.939 191.35 91.3059 194.084 90.1964 193.298C89.9168 193.106 90.0653 193.849 90.1177 194.303C90.4585 197.081 89.6547 196.304 89.2091 196.496H89.2441ZM20.9241 93.9364L20.5309 93.6568C20.5834 93.7267 20.627 93.7966 20.6969 93.8665C20.7057 93.8839 20.8455 93.9101 20.9328 93.9364H20.9241ZM35.9073 98.9687L36.0733 98.9425L35.8025 98.89L35.9073 98.9687ZM43.0713 101.791L42.582 101.555L43.0276 101.834L43.08 101.791H43.0713ZM50.8643 106.421L50.2964 105.906L50.7245 106.386L50.8731 106.412L50.8643 106.421ZM80.3415 151.572L80.324 151.476C80.324 151.476 80.324 151.485 80.324 151.493C80.324 151.511 80.3328 151.546 80.3415 151.572Z" fill="#54A7ED"/>
<path d="M118.861 29.2765L118.879 29.2328L118.861 29.2765Z" fill="#54A7ED"/>
<path d="M107.888 47.8332L107.897 47.8157V47.8069L107.888 47.8332Z" fill="#54A7ED"/>
<path d="M95.4034 136.755C95.1238 136.396 95.4034 135.916 97.3778 135.025C102.629 132.614 107.39 129.232 111.356 124.89H111.348L111.583 124.637C114.178 121.815 116.284 118.565 118.171 115.254C119.848 112.327 121.307 109.26 122.443 106.063C123.072 104.49 123.526 102.848 124.051 101.231C124.304 100.419 124.496 99.589 124.723 98.7678C124.942 97.9465 125.186 97.1253 125.361 96.2865C126.296 92.6084 126.698 88.773 126.934 84.9114C127.17 81.0499 127.082 77.162 126.899 73.2917C126.444 63.9872 124.688 54.77 122.513 45.649C122.041 43.7182 121.578 41.7874 121.071 39.8566L120.32 36.9648L119.979 35.6805L119.892 35.4271L119.743 34.9815C119.743 34.9815 119.726 34.9029 119.709 34.9029L119.647 35.0252L119.525 35.2524L119.307 35.6543L117.804 38.1442C114.947 42.8882 112.012 47.5885 109.303 52.4024C108.307 54.1497 107.416 55.967 106.473 57.7318C105.922 58.8151 105.407 59.8635 104.856 60.9119C104.315 61.9603 103.738 63.0174 103.022 64.0746C102.428 64.9657 101.877 66.1801 101.309 67.4731C100.759 68.7749 100.243 70.1727 99.7105 71.4221C98.2864 74.9255 96.9061 78.4638 95.8664 82.0808C94.853 85.7938 93.6997 89.5506 93.3415 93.3598V93.3336C92.9222 95.5352 92.4941 97.7718 92.2669 99.9647C91.7777 104.936 91.0788 109.811 90.6943 114.73C89.7071 128.595 89.4013 142.538 89.5499 156.465C89.611 161.803 89.8644 167.114 90.1177 172.435V172.409C90.275 176.559 89.5673 178.97 88.9558 181.32C88.2918 183.88 87.689 182.805 87.4269 179.101C86.9464 172.068 86.5532 165.018 86.5183 157.906C86.4833 151.45 86.693 145.011 86.7804 138.546C86.8328 135.226 86.9638 131.906 87.0861 128.586V128.603C87.1735 128.481 87.1648 128.367 87.1036 128.245C87.4968 123.658 87.5142 119.011 87.8113 114.371C87.9773 111.881 88.2394 109.418 88.6063 106.937C88.8684 105.25 88.8946 102.848 89.1654 100.76C89.9779 94.3121 91.2011 87.8819 93.0532 81.609C93.4901 80.1587 93.9618 78.7084 94.4423 77.2669C95.2374 75.572 95.6655 73.746 96.3556 72.0162C96.7488 70.959 97.2031 69.9281 97.6399 68.8972C98.1729 67.6129 98.7407 66.3024 99.2474 65.0531C99.7716 63.6639 100.383 62.3272 101.03 61.0255C101.667 59.715 102.375 58.4482 103.1 57.1813C103.249 56.9192 103.354 56.5523 103.485 56.2378V56.264L104.254 54.6215C104.271 54.5778 104.28 54.5341 104.297 54.4905C104.323 54.4905 104.35 54.4817 104.385 54.473C105.651 52.2714 106.735 50.0173 107.923 47.8069L108.561 46.9245V46.8983L108.543 46.942L108.569 46.8983C108.569 46.8983 108.569 46.8634 108.587 46.8459C108.587 46.8372 108.613 46.811 108.631 46.7935C110.273 43.8667 111.811 40.8875 113.68 38.083L117.175 32.4479L117.157 32.4654C117.498 32.046 117.804 31.6878 118.014 31.0501V31.085C118.241 30.6482 118.485 30.2026 118.73 29.757L118.913 29.2154C119.534 28.2106 120.163 27.1972 120.774 26.21L121.002 25.8605L121.115 25.6858C121.141 25.6333 121.141 25.6858 121.15 25.7294L121.176 25.843C121.246 26.1488 121.307 26.4458 121.368 26.7429C121.491 27.3457 121.613 27.9485 121.709 28.5426L121.692 28.5164C121.849 28.8834 122.032 29.2678 122.076 30.0017C122.076 29.9842 122.059 29.9667 122.05 29.9492L122.085 30.0453C122.661 32.212 123.247 34.3875 123.823 36.5541V36.5716C124.164 37.5501 124.435 38.3888 124.4 39.411C124.374 40.1798 125.099 41.0622 125.125 42.1456C125.143 42.2504 125.16 42.3378 125.195 42.4339V42.4164C126.217 46.7323 127.187 51.0657 128 55.4515V55.4777C128.576 61.0604 129.59 66.7218 129.983 72.418C130.393 78.6298 130.446 84.9114 129.686 91.1494C129.397 93.6393 128.987 96.1118 128.463 98.5668C128.445 98.8988 128.393 99.2308 128.218 99.5278V99.4842V99.5191C127.755 101.511 127.004 103.756 126.593 105.355C126.182 106.744 125.702 108.098 125.221 109.435C124.653 110.746 124.12 112.056 123.526 113.349C120.975 118.801 117.586 123.921 113.471 128.411C112.85 129.154 112.151 129.818 111.487 130.508C110.806 131.189 110.186 131.923 109.469 132.544C108.237 133.671 107.687 133.854 107.285 133.741C106.499 133.548 105.52 133.732 102.908 135.619C102.157 136.082 101.082 136.702 100.261 137.025C99.4484 137.375 98.8368 137.296 99.1164 136.65C99.2474 136.327 98.4786 136.711 97.9981 136.912C95.0626 138.144 95.7266 137.113 95.4208 136.737L95.4034 136.755ZM104.751 54.0624L104.385 54.473C104.463 54.4206 104.542 54.3856 104.629 54.3157C104.647 54.307 104.708 54.1497 104.751 54.0624ZM113.637 38.3015L113.654 38.118L113.532 38.4063L113.645 38.3102L113.637 38.3015ZM119.333 28.7873L118.791 29.6522L119.315 28.9358L119.342 28.7873H119.333ZM123.937 37.4977L123.806 36.6677L123.841 37.3666L123.937 37.4977ZM128.366 98.7153L128.419 98.6105C128.419 98.6105 128.41 98.6192 128.401 98.628C128.393 98.6454 128.375 98.6804 128.366 98.7153Z" fill="#54A7ED"/>
<path d="M52.1398 6.66606L52.1311 6.63111V6.62238L52.1398 6.66606Z" fill="#54A7ED"/>
<path d="M79.8523 88.2838C79.398 88.3711 79.1009 87.9692 79.197 86.0909C79.4504 81.0586 79.9571 76.1224 80.0969 71.0988V70.8105C80.2629 67.5342 80.0794 64.258 80.1406 60.9992C80.2541 55.2505 79.9658 49.5193 79.9833 43.7356C79.9746 40.538 79.8872 37.253 79.6513 34.0816C79.398 30.919 78.8912 27.8437 77.7729 25.0829C76.445 21.7542 74.025 18.8712 71.238 16.3725C68.4336 13.8738 65.2622 11.646 62.0471 9.57537C60.6755 8.7017 59.2864 7.87172 57.871 7.07669L56.8052 6.49133L56.4295 6.29039L56.2723 6.21176C56.0888 6.12439 55.9839 6.08945 55.8529 6.02829L55.7655 5.99334C55.7655 5.99334 55.6869 5.94092 55.7131 6.00208L55.7568 6.23797L55.8267 6.64859L56.3421 11.2877C56.8314 15.857 57.1546 20.4525 57.574 25.0305C57.7487 26.6992 57.9235 28.3679 58.0982 30.0278C58.2904 32.0373 58.5874 33.8807 58.4826 36.0037C58.3952 37.7772 59.0155 40.3808 59.4174 42.5911C59.9591 45.6577 60.5881 48.7155 61.619 51.6161C62.6674 54.5953 63.7245 57.6706 65.3233 60.3964V60.3702C66.0922 62.0564 66.8435 63.7862 67.7346 65.3938C69.7615 69.0107 71.4564 72.7588 73.2299 76.4806C78.236 86.9645 82.4295 97.798 85.7058 108.937C86.9551 113.201 88.1869 117.464 89.2091 121.798V121.771C89.9692 125.161 89.5149 127.275 89.148 129.285C88.7548 131.469 88.0384 130.656 87.4094 127.686C86.1688 122.042 84.6312 116.486 83.1023 110.885C81.6957 105.809 80.2192 100.751 78.3408 95.8147C77.3885 93.2811 76.41 90.7475 75.3704 88.2313H75.3791C75.4141 88.1178 75.3617 88.0391 75.2656 87.9692C73.9988 84.4134 72.234 81.0411 70.5653 77.6513C69.6567 75.834 68.8005 73.9994 67.9705 72.1035C67.4114 70.8192 66.3193 69.168 65.5243 67.6216C63.0868 62.8601 60.7541 57.9676 59.0068 52.7955C58.6137 51.5899 58.238 50.3755 57.9147 49.1436C57.6788 47.5885 57.1634 46.1207 56.8314 44.6006C56.6305 43.6832 56.4994 42.7571 56.3334 41.8398C56.1325 40.704 55.9665 39.5333 55.7393 38.4325C55.2326 36.0212 55.0317 33.6273 54.9268 31.2335C54.9181 30.9801 54.8132 30.6831 54.7521 30.4123V30.4297L54.5337 28.9532C54.5337 28.9183 54.5162 28.8833 54.4987 28.8484L54.5599 28.796C54.455 26.7079 54.0968 24.681 53.8347 22.6366L53.861 21.7368V21.7193V21.7542V21.7106C53.861 21.7106 53.8435 21.6843 53.8347 21.6669C53.8347 21.6581 53.8347 21.6319 53.8347 21.6057C53.529 18.8537 53.0572 16.1366 52.9349 13.3583L52.4981 8.44834V8.46581C52.533 8.18624 52.5854 7.90667 52.4019 7.66204V7.67952L52.2622 6.94564L52.1049 6.62238C51.904 4.67411 51.6681 2.57732 51.7554 1.17946V1.22314C51.6681 0.742623 51.5196 0.166005 51.6593 -0.00872803C51.6419 -0.00872803 51.6593 0.0349552 51.6593 0.0524285V8.61268e-06L51.6855 0.00874525L54.5511 1.41534C55.5034 1.88712 56.5169 2.38511 57.4342 2.8831H57.4517C57.7487 3.03162 58.0283 3.16267 58.3079 3.29372C58.4913 3.38109 58.6661 3.46846 58.8408 3.57329C59.1815 3.77424 59.496 4.01886 59.7844 4.34212C60.2124 4.83137 61.2084 4.85758 61.8462 5.50409C61.9161 5.55651 61.9772 5.59146 62.0559 5.63514H62.0384C65.201 7.59215 68.2414 9.70642 71.1768 12.0391H71.1943C72.8805 13.7165 74.6278 15.359 76.244 17.1937C77.8516 19.0197 79.3455 21.0378 80.3852 23.3268C81.5384 25.8168 82.15 28.4727 82.5256 31.0762C82.9013 33.6885 83.0411 36.2833 83.1722 38.8256L83.4954 44.9238C83.574 45.1859 83.609 45.4567 83.5216 45.7276L83.5041 45.6926V45.7188C83.5478 47.3788 83.574 49.2921 83.6963 50.6288C83.8973 52.9703 83.906 55.268 83.9584 57.557C84.072 62.4146 84.0196 67.2983 83.9672 72.1647C83.9497 73.7023 84.0021 75.2487 84.072 76.7514C84.1332 78.0794 83.906 78.49 83.5566 78.6909C82.8751 79.0666 82.4558 79.7917 82.4645 82.4127C82.4645 83.8455 82.3422 86.4316 81.3899 85.4968C81.154 85.2696 81.154 85.986 81.1191 86.4141C80.9006 89.0526 80.2716 88.1877 79.7998 88.2838H79.8523ZM54.6909 28.3417L54.5948 28.796C54.6385 28.7261 54.6822 28.6562 54.7171 28.5688C54.7171 28.5513 54.6997 28.4203 54.6822 28.3417H54.6909ZM53.0747 13.5156L52.9786 13.3845L53.0485 13.6379L53.0747 13.5156ZM52.2097 5.96713L52.2884 6.82332V6.01955L52.2097 5.96713ZM58.3952 3.5034C58.2554 3.38983 57.8973 3.17141 57.5827 2.97047L57.9584 3.25878L58.1419 3.39856L58.2555 3.5034H58.3952ZM83.5041 45.0461L83.5216 44.95C83.5216 44.95 83.5216 44.9588 83.5129 44.9675C83.5129 44.985 83.5129 45.0199 83.5041 45.0461Z" fill="#54A7ED"/>
<path d="M138.545 131.347H138.553L138.562 131.338L138.545 131.347Z" fill="#54A7ED"/>
<path d="M102.27 168.573C102.375 168.137 102.733 167.927 103.843 168.338C106.84 169.403 109.941 170.303 113.2 170.399L113.392 170.391C115.524 170.522 117.62 170.085 119.7 169.797C123.378 169.176 126.829 167.717 130.131 165.979C131.957 164.991 133.661 163.733 135.19 162.301C136.675 160.824 138.073 159.243 139.261 157.504C142.161 153.363 143.918 148.401 144.363 143.368C144.503 142.302 144.477 141.228 144.512 140.162C144.459 139.096 144.45 138.03 144.284 136.973C144.197 135.907 143.961 134.876 143.769 133.828C143.717 133.566 143.638 133.312 143.577 133.059L143.472 132.675L143.455 132.622C143.428 132.552 143.402 132.482 143.376 132.413L143.323 132.264C143.323 132.264 143.297 132.238 143.28 132.264L143.219 132.308C143.14 132.36 143.044 132.421 142.948 132.474L142.03 133.155C141.707 133.391 141.393 133.636 141.061 133.872L139.104 135.261C138.143 135.916 137.234 136.65 136.264 137.279C135.102 138.065 134.063 138.851 132.647 139.341C131.459 139.734 130.035 140.939 128.707 141.752C126.864 142.888 124.959 143.936 123.186 145.133C121.368 146.365 119.368 147.396 117.76 148.864H117.778C116.712 149.554 115.611 150.227 114.641 151.004C112.448 152.778 110.107 154.245 107.984 155.993C105.005 158.456 102.262 161.226 99.8765 164.275C97.4914 167.315 95.4733 170.653 94.0754 174.217C92.9746 176.943 92.363 179.818 92.1621 182.692H92.1708C92.0835 183.234 92.0398 183.732 91.935 184.186C91.8301 184.64 91.6903 185.042 91.5331 185.426C91.2273 186.187 90.9215 186.851 90.5895 187.532C89.8906 189.026 89.3052 188.484 89.0956 186.265C88.7636 182.08 89.4276 177.791 90.9652 173.859C92.363 170.277 94.3987 167.045 96.5653 163.961C97.6749 162.37 98.9417 160.894 100.235 159.47C100.34 159.47 100.374 159.417 100.374 159.321C102.349 157.513 104.114 155.477 106.167 153.747C106.7 153.267 107.276 152.839 107.853 152.411C108.43 151.991 109.015 151.572 109.627 151.205C110.448 150.681 111.409 149.694 112.379 149.003C115.358 146.837 118.433 144.819 121.517 142.862L123.675 141.516C124.653 141.123 125.44 140.415 126.313 139.856L127.921 138.878C128.576 138.458 129.249 138.048 129.843 137.585C131.153 136.562 132.534 135.741 133.949 134.955C134.098 134.876 134.229 134.702 134.368 134.57L135.155 133.95C135.172 133.933 135.19 133.906 135.207 133.889L135.268 133.924C136.483 133.199 137.522 132.281 138.597 131.39L139.147 131.12V131.102L139.139 131.12L139.156 131.102C139.156 131.102 139.156 131.085 139.174 131.076C139.174 131.076 139.2 131.076 139.209 131.067C139.575 130.779 139.925 130.473 140.274 130.176L141.777 128.892C142.389 128.376 143.018 127.852 143.638 127.354L144.564 126.62C144.852 126.454 145.254 125.869 145.289 126.559L146.154 129.285L146.565 130.622C146.696 131.05 146.801 131.583 146.888 131.958C146.871 132.15 146.836 132.36 147.028 132.509H147.019L147.211 132.972L147.36 133.077C147.491 133.872 147.657 134.675 147.578 135.418V135.4C147.648 135.566 147.744 135.732 147.631 135.942V135.916V135.96C147.735 136.877 147.901 137.803 147.919 138.729C148.024 139.341 148.102 139.874 147.832 140.45C147.604 140.878 148.067 141.507 147.814 142.119C147.805 142.18 147.805 142.233 147.805 142.294C147.622 144.888 147.176 147.483 146.451 149.999V150.017C145.08 153.022 143.9 156.159 142.074 158.963C140.082 162.004 137.61 164.773 134.718 167.01L133.862 167.682L132.962 168.303C132.359 168.713 131.765 169.141 131.127 169.482C130.996 169.631 130.839 169.753 130.62 169.753L130.638 169.727L130.62 169.744C129.59 170.338 128.314 170.836 127.484 171.326C126.733 171.701 125.964 172.016 125.195 172.33C124.409 172.584 123.622 172.828 122.836 173.073C119.473 174.034 115.943 174.41 112.44 174.331C111.889 174.313 111.33 174.305 110.771 174.313C110.212 174.313 109.661 174.279 109.111 174.27C108.141 174.252 107.87 173.999 107.783 173.623C107.617 172.889 107.18 172.461 105.381 172.129C104.891 172.024 104.201 171.85 103.756 171.596C103.31 171.326 103.126 170.985 103.572 170.618C103.79 170.434 103.319 170.303 103.057 170.19C101.397 169.5 102.192 169.071 102.297 168.608L102.27 168.573ZM135.565 133.819L135.242 133.88C135.303 133.898 135.373 133.915 135.443 133.915C135.461 133.915 135.522 133.854 135.565 133.819ZM145.149 126.498L145.246 126.515L145.132 126.306L145.149 126.498ZM147.255 133.339L147.202 132.98V133.33H147.255V133.339ZM147.832 139.236L147.893 138.738L147.762 139.148L147.823 139.236H147.832ZM131.014 169.447H131.084L131.066 169.43C131.049 169.43 131.031 169.438 131.014 169.447Z" fill="#54A7ED"/>
<path d="M113.436 288.868H67.2192C53.0747 288.868 41.5948 277.388 41.5948 263.244L41.5948 202.026C41.5948 198.89 44.1459 196.339 47.2823 196.339H133.372C136.509 196.339 139.06 198.89 139.06 202.026V263.244C139.06 277.388 127.58 288.868 113.436 288.868Z" stroke="#54A7ED" stroke-width="0.8" stroke-miterlimit="10"/>
<path d="M67.1755 290.371C67.2629 290.598 67.158 290.782 66.6338 290.895C66.3717 290.948 66.0048 290.983 65.5068 291C65.0088 291 64.3798 291.026 63.611 290.886C59.4611 290.354 55.4947 288.79 52.0874 286.483C48.654 284.194 45.8495 281.075 43.7178 277.572V277.589L43.4644 277.17H43.4732C42.1714 274.829 41.0619 272.356 40.4416 269.735L40.1882 268.757L40.0222 267.761C39.9261 267.097 39.7776 266.441 39.7252 265.769C39.6466 264.432 39.5592 263.069 39.6029 261.863C39.7077 253.1 39.5242 244.355 39.7339 235.54C39.9611 225.755 39.7951 215.769 39.8999 205.896L39.9174 203.669V202.559L39.9349 202L39.9785 201.283C40.1707 199.379 41.1492 197.57 42.6257 196.365C43.3596 195.762 44.2158 195.299 45.1331 195.019C45.5874 194.888 46.0592 194.792 46.531 194.74L47.2386 194.705H47.8065H52.2534L70.0236 194.609C80.0619 194.539 90.0915 194.382 100.139 194.355C107.119 194.338 114.108 194.478 121.098 194.53C123.64 194.53 126.2 194.53 128.742 194.521C130.28 194.521 131.765 194.53 133.268 194.539C135.155 194.521 137.234 195.378 138.501 196.959C139.043 197.614 139.558 198.418 139.916 199.361C140.091 199.833 140.239 200.34 140.318 200.864C140.414 201.362 140.423 202 140.423 202.393C140.44 204.184 140.493 206.071 140.484 207.801C140.449 212.606 140.327 217.42 140.379 222.199C140.432 227.1 140.222 232.08 140.536 236.912V236.877C140.528 239.725 140.44 242.617 140.51 245.412C140.598 248.575 140.563 251.72 140.51 254.848C140.475 256.412 140.44 257.967 140.405 259.531L140.353 261.863C140.344 262.641 140.327 263.418 140.266 264.24C139.934 273.466 134.403 282.132 126.409 286.518C122.426 288.72 117.865 289.856 113.331 289.882L100.191 289.934C93.4813 289.969 86.7891 290.144 80.0881 290.257H80.1231C74.8899 290.31 71.8845 289.515 68.9665 288.816C65.7864 288.056 67.1668 287.497 71.8233 287.366C80.656 287.121 89.5062 286.876 98.4087 286.885L110.535 286.972L113.558 286.99C114.493 286.92 115.436 286.964 116.362 286.815C117.288 286.667 118.232 286.588 119.132 286.308L120.495 285.959L121.814 285.47C122.74 285.173 123.579 284.701 124.461 284.299C124.907 284.116 125.3 283.819 125.719 283.583C126.13 283.321 126.567 283.111 126.951 282.823C127.711 282.228 128.541 281.722 129.24 281.04L130.323 280.07L131.302 278.996V279.013C131.442 278.961 131.529 278.847 131.573 278.708H131.564C135.233 274.759 137.278 269.324 137.365 263.908C137.426 263.209 137.409 262.396 137.426 261.627L137.47 259.303C137.514 257.748 137.566 256.202 137.636 254.638C137.732 252.515 137.531 249.536 137.522 246.906V222.645L137.549 217.001C137.741 214.685 137.557 212.37 137.549 210.064L137.584 205.87C137.584 205.005 137.584 204.132 137.584 203.258C137.584 202.83 137.575 202.402 137.566 201.974C137.549 201.659 137.505 201.345 137.418 201.056C137.042 199.763 136.072 198.715 134.866 198.226C134.569 198.103 134.255 198.016 133.932 197.964C133.774 197.92 133.608 197.937 133.442 197.911L132.787 197.885L130.07 197.789C129.686 197.771 129.231 197.841 128.803 197.867H128.829L126.567 197.937C126.506 197.937 126.453 197.955 126.401 197.955C126.374 197.937 126.357 197.911 126.331 197.885C123.159 197.78 120.049 197.92 116.913 197.972L115.559 197.859H115.524C115.524 197.859 115.48 197.867 115.454 197.876C115.436 197.876 115.401 197.876 115.366 197.859C111.164 197.876 106.979 198.068 102.768 197.911H102.751L95.2723 197.85H95.2985C94.8792 197.789 94.4685 197.71 94.0667 197.859H94.0929C93.7434 197.876 93.3852 197.902 93.0357 197.929L92.7474 198.051C91.0525 198.051 89.3402 198.068 87.7938 197.876H87.8287C87.4531 197.929 87.0774 198.007 86.6843 197.876C86.7017 197.876 86.7192 197.876 86.7367 197.867H86.6493L80.7521 197.972H80.7347C79.4416 198.068 78.3408 198.13 77.109 197.85C76.1742 197.64 74.8899 198.138 73.5707 197.92H73.5619C73.4396 197.92 73.3173 197.92 73.195 197.92H73.2212L56.5693 197.955H56.5343C54.787 197.841 53.031 197.771 51.2662 197.728L48.619 197.684H47.2911C46.9503 197.684 46.6183 197.71 46.2951 197.798C44.9846 198.095 43.8576 199.091 43.3509 200.322C43.2373 200.637 43.1324 200.951 43.0888 201.283C43.0626 201.449 43.0363 201.615 43.0451 201.781C43.0363 201.93 43.0363 202.148 43.0451 202.376V205.031L43.1761 228.236L43.2635 237.479C43.3334 237.881 43.3596 238.292 43.2635 238.703V238.65V238.694C43.246 241.201 43.2286 244.11 43.3159 246.137C43.4732 249.684 43.447 253.153 43.4906 256.63L43.5431 262.152C43.5343 263.104 43.5955 263.934 43.6392 264.781C43.6392 265.638 43.8314 266.468 43.9537 267.315C44.5565 270.661 45.8495 273.894 47.8327 276.646C49.0733 278.393 50.6372 279.913 52.2709 281.171C53.7823 282.185 54.1143 282.726 54.1929 283.146C54.324 283.941 54.953 285.094 58.5874 286.405C59.0942 286.553 59.662 286.815 60.2823 286.955C60.8939 287.121 61.4967 287.296 61.9947 287.488C62.9907 287.811 63.6022 288.117 62.8509 288.51C62.4752 288.702 63.576 288.833 64.2313 288.947C68.2676 289.296 67.027 289.856 67.2017 290.354L67.1755 290.371ZM125.641 197.754L126.305 197.894C126.2 197.841 126.112 197.798 125.99 197.745C125.964 197.745 125.763 197.745 125.641 197.745V197.754ZM103.004 197.841L102.794 197.929L103.179 197.885L103.004 197.841ZM92.1446 197.937H92.9047L92.1796 197.885L92.1446 197.937ZM79.5814 197.902L80.6298 197.981L79.7649 197.841L79.5814 197.902ZM43.2023 237.698L43.2286 237.558C43.2286 237.558 43.2286 237.575 43.2198 237.584C43.2198 237.61 43.2111 237.654 43.2111 237.698H43.2023Z" fill="#54A7ED"/>
<path d="M41.6123 209.234C41.5686 208.788 41.7259 208.474 42.5209 208.465C44.6439 208.447 46.7319 208.779 48.8374 208.814C48.8374 208.814 48.9248 208.814 48.9597 208.814C50.3401 208.911 51.7205 208.701 53.0921 208.753C55.5122 208.858 57.9235 208.675 60.361 208.884C63.0606 209.111 65.8213 208.945 68.5384 209.05C71.8146 209.173 75.0821 209.111 78.3496 209.024C81.1191 208.954 83.8886 208.797 86.6581 208.771C88.5888 208.753 90.5109 208.893 92.4417 208.945C93.1406 208.963 93.8483 208.919 94.5559 208.937C95.4034 208.954 96.1984 208.867 97.0808 209.243C97.8147 209.557 98.9504 209.321 99.9027 209.347C101.231 209.382 102.559 209.505 103.878 209.452C105.232 209.4 106.604 209.609 107.94 209.295H107.932C108.718 209.304 109.513 209.391 110.29 209.321C112.038 209.155 113.759 209.435 115.471 209.522C120.311 209.758 125.143 209.784 129.974 209.679C131.826 209.644 133.678 209.47 135.522 209.356C136.963 209.304 137.793 210.099 138.597 210.798C139.479 211.558 139.095 212.117 137.811 212.248C135.373 212.493 132.927 212.737 130.472 212.728C128.235 212.728 126.008 212.554 123.771 212.589C122.627 212.606 121.473 212.554 120.32 212.536C120.276 212.458 120.233 212.466 120.198 212.536C118.599 212.3 117 212.458 115.393 212.44C114.536 212.431 113.68 212.344 112.815 212.204C112.23 212.108 111.409 212.309 110.684 212.318C108.447 212.318 106.219 212.318 103.983 212.318C103.467 212.318 102.943 212.3 102.428 212.3C101.79 212.108 101.152 212.283 100.514 212.292C100.13 212.292 99.7454 212.257 99.361 212.257C98.8805 212.257 98.3913 212.239 97.9282 212.309C96.906 212.458 95.9101 212.388 94.9141 212.23C94.8093 212.213 94.6782 212.283 94.5646 212.309C94.355 212.327 94.1453 212.353 93.9443 212.379C93.9269 212.379 93.9094 212.396 93.9007 212.396C93.9007 212.37 93.8919 212.353 93.8832 212.327C93.0095 212.222 92.1446 212.362 91.2797 212.414C91.1574 212.379 91.0263 212.335 90.904 212.3C90.904 212.3 90.904 212.3 90.8953 212.3C90.8953 212.3 90.904 212.3 90.9128 212.3C90.9128 212.3 90.904 212.3 90.8953 212.3C90.8953 212.3 90.8865 212.309 90.8778 212.318C90.8778 212.318 90.8603 212.318 90.8516 212.3C89.6896 212.318 88.5364 212.51 87.3745 212.353C86.6843 212.327 86.0028 212.309 85.3126 212.283C85.199 212.222 85.0855 212.143 84.9719 212.292C84.8758 212.309 84.7797 212.335 84.6836 212.362C84.6574 212.405 84.6312 212.449 84.605 212.484C84.1332 212.484 83.6614 212.501 83.2333 212.309H83.2421C83.1372 212.37 83.0324 212.449 82.9275 212.309C82.9275 212.309 82.9363 212.309 82.945 212.3C82.945 212.3 82.9275 212.3 82.9188 212.309C82.3771 212.335 81.8355 212.37 81.2938 212.405C80.9356 212.501 80.6298 212.562 80.2891 212.283C80.0357 212.073 79.6775 212.571 79.3106 212.353C79.3106 212.353 79.2407 212.353 79.2145 212.353C77.6856 212.361 76.148 212.379 74.6191 212.388C72.6883 211.933 70.7138 212.169 68.7656 212.178C66.6338 212.178 64.4934 212.248 62.3616 212.3C61.5142 212.318 60.658 212.362 59.8106 212.388C59.697 212.458 59.5834 212.484 59.4698 212.388L59.4873 212.379H59.4786C58.7884 212.37 57.9846 212.353 57.4255 212.44C56.447 212.597 55.486 212.571 54.5337 212.615C52.5068 212.702 50.4712 212.693 48.4356 212.755C47.7978 212.772 47.1513 212.868 46.5222 212.991C45.9718 213.095 45.7971 212.886 45.7097 212.545C45.5437 211.881 45.238 211.479 44.1372 211.61C43.5431 211.68 42.451 211.68 42.8267 210.684C42.9228 210.439 42.617 210.474 42.4335 210.466C41.324 210.396 41.6734 209.714 41.621 209.251L41.6123 209.234ZM93.6997 212.152C93.7609 212.196 93.822 212.248 93.8832 212.292C93.857 212.239 93.8308 212.196 93.7958 212.143C93.7958 212.143 93.7347 212.143 93.6997 212.143V212.152ZM87.4531 212.248C87.4531 212.248 87.4181 212.3 87.3919 212.335C87.4269 212.318 87.4618 212.309 87.4968 212.292C87.4793 212.274 87.4618 212.265 87.4443 212.248H87.4531ZM84.4564 212.335C84.5263 212.335 84.5962 212.335 84.6661 212.344C84.5962 212.318 84.5351 212.3 84.4652 212.274C84.4652 212.292 84.4652 212.309 84.4564 212.327V212.335ZM80.988 212.309C81.0841 212.335 81.1802 212.362 81.2763 212.388C81.1977 212.344 81.1191 212.292 81.0404 212.248C81.023 212.265 81.0055 212.292 80.988 212.309ZM59.7582 212.335C59.7582 212.335 59.7844 212.353 59.7931 212.362C59.7931 212.362 59.7931 212.361 59.7931 212.353C59.7931 212.353 59.7756 212.344 59.7582 212.344V212.335Z" fill="#54A7ED"/>
<path d="M452.677 188.248C453.122 187.943 453.437 188.991 453.446 194.076C453.463 207.722 453.131 221.124 453.096 234.719V234.701V235.505V235.487C453 244.373 453.21 253.249 453.157 262.047L453.14 266.389C445.102 266.389 437.064 266.389 429.027 266.38C421.644 266.38 414.245 266.38 406.818 266.275C389.45 266.048 371.732 266.214 354.216 266.109C333.16 265.987 312.149 266.048 291.12 266.136C273.297 266.223 255.492 266.302 237.678 266.389C229.186 266.354 220.686 266.328 212.185 266.293L212.264 250.846C212.264 246.33 212.264 241.795 212.255 237.278C212.272 231.818 212.185 226.733 212.561 221.046C212.875 216.302 212.639 209.033 212.666 202.891C212.701 197.553 212.727 192.206 212.762 186.868C216.815 186.868 220.861 186.868 224.888 186.868C233.59 186.816 242.422 187.025 251.002 186.711H250.941C255.999 186.719 261.127 186.807 266.09 186.737C277.334 186.571 288.385 186.851 299.429 186.938C330.531 187.174 361.598 187.2 392.7 187.095C404.608 187.06 416.49 186.885 428.38 186.772H428.328C437.606 186.719 442.944 187.515 448.125 188.213C453.769 188.974 451.323 189.533 443.058 189.664C427.384 189.908 411.676 190.153 395.872 190.144C381.517 190.144 367.189 189.97 352.8 190.004C345.418 189.987 338.018 189.97 330.636 189.952H330.67C330.4 189.873 330.138 189.882 329.875 189.952H329.902C319.645 189.716 309.318 189.873 299.018 189.856C293.496 189.847 288.01 189.76 282.471 189.62C278.697 189.524 273.411 189.725 268.754 189.734H225.683L216.117 189.707C215.933 189.672 215.741 189.655 215.54 189.646L215.514 190.109V190.861L215.531 193.543L215.592 198.907C215.584 201.388 215.566 203.87 215.557 206.351C215.557 209.417 215.54 212.562 215.61 215.55C215.758 222.103 215.688 228.498 215.531 234.928C215.514 235.601 215.584 236.422 215.61 237.174V237.121L215.68 241.131C215.68 241.236 215.697 241.332 215.697 241.428C215.68 241.472 215.654 241.507 215.627 241.551C215.522 247.177 215.662 252.707 215.715 258.264L215.601 260.666V260.728C215.601 260.728 215.61 260.797 215.619 260.85C215.619 260.876 215.619 260.946 215.601 260.998C215.601 262.484 215.61 262.414 215.619 262.833L216.405 262.816L218.772 262.789L223.508 262.746C226.662 262.728 229.824 262.728 232.996 262.798H233.022L246.293 262.859H246.258C247 262.92 247.734 262.999 248.442 262.851H248.407C249.036 262.833 249.656 262.807 250.285 262.781L250.792 262.658C253.797 262.658 256.846 262.641 259.581 262.833H259.52C260.184 262.781 260.848 262.702 261.555 262.833C261.529 262.833 261.494 262.833 261.459 262.842H261.617C265.103 262.798 268.588 262.772 272.083 262.737H272.118C274.407 262.641 276.364 262.58 278.557 262.859C280.208 263.069 282.497 262.571 284.847 262.789H284.865C285.083 262.789 285.293 262.789 285.511 262.789H285.467L315.023 262.754H315.076C327.464 263.209 340.158 262.973 352.73 262.964L393.923 262.842C399.392 262.816 404.861 262.781 410.322 262.754C411.038 262.685 411.755 262.658 412.488 262.754H412.392H412.462C416.909 262.772 422.072 262.789 425.663 262.702C431.962 262.545 438.122 262.571 444.281 262.527L447.723 262.51H448.99L449.261 262.492C449.226 252.358 449.191 242.206 449.156 232.071C449.138 227.948 449.042 223.798 448.92 219.779C448.815 216.232 449.025 215.087 449.366 214.537C450.029 213.462 450.431 211.479 450.3 204.42C450.23 200.576 450.23 193.595 451.226 195.989C451.471 196.583 451.436 194.644 451.445 193.482C451.515 186.344 452.187 188.572 452.659 188.248H452.677ZM215.479 242.765L215.619 241.577C215.566 241.76 215.522 241.918 215.47 242.145C215.461 242.188 215.47 242.547 215.47 242.765H215.479ZM232.585 262.894L232.961 262.807L232.27 262.851L232.585 262.894ZM251.849 262.807H250.495C250.923 262.816 251.351 262.842 251.779 262.859L251.849 262.807ZM274.162 262.833L272.301 262.754L273.839 262.894L274.162 262.833ZM410.663 262.798L410.418 262.772C410.418 262.772 410.444 262.772 410.462 262.781C410.505 262.781 410.593 262.781 410.663 262.789V262.798Z" fill="#54A7ED"/>
<path d="M452.677 89.5243C453.122 89.2186 453.437 90.2669 453.446 95.3517C453.463 108.998 453.131 122.4 453.096 135.995V135.977V136.781V136.763C453 145.649 453.21 154.525 453.157 163.323L453.14 167.665C445.102 167.665 437.064 167.665 429.027 167.656C421.644 167.656 414.245 167.656 406.818 167.551C389.45 167.324 371.732 167.49 354.216 167.385C333.16 167.263 312.149 167.324 291.12 167.411C273.297 167.499 255.492 167.577 237.678 167.665C229.186 167.63 220.686 167.604 212.185 167.569L212.264 152.122C212.264 147.606 212.264 143.071 212.255 138.554C212.272 133.094 212.185 128.009 212.561 122.322C212.875 117.578 212.639 110.309 212.666 104.167C212.701 98.8289 212.727 93.482 212.762 88.1439C216.815 88.1439 220.861 88.1439 224.888 88.1439C233.59 88.0915 242.422 88.3012 251.002 87.9867H250.941C255.999 87.9954 261.127 88.0828 266.09 88.0129C277.334 87.8469 288.385 88.1265 299.429 88.2138C330.531 88.4497 361.598 88.4759 392.7 88.3711C404.608 88.3362 416.49 88.1614 428.38 88.0478H428.328C437.606 87.9954 442.944 88.7905 448.125 89.4894C453.769 90.2495 451.323 90.8086 443.058 90.9397C427.384 91.1843 411.676 91.4289 395.872 91.4202C381.517 91.4202 367.189 91.2455 352.8 91.2804C345.418 91.2629 338.018 91.2455 330.636 91.228H330.67C330.4 91.1494 330.138 91.1581 329.875 91.228H329.902C319.645 90.9921 309.318 91.1493 299.018 91.1319C293.496 91.1231 288.01 91.0358 282.471 90.896C278.697 90.7999 273.411 91.0008 268.754 91.0096H225.683L216.117 90.9834C215.933 90.9484 215.741 90.9309 215.54 90.9222L215.514 91.3852V92.1366L215.531 94.8187L215.592 100.183C215.584 102.664 215.566 105.145 215.557 107.627C215.557 110.693 215.54 113.838 215.61 116.826C215.758 123.379 215.688 129.774 215.531 136.204C215.514 136.877 215.584 137.698 215.61 138.45V138.397L215.68 142.407C215.68 142.512 215.697 142.608 215.697 142.704C215.68 142.748 215.654 142.783 215.627 142.827C215.522 148.453 215.662 153.983 215.715 159.54L215.601 161.942V162.003C215.601 162.003 215.61 162.073 215.619 162.126C215.619 162.152 215.619 162.222 215.601 162.274C215.601 163.76 215.61 163.69 215.619 164.109L216.405 164.092L218.772 164.065L223.508 164.022C226.662 164.004 229.824 164.004 232.996 164.074H233.022L246.293 164.135H246.258C247 164.196 247.734 164.275 248.442 164.127H248.407C249.036 164.109 249.656 164.083 250.285 164.057L250.792 163.934C253.797 163.934 256.846 163.917 259.581 164.109H259.52C260.184 164.057 260.848 163.978 261.555 164.109C261.529 164.109 261.494 164.109 261.459 164.118H261.617C265.103 164.074 268.588 164.048 272.083 164.013H272.118C274.407 163.917 276.364 163.856 278.557 164.135C280.208 164.345 282.497 163.847 284.847 164.065H284.865C285.083 164.065 285.293 164.065 285.511 164.065H285.467L315.023 164.03H315.076C327.464 164.485 340.158 164.249 352.73 164.24L393.923 164.118C399.392 164.092 404.861 164.057 410.322 164.03C411.038 163.961 411.755 163.934 412.488 164.03H412.392H412.462C416.909 164.048 422.072 164.065 425.663 163.978C431.962 163.821 438.122 163.847 444.281 163.803L447.723 163.786H448.99L449.261 163.768C449.226 153.634 449.191 143.482 449.156 133.347C449.138 129.224 449.042 125.074 448.92 121.055C448.815 117.508 449.025 116.363 449.366 115.813C450.029 114.738 450.431 112.755 450.3 105.696C450.23 101.852 450.23 94.8712 451.226 97.265C451.471 97.8591 451.436 95.9196 451.445 94.7576C451.515 87.6197 452.187 89.8476 452.659 89.5243H452.677ZM215.479 144.041L215.619 142.853C215.566 143.036 215.522 143.194 215.47 143.421C215.461 143.464 215.47 143.823 215.47 144.041H215.479ZM232.585 164.17L232.961 164.083L232.27 164.127L232.585 164.17ZM251.849 164.083H250.495C250.923 164.092 251.351 164.118 251.779 164.135L251.849 164.083ZM274.162 164.109L272.301 164.03L273.839 164.17L274.162 164.109ZM410.663 164.074L410.418 164.048C410.418 164.048 410.444 164.048 410.462 164.057C410.505 164.057 410.593 164.057 410.663 164.065V164.074Z" fill="#54A7ED"/>
<path d="M478.231 65.8044C478.677 65.3064 478.991 67.0101 479 75.2924C479.017 97.5271 478.685 119.36 478.651 141.507V141.472V142.792V142.757C478.554 157.233 478.764 171.692 478.712 186.029C478.607 211.374 478.79 236.658 478.581 262.152C478.546 271.299 478.502 280.499 478.458 289.733C457.971 289.716 437.335 289.698 416.848 289.681C382.54 289.559 348.31 289.62 314.054 289.707C285.022 289.794 256.008 289.873 226.976 289.96C213.531 289.925 200.076 289.899 186.613 289.864L186.692 265.882C186.692 258.526 186.692 251.135 186.683 243.779C186.701 234.876 186.613 226.602 186.989 217.324C187.303 209.592 187.067 197.754 187.094 187.75C187.129 173.868 187.251 159.933 187.199 146.129C187.146 131.949 187.356 117.56 187.041 103.582V103.686C187.05 95.4478 187.137 87.0869 187.067 78.9967C187.05 76.7689 187.041 74.541 187.024 72.3132C187.024 69.5961 187.024 66.8877 187.015 64.1794C190.946 64.1881 194.869 64.2056 198.783 64.2143C202.208 64.2405 205.624 64.258 209.04 64.2842C215.863 64.3366 222.669 64.3803 229.475 64.424C280.147 64.6599 330.767 64.6861 381.439 64.5813C400.843 64.4764 420.203 64.3629 439.581 64.258H439.493C454.616 64.2056 463.309 65.0006 471.749 65.6996C480.948 66.4596 476.956 67.0188 463.493 67.1498C437.947 67.3945 412.366 67.6391 386.602 67.6304C363.214 67.5867 339.861 67.5343 316.43 67.4906C304.4 67.4731 292.352 67.4556 280.313 67.4382H280.374C279.928 67.3595 279.5 67.3683 279.072 67.4382H279.116C262.412 67.2023 245.576 67.3595 228.793 67.342C219.795 67.3333 210.866 67.2459 201.832 67.1062C199.945 67.0799 197.822 67.0712 195.568 67.0887C194.441 67.0974 193.279 67.1062 192.1 67.1149C191.61 67.1149 191.112 67.1236 190.614 67.1324L190.003 67.1498L190.029 67.9187C190.029 68.6788 190.047 69.4388 190.047 70.1902C190.047 71.7016 190.064 73.2043 190.064 74.6634V144.836L190.038 161.165C189.846 167.857 190.029 174.541 190.038 181.233C190.029 185.269 190.012 189.314 190.003 193.359C190.003 198.365 189.985 203.485 190.055 208.343C190.204 219.019 190.134 229.442 189.977 239.926C189.959 241.026 190.029 242.363 190.055 243.586V243.499C190.073 245.674 190.099 247.859 190.125 250.034C190.125 250.209 190.143 250.357 190.143 250.514C190.125 250.576 190.099 250.646 190.073 250.715C189.968 259.88 190.108 268.888 190.16 277.956L190.047 281.87C190.047 281.87 190.047 281.94 190.047 281.966V281.8V281.975C190.047 282.036 190.055 282.097 190.064 282.176C190.064 282.22 190.064 282.333 190.047 282.421L190.064 286.405C194.677 286.378 199.29 286.343 203.912 286.317C209.057 286.3 214.203 286.3 219.367 286.37H219.41L241.033 286.431H240.972C242.178 286.492 243.383 286.571 244.537 286.422H244.475C245.498 286.405 246.511 286.378 247.542 286.352L248.372 286.23C253.273 286.23 258.236 286.212 262.691 286.405H262.595C263.678 286.352 264.753 286.274 265.906 286.405C265.863 286.405 265.81 286.405 265.758 286.413H266.011C271.69 286.37 277.377 286.343 283.065 286.308H283.117C286.848 286.212 290.037 286.151 293.61 286.431C296.301 286.64 300.031 286.142 303.849 286.361H303.875H304.924H304.854L353.001 286.326H353.089C373.279 286.78 393.967 286.544 414.445 286.536C434.697 286.501 454.939 286.466 475.182 286.422V283.146C475.138 274.234 475.112 265.332 475.077 256.42C475.007 255.25 474.981 254.079 475.077 252.891V253.048V252.935C475.095 245.683 475.112 237.287 475.025 231.425C474.868 221.159 474.894 211.13 474.85 201.091C474.806 179.826 474.754 158.491 474.71 137.2C474.693 130.482 474.597 123.72 474.474 117.167C474.37 111.392 474.579 109.531 474.92 108.623C475.584 106.867 475.986 103.634 475.855 92.1366C475.785 85.8812 475.785 74.4974 476.781 78.4026C477.025 79.3637 476.991 76.201 476.999 74.3139C477.069 62.6854 477.742 66.3111 478.214 65.7869L478.231 65.8044ZM189.924 252.725L190.064 250.794C190.012 251.091 189.968 251.344 189.916 251.711C189.907 251.781 189.916 252.375 189.916 252.725H189.924ZM218.694 286.483L219.297 286.396L218.178 286.44L218.694 286.483ZM250.084 286.396H247.874C248.573 286.405 249.272 286.431 249.971 286.448L250.084 286.396ZM286.428 286.422L283.397 286.343C284.236 286.387 285.066 286.44 285.896 286.483L286.428 286.422ZM475.121 255.905L475.095 256.307C475.095 256.307 475.095 256.263 475.103 256.228C475.103 256.158 475.103 256.019 475.112 255.905H475.121Z" fill="#54A7ED"/>
<path d="M356.644 227.79C356.671 228.236 356.592 228.55 356.199 228.559C355.15 228.577 354.119 228.245 353.08 228.21C353.08 228.21 353.036 228.21 353.019 228.21C352.337 228.114 351.656 228.323 350.983 228.271C349.786 228.166 348.598 228.35 347.401 228.14C346.064 227.913 344.71 228.079 343.365 227.974C341.748 227.852 340.141 227.913 338.525 228C337.162 228.07 335.79 228.227 334.427 228.253C333.475 228.271 332.523 228.131 331.57 228.079C331.221 228.061 330.88 228.105 330.531 228.087C330.111 228.07 329.718 228.157 329.281 227.782C328.914 227.467 328.364 227.703 327.892 227.677C327.237 227.642 326.582 227.52 325.935 227.572C325.271 227.624 324.59 227.415 323.935 227.729C323.55 227.721 323.157 227.633 322.773 227.703C321.908 227.869 321.06 227.589 320.213 227.502C317.828 227.266 315.443 227.24 313.058 227.345C312.14 227.38 311.232 227.555 310.323 227.668C309.615 227.721 309.205 226.925 308.803 226.227C308.366 225.466 308.558 224.907 309.187 224.776C310.393 224.532 311.599 224.287 312.804 224.296C313.905 224.296 315.006 224.471 316.107 224.436C316.675 224.418 317.242 224.471 317.81 224.488C317.828 224.567 317.854 224.558 317.871 224.488C318.658 224.724 319.453 224.567 320.239 224.584C320.658 224.593 321.086 224.68 321.506 224.82C321.794 224.916 322.205 224.715 322.554 224.706C323.655 224.706 324.756 224.706 325.857 224.706C326.11 224.706 326.372 224.724 326.625 224.724C326.94 224.916 327.254 224.741 327.569 224.733C327.761 224.733 327.953 224.768 328.137 224.768C328.373 224.768 328.617 224.785 328.845 224.715C329.351 224.567 329.841 224.636 330.33 224.794C330.382 224.811 330.443 224.741 330.504 224.715C330.609 224.698 330.705 224.671 330.81 224.645C330.81 224.645 330.828 224.628 330.836 224.628C330.836 224.645 330.836 224.671 330.845 224.698C331.273 224.802 331.701 224.663 332.129 224.61C332.191 224.645 332.252 224.689 332.313 224.724C332.313 224.724 332.313 224.715 332.322 224.706C332.322 224.706 332.322 224.706 332.33 224.724C332.898 224.706 333.475 224.514 334.043 224.671C334.384 224.698 334.724 224.715 335.065 224.741C335.117 224.802 335.179 224.881 335.231 224.733C335.275 224.715 335.327 224.689 335.379 224.663C335.388 224.619 335.406 224.575 335.414 224.54C335.642 224.54 335.877 224.523 336.087 224.715C336.14 224.654 336.192 224.575 336.244 224.715C336.244 224.715 336.244 224.715 336.244 224.724C336.244 224.724 336.244 224.724 336.253 224.715C336.524 224.689 336.786 224.654 337.057 224.619C337.232 224.523 337.38 224.462 337.555 224.741C337.686 224.951 337.861 224.453 338.035 224.671C338.035 224.671 338.07 224.671 338.088 224.671C338.839 224.663 339.599 224.645 340.351 224.636C341.303 225.091 342.273 224.855 343.242 224.846C344.3 224.846 345.348 224.776 346.405 224.724C346.824 224.706 347.244 224.663 347.663 224.636C347.716 224.567 347.777 224.54 347.829 224.636V224.645C348.17 224.654 348.563 224.671 348.843 224.584C349.323 224.427 349.795 224.453 350.267 224.409C351.271 224.322 352.276 224.331 353.272 224.27C353.586 224.252 353.91 224.156 354.216 224.034C354.486 223.929 354.574 224.139 354.617 224.479C354.696 225.143 354.853 225.545 355.395 225.414C355.692 225.344 356.225 225.344 356.041 226.34C355.998 226.585 356.146 226.55 356.234 226.559C356.784 226.628 356.609 227.31 356.636 227.773L356.644 227.79ZM330.959 224.864C330.933 224.82 330.898 224.768 330.871 224.724C330.889 224.776 330.898 224.82 330.915 224.872C330.915 224.872 330.95 224.872 330.959 224.872V224.864ZM334.034 224.768L334.06 224.68C334.06 224.68 334.025 224.706 334.008 224.724C334.008 224.741 334.025 224.75 334.034 224.768ZM335.511 224.68C335.511 224.68 335.441 224.68 335.406 224.671C335.441 224.698 335.476 224.715 335.502 224.741C335.502 224.724 335.502 224.706 335.502 224.689L335.511 224.68ZM337.223 224.715C337.179 224.689 337.127 224.663 337.083 224.636C337.127 224.68 337.162 224.733 337.197 224.776C337.197 224.759 337.214 224.733 337.223 224.715ZM347.698 224.68C347.698 224.68 347.689 224.663 347.681 224.654C347.681 224.654 347.681 224.654 347.681 224.663C347.681 224.663 347.689 224.671 347.698 224.671V224.68Z" fill="#54A7ED"/>
<path d="M356.644 128.193C356.671 128.638 356.592 128.953 356.199 128.962C355.15 128.979 354.119 128.647 353.08 128.612C353.08 128.612 353.036 128.612 353.019 128.612C352.337 128.516 351.656 128.726 350.983 128.673C349.786 128.568 348.598 128.752 347.401 128.542C346.064 128.315 344.71 128.481 343.365 128.376C341.748 128.254 340.141 128.315 338.525 128.402C337.162 128.472 335.79 128.63 334.427 128.656C333.475 128.673 332.523 128.533 331.57 128.481C331.221 128.464 330.88 128.507 330.531 128.49C330.111 128.472 329.718 128.56 329.281 128.184C328.914 127.869 328.364 128.105 327.892 128.079C327.237 128.044 326.582 127.922 325.935 127.974C325.271 128.027 324.59 127.817 323.935 128.132C323.55 128.123 323.157 128.035 322.773 128.105C321.908 128.271 321.06 127.992 320.213 127.904C317.828 127.668 315.443 127.642 313.058 127.747C312.14 127.782 311.232 127.957 310.323 128.07C309.615 128.123 309.205 127.328 308.803 126.629C308.366 125.869 308.558 125.31 309.187 125.179C310.393 124.934 311.599 124.689 312.804 124.698C313.905 124.698 315.006 124.873 316.107 124.838C316.675 124.82 317.242 124.873 317.81 124.89C317.828 124.969 317.854 124.96 317.871 124.89C318.658 125.126 319.453 124.969 320.239 124.986C320.658 124.995 321.086 125.082 321.506 125.222C321.794 125.318 322.205 125.117 322.554 125.109C323.655 125.109 324.756 125.109 325.857 125.109C326.11 125.109 326.372 125.126 326.625 125.126C326.94 125.318 327.254 125.144 327.569 125.135C327.761 125.135 327.953 125.17 328.137 125.17C328.373 125.17 328.617 125.187 328.845 125.117C329.351 124.969 329.841 125.039 330.33 125.196C330.382 125.214 330.443 125.144 330.504 125.117C330.609 125.1 330.705 125.074 330.81 125.048C330.81 125.048 330.828 125.03 330.836 125.03C330.836 125.056 330.836 125.074 330.845 125.1C331.273 125.205 331.701 125.065 332.129 125.013C332.191 125.048 332.252 125.091 332.313 125.126C332.313 125.126 332.313 125.117 332.322 125.109C332.322 125.109 332.322 125.109 332.33 125.126C332.898 125.109 333.475 124.916 334.043 125.074C334.384 125.1 334.724 125.117 335.065 125.144C335.117 125.205 335.179 125.283 335.231 125.135V125.144C335.275 125.117 335.327 125.091 335.379 125.065C335.388 125.021 335.406 124.978 335.414 124.943C335.642 124.943 335.877 124.925 336.087 125.117C336.14 125.056 336.192 124.978 336.244 125.117C336.244 125.117 336.244 125.117 336.244 125.126C336.244 125.126 336.244 125.126 336.253 125.117C336.524 125.091 336.786 125.056 337.057 125.021C337.232 124.925 337.38 124.864 337.555 125.144C337.686 125.353 337.861 124.855 338.035 125.074C338.035 125.074 338.07 125.074 338.088 125.074C338.839 125.065 339.599 125.048 340.351 125.039C341.303 125.493 342.273 125.257 343.242 125.248C344.3 125.248 345.348 125.179 346.405 125.126C346.824 125.109 347.244 125.065 347.663 125.039C347.716 124.969 347.777 124.943 347.829 125.039V125.048C348.17 125.056 348.563 125.074 348.843 124.986C349.323 124.829 349.795 124.855 350.267 124.812C351.271 124.724 352.276 124.733 353.272 124.672C353.586 124.654 353.91 124.558 354.216 124.436C354.486 124.331 354.574 124.541 354.617 124.882C354.696 125.546 354.853 125.947 355.395 125.816C355.692 125.746 356.225 125.746 356.041 126.742C355.998 126.987 356.146 126.952 356.234 126.961C356.784 127.031 356.609 127.712 356.636 128.175L356.644 128.193ZM330.959 125.266C330.933 125.222 330.898 125.17 330.871 125.126C330.889 125.179 330.898 125.222 330.915 125.275C330.915 125.275 330.95 125.275 330.959 125.275V125.266ZM334.034 125.17C334.034 125.17 334.052 125.117 334.06 125.082C334.043 125.1 334.025 125.109 334.008 125.126C334.008 125.144 334.025 125.152 334.034 125.17ZM335.511 125.082C335.511 125.082 335.441 125.082 335.406 125.074C335.441 125.1 335.476 125.117 335.502 125.144C335.502 125.126 335.502 125.109 335.502 125.091L335.511 125.082ZM337.223 125.117C337.179 125.091 337.127 125.065 337.083 125.039C337.127 125.082 337.162 125.135 337.197 125.179C337.197 125.161 337.214 125.135 337.223 125.117ZM347.698 125.082C347.698 125.082 347.689 125.065 347.681 125.056C347.681 125.056 347.681 125.056 347.681 125.065C347.681 125.065 347.689 125.074 347.698 125.074V125.082Z" fill="#54A7ED"/>
</g>
<defs>
<clipPath id="clip0_75_94">
<rect width="479" height="291" fill="white"/>
</clipPath>
</defs>
</svg>
