<svg width="421" height="590" viewBox="0 0 421 590" fill="none" xmlns="http://www.w3.org/2000/svg">
<g clip-path="url(#clip0_75_4)">
<path d="M154.068 606C151.846 558.775 153.12 511.645 154.84 464.218C155.26 452.635 157.353 440.883 158.6 429.361C161.458 402.824 165.306 369.782 176.13 344.944C176.13 344.944 156.046 338.723 155.111 337.525L163.49 308.375L170.786 285.968L173.8 259.898L90.8085 225.867C90.8085 225.867 74.4567 219.314 73.5762 210.406L56.2083 141.782L57.2109 137.091L62.9414 134.254C62.9414 134.254 45.9597 83.0425 45.3636 75.7178C45.3636 75.7178 35.0743 71.3447 34.0109 68.867L31.4098 61.7793H22.0688C22.0688 61.7793 10.479 47.36 10.479 40.8612L22.6581 31.9998L20.1722 28.1006C20.1722 28.1006 5.98801 15.5294 3.14982 9.52481C3.14982 9.52481 0.304861 5.04334 1.7883 1.65855C3.27175 -1.73301 46.2374 34.5723 46.2374 34.5723L49.4143 28.4255L59.1685 21.7168L63.4765 21.9267L59.3784 33.7193L58.3217 43.4675L62.2099 64.3043L87.5029 123.213L92.4071 121.446C92.4071 121.446 105.081 159.884 116.928 176.409C116.928 176.409 124.636 180.653 135.813 181.208C135.813 181.208 203.747 184.559 207.1 180.43C207.1 180.43 183.541 139.318 198.314 90.1574C198.314 90.1574 189.447 79.9691 207.1 57.2369C207.1 57.2369 230.76 23.9576 272.466 39.223C309.091 52.6268 328.559 119.944 328.559 119.944C328.559 119.944 344.958 176.686 384.977 195.77C384.977 195.77 411.578 206.527 415.642 226.625C419.713 246.724 409.552 257.278 409.552 257.278C409.552 257.278 422.03 272.449 419.564 288.026C417.098 303.596 399.324 318.834 399.324 318.834L375.413 340.835C375.413 340.835 367.081 349.087 365.496 353.975L358.431 348.383C358.431 348.383 342.086 366.025 331.75 372.456C331.75 372.456 325.423 378.136 317.931 375.191L307.385 369.613C307.385 369.613 315.438 395.994 319.239 404.043C319.239 404.043 333.26 440.165 331.438 473.743C331.438 473.743 330.449 491.695 318.161 523.79C318.161 523.79 309.478 563.216 310.27 597.254L154.068 606.014V606Z" fill="white"/>
<path d="M409.552 257.278C409.552 257.278 419.706 246.724 415.642 226.625C411.571 206.527 384.977 195.77 384.977 195.77C344.958 176.686 328.559 119.944 328.559 119.944C328.559 119.944 309.085 52.6268 272.466 39.223C230.76 23.9576 207.1 57.2369 207.1 57.2369C189.447 79.9691 198.314 90.1574 198.314 90.1574C183.541 139.318 207.1 180.43 207.1 180.43C209.809 180.43 212.403 178.311 214.639 176.795C215.194 176.415 215.763 175.989 216.027 175.373C216.691 173.829 217.03 172.198 217.538 170.594C218.168 168.603 218.026 166.464 218.202 164.386C218.358 162.551 218.757 160.757 219.123 158.95C220.173 153.737 221.873 148.572 222.279 143.272C211.062 136.319 203.923 122.97 202.812 109.83C202.277 103.5 202.764 97.0826 204.255 90.9088C208.481 88.3634 213.047 84.9583 216.19 81.1538C217.396 79.6916 218.412 78.0804 219.414 76.4693C223.153 70.5052 226.886 64.5412 230.625 58.5705C231.776 61.6371 232.013 64.8662 231.966 68.1359C231.803 79.4208 235.129 89.6158 241.95 97.7258C246.218 102.796 252.483 106.14 258.715 108.401C261.283 109.336 263.992 109.87 266.519 110.92C268.727 111.84 270.773 113.147 272.527 114.765C272.988 115.191 273.441 115.652 273.692 116.227C274.302 117.642 273.536 119.24 272.832 120.62C269.147 127.857 267.589 135.419 267.074 143.522C266.986 144.903 267.352 146.548 267.535 147.915C268.578 155.552 270.522 163.77 275.345 170.303C280.012 176.632 284.015 183.679 290.667 187.87C292.99 189.332 295.192 190.435 297.576 191.803C299.933 193.163 302.304 194.524 304.804 195.6C308.191 197.056 311.781 197.97 315.384 198.714C328.966 201.537 342.825 202.729 356.507 205.024C361.486 205.863 366.478 207.515 370.394 210.703C372.107 212.098 373.557 213.79 374.993 215.469C376.585 217.331 378.177 219.192 379.768 221.054C381.74 223.227 383.433 224.71 385.072 227.099C386.569 229.279 388.439 231.175 390.254 233.097C397.631 240.875 403.463 248.444 409.539 257.271L409.552 257.278Z" fill="#202124"/>
<path d="M358.431 348.383L365.496 353.975C367.081 349.087 375.413 340.835 375.413 340.835L399.324 318.834C399.324 318.834 417.098 303.596 419.564 288.026C422.03 272.456 409.552 257.278 409.552 257.278L393.065 235.203L370.421 211.915C370.421 211.915 362.726 205.545 349.097 204.773C349.097 204.773 313.44 200.346 304.12 195.303C304.12 195.303 279.138 182.643 273.787 167.974C273.787 167.974 271.734 166.674 268.009 169.463C268.009 169.463 248.047 184.681 217.03 175.346L207.093 180.43C203.74 184.559 135.806 181.208 135.806 181.208C124.63 180.653 116.921 176.409 116.921 176.409C105.074 159.884 92.4003 121.446 92.4003 121.446L87.4961 123.213L62.9346 134.268L57.204 137.104L56.2015 141.796L73.5693 210.419C74.4499 219.321 90.8017 225.881 90.8017 225.881L173.793 259.912L170.779 285.981L163.484 308.389L155.105 337.538C156.039 338.743 176.123 344.958 176.123 344.958C176.123 344.958 203.327 351.971 254.536 346.914C254.536 346.914 255.078 342.873 261.194 338.655L267.975 333.45L273.841 333.531L298.64 338.567L313.02 347.408L315.405 270.831L353.866 303.711L335.59 324.263C335.59 324.263 334.506 326.078 335.78 327.052L358.418 348.377L358.431 348.383Z" fill="#CAE6FF"/>
<path d="M265.855 141.484C266.214 138.323 266.763 135.175 267.602 132.102C268.422 129.11 273.536 117.649 272.94 115.868C272.331 114.034 261.018 110.588 258.6 109.532C242.96 102.688 232.948 92.5944 231.153 75.0409C230.753 71.1145 231.295 66.4571 231.018 62.6864C230.984 62.2531 230.76 61.0482 230.063 61.2039L224.793 70.8437C220.139 76.5031 216.061 83.0087 210.08 87.7948C208.773 88.8441 205.867 89.7918 205.176 91.4707C200.8 110.473 204.024 131.472 221.954 141.789C235.644 149.669 251.569 145.275 265.848 141.484H265.855Z" fill="#F2DDC0"/>
<path d="M221.873 146.142L217.87 174.764C229.731 177.925 241.598 178.704 253.412 174.953C260.002 172.861 265.679 168.495 272.459 167.094C269.045 162.091 267.189 155.477 266.485 149.445C266.336 148.159 267.033 144.057 265.631 143.773C265.049 143.651 255.925 146.501 254.109 146.866C254.109 146.866 237.487 151.036 222.198 144.213L221.88 146.149L221.873 146.142Z" fill="#F2DDC0"/>
<path d="M345.128 337.281C343.549 335.819 341.558 334.526 340.149 332.759L325.558 347.226C317.769 355.471 309.132 345.703 302.108 341.424C295.449 337.369 292.442 338.371 285.275 337.112C282.329 336.591 279.646 335.541 277.032 334.98C270.725 333.619 269.357 333.104 264.195 337.125C262.238 338.655 258.587 342.392 256.886 344.349C256.541 344.748 255.247 346.508 255.613 346.874L263.775 342.812C267.65 342.115 271.768 338.75 275.501 338.236C279.172 337.728 287.673 339.982 291.378 341.296C292.076 341.539 292.977 341.627 293.126 342.528C288.703 342.771 283.988 340.341 279.755 339.874C271.579 338.98 259.941 347.713 251.962 350.001L251.264 351.213C254.543 351.843 257.374 352.52 260.775 352.296C267.657 351.843 273.34 347.524 280.689 347.74C282.898 347.808 285.356 348.857 286.989 348.905C287.673 348.925 290.911 347.761 291.778 347.463L292.584 348.498C282.132 351.389 271.68 354.659 262.509 360.548L257.245 364.244C258.458 364.143 259.596 364.712 260.781 364.786C268.72 365.314 276.117 359.865 283.453 357.57C287.558 356.283 291.405 356.859 294.907 355.972C295.869 355.728 299.243 353.521 299.649 353.934C299.744 355.139 299.879 355.085 298.992 355.728C296.96 357.204 293.634 358.517 291.324 360.007C285.024 364.075 278.725 368.631 273.557 374.027C280.893 376.159 284.747 369.315 290.559 367.392C294.298 366.153 300.171 366.424 304.032 367.21C308.556 368.137 315.012 373.607 319.482 374.846C321.901 375.516 324.942 375.191 327.218 374.142C331.37 372.226 337.643 366.208 341.395 363.168C346.882 358.72 352.497 354.53 357.246 349.243C357.469 348.221 348.128 340.659 346.652 339.299C345.968 338.669 345.656 337.769 345.134 337.288L345.128 337.281Z" fill="#F2DDC0"/>
<path d="M22.1636 16.3418C17.571 13.1533 13.1952 8.82754 8.75844 5.5646C8.12171 5.09073 3.75944 2.33551 3.38011 2.23396C1.97795 1.8684 2.25567 4.03467 2.39115 4.85379C3.23109 9.89713 12.1724 19.0022 15.837 22.9354C18.4516 25.7447 21.9943 27.6605 23.4032 31.6884C23.5929 33.699 14.8819 38.0383 13.141 39.7375C12.3892 40.4686 11.2647 41.1388 11.6034 42.3167C13.3442 45.3901 19.9418 59.7484 22.7665 60.5472L30.0008 60.6487C30.3463 60.2832 27.5352 54.0958 27.3252 52.7351C27.2304 52.1055 26.9323 48.6056 28.3616 49.7971C28.4903 49.9054 28.9306 52.3898 29.1947 53.0465C31.3556 58.3742 33.2996 63.7492 35.4266 69.0836C37.7296 72.5429 44.6727 72.306 46.0003 74.8175C50.8232 94.5102 57.1295 113.756 63.7136 132.894L86.541 123.112C82.3549 115.428 78.2839 107.386 75.5066 99.1068C70.4941 88.4514 66.1725 77.329 62.6163 66.0847C61.3157 65.7936 61.7424 66.3149 61.4105 66.7955C61.126 67.2085 58.7552 72.0758 57.7324 70.9723C58.4707 67.6688 60.6519 65.0151 60.6925 61.4746C60.7941 53.6354 56.5673 47.0486 57.7324 37.578C58.3962 32.1758 60.7535 27.9178 62.6163 22.9354C62.1353 21.0602 57.116 23.9373 56.0864 24.5262C54.1898 25.6093 50.6945 28.1209 49.4278 29.8268C46.9148 33.2048 47.1248 43.102 46.0748 47.6579C45.621 49.6278 43.9953 52.9923 41.97 53.5948C42.3967 51.5233 43.6837 50.21 44.3272 48.0844C44.7811 46.5815 45.9868 36.8942 45.6955 36.0345L22.1772 16.3486L22.1636 16.3418Z" fill="#F2DDC0"/>
<path d="M152.314 595.006L152.28 510.055C152.219 477.026 155.274 444.078 159.873 411.171C162.386 393.178 164.601 374.812 170.244 357.448C171.524 353.501 173.082 349.636 174.606 345.791C170.163 344.267 165.387 343.469 161.018 341.702C160.083 341.323 154.251 338.418 154.048 338.08C153.818 337.694 153.872 337.274 153.899 336.855C156.764 328.704 158.647 320.249 161.154 311.99C163.098 305.6 165.8 299.331 167.609 292.913C170.549 282.481 172.066 271.677 172.439 260.866C157.293 255.044 142.485 248.403 127.576 242.04C113.108 235.859 94.0192 229.327 80.7969 221.426C72.682 216.579 73.2916 212.714 71.0292 204.57C65.7322 185.453 61.1328 166.227 57.116 146.785C56.7164 144.835 55.5648 142.561 55.5106 140.198C55.3684 134.194 61.8373 136.279 61.4309 132.752C55.111 114.135 48.7911 95.485 44.544 76.2459C43.7921 74.655 37.1471 73.7073 35.0608 71.866C32.5207 69.632 31.6198 63.6341 30.536 63.0858C28.5106 62.0636 23.4236 63.8981 20.9715 62.3141C19.4677 61.346 14.7667 53.2157 13.6626 51.151C12.0369 48.1047 8.97522 43.3728 9.8558 39.8458C10.1742 38.5799 21.7301 33.083 21.7369 31.5937C20.1722 28.2224 16.8734 26.5639 14.401 24.0727C10.2825 19.9229 0.548714 10.1476 0.284539 4.35962C-0.088015 -3.70296 7.11922 2.26105 10.3909 4.4747L45.5601 32.8867C46.6235 33.1236 46.1494 32.846 46.4271 32.2706C48.6489 27.5996 49.8004 26.1509 54.2914 23.2806C57.3192 21.3513 60.5503 19.3746 64.1742 21.0805C65.2377 25.6906 61.8508 28.7437 60.7129 32.9476C60.0761 35.2966 59.3513 39.5141 59.3175 41.9038C59.2768 45.187 62.3521 62.4156 63.4427 65.5364C64.6619 69.0295 67.2698 73.45 68.7126 77.1124C73.6032 89.5075 78.1823 101.93 84.0822 113.892C84.7189 115.178 87.5706 121.352 88.16 121.785C89.2776 122.618 91.3233 119.084 92.8 120.932C96.0039 132.061 100.718 142.689 105.724 153.094C108.583 159.031 112.044 166.119 115.255 171.819C117.036 174.98 118.032 176.707 121.744 177.824C126.282 179.184 131.207 179.144 135.718 179.57C154.007 181.296 173.915 181.824 192.265 181.215C196.492 181.073 200.814 180.477 205.074 180.416C205.745 179.868 205.664 179.766 205.338 179.042C204.309 176.788 202.561 174.452 201.532 171.975C192.861 151.124 191.08 120.038 194.873 97.9966C195.219 95.9792 196.776 92.3101 196.776 90.6786C196.776 89.8595 194.981 87.6797 194.758 85.8451C193.444 75.0815 201.965 60.6284 209.125 53.0397C231.593 29.2243 269.201 27.6132 292.401 51.063C320.166 79.1297 325.538 116.694 342.276 150.319C348.21 162.24 358.96 175.664 369.527 183.93C387.084 197.658 413.454 204.326 417.566 228.805C419.246 238.818 416.861 249.717 411.144 257.996C417.396 266.505 422.382 278.169 420.228 288.906C418.528 297.374 408.95 310.853 402.968 317.284C393.153 327.831 375.711 338.696 368.172 350.529C367.4 351.741 366.621 353.555 366.519 355.018C365.185 356.195 359.542 350.225 358.093 349.615C352.945 355.782 346.943 361.347 340.691 366.411C337.074 369.335 329.501 375.699 325.233 376.497C318.385 377.777 315.215 374.304 309.444 371.86C313.217 388.764 321.42 404.273 325.714 421.035C329.643 436.374 333.172 457.326 332.596 473.039C331.98 489.847 325.782 505.241 320.607 520.933C319.692 523.716 318.73 527.006 318.141 529.896H315.967C315.736 528.739 316.116 527.865 316.407 526.809C320.437 512.498 326.981 498.052 329.406 483.308C332.921 461.943 326.595 429.652 319.787 409.032C316.664 399.575 312.248 390.477 309.281 380.965C308.617 378.833 307.412 371.366 306.436 370.229C304.099 367.521 293.038 368.496 289.732 369.816C285.038 371.684 282.288 376.477 276.571 376.213C275.623 376.172 271.565 375.184 271.098 374.575C270.353 373.593 271.24 373.505 271.748 373.031C273.584 371.292 276.015 370.087 277.648 368.063L292.042 357.739C289.482 357.692 286.765 358.28 284.313 358.971C276.937 361.056 268.524 367.074 260.795 366.424C258.919 366.269 253.31 365.531 255.789 362.775C262.001 359.045 267.88 355.241 274.715 352.635L283.886 349.588C281.841 349.683 279.734 349.399 277.695 349.636C270.42 350.495 264.927 354.598 256.961 353.948C255.579 353.833 250.878 352.953 250.133 352.08C248.758 350.245 250.309 349.331 251.271 347.957L224.332 349.365C212.288 349.365 200.041 350.089 188.005 348.431C184.252 347.916 180.601 346.501 176.875 346.407C175.852 347.124 169.424 367.379 168.774 370.087C159.629 408.084 158.397 449.555 154.502 488.351V595.006H152.327H152.314ZM22.1636 16.3418C17.5711 13.1533 13.1952 8.82755 8.75846 5.56461C8.12173 5.09073 3.75946 2.33551 3.38013 2.23397C1.97797 1.86841 2.25569 4.03468 2.39116 4.8538C3.23111 9.89714 12.1724 19.0022 15.837 22.9354C18.4516 25.7447 21.9943 27.6605 23.4032 31.6884C23.5929 33.699 14.8819 38.0383 13.1411 39.7375C12.3892 40.4686 11.2647 41.1388 11.6034 42.3167C13.3443 45.3901 19.9419 59.7484 22.7665 60.5472L30.0008 60.6487C30.3463 60.2832 27.5352 54.0958 27.3252 52.7351C27.2304 52.1055 26.9323 48.6056 28.3616 49.7971C28.4903 49.9054 28.9306 52.3898 29.1948 53.0465C31.3556 58.3742 33.2996 63.7492 35.4266 69.0837C37.7296 72.5429 44.6727 72.306 46.0003 74.8175C50.8232 94.5102 57.1296 113.756 63.7136 132.894L86.541 123.112C82.3549 115.428 78.2839 107.386 75.5067 99.1068C70.4941 88.4514 66.1725 77.329 62.6163 66.0847C61.3157 65.7936 61.7425 66.3149 61.4106 66.7955C61.1261 67.2085 58.7553 72.0758 57.7324 70.9724C58.4708 67.6688 60.6519 65.0151 60.6925 61.4746C60.7941 53.6354 56.5673 47.0486 57.7324 37.578C58.3962 32.1759 60.7535 27.9178 62.6163 22.9354C62.1353 21.0602 57.116 23.9373 56.0864 24.5262C54.1898 25.6094 50.6945 28.1209 49.4278 29.8268C46.9148 33.2048 47.1248 43.102 46.0749 47.6579C45.621 49.6279 43.9953 52.9923 41.97 53.5948C42.3967 51.5233 43.6837 50.21 44.3272 48.0844C44.7811 46.5815 45.9868 36.8943 45.6955 36.0345L22.1772 16.3486L22.1636 16.3418ZM285.831 47.8407C268.646 33.7532 243.359 33.1304 224.244 43.7045C211.313 50.8599 198.301 66.3961 196.898 81.56C195.848 92.9058 204.072 90.0558 210.067 85.0937C218.364 78.2226 224.291 66.7278 230.333 57.9409L232.223 57.3926C232.21 71.9269 232.345 87.2126 243.637 97.8612C247.667 101.666 252.971 104.035 257.367 106.966C261.567 109.424 268.849 110.432 272.642 112.869C278.041 116.335 272.94 123.362 271.355 127.715C259.867 159.241 282.992 188.262 312.654 197.273C332.501 203.297 362.577 201.68 380.29 212.254C380.832 212.579 382.891 214.352 382.268 214.887L373.029 211.638C372.785 211.841 376.097 215.523 376.531 216.018C378.949 218.732 381.882 221.088 384.469 223.843C393.749 233.713 402.298 244.24 409.722 255.613C416.225 246.332 417.369 232.353 413.088 221.846C407.012 206.933 393.56 202.824 381.001 194.7C367.745 186.123 357.449 176.578 347.79 164.332C335.699 149.005 329.48 123.856 322.293 105.626C314.653 86.2513 302.013 61.1091 285.817 47.8407H285.831ZM265.855 141.484C266.214 138.323 266.763 135.175 267.602 132.102C268.422 129.11 273.536 117.649 272.94 115.868C272.331 114.034 261.018 110.588 258.6 109.532C242.96 102.688 232.948 92.5944 231.153 75.0409C230.753 71.1145 231.295 66.457 231.018 62.6864C230.984 62.2531 230.76 61.0482 230.063 61.2039L224.793 70.8437C220.139 76.5031 216.061 83.0087 210.08 87.7948C208.773 88.8441 205.867 89.7918 205.176 91.4707C200.8 110.473 204.024 131.472 221.954 141.789C235.644 149.669 251.569 145.275 265.848 141.484H265.855ZM203.421 91.0713L198.876 91.5587C195.666 101.618 195.3 112.335 195.293 122.861C195.293 138.404 197.955 159.146 204.404 173.45C204.776 174.283 207.316 178.514 207.77 178.798C209.531 179.902 214.354 175.217 215.831 173.809L220.274 144.835L221.873 146.142L217.87 174.764C229.731 177.925 241.598 178.704 253.412 174.953C260.002 172.861 265.679 168.495 272.459 167.094C269.045 162.091 267.189 155.477 266.485 149.445C266.336 148.159 267.033 144.057 265.631 143.773C265.049 143.651 255.925 146.501 254.109 146.866C227.258 152.174 205.962 141.748 202.074 113.336C201.037 105.761 201.565 98.4772 203.421 91.0713ZM91.9668 122.57C91.7703 122.354 87.2455 124.269 86.541 124.581C78.6158 128.067 70.6093 131.784 62.7856 135.507C61.7492 136.001 58.2472 137.517 57.7121 138.045C55.7477 139.988 60.1168 151.483 60.828 154.502C65.1903 173.044 68.6855 193.299 74.6057 211.34C74.9512 212.389 75.4254 213.966 75.9808 214.853C79.9908 221.278 103.347 229.239 111.001 232.549C127.956 239.88 144.903 247.476 161.973 254.401C165.34 255.769 168.943 256.534 172.161 258.355C173.184 258.456 172.94 258.375 172.98 257.549C173.441 246.751 176.855 238.601 182.24 229.421C184.001 226.422 186.216 222.428 188.736 219.653C189.115 219.233 191.628 217.236 192.008 217.615L179.233 239.88C173.563 253.731 175.229 268.935 172.296 283.456C170.257 293.556 166.254 303.156 163.24 312.965C160.896 320.581 159.298 328.467 156.215 335.839C156.094 336.293 156.378 336.53 156.622 336.848C157.807 338.385 168.212 341.695 170.691 342.372C194.995 349.053 221.23 347.524 246.116 345.797C248.433 345.635 251.427 346.156 253.953 345.499L262.095 336.78C264.717 335.893 265.096 333.639 267.982 332.881C272.75 331.629 275.142 333.585 279.328 334.323C289.421 336.103 295.05 334.993 304.038 340.592C306.775 342.297 309.396 344.132 312.153 345.784C313.291 320.31 312.092 294.958 314.212 269.545C302.894 254.503 292.713 236.617 295.314 217.074C296.154 216.931 295.964 218.062 296.045 218.651C296.384 220.993 295.849 223.979 296.106 226.321C299.581 258.043 328.363 282.332 351.326 300.942C351.908 301.416 353.073 302.255 353.771 302.357L354.496 302.269C358.519 297.334 362.448 291.817 366.79 287.125C367.44 286.421 368.158 285.372 369.242 285.507C369.398 286.584 368.958 287.335 368.402 288.195C365.591 292.527 360.091 296.941 357.273 301.545L355.817 302.506L354.577 304.794L335.685 325.421L364.636 352.31L374.329 340.551C388.581 326.572 420.417 303.792 418.711 281.439C417.254 262.376 391.69 234.614 378.502 221.162C368.856 211.319 368.788 209.309 354.15 206.364C330.009 201.51 300.292 202.235 282.274 182.034C278.698 178.02 275.954 173.274 272.859 168.908C270.088 167.249 269.851 169.497 268.07 170.58C255.41 178.284 240.582 180.748 226.059 178.453C222.828 177.939 217.843 175.745 215.208 176.977C213.203 177.912 209.741 181.689 207.946 182.21C204.404 183.239 193.864 183.32 189.569 183.449C170.894 183.991 142.492 184.417 124.487 180.538C121.101 179.807 118.804 178.805 115.702 177.39C112.843 180.701 109.219 184.092 105.582 186.671C106.625 182.555 111.746 178.724 115.329 176.855L115.363 176.111C108.346 163.249 102.114 150.034 96.0581 136.698C94.683 132.027 92.1564 127.532 91.9736 122.584L91.9668 122.57ZM318.913 274.96L315.418 270.838L314.842 317.25C314.734 325.678 315.222 334.384 314.727 342.649C314.653 343.922 314.179 345.608 313.786 346.847C317.701 348.458 319.367 349.385 323.045 346.623C327.34 343.401 332.583 336.929 336.579 333.003C337.223 332.366 338.191 332.116 338.781 331.398C336.796 328.616 333.348 327.506 335.279 323.546C341.016 317.324 346.13 310.392 352.382 304.801L351.657 303.609C340.935 294.558 328.234 285.433 318.913 274.974V274.96ZM345.128 337.281C343.549 335.819 341.558 334.526 340.149 332.759L325.558 347.226C317.769 355.471 309.132 345.703 302.108 341.424C295.449 337.369 292.442 338.371 285.275 337.112C282.328 336.591 279.646 335.541 277.031 334.98C270.725 333.619 269.357 333.104 264.195 337.125C262.238 338.655 258.587 342.392 256.886 344.349C256.541 344.748 255.247 346.508 255.613 346.874L263.775 342.812C267.65 342.115 271.768 338.75 275.501 338.236C279.172 337.728 287.673 339.982 291.378 341.296C292.076 341.539 292.977 341.627 293.126 342.528C288.703 342.771 283.988 340.341 279.754 339.874C271.579 338.98 259.941 347.713 251.962 350.001L251.264 351.213C254.543 351.843 257.374 352.52 260.775 352.296C267.657 351.843 273.34 347.524 280.689 347.74C282.897 347.808 285.356 348.857 286.989 348.905C287.673 348.925 290.911 347.761 291.778 347.463L292.584 348.498C282.132 351.389 271.68 354.659 262.509 360.548L257.245 364.244C258.458 364.143 259.596 364.712 260.781 364.786C268.72 365.314 276.117 359.865 283.453 357.57C287.558 356.283 291.405 356.859 294.907 355.972C295.869 355.728 299.242 353.521 299.649 353.934C299.744 355.139 299.879 355.085 298.992 355.728C296.96 357.204 293.634 358.517 291.324 360.007C285.024 364.075 278.725 368.631 273.557 374.027C280.892 376.159 284.747 369.315 290.559 367.392C294.298 366.154 300.17 366.424 304.031 367.21C308.556 368.137 315.012 373.607 319.482 374.846C321.901 375.516 324.942 375.191 327.218 374.142C331.37 372.226 337.643 366.208 341.395 363.168C346.882 358.72 352.497 354.53 357.246 349.243C357.469 348.221 348.128 340.659 346.652 339.299C345.968 338.669 345.656 337.769 345.134 337.288L345.128 337.281Z" fill="#212121" stroke="#202124" stroke-width="0.8" stroke-miterlimit="10"/>
<path d="M233.321 595.006H230.604C229.575 576.248 228.403 492.366 226.181 473.756C222.815 446.116 204.106 423.214 190.125 400.069C189.129 397.483 190.186 395.987 192.143 398.593C193.715 400.685 195.212 404.212 196.695 406.534C207.242 423.065 223.255 445.507 227.069 464.712C229.053 474.704 229.588 484.777 230.354 495.148L233.327 594.999L233.321 595.006Z" fill="#212121" stroke="#202124" stroke-width="0.8" stroke-miterlimit="10"/>
<path d="M248.839 378.921C248.954 379.002 249.896 381.08 250.309 381.629C254.604 387.363 257.618 392.643 263.68 396.109C274.234 402.134 288.404 401.145 299.683 398.756C304.031 397.835 309.708 395.026 313.853 394.572C315.818 394.356 316.346 395.872 315.059 396.732C314.057 397.402 310.466 398.241 309.078 398.647C288.242 404.686 262.197 407.82 248.731 383.111C248.026 381.825 247.403 380.417 247.573 378.806C247.986 378.84 248.446 378.664 248.839 378.928V378.921Z" fill="#212121" stroke="#202124" stroke-width="0.8" stroke-miterlimit="10"/>
<path d="M309.261 602.101C308.915 602.148 308.665 602.033 308.651 601.41C308.604 599.731 308.821 598.08 308.814 596.414V596.32C308.848 595.23 308.712 594.147 308.76 593.063C308.875 591.161 308.699 589.252 308.942 587.343C309.207 585.224 309.125 583.051 309.315 580.912C309.579 578.346 309.62 575.774 309.776 573.208C309.898 571.035 309.918 568.849 310.128 566.676C310.263 565.166 310.514 563.67 310.704 562.16C310.778 561.612 310.805 561.057 310.88 560.508C310.968 559.845 310.968 559.222 311.34 558.566C311.645 558.017 311.564 557.117 311.665 556.372C311.821 555.343 312.052 554.321 312.14 553.285C312.234 552.229 312.526 551.18 312.431 550.11C312.526 549.508 312.682 548.899 312.709 548.289C312.776 546.915 313.162 545.602 313.44 544.282C314.185 540.552 314.815 536.822 315.405 533.065C315.635 531.629 315.757 530.174 315.953 528.732H315.946C316.123 527.615 316.868 527.094 317.518 526.586C318.229 526.038 318.595 526.417 318.5 527.412C318.311 529.307 318.155 531.216 317.802 533.098C317.498 534.811 317.057 536.503 316.814 538.23C316.685 539.117 316.495 539.997 316.333 540.877C316.272 540.897 316.272 540.931 316.319 540.965C315.946 542.163 315.879 543.422 315.676 544.654C315.567 545.317 315.405 545.967 315.201 546.617C315.066 547.057 315.134 547.721 315.052 548.276C314.808 550.002 314.571 551.728 314.355 553.461L314.185 554.666C313.975 555.14 314.05 555.655 313.996 556.149C313.962 556.447 313.894 556.745 313.86 557.042C313.82 557.415 313.759 557.794 313.772 558.159C313.799 558.965 313.657 559.73 313.447 560.495C313.427 560.576 313.467 560.678 313.481 560.772V561.253C313.481 561.267 313.488 561.28 313.494 561.294H313.44C313.278 561.971 313.312 562.654 313.298 563.331L313.183 563.616V563.629C313.183 563.629 313.19 563.636 313.19 563.643C313.19 563.643 313.183 563.656 313.176 563.663C313.108 564.563 313.169 565.477 312.953 566.371L312.743 567.975H312.749C312.688 568.057 312.621 568.138 312.729 568.233L312.763 568.463L312.858 568.53C312.817 568.896 312.817 569.262 312.634 569.58C312.675 569.654 312.729 569.742 312.621 569.817V569.803V569.823L312.594 571.096C312.648 571.38 312.675 571.624 312.438 571.875C312.262 572.064 312.621 572.369 312.431 572.64C312.431 572.64 312.424 572.694 312.431 572.721C312.35 573.905 312.248 575.097 312.201 576.295C311.754 577.778 311.848 579.328 311.767 580.851C311.666 582.516 311.693 584.182 311.665 585.847V587.837C311.713 587.925 311.733 588.013 311.652 588.101V588.088V588.094C311.611 588.636 311.605 589.259 311.665 589.692C311.781 590.457 311.754 591.202 311.781 591.946C311.842 593.524 311.781 595.115 311.889 596.692C311.916 597.193 311.997 597.694 312.106 598.174C312.194 598.601 312.038 598.743 311.774 598.818C311.259 598.96 310.961 599.21 311.076 600.063C311.137 600.53 311.157 601.376 310.385 601.112C310.196 601.045 310.229 601.282 310.223 601.424C310.189 602.297 309.654 602.047 309.295 602.101H309.261ZM313.284 561.456L313.406 561.328C313.366 561.348 313.325 561.361 313.284 561.382C313.278 561.382 313.284 561.429 313.284 561.456ZM312.871 566.317L312.932 566.371L312.905 566.283L312.871 566.317ZM312.715 568.652L312.743 568.49L312.675 568.639L312.715 568.652ZM312.478 571.347L312.553 571.123L312.431 571.299L312.478 571.34V571.347ZM311.605 587.878L311.625 587.851H311.618C311.618 587.851 311.611 587.864 311.605 587.878Z" fill="#202124"/>
</g>
<defs>
<clipPath id="clip0_75_4">
<rect width="421" height="606" fill="white"/>
</clipPath>
</defs>
</svg>
