<svg width="580" height="307" viewBox="0 0 580 307" fill="none" xmlns="http://www.w3.org/2000/svg">
<g clip-path="url(#clip0_75_49)">
<path d="M226.97 62.9091H226.96L226.951 62.9186L226.97 62.9091Z" fill="#202124"/>
<path d="M118.737 101.823C118.785 102.317 119.25 102.527 120.988 101.966C125.662 100.455 130.135 98.6209 134.78 97.0719C134.875 97.0529 134.96 97.0244 135.055 96.9959C138.066 95.9031 141.172 95.1428 144.164 94.0975C149.455 92.2539 154.821 90.7145 160.102 88.7474C165.972 86.5712 172.079 84.7657 178.044 82.7036C185.206 80.2233 192.415 77.9521 199.643 75.6904C205.76 73.7804 211.906 71.9463 218.013 69.9887C222.259 68.6298 226.457 67.0998 230.674 65.6554C232.213 65.1327 233.78 64.6766 235.319 64.1539C237.18 63.5267 238.947 63.0516 240.771 62.0253C242.29 61.17 244.855 60.6094 246.945 59.8966C249.851 58.9083 252.729 57.8345 255.654 56.9412C258.646 56.029 261.6 54.8221 264.64 54.1854H264.621C266.349 53.6152 268.069 52.95 269.797 52.4749C273.701 51.3916 277.386 49.8711 281.138 48.5502C291.7 44.8346 302.319 41.347 312.995 37.983C317.079 36.6906 321.202 35.5503 325.314 34.3434H325.295C328.487 33.3741 330.045 31.9487 331.583 30.6468C333.264 29.2309 332.229 28.9268 329.361 29.7155C323.918 31.217 318.457 32.7089 313.052 34.4859C308.142 36.0919 303.298 37.869 298.358 39.4369C295.822 40.2447 293.315 41.119 290.788 41.9647H290.807C290.741 42.0787 290.646 42.0882 290.532 42.0597C287.103 43.4472 283.513 44.4355 279.998 45.6043C278.108 46.2315 276.266 46.9252 274.413 47.6949C273.15 48.2176 271.279 48.5977 269.683 49.1109C264.773 50.7074 259.862 52.3133 254.952 53.9193C253.812 54.2899 252.672 54.6796 251.532 55.0597C250.193 55.7249 248.73 55.991 247.315 56.4471C246.47 56.7227 245.634 57.0363 244.779 57.3119C243.725 57.654 242.661 58.0246 241.616 58.2812C239.317 58.8513 237.161 59.6496 235.015 60.5238C234.787 60.6189 234.483 60.6379 234.217 60.6854H234.236C233.77 60.8089 233.305 60.9325 232.84 61.056C232.802 61.0655 232.764 61.056 232.735 61.0655C232.735 61.094 232.726 61.1225 232.716 61.151C230.826 61.8923 228.888 62.3579 226.97 62.9186C226.713 63.0516 226.447 63.1751 226.181 63.3082H226.162C226.172 63.3082 226.181 63.3082 226.2 63.2987C226.191 63.2987 226.172 63.2987 226.162 63.3082C226.143 63.3082 226.134 63.3082 226.115 63.3082C226.105 63.3082 226.086 63.3272 226.067 63.3367C223.512 64.1444 220.9 64.7811 218.402 65.7789C218.402 65.7789 218.402 65.7789 218.393 65.7789C216.883 66.2921 215.382 66.8147 213.872 67.3279H213.881C213.653 67.4704 213.425 67.632 213.131 67.556H213.15C212.931 67.6035 212.703 67.651 212.485 67.689C212.409 67.6605 212.342 67.6415 212.266 67.613C211.241 67.9551 210.186 68.2687 209.322 68.7723H209.341C209.094 68.7818 208.838 68.7723 208.648 68.9909C208.657 68.9909 208.667 68.9909 208.686 68.9909C208.667 68.9909 208.648 68.9909 208.629 68.9909C207.422 69.352 206.226 69.7036 205.019 70.0647C205.019 70.0647 205.019 70.0647 205.01 70.0647C204.193 70.2263 203.509 70.3783 202.844 70.901C202.35 71.3001 201.401 71.0435 200.669 71.5282C200.593 71.5567 200.527 71.5852 200.451 71.6042H200.47C197.098 72.6875 193.716 73.7708 190.345 74.8637H190.326C186.241 76.7262 181.815 77.8951 177.512 79.292C172.811 80.8125 168.09 82.2759 163.379 83.7584C161.498 84.3476 159.618 84.9177 157.737 85.4974C157.471 85.4974 157.215 85.5544 156.996 85.7445H157.034H157.006C155.486 86.2576 153.729 86.8563 152.466 87.1604C150.262 87.7021 148.163 88.4148 146.035 89.061C141.543 90.4294 137.059 91.9023 132.576 93.2898C131.161 93.7269 129.708 94.0975 128.293 94.4206C127.048 94.7057 126.725 95.0478 126.649 95.4659C126.507 96.2737 125.956 96.9104 123.506 97.5661C122.166 97.9272 119.782 98.7064 120.931 99.4571C121.216 99.6472 120.542 99.8277 120.143 99.9703C117.721 100.845 118.718 101.291 118.766 101.814L118.737 101.823ZM232.346 61.4361C232.469 61.3411 232.583 61.2556 232.707 61.1605C232.659 61.2366 232.621 61.3031 232.564 61.3791C232.555 61.3886 232.422 61.4171 232.346 61.4361ZM218.564 65.8169C218.516 65.7979 218.459 65.7884 218.412 65.7694C218.497 65.7599 218.583 65.7504 218.659 65.7409C218.63 65.7694 218.592 65.7979 218.564 65.8169ZM211.944 67.8696L212.399 67.708C212.257 67.784 212.124 67.8506 211.982 67.9266C211.972 67.9076 211.953 67.8886 211.944 67.8791V67.8696ZM204.316 70.3973C204.516 70.3023 204.725 70.2073 204.924 70.1122C204.763 70.2168 204.601 70.3213 204.449 70.4258C204.402 70.4258 204.364 70.4068 204.316 70.3973ZM157.604 85.5924C157.604 85.5924 157.652 85.5544 157.68 85.5354C157.68 85.5354 157.68 85.5449 157.671 85.5544C157.661 85.5639 157.633 85.5829 157.604 85.5924Z" fill="#202124"/>
<path d="M424.742 188.718L424.723 188.689L424.742 188.718Z" fill="#202124"/>
<path d="M436.14 198.439L436.13 198.458L436.12 198.468L436.14 198.439Z" fill="#202124"/>
<path d="M331.232 31.217C330.709 31.2835 330.747 32.0532 332.41 34.9801C336.855 42.8485 341.556 50.3843 346.021 58.1956H346.011L346.277 58.6518V58.6328C349.269 63.6978 351.966 68.9244 354.901 73.9609C360.087 82.8651 364.989 91.8928 370.298 100.788C376.196 110.671 381.829 120.953 387.661 130.988C394.661 143.047 401.471 155.182 408.262 167.327C414.009 177.628 419.755 187.929 425.502 198.23C427.876 202.383 430.26 206.536 432.635 210.688L441.981 196.453C443.643 193.973 445.315 191.474 446.987 188.993C448.981 185.971 450.929 183.235 452.686 179.87C454.148 177.067 457.036 173.209 459.268 169.816C462.374 165.103 465.404 160.323 468.576 155.695C471.825 150.944 474.883 145.945 478.321 141.412L478.302 141.45C480.145 138.657 481.959 135.777 483.849 133.088C488.133 126.996 491.951 120.744 495.941 114.614C507.168 97.357 518.575 80.2328 530.106 63.1751C534.522 56.6467 539.053 50.2132 543.527 43.7323V43.7703C546.975 38.6862 548.209 35.2652 549.492 31.9962C550.888 28.4326 549.473 29.4399 546.319 33.9063C540.335 42.3923 534.332 50.8784 528.52 59.5926C523.248 67.499 518.119 75.4909 512.8 83.3878C510.064 87.4455 507.395 91.5412 504.698 95.6275L504.717 95.6085C504.688 95.808 504.575 95.9411 504.423 96.0456V96.0266C500.87 101.814 496.928 107.402 493.158 113.084C491.135 116.135 489.197 119.195 487.278 122.34C485.977 124.478 483.849 127.263 482.13 129.819L466.287 153.529L462.621 159.059C461.282 161.435 459.61 163.592 458.09 165.844L455.383 169.959C454.253 171.651 453.113 173.39 451.954 174.986C449.409 178.502 447.12 182.066 444.897 185.705C444.66 186.085 444.299 186.494 443.995 186.893L444.023 186.865L442.485 189.031C442.447 189.088 442.399 189.136 442.361 189.183C442.361 189.221 442.361 189.25 442.371 189.288C440.395 192.452 438.229 195.408 436.14 198.439L435.361 199.836L435.332 199.865C435.332 199.865 435.294 199.893 435.275 199.922C435.266 199.941 435.247 199.979 435.228 200.017L434.25 201.452L433.756 202.164L433.556 202.459L433.48 202.563L432.91 203.314C432.73 202.962 432.568 202.649 432.397 202.354C431.79 201.29 431.096 200.102 430.412 199V198.981L426.005 191.378L426.024 191.397C425.72 191.008 425.397 190.628 425.312 190.134V190.162C425.131 189.792 424.951 189.411 424.77 189.041L424.723 188.68C423.735 186.95 422.766 185.183 421.683 183.71V183.748C421.531 183.33 421.399 182.911 421.038 182.569C421.038 182.588 421.047 182.607 421.057 182.626L421.019 182.531L417.685 176.459V176.44C417.01 175.072 416.431 173.912 415.453 172.8C414.712 171.964 414.436 170.377 413.458 169.142C413.382 169.009 413.316 168.885 413.249 168.762V168.79L403.637 151.751V151.713C399.135 144.824 395.212 137.393 391.109 130.151L377.754 106.366L372.473 96.8724C372.302 96.4257 372.093 95.9886 371.761 95.6275L371.78 95.694L371.761 95.6465C370.289 93.0902 368.588 90.1348 367.496 88.0157C365.587 84.3 363.545 80.7745 361.569 77.2014C357.342 69.6561 353.106 62.1013 348.88 54.5465C347.55 52.1613 346.286 49.7191 345.08 47.3433C344.016 45.2432 343.447 44.7015 342.943 44.5685C341.965 44.3024 340.939 43.3806 338.754 39.2469C337.567 36.9947 335.278 32.975 335.126 34.8946C335.088 35.3697 334.49 34.2294 334.1 33.5642C331.697 29.4969 331.792 31.1409 331.241 31.2075L331.232 31.217ZM442.048 190.077L442.361 189.345C442.342 189.478 442.323 189.592 442.285 189.744C442.285 189.772 442.133 189.963 442.048 190.077ZM430.45 199.294L430.412 199.038L430.593 199.456L430.45 199.294ZM424.238 188.157L424.694 188.927L424.21 188.224L424.238 188.157ZM416.915 175.328L417.599 176.354L416.963 175.547L416.915 175.328ZM372.321 96.7203L372.426 96.8533C372.426 96.8533 372.407 96.8438 372.397 96.8343C372.378 96.8153 372.35 96.7678 372.321 96.7298V96.7203Z" fill="#202124"/>
<path d="M432.777 262.66C401.901 262.66 376.871 237.617 376.871 206.726C376.871 175.834 401.901 150.792 432.777 150.792C463.654 150.792 488.684 175.834 488.684 206.726C488.684 237.617 463.654 262.66 432.777 262.66Z" fill="white"/>
<path d="M413.363 257.148L413.334 257.129L413.363 257.148Z" fill="#202124"/>
<path d="M432.73 149.157C432.91 148.682 432.303 148.311 429.32 148.425C421.332 148.882 413.695 151.314 406.686 154.906L406.268 155.106H406.277C401.728 157.529 397.349 160.361 393.588 163.849C390.301 166.956 387.309 170.377 384.745 174.112C382.199 177.856 380.1 181.923 378.59 186.209C376.909 190.97 375.788 195.968 375.266 201.033C374.81 206.098 374.905 211.249 375.817 216.247C377.944 228.25 383.748 239.558 392.448 248.111C399.752 255.399 409.06 260.73 419.147 263.182C426.157 264.902 433.499 265.111 440.604 264.066C441.905 263.923 443.187 263.629 444.489 263.42C445.762 263.116 447.063 262.888 448.317 262.489C451.356 261.624 454.196 260.702 457.007 258.934C459.344 257.49 463.115 255.684 465.983 253.584C469.982 250.724 473.496 247.246 476.678 243.568C479.936 239.758 482.501 235.348 484.875 231.015V231.053C486.11 228.411 487.022 225.589 487.915 222.871C489.947 216.694 490.299 210.194 489.947 203.894C489.358 194.99 486.803 186.228 482.339 178.531C477.942 170.805 471.72 164.153 464.35 159.164C458.717 155.334 452.429 152.445 445.79 150.773H445.828C440.604 149.537 437.394 150.25 434.497 150.887C432.901 151.257 432.473 151.609 432.986 151.894C433.243 152.037 433.737 152.17 434.449 152.274C435.161 152.36 436.083 152.474 437.204 152.616C445.705 153.529 453.844 156.531 461.092 161.007C467.645 165.084 473.487 170.453 477.752 176.972C479.936 180.317 481.817 183.862 483.261 187.596V187.577C483.393 187.682 483.431 187.824 483.412 187.976C484.486 190.523 485.274 193.222 485.835 195.959C486.376 198.705 486.651 201.49 486.813 204.283C486.965 207.277 486.917 210.261 486.727 213.273C486.632 215.345 485.844 218.129 485.227 220.581C483.232 228.126 479.585 235.225 474.627 241.25L472.841 243.312C472.214 243.967 471.606 244.642 470.96 245.288C469.498 246.999 467.702 248.367 465.917 249.698C465.394 250.125 464.853 250.524 464.302 250.914C463.751 251.304 463.229 251.731 462.649 252.083C461.253 253.005 459.79 253.888 458.328 254.601C455.108 256.131 451.935 257.528 448.639 258.716C448.288 258.83 447.842 258.887 447.433 258.963H447.462C446.759 259.144 446.046 259.305 445.334 259.429C445.277 259.438 445.23 259.438 445.173 259.438C445.154 259.467 445.144 259.495 445.125 259.524C442.171 260.322 439.16 260.635 436.14 260.74C435.712 260.826 435.275 260.873 434.839 260.93H434.801C434.801 260.93 434.763 260.921 434.734 260.921C434.715 260.921 434.687 260.921 434.649 260.94C430.583 261.054 426.575 260.54 422.567 259.951H422.557C420.192 259.514 417.856 258.944 415.576 258.184H415.595C415.196 258.127 414.778 258.079 414.474 257.794L414.493 257.813C414.18 257.69 413.876 257.528 413.563 257.376L413.354 257.148C411.824 256.578 410.343 255.865 408.908 255.418L408.937 255.437C408.642 255.219 408.367 254.972 407.959 254.924L407.997 254.953L407.93 254.905C406.258 254.021 404.644 253.014 403.076 251.95H403.057C402.07 251.18 401.272 250.496 400.123 250.03C399.287 249.641 398.612 248.491 397.52 247.816C397.425 247.74 397.34 247.664 397.254 247.578L397.273 247.597C393.236 244.081 389.75 239.948 386.92 235.415V235.386C382.893 229.932 380.547 223.213 379.35 216.485C378.03 209.12 378.296 201.48 380.053 194.229C380.765 191.34 381.705 188.518 382.883 185.791C383.102 185.458 383.301 185.126 383.358 184.717L383.32 184.764L383.339 184.736C384.26 182.503 385.638 180.051 386.72 178.426C388.649 175.604 390.643 172.933 392.913 170.491C397.719 165.331 403.494 161.045 409.896 158.099C410.912 157.653 411.929 157.197 412.983 156.864C414.018 156.484 415.073 156.18 416.118 155.904C417.951 155.42 418.492 155.087 418.682 154.631C418.863 154.194 419.195 153.804 419.964 153.443C420.344 153.262 420.838 153.082 421.475 152.901C422.111 152.73 422.899 152.607 423.859 152.464C424.903 152.322 426.385 152.17 427.43 151.923C428.475 151.713 429.102 151.4 428.389 150.915C428.038 150.678 429.13 150.63 429.785 150.564C433.803 150.374 432.559 149.68 432.73 149.157ZM444.479 259.837L445.078 259.543C444.992 259.619 444.926 259.695 444.812 259.771C444.793 259.79 444.593 259.818 444.479 259.837ZM422.747 260.075L422.567 259.951L422.928 260.065L422.747 260.084V260.075ZM412.746 257.072L413.439 257.328L412.765 257.138V257.072H412.746ZM402.07 251.399C402.355 251.579 402.649 251.741 402.953 251.893C402.687 251.788 402.431 251.674 402.174 251.551L402.07 251.389V251.399ZM382.883 185.61L382.855 185.743C382.855 185.743 382.855 185.724 382.855 185.715C382.855 185.686 382.874 185.648 382.883 185.61Z" fill="#202124"/>
<path d="M332.628 58.3287C317.19 58.3287 304.675 45.8074 304.675 30.3617C304.675 14.916 317.19 2.39473 332.628 2.39473C348.066 2.39473 360.581 14.916 360.581 30.3617C360.581 45.8074 348.066 58.3287 332.628 58.3287Z" fill="white"/>
<path d="M323.272 54.6606L323.253 54.651L323.272 54.6606Z" fill="#202124"/>
<path d="M334.243 56.4281V56.4381H334.233L334.243 56.4281Z" fill="#202124"/>
<path d="M332.6 0.760229C332.695 0.275582 332.381 -0.0570187 330.823 0.00950144C326.654 0.237571 322.731 1.67251 319.112 3.53507L318.894 3.6301C316.586 4.9605 314.201 6.26239 312.311 8.14396C310.583 9.73095 309.101 11.5555 307.724 13.4561C307.116 14.4539 306.451 15.4327 305.938 16.4875C305.454 17.5613 304.912 18.6066 304.599 19.747C303.725 22.2177 303.269 24.812 302.927 27.4158L302.823 29.3829L302.775 30.3712L302.823 31.3595L302.937 33.3266C303.022 33.9728 303.146 34.619 303.25 35.2652C303.858 38.3441 304.798 41.366 306.28 44.1409C307.743 46.9157 309.595 49.472 311.798 51.7147C313.679 53.5962 315.807 55.2307 318.115 56.6086C318.685 56.9507 319.302 57.2263 319.891 57.5399C320.489 57.8535 321.088 58.1481 321.724 58.3667L323.605 59.0794C324.251 59.2695 324.896 59.431 325.552 59.6021C329.19 60.4953 332.989 60.5143 336.655 59.9727L338.669 59.6686C339.324 59.507 339.989 59.3455 340.645 59.1744C341.442 58.9939 342.183 58.7088 342.924 58.4142C343.665 58.1196 344.396 57.768 345.061 57.1883C346.201 56.3141 348.177 55.4873 349.649 54.404L351.131 53.2446C351.615 52.8455 352.052 52.3799 352.508 51.9617C353.448 51.135 354.227 50.1372 355.101 49.2439C356.744 47.2673 358.045 45.0246 359.356 42.839V42.858L359.812 41.8317L360.173 40.7673C360.391 40.0546 360.714 39.3704 360.914 38.6672C362.073 35.5123 362.063 32.1387 361.826 28.9363C361.465 24.3939 360.182 19.918 357.865 16.0219C355.585 12.1162 352.47 8.69513 348.718 6.12936C345.869 4.15276 342.677 2.60379 339.286 1.69151H339.305C338.65 1.48245 338.033 1.44444 337.463 1.44444C336.902 1.44444 336.389 1.50145 335.924 1.57748C334.984 1.76753 334.205 2.18566 333.473 2.50876C331.887 3.24998 332.609 3.90568 334.765 4.15276C338.887 4.69442 342.725 6.33842 346.192 8.45756C349.335 10.3961 352.232 12.8954 354.265 16.0599C355.272 17.6944 356.26 19.3574 356.925 21.1629C357.029 21.1914 357.039 21.2579 356.991 21.3435C357.627 22.5313 357.931 23.8617 358.254 25.1636C358.444 26.5035 358.663 27.8339 358.682 29.1928L358.758 30.2762C358.767 30.6373 358.758 30.9984 358.758 31.3595C358.739 32.0817 358.843 32.8229 358.777 33.5547C358.748 34.0583 358.634 34.6475 358.501 35.2557C358.387 35.8734 358.102 36.4815 357.979 37.0802C357.02 40.7293 355.272 44.1694 352.878 47.1058C352.28 47.752 351.71 48.4267 351.112 49.0634C350.779 49.51 350.38 49.8711 349.962 50.2227C349.753 50.3938 349.544 50.5648 349.326 50.7359C349.098 50.8879 348.87 51.04 348.652 51.192C348.12 51.5721 347.645 52.0283 347.084 52.3799C346.391 52.7885 345.698 53.2636 344.976 53.5772C344.159 53.8718 343.399 54.2424 342.63 54.594C341.841 54.8981 341.081 55.2687 340.293 55.6108C340.122 55.6679 339.894 55.6489 339.695 55.6679H339.714L338.669 55.8579C338.64 55.8579 338.612 55.8579 338.593 55.8579L338.574 55.9339C337.881 56.2095 337.14 56.257 336.408 56.3521L335.316 56.4566H334.214L333.587 56.6086H333.568C333.568 56.6086 333.549 56.5991 333.54 56.5991C333.54 56.5991 333.511 56.5991 333.502 56.6182C331.526 56.6847 329.608 56.2855 327.651 56.124C327.072 56.048 326.521 55.8674 325.951 55.7534C325.39 55.6108 324.811 55.5158 324.27 55.2972H324.279C324.07 55.2972 323.861 55.3068 323.738 55.0882L323.301 54.8506L323.225 54.6796C322.474 54.442 321.791 54.0429 321.04 53.9288V53.9478C320.917 53.8148 320.803 53.6628 320.575 53.7103L320.594 53.7293L320.565 53.7008C319.748 53.2826 319.017 52.7125 318.248 52.2278C317.792 51.8287 317.45 51.4391 316.804 51.3441C316.32 51.249 316.149 50.5078 315.56 50.2607C315.56 50.2607 315.474 50.1847 315.436 50.1467C313.451 48.4837 311.827 46.4311 310.45 44.2549V44.2359C308.275 41.7271 307.239 38.3821 306.669 35.1321C306.033 31.5591 306.194 27.8434 307.078 24.3464C307.287 23.6527 307.429 22.9495 307.686 22.2843L308.474 20.2791C308.607 20.1271 308.73 19.9846 308.712 19.766L308.692 19.785H308.712C308.958 19.2433 309.234 18.6732 309.49 18.1315C309.766 17.5993 310.117 17.1337 310.393 16.7536C310.64 16.421 310.877 16.0884 311.115 15.7653L311.884 14.8245L312.625 13.8742L313.451 12.9999C315.797 10.5577 318.561 8.49557 321.648 7.11765C322.598 6.6235 323.671 6.42394 324.669 6.17687C325.552 5.98681 325.789 5.75874 325.827 5.34062C325.865 4.951 325.989 4.6279 326.34 4.35232C326.511 4.20977 326.749 4.08624 327.053 3.9722C327.357 3.86767 327.755 3.82966 328.23 3.78214C328.753 3.74413 329.475 3.6301 329.978 3.45905C330.481 3.307 330.785 3.02191 330.415 2.49926C330.225 2.24268 330.776 2.25218 331.108 2.22367C333.122 2.04312 332.505 1.3399 332.59 0.826749L332.6 0.760229ZM338.308 56.1525L338.574 55.9244C338.536 55.991 338.507 56.0575 338.469 56.1145C338.469 56.124 338.365 56.1335 338.308 56.143V56.1525ZM327.765 56.2095L327.689 56.105L327.86 56.181L327.765 56.2095ZM322.94 54.7081L323.282 54.8126L322.94 54.7651V54.6986V54.7081ZM317.763 51.9807C317.906 52.0568 318.058 52.1328 318.21 52.1898C318.067 52.1613 317.925 52.1328 317.792 52.0948L317.763 51.9902V51.9807ZM308.484 20.1366V20.2031V20.1841C308.484 20.1746 308.484 20.1461 308.484 20.1271V20.1366Z" fill="#202124"/>
<path d="M550.66 58.3287C535.222 58.3287 522.707 45.8074 522.707 30.3617C522.707 14.916 535.222 2.39473 550.66 2.39473C566.098 2.39473 578.613 14.916 578.613 30.3617C578.613 45.8074 566.098 58.3287 550.66 58.3287Z" fill="white"/>
<path d="M541.304 54.6606L541.285 54.6511L541.304 54.6606Z" fill="#202124"/>
<path d="M552.275 56.4281V56.4381H552.265L552.275 56.4281Z" fill="#202124"/>
<path d="M550.632 0.76029C550.727 0.275643 550.413 -0.0569577 548.855 0.00956247C544.686 0.237632 540.763 1.67257 537.144 3.53513L536.926 3.63016C534.618 4.96056 532.233 6.26246 530.343 8.14403C528.615 9.73101 527.133 11.5556 525.756 13.4561C525.148 14.4539 524.483 15.4327 523.97 16.4876C523.486 17.5614 522.944 18.6067 522.631 19.747C521.757 22.2178 521.301 24.8121 520.959 27.4159L520.855 29.383L520.807 30.3713L520.855 31.3596L520.969 33.3267C521.054 33.9728 521.178 34.619 521.282 35.2652C521.89 38.3442 522.83 41.3661 524.312 44.1409C525.775 46.9158 527.627 49.472 529.83 51.7147C531.711 53.5963 533.839 55.2308 536.147 56.6087C536.717 56.9508 537.334 57.2264 537.923 57.54C538.521 57.8536 539.12 58.1482 539.756 58.3667L541.637 59.0795C542.283 59.2695 542.928 59.4311 543.584 59.6021C547.222 60.4954 551.021 60.5144 554.687 59.9727L556.701 59.6686C557.356 59.5071 558.021 59.3455 558.677 59.1745C559.474 58.9939 560.215 58.7088 560.956 58.4143C561.697 58.1197 562.428 57.7681 563.093 57.1884C564.233 56.3141 566.209 55.4874 567.681 54.404L569.163 53.2447C569.647 52.8456 570.084 52.3799 570.54 51.9618C571.48 51.135 572.259 50.1372 573.133 49.244C574.776 47.2674 576.077 45.0247 577.388 42.839V42.858L577.844 41.8317L578.205 40.7674C578.423 40.0547 578.746 39.3705 578.946 38.6673C580.114 35.4933 580.114 32.1198 579.877 28.9078C579.516 24.3654 578.233 19.8896 575.916 15.9934C573.636 12.0877 570.521 8.66669 566.769 6.10091C563.92 4.12431 560.728 2.57534 557.337 1.66306H557.356C556.701 1.454 556.084 1.41599 555.514 1.41599C554.953 1.41599 554.44 1.47301 553.975 1.54903C553.035 1.73909 552.256 2.15721 551.524 2.48031C549.938 3.22154 550.66 3.87723 552.816 4.12431C556.938 4.66597 560.776 6.30997 564.242 8.42911C567.386 10.3677 570.283 12.867 572.316 16.0314C573.323 17.6659 574.311 19.3289 574.975 21.1345C575.08 21.163 575.089 21.2295 575.042 21.315C575.678 22.5029 575.982 23.8333 576.305 25.1352C576.495 26.4751 576.714 27.8055 576.733 29.1644L576.809 30.2477C576.818 30.6088 576.809 30.9699 576.809 31.3311C576.79 32.0533 576.894 32.7945 576.828 33.5262C576.799 34.0299 576.685 34.619 576.552 35.2272C576.438 35.8449 576.153 36.4531 576.03 37.0518C575.07 40.7009 573.323 44.1409 570.929 47.0773C570.331 47.7235 569.761 48.3982 569.163 49.0349C568.83 49.4815 568.431 49.8427 568.013 50.1943C567.804 50.3653 567.595 50.5364 567.377 50.7074C567.149 50.8595 566.921 51.0115 566.703 51.1636C566.171 51.5437 565.696 51.9998 565.135 52.3514C564.442 52.76 563.749 53.2352 563.027 53.5488C562.21 53.8434 561.45 54.214 560.681 54.5656C559.892 54.8697 559.132 55.2403 558.344 55.5824C558.173 55.6394 557.945 55.6204 557.746 55.6394H557.765L556.72 55.8295C556.691 55.8295 556.663 55.8295 556.644 55.8295L556.625 55.9055C555.932 56.1811 555.191 56.2286 554.459 56.3236L553.367 56.4282H552.265L551.638 56.5802H551.619C551.619 56.5802 551.6 56.5707 551.591 56.5707C551.591 56.5707 551.562 56.5707 551.553 56.5897C549.577 56.6562 547.659 56.2571 545.702 56.0956C545.123 56.0195 544.572 55.839 544.002 55.7249C543.441 55.5824 542.862 55.4874 542.321 55.2688H542.33C542.121 55.2688 541.912 55.2783 541.789 55.0597L541.352 54.8222L541.276 54.6511C540.525 54.4135 539.842 54.0144 539.091 53.9004V53.9194C538.968 53.7864 538.854 53.6343 538.626 53.6818L538.645 53.7008L538.616 53.6723C537.799 53.2542 537.068 52.684 536.299 52.1994C535.843 51.8003 535.501 51.4106 534.855 51.3156C534.371 51.2206 534.2 50.4794 533.611 50.2323C533.611 50.2323 533.525 50.1563 533.487 50.1182C531.502 48.4552 529.878 46.4026 528.501 44.2265V44.2075C526.326 41.6987 525.29 38.3537 524.72 35.1037C524.084 31.5306 524.245 27.815 525.129 24.3179C525.338 23.6242 525.48 22.921 525.737 22.2558L526.525 20.2507C526.658 20.0986 526.781 19.9561 526.762 19.7375L526.743 19.7565H526.762C527.009 19.2149 527.285 18.6447 527.541 18.103C527.817 17.5709 528.168 17.1052 528.444 16.7251C528.691 16.3925 528.928 16.0599 529.166 15.7368L529.935 14.796L530.676 13.8458L531.502 12.9715C533.848 10.5292 536.612 8.46712 539.699 7.08921C540.649 6.59506 541.722 6.3955 542.719 6.14842C543.603 5.95836 543.84 5.7303 543.878 5.31217C543.916 4.92255 544.04 4.59945 544.391 4.32387C544.562 4.18133 544.8 4.05779 545.104 3.94375C545.407 3.83922 545.806 3.80121 546.281 3.7537C546.804 3.71569 547.526 3.60165 548.029 3.4306C548.532 3.27855 548.836 2.99347 548.466 2.47081C548.276 2.21423 548.827 2.22373 549.159 2.19522C551.173 2.01467 550.556 1.31146 550.641 0.798301L550.632 0.76029ZM556.34 56.1526L556.606 55.9245C556.568 55.991 556.539 56.0575 556.501 56.1146C556.501 56.1241 556.397 56.1336 556.34 56.1431V56.1526ZM545.797 56.2096L545.721 56.1051L545.892 56.1811L545.797 56.2096ZM540.972 54.7081L541.314 54.8127L540.972 54.7651V54.6986V54.7081ZM535.795 51.9808C535.938 52.0568 536.09 52.1328 536.242 52.1899C536.099 52.1614 535.957 52.1329 535.824 52.0948L535.795 51.9903V51.9808ZM526.516 20.1367V20.2032V20.1842C526.516 20.1747 526.516 20.1462 526.516 20.1272V20.1367Z" fill="#202124"/>
<path d="M126.24 118.282L126.26 118.321L126.24 118.282Z" fill="#54A7ED"/>
<path d="M114.833 108.561L114.843 108.542L114.862 108.532L114.833 108.561Z" fill="#54A7ED"/>
<path d="M219.741 275.783C220.264 275.717 220.226 274.947 218.564 272.02C214.119 264.152 209.417 256.616 204.953 248.804H204.962L204.696 248.348V248.367C201.704 243.302 199.007 238.076 196.072 233.039C190.886 224.135 185.985 215.107 180.675 206.212C174.777 196.329 169.144 186.047 163.312 176.012C156.312 163.953 149.502 151.818 142.711 139.673C136.964 129.372 131.218 119.071 125.472 108.77C123.097 104.617 120.713 100.464 118.338 96.3117L108.992 110.547C107.33 113.027 105.658 115.526 103.987 118.007C101.992 121.029 100.045 123.765 98.2876 127.13C96.8249 129.933 93.9374 133.791 91.7053 137.184C88.5994 141.897 85.5695 146.677 82.3971 151.305C79.1487 156.056 76.0902 161.055 72.6519 165.588L72.6709 165.55C70.8282 168.344 69.0141 171.223 67.124 173.912C62.8402 180.004 59.0219 186.256 55.0327 192.386C43.8058 209.643 32.3984 226.767 20.8676 243.825C16.4509 250.353 11.9202 256.787 7.44655 263.268V263.23C3.99869 268.314 2.76389 271.735 1.48163 275.004C0.0853935 278.567 1.50066 277.56 4.65407 273.094C10.638 264.608 16.6408 256.122 22.4537 247.407C27.7253 239.501 32.8543 231.509 38.1733 223.612C40.9088 219.555 43.5778 215.459 46.2753 211.373L46.2563 211.392C46.2848 211.192 46.3988 211.059 46.5508 210.954V210.973C50.1031 205.186 54.0448 199.598 57.8156 193.916C59.8388 190.865 61.7764 187.805 63.695 184.66C64.9963 182.522 67.1239 179.737 68.8431 177.181L84.6862 153.471L88.3525 147.941C89.6917 145.565 91.3634 143.408 92.8831 141.156L95.5901 137.041C96.7204 135.35 97.8602 133.61 99.019 132.014C101.564 128.498 103.854 124.934 106.076 121.295C106.314 120.915 106.675 120.506 106.978 120.107L106.95 120.135L108.489 117.969C108.527 117.912 108.574 117.864 108.612 117.817C108.612 117.779 108.612 117.75 108.603 117.712C110.578 114.548 112.744 111.592 114.834 108.561L115.612 107.164L115.641 107.135C115.641 107.135 115.679 107.107 115.698 107.078C115.707 107.059 115.726 107.021 115.745 106.983L116.724 105.548L117.218 104.836L117.417 104.541L117.493 104.437L118.063 103.686C118.243 104.038 118.405 104.351 118.576 104.646C119.184 105.71 119.877 106.898 120.561 108V108.019L124.968 115.622L124.949 115.603C125.253 115.992 125.576 116.372 125.662 116.866V116.838C125.842 117.209 126.022 117.589 126.203 117.959L126.25 118.32C127.238 120.05 128.207 121.817 129.29 123.29V123.252C129.442 123.67 129.575 124.089 129.936 124.431C129.936 124.412 129.926 124.393 129.917 124.374L129.955 124.469L133.289 130.541V130.56C133.963 131.928 134.542 133.088 135.521 134.2C136.262 135.036 136.537 136.623 137.515 137.858C137.591 137.991 137.658 138.115 137.724 138.238V138.21L147.336 155.249V155.287C151.839 162.176 155.761 169.607 159.865 176.849L173.219 200.634L178.5 210.128C178.671 210.574 178.88 211.002 179.213 211.373L179.194 211.306L179.213 211.354C180.685 213.91 182.385 216.865 183.477 218.984C185.386 222.7 187.429 226.226 189.404 229.799C193.631 237.344 197.867 244.899 202.094 252.453C203.424 254.839 204.687 257.281 205.893 259.657C206.957 261.757 207.527 262.298 208.03 262.431C209.008 262.698 210.034 263.619 212.219 267.753C213.406 270.005 215.695 274.025 215.847 272.105C215.885 271.63 216.484 272.771 216.873 273.436C219.276 277.503 219.181 275.859 219.732 275.793L219.741 275.783ZM108.935 116.923L108.622 117.655C108.641 117.522 108.66 117.408 108.698 117.256C108.698 117.228 108.85 117.037 108.935 116.923ZM120.532 107.706L120.57 107.962L120.39 107.544L120.532 107.706ZM126.735 118.843L126.279 118.073L126.763 118.776L126.735 118.843ZM134.058 131.672L133.374 130.636L134.01 131.444L134.058 131.662V131.672ZM178.662 210.28L178.557 210.147C178.557 210.147 178.576 210.156 178.586 210.166C178.605 210.185 178.633 210.232 178.662 210.27V210.28Z" fill="#54A7ED"/>
<path d="M118.205 156.208C87.3291 156.208 62.2989 131.166 62.2989 100.274C62.2989 69.3829 87.3291 44.3404 118.205 44.3404C149.082 44.3404 174.112 69.3829 174.112 100.274C174.112 131.166 149.082 156.208 118.205 156.208Z" fill="#CAE6FF"/>
<path d="M137.619 49.8616L137.648 49.8713L137.619 49.8616Z" fill="#54A7ED"/>
<path d="M114.842 46.2697L114.862 46.26H114.881L114.842 46.2697Z" fill="#54A7ED"/>
<path d="M118.253 157.843C118.072 158.318 118.68 158.689 121.663 158.565C129.651 158.109 137.287 155.676 144.297 152.084L144.715 151.885H144.706C149.255 149.461 153.634 146.629 157.395 143.142C160.682 140.034 163.674 136.613 166.238 132.879C168.784 129.135 170.883 125.067 172.393 120.782C174.074 116.021 175.195 111.022 175.717 105.957C176.173 100.892 176.078 95.7415 175.166 90.743C173.039 78.7408 167.235 67.4324 158.535 58.8798C151.231 51.5911 141.923 46.2695 131.835 43.8083C124.826 42.0882 117.484 41.8792 110.379 42.9245C109.078 43.067 107.795 43.3616 106.494 43.5707C105.221 43.8748 103.92 44.1029 102.666 44.502C99.627 45.3667 96.787 46.2885 93.9755 48.056C91.6389 49.5005 87.8681 51.306 84.9996 53.4062C81.0009 56.2665 77.4866 59.7446 74.3047 63.4222C71.0468 67.2329 68.4823 71.6422 66.1077 75.9755V75.9375C64.8729 78.5793 63.9611 81.4016 63.0683 84.1195C61.0356 90.2963 60.6842 96.7963 61.0356 103.097C61.6245 112.001 64.1796 120.763 68.6437 128.46C73.0414 136.186 79.2627 142.838 86.6334 147.827C92.2658 151.656 98.5536 154.545 105.193 156.218H105.155C110.379 157.453 113.589 156.74 116.486 156.104C118.082 155.733 118.509 155.382 117.997 155.096C117.74 154.954 117.246 154.821 116.534 154.716C115.821 154.631 114.9 154.517 113.779 154.374C105.278 153.462 97.1384 150.459 89.8913 145.983C83.3375 141.906 77.4961 136.537 73.2314 130.018C71.0468 126.673 69.1661 123.129 67.7224 119.394V119.413C67.5894 119.309 67.5514 119.166 67.5704 119.014C66.4971 116.467 65.7088 113.768 65.1484 111.032C64.607 108.285 64.3315 105.501 64.17 102.707C64.0181 99.7137 64.0656 96.7298 64.2555 93.7174C64.3505 91.6458 65.1389 88.8614 65.7563 86.4097C67.7509 78.8644 71.3982 71.7657 76.3563 65.7409L78.142 63.6788C78.7688 63.0231 79.3767 62.3484 80.0226 61.7022C81.4853 59.9917 83.2805 58.6233 85.0661 57.2928C85.5885 56.8652 86.13 56.4661 86.6809 56.0765C87.2317 55.6869 87.7541 55.2592 88.3335 54.9076C89.7298 53.9858 91.1925 53.1021 92.6552 52.3894C95.8751 50.8594 99.0475 49.4625 102.343 48.2746C102.695 48.1606 103.141 48.1036 103.55 48.0275H103.521C104.224 47.847 104.936 47.6854 105.649 47.5619C105.706 47.5524 105.753 47.5524 105.81 47.5524C105.829 47.5239 105.839 47.4954 105.858 47.4669C108.812 46.6686 111.823 46.355 114.843 46.2505C115.271 46.165 115.707 46.1175 116.144 46.0604H116.182C116.182 46.0604 116.22 46.0699 116.249 46.0699C116.268 46.0699 116.296 46.0699 116.334 46.0509C120.4 45.9369 124.408 46.4501 128.416 47.0392H128.426C130.791 47.4764 133.127 48.0465 135.407 48.8068H135.388C135.787 48.8638 136.205 48.9113 136.509 49.1964L136.49 49.1774C136.803 49.3009 137.107 49.4625 137.42 49.6145L137.629 49.8426C139.159 50.4128 140.64 51.1255 142.075 51.5721L142.046 51.5531C142.34 51.7812 142.616 52.0187 143.024 52.0663L142.986 52.0378L143.053 52.0853C144.725 52.969 146.339 53.9763 147.906 55.0407H147.925C148.913 55.8104 149.711 56.4946 150.86 56.9602C151.696 57.3499 152.371 58.4997 153.463 59.1744C153.558 59.2504 153.643 59.3265 153.729 59.412L153.71 59.393C157.747 62.909 161.232 67.0428 164.063 71.5757V71.6042C168.09 77.0588 170.436 83.7774 171.633 90.5054C172.953 97.8701 172.687 105.51 170.93 112.761C170.218 115.65 169.277 118.472 168.1 121.2C167.881 121.532 167.682 121.865 167.625 122.274L167.663 122.236L167.644 122.264C166.722 124.497 165.345 126.949 164.262 128.574C162.334 131.396 160.34 134.067 158.07 136.509C153.263 141.669 147.489 145.955 141.087 148.901C140.07 149.347 139.054 149.803 138 150.136C136.964 150.516 135.91 150.82 134.865 151.096C133.032 151.58 132.491 151.913 132.301 152.369C132.12 152.806 131.788 153.196 131.019 153.557C130.639 153.738 130.145 153.918 129.508 154.099C128.872 154.27 128.084 154.393 127.124 154.536C126.08 154.678 124.598 154.83 123.553 155.077C122.508 155.287 121.881 155.6 122.594 156.085C122.945 156.322 121.853 156.37 121.197 156.436C117.18 156.626 118.424 157.32 118.253 157.843ZM106.494 47.1628L105.896 47.4574C105.981 47.3813 106.048 47.3053 106.162 47.2293C106.181 47.2103 106.38 47.1818 106.494 47.1628ZM128.226 46.9252L128.407 47.0487L128.046 46.9347L128.226 46.9157V46.9252ZM138.237 49.9281L137.544 49.6715L138.218 49.8616V49.9281H138.237ZM148.913 55.6013C148.628 55.4208 148.334 55.2592 148.03 55.1072C148.296 55.2117 148.552 55.3257 148.809 55.4493L148.913 55.6108V55.6013ZM168.09 121.39L168.119 121.257C168.119 121.257 168.119 121.276 168.119 121.285C168.119 121.314 168.1 121.352 168.09 121.39Z" fill="#54A7ED"/>
<path d="M218.355 304.615C202.917 304.615 190.402 292.094 190.402 276.648C190.402 261.202 202.917 248.681 218.355 248.681C233.793 248.681 246.308 261.202 246.308 276.648C246.308 292.094 233.793 304.615 218.355 304.615Z" fill="#CAE6FF"/>
<path d="M218.374 306.24C218.279 306.724 218.592 307.057 220.15 306.99C224.32 306.762 228.242 305.327 231.861 303.465L232.08 303.37C234.388 302.039 236.772 300.738 238.662 298.856C240.391 297.26 241.872 295.444 243.25 293.544C243.858 292.546 244.522 291.567 245.035 290.512C245.52 289.439 246.061 288.393 246.375 287.253C247.248 284.782 247.704 282.188 248.046 279.584L248.151 277.617L248.198 276.629L248.151 275.64L248.037 273.673C247.951 273.027 247.828 272.381 247.723 271.735C247.115 268.656 246.175 265.634 244.693 262.859C243.231 260.084 241.379 257.528 239.175 255.285C237.294 253.404 235.167 251.769 232.859 250.391C232.289 250.049 231.671 249.774 231.082 249.46C230.484 249.146 229.886 248.852 229.249 248.633L227.369 247.921C226.723 247.731 226.077 247.569 225.421 247.398C221.784 246.505 217.984 246.486 214.318 247.027L212.304 247.331C211.649 247.493 210.984 247.654 210.329 247.826C209.531 248.006 208.79 248.291 208.049 248.586C207.308 248.88 206.577 249.232 205.912 249.812C204.772 250.686 202.797 251.513 201.324 252.596L199.843 253.755C199.358 254.154 198.921 254.62 198.465 255.038C197.525 255.865 196.746 256.863 195.872 257.756C194.229 259.733 192.928 261.975 191.617 264.161V264.142L191.161 265.168L190.8 266.233C190.582 266.945 190.259 267.63 190.06 268.333C188.901 271.488 188.91 274.861 189.148 278.064C189.509 282.606 190.791 287.082 193.109 290.978C195.388 294.884 198.503 298.305 202.255 300.871C205.105 302.847 208.296 304.396 211.687 305.308H211.668C212.323 305.518 212.941 305.556 213.511 305.556C214.071 305.556 214.584 305.499 215.049 305.422C215.99 305.232 216.769 304.814 217.5 304.491C219.086 303.75 218.364 303.094 216.208 302.847C212.086 302.306 208.249 300.662 204.782 298.542C201.638 296.604 198.741 294.105 196.708 290.94C195.701 289.306 194.714 287.643 194.049 285.837C193.944 285.809 193.935 285.742 193.982 285.657C193.346 284.469 193.042 283.138 192.719 281.836C192.529 280.496 192.311 279.166 192.292 277.807L192.216 276.724C192.206 276.363 192.216 276.002 192.216 275.64C192.235 274.918 192.13 274.177 192.197 273.445C192.225 272.942 192.339 272.352 192.472 271.744C192.586 271.127 192.871 270.518 192.994 269.92C193.954 266.271 195.702 262.831 198.095 259.894C198.693 259.248 199.263 258.573 199.862 257.937C200.194 257.49 200.593 257.129 201.011 256.777C201.22 256.606 201.429 256.435 201.647 256.264C201.875 256.112 202.103 255.96 202.322 255.808C202.854 255.428 203.329 254.972 203.889 254.62C204.582 254.211 205.276 253.736 205.998 253.423C206.814 253.128 207.574 252.758 208.344 252.406C209.132 252.102 209.892 251.731 210.68 251.389C210.851 251.332 211.079 251.351 211.279 251.332H211.26L212.304 251.142C212.333 251.142 212.361 251.142 212.38 251.142L212.399 251.066C213.093 250.79 213.834 250.743 214.565 250.648L215.657 250.543H216.759L217.386 250.391H217.405C217.405 250.391 217.424 250.401 217.433 250.401C217.433 250.401 217.462 250.401 217.471 250.382C219.447 250.315 221.366 250.714 223.322 250.876C223.902 250.952 224.453 251.133 225.023 251.247C225.583 251.389 226.162 251.484 226.704 251.703H226.694C226.903 251.703 227.112 251.693 227.236 251.912L227.673 252.149L227.749 252.32C228.499 252.558 229.183 252.957 229.933 253.071V253.052C230.057 253.185 230.171 253.337 230.399 253.29L230.38 253.271L230.408 253.299C231.225 253.717 231.956 254.288 232.726 254.772C233.182 255.171 233.523 255.561 234.169 255.656C234.654 255.751 234.825 256.492 235.414 256.739C235.414 256.739 235.499 256.815 235.537 256.853C237.522 258.516 239.146 260.569 240.524 262.745V262.764C242.699 265.273 243.734 268.618 244.304 271.868C244.94 275.441 244.779 279.157 243.896 282.654C243.687 283.347 243.544 284.05 243.288 284.716L242.499 286.721C242.366 286.873 242.243 287.015 242.262 287.234L242.281 287.215H242.262C242.015 287.757 241.739 288.327 241.483 288.868C241.208 289.401 240.856 289.866 240.581 290.246C240.334 290.579 240.096 290.912 239.859 291.244L239.089 292.185L238.349 293.135L237.522 294.01C235.176 296.452 232.412 298.514 229.325 299.892C228.375 300.386 227.302 300.586 226.305 300.833C225.421 301.023 225.184 301.251 225.146 301.669C225.108 302.058 224.985 302.382 224.633 302.657C224.462 302.8 224.225 302.923 223.921 303.037C223.617 303.142 223.218 303.18 222.743 303.227C222.221 303.265 221.499 303.379 220.995 303.55C220.492 303.702 220.188 303.988 220.558 304.51C220.748 304.767 220.197 304.757 219.865 304.786C217.851 304.966 218.469 305.67 218.383 306.183L218.374 306.24ZM212.665 250.857L212.399 251.085C212.437 251.019 212.466 250.952 212.504 250.895C212.504 250.885 212.608 250.876 212.665 250.866V250.857ZM223.208 250.79L223.284 250.895L223.113 250.819L223.208 250.79ZM228.043 252.292L227.701 252.187L228.043 252.235V252.301V252.292ZM233.22 255.019C233.077 254.943 232.925 254.867 232.773 254.81C232.916 254.839 233.058 254.867 233.191 254.905L233.22 255.01V255.019ZM242.49 286.863V286.797V286.816C242.49 286.825 242.49 286.854 242.49 286.873V286.863Z" fill="#54A7ED"/>
</g>
<defs>
<clipPath id="clip0_75_49">
<rect width="580" height="307" fill="white" transform="matrix(-1 0 0 1 580 0)"/>
</clipPath>
</defs>
</svg>
