<svg width="1202" height="700" viewBox="0 0 1202 700" fill="none" xmlns="http://www.w3.org/2000/svg">
<g clip-path="url(#clip0_75_22)">
<path d="M1165.35 653.564H2.19827V697.311H1196.76L1165.35 653.564Z" fill="#C4DEFD"/>
<path d="M1167.02 652.789C1166.75 651.513 1169.44 654.61 1181.06 670.786C1188.09 680.59 1195.08 690.353 1201.99 699.99C1157.22 699.864 1112.98 699.728 1068.24 699.602H1068.32H1065.16H1065.25C1030.44 699.623 995.667 699.644 961.185 699.676C900.231 699.55 839.454 699.77 778.143 699.519C710.081 699.247 640.7 699.445 572.051 699.32C489.564 699.173 407.244 699.247 324.882 699.351C255.072 699.456 185.314 699.55 115.503 699.655C77.023 699.602 38.522 699.55 0 699.498L0.0523396 664.906C0.0523396 660.417 0.0523396 655.918 0.0523396 651.419C14.6865 651.419 29.3625 651.408 43.9967 651.398C65.3931 651.419 85.3031 651.314 107.6 651.764C126.191 652.141 154.643 651.858 178.719 651.889C212.101 651.931 245.598 651.973 278.803 652.015C312.886 651.952 347.493 652.203 381.106 651.827H380.854C400.66 651.837 420.769 651.942 440.218 651.858C484.257 651.659 527.562 651.994 570.826 652.099C692.662 652.381 814.394 652.413 936.219 652.287C982.875 652.161 1029.43 652.025 1076.02 651.9H1075.8C1112.16 651.837 1133.07 652.789 1153.36 653.626C1175.47 654.537 1165.89 655.206 1133.51 655.363C1072.09 655.656 1010.58 655.949 948.634 655.939C892.401 655.886 836.251 655.824 779.902 655.771C750.979 655.75 722.004 655.729 693.05 655.708H693.207C692.139 655.614 691.103 655.625 690.077 655.708H690.181C650.006 655.426 609.526 655.614 569.172 655.593C547.535 655.583 526.055 655.478 504.334 655.311C489.553 655.196 468.837 655.436 450.602 655.447H281.88L242.625 655.416C226.536 655.185 210.458 655.395 194.368 655.405C184.654 655.395 174.929 655.374 165.215 655.363C153.188 655.363 140.867 655.342 129.185 655.426C103.507 655.604 78.4571 655.52 53.2503 655.332C50.6019 655.311 47.3883 655.395 44.4363 655.426H44.6457C39.4117 655.447 34.1673 655.478 28.9333 655.51C28.5251 655.51 28.1587 655.531 27.7819 655.531C27.6353 655.51 27.4783 655.478 27.2899 655.447C19.4913 655.436 11.7555 655.426 4.04062 655.405C4.09296 668.285 4.13483 681.093 4.18717 693.942V694.643L4.16623 694.873L4.1453 695.365L4.56401 695.386H4.78384L5.22349 695.407L8.24872 695.448C8.322 695.448 8.41621 695.448 8.48948 695.448H8.0917H8.51042C8.65697 695.448 8.79305 695.438 8.98148 695.427C9.08616 695.427 9.34785 695.428 9.56768 695.448C38.7732 695.428 67.8635 695.197 97.1842 695.386H97.2889L149.273 695.459H149.116C152.005 695.532 154.904 695.626 157.678 695.448H157.521C159.971 695.428 162.42 695.396 164.891 695.365L166.88 695.218C178.666 695.218 190.6 695.197 201.319 695.427H201.089C203.695 695.354 206.291 695.26 209.055 695.427C208.95 695.427 208.825 695.428 208.688 695.438H209.306C222.967 695.386 236.638 695.354 250.319 695.312H250.445C259.416 695.197 267.079 695.124 275.673 695.459C282.152 695.71 291.102 695.114 300.304 695.375H300.367H302.889H302.722L418.507 695.333H418.717C467.257 695.877 517 695.595 566.241 695.584C620.036 695.532 673.831 695.49 727.615 695.438C749.043 695.407 770.449 695.365 791.877 695.333H791.898C794.693 695.25 797.509 695.218 800.377 695.333L800 695.344H800.283C817.712 695.354 837.915 695.375 852.016 695.271C876.699 695.082 900.827 695.114 924.956 695.061C976.092 695.009 1027.4 694.946 1078.58 694.894C1094.74 694.873 1110.99 694.758 1126.76 694.611C1140.65 694.486 1145.12 694.737 1147.29 695.145C1151.52 695.94 1159.28 696.422 1186.93 696.265C1189.24 696.265 1191.91 696.244 1194.69 696.233C1193 693.858 1191.26 691.399 1189.65 689.129C1187.67 686.314 1185.87 683.719 1184.5 681.668C1181.76 677.566 1180.72 675.62 1183.3 678.414C1184.9 680.12 1180.43 673.978 1177.79 670.274C1161.56 647.516 1167.3 654.118 1167.02 652.768V652.789ZM22.4851 655.259L27.1224 655.426C26.4106 655.374 25.7825 655.321 24.9137 655.248C24.7462 655.248 23.3225 655.248 22.4851 655.248V655.259ZM95.5617 695.501L97.0167 695.396C96.1165 695.417 95.2162 695.428 94.3264 695.448L95.5617 695.501ZM171.025 695.386H165.718C167.403 695.396 169.078 695.428 170.753 695.448L171.025 695.386ZM258.422 695.427L251.125 695.333C253.135 695.386 255.135 695.448 257.134 695.501L258.411 695.427H258.422ZM793.186 695.386L792.223 695.354C792.286 695.354 792.317 695.354 792.401 695.365C792.568 695.365 792.914 695.365 793.186 695.375V695.386Z" fill="#202124"/>
<path d="M1165.35 2.09268H2.19824V653.553H1165.35V2.09268Z" fill="white"/>
<path d="M1163.55 653.051C1163.02 654.809 1162.64 648.771 1162.63 619.327C1162.77 540.318 1162.9 462.743 1163.05 384.058V384.184V379.507V379.622C1163.03 328.194 1163.01 276.809 1162.98 225.862C1163 152.075 1163.02 78.4544 1163.04 4.40508C1148.27 4.37369 1133.47 4.3423 1118.63 4.31091C1018.02 4.03886 915.441 4.23766 813.954 4.1121C692.003 4.12257 570.314 4.13303 448.551 4.14349C345.348 4.24813 242.228 4.3423 139.014 4.44693C94.1803 4.40508 49.3148 4.37369 4.43879 4.33183C4.40738 29.7683 4.37598 55.2048 4.34458 80.6413C4.34458 106.779 4.34458 133.031 4.35504 159.19C4.33411 190.81 4.43879 220.223 3.98867 253.172C3.61182 280.649 3.89446 322.691 3.86305 358.256C3.82118 407.58 3.77931 457.082 3.73744 506.155C3.73744 530.703 3.72697 555.438 3.7165 580.079C3.7165 592.405 3.73744 604.71 3.73744 616.963C3.78978 628.64 3.84212 640.275 3.89446 651.827C4.59581 651.827 5.28669 651.806 5.9671 651.795H5.60073C34.8795 651.806 64.6084 651.91 93.3638 651.827C158.464 651.628 222.486 651.963 286.445 652.067C466.566 652.35 646.52 652.381 826.621 652.256C895.604 652.13 964.399 651.994 1033.29 651.868H1032.96C1086.72 651.806 1117.63 652.758 1147.62 653.595C1180.32 654.505 1166.14 655.175 1118.28 655.332C1027.48 655.625 936.544 655.918 844.971 655.907C761.845 655.855 678.835 655.792 595.52 655.74C552.759 655.719 509.924 655.698 467.131 655.677H467.351C465.781 655.583 464.242 655.593 462.735 655.677H462.881C403.497 655.395 343.652 655.583 283.995 655.562C252.005 655.552 220.256 655.447 188.151 655.28C166.294 655.164 135.675 655.405 108.71 655.416H0.335362V510.707L0.356298 452.698C0.586592 428.915 0.366766 405.163 0.356298 381.39C0.366766 367.045 0.387702 352.668 0.39817 338.312C0.377234 320.535 0.356298 302.339 0.335362 285.075C0.157408 247.124 0.241151 210.115 0.429574 172.876C0.450509 168.963 0.366766 164.212 0.335362 159.859V160.163C0.314427 152.42 0.283023 144.677 0.251619 136.945C0.251619 136.338 0.230683 135.804 0.230683 135.239C0.251619 135.019 0.283023 134.789 0.314427 134.507C0.440042 101.945 0.272555 69.9372 0.209747 37.7309C0.251619 33.0957 0.303959 28.4499 0.34583 23.8146C0.34583 23.6995 0.34583 23.574 0.34583 23.4589V24.0448V23.4275C0.34583 23.2078 0.335362 23.009 0.324894 22.7265C0.324894 22.5695 0.324894 22.1824 0.34583 21.858C0.34583 14.6383 0.324894 7.41853 0.324894 0.198799C19.23 0.167409 38.1141 0.125556 57.0192 0.0941655C75.2961 0.0732387 93.5941 0.0732387 111.955 0.156946H112.101L188.946 0.230189H188.716C192.997 0.303433 197.279 0.397603 201.372 0.219726H201.141C204.763 0.198799 208.385 0.167409 212.028 0.136019L214.98 -4.93161e-06C232.399 -4.93161e-06 250.037 -0.0313951 265.896 0.209263H265.551C269.403 0.136019 273.234 0.0418486 277.337 0.209263C277.18 0.209263 276.992 0.209263 276.804 0.219726H277.714C297.917 0.167409 318.12 0.136019 338.344 0.0941655H338.533C351.796 -0.0209317 363.122 -0.0941753 375.82 0.240653C385.398 0.491774 398.629 -0.104639 412.227 0.156946H412.321H416.048H415.807L586.968 0.115092H587.282C659.04 0.659188 732.577 0.376677 805.371 0.366213C884.896 0.313896 964.42 0.272043 1043.93 0.219726C1075.61 0.188336 1107.27 0.146482 1138.93 0.115092H1138.95C1143.09 0.0313852 1147.25 -4.93283e-06 1151.48 0.115092L1150.92 0.125556H1151.34C1156.48 0.125556 1161.75 0.125556 1167.31 0.125556C1167.31 11.7294 1167.31 23.71 1167.31 35.0628C1167.34 45.7877 1167.36 55.9163 1167.38 64.5067C1167.57 100.982 1167.54 136.631 1167.59 172.29C1167.64 247.857 1167.71 323.664 1167.76 399.303C1167.78 423.17 1167.9 447.205 1168.04 470.486C1168.17 491.004 1167.92 497.628 1167.51 500.84C1166.71 507.087 1166.23 518.555 1166.39 559.414C1166.47 581.649 1166.47 622.079 1165.28 608.205C1164.99 604.783 1165.03 616.01 1165.02 622.738C1164.93 664.058 1164.13 651.178 1163.56 653.04L1163.55 653.051ZM0.502849 127.413L0.335362 134.277C0.387702 133.22 0.440042 132.309 0.513317 131.012C0.513317 130.771 0.513317 128.658 0.513317 127.413H0.502849ZM109.537 0.282506L111.693 0.177873C110.364 0.198799 109.034 0.209263 107.715 0.230189L109.537 0.282506ZM221.104 0.177873H213.263C215.755 0.188336 218.236 0.219726 220.706 0.240653L221.104 0.177873ZM350.299 0.209263L339.517 0.115092C342.49 0.167409 345.442 0.230189 348.404 0.282506L350.299 0.209263ZM1140.86 0.177873L1139.43 0.146482C1139.53 0.146482 1139.58 0.146482 1139.71 0.156946C1139.96 0.156946 1140.47 0.156946 1140.86 0.167409V0.177873Z" fill="#202124"/>
<path d="M620.004 663.954H482.498V677.682H620.004V663.954Z" fill="#202124"/>
<path d="M621.805 663.996C622.339 663.849 622.716 664.351 622.726 666.81C622.726 668.631 622.705 670.451 622.663 672.262L622.59 674.982L622.506 680.182C618.769 680.12 615.032 680.057 611.274 679.984H610.887C606.595 679.868 602.314 680.12 598.064 680.057C590.558 679.931 583.063 680.151 575.516 679.9C567.131 679.628 558.579 679.827 550.121 679.701C539.956 679.555 529.813 679.628 519.669 679.732C511.065 679.816 502.471 680.004 493.877 680.036L488.182 680.004L480.237 679.921L480.331 671.132C480.331 668.401 480.331 665.659 480.321 662.928C480.321 662.541 480.321 662.154 480.321 661.788C481.399 661.788 482.456 661.788 483.513 661.788H485.104L486.036 661.819C487.219 661.861 488.423 661.945 489.679 662.154C491.971 662.531 495.478 662.248 498.441 662.28C502.554 662.321 506.679 662.468 510.772 662.405C514.969 662.342 519.23 662.593 523.375 662.217H523.344C525.783 662.227 528.264 662.332 530.661 662.248C536.083 662.049 541.422 662.384 546.75 662.489C561.761 662.771 576.762 662.803 591.762 662.677C597.509 662.635 603.245 662.426 608.982 662.29H608.95C613.431 662.227 616.006 663.179 618.508 664.016C621.229 664.927 620.046 665.596 616.058 665.753C608.49 666.046 600.911 666.339 593.28 666.329C586.35 666.329 579.431 666.12 572.491 666.161C568.932 666.182 565.362 666.12 561.792 666.099H561.813C561.688 666.004 561.552 666.015 561.426 666.099H561.437C556.485 665.816 551.502 666.004 546.53 665.984C543.861 665.973 541.223 665.868 538.543 665.701C536.722 665.586 534.168 665.827 531.927 665.837H511.138L506.302 665.806C504.324 665.575 502.335 665.785 500.356 665.795L496.766 665.753C495.279 665.753 493.772 665.732 492.327 665.816C490.747 665.91 489.187 665.931 487.627 665.91L485.303 665.848C485.178 665.848 485.167 665.848 485.136 665.837H485.042L484.843 665.795L484.403 665.732C484.34 665.732 484.288 665.732 484.246 665.753C484.267 665.837 484.298 665.931 484.319 666.015L484.414 666.632C484.414 666.643 484.434 666.664 484.434 666.674L484.351 666.695C484.225 669.374 484.393 672.063 484.455 674.741C484.445 674.825 484.434 674.961 484.424 675.003L484.393 675.087L484.319 675.275V675.296C484.319 675.296 484.33 675.296 484.34 675.306C484.34 675.306 484.34 675.327 484.319 675.338L484.34 675.83L485.052 675.777H485.136L485.178 675.767H485.314L485.89 675.746L487.031 675.725C488.559 675.704 490.077 675.704 491.605 675.788H491.615L498.022 675.861H498.001C498.357 675.934 498.713 676.028 499.058 675.851H499.037L499.948 675.767L500.189 675.62C501.644 675.62 503.109 675.599 504.428 675.83H504.397C504.721 675.767 505.035 675.673 505.381 675.83H505.339H505.412L510.468 675.714H510.489C511.599 675.599 512.541 675.526 513.598 675.861C514.394 676.112 515.503 675.516 516.634 675.777C516.738 675.777 516.843 675.777 516.948 675.777H516.927L531.195 675.735H531.216C537.193 676.28 543.327 675.997 549.388 675.987L569.267 675.84L577.18 675.735C577.526 675.652 577.871 675.62 578.227 675.735H578.185H578.217C580.362 675.756 582.854 675.777 584.592 675.673C587.638 675.484 590.6 675.516 593.573 675.463C599.875 675.411 606.197 675.348 612.499 675.296C613.493 675.286 614.488 675.254 615.482 675.202C615.974 675.17 616.477 675.149 616.969 675.118H617.157L617.241 675.097V675.066C617.241 675.045 617.241 675.034 617.241 675.013C617.22 674.961 617.21 674.972 617.272 675.024C617.356 675.097 617.545 675.212 617.796 675.338C618.194 675.537 618.518 675.547 618.717 675.17C618.822 675.066 618.884 674.48 618.926 673.936C618.958 673.36 618.968 672.659 618.926 671.812C618.843 669.96 618.843 666.59 620.036 667.741C620.329 668.024 620.287 667.093 620.298 666.528C620.381 663.085 621.187 664.152 621.753 664.006L621.805 663.996ZM484.204 667.239L484.372 666.674C484.309 666.758 484.256 666.842 484.194 666.946C484.194 666.967 484.194 667.145 484.194 667.25L484.204 667.239ZM491.448 675.871L491.626 675.767L491.291 675.819L491.448 675.871ZM500.743 675.756H500.094L500.712 675.819L500.743 675.756ZM511.505 675.798L510.604 675.704L511.347 675.871L511.505 675.798ZM577.39 675.756L577.274 675.725C577.274 675.725 577.285 675.725 577.295 675.735C577.316 675.735 577.358 675.746 577.39 675.746V675.756Z" fill="#202124"/>
<path d="M620.004 663.954H482.498V641.562C482.498 635.661 487.282 630.879 493.186 630.879H609.327C615.231 630.879 620.015 635.661 620.015 641.562V663.954H620.004Z" fill="#E4C472"/>
<path d="M480.949 638.266L480.959 638.245V638.224L480.949 638.266Z" fill="#202124"/>
<path d="M618.204 663.901C617.67 664.058 617.293 663.514 617.283 660.815C617.283 657.205 617.367 653.616 617.471 650.048L617.618 644.68L617.67 641.991C617.691 641.499 617.66 641.206 617.649 640.84C617.628 640.484 617.565 640.139 617.513 639.794L617.429 639.48C617.053 637.68 615.912 636.058 614.446 634.97C612.981 633.84 611.159 633.327 609.359 633.254C601.131 633.118 592.903 633.348 584.612 633.097C575.411 632.825 566.032 633.024 556.747 632.898C545.588 632.752 534.461 632.825 523.323 632.93C513.881 633.013 504.449 633.202 495.007 633.233H493.772H493.165L492.683 633.254C492.045 633.275 491.417 633.401 490.799 633.558C489.564 633.903 488.423 634.562 487.46 635.41C486.486 636.268 485.722 637.356 485.251 638.569C485.125 638.873 485.021 639.176 484.947 639.49C484.843 639.804 484.811 640.129 484.748 640.442C484.675 640.767 484.696 641.091 484.665 641.426C484.644 641.782 484.654 642.232 484.644 642.629C484.644 645.025 484.644 647.422 484.654 649.818C484.633 652.706 484.738 655.405 484.288 658.419C484.173 659.172 484.12 660.04 484.099 660.972C484.099 661.212 484.099 661.453 484.099 661.714C484.099 661.913 484.11 662.112 484.12 662.321L484.968 662.28C485.178 662.28 485.387 662.28 485.596 662.269C485.931 662.269 486.266 662.269 486.601 662.269C491.113 662.311 495.646 662.457 500.136 662.395C504.742 662.332 509.421 662.583 513.975 662.206H513.944C516.623 662.217 519.345 662.321 521.972 662.238C527.929 662.039 533.78 662.374 539.632 662.478C556.108 662.761 572.564 662.792 589.04 662.667C595.353 662.625 601.644 662.416 607.945 662.28H607.914C612.834 662.217 615.66 663.169 618.403 664.006C621.397 664.916 620.099 665.586 615.723 665.743C607.422 666.036 599.1 666.329 590.726 666.318C583.126 666.318 575.526 666.109 567.906 666.151C563.991 666.172 560.076 666.109 556.161 666.088H556.182C556.035 665.994 555.899 666.005 555.763 666.088H555.773C550.34 665.806 544.866 665.994 539.412 665.973C536.481 665.963 533.581 665.858 530.65 665.691C528.651 665.576 525.846 665.816 523.386 665.827H500.576L495.269 665.795C493.091 665.565 490.914 665.774 488.747 665.785L484.508 665.743C483.262 665.743 481.995 665.743 480.75 665.743C480.75 664.289 480.729 662.866 480.687 661.442L480.635 660.061L480.603 658.774C480.593 657.916 480.593 657.058 480.603 656.211C480.624 654.505 480.697 652.81 480.781 651.105C480.802 650.749 480.718 650.309 480.687 649.912V649.943L480.603 647.819C480.603 647.767 480.582 647.714 480.582 647.662L480.666 647.599C480.729 646.114 480.718 644.638 480.687 643.163C480.687 642.399 480.624 641.771 480.656 640.851C480.656 640.411 480.697 639.982 480.76 639.553C480.802 639.114 480.907 638.695 481.011 638.266C481.168 637.785 481.409 637.335 481.619 636.885V636.843C481.619 636.843 481.619 636.791 481.619 636.77C481.619 636.749 481.65 636.717 481.671 636.686C482.582 634.552 484.026 632.637 485.921 631.256C487.805 629.885 490.119 629.027 492.463 629.016H492.484C493.217 628.964 493.761 628.985 494.358 628.996L496.117 629.016L499.634 629.058H499.613C500 629.132 500.398 629.226 500.775 629.048H500.754L501.748 628.964L502.021 628.818C503.612 628.818 505.224 628.797 506.679 629.027H506.647C507.003 628.964 507.349 628.87 507.726 629.027C507.715 629.027 507.694 629.027 507.673 629.037H507.757L513.305 628.912H513.326C514.54 628.797 515.577 628.723 516.738 629.058C517.618 629.309 518.822 628.713 520.067 628.975C520.182 628.975 520.298 628.975 520.413 628.975H520.392L536.052 628.933H536.083C542.647 629.477 549.377 629.194 556.035 629.184L577.861 629.037L586.549 628.933C586.926 628.849 587.313 628.818 587.69 628.933H587.638H587.68C590.035 628.954 592.767 628.975 594.672 628.87C598.011 628.682 601.267 628.713 604.533 628.661L607.129 628.629H608.427L609.076 628.608H609.4L609.798 628.619C611.892 628.682 614.006 629.215 615.838 630.272C619.533 632.323 622.098 636.278 622.444 640.516L622.506 641.52L622.527 642.347L622.59 643.979C622.653 645.067 622.716 646.145 622.779 647.212C622.904 649.085 622.653 649.692 622.245 649.985C621.449 650.561 620.968 651.607 621.125 655.342C621.208 657.372 621.208 661.076 620.015 659.81C619.722 659.496 619.764 660.522 619.753 661.139C619.67 664.916 618.863 663.744 618.298 663.912L618.204 663.901ZM480.792 646.93L480.624 647.558C480.687 647.463 480.739 647.38 480.802 647.254C480.802 647.233 480.802 647.034 480.802 646.93H480.792ZM492.17 629.121L492.39 629.006L491.971 629.079L492.17 629.121ZM502.523 628.964H501.801L502.481 629.027L502.513 628.964H502.523ZM514.341 628.996L513.357 628.901L514.174 629.069L514.352 628.996H514.341ZM586.654 628.954L586.528 628.922C586.528 628.922 586.539 628.922 586.549 628.933C586.57 628.933 586.622 628.943 586.654 628.943V628.954Z" fill="#202124"/>
</g>
<defs>
<clipPath id="clip0_75_22">
<rect width="1202" height="700" fill="white"/>
</clipPath>
</defs>
</svg>
